<?xml version="1.0" encoding="UTF-8"?>
<svg width="560px" height="112px" viewBox="0 0 560 112" version="1.1" xmlns="http://www.w3.org/2000/svg" xmlns:xlink="http://www.w3.org/1999/xlink">
    <!-- Generator: Sketch 59 (86127) - https://sketch.com -->
    <title>500 Startups Logo</title>
    <desc>Created with Sketch.</desc>
    <g id="Page-1" stroke="none" stroke-width="1" fill="none" fill-rule="evenodd">
        <g id="Icons" transform="translate(-720.000000, -117.000000)" fill="#FFFFFF" fill-rule="nonzero">
            <g id="500-Startups-Logo" transform="translate(720.000000, 117.000000)">
                <path d="M6,97.7656144 C6,96.4656144 5.3,86.2656144 4.5,74.9656144 C2.3,44.9656144 1.5,48.5656144 11.7,45.4656144 C20.9,42.6656144 21.2,42.6656144 30.5,45.9656144 C38.4,48.8656144 54.3,48.5656144 56.5,45.5656144 C59.6,41.4656144 59.6,24.4656144 56.5,20.3656144 C55.3,18.6656144 53.5,18.4656144 42.3,18.1656144 C26.8,17.7656144 25,18.5656144 24.1,26.5656144 L23.5,31.4656144 L12.1,31.7656144 L0.7,32.0656144 L1.4,23.2656144 C2.4,9.56561437 6.6,2.96561437 15.6,0.965614365 C21.2,-0.434385635 62.6,-0.234385635 67.5,1.06561437 C72.6,2.46561437 78.5,8.66561437 80.2,14.2656144 C81.9,19.8656144 81.9,46.0656144 80.2,51.6656144 C78.7,56.6656144 75,61.3656144 70.6,63.7656144 C68,65.1656144 64.6,65.4656144 49.8,65.4656144 C33.1,65.4656144 32,65.3656144 29.1,63.2656144 C27.5,61.9656144 25.6,60.9656144 25,60.9656144 C23.9,60.9656144 24.1,65.5656144 25.6,77.7656144 L26.1,81.9656144 L52.6,81.9656144 L79,81.9656144 L79,90.9656144 L79,99.9656144 L42.5,99.9656144 L6,99.9656144 L6,97.7656144 Z" id="Path" transform="translate(41.087500, 49.982807) scale(-1, 1) rotate(-180.000000) translate(-41.087500, -49.982807) "></path>
                <path d="M103,98.8486619 C90.2,95.2486619 85,81.2486619 85,50.0486619 C85,17.9486619 90.3,4.24866185 104,1.14866185 C109.8,-0.251338149 145.2,-0.251338149 151,1.14866185 C164.6,4.24866185 169.9,17.9486619 169.9,50.0486619 C169.9,81.8486619 164.9,95.2486619 151.5,98.9486619 C146.5,100.348662 107.8,100.248662 103,98.8486619 Z M141.9,79.5486619 C144.7,76.7486619 146,67.2486619 146,50.0486619 C146,33.8486619 144.7,23.4486619 142.3,20.8486619 C140.9,19.2486619 138.8,19.0486619 127.5,19.0486619 C116.2,19.0486619 114.1,19.2486619 112.7,20.8486619 C110.3,23.4486619 109,33.8486619 109,50.0486619 C109,66.1486619 110.3,76.6486619 112.7,79.2486619 C114.8,81.5486619 116.9,81.9486619 129.2,81.6486619 C138.5,81.5486619 140.2,81.2486619 141.9,79.5486619 Z" id="Shape" transform="translate(127.450000, 50.024331) scale(-1, 1) rotate(-180.000000) translate(-127.450000, -50.024331) "></path>
                <path d="M193,98.8486619 C180.2,95.2486619 175,81.2486619 175,50.0486619 C175,17.9486619 180.3,4.24866185 194,1.14866185 C199.8,-0.251338149 235.2,-0.251338149 241,1.14866185 C254.6,4.24866185 259.9,17.9486619 259.9,50.0486619 C259.9,81.8486619 254.9,95.2486619 241.5,98.9486619 C236.5,100.348662 197.8,100.248662 193,98.8486619 Z M231.9,79.5486619 C234.7,76.7486619 236,67.2486619 236,50.0486619 C236,33.8486619 234.7,23.4486619 232.3,20.8486619 C230.9,19.2486619 228.8,19.0486619 217.5,19.0486619 C206.2,19.0486619 204.1,19.2486619 202.7,20.8486619 C200.3,23.4486619 199,33.8486619 199,50.0486619 C199,66.1486619 200.3,76.6486619 202.7,79.2486619 C204.8,81.5486619 206.9,81.9486619 219.2,81.6486619 C228.5,81.5486619 230.2,81.2486619 231.9,79.5486619 Z" id="Shape" transform="translate(217.450000, 50.024331) scale(-1, 1) rotate(-180.000000) translate(-217.450000, -50.024331) "></path>
                <path d="M315,95 L315,90 L311.5,90 C308.2,90 308,89.8 308,86.5 C308,83.2 308.2,83 311.5,83 L315,83 L315,67.2 C315,48.5 315.5,47 322.4,47 C324.8,47 328.2,47.3 329.9,47.6 C332.5,48.1 333,48.7 333,51.1 C333,53.7 332.7,53.9 328.3,54.2 L323.5,54.5 L323.2,68.8 L322.9,83 L328,83 L333,83 L333,86.5 L333,90 L328,90 L323,90 L323,95 L323,100 L319,100 L315,100 L315,95 Z" id="Path" transform="translate(320.500000, 73.500000) scale(-1, 1) rotate(-180.000000) translate(-320.500000, -73.500000) "></path>
                <path d="M416,95 L416,90 L412.5,90 C409.2,90 409,89.8 409,86.5 C409,83.2 409.2,83 412.5,83 L416,83 L416,67.2 C416,48.5 416.5,47 423.4,47 C425.8,47 429.2,47.3 430.9,47.6 C433.5,48.1 434,48.7 434,51.1 C434,53.7 433.7,53.9 429.3,54.2 L424.5,54.5 L424.2,68.8 L423.9,83 L429,83 L434,83 L434,86.5 L434,90 L429,90 L424,90 L424,95 L424,100 L420,100 L416,100 L416,95 Z" id="Path" transform="translate(421.500000, 73.500000) scale(-1, 1) rotate(-180.000000) translate(-421.500000, -73.500000) "></path>
                <path d="M274.4,99.0930665 C271.4,97.8930665 269.7,92.0930665 270.2,85.2930665 C270.8,78.0930665 272.7,76.5930665 281.7,75.6930665 C294.9,74.3930665 296,74.0930665 296.6,71.4930665 C296.9,70.1930665 296.9,67.9930665 296.6,66.5930665 C295.9,63.9930665 295.9,63.9930665 286.7,64.2930665 L277.5,64.5930665 L277.2,67.3930665 C276.9,69.7930665 276.4,70.0930665 273.4,70.0930665 C270,70.0930665 270,69.9930665 270,65.6930665 C270,62.0930665 270.5,60.8930665 272.6,59.1930665 C275,57.2930665 276.6,57.0930665 287,57.0930665 C302.8,57.0930665 303.5,57.5930665 303.5,69.4930665 C303.5,75.6930665 303.1,78.3930665 302,79.4930665 C301,80.4930665 296.5,81.4930665 289.5,82.2930665 L278.5,83.5930665 L278.2,88.3930665 L277.9,93.0930665 L286.3,93.0930665 L294.8,93.0930665 L295.4,90.0930665 C295.9,87.3930665 296.3,87.0930665 299.6,87.0930665 L303.3,87.0930665 L302.6,91.8930665 C301.7,99.1930665 299.9,100.093067 287.1,99.9930665 C281.3,99.9930665 275.5,99.5930665 274.4,99.0930665 Z" id="Path" transform="translate(286.750000, 78.546533) scale(-1, 1) rotate(-180.000000) translate(-286.750000, -78.546533) "></path>
                <path d="M343.7,97.8765269 C341.9,96.3765269 340.8,94.0765269 340.4,91.3765269 L339.7,87.0765269 L343.8,87.0765269 C347.5,87.0765269 347.9,87.3765269 348.2,89.8765269 C348.5,92.5765269 348.5,92.5765269 356.5,92.5765269 L364.5,92.5765269 L364.8,86.5765269 L365.1,80.5765269 L355.8,80.8765269 C350.7,81.0765269 345.2,80.7765269 343.7,80.1765269 C336.8,77.4765269 336,61.2765269 342.6,58.1765269 C344,57.5765269 347.9,57.0765269 351.3,57.0765269 C356.3,57.0765269 358.3,57.5765269 361.3,59.5765269 L365,62.1765269 L365,59.5765269 C365,57.2765269 365.4,57.0765269 369.1,57.0765269 L373.1,57.0765269 L372.8,76.5765269 C372.4,100.776527 373.3,99.4765269 357.6,99.8765269 C346.9,100.176527 346.2,100.076527 343.7,97.8765269 Z M365,70.6765269 C365,66.8765269 364.7,66.1765269 362.2,65.1765269 C360.6,64.4765269 356.4,64.0765269 352.9,64.2765269 L346.5,64.5765269 L346.2,68.3765269 C345.7,74.2765269 347,75.0765269 356.6,75.0765269 L365,75.0765269 L365,70.6765269 Z" id="Shape" transform="translate(355.581243, 78.538263) scale(-1, 1) rotate(-180.000000) translate(-355.581243, -78.538263) "></path>
                <path d="M381,78.5 L381,57 L385,57 L389,57 L389,73.4 C389,82.9 389.4,90.1 390,90.5 C390.5,90.8 393.9,91.3 397.5,91.7 L404,92.3 L404,96.1 C404,99.9 403.9,100 400.2,100 C397.5,100 395.4,99.2 392.7,96.9 L389,93.9 L389,96.9 C389,99.8 388.8,100 385,100 L381,100 L381,78.5 Z" id="Path" transform="translate(392.500000, 78.500000) scale(-1, 1) rotate(-180.000000) translate(-392.500000, -78.500000) "></path>
                <path d="M442,82 C442,62.5 442.6,59.8 447.1,58 C451.6,56.1 462,57.1 465.8,59.9 L469,62.1 L469,59.6 C469,57.2 469.4,57 473,57 L477,57 L477,78.5 L477,100 L473,100 L469,100 L469,83.1 L469,66.2 L465.9,65.1 C461.7,63.6 452.7,63.7 451.2,65.2 C450.4,66 450,71.5 450,83.2 L450,100 L446,100 L442,100 L442,82 Z" id="Path" transform="translate(459.500000, 78.500000) scale(-1, 1) rotate(-180.000000) translate(-459.500000, -78.500000) "></path>
                <path d="M483,84.495695 L483,56.995695 L487,56.995695 L491,56.995695 L491,65.595695 L491,74.095695 L494.2,71.895695 C498,69.095695 508.4,68.095695 512.9,69.895695 C517.7,71.995695 518.5,74.795695 518.5,90.495695 C518.5,106.195695 517.7,108.995695 512.9,111.095695 C508.4,112.895695 498,111.895695 494.2,109.095695 L491,106.895695 L491,109.395695 C491,111.795695 490.6,111.995695 487,111.995695 L483,111.995695 L483,84.495695 Z M509.4,103.395695 C511.7,101.095695 511.7,79.895695 509.4,77.595695 C507.4,75.595695 499.2,75.495695 494.5,77.395695 L491,78.895695 L491,90.895695 L491,102.795695 L493.8,103.795695 C498.2,105.495695 507.6,105.195695 509.4,103.395695 Z" id="Shape" transform="translate(500.750000, 84.497847) scale(-1, 1) rotate(-180.000000) translate(-500.750000, -84.497847) "></path>
                <path d="M530.4,99.0930665 C527.4,97.8930665 525.7,92.0930665 526.2,85.2930665 C526.8,78.0930665 528.7,76.5930665 537.7,75.6930665 C550.9,74.3930665 552,74.0930665 552.6,71.4930665 C552.9,70.1930665 552.9,67.9930665 552.6,66.5930665 C551.9,63.9930665 551.9,63.9930665 542.7,64.2930665 L533.5,64.5930665 L533.2,67.3930665 C532.9,69.7930665 532.4,70.0930665 529.4,70.0930665 C526,70.0930665 526,69.9930665 526,65.6930665 C526,62.0930665 526.5,60.8930665 528.6,59.1930665 C531,57.2930665 532.6,57.0930665 543,57.0930665 C558.8,57.0930665 559.5,57.5930665 559.5,69.4930665 C559.5,75.6930665 559.1,78.3930665 558,79.4930665 C557,80.4930665 552.5,81.4930665 545.5,82.2930665 L534.5,83.5930665 L534.2,88.3930665 L533.9,93.0930665 L542.3,93.0930665 L550.8,93.0930665 L551.4,90.0930665 C551.9,87.3930665 552.3,87.0930665 555.6,87.0930665 L559.3,87.0930665 L558.6,91.8930665 C557.7,99.1930665 555.9,100.093067 543.1,99.9930665 C537.3,99.9930665 531.5,99.5930665 530.4,99.0930665 Z" id="Path" transform="translate(542.750000, 78.546533) scale(-1, 1) rotate(-180.000000) translate(-542.750000, -78.546533) "></path>
            </g>
        </g>
    </g>
</svg>