<?xml version="1.0" encoding="UTF-8"?>
<svg width="130px" height="106px" viewBox="0 0 130 106" version="1.1" xmlns="http://www.w3.org/2000/svg" xmlns:xlink="http://www.w3.org/1999/xlink">
    <!-- Generator: Sketch 59 (86127) - https://sketch.com -->
    <title>binoculars</title>
    <desc>Created with Sketch.</desc>
    <g id="Page-1" stroke="none" stroke-width="1" fill="none" fill-rule="evenodd">
        <g id="Icons" transform="translate(-45.000000, -316.000000)" fill="#0FB5CD" fill-rule="nonzero">
            <g id="binoculars" transform="translate(45.000000, 316.000000)">
                <path d="M102.5,61 C101.12,61 100,62.12 100,63.5 C100,64.88 101.12,66 102.5,66 C103.88,66 105,64.88 105,63.5 C105,62.12 103.88,61 102.5,61 Z" id="Path"></path>
                <path d="M27.5,61 C26.12,61 25,62.12 25,63.5 C25,64.88 26.12,66 27.5,66 C28.88,66 30,64.88 30,63.5 C30,62.12 28.88,61 27.5,61 Z" id="Path"></path>
                <path d="M127.523145,66.7951429 L103.274082,8.93781905 C103.263164,8.91157143 103.251738,8.88582857 103.239805,8.86008571 C100.767773,3.47780952 95.3255469,0 89.375,0 C81.8581055,0 75.5995703,5.44108095 74.365332,12.5680667 C71.6924609,11.1065286 68.4457617,10.2915905 65,10.2915905 C61.5542383,10.2915905 58.3075391,11.1065286 55.634668,12.5680667 C54.4004297,5.44108095 48.1418945,0 40.625,0 C34.6744531,0 29.2322266,3.47780952 26.7601953,8.86008571 C26.7482617,8.88582857 26.7368359,8.91157143 26.725918,8.93781905 L2.47685547,66.7951429 C0.833828125,70.3993952 0,74.2487095 0,78.2380952 C0,93.5460095 12.5292578,106 27.9296875,106 C43.3301172,106 55.859375,93.5460095 55.859375,78.2380952 L55.859375,64.057819 C57.9116992,61.9865286 61.2541211,60.7675286 65,60.7675286 C68.7458789,60.7675286 72.0883008,61.9862762 74.140625,64.057819 L74.140625,78.2380952 C74.140625,93.5460095 86.6698828,106 102.070312,106 C117.470742,106 130,93.5460095 130,78.2380952 C130,74.2487095 129.166172,70.3993952 127.523145,66.7951429 Z M27.9296875,100.952381 C15.3293359,100.952381 5.078125,90.7627524 5.078125,78.2380952 C5.078125,65.5092619 15.5217969,55.5238095 27.9296875,55.5238095 C40.5300391,55.5238095 50.78125,65.7134381 50.78125,78.2380952 C50.78125,90.7627524 40.5300391,100.952381 27.9296875,100.952381 Z M50.78125,62.2946857 C45.7224219,55.1523048 37.3656055,50.4761905 27.9296875,50.4761905 C22.5494141,50.4761905 17.3974023,52.0295952 13.0119336,54.7850905 L31.3962695,10.9205238 C33.0527539,7.35135238 36.6706641,5.04761905 40.625,5.04761905 C46.2251563,5.04761905 50.78125,9.57634286 50.78125,15.1428571 L50.78125,62.2946857 Z M74.140625,57.8782714 C71.510918,56.4921952 68.3505469,55.7199095 65,55.7199095 C61.6494531,55.7199095 58.489082,56.4921952 55.859375,57.8782714 L55.859375,53.962581 C57.9116992,51.8912905 61.2541211,50.6722905 65,50.6722905 C68.7458789,50.6722905 72.0883008,51.8910381 74.140625,53.962581 L74.140625,57.8782714 Z M74.140625,47.7830333 C71.510918,46.3969571 68.3505469,45.6246714 65,45.6246714 C61.6494531,45.6246714 58.489082,46.3969571 55.859375,47.7830333 L55.859375,18.6292476 C57.9116992,16.5579571 61.2541211,15.3389571 65,15.3389571 C68.7458789,15.3389571 72.0883008,16.5577048 74.140625,18.6292476 L74.140625,47.7830333 Z M79.21875,15.1428571 C79.21875,9.57634286 83.7748438,5.04761905 89.375,5.04761905 C93.3293359,5.04761905 96.9472461,7.35135238 98.6037305,10.9205238 L116.98832,54.7853429 C112.602598,52.0295952 107.450586,50.4761905 102.070313,50.4761905 C92.6343945,50.4761905 84.2775781,55.1523048 79.21875,62.2946857 L79.21875,15.1428571 Z M102.070312,100.952381 C89.4699609,100.952381 79.21875,90.7627524 79.21875,78.2380952 C79.21875,65.7134381 89.4699609,55.5238095 102.070312,55.5238095 C114.47541,55.5238095 124.921875,65.505981 124.921875,78.2380952 C124.921875,90.7627524 114.670664,100.952381 102.070312,100.952381 Z" id="Shape"></path>
                <path d="M39.50125,64.5633586 C38.42925,63.6852754 36.8545,63.8517954 35.985,64.9363229 C35.11575,66.0205977 35.28125,67.6120129 36.354,68.4903488 C39.3065,70.9080466 41,74.4878464 41,78.3119934 C41,85.2785412 35.3925,90.9462838 28.5,90.9462838 C27.1195,90.9462838 26,92.0778109 26,93.4731419 C26,94.868473 27.1195,96 28.5,96 C38.1495,96 46,88.0654129 46,78.3119934 C46,72.9565704 43.63125,67.9453055 39.50125,64.5633586 Z" id="Path"></path>
                <path d="M113.50125,64.5633586 C112.429,63.6852754 110.8545,63.8517954 109.985,64.9363229 C109.11575,66.0205977 109.28125,67.6120129 110.354,68.4903488 C113.3065,70.9080466 115,74.4878464 115,78.3119934 C115,85.2785412 109.3925,90.9462838 102.5,90.9462838 C101.1195,90.9462838 100,92.0778109 100,93.4731419 C100,94.868473 101.1195,96 102.5,96 C112.1495,96 120,88.0654129 120,78.3119934 C120,72.9565704 117.63125,67.9453055 113.50125,64.5633586 Z" id="Path"></path>
            </g>
        </g>
    </g>
</svg>