<?xml version="1.0" encoding="UTF-8"?>
<svg width="245px" height="276px" viewBox="0 0 245 276" version="1.1" xmlns="http://www.w3.org/2000/svg" xmlns:xlink="http://www.w3.org/1999/xlink">
    <!-- Generator: Sketch 59 (86127) - https://sketch.com -->
    <title>contract</title>
    <desc>Created with Sketch.</desc>
    <g id="Page-1" stroke="none" stroke-width="1" fill="none" fill-rule="evenodd">
        <g id="Icons" transform="translate(-923.000000, -1234.000000)" fill="#0FB5CD">
            <g id="contract" transform="translate(923.000000, 1234.000000)">
                <g id="Contract" fill-rule="nonzero">
                    <path d="M131.093665,39.0457481 C131.092146,39.0031068 131.090626,38.9604655 131.087588,38.9178242 C131.075433,38.7487817 131.05872,38.5827852 131.025294,38.4183115 C131.025294,38.4183115 131.025294,38.4183115 131.025294,38.4167883 C130.991868,38.252315 130.944767,38.0893641 130.89159,37.9309821 C130.877915,37.8913864 130.864241,37.851791 130.849047,37.8121953 C130.792831,37.6614277 130.729018,37.513706 130.656088,37.3705532 C130.651531,37.3629388 130.648492,37.355324 130.643933,37.3477096 C130.564927,37.1984647 130.473765,37.0568347 130.375006,36.9182503 C130.350696,36.8832238 130.324867,36.8497197 130.299038,36.8146932 C130.194202,36.6776316 130.084808,36.5451388 129.96174,36.4217836 L94.7641801,1.14217856 C94.6411114,1.018823 94.5089272,0.909173879 94.3721843,0.804093567 C94.3372389,0.778204288 94.3022938,0.750791813 94.2673484,0.726425341 C94.1290862,0.627436647 93.9893049,0.536062378 93.8419268,0.458394152 C93.8312911,0.452302534 93.8206559,0.44925692 93.8115395,0.443165302 C93.6717581,0.370065887 93.5258993,0.307626511 93.3785212,0.251279142 C93.3374983,0.236050292 93.2979951,0.22234386 93.2554525,0.208637817 C93.0974388,0.155336452 92.9379058,0.108126316 92.7722953,0.0746222222 C92.7707761,0.0746222222 92.7692564,0.0746222222 92.7692564,0.0746222222 C92.6066849,0.0426413255 92.441074,0.0243664717 92.2739443,0.0121832359 C92.2314021,0.0106603509 92.18886,0.00761450292 92.1463178,0.00609161793 C92.1022564,0.00456873294 92.058195,0 92.0141332,0 L3.88956888,0 C1.74118963,0 -2.84217094e-14,1.74524834 -2.84217094e-14,3.89863548 L-2.84217094e-14,170.769372 C-2.84217094e-14,172.922758 1.74118963,174.668007 3.88956888,174.668007 L62.4488519,174.668007 L62.4488519,195.711501 C62.4488519,197.129325 63.2176493,198.435977 64.4559301,199.122807 C65.6957302,199.809637 67.2074959,199.768519 68.4062735,199.014681 L83.220061,189.699074 L98.033849,199.014681 C98.6643842,199.410636 99.3830432,199.610443 100.101702,199.610443 C100.74895,199.610443 101.397718,199.448709 101.984192,199.12433 C103.222473,198.4375 103.991271,197.130848 103.991271,195.711501 L103.991271,174.668007 L127.210174,174.668007 C129.358553,174.668007 131.099743,172.922758 131.099743,170.769372 L131.099743,39.1782409 C131.099743,39.1340764 131.095184,39.0899123 131.093665,39.0457481 L131.093665,39.0457481 Z M95.903702,13.311708 L117.820511,35.2796055 L95.903702,35.2796055 L95.903702,13.311708 Z M60.5897593,120.934173 C60.316274,120.189473 59.8711008,118.972672 59.8604651,118.474682 C60.1643377,118.097002 61.2187753,117.428447 61.8645048,117.020308 C63.2501637,116.143115 64.8211847,115.147136 65.960707,113.590727 C67.1108646,112.017567 67.5788284,110.200742 67.9920951,108.598647 C68.1728993,107.898111 68.464617,106.766593 68.7137921,106.338656 C68.850535,106.309721 69.1376945,106.268603 69.6770684,106.268603 C70.1100867,106.268603 70.5947635,106.292969 71.108308,106.318858 C71.6978211,106.347794 72.3055663,106.378252 72.9406598,106.378252 C74.3415121,106.378252 75.4719181,106.21987 76.4974881,105.877216 C78.288817,105.280238 79.7215762,104.124353 80.9856861,103.104007 C81.684593,102.540532 82.8545022,101.596332 83.2616915,101.538462 C83.7068651,101.596332 84.875255,102.540532 85.5741619,103.104007 C86.8382718,104.124353 88.2725503,105.280238 90.0638792,105.877216 C91.0894488,106.21987 92.2183355,106.378252 93.6207075,106.378252 C94.2542817,106.378252 94.8635461,106.347794 95.4515397,106.318858 C95.9650841,106.292969 96.449761,106.268603 96.8842989,106.268603 C97.4236724,106.268603 97.709313,106.308198 97.8475748,106.338656 C98.0967503,106.766593 98.3884679,107.898111 98.567753,108.598647 C98.9810197,110.200742 99.4505027,112.017567 100.60066,113.590727 C101.738663,115.147136 103.309684,116.141593 104.696862,117.020308 C105.341072,117.42997 106.39551,118.097002 106.699383,118.474682 C106.688747,118.972672 106.243574,120.189473 105.971608,120.934173 C105.392731,122.513425 104.737885,124.304361 104.737885,126.288705 C104.737885,128.273049 105.392731,130.063985 105.970089,131.64476 C106.243574,132.38946 106.688747,133.606261 106.699383,134.104251 C106.39551,134.481931 105.341072,135.148963 104.696862,135.558625 C103.309684,136.435817 101.738663,137.431797 100.60066,138.988206 C99.4505027,140.561366 98.9810197,142.378191 98.567753,143.980286 C98.3884679,144.6793 98.095231,145.812341 97.8475748,146.240277 C97.709313,146.269212 97.4236724,146.310331 96.8842989,146.310331 C96.449761,146.310331 95.9650841,146.285964 95.4515397,146.260074 C94.8635461,146.231139 94.2542817,146.200681 93.6207075,146.200681 C92.2183355,146.200681 91.0894488,146.359063 90.0638792,146.701717 C88.2725503,147.298695 86.8382718,148.456103 85.5741619,149.474926 C84.8858906,150.032309 83.7372519,150.956712 83.2799238,151.038949 C82.8225957,150.956712 81.6754767,150.032309 80.9872054,149.474926 C79.7215762,148.456103 78.288817,147.298695 76.4974881,146.701717 C75.4719181,146.359063 74.3415121,146.200681 72.9406598,146.200681 C72.3070855,146.200681 71.6978211,146.231139 71.108308,146.260074 C70.5962828,146.285964 70.1116059,146.310331 69.6770684,146.310331 C69.1376945,146.310331 68.8520542,146.269212 68.7137921,146.240277 C68.464617,145.812341 68.1728993,144.680823 67.9920951,143.980286 C67.5803476,142.378191 67.1108646,140.561366 65.960707,138.988206 C64.822704,137.431797 63.251683,136.435817 61.8645048,135.558625 C61.220295,135.150486 60.165857,134.481931 59.8619844,134.104251 C59.87262,133.607784 60.3177932,132.38946 60.5897593,131.64476 C61.1686364,130.065508 61.8234819,128.274573 61.8234819,126.290228 C61.8234819,124.304361 61.1671172,122.513425 60.5897593,120.934173 L60.5897593,120.934173 Z M96.2121328,188.663499 L85.2879141,181.793677 C84.0238043,181.000244 82.4163182,181.000244 81.1522083,181.793677 L70.2279896,188.663499 L70.2279896,153.578826 C70.6412563,153.566642 71.0469259,153.551413 71.440441,153.531616 C71.9555051,153.504203 72.4417012,153.479837 72.880797,153.479837 C73.5705879,153.479837 73.8653441,153.543799 73.9792964,153.581871 C74.442702,153.737208 75.3330488,154.456019 76.0486684,155.033199 C77.8643071,156.498234 80.1235997,158.32115 83.220061,158.32115 C86.3165227,158.32115 88.5758149,156.498234 90.3914536,155.033199 C91.1070736,154.456019 91.9974205,153.737208 92.4593068,153.583394 C92.574778,153.545322 92.8695345,153.48136 93.5593251,153.48136 C93.9984212,153.48136 94.4846173,153.505726 94.9996814,153.531616 C95.3931961,153.551413 95.7988661,153.568165 96.2106135,153.578826 L96.2106135,188.663499 L96.2121328,188.663499 Z M103.991271,166.870736 L103.991271,150.437074 C105.147506,148.86239 105.630663,146.998355 106.039372,145.414535 C106.253602,144.583029 106.546839,143.445419 106.814247,143.081445 C107.080135,142.715948 108.06924,142.090034 108.790938,141.633163 C110.705335,140.420931 113.087696,138.911733 114.034259,136.057809 C114.970187,133.241959 113.996275,130.581445 113.213803,128.443287 C112.858272,127.473197 112.455641,126.372137 112.455641,125.772113 C112.455641,125.172088 112.858272,124.072551 113.213803,123.102461 C113.996275,120.964303 114.970187,118.302266 114.034259,115.486416 C113.087696,112.634016 110.705335,111.124817 108.790938,109.912585 C108.06924,109.455714 107.080135,108.828277 106.814247,108.465826 C106.546839,108.100329 106.253602,106.962719 106.039372,106.131213 C105.480246,103.961074 104.784378,101.259442 102.402017,99.5081018 C100.505852,98.1161673 98.3103728,97.9547392 96.8229169,97.9547392 C96.1939004,97.9547392 95.5861553,97.9851973 94.9996814,98.0156554 C94.4846173,98.0415446 93.9984212,98.0659111 93.5608447,98.0659111 C92.8695345,98.0659111 92.574778,98.0019493 92.460826,97.9638768 C91.9989397,97.8100632 91.1085929,97.0912522 90.3929733,96.5125489 C88.5758149,95.0490374 86.3165227,93.2261209 83.220061,93.2261209 C80.125119,93.2261209 77.8643071,95.0490374 76.0486684,96.5125489 C75.3330488,97.0897294 74.442702,97.8100632 73.9808157,97.9638768 C73.8668633,98.0019493 73.5705879,98.0659111 72.880797,98.0659111 C72.4432205,98.0659111 71.9555051,98.0415446 71.440441,98.0141326 C70.8539667,97.9851973 70.2477412,97.9547392 69.6172056,97.9547392 C68.1312685,97.9547392 65.9357893,98.1161673 64.0411441,99.5081018 C61.6572635,101.259442 60.9598759,103.961074 60.4007503,106.131213 C60.1865203,106.962719 59.8932834,108.100329 59.6273948,108.464303 C59.3599869,108.828277 58.3708816,109.455714 57.6491845,109.912585 C55.7347873,111.124817 53.3539457,112.634016 52.4058633,115.486416 C51.4699357,118.303789 52.4438472,120.964303 53.2263192,123.102461 C53.5818499,124.072551 53.9844813,125.172088 53.9844813,125.772113 C53.9844813,126.372137 53.5818499,127.473197 53.2263192,128.443287 C52.4438472,130.581445 51.4699357,133.241959 52.4058633,136.059333 C53.3539457,138.911733 55.7363066,140.420931 57.6491845,141.633163 C58.3724012,142.090034 59.3599869,142.717471 59.6273948,143.081445 C59.8932834,143.445419 60.1865203,144.583029 60.4007503,145.414535 C60.8094592,146.998355 61.2941361,148.863913 62.4503711,150.437074 L62.4503711,166.870736 L7.77913777,166.870736 L7.77913777,7.79727096 L88.1245643,7.79727096 L88.1245643,39.1782409 C88.1245643,41.3316277 89.8657543,43.0768764 92.0141332,43.0768764 L123.320605,43.0768764 L123.320605,166.870736 L103.991271,166.870736 Z M98.1388334,116.269769 C96.9610713,115.089564 95.0524092,115.089564 93.8743456,116.269769 L79.0784451,131.100461 L72.6821655,124.689272 C71.5044034,123.508765 69.5957413,123.508765 68.4179792,124.68897 C67.2405186,125.869175 67.2405186,127.782891 68.4179792,128.963398 L76.9463519,137.511651 C77.5120154,138.07833 78.2787971,138.39688 79.0784451,138.39688 C79.8780931,138.39688 80.6448747,138.07833 81.2105382,137.511651 L98.1388334,120.543896 C99.316294,119.36369 99.316294,117.449975 98.1388334,116.269769 Z" id="Shape"></path>
                    <path d="M22.8952786,43.0768764 L73.0069042,43.0768764 C75.1537638,43.0768764 76.8964731,41.3316277 76.8964731,39.1782409 C76.8964731,37.0248538 75.1537638,35.2796055 73.0069042,35.2796055 L22.8952786,35.2796055 C20.7468997,35.2796055 19.0057097,37.0248538 19.0057097,39.1782409 C19.0057097,41.3316277 20.748419,43.0768764 22.8952786,43.0768764 Z" id="Path"></path>
                    <path d="M108.639002,54.958577 L22.8952786,54.958577 C20.7468997,54.958577 19.0057097,56.7038253 19.0057097,58.8572125 C19.0057097,61.0105996 20.7468997,62.755848 22.8952786,62.755848 L108.639002,62.755848 C110.78738,62.755848 112.52857,61.0105996 112.52857,58.8572125 C112.52857,56.7038253 110.78738,54.958577 108.639002,54.958577 Z" id="Path"></path>
                    <path d="M93.0807261,74.6375485 L22.8952786,74.6375485 C20.7468997,74.6375485 19.0057097,76.3843201 19.0057097,78.536184 C19.0057097,80.6895712 20.7468997,82.4348195 22.8952786,82.4348195 L93.0807261,82.4348195 C95.2291049,82.4348195 96.970295,80.6895712 96.970295,78.536184 C96.970295,76.3843201 95.2291049,74.6375485 93.0807261,74.6375485 Z" id="Path"></path>
                    <path d="M108.639002,74.6375485 C106.4967,74.6375485 104.749433,76.3888889 104.749433,78.536184 C104.749433,80.6834795 106.4967,82.4348195 108.639002,82.4348195 C110.782822,82.4348195 112.52857,80.6834795 112.52857,78.536184 C112.52857,76.3888889 110.782822,74.6375485 108.639002,74.6375485 Z" id="Path"></path>
                </g>
                <text id="2" font-family="Muli-BlackItalic, Muli" font-size="200" font-style="italic" font-weight="700" letter-spacing="3.77104373" fill-opacity="0.321951486">
                    <tspan x="132.114478" y="276">2</tspan>
                </text>
            </g>
        </g>
    </g>
</svg>