<?xml version="1.0" encoding="UTF-8"?>
<svg width="310px" height="278px" viewBox="0 0 310 278" version="1.1" xmlns="http://www.w3.org/2000/svg" xmlns:xlink="http://www.w3.org/1999/xlink">
    <!-- Generator: Sketch 59 (86127) - https://sketch.com -->
    <title>deal</title>
    <desc>Created with Sketch.</desc>
    <g id="Page-1" stroke="none" stroke-width="1" fill="none" fill-rule="evenodd">
        <g id="Icons" transform="translate(-1338.000000, -1234.000000)" fill="#0FB5CD">
            <g id="deal" transform="translate(1338.000000, 1234.000000)">
                <g fill-rule="nonzero">
                    <path d="M95.2414861,51.9582031 C93.7151088,51.9582031 91.8432841,51.7351563 90.5615337,50.3074219 C90.1160472,49.8058594 89.7256604,49.3375 89.3469969,48.946875 C86.2938516,45.7351563 81.0347668,50.1960938 84.2215581,54.3664063 L84.9902176,55.3589844 C85.4915852,55.9839844 86.3942815,56.7085938 87.6865829,57.5339844 C88.9460591,58.3363281 90.3497322,58.9164063 91.9097163,59.2621094 L91.9097163,64.7714844 C91.9097163,66.6671875 93.4579771,68.2285156 95.3528577,68.2285156 C97.2582892,68.2285156 98.8737637,66.6671875 98.8737637,64.7714844 L98.8737637,59.2289063 C101.36966,58.6496094 103.509167,57.4335938 105.258288,55.59375 C107.01835,53.753125 107.898772,51.3113281 107.898772,48.2667969 C107.898772,46.1925781 107.498225,44.4644531 106.695568,43.0699219 C105.893302,41.6871094 104.912841,40.7171875 103.742852,40.1703125 C102.561923,39.6238281 101.280563,39.1441406 99.8651665,38.7320313 C98.4614934,38.3195312 97.1801337,38.0292969 95.998813,37.8511719 C94.8292157,37.6832031 93.8487547,37.3261719 93.0460976,36.8027344 C92.2438312,36.2667969 91.8428934,35.5757813 91.8428934,34.7167969 C91.8428934,30.6132813 97.8596959,31.1148437 100.511122,33.3453125 C104.422415,36.6351563 108.801078,30.6132813 104.266104,27.2121094 L103.742462,26.7433594 C103.385682,26.4652344 102.762001,26.1191406 101.859305,25.6839844 C100.967941,25.2496094 99.9648148,24.9257812 98.873373,24.6914062 L98.873373,21.3574219 L98.873373,19.9078125 C98.873373,18.0117188 97.3243306,16.4507812 95.4192899,16.4507812 C93.5248001,16.4507812 91.9652068,18.0113281 91.9652068,19.9078125 L91.9652068,24.6359375 C89.4243709,25.1378906 87.3184705,26.3984375 85.8593069,28.2601563 C84.3884201,30.15625 83.6420349,32.253125 83.6420349,34.5941406 C83.6420349,36.9476563 84.188342,38.8769531 85.2797838,40.4046875 C86.3716164,41.9316406 87.6979155,43.0027344 89.2688414,43.6273438 C90.8288255,44.2519531 92.3884189,44.7539063 93.948403,45.1214844 C95.5193289,45.5011719 96.8456281,45.9132813 97.9370699,46.3929688 C99.0292932,46.8613281 99.5752095,47.5195312 99.5752095,48.378125 C99.5756003,50.7644531 98.1273785,51.9582031 95.2414861,51.9582031 Z" id="Path"></path>
                    <path d="M194.384105,112.83125 L162.274692,71.71875 C160.111738,68.9421875 156.832723,67.3496094 153.278601,67.3496094 C150.7702,67.3496094 148.395444,68.1457031 146.402479,69.6570313 L125.388414,85.6695313 C122.983178,87.5019531 121.44664,90.1613281 121.061334,93.1574219 C121.003889,93.6039063 120.976535,94.0492188 120.971846,94.4921875 C112.960905,93.8855469 104.68658,94.4953125 96.6510208,99.7164063 L96.2907239,99.9503906 L75.9628645,96.8429688 C76.0046777,96.1394531 75.9820126,95.4273438 75.8893983,94.7128906 C75.501747,91.7238281 73.9675542,89.0707031 71.5670074,87.2410156 L50.5478625,71.2433594 C45.6232834,67.4789063 38.502925,68.3933594 34.6736954,73.2871094 L27.019144,83.0898438 C25.6795584,84.8046875 25.9851465,87.2800781 27.7006601,88.6183594 C29.4165645,89.9574219 31.8929221,89.6519531 33.2321169,87.9371094 L40.8843236,78.1378906 C42.0425883,76.6574219 44.2754915,76.3660156 45.7666988,77.50625 L66.790533,93.5078125 C67.5025298,94.0503906 67.9581764,94.8378906 68.073065,95.7261719 C68.1883444,96.615625 67.9480162,97.4960938 67.3993645,98.2003906 L35.2836992,139.319531 C34.13325,140.796484 31.8976114,141.085156 30.4087488,139.956641 L9.39390244,123.942578 C8.67799789,123.397266 8.22039734,122.606641 8.10589951,121.717188 C7.99218323,120.832031 8.23251144,119.957422 8.78546173,119.251172 L14.2454062,112.259375 C15.584601,110.544531 15.2794037,108.069141 13.5634993,106.730859 C11.8479857,105.391406 9.37162811,105.697266 8.03204254,107.412109 L2.5752243,114.4 C0.716295319,116.775391 -0.095740509,119.730469 0.288784637,122.721094 C0.673700562,125.716797 2.21101959,128.376172 4.61586487,130.208203 L25.6373544,146.227734 C27.6830751,147.778906 30.100816,148.529297 32.5029259,148.528906 C33.8921402,148.528906 35.2743205,148.273828 36.5775638,147.781641 L39.2981573,151.50625 C37.819455,154.202734 37.5888962,157.441797 38.7772508,160.567969 C40.475961,165.0375 44.4841667,168.067969 48.8206256,168.212109 C48.9550531,168.848828 49.141454,169.485156 49.3958502,170.115234 C51.1437984,174.444531 55.1352007,177.391406 59.4239847,177.585156 C59.4435236,177.697656 59.4583731,177.810547 59.481429,177.923047 C60.2973726,181.887109 63.3395761,185.272266 67.2313301,186.547656 C68.2227328,186.872656 69.2223419,187.039453 70.2121815,187.06875 C70.5912358,188.664844 71.3837328,190.20625 72.6017865,191.559375 C74.5005748,193.669141 77.272751,195.019141 80.3137822,195.01875 C82.5220663,195.01875 84.8725935,194.302344 87.1316788,192.651563 L91.593968,196.821094 C93.8671213,198.941406 96.7283948,200 99.5623138,200 C102.436874,200 105.282516,198.910547 107.45563,196.736328 C108.751449,195.439844 109.755356,193.897266 110.404829,192.273437 C111.512292,192.609766 112.593965,192.769141 113.63187,192.769141 C116.554496,192.76875 119.133628,191.535156 120.981615,189.632422 C122.493533,188.075781 123.575987,186.003516 124.05469,183.794531 C124.214518,183.802734 124.374346,183.809375 124.534956,183.810937 C124.574424,183.811328 124.613111,183.811328 124.65258,183.811328 C127.760825,183.811328 130.743239,182.607812 132.84953,180.499219 C134.325107,179.022656 135.340347,177.205078 135.824911,175.220703 C136.576767,175.367188 137.331749,175.44375 138.085168,175.44375 C139.033586,175.44375 139.979658,175.326172 140.911663,175.0875 C144.711975,174.114062 147.646324,171.145312 148.569731,167.339453 C149.422017,163.827734 148.54394,160.128125 146.153553,156.765625 C152.342689,151.788281 154.84601,149.336328 157.673286,144.751953 C159.604509,146.171875 161.955427,146.954297 164.439991,146.954297 C164.440381,146.954297 164.440381,146.954297 164.440772,146.954297 C166.956598,146.954297 169.335261,146.152344 171.313378,144.640234 L192.340729,128.636328 C194.739322,126.808594 196.273905,124.155859 196.661557,121.166406 C197.049208,118.174219 196.241861,115.215234 194.384105,112.83125 Z M50.8823682,159.525781 C50.2786168,160.071094 49.693232,160.347656 49.1418448,160.347656 C48.0101529,160.347656 46.694014,159.216016 46.1445807,157.770313 C45.6459485,156.457422 45.8784612,155.360547 46.8382109,154.508594 L46.8507158,154.497656 C46.8546236,154.494141 46.8589221,154.490234 46.8628299,154.487109 L60.1391077,142.691016 C61.2496976,141.70625 62.3673215,141.185547 63.3720107,141.185547 C64.8421159,141.185547 65.9413733,142.301563 66.3403572,143.339063 C66.7670863,144.447266 66.5103455,145.435938 65.5818579,146.275391 L63.267673,148.361719 C63.2657191,148.363672 63.2633745,148.365234 63.2614206,148.367188 C63.250088,148.376953 63.2391463,148.387109 63.2278137,148.397266 C63.1449689,148.472266 63.0593886,148.549609 62.9749806,148.625781 L50.8823682,159.525781 Z M61.6135115,168.941016 C61.015231,169.469531 60.4450865,169.725781 59.871425,169.725781 C58.6752548,169.725781 57.2844774,168.601953 56.7049542,167.166406 C56.0664236,165.585156 56.8241414,164.855078 57.063688,164.623828 C57.2176544,164.476172 57.4024922,164.299219 57.5951456,164.092969 C57.5963179,164.091797 57.5974902,164.090625 57.5986626,164.089844 L57.6393034,164.053906 C58.397412,163.376953 65.0730655,157.347656 68.2625922,154.466797 L68.5001849,154.252734 C69.5810757,153.304297 70.6760345,152.803125 71.6682188,152.803125 C73.2328923,152.803125 74.3978003,154 74.8178862,155.111719 C75.2356274,156.217187 74.985139,157.184766 74.0761903,157.984766 L73.2586836,158.703516 C73.2524312,158.708984 73.2465695,158.713281 73.2407079,158.71875 C73.238754,158.720703 73.2368001,158.722656 73.2348462,158.724609 L61.6135115,168.941016 Z M73.3595042,177.44375 C73.3051862,177.492578 73.2539943,177.54375 73.2012393,177.593359 L72.2766595,178.427344 C71.4548543,179.169531 70.6318767,179.371875 69.6861949,179.061719 C68.4908063,178.669922 67.4466486,177.523437 67.2020218,176.335938 C66.9894388,175.303516 67.4028815,174.346484 68.4525101,173.421484 L69.7674767,172.273047 C69.8006927,172.244141 69.8292195,172.2125 69.8612633,172.182812 L78.4747829,164.610547 C80.5388701,162.786719 82.5830276,162.603906 83.9437152,164.124609 C84.1351962,164.338672 85.7577048,166.266797 83.7768532,168.055469 L78.486897,172.826953 C78.4302342,172.876953 78.3727899,172.921875 78.3165179,172.973047 C78.2965883,172.991406 78.2801756,173.0125 78.2606367,173.030469 L73.4200748,177.396484 C73.4005359,177.413281 73.3786523,177.426172 73.3595042,177.44375 Z M78.4614964,186.289844 C78.0460999,185.828906 77.2450058,184.633984 78.5591908,183.372266 L83.8362514,178.6125 C84.2356261,178.271094 84.620542,178.000391 84.9808389,177.814453 C84.9972516,177.805859 85.014055,177.797266 85.0304677,177.788672 C87.1574701,176.653125 88.310264,177.976953 88.6135074,178.409375 C89.0031126,178.965625 89.4782982,180.058203 88.2836911,181.130859 L84.6682169,184.379297 C84.6545396,184.391406 84.6412532,184.403906 84.627576,184.416016 L83.0601671,185.824219 C80.484552,188.135156 78.8890071,186.765625 78.4614964,186.289844 Z M140.9101,165.482422 C140.667818,166.480469 139.95543,167.199609 138.95543,167.455859 C137.297752,167.880078 135.199276,166.959766 133.278213,164.989453 C133.134016,164.830078 132.986302,164.673047 132.831945,164.521094 L117.956606,149.822656 C116.408345,148.29375 113.91323,148.307813 112.383336,149.855078 C110.853441,151.402344 110.867509,153.896484 112.415379,155.425781 L127.266882,170.100391 C127.291501,170.126563 127.316901,170.152344 127.341129,170.178516 C127.93433,170.788672 128.264537,171.603516 128.268054,172.485547 C128.271571,173.417188 127.918308,174.285938 127.272743,174.932031 C126.636167,175.569531 125.683842,175.933203 124.654534,175.933203 C124.640075,175.933203 124.626007,175.933203 124.611548,175.932813 C123.700255,175.924219 122.86868,175.619141 122.283295,175.086719 C122.036714,174.767969 121.76825,174.458984 121.473213,174.162891 L110.598264,163.278906 C109.060163,161.740234 106.565048,161.738672 105.024994,163.275391 C103.48533,164.812891 103.483767,167.306641 105.021477,168.846094 L115.334488,179.167969 C115.458755,179.349609 115.5967,179.525 115.755356,179.688672 L116.194199,180.141016 C116.759654,181.217188 116.409126,183.030469 115.326673,184.145313 C113.656489,185.864453 111.305571,184.348828 109.631089,182.776563 L104.973802,178.394141 C103.389199,176.902734 100.894865,176.978125 99.4032674,178.562109 C97.9112785,180.146484 97.9866986,182.639453 99.5713017,184.130859 L103.128941,187.478125 C103.137538,187.486328 103.144572,187.495313 103.153169,187.503125 C103.234451,187.578906 103.356764,187.69375 103.363017,188.091016 C103.378257,189.014063 102.768253,190.280078 101.880016,191.16875 C100.583416,192.466016 98.4274957,192.419531 96.9741939,191.063672 L93.0742336,187.419922 L93.5509822,186.991406 C97.4181172,183.520313 98.042189,178.133203 95.0687624,173.890234 C94.1011971,172.509375 92.8893958,171.436719 91.5298805,170.692188 C93.4462538,166.914453 92.9104977,162.327734 89.8174931,158.871875 C88.0726712,156.921875 85.608037,155.590234 82.8569627,155.295313 C82.7784164,154.307031 82.5619257,153.310938 82.1910777,152.328906 C80.8522737,148.785938 77.8765024,146.178125 74.3743536,145.275 C74.5201137,143.705469 74.3032321,142.085156 73.6967453,140.508984 C72.0378944,136.201563 67.8893996,133.307031 63.3724014,133.307031 C60.4103073,133.307031 57.4841647,134.513672 54.9065958,136.799219 L44.8452452,145.739063 L42.6334441,142.711328 L72.6318764,104.303516 L86.3473882,106.400391 L84.2723592,107.746094 C73.1586446,114.953906 72.3450456,123.336328 75.2899455,128.778125 C77.6467252,133.133984 82.350515,135.623828 87.3434802,135.623828 C89.3989703,135.623438 91.50448,135.201563 93.5142491,134.313672 C93.5673949,134.289844 93.6201498,134.265625 93.6717325,134.239844 L104.061727,129.090234 L110.059772,134.549219 C110.065634,134.554688 110.071886,134.558594 110.077357,134.563672 C110.083219,134.569141 110.087908,134.574609 110.09377,134.580078 L137.816313,159.225391 C140.19185,161.336719 141.348552,163.675781 140.9101,165.482422 Z M140.57872,151.138281 L115.348556,128.708594 L107.376693,121.453125 C106.176225,120.359766 104.427495,120.114844 102.973021,120.836328 L90.2555548,127.139844 C86.8002994,128.625391 83.4017067,127.211719 82.2215584,125.030859 C80.5998314,122.033984 83.0289049,117.943359 88.561534,114.355859 L100.943322,106.324219 C107.656881,101.961719 114.699474,101.625 124.333314,102.742578 L152.228972,138.471875 C149.285245,143.75625 147.721744,145.433594 140.57872,151.138281 Z M188.845223,120.153516 C188.730335,121.040625 188.274688,121.828125 187.564254,122.369531 L166.531823,138.376953 C165.77645,138.954688 164.977701,139.075781 164.440772,139.075781 L164.440772,139.075781 C163.335262,139.075781 162.320413,138.589063 161.659217,137.74375 L129.554884,96.6242187 C129.00467,95.9207031 128.764341,95.0464844 128.878448,94.1613281 C128.992946,93.2714844 129.450156,92.4804688 130.166451,91.9347656 L151.173873,75.9273438 C151.935889,75.3496094 152.738546,75.228125 153.27821,75.228125 C154.384892,75.228125 155.397006,75.7128906 156.058984,76.5625 L188.168396,117.675391 C188.720174,118.383984 188.960893,119.263672 188.845223,120.153516 Z" id="Shape"></path>
                    <path d="M75.3532515,80.0246094 C81.540433,83.3617188 88.5294902,85.1257813 95.5650499,85.1257813 C119.020302,85.1257813 138.102753,66.0292969 138.102753,42.5570313 C138.102753,26.175 128.535346,11.0679688 113.731518,4.07070312 C108.02851,1.36953125 101.916749,0 95.5650499,0 C72.1152684,0 53.0378973,19.0910156 53.0378973,42.5570313 C53.0378973,58.2078125 61.5861571,72.5632813 75.3532515,80.0246094 Z M95.5650499,7.878125 C100.740117,7.878125 105.71667,8.99257812 110.359499,11.1910156 C122.424757,16.89375 130.22116,29.2058594 130.22116,42.5570313 C130.22116,61.6855469 114.674465,77.2476563 95.5654407,77.2476563 C89.8319519,77.2476563 84.1371501,75.8101563 79.1031532,73.0953125 C67.8870549,67.0160156 60.9194905,55.3144531 60.9194905,42.5570313 C60.9194905,23.4351563 76.461106,7.878125 95.5650499,7.878125 Z" id="Shape"></path>
                    <path d="M18.1742841,100.747656 C18.899958,101.326563 19.7678751,101.607813 20.6299304,101.607813 C21.7874136,101.607813 22.9343459,101.100391 23.712384,100.125391 L23.7569327,100.069531 C25.114494,98.3691406 24.8358696,95.890625 23.1348148,94.5335938 C21.4337599,93.1773437 18.9538853,93.4546875 17.5967148,95.1558594 L17.5521661,95.2117188 C16.1946048,96.9121094 16.4732292,99.390625 18.1742841,100.747656 Z" id="Path"></path>
                </g>
                <text id="3" font-family="Muli-BlackItalic, Muli" font-size="200" font-style="italic" font-weight="700" letter-spacing="3.77104373" fill-opacity="0.321951486">
                    <tspan x="197.114478" y="276">3</tspan>
                </text>
            </g>
        </g>
    </g>
</svg>