<svg xmlns="http://www.w3.org/2000/svg" viewBox="0 0 34 34.4"><defs><style>.cls-1{fill:#0fb5cd;}.cls-2{fill:#0fb5ff;}.cls-3{fill:#1582ca;}.cls-4{fill:#f9622d;}.cls-5{fill:#0b56a3;}.cls-6{fill:#0e58ca;}.cls-7{fill:#032083;}.cls-8{fill:#fff;}</style></defs><title>Asset 1</title><g id="Layer_2" data-name="Layer 2"><g id="Layer_1-2" data-name="Layer 1"><path class="cls-1" d="M10.1,28.5A14.66,14.66,0,0,1,.2,17.2,21.12,21.12,0,0,0,0,19.8,14.64,14.64,0,0,0,23.9,31.1a13.27,13.27,0,0,1-4.5.7A14.46,14.46,0,0,1,10.1,28.5Z"/><path class="cls-2" d="M34,17.2A14.69,14.69,0,0,0,23.9,3.3a14.63,14.63,0,0,1,5.4,11.3,21.12,21.12,0,0,1-.2,2.6,11,11,0,0,1,.2,2.6,14.48,14.48,0,0,1-5.4,11.3A14.56,14.56,0,0,0,34,17.2Z"/><path class="cls-3" d="M29.2,19.8a21.12,21.12,0,0,0-.2-2.6,14.62,14.62,0,0,1-14.4,12,16.3,16.3,0,0,1-4.5-.7,14.26,14.26,0,0,0,9.3,3.3,16.3,16.3,0,0,0,4.5-.7A14.39,14.39,0,0,0,29.2,19.8Z"/><path class="cls-4" d="M10.1,5.9a14.26,14.26,0,0,1,9.3-3.3,16.3,16.3,0,0,1,4.5.7A14.26,14.26,0,0,0,14.6,0,14.55,14.55,0,0,0,0,14.6a21.12,21.12,0,0,0,.2,2.6A14.83,14.83,0,0,1,10.1,5.9Z"/><path class="cls-5" d="M10.1,28.5A14.71,14.71,0,0,1,4.8,17.2,14.48,14.48,0,0,1,10.2,5.9,14.66,14.66,0,0,0,.3,17.2,14.54,14.54,0,0,0,10.1,28.5Z"/><path class="cls-6" d="M10.1,5.9a13.67,13.67,0,0,1,4.5-.7A14.62,14.62,0,0,1,29,17.2a11,11,0,0,0,.2-2.6A14.48,14.48,0,0,0,23.8,3.3a13.27,13.27,0,0,0-4.5-.7A14.39,14.39,0,0,0,10.1,5.9Z"/><path class="cls-7" d="M14.6,5.2a16.3,16.3,0,0,0-4.5.7A14.71,14.71,0,0,0,4.8,17.2a14.48,14.48,0,0,0,5.4,11.3,13.27,13.27,0,0,0,4.5.7,14.62,14.62,0,0,0,14.4-12A14.81,14.81,0,0,0,14.6,5.2Z"/><path class="cls-8" d="M8.1,16.9a8.14,8.14,0,0,1,8.3-8.5c5.6,0,8.1,4.1,8.1,8.9v1.1H13.6A3.34,3.34,0,0,0,17.1,21a5,5,0,0,0,3.6-1.6L23.8,22a8.46,8.46,0,0,1-7,3.3C11.7,25.4,8.1,21.9,8.1,16.9Zm11-1.3c-.3-1.8-1.3-3-2.9-3s-2.5,1.1-2.9,3Z"/></g></g></svg>