<?xml version="1.0" encoding="UTF-8"?>
<svg width="316px" height="276px" viewBox="0 0 316 276" version="1.1" xmlns="http://www.w3.org/2000/svg" xmlns:xlink="http://www.w3.org/1999/xlink">
    <!-- Generator: Sketch 59 (86127) - https://sketch.com -->
    <title>form</title>
    <desc>Created with Sketch.</desc>
    <g id="Page-1" stroke="none" stroke-width="1" fill="none" fill-rule="evenodd">
        <g id="Icons" transform="translate(-335.000000, -1234.000000)" fill="#0FB5CD">
            <g id="form" transform="translate(335.000000, 1234.000000)">
                <g id="Form" fill-rule="nonzero">
                    <path d="M27.34375,23.4375 C25.1875,23.4375 23.4375,25.1875 23.4375,27.34375 C23.4375,29.5 25.1875,31.25 27.34375,31.25 C29.5,31.25 31.25,29.5 31.25,27.34375 C31.25,25.1875 29.5,23.4375 27.34375,23.4375 Z" id="Path"></path>
                    <path d="M27.34375,46.875 C25.1875,46.875 23.4375,48.625 23.4375,50.78125 C23.4375,52.9375 25.1875,54.6875 27.34375,54.6875 C29.5,54.6875 31.25,52.9375 31.25,50.78125 C31.25,48.625 29.5,46.875 27.34375,46.875 Z" id="Path"></path>
                    <path d="M149.691797,37.9175781 L115.207813,3.43320313 C113.046094,1.271875 110.052734,0 106.921875,0 L11.71875,0 C5.25703125,0 0,5.25703125 0,11.71875 L0,188.28125 C0,194.742969 5.25703125,200 11.71875,200 L141.40625,200 C147.867969,200 153.125,194.742969 153.125,188.28125 L153.125,46.203125 C153.125,43.0980469 151.874219,40.1003906 149.691797,37.9175781 Z M114.0625,13.3367188 L139.787891,39.0625 L114.0625,39.0625 L114.0625,13.3367188 Z M145.3125,188.28125 C145.3125,190.435156 143.560156,192.1875 141.40625,192.1875 L11.71875,192.1875 C9.56484375,192.1875 7.8125,190.435156 7.8125,188.28125 L7.8125,11.71875 C7.8125,9.56484375 9.56484375,7.8125 11.71875,7.8125 L106.25,7.8125 L106.25,42.96875 C106.25,45.1261719 107.999219,46.875 110.15625,46.875 L145.3125,46.875 L145.3125,188.28125 Z" id="Shape"></path>
                    <path d="M196.09375,20.9226562 L196.09375,11.71875 C196.09375,5.25703125 190.836719,0 184.375,0 C177.913281,0 172.65625,5.25703125 172.65625,11.71875 L172.65625,20.9265625 C170.157422,23.7589844 168.75,27.4289063 168.75,31.25 L168.75,157.03125 C168.75,167.948437 172.356641,178.769141 178.90625,187.5 L180.46875,189.583203 L180.46875,196.09375 C180.46875,198.251172 182.217969,200 184.375,200 C186.532031,200 188.28125,198.251172 188.28125,196.09375 L188.28125,189.583203 L189.84375,187.5 C196.393359,178.76875 200,167.948047 200,157.03125 L200,31.25 C200,27.4085937 198.618359,23.7796875 196.09375,20.9226562 Z M180.46875,11.71875 C180.46875,9.56484375 182.221094,7.8125 184.375,7.8125 C186.528906,7.8125 188.28125,9.56484375 188.28125,11.71875 L188.28125,16.125 C187.015625,15.7980469 185.704688,15.625 184.375,15.625 C183.045312,15.625 181.734375,15.7976563 180.46875,16.1246094 L180.46875,11.71875 Z M184.375,181.735938 C180.077344,175.6125 177.433594,168.380078 176.74375,160.9375 L192.00625,160.9375 C191.316016,168.380078 188.672656,175.612109 184.375,181.735938 Z M192.1875,153.125 L176.5625,153.125 L176.5625,72.65625 L192.1875,72.65625 L192.1875,153.125 Z M192.1875,64.84375 L176.5625,64.84375 L176.5625,31.25 C176.5625,26.9609375 180.05625,23.4375 184.375,23.4375 C188.591406,23.4375 192.1875,26.8492187 192.1875,31.25 L192.1875,64.84375 Z" id="Shape"></path>
                    <path d="M84.375,23.4375 L42.96875,23.4375 C40.8117187,23.4375 39.0625,25.1863281 39.0625,27.34375 C39.0625,29.5011719 40.8117187,31.25 42.96875,31.25 L84.375,31.25 C86.5320312,31.25 88.28125,29.5011719 88.28125,27.34375 C88.28125,25.1863281 86.5320312,23.4375 84.375,23.4375 Z" id="Path"></path>
                    <path d="M84.375,46.875 L42.96875,46.875 C40.8117187,46.875 39.0625,48.6238281 39.0625,50.78125 C39.0625,52.9386719 40.8117187,54.6875 42.96875,54.6875 L84.375,54.6875 C86.5320312,54.6875 88.28125,52.9386719 88.28125,50.78125 C88.28125,48.6238281 86.5320312,46.875 84.375,46.875 Z" id="Path"></path>
                    <path d="M125.78125,72.65625 L27.34375,72.65625 C25.1867187,72.65625 23.4375,74.4050781 23.4375,76.5625 C23.4375,78.7199219 25.1867187,80.46875 27.34375,80.46875 L125.78125,80.46875 C127.938281,80.46875 129.6875,78.7199219 129.6875,76.5625 C129.6875,74.4050781 127.938281,72.65625 125.78125,72.65625 Z" id="Path"></path>
                    <path d="M125.78125,96.09375 L27.34375,96.09375 C25.1867187,96.09375 23.4375,97.8425781 23.4375,100 C23.4375,102.157422 25.1867187,103.90625 27.34375,103.90625 L125.78125,103.90625 C127.938281,103.90625 129.6875,102.157422 129.6875,100 C129.6875,97.8425781 127.938281,96.09375 125.78125,96.09375 Z" id="Path"></path>
                    <path d="M125.420673,121.538462 L26.9831731,121.538462 C24.8261418,121.538462 23.0769231,123.28729 23.0769231,125.444712 C23.0769231,127.602133 24.8261418,129.350962 26.9831731,129.350962 L125.420673,129.350962 C127.577704,129.350962 129.326923,127.602133 129.326923,125.444712 C129.326923,123.28729 127.577704,121.538462 125.420673,121.538462 Z" id="Path-Copy"></path>
                    <path d="M125.420673,147.692308 L26.9831731,147.692308 C24.8261418,147.692308 23.0769231,149.441136 23.0769231,151.598558 C23.0769231,153.75598 24.8261418,155.504808 26.9831731,155.504808 L125.420673,155.504808 C127.577704,155.504808 129.326923,153.75598 129.326923,151.598558 C129.326923,149.441136 127.577704,147.692308 125.420673,147.692308 Z" id="Path-Copy-2"></path>
                </g>
                <text id="1" font-family="Muli-BlackItalic, Muli" font-size="200" font-style="italic" font-weight="700" letter-spacing="3.77104373" fill-opacity="0.321951486">
                    <tspan x="200.114478" y="276">1</tspan>
                </text>
            </g>
        </g>
    </g>
</svg>