<?xml version="1.0" encoding="UTF-8"?>
<svg width="117px" height="130px" viewBox="0 0 117 130" version="1.1" xmlns="http://www.w3.org/2000/svg" xmlns:xlink="http://www.w3.org/1999/xlink">
    <!-- Generator: Sketch 59 (86127) - https://sketch.com -->
    <title>like</title>
    <desc>Created with Sketch.</desc>
    <g id="Page-1" stroke="none" stroke-width="1" fill="none" fill-rule="evenodd">
        <g id="Icons" transform="translate(-226.000000, -293.000000)" fill="#0FB5CD" fill-rule="nonzero">
            <g id="like" transform="translate(226.000000, 293.000000)">
                <path d="M81.5,0 C80.1195,0 79,1.15342424 79,2.57575758 L79,14.4242424 C79,15.8465758 80.1195,17 81.5,17 C82.8805,17 84,15.8465758 84,14.4242424 L84,2.57575758 C84,1.15342424 82.8805,0 81.5,0 Z" id="Path"></path>
                <path d="M22.5,79 C21.12,79 20,80.12 20,81.5 C20,82.88 21.12,84 22.5,84 C23.88,84 25,82.88 25,81.5 C25,80.12 23.88,79 22.5,79 Z" id="Path"></path>
                <path d="M117,74.1871921 C117,68.5917044 112.435983,64.0394089 106.826087,64.0394089 L87.838513,64.0394089 C90.7780109,56.5292882 91.96785,47.6895542 91.7384283,39.8207094 C91.6946804,38.3190911 91.6369435,37.4506946 91.5588587,36.9039828 C91.4273609,31.4224039 86.9147217,27 81.3913043,27 C75.7814087,27 71.2173913,31.5522956 71.2173913,37.1477833 L71.2173913,39.6847291 C71.2173913,55.7298966 50.560787,64.7449335 34.9718087,68.6107315 C33.7931609,65.9230911 31.1026696,64.0394089 27.9782609,64.0394089 L2.54347826,64.0394089 C1.13896957,64.0394089 0,65.1754532 0,66.5763547 L0,127.463054 C0,128.863956 1.13896957,130 2.54347826,130 L27.9782609,130 C31.081813,130 33.7567891,128.14118 34.9476457,125.481953 C36.2384609,125.812264 37.4366935,126.124308 38.5428522,126.412505 C47.4234065,128.725946 52.3152783,130 64.2126522,130 L91.5652174,130 C97.175113,130 101.73913,125.447704 101.73913,119.852217 C101.73913,117.765833 101.104024,115.825069 100.017196,114.210557 C103.946361,112.839845 106.826087,109.095313 106.826087,104.630542 C106.826087,102.551768 106.206496,100.604663 105.122974,98.9827931 C109.034843,97.609798 111.913043,93.8738916 111.913043,89.408867 C111.913043,87.3224828 111.277937,85.3817192 110.191109,83.7672069 C114.120274,82.3964951 117,78.6519631 117,74.1871921 Z M30.5217391,122.389163 C30.5217391,123.788034 29.3807348,124.926108 27.9782609,124.926108 L5.08695652,124.926108 L5.08695652,69.1133005 L27.9782609,69.1133005 C29.3807348,69.1133005 30.5217391,70.2513744 30.5217391,71.6502463 L30.5217391,122.389163 Z M106.826087,79.2610837 C101.37058,79.2610837 100.0701,79.2610837 94.1086957,79.2610837 C92.704187,79.2610837 91.5652174,80.3971281 91.5652174,81.7980296 C91.5652174,83.198931 92.704187,84.3349754 94.1086957,84.3349754 L101.73913,84.3349754 C104.544078,84.3349754 106.826087,86.6111232 106.826087,89.408867 C106.826087,92.2111773 104.548657,94.4827586 101.73913,94.4827586 L89.0217391,94.4827586 C87.6172304,94.4827586 86.4782609,95.618803 86.4782609,97.0197044 C86.4782609,98.4206059 87.6172304,99.5566502 89.0217391,99.5566502 L96.6521739,99.5566502 C99.4238022,99.5566502 101.73913,101.765062 101.73913,104.630542 C101.73913,107.432852 99.4617,109.704433 96.6521739,109.704433 C91.1966674,109.704433 89.896187,109.704433 83.9347826,109.704433 C82.5302739,109.704433 81.3913043,110.840478 81.3913043,112.241379 C81.3913043,113.642281 82.5302739,114.778325 83.9347826,114.778325 L91.5652174,114.778325 C94.3701652,114.778325 96.6521739,117.054473 96.6521739,119.852217 C96.6521739,122.649961 94.3701652,124.926108 91.5652174,124.926108 L64.2126522,124.926108 C52.9686978,124.926108 48.5771283,123.7822 39.8283261,121.503261 C38.5466674,121.169399 37.140887,120.803318 35.6086957,120.413643 L35.6086957,73.6861453 C54.0153391,69.3129581 76.3043478,58.6385049 76.3043478,39.6847291 L76.3043478,37.1477833 C76.3043478,34.3500394 78.5863565,32.0738916 81.3913043,32.0738916 C84.1911652,32.0738916 86.4729196,34.3464877 86.4782609,37.1399187 L86.4782609,37.1477833 C86.4782609,38.2503399 87.8578435,51.7816478 82.3257783,64.0394089 L73.7608696,64.0394089 C72.3563609,64.0394089 71.2173913,65.1754532 71.2173913,66.5763547 C71.2173913,67.9772562 72.3563609,69.1133005 73.7608696,69.1133005 C75.5369804,69.1133005 103.92703,69.1133005 106.826087,69.1133005 C109.631035,69.1133005 111.913043,71.3894483 111.913043,74.1871921 C111.913043,76.9895025 109.635613,79.2610837 106.826087,79.2610837 Z" id="Shape"></path>
                <path d="M22.5,90 C21.1195,90 20,91.1195 20,92.5 L20,112.5 C20,113.8805 21.1195,115 22.5,115 C23.8805,115 25,113.8805 25,112.5 L25,92.5 C25,91.1195 23.8805,90 22.5,90 Z" id="Path"></path>
                <path d="M60.5,32 L50.5,32 C49.1195,32 48,33.1195 48,34.5 C48,35.8805 49.1195,37 50.5,37 L60.5,37 C61.8805,37 63,35.8805 63,34.5 C63,33.1195 61.8805,32 60.5,32 Z" id="Path"></path>
                <path d="M111.5,32 L101.5,32 C100.1195,32 99,33.1195 99,34.5 C99,35.8805 100.1195,37 101.5,37 L111.5,37 C112.8805,37 114,35.8805 114,34.5 C114,33.1195 112.8805,32 111.5,32 Z" id="Path"></path>
                <path d="M104.272051,11.7277793 C103.301204,10.7574069 101.727866,10.7574069 100.75677,11.7277793 L93.7279487,18.7567648 C92.7573504,19.7273857 92.7573504,21.3012581 93.7279487,22.2721275 C94.6990441,23.2427484 96.2721341,23.2424999 97.2432295,22.2721275 L104.272051,15.243142 C105.24265,14.2725211 105.24265,12.6986487 104.272051,11.7277793 Z" id="Path"></path>
                <path d="M68.2720513,18.7567648 L61.2432295,11.7277793 C60.2723827,10.7574069 58.6990441,10.7574069 57.7279487,11.7277793 C56.7573504,12.6984002 56.7573504,14.2722725 57.7279487,15.243142 L64.7567705,22.2721275 C65.7281144,23.2427484 67.3012044,23.2424999 68.2720513,22.2721275 C69.2426496,21.3015066 69.2426496,19.7276343 68.2720513,18.7567648 Z" id="Path"></path>
            </g>
        </g>
    </g>
</svg>