<?xml version="1.0" encoding="UTF-8"?>
<svg width="180px" height="200px" viewBox="0 0 180 200" version="1.1" xmlns="http://www.w3.org/2000/svg" xmlns:xlink="http://www.w3.org/1999/xlink">
    <!-- Generator: Sketch 59 (86127) - https://sketch.com -->
    <title>like-blue</title>
    <desc>Created with Sketch.</desc>
    <g id="Page-1" stroke="none" stroke-width="1" fill="none" fill-rule="evenodd">
        <g id="Icons" transform="translate(-912.000000, -658.000000)" fill="#0FB5CD" fill-rule="nonzero">
            <g id="like-blue" transform="translate(912.000000, 658.000000)">
                <path d="M125.384615,0 C123.260769,0 121.538462,1.77449883 121.538462,3.96270396 L121.538462,22.1911422 C121.538462,24.3793473 123.260769,26.1538462 125.384615,26.1538462 C127.508462,26.1538462 129.230769,24.3793473 129.230769,22.1911422 L129.230769,3.96270396 C129.230769,1.77449883 127.508462,0 125.384615,0 Z" id="Path"></path>
                <path d="M34.6153846,121.538462 C32.4923077,121.538462 30.7692308,123.261538 30.7692308,125.384615 C30.7692308,127.507692 32.4923077,129.230769 34.6153846,129.230769 C36.7384615,129.230769 38.4615385,127.507692 38.4615385,125.384615 C38.4615385,123.261538 36.7384615,121.538462 34.6153846,121.538462 Z" id="Path"></path>
                <path d="M180,114.134142 C180,105.525699 172.978435,98.5221675 164.347826,98.5221675 L135.136174,98.5221675 C139.658478,86.9681357 141.489,73.3685449 141.136043,61.2626298 C141.068739,58.9524479 140.979913,57.6164532 140.859783,56.7753581 C140.657478,48.3421599 133.714957,41.5384615 125.217391,41.5384615 C116.586783,41.5384615 109.565217,48.5419932 109.565217,57.1504358 L109.565217,61.0534293 C109.565217,85.7383024 77.7858261,99.60759 53.8027826,105.554972 C51.9894783,101.42014 47.8502609,98.5221675 43.0434783,98.5221675 L3.91304348,98.5221675 C1.75226087,98.5221675 0,100.269928 0,102.425161 L0,196.097006 C0,198.252239 1.75226087,200 3.91304348,200 L43.0434783,200 C47.8181739,200 51.9335217,197.140277 53.7656087,193.049159 C55.7514783,193.557329 57.594913,194.037397 59.2966957,194.480777 C72.959087,198.039917 80.4850435,200 98.7886957,200 L140.869565,200 C149.500174,200 156.521739,192.996468 156.521739,184.388026 C156.521739,181.178204 155.544652,178.192414 153.872609,175.708549 C159.917478,173.599761 164.347826,167.838943 164.347826,160.970064 C164.347826,157.771951 163.394609,154.776404 161.727652,152.28122 C167.745913,150.16892 172.173913,144.421372 172.173913,137.552103 C172.173913,134.342281 171.196826,131.356491 169.524783,128.872626 C175.569652,126.763839 180,121.00302 180,114.134142 Z M46.9565217,188.291019 C46.9565217,190.44313 45.2011304,192.194013 43.0434783,192.194013 L7.82608696,192.194013 L7.82608696,106.328155 L43.0434783,106.328155 C45.2011304,106.328155 46.9565217,108.079038 46.9565217,110.231148 L46.9565217,188.291019 Z M164.347826,121.940129 C155.954739,121.940129 153.954,121.940129 144.782609,121.940129 C142.621826,121.940129 140.869565,123.687889 140.869565,125.843122 C140.869565,127.998355 142.621826,129.746116 144.782609,129.746116 L156.521739,129.746116 C160.837043,129.746116 164.347826,133.247882 164.347826,137.552103 C164.347826,141.86335 160.844087,145.35809 156.521739,145.35809 L136.956522,145.35809 C134.795739,145.35809 133.043478,147.105851 133.043478,149.261084 C133.043478,151.416317 134.795739,153.164077 136.956522,153.164077 L148.695652,153.164077 C152.959696,153.164077 156.521739,156.561633 156.521739,160.970064 C156.521739,165.281311 153.018,168.776052 148.695652,168.776052 C140.302565,168.776052 138.301826,168.776052 129.130435,168.776052 C126.969652,168.776052 125.217391,170.523812 125.217391,172.679045 C125.217391,174.834278 126.969652,176.582039 129.130435,176.582039 L140.869565,176.582039 C145.18487,176.582039 148.695652,180.083804 148.695652,184.388026 C148.695652,188.692247 145.18487,192.194013 140.869565,192.194013 L98.7886957,192.194013 C81.4903043,192.194013 74.7340435,190.434153 61.2743478,186.928094 C59.3025652,186.41446 57.1398261,185.851258 54.7826087,185.251758 L54.7826087,113.3633 C83.1005217,106.63532 117.391304,90.2130845 117.391304,61.0534293 L117.391304,57.1504358 C117.391304,52.8462145 120.902087,49.3444487 125.217391,49.3444487 C129.52487,49.3444487 133.035261,52.8407503 133.043478,57.1383365 L133.043478,57.1504358 C133.043478,58.8466768 135.165913,79.6640735 126.655043,98.5221675 L113.478261,98.5221675 C111.317478,98.5221675 109.565217,100.269928 109.565217,102.425161 C109.565217,104.580394 111.317478,106.328155 113.478261,106.328155 C116.210739,106.328155 159.887739,106.328155 164.347826,106.328155 C168.66313,106.328155 172.173913,109.82992 172.173913,114.134142 C172.173913,118.445388 168.670174,121.940129 164.347826,121.940129 Z" id="Shape"></path>
                <path d="M34.6153846,138.461538 C32.4915385,138.461538 30.7692308,140.183846 30.7692308,142.307692 L30.7692308,173.076923 C30.7692308,175.200769 32.4915385,176.923077 34.6153846,176.923077 C36.7392308,176.923077 38.4615385,175.200769 38.4615385,173.076923 L38.4615385,142.307692 C38.4615385,140.183846 36.7392308,138.461538 34.6153846,138.461538 Z" id="Path"></path>
                <path d="M93.0769231,49.2307692 L77.6923077,49.2307692 C75.5684615,49.2307692 73.8461538,50.9530769 73.8461538,53.0769231 C73.8461538,55.2007692 75.5684615,56.9230769 77.6923077,56.9230769 L93.0769231,56.9230769 C95.2007692,56.9230769 96.9230769,55.2007692 96.9230769,53.0769231 C96.9230769,50.9530769 95.2007692,49.2307692 93.0769231,49.2307692 Z" id="Path"></path>
                <path d="M171.538462,49.2307692 L156.153846,49.2307692 C154.03,49.2307692 152.307692,50.9530769 152.307692,53.0769231 C152.307692,55.2007692 154.03,56.9230769 156.153846,56.9230769 L171.538462,56.9230769 C173.662308,56.9230769 175.384615,55.2007692 175.384615,53.0769231 C175.384615,50.9530769 173.662308,49.2307692 171.538462,49.2307692 Z" id="Path"></path>
                <path d="M160.41854,18.0427373 C158.92493,16.5498568 156.504409,16.5498568 155.010416,18.0427373 L144.196844,28.8565612 C142.703616,30.3498242 142.703616,32.7711663 144.196844,34.2648116 C145.690837,35.7580745 148.110976,35.7576921 149.604969,34.2648116 L160.41854,23.4509877 C161.911769,21.9577247 161.911769,19.5363826 160.41854,18.0427373 Z" id="Path"></path>
                <path d="M105.033925,28.8565612 L94.2203531,18.0427373 C92.7267426,16.5498568 90.3062217,16.5498568 88.8122288,18.0427373 C87.3190007,19.5360003 87.3190007,21.9573423 88.8122288,23.4509877 L99.6258007,34.2648116 C101.120176,35.7580745 103.540315,35.7576921 105.033925,34.2648116 C106.527153,32.7715487 106.527153,30.3502066 105.033925,28.8565612 Z" id="Path"></path>
            </g>
        </g>
    </g>
</svg>