<?xml version="1.0" encoding="utf-8"?>
<!-- Generator: Adobe Illustrator 23.0.1, SVG Export Plug-In . SVG Version: 6.00 Build 0)  -->
<svg version="1.1" xmlns="http://www.w3.org/2000/svg" xmlns:xlink="http://www.w3.org/1999/xlink" x="0px" y="0px"
	 viewBox="0 0 144 36" style="enable-background:new 0 0 144 36;" xml:space="preserve">
<style type="text/css">
	.st0{fill:#0B0F2F;}
	.st1{fill:#0FB5CD;}
	.st2{fill:#0FB5FF;}
	.st3{fill:#0F76CD;}
	.st4{fill:#FFFFFF;}
	.st5{fill:none;}
</style>
<g id="Layer_1">
	<path class="st0" d="M141.6,10.4v0.4H141v1.6h-0.4v-1.6H140v-0.4H141.6z M143.2,10.4h0.6v2h-0.4v-1.8l-0.4,1.7h-0.4l-0.4-1.7v1.8
		h-0.4v-2h0.6l0.4,1.6L143.2,10.4L143.2,10.4z"/>
</g>
<g id="Layer_2">
	<g>
		<circle class="st1" cx="13.7" cy="20.6" r="13.5"/>
		<circle class="st2" cx="18.1" cy="18.2" r="13.5"/>
		<circle class="st3" cx="13.7" cy="15.8" r="13.5"/>
	</g>
	<g>
		<path d="M36,7.2h5.3l5.7,15.3l5.7-15.3h5.1L48.9,29h-4.2L36,7.2z"/>
		<path d="M56.2,20.6L56.2,20.6c0-4.8,3.4-8.7,8.2-8.7c5.5,0,8.1,4.3,8.1,9c0,0.4,0,0.8-0.1,1.2H60.9c0.5,2.1,1.9,3.2,4.1,3.2
			c1.6,0,2.7-0.5,4-1.7l2.7,2.4c-1.5,1.9-3.8,3.1-6.8,3.1C59.9,29.2,56.2,25.7,56.2,20.6z M67.9,19.2c-0.3-2.1-1.5-3.5-3.5-3.5
			c-1.9,0-3.2,1.4-3.6,3.5H67.9z"/>
		<path d="M75,12.3h4.7v2.4c1.1-1.4,2.5-2.7,4.9-2.7c3.6,0,5.6,2.4,5.6,6.2v10.7h-4.7v-9.2c0-2.2-1.1-3.4-2.8-3.4
			c-1.8,0-2.9,1.1-2.9,3.4v9.2H75V12.3z"/>
		<path d="M93.2,23V12.3h4.7v9.2c0,2.2,1.1,3.4,2.8,3.4c1.8,0,2.9-1.1,2.9-3.4v-9.2h4.7v16.6h-4.7v-2.4c-1.1,1.4-2.5,2.7-4.9,2.7
			C95.3,29.1,93.2,26.8,93.2,23z"/>
		<path d="M110.8,20.6L110.8,20.6c0-4.8,3.4-8.7,8.2-8.7c5.5,0,8.1,4.3,8.1,9c0,0.4,0,0.8-0.1,1.2h-11.5c0.5,2.1,1.9,3.2,4.1,3.2
			c1.6,0,2.7-0.5,4-1.7l2.7,2.4c-1.5,1.9-3.8,3.1-6.8,3.1C114.5,29.2,110.8,25.7,110.8,20.6z M122.5,19.2c-0.3-2.1-1.5-3.5-3.5-3.5
			c-1.9,0-3.2,1.4-3.6,3.5H122.5z"/>
		<path d="M128.3,26.6l2-3.1c1.8,1.3,3.7,2,5.2,2c1.4,0,2-0.5,2-1.2v-0.1c0-1-1.6-1.4-3.4-1.9c-2.3-0.7-4.9-1.8-4.9-5v-0.1
			c0-3.4,2.7-5.3,6.1-5.3c2.1,0,4.4,0.7,6.2,1.9l-1.8,3.2c-1.6-1-3.3-1.5-4.5-1.5c-1.1,0-1.7,0.5-1.7,1.1v0.1c0,0.9,1.6,1.4,3.4,2
			c2.3,0.8,5,1.9,5,4.9v0.1c0,3.7-2.8,5.4-6.3,5.4C133.1,29.1,130.5,28.4,128.3,26.6z"/>
	</g>
	<g>
		<path class="st4" d="M8.7,17.5c0-3.8,2.7-6.8,6.6-6.8c4.5,0,6.5,3.3,6.5,7.1v0.9h-8.7c0.4,1.4,1.4,2.1,2.8,2.1
			c1.1,0,1.9-0.4,2.9-1.3l2.5,2.1c-1.2,1.6-3.1,2.6-5.6,2.6C11.6,24.3,8.7,21.5,8.7,17.5z M17.5,16.4c-0.2-1.4-1-2.4-2.3-2.4
			c-1.2,0-2,0.9-2.3,2.4H17.5z"/>
	</g>
	<path class="st5" d="M31.6,18.2c0-6-3.9-11.1-9.3-12.8c-2.3-1.9-5.3-3.1-8.6-3.1c-7.5,0-13.5,6-13.5,13.5c0,0.8,0.1,1.6,0.2,2.4
		c-0.1,0.8-0.2,1.6-0.2,2.4c0,7.5,6,13.5,13.5,13.5c3.3,0,6.3-1.2,8.6-3.1C27.7,29.3,31.6,24.2,31.6,18.2z"/>
</g>
</svg>
