<?xml version="1.0" encoding="utf-8"?>
<!-- Generator: Adobe Illustrator 23.0.1, SVG Export Plug-In . SVG Version: 6.00 Build 0)  -->
<svg version="1.1" id="Layer_1" xmlns="http://www.w3.org/2000/svg" xmlns:xlink="http://www.w3.org/1999/xlink" x="0px" y="0px"
	 viewBox="0 0 144 36" style="enable-background:new 0 0 144 36;" xml:space="preserve">
<style type="text/css">
	.st0{fill:#0B0F2F;}
	.st1{fill:#0FB5CD;}
	.st2{fill:#FFFFFF;}
</style>
<g>
	<path class="st0" d="M37.2,27.5L29.7,4.2H35l5.2,16.3h0.1l5.2-16.3h5.3L43,27.5H37.2z"/>
	<path class="st0" d="M55.4,23.4c0.7,0.7,1.7,1,3,1c0.9,0,1.7-0.2,2.4-0.7s1.1-1,1.2-1.5h4.1c-0.7,2-1.6,3.5-3,4.3
		c-1.3,0.9-3,1.3-4.9,1.3c-1.3,0-2.5-0.2-3.6-0.6s-2-1-2.7-1.8s-1.3-1.7-1.7-2.8c-0.4-1.1-0.6-2.3-0.6-3.6c0-1.3,0.2-2.4,0.6-3.5
		c0.4-1.1,1-2,1.8-2.8s1.7-1.4,2.7-1.9c1.1-0.5,2.2-0.7,3.5-0.7c1.4,0,2.7,0.3,3.7,0.8c1.1,0.6,1.9,1.3,2.6,2.2
		c0.7,0.9,1.2,2,1.5,3.2s0.4,2.4,0.3,3.7H54.2C54.3,21.7,54.7,22.8,55.4,23.4z M60.6,14.6c-0.6-0.6-1.4-0.9-2.5-0.9
		c-0.7,0-1.4,0.1-1.8,0.4c-0.5,0.2-0.9,0.6-1.2,0.9c-0.3,0.4-0.5,0.8-0.6,1.2c-0.1,0.4-0.2,0.8-0.2,1.1h7.5
		C61.5,16.1,61.1,15.2,60.6,14.6z"/>
	<path class="st0" d="M73.5,10.6V13h0.1c0.6-1,1.3-1.7,2.3-2.1c0.9-0.4,1.9-0.7,2.9-0.7c1.2,0,2.3,0.2,3,0.5
		c0.8,0.3,1.4,0.8,1.9,1.4c0.5,0.6,0.8,1.3,1,2.2s0.3,1.8,0.3,2.8v10.4h-4.6V18c0-1.4-0.2-2.4-0.7-3.1c-0.4-0.7-1.2-1-2.3-1
		c-1.3,0-2.2,0.4-2.7,1.1c-0.6,0.7-0.8,2-0.8,3.7v8.8h-4.6V10.6H73.5z"/>
	<path class="st0" d="M99.8,27.5v-2.3h-0.1c-0.6,1-1.3,1.7-2.3,2.1c-0.9,0.4-1.9,0.7-2.9,0.7c-1.2,0-2.3-0.2-3-0.5
		c-0.8-0.3-1.4-0.8-1.9-1.4s-0.8-1.3-1-2.2C88.5,23,88.4,22,88.4,21V10.6H93v9.5c0,1.4,0.2,2.4,0.7,3.1c0.4,0.7,1.2,1,2.3,1
		c1.3,0,2.2-0.4,2.7-1.1c0.6-0.7,0.8-2,0.8-3.7v-8.8h4.6v16.8h-4.3C99.8,27.4,99.8,27.5,99.8,27.5z"/>
	<path class="st0" d="M112.7,23.4c0.7,0.7,1.7,1,3,1c0.9,0,1.7-0.2,2.4-0.7c0.7-0.5,1.1-1,1.2-1.5h4.1c-0.7,2-1.6,3.5-3,4.3
		c-1.3,0.9-3,1.3-4.9,1.3c-1.3,0-2.5-0.2-3.6-0.6s-2-1-2.7-1.8s-1.3-1.7-1.7-2.8c-0.4-1.1-0.6-2.3-0.6-3.6c0-1.3,0.2-2.4,0.6-3.5
		s1-2,1.8-2.8s1.7-1.4,2.7-1.9c1.1-0.5,2.2-0.7,3.5-0.7c1.4,0,2.7,0.3,3.7,0.8c1.1,0.6,1.9,1.3,2.6,2.2s1.2,2,1.5,3.2
		s0.4,2.4,0.3,3.7h-12.1C111.6,21.7,112,22.8,112.7,23.4z M117.9,14.6c-0.6-0.6-1.4-0.9-2.5-0.9c-0.7,0-1.4,0.1-1.8,0.4
		c-0.5,0.2-0.9,0.6-1.2,0.9c-0.3,0.4-0.5,0.8-0.6,1.2c-0.1,0.4-0.2,0.8-0.2,1.1h7.5C118.8,16.1,118.4,15.2,117.9,14.6z"/>
	<path class="st0" d="M130.3,23.3c0.2,0.4,0.5,0.7,0.8,0.9c0.3,0.2,0.7,0.4,1.1,0.5c0.4,0.1,0.9,0.2,1.3,0.2c0.3,0,0.7,0,1-0.1
		c0.4-0.1,0.7-0.2,1-0.4c0.3-0.2,0.5-0.4,0.7-0.7c0.2-0.3,0.3-0.6,0.3-1c0-0.7-0.5-1.2-1.4-1.6c-0.9-0.3-2.2-0.7-3.9-1
		c-0.7-0.2-1.3-0.3-2-0.5c-0.6-0.2-1.2-0.5-1.7-0.8s-0.9-0.8-1.2-1.3c-0.3-0.5-0.5-1.1-0.5-1.9c0-1.1,0.2-2,0.6-2.7s1-1.2,1.7-1.6
		c0.7-0.4,1.5-0.7,2.3-0.8c0.9-0.2,1.8-0.2,2.7-0.2s1.8,0.1,2.7,0.3s1.6,0.5,2.3,0.9s1.2,1,1.7,1.6c0.4,0.7,0.7,1.5,0.8,2.6h-4.4
		c-0.1-0.9-0.4-1.5-1-1.8s-1.3-0.5-2.1-0.5c-0.3,0-0.5,0-0.8,0s-0.6,0.1-0.8,0.2c-0.2,0.1-0.5,0.3-0.6,0.5c-0.2,0.2-0.3,0.5-0.3,0.8
		c0,0.4,0.2,0.7,0.5,1s0.7,0.5,1.2,0.6c0.5,0.2,1,0.3,1.7,0.4c0.6,0.1,1.3,0.3,1.9,0.4c0.7,0.2,1.3,0.3,2,0.6
		c0.6,0.2,1.2,0.5,1.7,0.9s0.9,0.8,1.2,1.3s0.5,1.2,0.5,2c0,1.1-0.2,2-0.7,2.8c-0.4,0.7-1,1.4-1.7,1.8s-1.5,0.8-2.5,1
		c-0.9,0.2-1.9,0.3-2.8,0.3c-1,0-1.9-0.1-2.9-0.3c-0.9-0.2-1.8-0.5-2.5-1s-1.3-1.1-1.8-1.8c-0.5-0.7-0.7-1.7-0.8-2.8h4.4
		C130,22.5,130.1,22.9,130.3,23.3z"/>
</g>
<g>
	<g>
		<g>
			<path class="st1" d="M32,25.3l-6.1-19c-0.6-1.9-2.6-2.9-4.5-2.3L2.5,10.1c-1.9,0.6-2.9,2.6-2.3,4.5l6.1,18.9
				c0.6,1.9,2.6,2.9,4.5,2.3l18.9-6.1C31.5,29.1,32.6,27.1,32,25.3z"/>
		</g>
	</g>
</g>
<g>
	<g>
		<g>
			<path class="st2" d="M17.1,15.1c-0.7-0.4-1.5-0.4-2.5-0.1c-0.7,0.2-1.2,0.5-1.6,0.9c-0.4,0.4-0.6,0.8-0.8,1.2
				C12,17.5,12,17.9,12,18.3s0.1,0.8,0.1,1.1l6.8-2.2C18.4,16.2,17.8,15.5,17.1,15.1z M22.9,25.3c-1,1.2-2.3,2-4,2.6
				c-1.2,0.4-2.3,0.5-3.4,0.5c-1.1-0.1-2.1-0.4-3-0.8c-0.9-0.5-1.7-1.2-2.4-2c-0.7-0.9-1.2-1.9-1.6-3.1C8.1,21.3,7.9,20.2,8,19
				c0.1-1.1,0.3-2.1,0.8-3.1c0.5-0.9,1.1-1.8,1.9-2.5c0.8-0.7,1.8-1.3,3-1.6c1.3-0.4,2.5-0.5,3.6-0.3c1.1,0.2,2.1,0.6,3,1.3
				c0.9,0.6,1.6,1.5,2.3,2.5c0.6,1,1.1,2.1,1.4,3.3l-11,3.5c0.5,1.3,1.2,2.2,2,2.6s1.8,0.4,3,0c0.8-0.3,1.5-0.7,2-1.3
				c0.5-0.6,0.7-1.2,0.7-1.7l3.7-1.2C24.3,22.5,23.8,24.1,22.9,25.3z"/>
		</g>
	</g>
</g>
<g>
	<path class="st0" d="M141.6,10.4v0.4H141v1.6h-0.4v-1.6H140v-0.4H141.6z"/>
	<path class="st0" d="M143.2,10.4h0.6v2h-0.4V11c0,0,0-0.1,0-0.2c0-0.1,0-0.1,0-0.2l-0.4,1.7h-0.4l-0.4-1.7c0,0,0,0.1,0,0.2
		c0,0.1,0,0.1,0,0.2v1.4h-0.4v-2h0.6l0.4,1.6L143.2,10.4z"/>
</g>
</svg>
