<?xml version="1.0" encoding="utf-8"?>
<!-- Generator: Adobe Illustrator 23.0.1, SVG Export Plug-In . SVG Version: 6.00 Build 0)  -->
<svg version="1.1" id="Layer_1" xmlns="http://www.w3.org/2000/svg" xmlns:xlink="http://www.w3.org/1999/xlink" x="0px" y="0px"
	 viewBox="0 0 144 36" style="enable-background:new 0 0 144 36;" xml:space="preserve">
<style type="text/css">
	.st0{fill:#0B0F2F;}
	.st1{fill:#0FB5CD;}
	.st2{fill:#0FB5FF;}
	.st3{fill:#1582CA;}
	.st4{fill:#F9622D;}
	.st5{fill:#0B56A3;}
	.st6{fill:#0E58CA;}
	.st7{fill:#032083;}
	.st8{fill:#FFFFFF;}
</style>
<g>
	<path d="M36.2,7h5.3l5.7,15.3L52.9,7H58l-8.9,21.8h-4.2L36.2,7z"/>
	<path d="M56.4,20.4L56.4,20.4c0-4.8,3.4-8.7,8.2-8.7c5.5,0,8.1,4.3,8.1,9c0,0.4,0,0.8-0.1,1.2H61.1c0.5,2.1,1.9,3.2,4.1,3.2
		c1.6,0,2.7-0.5,4-1.7l2.7,2.4c-1.5,1.9-3.8,3.1-6.8,3.1C60.1,29,56.4,25.5,56.4,20.4z M68.1,19c-0.3-2.1-1.5-3.5-3.5-3.5
		c-1.9,0-3.2,1.4-3.6,3.5H68.1z"/>
	<path d="M75.2,12.1h4.7v2.4c1.1-1.4,2.5-2.7,4.9-2.7c3.6,0,5.6,2.4,5.6,6.2v10.7h-4.7v-9.2c0-2.2-1.1-3.4-2.8-3.4
		c-1.8,0-2.9,1.1-2.9,3.4v9.2h-4.8V12.1z"/>
	<path d="M93.4,22.8V12.1h4.7v9.2c0,2.2,1.1,3.4,2.8,3.4c1.8,0,2.9-1.1,2.9-3.4v-9.2h4.7v16.6h-4.7v-2.4c-1.1,1.4-2.5,2.7-4.9,2.7
		C95.5,28.9,93.4,26.6,93.4,22.8z"/>
	<path d="M111,20.4L111,20.4c0-4.8,3.4-8.7,8.2-8.7c5.5,0,8.1,4.3,8.1,9c0,0.4,0,0.8-0.1,1.2h-11.5c0.5,2.1,1.9,3.2,4.1,3.2
		c1.6,0,2.7-0.5,4-1.7l2.7,2.4c-1.5,1.9-3.8,3.1-6.8,3.1C114.7,29,111,25.5,111,20.4z M122.7,19c-0.3-2.1-1.5-3.5-3.5-3.5
		c-1.9,0-3.2,1.4-3.6,3.5H122.7z"/>
	<path d="M128.5,26.4l2-3.1c1.8,1.3,3.7,2,5.2,2c1.4,0,2-0.5,2-1.2V24c0-1-1.6-1.4-3.4-1.9c-2.3-0.7-4.9-1.8-4.9-5V17
		c0-3.4,2.7-5.3,6.1-5.3c2.1,0,4.4,0.7,6.2,1.9l-1.8,3.2c-1.6-1-3.3-1.5-4.5-1.5c-1.1,0-1.7,0.5-1.7,1.1v0.1c0,0.9,1.6,1.4,3.4,2
		c2.3,0.8,5,1.9,5,4.9v0.1c0,3.7-2.8,5.4-6.3,5.4C133.3,28.9,130.7,28.2,128.5,26.4z"/>
	<path class="st0" d="M141.8,10.2v0.4h-0.6v1.6h-0.4v-1.6h-0.6v-0.4H141.8z M143.4,10.2h0.6v2h-0.4v-1.8l-0.4,1.7h-0.4l-0.4-1.7v1.8
		H142v-2h0.6l0.4,1.6L143.4,10.2L143.4,10.2z"/>
</g>
<g>
	<g>
		<path class="st1" d="M10.1,29.3c-5.1-1.6-8.9-6-9.9-11.3C0.1,18.8,0,19.7,0,20.6c0,8.1,6.5,14.6,14.6,14.6c3.5,0,6.7-1.2,9.3-3.3
			c-1.4,0.5-2.9,0.7-4.5,0.7C15.9,32.6,12.6,31.4,10.1,29.3z"/>
		<path class="st2" d="M34,18c0-6.5-4.3-12-10.1-13.9c3.3,2.7,5.4,6.8,5.4,11.3c0,0.9-0.1,1.8-0.2,2.6c0.2,0.8,0.2,1.7,0.2,2.6
			c0,4.6-2.1,8.6-5.4,11.3C29.8,30,34,24.5,34,18z"/>
		<path class="st3" d="M29.2,20.6c0-0.9-0.1-1.8-0.2-2.6c-1.2,6.8-7.2,12-14.4,12c-1.6,0-3.1-0.3-4.5-0.7c2.5,2.1,5.7,3.3,9.3,3.3
			c1.6,0,3.1-0.3,4.5-0.7C27.2,29.2,29.2,25.2,29.2,20.6z"/>
		<path class="st4" d="M10.1,6.7c2.5-2.1,5.7-3.3,9.3-3.3c1.6,0,3.1,0.3,4.5,0.7c-2.5-2.1-5.7-3.3-9.3-3.3C6.5,0.8,0,7.3,0,15.4
			c0,0.9,0.1,1.8,0.2,2.6C1.2,12.7,5.1,8.3,10.1,6.7z"/>
		<path class="st5" d="M10.1,29.3C6.9,26.6,4.8,22.6,4.8,18c0-4.6,2.1-8.6,5.4-11.3c-5.1,1.6-8.9,6-9.9,11.3
			C1.2,23.3,5.1,27.7,10.1,29.3z"/>
		<path class="st6" d="M10.1,6.7C11.5,6.2,13.1,6,14.6,6c7.2,0,13.2,5.2,14.4,12c0.2-0.8,0.2-1.7,0.2-2.6c0-4.6-2.1-8.6-5.4-11.3
			c-1.4-0.5-2.9-0.7-4.5-0.7C15.9,3.4,12.6,4.6,10.1,6.7z"/>
		<path class="st7" d="M14.6,6c-1.6,0-3.1,0.3-4.5,0.7C6.9,9.4,4.8,13.4,4.8,18c0,4.6,2.1,8.6,5.4,11.3c1.4,0.5,2.9,0.7,4.5,0.7
			c7.2,0,13.2-5.2,14.4-12C27.8,11.2,21.8,6,14.6,6z"/>
	</g>
	<g>
		<path class="st8" d="M8.1,17.7c0-4.8,3.4-8.5,8.3-8.5c5.6,0,8.1,4.1,8.1,8.9v1.1H13.6c0.5,1.8,1.8,2.6,3.5,2.6
			c1.4,0,2.4-0.5,3.6-1.6l3.1,2.6c-1.5,2-3.9,3.3-7,3.3C11.7,26.2,8.1,22.7,8.1,17.7z M19.1,16.4c-0.3-1.8-1.3-3-2.9-3
			c-1.5,0-2.5,1.1-2.9,3H19.1z"/>
	</g>
</g>
</svg>
