<?xml version="1.0" encoding="utf-8"?>
<!-- Generator: Adobe Illustrator 23.0.1, SVG Export Plug-In . SVG Version: 6.00 Build 0)  -->
<svg version="1.1" id="Layer_1" xmlns="http://www.w3.org/2000/svg" xmlns:xlink="http://www.w3.org/1999/xlink" x="0px" y="0px"
	 viewBox="0 0 144 36" style="enable-background:new 0 0 144 36;" xml:space="preserve">
<style type="text/css">
	.st0{fill:#FFFFFF;}
	.st1{fill:#0FB5CD;}
	.st2{fill:#0FB5FF;}
	.st3{fill:#0180CD;}
	.st4{fill:#0F76CD;}
	.st5{fill:#0154A5;}
	.st6{fill:#0154CD;}
	.st7{fill:#003BA5;}
</style>
<g>
	<path class="st0" d="M141.6,10.4v0.4H141v1.6h-0.4v-1.6H140v-0.4H141.6z M143.2,10.4h0.6v2h-0.4V11v-0.2v-0.2l-0.4,1.7h-0.4
		l-0.4-1.7v1.8h-0.4v-2h0.6l0.4,1.6L143.2,10.4L143.2,10.4z"/>
</g>
<g>
	<g>
		<path class="st1" d="M9.7,28.9c-4.8-1.5-8.4-5.6-9.3-10.6c-0.1,0.8-0.2,1.6-0.2,2.5c0,7.6,6.2,13.7,13.7,13.7
			c3.3,0,6.3-1.2,8.7-3.1c-1.3,0.4-2.7,0.7-4.2,0.7C15.1,32,12,30.9,9.7,28.9z"/>
		<path class="st2" d="M32.1,18.3c0-6.1-4-11.3-9.5-13.1c3.1,2.5,5,6.3,5,10.6c0,0.8-0.1,1.7-0.2,2.5c0.1,0.8,0.2,1.6,0.2,2.5
			c0,4.3-2,8.1-5,10.6C28.1,29.6,32.1,24.4,32.1,18.3z"/>
		<path class="st1" d="M27.6,20.8c0-0.8-0.1-1.7-0.2-2.5c-1.2,6.4-6.8,11.3-13.5,11.3c-1.5,0-2.9-0.2-4.2-0.7
			c2.4,1.9,5.4,3.1,8.7,3.1c1.5,0,2.9-0.2,4.2-0.7C25.7,28.9,27.6,25,27.6,20.8z"/>
		<path class="st3" d="M27.6,20.8c0-0.8-0.1-1.7-0.2-2.5c-1.2,6.4-6.8,11.3-13.5,11.3c-1.5,0-2.9-0.2-4.2-0.7
			c2.4,1.9,5.4,3.1,8.7,3.1c1.5,0,2.9-0.2,4.2-0.7C25.7,28.9,27.6,25,27.6,20.8z"/>
		<path class="st4" d="M9.7,7.7c2.4-1.9,5.4-3.1,8.7-3.1c1.5,0,2.9,0.2,4.2,0.7c-2.4-1.9-5.4-3.1-8.7-3.1C6.3,2.1,0.1,8.3,0.1,15.9
			c0,0.8,0.1,1.7,0.2,2.5C1.3,13.3,4.9,9.2,9.7,7.7z"/>
		<path class="st1" d="M9.7,28.9c-3.1-2.5-5-6.3-5-10.6s2-8.1,5-10.6c-4.8,1.5-8.4,5.6-9.3,10.6C1.3,23.3,4.9,27.4,9.7,28.9z"/>
		<path class="st5" d="M9.7,28.9c-3.1-2.5-5-6.3-5-10.6s2-8.1,5-10.6c-4.8,1.5-8.4,5.6-9.3,10.6C1.3,23.3,4.9,27.4,9.7,28.9z"/>
		<path class="st2" d="M9.7,7.7C11,7.3,12.4,7,13.9,7c6.7,0,12.3,4.9,13.5,11.3c0.1-0.8,0.2-1.6,0.2-2.5c0-4.3-2-8.1-5-10.6
			c-1.3-0.4-2.7-0.7-4.2-0.7C15.1,4.6,12,5.7,9.7,7.7z"/>
		<path class="st6" d="M9.7,7.7C11,7.3,12.4,7,13.9,7c6.7,0,12.3,4.9,13.5,11.3c0.1-0.8,0.2-1.6,0.2-2.5c0-4.3-2-8.1-5-10.6
			c-1.3-0.4-2.7-0.7-4.2-0.7C15.1,4.6,12,5.7,9.7,7.7z"/>
		<path class="st1" d="M13.9,7C12.4,7,11,7.3,9.7,7.7c-3.1,2.5-5,6.3-5,10.6s2,8.1,5,10.6c1.3,0.4,2.7,0.7,4.2,0.7
			c6.7,0,12.3-4.9,13.5-11.3C26.2,11.9,20.6,7,13.9,7z"/>
		<path class="st2" d="M13.9,7C12.4,7,11,7.3,9.7,7.7c-3.1,2.5-5,6.3-5,10.6s2,8.1,5,10.6c1.3,0.4,2.7,0.7,4.2,0.7
			c6.7,0,12.3-4.9,13.5-11.3C26.2,11.9,20.6,7,13.9,7z"/>
		<path class="st7" d="M13.9,7C12.4,7,11,7.3,9.7,7.7c-3.1,2.5-5,6.3-5,10.6s2,8.1,5,10.6c1.3,0.4,2.7,0.7,4.2,0.7
			c6.7,0,12.3-4.9,13.5-11.3C26.2,11.9,20.6,7,13.9,7z"/>
	</g>
	<g>
		<path class="st0" d="M9,17.9L9,17.9c0-3.8,2.7-6.8,6.6-6.8c4.5,0,6.5,3.3,6.5,7.1c0,0.3,0,0.6,0,0.9h-8.7c0.4,1.4,1.4,2.1,2.8,2.1
			c1.1,0,1.9-0.4,2.9-1.3l2.5,2.1c-1.2,1.6-3.1,2.6-5.6,2.6C11.9,24.7,9,21.9,9,17.9z M17.8,16.8c-0.2-1.4-1-2.4-2.3-2.4
			c-1.2,0-2,0.9-2.3,2.4H17.8z"/>
	</g>
</g>
<g>
	<path class="st0" d="M34.3,7.1h5.4l5.8,15.5l5.8-15.5h5.2l-8.9,22.2h-4.3L34.3,7.1z"/>
	<path class="st0" d="M54.9,20.8L54.9,20.8c0-4.9,3.4-8.8,8.3-8.8c5.6,0,8.2,4.4,8.2,9.2c0,0.4,0,0.8-0.1,1.3H59.7
		c0.5,2.2,2,3.3,4.1,3.3c1.6,0,2.8-0.5,4.1-1.7l2.7,2.4c-1.6,2-3.8,3.1-6.9,3.1C58.7,29.5,54.9,26,54.9,20.8z M66.8,19.4
		c-0.3-2.1-1.5-3.6-3.6-3.6c-2,0-3.3,1.4-3.7,3.6H66.8z"/>
	<path class="st0" d="M74.1,12.3h4.8v2.4c1.1-1.4,2.5-2.7,4.9-2.7c3.6,0,5.7,2.4,5.7,6.3v10.9h-4.8v-9.4c0-2.3-1.1-3.4-2.9-3.4
		c-1.8,0-3,1.2-3,3.4v9.4h-4.8V12.3z"/>
	<path class="st0" d="M92.6,23.2V12.3h4.8v9.4c0,2.3,1.1,3.4,2.9,3.4c1.8,0,3-1.2,3-3.4v-9.4h4.8v16.9h-4.8v-2.4
		c-1.1,1.4-2.5,2.7-4.9,2.7C94.7,29.4,92.6,27.1,92.6,23.2z"/>
	<path class="st0" d="M110.5,20.8L110.5,20.8c0-4.9,3.4-8.8,8.3-8.8c5.6,0,8.2,4.4,8.2,9.2c0,0.4,0,0.8-0.1,1.3h-11.7
		c0.5,2.2,2,3.3,4.1,3.3c1.6,0,2.8-0.5,4.1-1.7l2.7,2.4c-1.6,2-3.8,3.1-6.9,3.1C114.2,29.5,110.5,26,110.5,20.8z M122.4,19.4
		c-0.3-2.1-1.5-3.6-3.6-3.6c-2,0-3.3,1.4-3.7,3.6H122.4z"/>
	<path class="st0" d="M128.3,26.9l2-3.1c1.8,1.3,3.7,2,5.3,2c1.4,0,2-0.5,2-1.3v-0.1c0-1-1.6-1.4-3.5-2c-2.4-0.7-5-1.8-5-5.1v-0.1
		c0-3.4,2.8-5.4,6.2-5.4c2.1,0,4.5,0.7,6.3,2l-1.8,3.3c-1.7-1-3.3-1.6-4.6-1.6c-1.2,0-1.8,0.5-1.8,1.2v0.1c0,0.9,1.6,1.4,3.4,2
		c2.4,0.8,5.1,1.9,5.1,5V24c0,3.7-2.8,5.4-6.5,5.4C133.2,29.4,130.5,28.7,128.3,26.9z"/>
</g>
</svg>
