<?xml version="1.0" encoding="UTF-8"?>
<svg width="173px" height="200px" viewBox="0 0 173 200" version="1.1" xmlns="http://www.w3.org/2000/svg" xmlns:xlink="http://www.w3.org/1999/xlink">
    <!-- Generator: Sketch 59 (86127) - https://sketch.com -->
    <title>manager</title>
    <desc>Created with Sketch.</desc>
    <g id="Page-1" stroke="none" stroke-width="1" fill="none" fill-rule="evenodd">
        <g id="Icons" transform="translate(-798.000000, -358.000000)" fill="#0FB5CD" fill-rule="nonzero">
            <g id="manager" transform="translate(798.000000, 358.000000)">
                <path d="M105.879211,70.3125 C108.035278,70.3125 109.785461,68.5623168 109.785461,66.40625 C109.785461,64.2501832 108.035278,62.5 105.879211,62.5 C103.718567,62.5 101.972961,64.2501832 101.972961,66.40625 C101.972961,68.5623168 103.718567,70.3125 105.879211,70.3125 Z" id="Path"></path>
                <path d="M66.8167113,70.3125 C68.9727781,70.3125 70.7229613,68.5623168 70.7229613,66.40625 C70.7229613,64.2501832 68.9727781,62.5 66.8167113,62.5 C64.6560668,62.5 62.9104613,64.2501832 62.9104613,66.40625 C62.9104613,68.5623168 64.6560668,70.3125 66.8167113,70.3125 Z" id="Path"></path>
                <path d="M75.9048461,97.1618652 C79.1839602,98.7075805 82.698059,99.4918824 86.3464355,99.4918824 C89.9154664,99.4918824 93.3609008,98.7396242 96.5881348,97.2564695 C98.5488891,96.3546754 99.4064332,94.0353395 98.5061645,92.0745852 C97.6043703,90.1153562 95.2850344,89.2562867 93.3242797,90.1580812 C91.1285398,91.1666871 88.7802125,91.6793824 86.3464355,91.6793824 C83.857727,91.6793824 81.4651488,91.1468508 79.2358398,90.0955199 C77.2842406,89.1754148 74.9557496,90.0115969 74.0371703,91.9631957 C73.1170656,93.9147949 73.9532469,96.2417602 75.9048461,97.1618652 Z" id="Path"></path>
                <path d="M172.496033,158.503723 C172.496033,137.023926 148.033142,120.178223 127.064514,119.380188 L116.366577,109.768677 C129.396057,100.262451 137.304688,84.9853516 137.304688,68.75 L137.304688,42.96875 C137.304688,19.2764281 117.967224,-5.68434189e-14 94.1986086,-5.68434189e-14 L78.5736086,-5.68434189e-14 C54.8370359,-5.68434189e-14 35.7421875,19.2077637 35.7421875,42.96875 L35.7421875,68.75 C35.7421875,84.9578859 43.545532,100.205994 56.4056398,109.695434 L45.6268313,119.380188 C24.7039797,120.176697 0.1953125,136.979675 0.1953125,158.503723 L0.1953125,196.09375 C0.1953125,198.251343 1.94396953,200 4.1015625,200 L168.589783,200 C170.747375,200 172.496033,198.251343 172.496033,196.09375 L172.496033,158.503723 Z M77.6931762,174.21875 L94.9768066,174.21875 L99.0722656,192.1875 L73.4786988,192.1875 L77.6931762,174.21875 Z M95.3125,166.40625 L77.445984,166.40625 L74.4491578,157.069397 L86.3479613,151.119995 L98.5015867,157.199097 L95.3125,166.40625 Z M86.3464355,139.382934 L72.7722168,117.668152 C77.1804809,118.893433 81.7611695,119.529724 86.3861086,119.529724 C90.9667969,119.529724 95.513916,118.90564 99.8992922,117.700195 L86.3464355,139.382934 Z M91.9372559,145.181274 L110.691834,115.171814 L120.806885,124.259949 L107.936096,153.182984 L91.9372559,145.181274 Z M78.5736086,7.8125 L94.1986086,7.8125 C113.659668,7.8125 129.492188,23.5824586 129.492188,42.96875 L129.492188,46.1975098 L122.157288,35.6353758 C121.49353,34.67865 120.436096,34.0682984 119.274902,33.9706422 C118.112183,33.8729859 116.970825,34.2987062 116.156006,35.1318359 C108.215332,43.2525633 99.0219117,46.875 86.3479613,46.875 C73.6755371,46.875 64.4805906,43.2525633 56.5338133,35.1318359 C55.7159422,34.2941285 54.5639039,33.869934 53.3996582,33.972168 C52.2338867,34.074402 51.1749266,34.6939086 50.5157469,35.661316 L43.5546875,45.8618164 L43.5546875,42.96875 C43.5546875,23.5824586 59.2636109,7.8125 78.5736086,7.8125 Z M43.5546875,68.75 L43.5546875,59.7213746 L54.4036867,43.8232422 C63.095093,51.2161254 73.3657836,54.6875 86.3479613,54.6875 C99.3438719,54.6875 109.622192,51.2084961 118.315125,43.8003539 L129.492188,59.8953246 L129.492188,68.75 C129.492188,92.1432496 110.371399,111.71875 86.3861086,111.71875 C62.4786375,111.71875 43.5546875,92.2042848 43.5546875,68.75 Z M61.9995117,115.17334 L80.757141,145.181274 L64.7552492,153.182984 L51.8844605,124.259949 L61.9995117,115.17334 Z M8.0078125,158.503723 C8.0078125,142.411804 27.5695801,128.517151 44.6640016,127.253723 L59.2788695,160.092163 C59.7122191,161.065674 60.5255125,161.820984 61.529541,162.181091 C62.5335695,162.541199 63.6398316,162.47406 64.5950316,161.997986 L67.3782348,160.604859 L70.5474852,170.474243 L65.4541016,192.1875 L8.0078125,192.1875 L8.0078125,158.503723 Z M164.683533,192.1875 L107.084656,192.1875 L102.149963,170.533752 L105.548096,160.722351 L108.096313,161.997986 C109.057617,162.478637 110.166931,162.538147 111.161804,162.181091 C112.165832,161.820984 112.979126,161.065674 113.412476,160.092163 L128.027344,127.253723 C145.121765,128.518677 164.683533,142.411804 164.683533,158.503723 L164.683533,192.1875 Z" id="Shape"></path>
                <path d="M137.129211,174.21875 L121.504211,174.21875 C119.346619,174.21875 117.597961,175.967407 117.597961,178.125 C117.597961,180.282593 119.346619,182.03125 121.504211,182.03125 L137.129211,182.03125 C139.286804,182.03125 141.035461,180.282593 141.035461,178.125 C141.035461,175.967407 139.286804,174.21875 137.129211,174.21875 Z" id="Path"></path>
                <path d="M152.539062,174.21875 C154.695129,174.21875 156.445312,175.968933 156.445312,178.125 C156.445312,180.281067 154.695129,182.03125 152.539062,182.03125 C150.382996,182.03125 148.632812,180.281067 148.632812,178.125 C148.632812,175.968933 150.382996,174.21875 152.539062,174.21875 Z" id="Path"></path>
            </g>
        </g>
    </g>
</svg>