<?xml version="1.0" encoding="UTF-8"?>
<svg width="200px" height="200px" viewBox="0 0 200 200" version="1.1" xmlns="http://www.w3.org/2000/svg" xmlns:xlink="http://www.w3.org/1999/xlink">
    <!-- Generator: Sketch 59 (86127) - https://sketch.com -->
    <title>search</title>
    <desc>Created with Sketch.</desc>
    <g id="Page-1" stroke="none" stroke-width="1" fill="none" fill-rule="evenodd">
        <g id="Icons" transform="translate(-962.000000, -244.000000)" fill-rule="nonzero">
            <g id="search" transform="translate(962.000000, 244.000000)">
                <circle id="Oval" fill="#CD270F" cx="104.296875" cy="104.296875" r="95.703125"></circle>
                <path d="M94.3980469,94.396875 C101.792578,87.003125 111.623047,82.93125 122.078906,82.93125 C129.202344,82.93125 136.033984,84.8226562 142.004297,88.3652344 L142.004297,21.0011719 L0,21.0011719 L0,144.794141 C0,146.942578 1.7578125,148.700391 3.90625,148.700391 L93.3847656,148.700391 C79.1460937,133.369531 79.4824219,109.313281 94.3980469,94.396875 Z" id="Path" fill="#EEF6FF"></path>
                <path d="M8.859375,144.794141 L8.859375,21.0011719 L0,21.0011719 L0,144.794141 C0,146.942578 1.7578125,148.700391 3.90625,148.700391 L12.765625,148.700391 C10.6171875,148.700391 8.859375,146.942578 8.859375,144.794141 Z" id="Path" fill="#C3DDF4"></path>
                <path d="M139.771484,0 L2.2328125,0 C1.0046875,0 0,1.0046875 0,2.2328125 L0,22.1085938 L142.004297,22.1085938 L142.004297,2.2328125 C142.004297,1.0046875 140.999609,0 139.771484,0 Z" id="Path" fill="#293D7C"></path>
                <path d="M11.0921875,0 L2.2328125,0 C1.0046875,0 0,1.0046875 0,2.2328125 L0,22.1085938 L8.859375,22.1085938 L8.859375,2.2328125 C8.859375,1.0046875 9.8640625,0 11.0921875,0 Z" id="Path" fill="#1A2B63"></path>
                <path d="M61.8199219,69.7714844 C61.8199219,70.8457031 60.9410156,71.7246094 59.8667969,71.7246094 L16.334375,71.7246094 C15.2601563,71.7246094 14.38125,70.8457031 14.38125,69.7714844 L14.38125,38.553125 C14.38125,37.4789063 15.2601563,36.6 16.334375,36.6 L59.8664062,36.6 C60.940625,36.6 61.8199219,37.4789063 61.8199219,38.553125 L61.8199219,69.7714844 L61.8199219,69.7714844 Z" id="Path" fill="#69CDFF"></path>
                <path d="M23.240625,69.7714844 L23.240625,38.553125 C23.240625,37.4789063 24.1195312,36.6 25.19375,36.6 L16.334375,36.6 C15.2601563,36.6 14.38125,37.4789063 14.38125,38.553125 L14.38125,69.7714844 C14.38125,70.8457031 15.2601563,71.7246094 16.334375,71.7246094 L25.19375,71.7246094 C24.1195312,71.7246094 23.240625,70.8457031 23.240625,69.7714844 Z" id="Path" fill="#52BBEF"></path>
                <path d="M84.8238281,110.073438 L16.334375,110.073438 C15.2601563,110.073438 14.38125,110.952344 14.38125,112.026563 L14.38125,130.701953 C14.38125,131.776172 15.2601563,132.655078 16.334375,132.655078 L84.3992187,132.655078 C82.3386719,125.26875 82.4789062,117.392188 84.8238281,110.073438 Z" id="Path" fill="#FF9518"></path>
                <path d="M23.240625,130.701953 L23.240625,112.026563 C23.240625,110.952344 24.1195312,110.073438 25.19375,110.073438 L16.334375,110.073438 C15.2601563,110.073438 14.38125,110.952344 14.38125,112.026563 L14.38125,130.701953 C14.38125,131.776172 15.2601563,132.655078 16.334375,132.655078 L25.19375,132.655078 C24.1195312,132.655078 23.240625,131.776172 23.240625,130.701953 Z" id="Path" fill="#EF8318"></path>
                <path d="M84.8238281,110.073438 L70.6445312,110.073438 L70.6445312,132.655078 L84.3992188,132.655078 C82.3386719,125.26875 82.4789062,117.392188 84.8238281,110.073438 Z" id="Path" fill="#FFD00D"></path>
                <g id="Group" transform="translate(11.328125, 33.593750)" fill="#91E0E8">
                    <path d="M113.966406,5.9359375 L66.0800781,5.9359375 C64.4621094,5.9359375 63.1503906,4.62421875 63.1503906,3.00625 C63.1503906,1.38828125 64.4621094,0.0765625 66.0800781,0.0765625 L113.966406,0.0765625 C115.584766,0.0765625 116.896094,1.38828125 116.896094,3.00625 C116.896094,4.62421875 115.584766,5.9359375 113.966406,5.9359375 Z" id="Path"></path>
                    <path d="M113.966406,17.6441406 L66.0800781,17.6441406 C64.4621094,17.6441406 63.1503906,16.3324219 63.1503906,14.7144531 C63.1503906,13.0964844 64.4621094,11.7847656 66.0800781,11.7847656 L113.966406,11.7847656 C115.584766,11.7847656 116.896094,13.0964844 116.896094,14.7144531 C116.896094,16.3324219 115.584766,17.6441406 113.966406,17.6441406 Z" id="Path"></path>
                    <path d="M113.966406,29.3523437 L66.0800781,29.3523437 C64.4621094,29.3523437 63.1503906,28.040625 63.1503906,26.4226562 C63.1503906,24.8046875 64.4621094,23.4929687 66.0800781,23.4929687 L113.966406,23.4929687 C115.584766,23.4929687 116.896094,24.8046875 116.896094,26.4226562 C116.896094,28.040625 115.584766,29.3523437 113.966406,29.3523437 Z" id="Path"></path>
                    <path d="M113.966406,41.0605469 L66.0800781,41.0605469 C64.4621094,41.0605469 63.1503906,39.7488281 63.1503906,38.1308594 C63.1503906,36.5128906 64.4621094,35.2011719 66.0800781,35.2011719 L113.966406,35.2011719 C115.584766,35.2011719 116.896094,36.5128906 116.896094,38.1308594 C116.896094,39.7488281 115.584766,41.0605469 113.966406,41.0605469 Z" id="Path"></path>
                    <path d="M105.648047,49.6671875 L3.053125,49.6671875 C1.43476563,49.6671875 0.1234375,50.9789063 0.1234375,52.596875 C0.1234375,54.2148437 1.43476563,55.5265625 3.053125,55.5265625 L89.6054687,55.5265625 C94.4441406,52.4089844 99.8992188,50.4109375 105.648047,49.6671875 Z" id="Path"></path>
                    <path d="M82.3089844,61.5867187 L3.053125,61.5867187 C1.43476563,61.5867187 0.1234375,62.8984375 0.1234375,64.5164063 C0.1234375,66.134375 1.43476563,67.4460938 3.053125,67.4460938 L77.7359375,67.4460938 C79.0492187,65.3855469 80.5726562,63.4214844 82.3089844,61.5867187 Z" id="Path"></path>
                </g>
                <path d="M13.6308594,13.5195312 C12.8578125,13.5195312 12.1035156,13.2070312 11.5566406,12.6636719 C11.0132813,12.1167969 10.7011719,11.3628906 10.7011719,10.5898438 C10.7011719,9.81992187 11.0136719,9.06640625 11.5566406,8.51953125 C12.103125,7.97265625 12.8574219,7.66015625 13.6308594,7.66015625 C14.4007812,7.66015625 15.1582031,7.97226562 15.7011719,8.51953125 C16.2480469,9.06640625 16.5605469,9.8203125 16.5605469,10.5898438 C16.5605469,11.3628906 16.2480469,12.1171875 15.7011719,12.6636719 C15.1582031,13.2070312 14.4003906,13.5195312 13.6308594,13.5195312 Z" id="Path" fill="#E26693"></path>
                <path d="M23.2382812,13.5195312 C22.4683594,13.5195312 21.7109375,13.2070312 21.1675781,12.6597656 C20.6210937,12.1167969 20.3085937,11.3628906 20.3085937,10.5898438 C20.3085937,9.81992188 20.6210937,9.06640625 21.1675781,8.51953125 C21.7144531,7.97265625 22.4683594,7.66015625 23.2382812,7.66015625 C24.0113281,7.66015625 24.7652344,7.97226562 25.3125,8.51953125 C25.8554687,9.06640625 26.1679687,9.8203125 26.1679687,10.5898438 C26.1679687,11.359375 25.8550781,12.1171875 25.3125,12.6597656 C24.7652344,13.2070312 24.0117187,13.5195312 23.2382812,13.5195312 Z" id="Path" fill="#FFAF10"></path>
                <path d="M32.8496094,13.5195312 C32.0761719,13.5195312 31.3222656,13.2070312 30.7792969,12.6636719 C30.2324219,12.1167969 29.9199219,11.3628906 29.9199219,10.5898438 C29.9199219,9.81992187 30.2324219,9.06640625 30.7792969,8.51953125 C31.3222656,7.97265625 32.0761719,7.66015625 32.8496094,7.66015625 C33.6191406,7.66015625 34.3769531,7.97226562 34.9199219,8.51953125 C35.4667969,9.06640625 35.7792969,9.8203125 35.7792969,10.5898438 C35.7792969,11.3628906 35.4667969,12.1171875 34.9199219,12.6636719 C34.3730469,13.2070312 33.61875,13.5195312 32.8496094,13.5195312 Z" id="Path" fill="#37C47A"></path>
                <path d="M160.065625,152.033984 L152.036328,160.063672 L167.832031,175.859375 C170.664062,173.343359 173.345312,170.661719 175.861719,167.829688 L160.065625,152.033984 Z" id="Path" fill="#445EA0"></path>
                <path d="M163.253125,147.191797 L156.598828,140.537891 C154.828906,143.852734 152.55,146.965625 149.758203,149.757031 C146.998047,152.517187 143.898047,154.813672 140.552734,156.608984 L147.194531,163.250391 C147.953906,164.010156 149.196875,164.010156 149.956641,163.250391 L163.253125,149.953906 C164.0125,149.194531 164.0125,147.951562 163.253125,147.191797 Z" id="Path" fill="#293D7C"></path>
                <path d="M151.751562,158.692969 L146.071875,153.013281 C144.325391,154.373047 142.479687,155.574219 140.552344,156.608594 L147.194141,163.25 C147.953516,164.009766 149.196484,164.009766 149.95625,163.25 L154.513672,158.692578 C153.753906,159.452734 152.511328,159.452734 151.751562,158.692969 Z" id="Path" fill="#1A2B63"></path>
                <path d="M150.310937,93.8441406 C165.903125,109.436328 165.903125,134.716797 150.310547,150.309375 C134.719141,165.900391 109.439062,165.900781 93.8457031,150.308984 C78.2535156,134.716797 78.2542969,109.436328 93.8457031,93.8445313 C109.439062,78.2519531 134.719141,78.2515625 150.310937,93.8441406 Z" id="Path" fill="#445EA0"></path>
                <path d="M141.873828,141.871484 C130.941797,152.803906 113.216406,152.803906 102.283203,141.870703 C91.3511719,130.939453 91.3507812,113.213672 102.283203,102.28125 C113.215234,91.3492188 130.941406,91.3496094 141.873438,102.28125 C152.80625,113.214062 152.80625,130.939063 141.873828,141.871484 Z" id="Path" fill="#69CDFF"></path>
                <path d="M141.873828,141.871484 C142.869531,140.875781 143.771875,139.822656 144.585938,138.724609 C133.626953,146.851562 118.080078,145.948828 108.142578,136.011328 C98.2058594,126.075391 97.3035156,110.528125 105.430078,99.5691406 C104.331641,100.383594 103.278906,101.285937 102.283203,102.28125 C91.3507812,113.213672 91.3511719,130.939062 102.283203,141.870703 C113.216406,152.803906 130.941797,152.803906 141.873828,141.871484 Z" id="Path" fill="#52BBEF"></path>
                <path d="M139.771484,0 L45.278125,0 L45.278125,22.1085938 L142.004297,22.1085938 L142.004297,2.2328125 C142.004297,1.0046875 140.999609,0 139.771484,0 Z" id="Path" fill="#445EA0"></path>
                <g id="Group" transform="translate(121.875000, 98.437500)" fill="#D9EAFC">
                    <circle id="Oval" cx="5.01171875" cy="4.89453125" r="4.6875"></circle>
                    <circle id="Oval" cx="14.859375" cy="9.765625" r="3.3203125"></circle>
                </g>
            </g>
        </g>
    </g>
</svg>