<?xml version="1.0" encoding="UTF-8"?>
<svg width="191px" height="200px" viewBox="0 0 191 200" version="1.1" xmlns="http://www.w3.org/2000/svg" xmlns:xlink="http://www.w3.org/1999/xlink">
    <!-- Generator: Sketch 59 (86127) - https://sketch.com -->
    <title>speed</title>
    <desc>Created with Sketch.</desc>
    <g id="Page-1" stroke="none" stroke-width="1" fill="none" fill-rule="evenodd">
        <g id="Icons" transform="translate(-542.000000, -262.000000)" fill-rule="nonzero">
            <g id="speed" transform="translate(542.000000, 262.000000)">
                <circle id="Oval" fill="#0F56CD" cx="95.3851744" cy="103.950374" r="95.3851744"></circle>
                <path d="M80.1219892,147.525825 C85.0469788,147.525825 89.5841985,150.002725 92.259266,154.152175 C92.3250623,154.254568 92.4356312,154.320364 92.5571013,154.329319 C92.5668345,154.330098 92.576957,154.330487 92.5866902,154.330487 C92.6980378,154.330487 92.8043241,154.282989 92.8782963,154.198894 C96.8883669,149.662843 102.653525,147.061358 108.695494,147.061358 C110.754257,147.061358 112.74294,147.362697 114.625337,147.915153 L107.677403,130.105378 L83.0929454,130.105378 L76.0690926,148.109427 C77.3558191,147.731779 78.7149605,147.525825 80.1219892,147.525825 Z" id="Path" fill="#D9EAFC"></path>
                <g id="Group" transform="translate(67.742940, 130.035299)" fill="#AEC1ED">
                    <path d="M18.5549471,0.0696895764 L15.3500052,0.0696895764 L8.32615241,18.0737386 C9.41938331,17.7533223 10.56712,17.5652772 11.7498962,17.5131074 L18.5549471,0.0696895764 Z" id="Path"></path>
                    <path d="M4.90007267,35.8928571 C4.91564576,35.9956395 4.97131956,36.0879101 5.05502492,36.1494238 C5.1219892,36.1988684 5.20296927,36.2249533 5.28511732,36.2249533 C5.30536233,36.2249533 5.32599668,36.223396 5.34624169,36.2202814 C6.73613995,35.9991435 8.13187811,35.8870172 9.49452346,35.8870172 C16.15163,35.8870172 22.5019466,38.3884448 27.376713,42.9303364 C27.4514639,43.000026 27.546849,43.0346761 27.6422342,43.0346761 C27.7376194,43.0346761 27.8330046,43.000026 27.9077554,42.9303364 C32.7821325,38.3884448 39.1328385,35.8870172 45.789945,35.8870172 C47.152201,35.8870172 48.5483285,35.9991435 49.9382267,36.2202814 C49.9588611,36.223396 49.9791061,36.2249533 49.9993511,36.2249533 C50.0814992,36.2249533 50.1624792,36.1988684 50.2294435,36.1494238 C50.3131489,36.0879101 50.3688227,35.9956395 50.3843958,35.8928571 C51.1038725,31.0504049 52.9263133,26.46413 55.6605586,22.4614566 C51.8147841,18.8516144 46.6441289,16.6363424 40.952554,16.6363424 C34.537609,16.6363424 28.7825737,19.4496211 24.84375,23.9054713 C22.2056686,19.8132527 17.6108285,17.1008098 12.3794383,17.1008098 C7.3613995,17.1008098 2.92929817,19.5967868 0.247222799,23.4125831 C2.6337988,27.1847747 4.23704838,31.4292203 4.90007267,35.8928571 Z" id="Path"></path>
                </g>
                <path d="M73.0284468,165.870925 C70.6854755,150.099278 57.0913362,137.998598 40.6679558,137.998598 C29.2665075,137.998598 19.2312085,143.832278 13.3741694,152.675067 C22.3419331,167.736971 35.3419591,180.112905 50.8835133,188.326152 C52.5455513,176.815303 61.5697674,167.691419 73.0284468,165.870925 Z" id="Path" fill="#90EBF8"></path>
                <path d="M43.93519,142.021517 C52.2792515,142.021517 59.9279745,144.981183 65.9029797,149.900332 C59.9022789,142.633539 50.8286181,137.998598 40.6679558,137.998598 C29.2665075,137.998598 19.2312085,143.832278 13.3741694,152.675067 C14.1477627,153.974252 14.9536701,155.252414 15.786441,156.510719 C22.0620069,147.740734 32.3281769,142.021517 43.93519,142.021517 Z" id="Path" fill="#38D9F0"></path>
                <path d="M150.102393,137.998598 C133.679013,137.998598 120.084873,150.099668 117.741902,165.870925 C129.200581,167.691419 138.224798,176.815303 139.886836,188.326152 C155.428,180.112905 168.428416,167.736581 177.396179,152.675067 C171.53914,143.832278 161.503841,137.998598 150.102393,137.998598 Z" id="Path" fill-opacity="0.531468531" fill="#AEE8F1"></path>
                <g id="Group" transform="translate(50.612542, 137.821844)">
                    <path d="M101.469191,0.237489618 C100.814343,0.198556894 100.154822,0.176754568 99.4898515,0.176754568 C83.0664711,0.176754568 69.4723318,12.2778239 67.1293605,28.0490812 C68.3502907,28.2429662 69.5416321,28.5248391 70.7010486,28.8787375 C73.956603,13.97568 86.1986088,2.43563123 101.469191,0.237489618 Z" id="Path" fill="#6BD9E9"></path>
                    <path d="M62.9199543,27.7111451 C55.9058347,27.7111451 49.5290438,30.427092 44.7726329,34.858804 C40.016222,30.4267027 33.6394311,27.7111451 26.6253115,27.7111451 C13.2188279,27.7111451 2.12884136,37.6179662 0.269803779,50.5093698 C13.5567639,57.5316653 28.698479,61.5137043 44.7726329,61.5137043 C60.8467868,61.5137043 75.9885019,57.5316653 89.275462,50.5093698 C87.4164244,37.6179662 76.3264379,27.7111451 62.9199543,27.7111451 Z" id="Path" fill="#9FE7F1"></path>
                </g>
                <path d="M82.8044539,168.843828 C86.4777564,168.843828 89.9832589,169.558243 93.1917047,170.853535 C88.7444196,167.51739 83.2249273,165.532989 77.2374637,165.532989 C63.8309801,165.532989 52.7409936,175.43981 50.881956,188.331214 C52.4482195,189.158923 54.0409572,189.943028 55.6570546,190.684308 C58.3850706,178.196636 69.4980274,168.843828 82.8044539,168.843828 Z" id="Path" fill="#38D9F0"></path>
                <g id="Group" transform="translate(84.873339, 130.035299)" fill="#AEC1ED">
                    <path d="M19.2825997,0.0696895764 L13.3963611,0.0696895764 L14.1473733,6.01121262 C14.3494342,7.61134759 15.812526,8.74312189 17.410325,8.5418397 C19.0100706,8.33938953 20.1434022,6.87863372 19.940952,5.27888808 L19.2825997,0.0696895764 Z" id="Path"></path>
                    <path d="M1.74107143,0.0696895764 L0.196999585,12.2867784 C-0.00506125415,13.8865241 1.12788102,15.3476692 2.72801599,15.5497301 C2.85221138,15.5653032 2.97562811,15.5730897 3.09787687,15.5730897 C4.54734219,15.5727004 5.80486919,14.4942639 5.99135694,13.0187137 L7.62808866,0.0693002492 L1.74107143,0.0693002492 L1.74107143,0.0696895764 L1.74107143,0.0696895764 Z" id="Path"></path>
                </g>
                <path d="M65.4490241,76.1979599 C65.4490241,73.0229963 65.5681582,69.8565978 65.7908534,66.7131696 C56.42364,71.9881645 49.9701516,83.7396179 49.9701516,97.3446584 C49.9701516,104.530082 51.7567743,111.382631 55.1365241,117.161415 C55.4538258,117.704137 56.0280835,118.014431 56.6245328,118.014431 C56.8425561,118.014431 57.0633046,117.973162 57.275488,117.886342 C61.7173225,116.07052 66.4640002,115.137692 71.3862645,115.098759 C67.4996107,103.135512 65.4490241,89.7753582 65.4490241,76.1979599 Z" id="Path" fill="#FE3745"></path>
                <path d="M54.3847332,97.3446584 C54.3847332,86.1075062 58.7899709,76.1391715 65.6004724,70.0360777 C65.6526422,68.9261057 65.712988,67.8180804 65.7912427,66.7131696 C56.4240293,71.9881645 49.9705409,83.7396179 49.9705409,97.3446584 C49.9705409,104.530082 51.7571636,111.382631 55.1369134,117.161415 C55.4542151,117.704137 56.0284728,118.014431 56.6249221,118.014431 C56.8429454,118.014431 57.0636939,117.973162 57.2758773,117.886342 C58.0078125,117.58695 58.7514275,117.32065 59.4993252,117.069534 C56.1538362,111.309827 54.3847332,104.492317 54.3847332,97.3446584 Z" id="Path" fill="#B7092B"></path>
                <g id="Group" transform="translate(80.201412, 66.574958)" fill="#FE3745">
                    <path d="M44.7776941,0.138211171 C45.0003893,3.28202865 45.1195235,6.44842712 45.1195235,9.62300145 C45.1195235,23.2000104 43.0689369,36.560164 39.1818937,48.5238009 C44.1045473,48.5627336 48.8508358,49.4955617 53.2926703,51.3113839 C53.5048536,51.3982039 53.7259915,51.4394726 53.9436254,51.4394726 C54.5404641,51.4394726 55.1143324,51.1287895 55.4316341,50.5864566 C58.8117733,44.8076723 60.5980066,37.9551235 60.5980066,30.7697 C60.598396,17.1646595 54.1449076,5.41320598 44.7776941,0.138211171 Z" id="Path"></path>
                    <path d="M0.275643688,52.9971709 L0.275643688,61.9727211 C0.275643688,63.0433711 1.15162998,63.9193574 2.2222799,63.9193574 L28.1448557,63.9193574 C29.2155056,63.9193574 30.0914919,63.0433711 30.0914919,61.9727211 L30.0914919,52.9971709 L0.275643688,52.9971709 Z" id="Path"></path>
                </g>
                <path d="M87.0983441,128.54768 L87.0983441,119.572129 L80.4770556,119.572129 L80.4770556,128.54768 C80.4770556,129.61833 81.3530419,130.494316 82.4236919,130.494316 L89.0449803,130.494316 C87.9743304,130.494316 87.0983441,129.61833 87.0983441,128.54768 Z" id="Path" fill="#B7092B"></path>
                <path d="M119.077294,35.1632579 L71.6926651,35.1632579 C67.350109,47.6812967 65.0596968,61.7710496 65.0596968,76.1979599 C65.0596968,91.195624 67.5471086,105.9375 72.2525176,118.829293 C72.5009084,119.509058 73.1471917,119.961457 73.870951,119.961457 L116.899009,119.961457 C117.622768,119.961457 118.26944,119.509058 118.517442,118.829293 C123.222851,105.9375 125.710263,91.195624 125.710263,76.1979599 C125.710263,61.7710496 123.42024,47.681686 119.077294,35.1632579 Z" id="Path" fill="#EEF6FF"></path>
                <path d="M77.7704527,118.829293 C73.0646543,105.9375 70.5776319,91.195624 70.5776319,76.1979599 C70.5776319,61.7710496 72.868044,47.6812967 77.2106001,35.1632579 L71.6930544,35.1632579 C67.3504983,47.6812967 65.0600862,61.7710496 65.0600862,76.1979599 C65.0600862,91.195624 67.5474979,105.9375 72.252907,118.829293 C72.5012978,119.509058 73.147581,119.961457 73.8713403,119.961457 L79.388886,119.961457 C78.6651267,119.961457 78.0188434,119.509058 77.7704527,118.829293 Z" id="Path" fill="#D9EAFC"></path>
                <path d="M84.164374,35.1632579 L84.164374,41.6237542 C84.164374,42.6944041 85.0403603,43.5703904 86.1110102,43.5703904 L104.659339,43.5703904 C105.729989,43.5703904 106.605975,42.6944041 106.605975,41.6237542 L106.605975,35.1632579 L84.164374,35.1632579 Z" id="Path" fill="#EA2A3D"></path>
                <path d="M88.5785662,41.6237542 L88.5785662,35.1632579 L84.164374,35.1632579 L84.164374,41.6237542 C84.164374,42.6944041 85.0403603,43.5703904 86.1110102,43.5703904 L90.5252025,43.5703904 C89.4545525,43.5703904 88.5785662,42.6944041 88.5785662,41.6237542 Z" id="Path" fill="#B7092B"></path>
                <path d="M95.3851744,0 C95.0009084,0 94.6170318,0.128088663 94.300898,0.383876661 C85.6041061,7.42641715 78.2785247,18.1095567 73.1172135,31.2785507 C72.568262,32.6797394 72.0524034,34.1085704 71.5575685,35.5525851 L119.212391,35.5525851 C118.717556,34.1085704 118.201697,32.6797394 117.652746,31.2785507 C112.491435,18.1095567 105.166243,7.42641715 96.4690615,0.383876661 C96.1533171,0.128088663 95.7694404,0 95.3851744,0 Z" id="Path" fill="#FE3745"></path>
                <path d="M98.1439473,1.80180648 C97.5914919,1.3147581 97.033586,0.840946844 96.4694508,0.383876661 C96.1533171,0.128088663 95.7694404,0 95.3851744,0 C95.0009084,0 94.6170318,0.128088663 94.300898,0.383876661 C85.6041061,7.42641715 78.2785247,18.1095567 73.1172135,31.2785507 C72.568262,32.6797394 72.0524034,34.1085704 71.5575685,35.5525851 L77.0751142,35.5525851 C77.5699491,34.1085704 78.0858077,32.6797394 78.6347591,31.2785507 C83.4616383,18.9637407 90.1806478,8.82488061 98.1439473,1.80180648 Z" id="Path" fill="#B7092B"></path>
                <circle id="Oval" fill="#445EA0" cx="95.3851744" cy="70.440978" r="19.8634759"></circle>
                <circle id="Oval" fill="#69CDFF" cx="95.3851744" cy="70.440978" r="12.74307"></circle>
                <path d="M87.313642,70.4417566 C87.313642,76.6815044 91.7990812,81.8704578 97.7211379,82.9679713 C96.9635071,83.1081292 96.1836846,83.1852159 95.3851744,83.1852159 C88.3469165,83.1852159 82.6421044,77.4796252 82.6421044,70.4417566 C82.6421044,63.4038881 88.3473059,57.6986867 95.3851744,57.6986867 C96.1832953,57.6986867 96.9635071,57.7757735 97.7211379,57.9159313 C91.7990812,59.0134448 87.313642,64.2020089 87.313642,70.4417566 Z" id="Path" fill="#52BBEF"></path>
                <path d="M38.5963455,69.5871833 C38.1497872,69.5871833 37.7472228,69.3181582 37.5763081,68.9054713 C35.4026941,63.6577294 33.8002232,62.0556478 28.5524813,59.8820338 C28.1397944,59.7111192 27.8711586,59.3085548 27.8711586,58.8619965 C27.8711586,58.4154381 28.1401838,58.0128738 28.5524813,57.8419591 C33.8006125,55.6675664 35.4026941,54.0650955 37.5763081,48.8177429 C37.7472228,48.4050561 38.1497872,48.1360309 38.5963455,48.1360309 C39.0429039,48.1360309 39.4454682,48.4050561 39.6163829,48.8177429 C41.7903862,54.0650955 43.3928571,55.6675664 48.640599,57.8419591 C49.0532859,58.0128738 49.322311,58.4154381 49.322311,58.8619965 C49.322311,59.3085548 49.0532859,59.7115085 48.640599,59.8820338 C43.3928571,62.0552585 41.7903862,63.6577294 39.6163829,68.9054713 C39.4454682,69.3181582 39.0429039,69.5871833 38.5963455,69.5871833 L38.5963455,69.5871833 Z" id="Path" fill="#FFD00D"></path>
                <path d="M39.7834043,66.6983752 C37.6097903,61.4506333 36.0073194,59.8485517 30.7595775,57.6749377 C30.5002855,57.5678727 30.2982247,57.3685372 30.1833731,57.1248183 C29.6795837,57.3607506 29.1423121,57.5974616 28.5524813,57.8419591 C28.1397944,58.0128738 27.8711586,58.4154381 27.8711586,58.8619965 C27.8711586,59.3085548 28.1401838,59.7115085 28.5524813,59.8820338 C33.8002232,62.0556478 35.4026941,63.6577294 37.5763081,68.9054713 C37.7472228,69.3181582 38.1497872,69.5871833 38.5963455,69.5871833 C39.0429039,69.5871833 39.4454682,69.3181582 39.6163829,68.9054713 C39.8604911,68.3156406 40.0975914,67.778369 40.3331343,67.2749689 C40.0898048,67.1601173 39.8908586,66.9576672 39.7834043,66.6983752 Z" id="Path" fill="#FFAF10"></path>
                <path d="M155.913491,78.412064 C155.52105,78.412064 155.167151,78.1757423 155.016871,77.8128893 C153.106442,73.2001402 151.697856,71.7919435 147.085107,69.8815147 C146.722643,69.7316238 146.485932,69.377336 146.485932,68.9848941 C146.485932,68.5920629 146.722254,68.2385538 147.085107,68.0882735 C151.698245,66.177066 153.106442,64.7684801 155.016871,60.1561202 C155.167151,59.7932672 155.52105,59.5569456 155.913491,59.5569456 C156.305933,59.5569456 156.659832,59.7932672 156.810112,60.1561202 C158.72093,64.7688694 160.129516,66.177066 164.742655,68.0882735 C165.105118,68.2385538 165.34144,68.5920629 165.34144,68.9848941 C165.34144,69.377336 165.105118,69.7312344 164.742265,69.8815147 C160.129516,71.7919435 158.72093,73.2001402 156.810112,77.8128893 C156.660221,78.175353 156.306323,78.412064 155.913491,78.412064 L155.913491,78.412064 Z" id="Path" fill="#FFFFFF"></path>
                <path d="M156.956888,75.8728717 C155.04607,71.2601225 153.637874,69.8519259 149.024735,67.9411078 C148.796979,67.8468906 148.619056,67.6720826 148.518221,67.4575633 C148.075555,67.6646854 147.602912,67.8729755 147.084718,68.0878841 C146.722254,68.2381645 146.485543,68.5916736 146.485543,68.9845048 C146.485543,69.3769466 146.721865,69.7308451 147.084718,69.8811254 C151.697856,71.7915542 153.106053,73.1997508 155.016482,77.8125 C155.166762,78.175353 155.52066,78.4116746 155.913102,78.4116746 C156.305544,78.4116746 156.659442,78.175353 156.809723,77.8125 C157.024242,77.2943054 157.232532,76.8216622 157.440044,76.3789971 C157.226303,76.2785507 157.051495,76.1006281 156.956888,75.8728717 Z" id="Path" fill="#D9EAFC"></path>
                <path d="M145.790983,37.4030575 C145.333524,37.4030575 144.921226,37.1274138 144.746029,36.7049938 C142.519856,31.3299419 140.878841,29.6889275 135.503789,27.4631437 C135.081369,27.2883358 134.806115,26.8756489 134.806115,26.4185787 C134.806115,25.9607299 135.081759,25.5488216 135.503789,25.3736244 C140.879231,23.1466725 142.520245,21.5056582 144.746029,16.131385 C144.921226,15.7085756 145.333524,15.4329319 145.790983,15.4329319 C146.248443,15.4329319 146.66074,15.7085756 146.835938,16.131385 C149.0625,21.5060475 150.703514,23.1470619 156.078566,25.3736244 C156.500986,25.5488216 156.776241,25.9607299 156.776241,26.4185787 C156.776241,26.8756489 156.500597,27.2883358 156.078177,27.4631437 C150.703125,29.6889275 149.0625,31.3303312 146.835548,36.7049938 C146.66074,37.1274138 146.248443,37.4030575 145.790983,37.4030575 L145.790983,37.4030575 Z" id="Path" fill="#FF9518"></path>
                <path d="M147.006852,34.4445598 C144.78029,29.0698972 143.139275,27.4288829 137.764223,25.2027097 C137.498702,25.0929194 137.291969,24.888912 137.174003,24.6393532 C136.658534,24.8811254 136.107636,25.1236763 135.5034,25.3736244 C135.08098,25.5488216 134.805726,25.9607299 134.805726,26.4185787 C134.805726,26.8756489 135.081369,27.2883358 135.5034,27.4631437 C140.878452,29.6893169 142.519856,31.3303312 144.74564,36.7049938 C144.920837,37.1274138 145.333134,37.4030575 145.790594,37.4030575 C146.248053,37.4030575 146.660351,37.1274138 146.835548,36.7049938 C147.085886,36.1007579 147.328436,35.5502492 147.569819,35.0347799 C147.320261,34.9172031 147.116642,34.710081 147.006852,34.4445598 Z" id="Path" fill="#EF8318"></path>
            </g>
        </g>
    </g>
</svg>