<?xml version="1.0" encoding="UTF-8"?>
<svg width="130px" height="130px" viewBox="0 0 130 130" version="1.1" xmlns="http://www.w3.org/2000/svg" xmlns:xlink="http://www.w3.org/1999/xlink">
    <!-- Generator: Sketch 59 (86127) - https://sketch.com -->
    <title>startup</title>
    <desc>Created with Sketch.</desc>
    <g id="Page-1" stroke="none" stroke-width="1" fill="none" fill-rule="evenodd">
        <g id="Icons" transform="translate(-405.000000, -293.000000)" fill="#0FB5CD" fill-rule="nonzero">
            <g id="startup" transform="translate(405.000000, 293.000000)">
                <path d="M68.26875,61.7332167 C67.29125,60.7555944 65.70875,60.7555944 64.73125,61.7332167 C63.75625,62.7083385 63.75625,64.2910364 64.73125,65.2686586 C65.70875,66.2437805 67.29125,66.2437805 68.26875,65.2686586 C69.24375,64.2910364 69.24375,62.7083385 68.26875,61.7332167 Z" id="Path"></path>
                <path d="M100.335691,29.6642288 C95.4499461,24.7787154 87.54074,24.7784654 82.6547448,29.6642288 C77.7817517,34.5372402 77.7815017,42.4684794 82.655495,47.3454915 C87.5302384,52.2172527 95.4614479,52.219253 100.335691,47.3449914 C105.220936,42.4597281 105.221936,34.5502422 100.335691,29.6642288 Z M96.7996519,43.8086888 C93.8759561,46.7326457 89.1167303,46.7326457 86.1915342,43.8091889 C83.2673383,40.8832317 83.2670882,36.1239881 86.1910341,33.2002813 C89.1222311,30.2690733 93.8679549,30.2685732 96.7996519,33.2002813 C99.7308489,36.1312392 99.731349,40.8772308 96.7996519,43.8086888 Z" id="Shape"></path>
                <path d="M129.260803,0.739349196 C128.765058,0.243857932 128.088584,-0.0247119636 127.385354,0.00179164448 C126.814642,0.022237285 113.225844,0.568464027 97.0725024,6.27784604 C84.1286262,10.8480777 73.3396227,17.39144 65.0051092,25.7261937 C63.1374856,27.5938146 61.3200927,29.5742652 59.581201,31.6317024 C51.3403338,26.7807849 44.7366347,28.3018395 40.5619317,30.5359675 C30.9496901,35.6801916 25,49.6478455 25,59.6384437 C25,60.6592112 25.6158943,61.5797699 26.5589193,61.9702564 C26.8711575,62.0997454 27.1992978,62.1625968 27.5244092,62.1625968 C28.1814473,62.1625968 28.8268742,61.9058905 29.3097454,61.4232724 C34.3790095,56.3540156 40.6315984,56.6710492 42.6741461,56.9396191 L43.5581059,57.8235776 C41.818457,61.9631887 40.4170451,66.0795777 39.3892084,70.083137 C39.0181574,71.5320009 39.1433556,73.0651716 39.6948838,74.467591 C37.2646256,75.5875578 34.9199363,77.2320436 32.8783983,79.2735787 C26.3809662,85.7712537 25.0615894,101.606276 25.0085821,102.277196 C24.9505265,103.013491 25.2175823,103.738428 25.7398304,104.260676 C26.2151291,104.735721 26.8580318,105 27.5244092,105 C27.5905422,105 27.6569275,104.997476 27.7233128,104.992175 C28.3942337,104.93942 44.229784,103.620045 50.7272161,97.1226228 C52.7679969,95.081845 54.4122326,92.7374116 55.532201,90.3076617 C57.0169101,90.8914984 58.5450346,90.9634367 59.9191856,90.6113174 C63.9209838,89.5837346 68.036874,88.1828296 72.176996,86.4429309 L73.0609557,87.3268893 C73.3292736,89.3696864 73.6463077,95.6222662 68.577296,100.691018 C67.8556395,101.412926 67.6395717,102.498564 68.0303112,103.441588 C68.4207982,104.384864 69.3411058,105 70.3621273,105 C80.35274,105 94.3201618,99.0500662 99.4643934,89.4378386 C101.698525,85.2636465 103.219582,78.659957 98.368657,70.4188494 C100.425088,68.6807175 102.405793,66.8633273 104.274174,64.9949491 C112.60894,56.6601954 119.152059,45.8712076 123.722298,32.9283599 C129.431941,16.7742845 129.977916,3.1852536 129.998361,2.61479499 C130.023603,1.91434249 129.756295,1.23509287 129.260803,0.739349196 Z M30.6435098,54.2092427 C32.2115161,46.6208811 36.7658522,38.2939522 42.9449882,34.9868068 C47.0742563,32.7771631 51.5877012,32.9937354 56.3866281,35.6206216 C52.2982513,40.9975727 48.7439861,46.7905041 45.7813832,52.9077893 C45.7437733,52.8845671 45.289425,52.3133512 44.445347,52.1230301 C44.0982754,52.0445289 37.4196089,50.6080334 30.6435098,54.2092427 Z M47.1575535,93.552713 C43.6868379,97.0234236 35.54517,98.8539395 30.3991715,99.6013412 C31.1468267,94.4550978 32.9775977,86.3136942 36.4480609,82.843236 C38.3916617,80.8996381 40.6452289,79.4260375 42.9104072,78.5960959 L51.4046998,87.0903761 C50.574757,89.3555512 49.1014067,91.6091151 47.1575535,93.552713 Z M58.6651845,85.7210231 C57.9346935,85.9080628 57.0885961,85.6334349 56.4595763,85.0054256 C53.1940746,81.7399287 51.9165988,80.4624548 51.5157627,80.0618717 C50.7807282,79.3268383 48.9782278,77.5243405 44.9968753,73.5427413 C44.3673505,72.9119555 44.0927223,72.0661117 44.2792575,71.3368839 C45.0877449,68.1882553 46.1451142,64.957844 47.4309197,61.6963858 L68.3044346,82.5698703 C65.0424667,83.8559263 61.8125556,84.9130416 58.6651845,85.7210231 Z M95.0140525,87.0557952 C91.7069023,93.2346697 83.3802137,97.7892517 75.7920934,99.3570032 C78.2114978,94.8041882 78.7448521,89.0084801 77.8608924,85.4941017 C77.6556784,84.6777906 77.1230813,84.2673632 77.0932963,84.2191519 C83.2100855,81.2565534 89.002773,77.7022933 94.3802368,73.6139225 C97.0071268,78.4133473 97.223447,82.9272903 95.0140525,87.0557952 Z M100.705017,61.4252917 C98.4304988,63.6995537 95.9813094,65.896829 93.4253482,67.9557807 C87.2810457,72.9031209 80.5183247,77.09372 73.3032748,80.4296408 L49.5711523,56.6980577 C52.9070779,49.4825135 57.0976831,42.7198024 62.0445257,36.576266 C64.1052473,34.0185416 66.3022734,31.5691034 68.5757815,29.2958511 C76.0535961,21.8177949 85.7044573,15.8663466 97.2681246,11.5823539 L118.41854,32.732738 C114.135045,44.296136 108.183588,53.9469832 100.705017,61.4252917 Z M120.23467,27.4090466 L102.591824,9.7662257 C112.204065,6.78065735 120.566345,5.66270992 124.74029,5.26086474 C124.338192,9.43556164 123.219991,17.7978286 120.23467,27.4090466 Z" id="Shape"></path>
                <path d="M61.2718997,104.72755 C60.3008093,103.757152 58.7269818,103.757649 57.7566371,104.728047 L50.7276032,111.758146 C49.7572585,112.728792 49.7575071,114.302302 50.7281003,115.272451 C51.6991907,116.242599 53.2730182,116.242599 54.2433629,115.271954 L61.2723968,108.241854 C62.2427415,107.271208 62.2424929,105.697698 61.2718997,104.72755 Z" id="Path"></path>
                <path d="M25.2725747,68.7281973 C24.302426,67.7573504 22.7291647,67.7573504 21.7582704,68.7277002 L14.7281708,75.7567704 C13.757525,76.7271201 13.7572765,78.3009558 14.7274253,79.2718026 C15.6973255,80.2421524 17.2705868,80.2431466 18.2417296,79.2722997 L25.2718292,72.2432295 C26.242475,71.2728798 26.2427235,69.6990441 25.2725747,68.7281973 Z" id="Path"></path>
                <path d="M43.2656762,108.734476 C42.2870376,107.755216 40.6991005,107.755216 39.7197096,108.734226 L22.7345745,125.718934 C21.7551836,126.698194 21.7551836,128.286075 22.7343238,129.265335 C23.7129624,130.244596 25.3008995,130.245097 26.2802904,129.265586 L43.2654255,112.280878 C44.2448164,111.301617 44.2448164,109.713737 43.2656762,108.734476 Z" id="Path"></path>
                <path d="M22.2656762,108.734476 C21.2867868,107.755216 19.6988497,107.755216 18.7197096,108.734226 L1.7345745,125.718934 C0.755183627,126.698194 0.755183627,128.286075 1.73432376,129.265335 C2.71296241,130.244596 4.30089953,130.245097 5.2802904,129.265586 L22.2654255,112.280878 C23.2448164,111.301617 23.2448164,109.713737 22.2656762,108.734476 Z" id="Path"></path>
                <path d="M21.2653418,86.7341336 C20.2863408,85.755247 18.6982227,85.755247 17.7189709,86.7343844 L0.734407462,103.719471 C-0.244844278,104.698859 -0.244844278,106.28629 0.734658231,107.265678 C1.71390997,108.244816 3.30177733,108.244816 4.28102907,107.265428 L21.2655925,90.2803409 C22.2448443,89.3009528 22.2448443,87.7135217 21.2653418,86.7341336 Z" id="Path"></path>
                <path d="M79.2279331,50.7720669 C78.198247,49.7426444 76.5295543,49.7426444 75.4996046,50.7720669 L71.7720669,54.4996046 C70.7426444,55.5290271 70.7426444,57.198247 71.7720669,58.2279331 C72.801753,59.2573556 74.4707093,59.2573556 75.5003954,58.2279331 L79.2279331,54.5003954 C80.2573556,53.4709729 80.2573556,51.801753 79.2279331,50.7720669 Z" id="Path"></path>
            </g>
        </g>
    </g>
</svg>