<?xml version="1.0" encoding="utf-8"?>
<!-- Generator: Adobe Illustrator 23.0.1, SVG Export Plug-In . SVG Version: 6.00 Build 0)  -->
<svg version="1.1" id="Layer_1" xmlns="http://www.w3.org/2000/svg" xmlns:xlink="http://www.w3.org/1999/xlink" x="0px" y="0px"
	 viewBox="0 0 600 600" style="enable-background:new 0 0 600 600;" xml:space="preserve">
<style type="text/css">
	.st0{opacity:0.1;}
	.st1{fill:#0FB5CD;}
	.st2{display:none;}
	.st3{display:inline;}
</style>
<g class="st0">
	<g>
		<path class="st1" d="M548.1,355.4L212.9,548.9c-16.4,9.4-37.3,3.8-46.7-12.5l0,0c-9.4-16.2-3.9-37,12.2-46.5l51.8-30.7
			c16.1-9.5,21.6-30.3,12.2-46.5l-1.6-2.8c-9.4-16.2-30.1-21.9-46.4-12.7l-52.4,29.5c-16.3,9.2-37,3.5-46.4-12.7l-5.9-10.2
			c-9.4-16.2-3.9-37,12.2-46.5l51.8-30.7c16.1-9.5,21.6-30.3,12.2-46.5l-1.6-2.8c-9.4-16.2-30.1-21.9-46.4-12.7l-52.4,29.5
			c-16.3,9.2-37,3.5-46.4-12.7l0,0c-9.4-16.4-3.8-37.3,12.5-46.7L366.6,41.2c16.4-9.4,37.3-3.8,46.7,12.5l0,0
			c9.4,16.2,3.9,37-12.2,46.5l-51.8,30.7c-16.1,9.5-21.6,30.3-12.2,46.5l1.6,2.8c9.4,16.2,30.1,21.9,46.4,12.7l52.4-29.5
			c16.3-9.2,37-3.5,46.4,12.7l5.9,10.2c9.4,16.2,3.9,37-12.2,46.5l-51.8,30.7c-16.1,9.5-21.6,30.3-12.2,46.5l1.6,2.8
			c9.4,16.2,30.1,21.9,46.4,12.7l52.4-29.5c16.3-9.2,37-3.5,46.4,12.7l0,0C570,325.1,564.4,346,548.1,355.4z"/>
	</g>
</g>
<g class="st0">
	<g>
		<path class="st1" d="M102.9,118.7c-9.9,5.7-22.6,2.3-28.3-7.6s-2.3-22.6,7.6-28.3s22.6-2.3,28.3,7.6S112.7,113,102.9,118.7z
			 M87.1,91.4c-5.2,3-6.9,9.6-4,14.8c3,5.2,9.6,6.9,14.8,4s6.9-9.6,4-14.8C98.9,90.2,92.3,88.5,87.1,91.4z"/>
	</g>
</g>
<g class="st0">
	<g>
		<path class="st1" d="M585.2,253.4c-7.5,4.3-17.1,1.7-21.4-5.7c-4.3-7.5-1.7-17.1,5.7-21.4c7.5-4.3,17.1-1.7,21.4,5.7
			C595.3,239.4,592.7,249.1,585.2,253.4z M574.4,234.8c-2.8,1.6-3.7,5.2-2.1,7.9c1.6,2.8,5.2,3.7,7.9,2.1c2.8-1.6,3.7-5.2,2.1-7.9
			C580.8,234.1,577.2,233.2,574.4,234.8z"/>
	</g>
</g>
<g class="st0">
	<path class="st1" d="M47.6,488.2l-7.8-0.3l0.3-7.8c0.1-2.7-2-5-4.7-5.1c-2.7-0.1-5,2-5.1,4.7l-0.3,7.8l-7.8-0.3
		c-2.7-0.1-5,2-5.1,4.7c-0.1,2.7,2,5,4.7,5.1l7.8,0.3l-0.3,7.8c-0.1,2.7,2,5,4.7,5.1c1,0,1.9-0.2,2.7-0.7c1.4-0.8,2.4-2.3,2.5-4.1
		l0.3-7.8l7.8,0.3c1,0,1.9-0.2,2.7-0.7c1.4-0.8,2.4-2.3,2.5-4.1C52.5,490.6,50.3,488.3,47.6,488.2z"/>
</g>
<g class="st0">
	<path class="st1" d="M464.2,464.5l-7.8-0.3l0.3-7.8c0.1-2.7-2-5-4.7-5.1c-2.7-0.1-5,2-5.1,4.7l-0.3,7.8l-7.8-0.3
		c-2.7-0.1-5,2-5.1,4.7c-0.1,2.7,2,5,4.7,5.1l7.8,0.3l-0.3,7.8c-0.1,2.7,2,5,4.7,5.1c1,0,1.9-0.2,2.7-0.7c1.4-0.8,2.4-2.3,2.5-4.1
		l0.3-7.8l7.8,0.3c1,0,1.9-0.2,2.7-0.7c1.4-0.8,2.4-2.3,2.5-4.1C469.1,467,467,464.6,464.2,464.5z"/>
</g>
<g class="st0">
	<path class="st1" d="M514.9,68.4l-7.8-0.3l0.3-7.8c0.1-2.7-2-5-4.7-5.1c-2.7-0.1-5,2-5.1,4.7l-0.3,7.8l-7.8-0.3
		c-2.7-0.1-5,2-5.1,4.7c-0.1,2.7,2,5,4.7,5.1l7.8,0.3l-0.3,7.8c-0.1,2.7,2,5,4.7,5.1c1,0,1.9-0.2,2.7-0.7c1.4-0.8,2.4-2.3,2.5-4.1
		l0.3-7.8l7.8,0.3c1,0,1.9-0.2,2.7-0.7c1.4-0.8,2.4-2.3,2.5-4.1C519.7,70.8,517.6,68.5,514.9,68.4z"/>
</g>
<g>
	<g>
		<path class="st1" d="M302,415c-62.9,0-114-51.2-114-114c0-62.9,51.2-114,114-114s114,51.2,114,114C416,363.9,364.9,415,302,415z
			 M302,204c-53.5,0-97,43.5-97,97c0,53.5,43.5,97,97,97s97-43.5,97-97C399,247.5,355.5,204,302,204z"/>
	</g>
	<g>
		<circle class="st1" cx="302" cy="301" r="14.9"/>
	</g>
	<g>
		<path class="st1" d="M320.7,173.3h-37.5c-4.7,0-8.5-3.8-8.5-8.5s3.8-8.5,8.5-8.5h37.5c4.7,0,8.5,3.8,8.5,8.5
			S325.4,173.3,320.7,173.3z"/>
	</g>
	<g>
		<path class="st1" d="M391.8,210.1c-1.9,0-3.8-0.6-5.4-2l-7.1-5.9c-3.6-3-4.1-8.4-1.1-12c3-3.6,8.4-4.1,12-1.1l7.1,5.9
			c3.6,3,4.1,8.4,1.1,12C396.7,209,394.2,210.1,391.8,210.1z"/>
	</g>
	<g>
		<path class="st1" d="M201.4,275.9h-43c-2.4,0-4.3-1.9-4.3-4.3s1.9-4.3,4.3-4.3h43c2.4,0,4.3,1.9,4.3,4.3S203.7,275.9,201.4,275.9z
			"/>
	</g>
	<g>
		<path class="st1" d="M141.2,275.9h-1.7c-2.4,0-4.3-1.9-4.3-4.3s1.9-4.3,4.3-4.3h1.7c2.4,0,4.3,1.9,4.3,4.3
			S143.5,275.9,141.2,275.9z"/>
	</g>
	<g>
		<path class="st1" d="M196.5,305.2H175c-2.4,0-4.3-1.9-4.3-4.3s1.9-4.3,4.3-4.3h21.5c2.4,0,4.3,1.9,4.3,4.3
			S198.8,305.2,196.5,305.2z"/>
	</g>
	<g>
		<path class="st1" d="M157.8,305.2h-4.4c-2.4,0-4.3-1.9-4.3-4.3s1.9-4.3,4.3-4.3h4.4c2.4,0,4.3,1.9,4.3,4.3
			S160.1,305.2,157.8,305.2z"/>
	</g>
	<g>
		<path class="st1" d="M199.4,331.5h-24.5c-2.4,0-4.3-1.9-4.3-4.3c0-2.4,1.9-4.3,4.3-4.3h24.5c2.4,0,4.3,1.9,4.3,4.3
			C203.7,329.6,201.8,331.5,199.4,331.5z"/>
	</g>
	<g>
		<path class="st1" d="M370.9,305.2h-43.4c-2.4,0-4.3-1.9-4.3-4.3s1.9-4.3,4.3-4.3h43.4c2.4,0,4.3,1.9,4.3,4.3
			S373.3,305.2,370.9,305.2z"/>
	</g>
	<g>
		<path class="st1" d="M283.9,287.2c-1.1,0-2.2-0.4-3-1.2l-30.7-30.7c-1.7-1.7-1.7-4.4,0-6s4.4-1.7,6,0l30.7,30.7
			c1.7,1.7,1.7,4.4,0,6C286.1,286.8,285,287.2,283.9,287.2z"/>
	</g>
</g>
<g class="st2">
	<g class="st3">
		<path class="st1" d="M344.4,424.9H226.6c-12,0-21.8-9.8-21.8-21.8V226.8c0-12,9.8-21.8,21.8-21.8h117.8c12,0,21.8,9.8,21.8,21.8
			v176.3C366.2,415.2,356.4,424.9,344.4,424.9z M226.6,221.4c-3,0-5.4,2.4-5.4,5.4v176.3c0,3,2.4,5.4,5.4,5.4h117.8
			c3,0,5.4-2.4,5.4-5.4V226.8c0-3-2.4-5.4-5.4-5.4H226.6z"/>
	</g>
	<g class="st3">
		<path class="st1" d="M358.8,378.6h15.6c3,0,5.4-2.4,5.4-5.4V196.8c0-3-2.4-5.4-5.4-5.4H256.6c-3,0-5.4,2.4-5.4,5.4v16.8l-16.3,0.7
			v-17.5c0-12,9.8-21.8,21.8-21.8h117.8c12,0,21.8,9.8,21.8,21.8v176.3c0,12-9.8,21.8-21.8,21.8h-15.6V378.6z"/>
	</g>
	<g class="st3">
		<g>
			<path class="st1" d="M324.8,259.2h-78.5c-2.3,0-4.1-1.8-4.1-4.1c0-2.3,1.8-4.1,4.1-4.1h78.5c2.3,0,4.1,1.8,4.1,4.1
				C328.8,257.4,327,259.2,324.8,259.2z"/>
		</g>
		<g>
			<path class="st1" d="M324.8,283.2h-10.7c-2.3,0-4.1-1.8-4.1-4.1c0-2.3,1.8-4.1,4.1-4.1h10.7c2.3,0,4.1,1.8,4.1,4.1
				C328.8,281.3,327,283.2,324.8,283.2z"/>
		</g>
		<g>
			<path class="st1" d="M289.2,283.2h-43c-2.3,0-4.1-1.8-4.1-4.1c0-2.3,1.8-4.1,4.1-4.1h43c2.3,0,4.1,1.8,4.1,4.1
				C293.3,281.3,291.5,283.2,289.2,283.2z"/>
		</g>
		<g>
			<path class="st1" d="M324.8,307.1h-10.7c-2.3,0-4.1-1.8-4.1-4.1c0-2.3,1.8-4.1,4.1-4.1h10.7c2.3,0,4.1,1.8,4.1,4.1
				C328.8,305.3,327,307.1,324.8,307.1z"/>
		</g>
		<g>
			<path class="st1" d="M289.2,307.1h-43c-2.3,0-4.1-1.8-4.1-4.1c0-2.3,1.8-4.1,4.1-4.1h43c2.3,0,4.1,1.8,4.1,4.1
				C293.3,305.3,291.5,307.1,289.2,307.1z"/>
		</g>
		<g>
			<path class="st1" d="M324.8,331.1h-10.7c-2.3,0-4.1-1.8-4.1-4.1c0-2.3,1.8-4.1,4.1-4.1h10.7c2.3,0,4.1,1.8,4.1,4.1
				C328.8,329.2,327,331.1,324.8,331.1z"/>
		</g>
		<g>
			<path class="st1" d="M289.2,331.1h-43c-2.3,0-4.1-1.8-4.1-4.1c0-2.3,1.8-4.1,4.1-4.1h43c2.3,0,4.1,1.8,4.1,4.1
				C293.3,329.2,291.5,331.1,289.2,331.1z"/>
		</g>
		<g>
			<path class="st1" d="M324.8,355h-10.7c-2.3,0-4.1-1.8-4.1-4.1c0-2.3,1.8-4.1,4.1-4.1h10.7c2.3,0,4.1,1.8,4.1,4.1
				C328.8,353.2,327,355,324.8,355z"/>
		</g>
		<g>
			<path class="st1" d="M289.2,355h-43c-2.3,0-4.1-1.8-4.1-4.1c0-2.3,1.8-4.1,4.1-4.1h43c2.3,0,4.1,1.8,4.1,4.1
				C293.3,353.2,291.5,355,289.2,355z"/>
		</g>
		<g>
			<path class="st1" d="M324.8,379h-10.7c-2.3,0-4.1-1.8-4.1-4.1c0-2.3,1.8-4.1,4.1-4.1h10.7c2.3,0,4.1,1.8,4.1,4.1
				C328.8,377.1,327,379,324.8,379z"/>
		</g>
		<g>
			<path class="st1" d="M289.2,379h-43c-2.3,0-4.1-1.8-4.1-4.1c0-2.3,1.8-4.1,4.1-4.1h43c2.3,0,4.1,1.8,4.1,4.1
				C293.3,377.1,291.5,379,289.2,379z"/>
		</g>
	</g>
</g>
<g class="st2">
	<g class="st3">
		<path class="st1" d="M416,394.2H256.1v-14.8H416c7.6,0,13.7-6.2,13.7-13.7V243.4c0-7.6-6.2-13.7-13.7-13.7H235.8
			c-7.6,0-13.7,6.2-13.7,13.7v31.3h-14.8v-31.3c0-15.7,12.8-28.5,28.5-28.5H416c15.7,0,28.5,12.8,28.5,28.5v122.3
			C444.5,381.4,431.7,394.2,416,394.2z"/>
	</g>
	<g class="st3">
		<path class="st1" d="M233.8,418.3H187c-14.7,0-26.7-12-26.7-26.7v-95.8c0-14.7,12-26.7,26.7-26.7h46.9c14.7,0,26.7,12,26.7,26.7
			v95.8C260.5,406.3,248.5,418.3,233.8,418.3z M187,280.2c-8.6,0-15.6,7-15.6,15.6v95.8c0,8.6,7,15.6,15.6,15.6h46.9
			c8.6,0,15.6-7,15.6-15.6v-95.8c0-8.6-7-15.6-15.6-15.6H187z"/>
	</g>
	<g class="st3">
		<g>
			<path class="st1" d="M358.1,416.4h-64.5c-2,0-3.7-1.7-3.7-3.7c0-2,1.7-3.7,3.7-3.7h64.5c2,0,3.7,1.7,3.7,3.7
				C361.8,414.8,360.2,416.4,358.1,416.4z"/>
			<path class="st1" d="M358.1,417.9h-64.5c-2.9,0-5.2-2.3-5.2-5.2s2.3-5.2,5.2-5.2h64.5c2.9,0,5.2,2.3,5.2,5.2
				S361,417.9,358.1,417.9z M293.6,410.5c-1.2,0-2.2,1-2.2,2.2s1,2.2,2.2,2.2h64.5c1.2,0,2.2-1,2.2-2.2s-1-2.2-2.2-2.2H293.6z"/>
		</g>
	</g>
	<g class="st3">
		<path class="st1" d="M328,294.4c-1.5-0.8-3.2-0.8-5.3-0.2c-1.5,0.4-2.5,1.1-3.4,1.9s-1.3,1.7-1.7,2.5s-0.4,1.7-0.4,2.5
			s0.2,1.7,0.2,2.3l14.4-4.7C330.8,296.7,329.5,295.2,328,294.4z"/>
		<path class="st1" d="M359.5,315.9l-12.9-40.2c-1.3-4-5.5-6.1-9.5-4.9l-40,12.9c-4,1.3-6.1,5.5-4.9,9.5l12.9,40
			c1.3,4,5.5,6.1,9.5,4.9l40-12.9C358.5,324,360.8,319.8,359.5,315.9z M340.3,315.9c-2.1,2.5-4.9,4.2-8.5,5.5
			c-2.5,0.8-4.9,1.1-7.2,1.1c-2.3-0.2-4.4-0.8-6.4-1.7c-1.9-1.1-3.6-2.5-5.1-4.2c-1.5-1.9-2.5-4-3.4-6.6s-1.3-4.9-1.1-7.4
			c0.2-2.3,0.6-4.4,1.7-6.6c1.1-1.9,2.3-3.8,4-5.3s3.8-2.8,6.4-3.4c2.8-0.8,5.3-1.1,7.6-0.6s4.4,1.3,6.4,2.8
			c1.9,1.3,3.4,3.2,4.9,5.3c1.3,2.1,2.3,4.4,3,7l-23.3,7.4c1.1,2.8,2.5,4.7,4.2,5.5c1.7,0.8,3.8,0.8,6.4,0c1.7-0.6,3.2-1.5,4.2-2.8
			s1.5-2.5,1.5-3.6l7.8-2.5C343.2,310,342.2,313.4,340.3,315.9z"/>
	</g>
	<g class="st3">
		<path class="st1" d="M211.7,326.1c-0.9-0.5-2-0.5-3.4-0.1c-0.9,0.3-1.6,0.7-2.2,1.2c-0.5,0.5-0.8,1.1-1.1,1.6
			c-0.3,0.5-0.3,1.1-0.3,1.6c0,0.5,0.1,1.1,0.1,1.5l9.2-3C213.5,327.6,212.7,326.6,211.7,326.1z"/>
		<path class="st1" d="M231.9,339.9l-8.3-25.7c-0.8-2.6-3.5-3.9-6.1-3.1l-25.6,8.3c-2.6,0.8-3.9,3.5-3.1,6.1l8.3,25.6
			c0.8,2.6,3.5,3.9,6.1,3.1l25.6-8.3C231.2,345.1,232.7,342.4,231.9,339.9z M219.6,339.9c-1.4,1.6-3.1,2.7-5.4,3.5
			c-1.6,0.5-3.1,0.7-4.6,0.7c-1.5-0.1-2.8-0.5-4.1-1.1c-1.2-0.7-2.3-1.6-3.2-2.7c-0.9-1.2-1.6-2.6-2.2-4.2c-0.5-1.6-0.8-3.1-0.7-4.7
			c0.1-1.5,0.4-2.8,1.1-4.2c0.7-1.2,1.5-2.4,2.6-3.4s2.4-1.8,4.1-2.2c1.8-0.5,3.4-0.7,4.9-0.4c1.5,0.3,2.8,0.8,4.1,1.8
			c1.2,0.8,2.2,2,3.1,3.4c0.8,1.4,1.5,2.8,1.9,4.5l-14.9,4.7c0.7,1.8,1.6,3,2.7,3.5c1.1,0.5,2.4,0.5,4.1,0c1.1-0.4,2-0.9,2.7-1.8
			c0.7-0.8,0.9-1.6,0.9-2.3l5-1.6C221.5,336.1,220.8,338.3,219.6,339.9z"/>
	</g>
	<g class="st3">
		<circle class="st1" cx="210.4" cy="386.8" r="5.1"/>
	</g>
</g>
</svg>
