<?xml version="1.0" encoding="utf-8"?>
<!-- Generator: Adobe Illustrator 23.0.1, SVG Export Plug-In . SVG Version: 6.00 Build 0)  -->
<svg version="1.1" id="Layer_1" xmlns="http://www.w3.org/2000/svg" xmlns:xlink="http://www.w3.org/1999/xlink" x="0px" y="0px"
	 viewBox="0 0 64 64" style="enable-background:new 0 0 64 64;" xml:space="preserve">
<style type="text/css">
	.st0{fill:#0FB5CD;}
</style>
<path class="st0" d="M32,5.3c8.8,0,16,7.1,16,15.9c0,11.9-16,29.5-16,29.5S16,33.1,16,21.2C16,12.4,23.2,5.3,32,5.3z M32,16
	c-2.9,0-5.3,2.4-5.3,5.3s2.4,5.3,5.3,5.3c2.9,0,5.3-2.4,5.3-5.3S34.9,16,32,16z M53.3,50.7c0,5.9-9.6,10.7-21.3,10.7
	c-11.8,0-21.3-4.8-21.3-10.7c0-3.4,3.3-6.5,8.3-8.4l1.7,2.4c-2.9,1.2-4.7,2.9-4.7,4.7C16,53,23.2,56,32,56c8.8,0,16-3,16-6.7
	c0-1.8-1.8-3.5-4.7-4.7l1.7-2.4C50.1,44.2,53.3,47.2,53.3,50.7z"/>
</svg>
