<?xml version="1.0" encoding="utf-8"?>
<!-- Generator: Adobe Illustrator 23.0.1, SVG Export Plug-In . SVG Version: 6.00 Build 0)  -->
<svg version="1.1" id="Layer_1" xmlns="http://www.w3.org/2000/svg" xmlns:xlink="http://www.w3.org/1999/xlink" x="0px" y="0px"
	 viewBox="0 0 64 64" style="enable-background:new 0 0 64 64;" xml:space="preserve">
<style type="text/css">
	.st0{fill:#0FB5CD;}
</style>
<path class="st0" d="M50.3,18.6h-7l-15.3-8l-17.4,9.1l0,25.6c-2.9,0-5.3-2.4-5.3-5.3l0-20.9c0-1.8,0.7-3,2.1-3.6L28,5.4l20.1,10.1
	C49.4,16.2,50.1,17.3,50.3,18.6z M18.7,21.3h34.7c2.9,0,5.3,2.4,5.3,5.3v24c0,2.9-2.4,5.3-5.3,5.3H18.7c-2.9,0-5.3-2.4-5.3-5.3v-24
	C13.3,23.7,15.7,21.3,18.7,21.3z M53.4,31.1v-4.5L36,35.5l-17.4-8.9v4.5L36,40L53.4,31.1z"/>
</svg>
