<?xml version="1.0" encoding="UTF-8"?>
<svg width="200px" height="200px" viewBox="0 0 200 200" version="1.1" xmlns="http://www.w3.org/2000/svg" xmlns:xlink="http://www.w3.org/1999/xlink">
    <!-- Generator: Sketch 59 (86127) - https://sketch.com -->
    <title>contract (2)</title>
    <desc>Created with Sketch.</desc>
    <g id="Page-1" stroke="none" stroke-width="1" fill="none" fill-rule="evenodd">
        <g id="Icons" transform="translate(-581.000000, -23.000000)" fill="#0FB5CD" fill-rule="nonzero">
            <g id="contract-(2)" transform="translate(581.000000, 23.000000)">
                <path d="M58.59375,73.828125 C56.4375,73.828125 54.6875,75.578125 54.6875,77.734375 C54.6875,79.890625 56.4375,81.640625 58.59375,81.640625 C60.75,81.640625 62.5,79.890625 62.5,77.734375 C62.5,75.578125 60.75,73.828125 58.59375,73.828125 Z" id="Path"></path>
                <path d="M196.09375,168.75 L182.03125,168.75 L182.03125,19.53125 C182.03125,8.76171875 173.269531,0 162.5,0 L19.53125,0 C8.76171875,0 0,8.76171875 0,19.53125 L0,35.15625 C0,37.3132813 1.74921875,39.0625 3.90625,39.0625 L31.25,39.0625 L31.25,180.46875 C31.25,191.238281 40.0117188,200 50.78125,200 L180.46875,200 C191.238281,200 200,191.238281 200,180.46875 L200,172.65625 C200,170.499219 198.250781,168.75 196.09375,168.75 Z M31.25,31.25 L7.8125,31.25 L7.8125,19.53125 C7.8125,13.0695312 13.0695312,7.8125 19.53125,7.8125 C22.659375,7.8125 25.6015625,9.03203125 27.8160156,11.2460938 C30.0304688,13.4609375 31.25,16.403125 31.25,19.53125 L31.25,31.25 Z M62.5,172.65625 L62.5,180.46875 C62.5,186.930469 57.2429688,192.1875 50.78125,192.1875 C44.3195312,192.1875 39.0625,186.930469 39.0625,180.46875 L39.0625,35.15625 L39.0625,19.53125 C39.0625,15.2484375 37.6890625,11.1761719 35.1542969,7.8125 L162.5,7.8125 C168.961719,7.8125 174.21875,13.0695312 174.21875,19.53125 L174.21875,168.75 L158.59375,168.75 L127.34375,168.75 L66.40625,168.75 C64.2492188,168.75 62.5,170.499219 62.5,172.65625 Z M192.1875,180.46875 C192.1875,186.930469 186.930469,192.1875 180.46875,192.1875 L66.3957031,192.1875 C68.8535156,188.920703 70.3125,184.8625 70.3125,180.46875 L70.3125,176.5625 L127.34375,176.5625 L158.59375,176.5625 L192.1875,176.5625 L192.1875,180.46875 Z" id="Shape"></path>
                <path d="M123.4375,23.4375 L82.03125,23.4375 C79.8742187,23.4375 78.125,25.1867187 78.125,27.34375 C78.125,29.5007813 79.8742187,31.25 82.03125,31.25 L123.4375,31.25 C125.594531,31.25 127.34375,29.5007813 127.34375,27.34375 C127.34375,25.1867187 125.594531,23.4375 123.4375,23.4375 Z" id="Path"></path>
                <path d="M154.6875,73.828125 L74.21875,73.828125 C72.0617187,73.828125 70.3125,75.5773437 70.3125,77.734375 C70.3125,79.8914063 72.0617187,81.640625 74.21875,81.640625 L154.6875,81.640625 C156.844531,81.640625 158.59375,79.8914063 158.59375,77.734375 C158.59375,75.5773437 156.844531,73.828125 154.6875,73.828125 Z" id="Path"></path>
                <path d="M154.6875,98.4375 L58.59375,98.4375 C56.4367188,98.4375 54.6875,100.186719 54.6875,102.34375 C54.6875,104.500781 56.4367188,106.25 58.59375,106.25 L154.6875,106.25 C156.844531,106.25 158.59375,104.500781 158.59375,102.34375 C158.59375,100.186719 156.844531,98.4375 154.6875,98.4375 Z" id="Path"></path>
                <path d="M155,123 L58.90625,123 C56.7492188,123 55,124.749219 55,126.90625 C55,129.063281 56.7492188,130.8125 58.90625,130.8125 L155,130.8125 C157.157031,130.8125 158.90625,129.063281 158.90625,126.90625 C158.90625,124.749219 157.157031,123 155,123 Z" id="Path-Copy-3"></path>
                <path d="M155,148 L58.90625,148 C56.7492188,148 55,149.749219 55,151.90625 C55,154.063281 56.7492188,155.8125 58.90625,155.8125 L155,155.8125 C157.157031,155.8125 158.90625,154.063281 158.90625,151.90625 C158.90625,149.749219 157.157031,148 155,148 Z" id="Path-Copy-4"></path>
                <path d="M154.6875,48.046875 L58.59375,48.046875 C56.4367188,48.046875 54.6875,49.7960937 54.6875,51.953125 C54.6875,54.1101562 56.4367188,55.859375 58.59375,55.859375 L154.6875,55.859375 C156.844531,55.859375 158.59375,54.1101562 158.59375,51.953125 C158.59375,49.7960937 156.844531,48.046875 154.6875,48.046875 Z" id="Path"></path>
            </g>
        </g>
    </g>
</svg>