<?xml version="1.0" encoding="UTF-8"?>
<svg width="200px" height="200px" viewBox="0 0 200 200" version="1.1" xmlns="http://www.w3.org/2000/svg" xmlns:xlink="http://www.w3.org/1999/xlink">
    <!-- Generator: Sketch 59 (86127) - https://sketch.com -->
    <title>thumbs-up</title>
    <desc>Created with Sketch.</desc>
    <g id="Page-1" stroke="none" stroke-width="1" fill="none" fill-rule="evenodd">
        <g id="Icons" transform="translate(-79.000000, -218.000000)" fill-rule="nonzero">
            <g id="thumbs-up" transform="translate(79.000000, 218.000000)">
                <path d="M195.227217,101.996528 C195.227217,155.907347 151.524427,199.610136 97.6136086,199.610136 C63.922393,199.610136 34.2181407,182.541423 16.6758043,156.58047 C11.5725513,149.02991 4.7895345,133.768884 2.10160819,119.528204 C-0.755360624,104.385965 0.653325926,90.3980873 0.988364912,88.0497684 C7.75615244,40.7453096 48.4375002,4.3829193 97.6136086,4.3829193 C151.524427,4.3829193 195.227217,48.0857092 195.227217,101.996528 Z" id="Path" fill="#B5CD0F"></path>
                <path d="M185.60703,14.0031068 C204.277839,32.6754386 204.277839,62.9477341 185.60703,81.6185427 C166.934698,100.289352 136.663926,100.289352 117.991594,81.6185427 C99.3207844,62.9477341 99.3207844,32.6754386 117.991594,14.0031068 C136.663926,-4.66770214 166.934698,-4.66770214 185.60703,14.0031068 L185.60703,14.0031068 Z" id="Path" fill="#00B96F"></path>
                <path d="M185.60703,14.0031068 C202.668129,31.0642058 204.136209,57.810977 190.015838,76.5427021 C171.284113,90.6630725 144.538865,89.1949926 127.476242,72.133894 C110.415144,55.0712717 108.947064,28.3260234 123.067434,9.59429825 C141.799159,-4.52607212 168.544408,-3.0579922 185.60703,14.0031068 L185.60703,14.0031068 Z" id="Path" fill="#0FCD27"></path>
                <path d="M197.55117,26.8579435 L158.679033,65.7300803 C157.306896,67.1022175 155.506823,67.7890472 153.709795,67.7890472 C151.911245,67.7890472 150.112695,67.1037404 148.740558,65.7300803 L129.387488,46.3785333 C126.643214,43.6327365 126.643214,39.1828094 129.387488,36.4385357 C132.131762,33.6942616 136.581688,33.6942616 139.325963,36.4385357 L153.709795,50.8223684 L187.614218,16.919469 C190.358492,14.1751949 194.806896,14.1751949 197.552692,16.919469 C200.296966,19.6637427 200.296966,24.1136694 197.55117,26.8579435 Z" id="Path" fill="#FFE49F"></path>
                <path d="M197.55117,16.919469 C200.296966,19.6637427 200.296966,24.1121466 197.552692,26.8564207 L164.105142,60.3024487 C162.733004,61.6745856 160.934454,62.3614156 159.135904,62.3614156 C157.337354,62.3614156 155.538804,61.6761088 154.166667,60.3024487 L134.813596,40.9493786 C133.071394,39.2071758 132.439388,36.7781435 132.908443,34.5333821 C135.153204,34.0643275 137.582237,34.6963329 139.32444,36.4385357 L153.708273,50.8223684 L187.612695,16.9179458 C190.356969,14.1736721 194.806896,14.1736721 197.55117,16.919469 L197.55117,16.919469 Z" id="Path" fill="#FFF5F5"></path>
                <path d="M158.73538,98.6659357 C158.388158,98.8517302 158.173428,99.2126585 158.173428,99.6055676 C158.173428,99.9984772 158.388158,100.360928 158.73538,100.5452 C161.245127,101.886879 162.955349,104.529118 162.955349,107.574927 L162.955349,111.558845 C162.955349,114.603131 161.245127,117.246893 158.73538,118.587049 C158.388158,118.772844 158.173428,119.133772 158.173428,119.526681 C158.173428,119.919591 158.388158,120.282042 158.73538,120.466313 C161.245127,121.807992 162.955349,124.450232 162.955349,127.496041 L162.955349,131.479959 C162.955349,134.524245 161.245127,137.168007 158.73538,138.508163 C158.388158,138.693957 158.173428,139.054885 158.173428,139.447795 C158.173428,139.840704 158.388158,140.203156 158.73538,140.387427 C161.245127,141.729106 162.955349,144.371345 162.955349,147.417154 L162.955349,151.401072 C162.955349,155.802266 159.387183,159.368908 154.985989,159.368908 L112.434515,159.368908 C106.437317,159.368908 100.60307,157.410453 95.8211501,153.792032 C91.0377072,150.172088 85.2049828,148.213633 79.206262,148.213633 L46.616106,148.213633 L46.616106,96.4181287 L74.8873053,96.4181287 C80.5814448,96.4181287 85.8415571,93.3814573 88.6893883,88.4502924 L102.168616,65.1026437 C103.217897,63.2842959 103.769189,61.2238058 103.769189,59.1252437 L103.769189,45.8181045 C103.769189,42.5179704 106.444932,39.8422269 109.746589,39.8422269 C117.447917,39.8422269 123.690302,46.0861357 123.690302,53.7874635 L123.690302,61.2969053 C123.690302,65.5123049 122.575536,69.6530823 120.460222,73.2973926 L117.793616,77.8889497 C117.332176,78.6869517 117.906311,79.6844542 118.827668,79.6844542 L154.985989,79.6844542 C159.387183,79.6844542 162.955349,83.2526195 162.955349,87.6538133 L162.955349,91.6377314 C162.955349,94.6820175 161.245127,97.3257797 158.73538,98.6659357 L158.73538,98.6659357 Z" id="Path" fill="#FFDFCF"></path>
                <path d="M111.159844,41.436708 L111.159844,49.4045442 C111.159844,51.6051415 109.376523,53.3884624 107.175926,53.3884624 L103.770712,53.3884624 L103.770712,45.8181045 C103.770712,42.5179704 106.446455,39.8422269 109.746589,39.8422269 C110.118177,39.8422269 110.485197,39.8605021 110.849172,39.889437 C111.048672,40.366106 111.159844,40.8884624 111.159844,41.436708 Z" id="Path" fill="#FFEEE6"></path>
                <path d="M131.080958,95.6216495 C131.080958,93.4210526 132.865802,91.6377314 135.064876,91.6377314 L162.955349,91.6377314 C162.955349,94.6820175 161.245127,97.3257797 158.73538,98.6659357 C158.388158,98.8517302 158.173428,99.2126585 158.173428,99.6055676 L135.064876,99.6055676 C132.865802,99.6055676 131.080958,97.8222464 131.080958,95.6216495 L131.080958,95.6216495 Z M154.985989,146.620675 L112.434515,146.620675 C106.437317,146.620675 100.60307,144.660697 95.8211501,141.042276 C91.0377072,137.422332 85.2049828,135.463877 79.206262,135.463877 L46.616106,135.463877 L46.616106,148.213633 L79.206262,148.213633 C85.2049828,148.213633 91.0377072,150.172088 95.8211501,153.792032 C100.60307,157.410453 106.437317,159.368908 112.434515,159.368908 L154.985989,159.368908 C159.387183,159.368908 162.955349,155.802266 162.955349,151.401072 L162.955349,147.417154 C162.955349,145.798306 162.46345,144.298246 161.633467,143.043372 C160.206506,145.196759 157.763767,146.620675 154.985989,146.620675 Z M131.080958,135.463877 C131.080958,137.664474 132.865802,139.447795 135.064876,139.447795 L158.173428,139.447795 C158.173428,139.054885 158.388158,138.693957 158.73538,138.508163 C161.245127,137.168007 162.955349,134.524245 162.955349,131.479959 L135.064876,131.479959 C132.865802,131.479959 131.080958,133.26328 131.080958,135.463877 L131.080958,135.463877 Z M131.080958,115.542763 C131.080958,117.74336 132.865802,119.526681 135.064876,119.526681 L158.173428,119.526681 C158.173428,119.133772 158.388158,118.772844 158.73538,118.587049 C161.245127,117.246893 162.955349,114.603131 162.955349,111.558845 L135.064876,111.558845 C132.865802,111.558845 131.080958,113.342166 131.080958,115.542763 L131.080958,115.542763 Z" id="Shape" fill="#FFC9C0"></path>
                <path d="M62.5517786,89.6457723 L62.5517786,154.987512 C62.5517786,158.287646 59.8760355,160.963389 56.5759018,160.963389 L36.6547879,160.963389 C33.9074682,160.963389 31.598745,159.105446 30.8997318,156.58047 L16.6758043,156.58047 C6.1479653,140.999634 0,122.216131 0,101.996528 C0,97.2618175 0.344176218,92.6062986 0.995979727,88.0512912 L30.8997318,88.0512912 C31.598745,85.5263158 33.9074682,83.6683723 36.6547879,83.6683723 L56.5759018,83.6683723 C59.8760355,83.6683723 62.5517786,86.3441154 62.5517786,89.6457723 Z" id="Path" fill="#CD0F56"></path>
                <path d="M0,101.996528 C0,97.2618175 0.336561793,92.6062986 0.988364912,88.0512912 L18.7256335,88.0512912 L18.7256335,136.935002 C18.7256335,140.235136 16.0498904,142.91088 12.7497563,142.91088 L8.96229279,142.91088 C3.20875984,130.465704 0,116.607273 0,101.996528 Z M30.6789107,89.6457723 L30.6789107,141.439754 C30.6789107,144.741411 33.3546542,147.417154 36.6547879,147.417154 L56.5759018,147.417154 C59.8760355,147.417154 62.5517786,144.741411 62.5517786,141.439754 L62.5517786,89.6457723 C62.5517786,86.3441154 59.8760355,83.6683723 56.5759018,83.6683723 L36.6547879,83.6683723 C33.3546542,83.6683723 30.6789107,86.3441154 30.6789107,89.6457723 L30.6789107,89.6457723 Z" id="Shape" fill="#CE3E74"></path>
            </g>
        </g>
    </g>
</svg>