<?xml version="1.0" standalone="no"?>
<!DOCTYPE svg PUBLIC "-//W3C//DTD SVG 1.1//EN" "http://www.w3.org/Graphics/SVG/1.1/DTD/svg11.dtd" >
<svg xmlns="http://www.w3.org/2000/svg" xmlns:xlink="http://www.w3.org/1999/xlink" version="1.1">
<metadata>
Created by FontForge 20170731 at Fri Mar 13 16:23:28 2015
 By Aleksey,,,
Copyright (c) 2015 by Fontfabric LLC. All rights reserved.
</metadata>
<defs>
<font id="MullerLightItalic" horiz-adv-x="623" >
  <font-face 
    font-family="Muller Light Italic"
    font-weight="300"
    font-style="italic"
    font-stretch="normal"
    units-per-em="1000"
    panose-1="0 0 0 0 0 0 0 0 0 0"
    ascent="780"
    descent="-220"
    x-height="480"
    cap-height="700"
    bbox="-207 -234 1221.83 946"
    underline-thickness="50"
    underline-position="-225"
    slope="-9"
    unicode-range="U+0020-25CA"
  />
<missing-glyph horiz-adv-x="259" 
 />
    <glyph glyph-name="f_f" unicode="ff" horiz-adv-x="679" 
d="M756 647q-41 22 -100 22q-119 0 -137 -115l-12 -74h193l-8 -53h-194l-67 -427h-57l68 427h-254l-67 -427h-57l68 427h-87l8 53h87l9 57q12 77 69 119t135 42q77 0 147 -44q48 67 148 67q66 0 116 -23zM197 480h253l13 80q5 29 13 50q-53 35 -121 35q-61 0 -100.5 -28.5
t-48.5 -83.5z" />
    <glyph glyph-name="f_f_i" unicode="ffi" horiz-adv-x="860" 
d="M121 0h-57l68 427h-87l8 53h87l9 57q12 78 68 119.5t136 41.5q79 0 152 -48q56 68 158 68q76 0 146 -40l-9 -55q-62 42 -136 42q-58 0 -97.5 -29.5t-48.5 -89.5l-11 -66h301l-76 -480h-57l68 427h-245l-67 -427h-57l68 427h-254zM206 533l-9 -53h253l12 70q4 29 17 56
q-56 39 -124 39q-61 0 -100.5 -28.5t-48.5 -83.5z" />
    <glyph glyph-name="f_f_l" unicode="ffl" horiz-adv-x="870" 
d="M794 687l1 6l59 15l-112 -708h-57l101 635q-57 30 -122 30q-59 0 -98 -29.5t-48 -89.5l-11 -66h168l-8 -53h-169l-67 -427h-57l68 427h-254l-67 -427h-57l68 427h-87l8 53h87l9 57q12 77 69 119t135 42t151 -48q56 68 156 68q74 0 134 -31zM450 480l12 70q4 31 17 56
q-54 39 -124 39q-59 0 -99.5 -28.5t-49.5 -83.5l-9 -53h253z" />
    <glyph glyph-name=".notdef" horiz-adv-x="259" 
 />
    <glyph glyph-name=".null" horiz-adv-x="0" 
 />
    <glyph glyph-name="nonmarkingreturn" horiz-adv-x="333" 
 />
    <glyph glyph-name="space" unicode=" " horiz-adv-x="259" 
 />
    <glyph glyph-name="exclam" unicode="!" horiz-adv-x="215" 
d="M117 189h-50l77 511h59zM105 26q-6 -34 -41 -34q-18 0 -28.5 11t-7.5 31q6 34 41 34q18 0 28.5 -11t7.5 -31z" />
    <glyph glyph-name="quotedbl" unicode="&#x22;" horiz-adv-x="292" 
d="M257 540h-40l26 160h54zM144 540h-40l26 160h54z" />
    <glyph glyph-name="numbersign" unicode="#" horiz-adv-x="651" 
d="M92 0h-57l71 179h-85l8 50h97l88 223h-99l7 50h111l71 178h57l-70 -178h213l71 178h57l-71 -178h83l-7 -50h-95l-89 -223h98l-8 -50h-109l-71 -179h-57l70 179h-213zM271 452l-88 -223h213l88 223h-213z" />
    <glyph glyph-name="dollar" unicode="$" horiz-adv-x="578" 
d="M251 -130h-50l19 120q-123 10 -204 59l9 58q94 -62 228 -62q82 0 140 28.5t68 92.5q6 38 -13.5 66t-55 45.5t-79 32.5t-86.5 32.5t-77.5 39.5t-52.5 59.5t-10 86.5q13 75 83.5 117.5t160.5 45.5l18 119h50l-18 -120q97 -8 164 -50l-8 -56q-77 51 -198 51q-71 0 -127 -28
t-65 -84q-6 -39 12.5 -67.5t54 -46.5t79 -33.5t86.5 -32.5t78 -38.5t53 -57.5t11 -84q-14 -87 -84.5 -129t-166.5 -45z" />
    <glyph glyph-name="percent" unicode="%" horiz-adv-x="887" 
d="M213 -60h-59l539 820h59zM390 555q-10 -69 -61 -107.5t-115 -38.5t-105.5 42.5t-30.5 113.5q11 69 62 107.5t116 38.5q64 0 105 -42.5t29 -113.5zM130 561q-7 -44 17 -73t69 -29q47 0 81 27.5t41 72.5q7 44 -17 73t-67 29q-48 0 -82.5 -27.5t-41.5 -72.5zM828 135
q-11 -69 -62 -107.5t-115 -38.5t-105.5 42.5t-30.5 113.5q11 69 62 107.5t116 38.5q63 0 104.5 -42.5t30.5 -113.5zM567 141q-7 -44 17 -73t69 -29q47 0 81 27.5t41 72.5q7 44 -17 73t-67 29q-48 0 -82.5 -27.5t-41.5 -72.5z" />
    <glyph glyph-name="ampersand" unicode="&#x26;" horiz-adv-x="687" 
d="M530 116l109 -116h-69l-76 80q-106 -91 -254 -91q-106 0 -163 52.5t-45 130.5q5 34 24 65.5t48.5 56.5t56 42t60.5 35q-79 94 -66 176q11 69 75 116.5t152 47.5q77 0 126 -43t39 -109q-6 -43 -47 -83.5t-75 -59.5t-99 -51q-13 -7 -20 -10l186 -199q63 73 75 165h59
q-17 -116 -96 -205zM381 657q-74 0 -118.5 -34.5t-51.5 -86.5q-10 -62 59 -141q38 17 54.5 25t53 28t55 35t36.5 37.5t21 44.5q7 41 -26 66.5t-83 25.5zM91 167q-9 -55 34 -89.5t125 -34.5q119 0 207 77l-200 211q-32 -16 -55 -30t-49 -35t-42 -46t-20 -53z" />
    <glyph glyph-name="quotesingle" unicode="'" horiz-adv-x="179" 
d="M144 540h-40l26 160h54z" />
    <glyph glyph-name="parenleft" unicode="(" horiz-adv-x="272" 
d="M275 809h57q-81 -96 -137.5 -219.5t-75.5 -243.5q-19 -116 -1.5 -238.5t67.5 -216.5h-54q-53 98 -73 220.5t-2 242.5q19 119 77.5 239.5t141.5 215.5z" />
    <glyph glyph-name="parenright" unicode=")" horiz-adv-x="272" 
d="M105 809h54q53 -99 73.5 -221t1.5 -242q-19 -118 -77 -238.5t-141 -216.5h-58q81 96 137.5 219.5t75.5 243.5q19 116 1.5 238.5t-67.5 216.5z" />
    <glyph glyph-name="asterisk" unicode="*" horiz-adv-x="434" 
d="M252 510l-98 -119l-40 30l103 110l-125 37l26 50l121 -49l15 131h53l-27 -131l136 49l11 -50l-140 -37l71 -110l-47 -30z" />
    <glyph glyph-name="plus" unicode="+" horiz-adv-x="532" 
d="M307 377h192l-9 -54h-192l-30 -192h-54l30 192h-191l8 54h192l30 192h54z" />
    <glyph glyph-name="comma" unicode="," horiz-adv-x="218" 
d="M11 -147h-47l89 224h60z" />
    <glyph glyph-name="hyphen" unicode="-" horiz-adv-x="486" 
d="M64 273h352l-9 -54h-351z" />
    <glyph glyph-name="period" unicode="." horiz-adv-x="203" 
d="M104 28q-6 -36 -42 -36q-18 0 -29 12t-7 31q2 16 14.5 25.5t27.5 9.5q19 0 29.5 -11.5t6.5 -30.5z" />
    <glyph glyph-name="slash" unicode="/" horiz-adv-x="419" 
d="M28 -58h-45l427 816h44z" />
    <glyph glyph-name="zero" unicode="0" horiz-adv-x="703" 
d="M63 345q25 158 114.5 252t234.5 94q144 0 206.5 -98.5t37.5 -257.5q-25 -157 -114.5 -251.5t-235.5 -94.5q-144 0 -206 98.5t-37 257.5zM596 339q22 138 -24.5 217t-163.5 79q-120 0 -192.5 -77t-94.5 -217q-22 -138 24.5 -217t163.5 -79q120 0 192.5 77t94.5 217z" />
    <glyph glyph-name="one" unicode="1" horiz-adv-x="415" 
d="M282 680h43l-99 -623h133l-9 -57h-342l9 57h150l88 559l-158 -56l10 57z" />
    <glyph glyph-name="two" unicode="2" horiz-adv-x="568" 
d="M124 628q103 63 221 63q98 0 155.5 -48t44.5 -130q-6 -41 -25.5 -75.5t-54 -63.5t-66.5 -49t-83 -48q-6 -3 -32.5 -17t-33.5 -17.5t-30 -16.5t-31 -19t-26.5 -19t-26 -21.5t-20.5 -22.5t-19 -26.5t-12.5 -28t-9.5 -32.5h405l-10 -57h-468l5 32q8 48 27.5 88.5t42 67
t62 54.5t66.5 42.5t76 39.5q38 20 58.5 31t51 31t47 37.5t31 42.5t18.5 53q8 55 -32 86t-118 31q-107 0 -223 -71z" />
    <glyph glyph-name="three" unicode="3" horiz-adv-x="587" 
d="M540 505q-9 -53 -45.5 -94.5t-93.5 -56.5q57 -14 92 -58t24 -117q-15 -91 -91 -140.5t-180 -49.5q-138 0 -228 45l8 55q86 -45 218 -45q87 0 146 37t71 108q11 70 -34.5 102t-127.5 32h-103l10 55h94q79 0 126.5 37t56.5 93q9 57 -31.5 92.5t-120.5 35.5q-104 0 -217 -49
l10 59q98 45 218 45q97 0 153.5 -53t44.5 -133z" />
    <glyph glyph-name="four" unicode="4" horiz-adv-x="641" 
d="M472 680h66l-74 -466h135l-9 -55h-135l-25 -159h-59l25 159h-389l8 52zM404 214l62 385l-376 -385h314z" />
    <glyph glyph-name="five" unicode="5" horiz-adv-x="578" 
d="M160 680h398l-9 -57h-343l-52 -233q66 19 137 19q105 0 173 -54t51 -162q-15 -94 -94.5 -149t-189.5 -55q-128 0 -212 46l8 54q81 -45 200 -45q92 0 155 41.5t74 114.5q13 81 -40.5 118t-145.5 37q-93 0 -187 -33z" />
    <glyph glyph-name="six" unicode="6" horiz-adv-x="614" 
d="M562 599q-61 36 -144 36q-53 0 -98.5 -16.5t-85 -51t-68.5 -93.5t-44 -139q114 83 238 83q92 0 153 -56.5t45 -157.5t-91.5 -158t-176.5 -57q-136 0 -195 90.5t-34 248.5q29 183 125 273t234 90q84 0 151 -38zM289 44q81 0 139 42t71 122q13 81 -32 118t-123 37
q-127 0 -231 -93q-8 -111 37 -168.5t139 -57.5z" />
    <glyph glyph-name="seven" unicode="7" horiz-adv-x="527" 
d="M89 680h476l-8 -53l-398 -627h-65l395 623h-409z" />
    <glyph glyph-name="eight" unicode="8" horiz-adv-x="644" 
d="M572 160q-11 -73 -85 -122t-198 -49q-132 0 -198 59.5t-53 145.5q9 53 48 100.5t107 81.5q-92 55 -77 148q11 69 78.5 118t183.5 49q110 0 172 -59t51 -134q-13 -99 -130 -170q119 -55 101 -168zM98 194q-11 -67 41.5 -108.5t156.5 -41.5q89 0 149 35.5t68 88.5
q5 34 -5.5 58.5t-37.5 41t-53.5 26.5t-69.5 23q-7 2 -11 3q-52 15 -94 30q-128 -57 -144 -156zM336 374q16 -4 86 -24q106 63 120 148q9 56 -35.5 97t-130.5 41q-85 0 -139 -33.5t-62 -82.5q-5 -33 5.5 -57t38 -40.5t49 -25t58.5 -20.5q7 -2 10 -3z" />
    <glyph glyph-name="nine" unicode="9" horiz-adv-x="613" 
d="M71 476q16 101 91.5 158t176.5 57q136 0 195 -90.5t34 -248.5q-29 -183 -125 -273t-234 -90q-85 0 -151 38l9 55q59 -37 144 -37q53 0 98.5 16.5t85 51t68.5 93.5t44 139q-114 -83 -238 -83q-92 0 -153 56.5t-45 157.5zM340 636q-81 0 -139 -41.5t-71 -122.5
q-13 -80 32 -117.5t123 -37.5q127 0 231 93q8 111 -37 168.5t-139 57.5z" />
    <glyph glyph-name="colon" unicode=":" horiz-adv-x="214" 
d="M163 393q-6 -35 -43 -35q-17 0 -28 11.5t-8 30.5q3 17 15 26.5t27 9.5q19 0 29.5 -11.5t7.5 -31.5zM105 28q-6 -36 -43 -36q-17 0 -28 12t-7 31q2 16 14.5 25.5t27.5 9.5q19 0 29.5 -11.5t6.5 -30.5z" />
    <glyph glyph-name="semicolon" unicode=";" horiz-adv-x="282" 
d="M44 -147h-47l89 224h60zM201 432q-6 -35 -43 -35q-17 0 -28 11.5t-8 30.5q2 17 15 26.5t28 9.5q18 0 28.5 -11.5t7.5 -31.5z" />
    <glyph glyph-name="less" unicode="&#x3c;" horiz-adv-x="483" 
d="M400 221l-9 -56l-343 157l9 57l392 156l-8 -56l-330 -129z" />
    <glyph glyph-name="equal" unicode="=" horiz-adv-x="552" 
d="M499 414h-409l9 54h408zM470 232h-409l8 54h409z" />
    <glyph glyph-name="greater" unicode="&#x3e;" horiz-adv-x="482" 
d="M443 321l-392 -156l9 56l331 129l-290 129l8 56l344 -157z" />
    <glyph glyph-name="question" unicode="?" horiz-adv-x="491" 
d="M245 199h-57q6 39 31 77.5t58 70t66 62t58.5 65.5t30.5 70q9 56 -31 83.5t-118 27.5q-95 0 -197 -57l9 59q96 54 200 54q95 0 152 -45t44 -124q-6 -39 -32 -77.5t-59.5 -70.5t-66.5 -62.5t-58 -65t-30 -67.5zM229 28q-6 -36 -42 -36q-18 0 -29 12t-7 31q2 16 14.5 25.5
t27.5 9.5q19 0 29.5 -11.5t6.5 -30.5z" />
    <glyph glyph-name="at" unicode="@" horiz-adv-x="1055" 
d="M41 252q14 91 60 173t116.5 146t170 102t212.5 38q87 0 159.5 -27t120.5 -71t79 -101t41 -118t1 -120q-21 -131 -82.5 -198t-145.5 -67q-61 0 -96 30t-36 85q-31 -44 -77 -68.5t-97 -24.5q-81 0 -130.5 60t-34.5 150q14 90 77.5 147t147.5 57q51 0 89 -26.5t54 -67.5
l13 85h56l-44 -274q-16 -103 80 -103q63 0 107 59.5t60 162.5q10 65 -7 130.5t-58.5 120t-114.5 89t-166 34.5q-199 0 -334.5 -119.5t-162.5 -290.5q-15 -96 9.5 -176.5t79 -133t131 -81.5t165.5 -29q118 0 229 37l-9 -59q-101 -34 -224 -34q-100 0 -187 33t-150 92.5
t-91.5 152.5t-10.5 205zM659 284q-6 46 -40 77.5t-88 31.5q-64 0 -113.5 -42.5t-60.5 -112.5q-10 -69 24 -112t94 -43q56 0 102.5 32.5t67.5 78.5z" />
    <glyph glyph-name="A" unicode="A" horiz-adv-x="714" 
d="M656 0h-62l-53 188h-396l-112 -188h-67l422 700h68zM402 616l-224 -372h349l-106 373q-4 16 -5 24q-4 -9 -14 -25z" />
    <glyph glyph-name="B" unicode="B" horiz-adv-x="686" 
d="M163 700h271q103 0 163 -47t46 -134q-11 -64 -52 -102t-98 -50q59 -13 98.5 -56t27.5 -124q-30 -187 -292 -187h-275zM560 200q5 35 -4 61t-25.5 40t-42 22t-46.5 10.5t-45 2.5h-233l-44 -279h202q43 0 75 4.5t69.5 17.5t62 44t31.5 77zM583 520q10 66 -32.5 94.5
t-128.5 28.5h-210l-39 -251h236q67 0 115 31.5t59 96.5z" />
    <glyph glyph-name="C" unicode="C" horiz-adv-x="647" 
d="M60 364q18 109 86 190.5t154.5 119t176.5 37.5q107 0 185 -48l-9 -57q-67 49 -170 49q-80 0 -155.5 -31.5t-134.5 -101.5t-75 -166q-12 -77 6.5 -138.5t59 -98t91.5 -55.5t108 -19q108 0 194 52l-10 -64q-85 -44 -199 -44q-66 0 -126 24t-107 69t-68.5 118.5t-6.5 163.5z
" />
    <glyph glyph-name="D" unicode="D" horiz-adv-x="735" 
d="M163 700h214q178 0 260.5 -98t57.5 -256t-132.5 -252t-292.5 -94h-218zM635 354q22 135 -44.5 212t-219.5 77h-159l-92 -586h156q153 0 245 79.5t114 217.5z" />
    <glyph glyph-name="E" unicode="E" horiz-adv-x="621" 
d="M163 700h465l-9 -57h-406l-41 -262h375l-8 -57h-376l-42 -267h411l-9 -57h-471z" />
    <glyph glyph-name="F" unicode="F" horiz-adv-x="604" 
d="M163 700h467l-10 -57h-407l-43 -273h378l-9 -57h-378l-50 -313h-59z" />
    <glyph glyph-name="G" unicode="G" horiz-adv-x="709" 
d="M60 364q14 88 57.5 156.5t104 109t127.5 61t135 20.5q114 0 200 -47l-8 -57q-70 48 -187 48q-61 0 -118.5 -16.5t-110.5 -50.5t-91 -94t-50 -138q-13 -79 6 -141t60.5 -98t93.5 -54t111 -18q89 0 162 34l46 290h60l-52 -334q-106 -46 -223 -46q-69 0 -131.5 22.5t-112 66
t-72 118t-7.5 168.5z" />
    <glyph glyph-name="H" unicode="H" horiz-adv-x="768" 
d="M676 700h59l-111 -700h-59l51 323h-454l-51 -323h-59l111 700h59l-50 -320h453z" />
    <glyph glyph-name="I" unicode="I" horiz-adv-x="255" 
d="M163 700h59l-111 -700h-59z" />
    <glyph glyph-name="J" unicode="J" horiz-adv-x="516" 
d="M215 700h275l-79 -503q-16 -106 -83.5 -156.5t-168.5 -50.5q-111 0 -175 44l9 58q61 -45 158 -45q177 0 201 156l70 440h-217z" />
    <glyph glyph-name="K" unicode="K" horiz-adv-x="658" 
d="M629 700h68l-297 -343l209 -357h-64l-195 330h-187l-52 -330h-59l111 700h59l-49 -314h183z" />
    <glyph glyph-name="L" unicode="L" horiz-adv-x="572" 
d="M163 700h59l-101 -643h404l-9 -57h-464z" />
    <glyph glyph-name="M" unicode="M" horiz-adv-x="903" 
d="M810 700h60l-111 -700h-59l94 593l-339 -415h-39l-210 415l-95 -593h-59l111 700h52l227 -450z" />
    <glyph glyph-name="N" unicode="N" horiz-adv-x="768" 
d="M111 0h-59l111 700h50l368 -604q1 11 4 30.5t4 30.5l87 543h59l-111 -700h-50l-368 605q-1 -12 -4 -31.5t-4 -29.5z" />
    <glyph glyph-name="O" unicode="O" horiz-adv-x="822" 
d="M784 346q-11 -68 -43 -130.5t-83 -114t-127 -82t-165 -30.5q-111 0 -188 54.5t-106 136.5t-15 174q11 68 44.5 131t85 114t127 81.5t161.5 30.5q84 0 150 -31.5t103 -83.5t52 -117t4 -133zM117 350q-5 -44 -2 -87t22.5 -82.5t49 -69.5t77 -48t106.5 -18q145 0 240.5 90.5
t114.5 214.5q5 44 2 87t-22.5 82.5t-49 69.5t-77 48t-106.5 18q-145 0 -240.5 -90.5t-114.5 -214.5z" />
    <glyph glyph-name="P" unicode="P" horiz-adv-x="660" 
d="M163 700h234q58 0 105.5 -11.5t86 -36t56 -70t7.5 -108.5q-35 -219 -328 -219h-172l-41 -255h-59zM592 481q8 47 -5.5 80t-44 50.5t-66.5 24.5t-82 7h-182l-52 -331h172q233 0 260 169z" />
    <glyph glyph-name="Q" unicode="Q" horiz-adv-x="822" 
d="M727 -22l-42 -36l-93 109q-101 -62 -226 -62q-111 0 -188 54.5t-106 136.5t-15 174q11 68 44.5 131t85 114t127 81.5t161.5 30.5q84 0 150 -31.5t103 -83.5t52 -117t4 -133q-25 -160 -147 -263zM117 350q-5 -44 -2 -87t22.5 -82.5t49 -69.5t77 -48t106.5 -18
q101 0 185 51l-117 138l42 36l120 -143q103 87 125 223q5 44 2 87t-22.5 82.5t-49 69.5t-77 48t-106.5 18q-145 0 -240.5 -90.5t-114.5 -214.5z" />
    <glyph glyph-name="R" unicode="R" horiz-adv-x="691" 
d="M111 0h-59l111 700h267q48 0 90 -11.5t76.5 -35t50.5 -66t7 -99.5q-15 -92 -79.5 -140.5t-153.5 -59.5l203 -288h-70l-200 283h-198zM212 643l-47 -303h211q52 0 95.5 13.5t78.5 49.5t44 92q7 42 -5 72t-38 46t-57 23t-68 7h-214z" />
    <glyph glyph-name="S" unicode="S" horiz-adv-x="575" 
d="M94 541q9 57 50 97t94.5 56.5t113.5 16.5q118 0 199 -53l-9 -57q-76 54 -189 54q-80 0 -134.5 -28.5t-65.5 -90.5q-6 -39 12.5 -67.5t53 -46.5t77.5 -34t85 -34t76 -41t51.5 -61.5t9.5 -88.5q-14 -91 -89 -133t-177 -41q-141 0 -237 60l9 57q94 -61 227 -61
q189 0 207 121q7 41 -11.5 71.5t-52.5 49.5t-77 35.5t-85 34t-76 40t-51.5 59t-10.5 85.5z" />
    <glyph glyph-name="T" unicode="T" horiz-adv-x="596" 
d="M77 700h571l-9 -57h-256l-102 -643h-59l102 643h-256z" />
    <glyph glyph-name="U" unicode="U" horiz-adv-x="753" 
d="M669 700h59l-71 -452q-22 -137 -108 -198t-213 -61q-61 0 -110 14t-86 44t-52 82t-4 123l71 448h59l-71 -450q-32 -205 192 -205q230 0 264 209z" />
    <glyph glyph-name="V" unicode="V" horiz-adv-x="685" 
d="M327 0h-61l-186 700h62l162 -633l365 633h66z" />
    <glyph glyph-name="W" unicode="W" horiz-adv-x="995" 
d="M979 700h63l-329 -700h-67l-97 590l-285 -590h-70l-111 700h60l98 -624l299 621h49l101 -613z" />
    <glyph glyph-name="X" unicode="X" horiz-adv-x="628" 
d="M33 0h-75l333 363l-203 337h66l177 -294l270 294h75l-316 -344l214 -356h-65l-189 312z" />
    <glyph glyph-name="Y" unicode="Y" horiz-adv-x="643" 
d="M305 0h-60l44 273l-207 427h62l181 -370l299 370h68l-343 -427z" />
    <glyph glyph-name="Z" unicode="Z" horiz-adv-x="578" 
d="M501 0h-517l8 53l524 590h-416l9 57h491l-8 -53l-525 -590h444z" />
    <glyph glyph-name="bracketleft" unicode="[" horiz-adv-x="264" 
d="M177 -110h-167l146 920h166l-9 -57h-107l-128 -806h107z" />
    <glyph glyph-name="backslash" unicode="\" horiz-adv-x="413" 
d="M322 -58h-42l-169 816h42z" />
    <glyph glyph-name="bracketright" unicode="]" horiz-adv-x="265" 
d="M128 -110h-167l8 57h108l128 806h-107l8 57h167z" />
    <glyph glyph-name="asciicircum" unicode="^" horiz-adv-x="513" 
d="M135 390h-66l230 310h50l132 -310h-61l-103 247z" />
    <glyph glyph-name="underscore" unicode="_" horiz-adv-x="443" 
d="M374 -140h-442l8 54h443z" />
    <glyph glyph-name="grave" unicode="`" horiz-adv-x="177" 
d="M262 773h-61l-76 142h69z" />
    <glyph glyph-name="a" unicode="a" horiz-adv-x="618" 
d="M458 99q-87 -110 -219 -110q-104 0 -162 72.5t-40 183.5q17 109 95.5 177.5t179.5 68.5q68 0 116.5 -31.5t73.5 -80.5l16 101h51l-76 -480h-51zM92 241q-14 -90 31 -145t124 -55q69 0 127.5 38.5t89.5 95.5l21 132q-12 56 -58 94t-111 38q-82 0 -145.5 -53.5
t-78.5 -144.5z" />
    <glyph glyph-name="b" unicode="b" horiz-adv-x="619" 
d="M144 700h57l-51 -315q37 47 93 76.5t121 29.5q102 0 160.5 -72.5t41.5 -183.5q-17 -110 -93.5 -178t-182.5 -68q-131 0 -189 113l-17 -102h-51zM510 239q14 89 -32 144.5t-123 55.5q-69 0 -127 -38.5t-90 -96.5l-22 -131q14 -57 59 -94.5t111 -37.5q87 0 148 53t76 145z
" />
    <glyph glyph-name="c" unicode="c" horiz-adv-x="495" 
d="M37 246q13 83 62 140.5t109 81t125 23.5q84 0 143 -42l-9 -53q-50 43 -130 43q-55 0 -104 -19t-89 -65.5t-51 -114.5q-16 -97 35 -148t139 -51q79 0 155 42l-9 -59q-71 -35 -158 -35q-106 0 -171.5 67t-46.5 190z" />
    <glyph glyph-name="d" unicode="d" horiz-adv-x="618" 
d="M548 700h56l-111 -700h-50l16 102q-83 -113 -220 -113q-104 0 -162 72.5t-40 183.5q17 109 93.5 177.5t178.5 68.5q69 0 117.5 -31t70.5 -79zM486 307q-13 57 -58.5 94.5t-111.5 37.5q-83 0 -146 -53t-78 -145q-14 -89 31.5 -144.5t123.5 -55.5q69 0 127.5 39t89.5 96z
" />
    <glyph glyph-name="e" unicode="e" horiz-adv-x="547" 
d="M36 242q18 117 97.5 183t175.5 66q64 0 109.5 -25.5t64 -66t22 -90t-16.5 -97.5h-399q-8 -85 47.5 -128t137.5 -43q91 0 168 40l-9 -57q-70 -35 -168 -35q-49 0 -93 15.5t-79 45.5t-51 80t-6 112zM446 262q4 22 5.5 45.5t-7.5 47t-24 42.5t-44 30.5t-67 11.5
q-75 0 -135.5 -47.5t-77.5 -129.5h350z" />
    <glyph glyph-name="f" unicode="f" horiz-adv-x="369" 
d="M152 557q13 81 65.5 117.5t123.5 36.5q63 0 111 -23l-9 -51q-41 22 -96 22q-121 0 -139 -108l-11 -71h193l-8 -53h-194l-67 -427h-57l68 427h-87l8 53h87z" />
    <glyph glyph-name="g" unicode="g" horiz-adv-x="619" 
d="M494 -2q-18 -117 -98 -173t-187 -56q-115 0 -190 48l9 54q72 -50 176 -50q91 0 155 44t78 137l15 91q-36 -46 -91 -75t-122 -29q-105 0 -162.5 72.5t-39.5 183.5q17 109 95 177.5t180 68.5q134 0 189 -116l16 105h53zM92 241q-14 -89 30.5 -144.5t124.5 -55.5
q69 0 127.5 37.5t89.5 92.5l22 136q-13 57 -58 94.5t-112 37.5q-83 0 -146 -53t-78 -145z" />
    <glyph glyph-name="h" unicode="h" horiz-adv-x="584" 
d="M144 700h57l-49 -303q90 94 198 94q85 0 130 -54t32 -143l-47 -294h-57l46 291q12 72 -21 110t-96 38q-56 0 -108.5 -33t-87.5 -79l-51 -327h-57z" />
    <glyph glyph-name="i" unicode="i" horiz-adv-x="221" 
d="M93 0h-57l76 480h57zM202 622q-6 -34 -42 -34q-17 0 -27.5 11t-7.5 30q5 35 42 35q17 0 27.5 -11.5t7.5 -30.5z" />
    <glyph glyph-name="j" unicode="j" horiz-adv-x="221" 
d="M76 -102q-10 -69 -51 -99t-95 -30q-41 0 -74 14l8 50q26 -12 56 -12q87 0 102 89l90 570h57zM202 622q-6 -34 -42 -34q-17 0 -27.5 11t-7.5 30q5 35 42 35q17 0 27.5 -11.5t7.5 -30.5z" />
    <glyph glyph-name="k" unicode="k" horiz-adv-x="508" 
d="M444 480h68l-227 -234l172 -246h-64l-158 226h-110l-35 -226h-57l111 700h57l-67 -422h114z" />
    <glyph glyph-name="l" unicode="l" horiz-adv-x="221" 
d="M152 730h57l-116 -730h-57z" />
    <glyph glyph-name="m" unicode="m" horiz-adv-x="893" 
d="M477 399q94 92 195 92q82 0 122.5 -53.5t27.5 -136.5l-48 -301h-56l48 306q10 60 -18 96.5t-85 36.5q-92 0 -175 -95q0 -20 -3 -43l-48 -301h-57l49 306q9 60 -18.5 96.5t-84.5 36.5q-95 0 -183 -103l-53 -336h-57l76 480h51l-14 -82q33 36 83 64.5t105 28.5
q54 0 91 -24.5t52 -67.5z" />
    <glyph glyph-name="n" unicode="n" horiz-adv-x="584" 
d="M145 391q92 100 206 100q84 0 129 -54.5t32 -142.5l-47 -294h-57l46 291q12 72 -21 110t-96 38q-56 0 -108.5 -33t-87.5 -78l-51 -328h-57l76 480h51z" />
    <glyph glyph-name="o" unicode="o" horiz-adv-x="593" 
d="M540 235q-18 -115 -102.5 -180.5t-187.5 -65.5q-47 0 -89.5 17.5t-73.5 49t-45 81t-5 108.5q18 115 102.5 180.5t187.5 65.5q101 0 166.5 -69.5t46.5 -186.5zM92 238q-14 -89 33.5 -142t128.5 -53q85 0 150.5 53.5t80.5 145.5q14 89 -33.5 142t-128.5 53
q-85 0 -151 -53.5t-80 -145.5z" />
    <glyph glyph-name="p" unicode="p" horiz-adv-x="619" 
d="M144 378q86 113 220 113q102 0 160.5 -72.5t41.5 -183.5q-17 -109 -95 -177.5t-181 -68.5q-69 0 -115.5 31.5t-68.5 82.5l-51 -323h-57l111 700h51zM510 239q15 89 -30.5 144.5t-124.5 55.5q-68 0 -126.5 -39t-90.5 -97l-21 -130q13 -57 58.5 -94.5t111.5 -37.5
q83 0 145.5 53t77.5 145z" />
    <glyph glyph-name="q" unicode="q" horiz-adv-x="618" 
d="M37 245q17 109 95.5 177.5t179.5 68.5q67 0 116 -32t73 -83l17 104h51l-111 -700h-56l50 315q-36 -47 -91 -76.5t-122 -29.5q-104 0 -162 72.5t-40 183.5zM486 308q-13 56 -59 93.5t-111 37.5q-82 0 -145.5 -53.5t-78.5 -144.5q-14 -90 31 -145t124 -55q69 0 127.5 38.5
t89.5 95.5z" />
    <glyph glyph-name="r" unicode="r" horiz-adv-x="356" 
d="M143 371q79 127 230 119l-9 -58q-74 8 -136 -33t-92 -107l-46 -292h-57l76 480h51z" />
    <glyph glyph-name="s" unicode="s" horiz-adv-x="462" 
d="M57 365q9 63 67 94.5t132 31.5q95 0 161 -42l-8 -52q-64 43 -155 43q-54 0 -94.5 -20t-46.5 -60q-5 -34 25.5 -55.5t76 -34t90.5 -27.5t73 -47t20 -81q-10 -65 -68.5 -95.5t-138.5 -30.5q-110 0 -178 49l9 56q69 -53 171 -53q60 0 101.5 19.5t47.5 60.5q5 33 -24.5 54.5
t-75 34t-90.5 28t-73.5 47t-21.5 80.5z" />
    <glyph glyph-name="t" unicode="t" horiz-adv-x="389" 
d="M157 631l59 17l-27 -168h202l-8 -53h-202l-45 -281q-9 -56 14 -80.5t77 -24.5q57 0 111 27l-9 -55q-49 -24 -119 -24q-68 0 -105.5 39.5t-25.5 112.5l46 286h-90l8 53h90z" />
    <glyph glyph-name="u" unicode="u" horiz-adv-x="583" 
d="M477 480h57l-76 -480h-51l15 89q-33 -41 -87 -70.5t-113 -29.5q-87 0 -133.5 54.5t-32.5 144.5l46 292h57l-46 -291q-12 -72 20.5 -110t96.5 -38q60 0 110.5 32t84.5 80z" />
    <glyph glyph-name="v" unicode="v" horiz-adv-x="530" 
d="M481 480h62l-294 -480h-60l-141 480h59l120 -416z" />
    <glyph glyph-name="w" unicode="w" horiz-adv-x="795" 
d="M742 480h61l-248 -480h-59l-79 399l-209 -399h-61l-96 480h57l81 -408l212 405h51l81 -404z" />
    <glyph glyph-name="x" unicode="x" horiz-adv-x="486" 
d="M35 0h-67l236 247l-148 233h64l121 -194l185 194h67l-225 -235l158 -245h-64l-130 206z" />
    <glyph glyph-name="y" unicode="y" horiz-adv-x="535" 
d="M238 58l247 422h62l-332 -560q-90 -151 -193 -151q-30 0 -52 7l7 48q17 -5 40 -5q43 0 78.5 30t73.5 94l34 57l-160 480h57z" />
    <glyph glyph-name="z" unicode="z" horiz-adv-x="457" 
d="M77 480h364l-9 -50l-366 -380h319l-8 -50h-389l8 50l367 380h-294z" />
    <glyph glyph-name="braceleft" unicode="{" horiz-adv-x="287" 
d="M191 -60l-8 -51q-68 -12 -97.5 17.5t-19.5 90.5l39 243q13 84 -71 84l8 52q84 0 98 90l39 243q21 127 150 100l-8 -49q-40 7 -59.5 -12.5t-27.5 -68.5l-36 -229q-14 -83 -80 -101q62 -14 47 -104l-36 -229q-7 -45 6 -63.5t56 -12.5z" />
    <glyph glyph-name="bar" unicode="|" horiz-adv-x="206" 
d="M71 -100h-59l144 910h59z" />
    <glyph glyph-name="braceright" unicode="}" horiz-adv-x="285" 
d="M126 -8q-21 -130 -150 -101l8 52q39 -9 59 8.5t27 61.5l38 243q15 87 86 97q-30 7 -45.5 33.5t-8.5 70.5l37 230q7 47 -6 64.5t-57 10.5l8 49q67 13 96.5 -17t19.5 -91l-38 -242q-7 -46 13.5 -66.5t55.5 -20.5l-7 -50q-37 0 -64 -22t-34 -68z" />
    <glyph glyph-name="asciitilde" unicode="~" horiz-adv-x="582" 
d="M525 377q-3 -49 -33 -77t-76 -28q-38 0 -118.5 31t-113.5 31q-26 0 -42.5 -14t-17.5 -38h-53q4 49 34.5 77t74.5 28q40 0 119 -30.5t114 -30.5q25 0 41.5 13.5t17.5 37.5h53z" />
    <glyph glyph-name="exclamdown" unicode="&#xa1;" horiz-adv-x="203" 
d="M50 -217h-59l85 511h50zM165 449q-6 -34 -41 -34q-18 0 -28.5 11.5t-6.5 30.5q2 16 14 25t27 9q18 0 28.5 -11.5t6.5 -30.5z" />
    <glyph glyph-name="cent" unicode="&#xa2;" horiz-adv-x="511" 
d="M481 449l-9 -53q-49 41 -123 43l-62 -398q73 5 140 42l-9 -59q-64 -30 -140 -35l-17 -109h-50l18 111q-95 10 -150 75.5t-37 179.5q9 58 35.5 104t64 74.5t79.5 45t87 20.5l17 110h50l-17 -110q68 -3 123 -41zM299 436q-75 -12 -131 -61t-70 -135t25.5 -136.5
t113.5 -60.5z" />
    <glyph glyph-name="sterling" unicode="&#xa3;" horiz-adv-x="603" 
d="M517 0h-523l9 57h34q34 0 58 24.5t31 66.5l25 161h-83l9 55h83l16 99q12 81 53.5 134t92.5 73.5t112 20.5q81 0 142 -39l-9 -55q-57 39 -136 39q-73 0 -127.5 -42.5t-69.5 -135.5l-15 -94h237l-9 -55h-236l-27 -165q-10 -69 -55 -89l398 2z" />
    <glyph glyph-name="currency" unicode="&#xa4;" horiz-adv-x="575" 
d="M160 195l-76 -65l-34 40l73 63q-33 49 -23 121q12 69 59 116l-51 60l45 40l54 -64q53 33 117 33t111 -34l75 65l34 -40l-73 -63q33 -51 22 -121q-10 -67 -58 -116l52 -60l-46 -40l-54 64q-53 -33 -117 -33q-63 0 -110 34zM157 346q-10 -60 23 -96t93 -36q62 0 108.5 38.5
t56.5 101.5q10 60 -23 96t-93 36q-62 0 -108.5 -38t-56.5 -102z" />
    <glyph glyph-name="yen" unicode="&#xa5;" horiz-adv-x="655" 
d="M613 680h66l-293 -363h150l-8 -50h-177l-12 -74h178l-8 -50h-178l-23 -143h-59l23 143h-177l8 50h177l12 74h-177l8 50h150l-178 363h64l170 -355z" />
    <glyph glyph-name="brokenbar" unicode="&#xa6;" horiz-adv-x="223" 
d="M168 459h-59l55 351h59zM79 -100h-59l56 351h59z" />
    <glyph glyph-name="section" unicode="&#xa7;" horiz-adv-x="493" 
d="M398 90q-10 -62 -67.5 -93t-136.5 -31q-100 0 -168 46l8 53q70 -49 159 -49q61 0 102 19.5t47 60.5q3 17 -3.5 31.5t-16 23.5t-29.5 18t-35 14t-43 13q-30 9 -48 15t-42.5 18.5t-36.5 26t-19 36t-2 49.5q11 75 110 130q-73 38 -62 113q10 62 66.5 94.5t128.5 32.5
q83 0 153 -41l-8 -52q-60 43 -144 43q-53 0 -93 -22t-46 -61q-3 -18 4 -32t16.5 -23t32.5 -18.5t37 -13.5t45 -13q36 -10 59 -19.5t47 -25.5t33.5 -41t3.5 -58q-12 -74 -114 -129q74 -38 62 -115zM235 243q10 -3 27.5 -7.5t24.5 -6.5q41 15 72 42.5t37 61.5q3 22 -3.5 37.5
t-25 27t-33.5 17.5t-45 16q-7 2 -19.5 5.5t-22.5 6t-18 5.5q-39 -14 -70 -43t-36 -63q-3 -18 3 -32t13 -22.5t28 -18.5t30 -13t38 -13z" />
    <glyph glyph-name="dieresis" unicode="&#xa8;" horiz-adv-x="291" 
d="M399 833q-2 -16 -15 -27t-29 -11q-19 0 -30 13.5t-8 31.5q3 15 16 26.5t29 11.5q18 0 29 -14t8 -31zM198 833q-2 -16 -15 -27t-29 -11q-19 0 -30 13.5t-8 31.5q3 15 16 26.5t29 11.5q18 0 29 -14t8 -31z" />
    <glyph glyph-name="copyright" unicode="&#xa9;" horiz-adv-x="851" 
d="M809 345q-13 -86 -57 -156t-104.5 -112.5t-129 -65t-137.5 -22.5q-67 0 -129 24t-110.5 68t-71.5 115.5t-9 158.5q11 69 42 128.5t74 100.5t95.5 70t107.5 43t109 14q67 0 129 -24t110.5 -68t71.5 -115.5t9 -158.5zM558 182q-66 -33 -138 -33q-80 0 -133 52t-38 146
q16 101 86.5 152.5t153.5 51.5q71 0 119 -35l-4 -42q-47 33 -109 33q-71 0 -128 -40.5t-70 -124.5q-12 -75 28 -112t106 -37t131 34zM84 355q-13 -80 7.5 -147t64.5 -108.5t102 -64.5t121 -23q65 0 130 21t123 60.5t99.5 105t54.5 146.5q13 80 -7.5 147t-64 108.5
t-101.5 64.5t-121 23q-66 0 -131 -21t-123 -60.5t-99.5 -105t-54.5 -146.5z" />
    <glyph glyph-name="guillemotleft" unicode="&#xab;" horiz-adv-x="462" 
d="M365 63h-60l-94 171l2 14l147 169h62l-154 -177zM193 63h-60l-94 171l2 14l147 169h62l-154 -177z" />
    <glyph glyph-name="logicalnot" unicode="&#xac;" horiz-adv-x="575" 
d="M498 284h-57l23 142h-381l8 54h438z" />
    <glyph glyph-name="registered" unicode="&#xae;" horiz-adv-x="851" 
d="M809 345q-13 -86 -57 -156t-104.5 -112.5t-129 -65t-137.5 -22.5q-67 0 -129 24t-110.5 68t-71.5 115.5t-9 158.5q11 69 42 128.5t74 100.5t95.5 70t107.5 43t109 14q67 0 129 -24t110.5 -68t71.5 -115.5t9 -158.5zM84 355q-13 -80 7.5 -147t64.5 -108.5t102 -64.5
t121 -23q65 0 130 21t123 60.5t99.5 105t54.5 146.5q13 80 -7.5 147t-64 108.5t-101.5 64.5t-121 23q-66 0 -131 -21t-123 -60.5t-99.5 -105t-54.5 -146.5zM311 152h-43l62 394h160q19 0 37.5 -3t37.5 -12t32.5 -22.5t20 -36.5t1.5 -52q-14 -86 -105 -109l86 -159h-48
l-82 153q-8 -1 -22 -1h-113zM366 504l-25 -158h113q109 0 123 81q4 26 -4 42.5t-25.5 23.5t-31.5 9t-34 2h-116z" />
    <glyph glyph-name="macron" unicode="&#xaf;" horiz-adv-x="333" 
d="M140 847h280l-8 -52h-280z" />
    <glyph glyph-name="degree" unicode="&#xb0;" horiz-adv-x="392" 
d="M388 564q-10 -66 -59 -104.5t-110 -38.5q-62 0 -102 41.5t-29 110.5q11 65 61 103.5t110 38.5q61 0 100.5 -42t28.5 -109zM131 569q-7 -47 18.5 -76.5t69.5 -29.5q48 0 84 28t44 77q7 46 -18.5 75t-69.5 29q-48 0 -84 -27.5t-44 -75.5z" />
    <glyph glyph-name="plusminus" unicode="&#xb1;" horiz-adv-x="577" 
d="M366 591l-30 -191h192l-9 -54h-191l-31 -192h-54l31 192h-192l8 54h192l30 191h54zM464 0h-437l9 54h437z" />
    <glyph glyph-name="acute" unicode="&#xb4;" horiz-adv-x="177" 
d="M191 773h-63l112 142h72z" />
    <glyph glyph-name="paragraph" unicode="&#xb6;" horiz-adv-x="619" 
d="M232 -220h-59l81 507q-102 0 -152.5 55.5t-34.5 154.5q15 96 81.5 149.5t168.5 53.5h283l-146 -920h-59l136 863h-162z" />
    <glyph glyph-name="periodcentered" unicode="&#xb7;" horiz-adv-x="214" 
d="M138 235q-6 -35 -42 -35q-18 0 -29 11.5t-8 31.5q3 17 15 26t28 9q18 0 28.5 -11.5t7.5 -31.5z" />
    <glyph glyph-name="cedilla" unicode="&#xb8;" horiz-adv-x="213" 
d="M55 0h49l-30 -73q46 5 76.5 -15t25.5 -60q-6 -40 -40.5 -61.5t-89.5 -21.5t-104 21l8 46q40 -21 91 -21q80 0 87 42q2 18 -14.5 28t-43 10t-57.5 -6z" />
    <glyph glyph-name="guillemotright" unicode="&#xbb;" horiz-adv-x="462" 
d="M257 63h-62l154 177l-96 177h59l95 -171l-3 -14zM86 63h-62l154 177l-96 177h59l95 -171l-3 -14z" />
    <glyph glyph-name="onequarter" unicode="&#xbc;" horiz-adv-x="940" 
d="M792 408h54l-43 -271h77l-7 -46h-77l-15 -91h-48l14 91h-228l7 45zM754 137l32 202l-198 -202h166zM189 -12h-29l572 723h29zM221 680h37l-57 -361h73l-8 -47h-215l7 47h93l49 309l-92 -34l8 48z" />
    <glyph glyph-name="onehalf" unicode="&#xbd;" horiz-adv-x="893" 
d="M184 -12h-29l572 723h29zM594 378q64 37 134 37q58 0 95 -30.5t28 -82.5q-13 -77 -136 -140q-33 -17 -46.5 -25t-35.5 -23t-32.5 -31t-14.5 -36h229l-8 -47h-287l4 26q5 35 19.5 62.5t41 48.5t45.5 32.5t55 29.5q54 27 82.5 51.5t34.5 57.5q5 29 -17 45t-59 16
q-69 0 -140 -44zM216 680h37l-57 -361h73l-8 -47h-215l7 47h93l49 309l-92 -34l8 48z" />
    <glyph glyph-name="threequarters" unicode="&#xbe;" horiz-adv-x="992" 
d="M257 -12h-29l572 723h29zM843 408h54l-43 -271h77l-7 -46h-77l-15 -91h-48l14 91h-228l7 45zM805 137l32 202l-198 -202h166zM373 577q-5 -31 -26 -55t-55 -34q33 -8 53.5 -34.5t13.5 -70.5q-9 -55 -55.5 -84.5t-112.5 -29.5q-78 0 -136 28l8 48q53 -29 126 -29
q112 0 123 77q6 38 -17.5 54t-69.5 16h-64l7 47h57q43 0 69.5 19.5t31.5 50.5q4 29 -19.5 46.5t-64.5 17.5q-65 0 -130 -31l8 51q60 27 130 27q58 0 94 -33t29 -81z" />
    <glyph glyph-name="questiondown" unicode="&#xbf;" horiz-adv-x="483" 
d="M377 -176q-96 -54 -199 -54q-96 0 -153 45t-45 124q6 39 32.5 78.5t59.5 71.5t66.5 63t58.5 65t30 65h56q-7 -45 -44 -93t-78 -83t-77.5 -81t-43.5 -88q-9 -55 31 -82.5t119 -27.5q100 0 197 58zM321 449q-3 -17 -15 -26t-28 -9q-18 0 -28.5 11.5t-6.5 30.5q2 17 14 26
t28 9q18 0 29 -11.5t7 -30.5z" />
    <glyph glyph-name="Agrave" unicode="&#xc0;" horiz-adv-x="714" 
d="M656 0h-62l-53 188h-396l-112 -188h-67l422 700h68zM402 616l-224 -372h349l-106 373q-4 16 -5 24q-4 -9 -14 -25zM482 773h-61l-76 142h69z" />
    <glyph glyph-name="Aacute" unicode="&#xc1;" horiz-adv-x="714" 
d="M656 0h-62l-53 188h-396l-112 -188h-67l422 700h68zM402 616l-224 -372h349l-106 373q-4 16 -5 24q-4 -9 -14 -25zM451 773h-63l112 142h72z" />
    <glyph glyph-name="Acircumflex" unicode="&#xc2;" horiz-adv-x="714" 
d="M656 0h-62l-53 188h-396l-112 -188h-67l422 700h68zM402 616l-224 -372h349l-106 373q-4 16 -5 24q-4 -9 -14 -25zM427 911h51l108 -137h-62l-76 94l-105 -94h-67z" />
    <glyph glyph-name="Atilde" unicode="&#xc3;" horiz-adv-x="714" 
d="M656 0h-62l-53 188h-396l-112 -188h-67l422 700h68zM402 616l-224 -372h349l-106 373q-4 16 -5 24q-4 -9 -14 -25zM599 866q-1 -44 -24.5 -68t-58.5 -24q-32 0 -82 24t-69 24t-30 -11.5t-11 -31.5h-49q1 44 24.5 68.5t57.5 24.5q32 0 82.5 -24t69.5 -24q41 0 41 42h49z
" />
    <glyph glyph-name="Adieresis" unicode="&#xc4;" horiz-adv-x="714" 
d="M656 0h-62l-53 188h-396l-112 -188h-67l422 700h68zM402 616l-224 -372h349l-106 373q-4 16 -5 24q-4 -9 -14 -25zM581 833q-2 -16 -15 -27t-29 -11q-19 0 -30 13.5t-8 31.5q3 15 16 26.5t29 11.5q18 0 29 -14t8 -31zM380 833q-2 -16 -15 -27t-29 -11q-19 0 -30 13.5
t-8 31.5q3 15 16 26.5t29 11.5q18 0 29 -14t8 -31z" />
    <glyph glyph-name="Aring" unicode="&#xc5;" horiz-adv-x="714" 
d="M656 0h-62l-53 188h-396l-112 -188h-67l422 700h68zM402 616l-224 -372h349l-106 373q-4 16 -5 24q-4 -9 -14 -25zM549 845q-7 -43 -40 -69t-74 -26q-42 0 -69.5 28.5t-20.5 73.5q7 42 40.5 68t74.5 26q42 0 69 -28.5t20 -72.5zM388 848q-4 -25 10 -41.5t37 -16.5
q26 0 47 15.5t25 42.5q4 25 -10 41.5t-37 16.5q-26 0 -47 -15.5t-25 -42.5z" />
    <glyph glyph-name="AE" unicode="&#xc6;" horiz-adv-x="1000" 
d="M1007 700l-9 -57h-375l-41 -262h345l-9 -57h-345l-43 -267h382l-9 -57h-441l30 190h-314l-162 -190h-72l602 700h461zM224 244h276l63 395z" />
    <glyph glyph-name="Ccedilla" unicode="&#xc7;" horiz-adv-x="647" 
d="M653 606q-67 49 -170 49q-80 0 -155.5 -31.5t-134.5 -101.5t-75 -166q-12 -77 6.5 -138.5t59 -98t91.5 -55.5t108 -19q108 0 194 52l-10 -64q-78 -41 -185 -44l-25 -62q46 5 76.5 -15t25.5 -60q-6 -40 -40.5 -61.5t-89.5 -21.5t-104 21l8 46q40 -21 91 -21q80 0 87 42
q2 18 -14.5 28t-43 10t-57.5 -6l39 102q-62 6 -116 32.5t-95.5 71.5t-59.5 115t-4 154q18 109 86 190.5t154.5 119t176.5 37.5q107 0 185 -48z" />
    <glyph glyph-name="Egrave" unicode="&#xc8;" horiz-adv-x="621" 
d="M163 700h465l-9 -57h-406l-41 -262h375l-8 -57h-376l-42 -267h411l-9 -57h-471zM456 773h-61l-76 142h69z" />
    <glyph glyph-name="Eacute" unicode="&#xc9;" horiz-adv-x="621" 
d="M163 700h465l-9 -57h-406l-41 -262h375l-8 -57h-376l-42 -267h411l-9 -57h-471zM425 773h-63l112 142h72z" />
    <glyph glyph-name="Ecircumflex" unicode="&#xca;" horiz-adv-x="621" 
d="M163 700h465l-9 -57h-406l-41 -262h375l-8 -57h-376l-42 -267h411l-9 -57h-471zM401 911h51l108 -137h-62l-76 94l-105 -94h-67z" />
    <glyph glyph-name="Edieresis" unicode="&#xcb;" horiz-adv-x="621" 
d="M163 700h465l-9 -57h-406l-41 -262h375l-8 -57h-376l-42 -267h411l-9 -57h-471zM555 833q-2 -16 -15 -27t-29 -11q-19 0 -30 13.5t-8 31.5q3 15 16 26.5t29 11.5q18 0 29 -14t8 -31zM354 833q-2 -16 -15 -27t-29 -11q-19 0 -30 13.5t-8 31.5q3 15 16 26.5t29 11.5
q18 0 29 -14t8 -31z" />
    <glyph glyph-name="Igrave" unicode="&#xcc;" horiz-adv-x="255" 
d="M163 700h59l-111 -700h-59zM252 773h-61l-76 142h69z" />
    <glyph glyph-name="Iacute" unicode="&#xcd;" horiz-adv-x="255" 
d="M163 700h59l-111 -700h-59zM221 773h-63l112 142h72z" />
    <glyph glyph-name="Icircumflex" unicode="&#xce;" horiz-adv-x="255" 
d="M163 700h59l-111 -700h-59zM197 911h51l108 -137h-62l-76 94l-105 -94h-67z" />
    <glyph glyph-name="Idieresis" unicode="&#xcf;" horiz-adv-x="255" 
d="M163 700h59l-111 -700h-59zM351 833q-2 -16 -15 -27t-29 -11q-19 0 -30 13.5t-8 31.5q3 15 16 26.5t29 11.5q18 0 29 -14t8 -31zM150 833q-2 -16 -15 -27t-29 -11q-19 0 -30 13.5t-8 31.5q3 15 16 26.5t29 11.5q18 0 29 -14t8 -31z" />
    <glyph glyph-name="Eth" unicode="&#xd0;" horiz-adv-x="737" 
d="M165 700h214q177 0 260 -98t58 -256q-25 -157 -133 -251.5t-292 -94.5h-218l51 322h-74l8 54h74zM278 57q153 0 245 79.5t114 217.5q22 135 -44.5 212t-219.5 77h-159l-42 -267h232l-9 -54h-231l-42 -265h156z" />
    <glyph glyph-name="Ntilde" unicode="&#xd1;" horiz-adv-x="768" 
d="M111 0h-59l111 700h50l368 -604q1 11 4 30.5t4 30.5l87 543h59l-111 -700h-50l-368 605q-1 -12 -4 -31.5t-4 -29.5zM627 866q-1 -44 -24.5 -68t-58.5 -24q-32 0 -82 24t-69 24t-30 -11.5t-11 -31.5h-49q1 44 24.5 68.5t57.5 24.5q32 0 82.5 -24t69.5 -24q41 0 41 42h49z
" />
    <glyph glyph-name="Ograve" unicode="&#xd2;" horiz-adv-x="822" 
d="M784 346q-11 -68 -43 -130.5t-83 -114t-127 -82t-165 -30.5q-111 0 -188 54.5t-106 136.5t-15 174q11 68 44.5 131t85 114t127 81.5t161.5 30.5q84 0 150 -31.5t103 -83.5t52 -117t4 -133zM117 350q-5 -44 -2 -87t22.5 -82.5t49 -69.5t77 -48t106.5 -18q145 0 240.5 90.5
t114.5 214.5q5 44 2 87t-22.5 82.5t-49 69.5t-77 48t-106.5 18q-145 0 -240.5 -90.5t-114.5 -214.5zM536 773h-61l-76 142h69z" />
    <glyph glyph-name="Oacute" unicode="&#xd3;" horiz-adv-x="822" 
d="M784 346q-11 -68 -43 -130.5t-83 -114t-127 -82t-165 -30.5q-111 0 -188 54.5t-106 136.5t-15 174q11 68 44.5 131t85 114t127 81.5t161.5 30.5q84 0 150 -31.5t103 -83.5t52 -117t4 -133zM117 350q-5 -44 -2 -87t22.5 -82.5t49 -69.5t77 -48t106.5 -18q145 0 240.5 90.5
t114.5 214.5q5 44 2 87t-22.5 82.5t-49 69.5t-77 48t-106.5 18q-145 0 -240.5 -90.5t-114.5 -214.5zM505 773h-63l112 142h72z" />
    <glyph glyph-name="Ocircumflex" unicode="&#xd4;" horiz-adv-x="822" 
d="M784 346q-11 -68 -43 -130.5t-83 -114t-127 -82t-165 -30.5q-111 0 -188 54.5t-106 136.5t-15 174q11 68 44.5 131t85 114t127 81.5t161.5 30.5q84 0 150 -31.5t103 -83.5t52 -117t4 -133zM117 350q-5 -44 -2 -87t22.5 -82.5t49 -69.5t77 -48t106.5 -18q145 0 240.5 90.5
t114.5 214.5q5 44 2 87t-22.5 82.5t-49 69.5t-77 48t-106.5 18q-145 0 -240.5 -90.5t-114.5 -214.5zM481 911h51l108 -137h-62l-76 94l-105 -94h-67z" />
    <glyph glyph-name="Otilde" unicode="&#xd5;" horiz-adv-x="822" 
d="M784 346q-11 -68 -43 -130.5t-83 -114t-127 -82t-165 -30.5q-111 0 -188 54.5t-106 136.5t-15 174q11 68 44.5 131t85 114t127 81.5t161.5 30.5q84 0 150 -31.5t103 -83.5t52 -117t4 -133zM117 350q-5 -44 -2 -87t22.5 -82.5t49 -69.5t77 -48t106.5 -18q145 0 240.5 90.5
t114.5 214.5q5 44 2 87t-22.5 82.5t-49 69.5t-77 48t-106.5 18q-145 0 -240.5 -90.5t-114.5 -214.5zM653 866q-1 -44 -24.5 -68t-58.5 -24q-32 0 -82 24t-69 24t-30 -11.5t-11 -31.5h-49q1 44 24.5 68.5t57.5 24.5q32 0 82.5 -24t69.5 -24q41 0 41 42h49z" />
    <glyph glyph-name="Odieresis" unicode="&#xd6;" horiz-adv-x="822" 
d="M784 346q-11 -68 -43 -130.5t-83 -114t-127 -82t-165 -30.5q-111 0 -188 54.5t-106 136.5t-15 174q11 68 44.5 131t85 114t127 81.5t161.5 30.5q84 0 150 -31.5t103 -83.5t52 -117t4 -133zM117 350q-5 -44 -2 -87t22.5 -82.5t49 -69.5t77 -48t106.5 -18q145 0 240.5 90.5
t114.5 214.5q5 44 2 87t-22.5 82.5t-49 69.5t-77 48t-106.5 18q-145 0 -240.5 -90.5t-114.5 -214.5zM635 833q-2 -16 -15 -27t-29 -11q-19 0 -30 13.5t-8 31.5q3 15 16 26.5t29 11.5q18 0 29 -14t8 -31zM434 833q-2 -16 -15 -27t-29 -11q-19 0 -30 13.5t-8 31.5
q3 15 16 26.5t29 11.5q18 0 29 -14t8 -31z" />
    <glyph glyph-name="multiply" unicode="&#xd7;" horiz-adv-x="458" 
d="M233 315l-152 -131l-31 37l151 130l-110 130l41 37l110 -130l151 130l32 -37l-152 -130l110 -131l-41 -36z" />
    <glyph glyph-name="Oslash" unicode="&#xd8;" horiz-adv-x="822" 
d="M98 -48h-59l105 119q-55 52 -77 127t-10 156q11 68 44.5 131t85 114t127 81.5t161.5 30.5q111 0 189 -54l80 91h59l-106 -119q55 -52 77.5 -127t9.5 -156q-11 -68 -43 -130.5t-83 -114t-127 -82t-165 -30.5q-110 0 -188 54zM116 350q-10 -66 6.5 -128.5t60.5 -106.5
l441 498q-63 42 -152 42q-145 0 -241 -90.5t-115 -214.5zM217 87q63 -42 153 -42q145 0 240.5 90.5t114.5 214.5q22 147 -67 235z" />
    <glyph glyph-name="Ugrave" unicode="&#xd9;" horiz-adv-x="753" 
d="M669 700h59l-71 -452q-22 -137 -108 -198t-213 -61q-61 0 -110 14t-86 44t-52 82t-4 123l71 448h59l-71 -450q-32 -205 192 -205q230 0 264 209zM495 773h-61l-76 142h69z" />
    <glyph glyph-name="Uacute" unicode="&#xda;" horiz-adv-x="753" 
d="M669 700h59l-71 -452q-22 -137 -108 -198t-213 -61q-61 0 -110 14t-86 44t-52 82t-4 123l71 448h59l-71 -450q-32 -205 192 -205q230 0 264 209zM464 773h-63l112 142h72z" />
    <glyph glyph-name="Ucircumflex" unicode="&#xdb;" horiz-adv-x="753" 
d="M669 700h59l-71 -452q-22 -137 -108 -198t-213 -61q-61 0 -110 14t-86 44t-52 82t-4 123l71 448h59l-71 -450q-32 -205 192 -205q230 0 264 209zM440 911h51l108 -137h-62l-76 94l-105 -94h-67z" />
    <glyph glyph-name="Udieresis" unicode="&#xdc;" horiz-adv-x="753" 
d="M669 700h59l-71 -452q-22 -137 -108 -198t-213 -61q-61 0 -110 14t-86 44t-52 82t-4 123l71 448h59l-71 -450q-32 -205 192 -205q230 0 264 209zM594 833q-2 -16 -15 -27t-29 -11q-19 0 -30 13.5t-8 31.5q3 15 16 26.5t29 11.5q18 0 29 -14t8 -31zM393 833
q-2 -16 -15 -27t-29 -11q-19 0 -30 13.5t-8 31.5q3 15 16 26.5t29 11.5q18 0 29 -14t8 -31z" />
    <glyph glyph-name="Yacute" unicode="&#xdd;" horiz-adv-x="643" 
d="M305 0h-60l44 273l-207 427h62l181 -370l299 370h68l-343 -427zM409 773h-63l112 142h72z" />
    <glyph glyph-name="Thorn" unicode="&#xde;" horiz-adv-x="655" 
d="M202 572h171q60 0 108.5 -11t87.5 -36t56 -70.5t7 -108.5q-36 -218 -328 -218h-172l-21 -128h-59l111 700h59zM140 184h172q233 0 260 170q14 90 -42.5 126t-158.5 36h-178z" />
    <glyph glyph-name="germandbls" unicode="&#xdf;" horiz-adv-x="594" 
d="M534 145q-13 -77 -77.5 -116.5t-145.5 -39.5q-73 0 -126 28l8 49q48 -27 109 -27q67 0 117 28.5t59 87.5q5 34 -13.5 68t-43.5 57.5t-44.5 52.5t-15.5 53q4 27 27 54t47 58t29 66q6 40 -25 68.5t-89 28.5q-71 0 -120 -41t-60 -113l-80 -507h-57l79 502q16 99 79.5 154
t158.5 55q89 1 134.5 -45t36.5 -103q-6 -37 -30.5 -69t-47.5 -58t-26 -49q-3 -18 10 -37.5t32.5 -39.5t38.5 -43t30.5 -55t5.5 -67z" />
    <glyph glyph-name="agrave" unicode="&#xe0;" horiz-adv-x="618" 
d="M458 99q-87 -110 -219 -110q-104 0 -162 72.5t-40 183.5q17 109 95.5 177.5t179.5 68.5q68 0 116.5 -31.5t73.5 -80.5l16 101h51l-76 -480h-51zM92 241q-14 -90 31 -145t124 -55q69 0 127.5 38.5t89.5 95.5l21 132q-12 56 -58 94t-111 38q-82 0 -145.5 -53.5
t-78.5 -144.5zM390 553h-61l-76 142h69z" />
    <glyph glyph-name="aacute" unicode="&#xe1;" horiz-adv-x="618" 
d="M458 99q-87 -110 -219 -110q-104 0 -162 72.5t-40 183.5q17 109 95.5 177.5t179.5 68.5q68 0 116.5 -31.5t73.5 -80.5l16 101h51l-76 -480h-51zM92 241q-14 -90 31 -145t124 -55q69 0 127.5 38.5t89.5 95.5l21 132q-12 56 -58 94t-111 38q-82 0 -145.5 -53.5
t-78.5 -144.5zM359 553h-63l112 142h72z" />
    <glyph glyph-name="acircumflex" unicode="&#xe2;" horiz-adv-x="618" 
d="M458 99q-87 -110 -219 -110q-104 0 -162 72.5t-40 183.5q17 109 95.5 177.5t179.5 68.5q68 0 116.5 -31.5t73.5 -80.5l16 101h51l-76 -480h-51zM92 241q-14 -90 31 -145t124 -55q69 0 127.5 38.5t89.5 95.5l21 132q-12 56 -58 94t-111 38q-82 0 -145.5 -53.5
t-78.5 -144.5zM335 691h51l108 -137h-62l-76 94l-105 -94h-67z" />
    <glyph glyph-name="atilde" unicode="&#xe3;" horiz-adv-x="618" 
d="M458 99q-87 -110 -219 -110q-104 0 -162 72.5t-40 183.5q17 109 95.5 177.5t179.5 68.5q68 0 116.5 -31.5t73.5 -80.5l16 101h51l-76 -480h-51zM92 241q-14 -90 31 -145t124 -55q69 0 127.5 38.5t89.5 95.5l21 132q-12 56 -58 94t-111 38q-82 0 -145.5 -53.5
t-78.5 -144.5zM507 646q-1 -44 -24.5 -68t-58.5 -24q-32 0 -82 24t-69 24t-30 -11.5t-11 -31.5h-49q1 44 24.5 68.5t57.5 24.5q32 0 82.5 -24t69.5 -24q41 0 41 42h49z" />
    <glyph glyph-name="adieresis" unicode="&#xe4;" horiz-adv-x="618" 
d="M458 99q-87 -110 -219 -110q-104 0 -162 72.5t-40 183.5q17 109 95.5 177.5t179.5 68.5q68 0 116.5 -31.5t73.5 -80.5l16 101h51l-76 -480h-51zM92 241q-14 -90 31 -145t124 -55q69 0 127.5 38.5t89.5 95.5l21 132q-12 56 -58 94t-111 38q-82 0 -145.5 -53.5
t-78.5 -144.5zM489 613q-2 -16 -15 -27t-29 -11q-19 0 -30 13.5t-8 31.5q3 15 16 26.5t29 11.5q18 0 29 -14t8 -31zM288 613q-2 -16 -15 -27t-29 -11q-19 0 -30 13.5t-8 31.5q3 15 16 26.5t29 11.5q18 0 29 -14t8 -31z" />
    <glyph glyph-name="aring" unicode="&#xe5;" horiz-adv-x="618" 
d="M458 99q-87 -110 -219 -110q-104 0 -162 72.5t-40 183.5q17 109 95.5 177.5t179.5 68.5q68 0 116.5 -31.5t73.5 -80.5l16 101h51l-76 -480h-51zM92 241q-14 -90 31 -145t124 -55q69 0 127.5 38.5t89.5 95.5l21 132q-12 56 -58 94t-111 38q-82 0 -145.5 -53.5
t-78.5 -144.5zM457 625q-7 -43 -40 -69t-74 -26q-42 0 -69.5 28.5t-20.5 73.5q7 42 40.5 68t74.5 26q42 0 69 -28.5t20 -72.5zM296 628q-4 -25 10 -41.5t37 -16.5q26 0 47 15.5t25 42.5q4 25 -10 41.5t-37 16.5q-26 0 -47 -15.5t-25 -42.5z" />
    <glyph glyph-name="ae" unicode="&#xe6;" horiz-adv-x="992" 
d="M458 99q-87 -110 -219 -110q-104 0 -162 72.5t-40 183.5q17 109 95.5 177.5t179.5 68.5q68 0 116.5 -31.5t73.5 -80.5l16 101h51l-16 -106q35 57 90.5 87t118.5 30q65 0 109 -25.5t61.5 -66.5t18 -89.5t-17.5 -97.5h-399q-8 -85 47.5 -128t137.5 -43q88 0 165 40l-9 -57
q-70 -35 -166 -35q-66 0 -122.5 32t-74.5 93l-19 -114h-51zM92 241q-14 -90 31 -145t124 -55q69 0 127.5 38.5t89.5 95.5l21 132q-12 55 -58 93.5t-111 38.5q-82 0 -145.5 -53.5t-78.5 -144.5zM756 439q-77 0 -138 -49t-76 -128h349q10 27 6 58t-16 57.5t-44.5 44
t-80.5 17.5z" />
    <glyph glyph-name="ccedilla" unicode="&#xe7;" horiz-adv-x="495" 
d="M467 396q-50 43 -130 43q-86 0 -156.5 -49.5t-87.5 -149.5q-15 -97 36 -148t139 -51q77 0 155 42l-9 -59q-65 -32 -145 -35l-25 -62q46 5 76.5 -15t25.5 -60q-6 -40 -40.5 -61.5t-89.5 -21.5q-54 0 -103 21l8 46q40 -21 91 -21q81 0 86 42q4 26 -33 35t-82 -3l39 102
q-93 11 -147.5 76.5t-36.5 178.5q19 121 105.5 183t189.5 62q85 0 144 -42z" />
    <glyph glyph-name="egrave" unicode="&#xe8;" horiz-adv-x="547" 
d="M36 242q18 117 97.5 183t175.5 66q64 0 109.5 -25.5t64 -66t22 -90t-16.5 -97.5h-399q-8 -85 47.5 -128t137.5 -43q91 0 168 40l-9 -57q-70 -35 -168 -35q-49 0 -93 15.5t-79 45.5t-51 80t-6 112zM446 262q4 22 5.5 45.5t-7.5 47t-24 42.5t-44 30.5t-67 11.5
q-75 0 -135.5 -47.5t-77.5 -129.5h350zM369 553h-61l-76 142h69z" />
    <glyph glyph-name="eacute" unicode="&#xe9;" horiz-adv-x="547" 
d="M36 242q18 117 97.5 183t175.5 66q64 0 109.5 -25.5t64 -66t22 -90t-16.5 -97.5h-399q-8 -85 47.5 -128t137.5 -43q91 0 168 40l-9 -57q-70 -35 -168 -35q-49 0 -93 15.5t-79 45.5t-51 80t-6 112zM446 262q4 22 5.5 45.5t-7.5 47t-24 42.5t-44 30.5t-67 11.5
q-75 0 -135.5 -47.5t-77.5 -129.5h350zM338 553h-63l112 142h72z" />
    <glyph glyph-name="ecircumflex" unicode="&#xea;" horiz-adv-x="547" 
d="M36 242q18 117 97.5 183t175.5 66q64 0 109.5 -25.5t64 -66t22 -90t-16.5 -97.5h-399q-8 -85 47.5 -128t137.5 -43q91 0 168 40l-9 -57q-70 -35 -168 -35q-49 0 -93 15.5t-79 45.5t-51 80t-6 112zM446 262q4 22 5.5 45.5t-7.5 47t-24 42.5t-44 30.5t-67 11.5
q-75 0 -135.5 -47.5t-77.5 -129.5h350zM314 691h51l108 -137h-62l-76 94l-105 -94h-67z" />
    <glyph glyph-name="edieresis" unicode="&#xeb;" horiz-adv-x="547" 
d="M36 242q18 117 97.5 183t175.5 66q64 0 109.5 -25.5t64 -66t22 -90t-16.5 -97.5h-399q-8 -85 47.5 -128t137.5 -43q91 0 168 40l-9 -57q-70 -35 -168 -35q-49 0 -93 15.5t-79 45.5t-51 80t-6 112zM446 262q4 22 5.5 45.5t-7.5 47t-24 42.5t-44 30.5t-67 11.5
q-75 0 -135.5 -47.5t-77.5 -129.5h350zM468 613q-2 -16 -15 -27t-29 -11q-19 0 -30 13.5t-8 31.5q3 15 16 26.5t29 11.5q18 0 29 -14t8 -31zM267 613q-2 -16 -15 -27t-29 -11q-19 0 -30 13.5t-8 31.5q3 15 16 26.5t29 11.5q18 0 29 -14t8 -31z" />
    <glyph glyph-name="igrave" unicode="&#xec;" horiz-adv-x="221" 
d="M191 553h-57l-53 142h69zM93 0h-57l76 480h57z" />
    <glyph glyph-name="iacute" unicode="&#xed;" horiz-adv-x="221" 
d="M93 0h-57l76 480h57zM170 553h-63l112 142h72z" />
    <glyph glyph-name="icircumflex" unicode="&#xee;" horiz-adv-x="221" 
d="M93 0h-57l76 480h57zM80 554h-67l134 137h51l91 -137h-61l-59 94z" />
    <glyph glyph-name="idieresis" unicode="&#xef;" horiz-adv-x="221" 
d="M93 0h-57l76 480h57zM120 613q-2 -14 -14.5 -24.5t-27.5 -10.5q-17 0 -27 12.5t-7 29.5q3 14 15 24.5t26 10.5q17 0 27.5 -12.5t7.5 -29.5zM274 613q-2 -14 -14.5 -24.5t-27.5 -10.5q-17 0 -27 12.5t-7 29.5q3 14 15 24.5t26 10.5q17 0 27.5 -12.5t7.5 -29.5z" />
    <glyph glyph-name="eth" unicode="&#xf0;" horiz-adv-x="595" 
d="M536 265q-21 -131 -100 -203.5t-190 -72.5q-107 0 -167.5 65.5t-43.5 171.5q15 95 91 157.5t170 62.5q76 0 130.5 -38t64.5 -102q0 3 1 8t1.5 9.5t0.5 9.5q13 205 -153 280l-121 -105l-29 33l103 88q-56 17 -135 17l6 54q95 0 173 -31l101 86l28 -33l-86 -74
q199 -104 155 -383zM91 219q-13 -80 31 -128t127 -48q79 0 134.5 44t80.5 119q12 86 -34.5 136.5t-126.5 50.5t-140 -48.5t-72 -125.5z" />
    <glyph glyph-name="ntilde" unicode="&#xf1;" horiz-adv-x="584" 
d="M145 391q92 100 206 100q84 0 129 -54.5t32 -142.5l-47 -294h-57l46 291q12 72 -21 110t-96 38q-56 0 -108.5 -33t-87.5 -78l-51 -328h-57l76 480h51zM502 646q-1 -44 -24.5 -68t-58.5 -24q-32 0 -82 24t-69 24t-30 -11.5t-11 -31.5h-49q1 44 24.5 68.5t57.5 24.5
q32 0 82.5 -24t69.5 -24q41 0 41 42h49z" />
    <glyph glyph-name="ograve" unicode="&#xf2;" horiz-adv-x="593" 
d="M540 235q-18 -115 -102.5 -180.5t-187.5 -65.5q-47 0 -89.5 17.5t-73.5 49t-45 81t-5 108.5q18 115 102.5 180.5t187.5 65.5q101 0 166.5 -69.5t46.5 -186.5zM92 238q-14 -89 33.5 -142t128.5 -53q85 0 150.5 53.5t80.5 145.5q14 89 -33.5 142t-128.5 53
q-85 0 -151 -53.5t-80 -145.5zM383 550h-61l-76 142h69z" />
    <glyph glyph-name="oacute" unicode="&#xf3;" horiz-adv-x="593" 
d="M540 235q-18 -115 -102.5 -180.5t-187.5 -65.5q-47 0 -89.5 17.5t-73.5 49t-45 81t-5 108.5q18 115 102.5 180.5t187.5 65.5q101 0 166.5 -69.5t46.5 -186.5zM92 238q-14 -89 33.5 -142t128.5 -53q85 0 150.5 53.5t80.5 145.5q14 89 -33.5 142t-128.5 53
q-85 0 -151 -53.5t-80 -145.5zM352 550h-63l112 142h72z" />
    <glyph glyph-name="ocircumflex" unicode="&#xf4;" horiz-adv-x="593" 
d="M540 235q-18 -115 -102.5 -180.5t-187.5 -65.5q-47 0 -89.5 17.5t-73.5 49t-45 81t-5 108.5q18 115 102.5 180.5t187.5 65.5q101 0 166.5 -69.5t46.5 -186.5zM92 238q-14 -89 33.5 -142t128.5 -53q85 0 150.5 53.5t80.5 145.5q14 89 -33.5 142t-128.5 53
q-85 0 -151 -53.5t-80 -145.5zM328 688h51l108 -137h-62l-76 94l-105 -94h-67z" />
    <glyph glyph-name="otilde" unicode="&#xf5;" horiz-adv-x="593" 
d="M540 235q-18 -115 -102.5 -180.5t-187.5 -65.5q-47 0 -89.5 17.5t-73.5 49t-45 81t-5 108.5q18 115 102.5 180.5t187.5 65.5q101 0 166.5 -69.5t46.5 -186.5zM92 238q-14 -89 33.5 -142t128.5 -53q85 0 150.5 53.5t80.5 145.5q14 89 -33.5 142t-128.5 53
q-85 0 -151 -53.5t-80 -145.5zM500 643q-1 -44 -24.5 -68t-58.5 -24q-32 0 -82 24t-69 24t-30 -11.5t-11 -31.5h-49q1 44 24.5 68.5t57.5 24.5q32 0 82.5 -24t69.5 -24q41 0 41 42h49z" />
    <glyph glyph-name="odieresis" unicode="&#xf6;" horiz-adv-x="593" 
d="M540 235q-18 -115 -102.5 -180.5t-187.5 -65.5q-47 0 -89.5 17.5t-73.5 49t-45 81t-5 108.5q18 115 102.5 180.5t187.5 65.5q101 0 166.5 -69.5t46.5 -186.5zM92 238q-14 -89 33.5 -142t128.5 -53q85 0 150.5 53.5t80.5 145.5q14 89 -33.5 142t-128.5 53
q-85 0 -151 -53.5t-80 -145.5zM482 610q-2 -16 -15 -27t-29 -11q-19 0 -30 13.5t-8 31.5q3 15 16 26.5t29 11.5q18 0 29 -14t8 -31zM281 610q-2 -16 -15 -27t-29 -11q-19 0 -30 13.5t-8 31.5q3 15 16 26.5t29 11.5q18 0 29 -14t8 -31z" />
    <glyph glyph-name="divide" unicode="&#xf7;" horiz-adv-x="635" 
d="M563 323h-480l8 54h480zM330 122q-4 -35 -42 -35q-18 0 -28.5 11t-7.5 31q6 35 42 35q19 0 29.5 -11t6.5 -31zM402 569q-6 -35 -43 -35q-18 0 -28.5 11.5t-6.5 30.5q2 17 14 26t28 9q19 0 29 -11t7 -31z" />
    <glyph glyph-name="oslash" unicode="&#xf8;" horiz-adv-x="593" 
d="M559 543l-84 -103q85 -75 65 -205q-18 -115 -102.5 -180.5t-187.5 -65.5q-65 0 -117 31l-63 -79h-52l83 102q-85 73 -64 202q18 115 102.5 180.5t187.5 65.5q63 0 115 -29l65 81h52zM322 437q-84 0 -150 -53.5t-80 -145.5q-16 -97 44 -152l269 332q-35 19 -83 19zM254 43
q85 0 151 53.5t80 145.5q16 99 -46 154l-270 -333q38 -20 85 -20z" />
    <glyph glyph-name="ugrave" unicode="&#xf9;" horiz-adv-x="583" 
d="M477 480h57l-76 -480h-51l15 89q-33 -41 -87 -70.5t-113 -29.5q-87 0 -133.5 54.5t-32.5 144.5l46 292h57l-46 -291q-12 -72 20.5 -110t96.5 -38q60 0 110.5 32t84.5 80zM373 553h-61l-76 142h69z" />
    <glyph glyph-name="uacute" unicode="&#xfa;" horiz-adv-x="583" 
d="M477 480h57l-76 -480h-51l15 89q-33 -41 -87 -70.5t-113 -29.5q-87 0 -133.5 54.5t-32.5 144.5l46 292h57l-46 -291q-12 -72 20.5 -110t96.5 -38q60 0 110.5 32t84.5 80zM342 553h-63l112 142h72z" />
    <glyph glyph-name="ucircumflex" unicode="&#xfb;" horiz-adv-x="583" 
d="M477 480h57l-76 -480h-51l15 89q-33 -41 -87 -70.5t-113 -29.5q-87 0 -133.5 54.5t-32.5 144.5l46 292h57l-46 -291q-12 -72 20.5 -110t96.5 -38q60 0 110.5 32t84.5 80zM318 691h51l108 -137h-62l-76 94l-105 -94h-67z" />
    <glyph glyph-name="udieresis" unicode="&#xfc;" horiz-adv-x="583" 
d="M477 480h57l-76 -480h-51l15 89q-33 -41 -87 -70.5t-113 -29.5q-87 0 -133.5 54.5t-32.5 144.5l46 292h57l-46 -291q-12 -72 20.5 -110t96.5 -38q60 0 110.5 32t84.5 80zM472 613q-2 -16 -15 -27t-29 -11q-19 0 -30 13.5t-8 31.5q3 15 16 26.5t29 11.5q18 0 29 -14t8 -31
zM271 613q-2 -16 -15 -27t-29 -11q-19 0 -30 13.5t-8 31.5q3 15 16 26.5t29 11.5q18 0 29 -14t8 -31z" />
    <glyph glyph-name="yacute" unicode="&#xfd;" horiz-adv-x="535" 
d="M238 58l247 422h62l-332 -560q-90 -151 -193 -151q-30 0 -52 7l7 48q17 -5 40 -5q43 0 78.5 30t73.5 94l34 57l-160 480h57zM313 553h-63l112 142h72z" />
    <glyph glyph-name="thorn" unicode="&#xfe;" horiz-adv-x="619" 
d="M55 -220h-57l146 920h57l-51 -318q84 109 214 109q102 0 160.5 -72.5t41.5 -183.5q-17 -109 -95 -177.5t-181 -68.5q-69 0 -115.5 31.5t-68.5 82.5zM117 173q13 -57 58.5 -94.5t111.5 -37.5q83 0 145.5 53t77.5 145q15 89 -30.5 144.5t-124.5 55.5q-68 0 -126.5 -39
t-90.5 -97z" />
    <glyph glyph-name="ydieresis" unicode="&#xff;" horiz-adv-x="535" 
d="M238 58l247 422h62l-332 -560q-90 -151 -193 -151q-30 0 -52 7l7 48q17 -5 40 -5q43 0 78.5 30t73.5 94l34 57l-160 480h57zM443 613q-2 -16 -15 -27t-29 -11q-19 0 -30 13.5t-8 31.5q3 15 16 26.5t29 11.5q18 0 29 -14t8 -31zM242 613q-2 -16 -15 -27t-29 -11
q-19 0 -30 13.5t-8 31.5q3 15 16 26.5t29 11.5q18 0 29 -14t8 -31z" />
    <glyph glyph-name="Amacron" unicode="&#x100;" horiz-adv-x="714" 
d="M656 0h-62l-53 188h-396l-112 -188h-67l422 700h68zM402 616l-224 -372h349l-106 373q-4 16 -5 24q-4 -9 -14 -25zM308 847h280l-8 -52h-280z" />
    <glyph glyph-name="amacron" unicode="&#x101;" horiz-adv-x="618" 
d="M458 99q-87 -110 -219 -110q-104 0 -162 72.5t-40 183.5q17 109 95.5 177.5t179.5 68.5q68 0 116.5 -31.5t73.5 -80.5l16 101h51l-76 -480h-51zM92 241q-14 -90 31 -145t124 -55q69 0 127.5 38.5t89.5 95.5l21 132q-12 56 -58 94t-111 38q-82 0 -145.5 -53.5
t-78.5 -144.5zM216 627h280l-8 -52h-280z" />
    <glyph glyph-name="Abreve" unicode="&#x102;" horiz-adv-x="714" 
d="M656 0h-62l-53 188h-396l-112 -188h-67l422 700h68zM402 616l-224 -372h349l-106 373q-4 16 -5 24q-4 -9 -14 -25zM574 819q-62 -41 -138 -41q-81 0 -129 41l9 57q53 -44 125 -44q74 0 141 44z" />
    <glyph glyph-name="abreve" unicode="&#x103;" horiz-adv-x="618" 
d="M458 99q-87 -110 -219 -110q-104 0 -162 72.5t-40 183.5q17 109 95.5 177.5t179.5 68.5q68 0 116.5 -31.5t73.5 -80.5l16 101h51l-76 -480h-51zM92 241q-14 -90 31 -145t124 -55q69 0 127.5 38.5t89.5 95.5l21 132q-12 56 -58 94t-111 38q-82 0 -145.5 -53.5
t-78.5 -144.5zM482 599q-62 -41 -138 -41q-81 0 -129 41l9 57q53 -44 125 -44q74 0 141 44z" />
    <glyph glyph-name="Aogonek" unicode="&#x104;" horiz-adv-x="714" 
d="M656 0q-51 -32 -86.5 -69.5t-39.5 -69.5q-4 -21 7.5 -33t35.5 -12q27 0 55 15l-7 -49q-30 -13 -63 -13q-46 0 -67.5 24.5t-15.5 63.5q11 70 116 155l-50 176h-396l-112 -188h-67l422 700h68zM402 616l-224 -372h349l-106 373q-4 16 -5 24q-4 -9 -14 -25z" />
    <glyph glyph-name="aogonek" unicode="&#x105;" horiz-adv-x="618" 
d="M569 480l-76 -480q-50 -31 -84.5 -69t-38.5 -70q-4 -21 7 -33.5t33 -12.5q27 0 55 11l-8 -48q-27 -9 -61 -9q-44 0 -65.5 24.5t-15.5 63.5q11 73 129 158l14 84q-87 -110 -219 -110q-104 0 -162 72.5t-40 183.5q17 109 95.5 177.5t179.5 68.5q68 0 116.5 -31.5
t73.5 -80.5l16 101h51zM92 241q-14 -90 31 -145t124 -55q69 0 127.5 38.5t89.5 95.5l21 132q-12 56 -58 94t-111 38q-82 0 -145.5 -53.5t-78.5 -144.5z" />
    <glyph glyph-name="Cacute" unicode="&#x106;" horiz-adv-x="647" 
d="M60 364q18 109 86 190.5t154.5 119t176.5 37.5q107 0 185 -48l-9 -57q-67 49 -170 49q-80 0 -155.5 -31.5t-134.5 -101.5t-75 -166q-12 -77 6.5 -138.5t59 -98t91.5 -55.5t108 -19q108 0 194 52l-10 -64q-85 -44 -199 -44q-66 0 -126 24t-107 69t-68.5 118.5t-6.5 163.5z
M509 773h-63l112 142h72z" />
    <glyph glyph-name="cacute" unicode="&#x107;" horiz-adv-x="495" 
d="M37 246q13 83 62 140.5t109 81t125 23.5q84 0 143 -42l-9 -53q-50 43 -130 43q-55 0 -104 -19t-89 -65.5t-51 -114.5q-16 -97 35 -148t139 -51q79 0 155 42l-9 -59q-71 -35 -158 -35q-106 0 -171.5 67t-46.5 190zM352 553h-63l112 142h72z" />
    <glyph glyph-name="Cdotaccent" unicode="&#x10a;" horiz-adv-x="647" 
d="M60 364q18 109 86 190.5t154.5 119t176.5 37.5q107 0 185 -48l-9 -57q-67 49 -170 49q-80 0 -155.5 -31.5t-134.5 -101.5t-75 -166q-12 -77 6.5 -138.5t59 -98t91.5 -55.5t108 -19q108 0 194 52l-10 -64q-85 -44 -199 -44q-66 0 -126 24t-107 69t-68.5 118.5t-6.5 163.5z
M540 819q-3 -20 -17 -31t-33 -11q-21 0 -33.5 13.5t-8.5 36.5q4 19 18 30t32 11q22 0 34 -13t8 -36z" />
    <glyph glyph-name="cdotaccent" unicode="&#x10b;" horiz-adv-x="495" 
d="M37 246q13 83 62 140.5t109 81t125 23.5q84 0 143 -42l-9 -53q-50 43 -130 43q-55 0 -104 -19t-89 -65.5t-51 -114.5q-16 -97 35 -148t139 -51q79 0 155 42l-9 -59q-71 -35 -158 -35q-106 0 -171.5 67t-46.5 190zM383 599q-3 -20 -17 -31t-33 -11q-21 0 -33.5 13.5
t-8.5 36.5q4 19 18 30t32 11q22 0 34 -13t8 -36z" />
    <glyph glyph-name="Ccaron" unicode="&#x10c;" horiz-adv-x="647" 
d="M60 364q18 109 86 190.5t154.5 119t176.5 37.5q107 0 185 -48l-9 -57q-67 49 -170 49q-80 0 -155.5 -31.5t-134.5 -101.5t-75 -166q-12 -77 6.5 -138.5t59 -98t91.5 -55.5t108 -19q108 0 194 52l-10 -64q-85 -44 -199 -44q-66 0 -126 24t-107 69t-68.5 118.5t-6.5 163.5z
M664 901l-151 -137h-51l-108 137h63l75 -94l103 94h69z" />
    <glyph glyph-name="ccaron" unicode="&#x10d;" horiz-adv-x="495" 
d="M37 246q13 83 62 140.5t109 81t125 23.5q84 0 143 -42l-9 -53q-50 43 -130 43q-55 0 -104 -19t-89 -65.5t-51 -114.5q-16 -97 35 -148t139 -51q79 0 155 42l-9 -59q-71 -35 -158 -35q-106 0 -171.5 67t-46.5 190zM507 681l-151 -137h-51l-108 137h63l75 -94l103 94h69z
" />
    <glyph glyph-name="Dcaron" unicode="&#x10e;" horiz-adv-x="735" 
d="M163 700h214q178 0 260.5 -98t57.5 -256t-132.5 -252t-292.5 -94h-218zM635 354q22 135 -44.5 212t-219.5 77h-159l-92 -586h156q153 0 245 79.5t114 217.5zM576 901l-151 -137h-51l-108 137h63l75 -94l103 94h69z" />
    <glyph glyph-name="dcaron" unicode="&#x10f;" horiz-adv-x="617" 
d="M683 700h57l-53 -172h-49zM548 700h56l-111 -700h-50l16 102q-83 -113 -220 -113q-104 0 -162 72.5t-40 183.5q17 109 93.5 177.5t178.5 68.5q69 0 117.5 -31t70.5 -79zM486 307q-13 57 -58.5 94.5t-111.5 37.5q-83 0 -146 -53t-78 -145q-14 -89 31.5 -144.5t123.5 -55.5
q69 0 127.5 39t89.5 96z" />
    <glyph glyph-name="Dcroat" unicode="&#x110;" horiz-adv-x="737" 
d="M165 700h214q177 0 260 -98t58 -256q-25 -157 -133 -251.5t-292 -94.5h-218l51 322h-74l8 54h74zM278 57q153 0 245 79.5t114 217.5q22 135 -44.5 212t-219.5 77h-159l-42 -267h232l-9 -54h-231l-42 -265h156z" />
    <glyph glyph-name="dcroat" unicode="&#x111;" horiz-adv-x="617" 
d="M591 617h73l-6 -44h-74l-91 -573h-50l16 102q-83 -113 -220 -113q-104 0 -162 72.5t-40 183.5q17 109 93.5 177.5t178.5 68.5q69 0 117.5 -31t70.5 -79l31 192h-182l6 44h182l14 83h56zM247 41q69 0 127.5 39t89.5 96l22 131q-13 57 -58.5 94.5t-111.5 37.5
q-83 0 -146 -53t-78 -145q-14 -89 31.5 -144.5t123.5 -55.5z" />
    <glyph glyph-name="Emacron" unicode="&#x112;" horiz-adv-x="621" 
d="M163 700h465l-9 -57h-406l-41 -262h375l-8 -57h-376l-42 -267h411l-9 -57h-471zM282 847h280l-8 -52h-280z" />
    <glyph glyph-name="emacron" unicode="&#x113;" horiz-adv-x="547" 
d="M36 242q18 117 97.5 183t175.5 66q64 0 109.5 -25.5t64 -66t22 -90t-16.5 -97.5h-399q-8 -85 47.5 -128t137.5 -43q91 0 168 40l-9 -57q-70 -35 -168 -35q-49 0 -93 15.5t-79 45.5t-51 80t-6 112zM446 262q4 22 5.5 45.5t-7.5 47t-24 42.5t-44 30.5t-67 11.5
q-75 0 -135.5 -47.5t-77.5 -129.5h350zM195 627h280l-8 -52h-280z" />
    <glyph glyph-name="Edotaccent" unicode="&#x116;" horiz-adv-x="621" 
d="M163 700h465l-9 -57h-406l-41 -262h375l-8 -57h-376l-42 -267h411l-9 -57h-471zM456 819q-3 -20 -17 -31t-33 -11q-21 0 -33.5 13.5t-8.5 36.5q4 19 18 30t32 11q22 0 34 -13t8 -36z" />
    <glyph glyph-name="edotaccent" unicode="&#x117;" horiz-adv-x="547" 
d="M36 242q18 117 97.5 183t175.5 66q64 0 109.5 -25.5t64 -66t22 -90t-16.5 -97.5h-399q-8 -85 47.5 -128t137.5 -43q91 0 168 40l-9 -57q-70 -35 -168 -35q-49 0 -93 15.5t-79 45.5t-51 80t-6 112zM446 262q4 22 5.5 45.5t-7.5 47t-24 42.5t-44 30.5t-67 11.5
q-75 0 -135.5 -47.5t-77.5 -129.5h350zM369 599q-3 -20 -17 -31t-33 -11q-21 0 -33.5 13.5t-8.5 36.5q4 19 18 30t32 11q22 0 34 -13t8 -36z" />
    <glyph glyph-name="Eogonek" unicode="&#x118;" horiz-adv-x="621" 
d="M493 -172l-8 -49q-29 -10 -64 -10q-43 0 -64 24.5t-15 62.5q11 75 110 144h-400l111 700h465l-9 -57h-406l-41 -262h375l-8 -57h-376l-42 -267h411l-9 -57q-117 -74 -126 -137q-4 -21 6.5 -34t32.5 -13q30 0 57 12z" />
    <glyph glyph-name="eogonek" unicode="&#x119;" horiz-adv-x="548" 
d="M385 -211q-34 -20 -80 -20q-46 -1 -67.5 23.5t-15.5 63.5q10 68 112 140q-39 -7 -69 -7q-49 0 -93 15.5t-79 45.5t-51 80t-6 112q18 117 97.5 183t175.5 66q64 0 109.5 -25.5t64 -66t22 -90t-16.5 -97.5h-399q-8 -85 47.5 -128t137.5 -43q91 0 168 40l-9 -57
q-146 -100 -156 -163q-3 -21 8 -33.5t35 -12.5q38 1 73 23zM309 439q-75 0 -135.5 -47.5t-77.5 -129.5h350q4 22 5.5 45.5t-7.5 47t-24 42.5t-44 30.5t-67 11.5z" />
    <glyph glyph-name="Ecaron" unicode="&#x11a;" horiz-adv-x="621" 
d="M163 700h465l-9 -57h-406l-41 -262h375l-8 -57h-376l-42 -267h411l-9 -57h-471zM580 901l-151 -137h-51l-108 137h63l75 -94l103 94h69z" />
    <glyph glyph-name="ecaron" unicode="&#x11b;" horiz-adv-x="547" 
d="M36 242q18 117 97.5 183t175.5 66q64 0 109.5 -25.5t64 -66t22 -90t-16.5 -97.5h-399q-8 -85 47.5 -128t137.5 -43q91 0 168 40l-9 -57q-70 -35 -168 -35q-49 0 -93 15.5t-79 45.5t-51 80t-6 112zM446 262q4 22 5.5 45.5t-7.5 47t-24 42.5t-44 30.5t-67 11.5
q-75 0 -135.5 -47.5t-77.5 -129.5h350zM493 681l-151 -137h-51l-108 137h63l75 -94l103 94h69z" />
    <glyph glyph-name="Gbreve" unicode="&#x11e;" horiz-adv-x="709" 
d="M60 364q14 88 57.5 156.5t104 109t127.5 61t135 20.5q114 0 200 -47l-8 -57q-70 48 -187 48q-61 0 -118.5 -16.5t-110.5 -50.5t-91 -94t-50 -138q-13 -79 6 -141t60.5 -98t93.5 -54t111 -18q89 0 162 34l46 290h60l-52 -334q-106 -46 -223 -46q-69 0 -131.5 22.5t-112 66
t-72 118t-7.5 168.5zM621 819q-62 -41 -138 -41q-81 0 -129 41l9 57q53 -44 125 -44q74 0 141 44z" />
    <glyph glyph-name="gbreve" unicode="&#x11f;" horiz-adv-x="619" 
d="M494 -2q-18 -117 -98 -173t-187 -56q-115 0 -190 48l9 54q72 -50 176 -50q91 0 155 44t78 137l15 91q-36 -46 -91 -75t-122 -29q-105 0 -162.5 72.5t-39.5 183.5q17 109 95 177.5t180 68.5q134 0 189 -116l16 105h53zM92 241q-14 -89 30.5 -144.5t124.5 -55.5
q69 0 127.5 37.5t89.5 92.5l22 136q-13 57 -58 94.5t-112 37.5q-83 0 -146 -53t-78 -145zM471 599q-62 -41 -138 -41q-81 0 -129 41l9 57q53 -44 125 -44q74 0 141 44z" />
    <glyph glyph-name="Gdotaccent" unicode="&#x120;" horiz-adv-x="709" 
d="M60 364q14 88 57.5 156.5t104 109t127.5 61t135 20.5q114 0 200 -47l-8 -57q-70 48 -187 48q-61 0 -118.5 -16.5t-110.5 -50.5t-91 -94t-50 -138q-13 -79 6 -141t60.5 -98t93.5 -54t111 -18q89 0 162 34l46 290h60l-52 -334q-106 -46 -223 -46q-69 0 -131.5 22.5t-112 66
t-72 118t-7.5 168.5zM529 819q-3 -20 -17 -31t-33 -11q-21 0 -33.5 13.5t-8.5 36.5q4 19 18 30t32 11q22 0 34 -13t8 -36z" />
    <glyph glyph-name="gdotaccent" unicode="&#x121;" horiz-adv-x="619" 
d="M494 -2q-18 -117 -98 -173t-187 -56q-115 0 -190 48l9 54q72 -50 176 -50q91 0 155 44t78 137l15 91q-36 -46 -91 -75t-122 -29q-105 0 -162.5 72.5t-39.5 183.5q17 109 95 177.5t180 68.5q134 0 189 -116l16 105h53zM92 241q-14 -89 30.5 -144.5t124.5 -55.5
q69 0 127.5 37.5t89.5 92.5l22 136q-13 57 -58 94.5t-112 37.5q-83 0 -146 -53t-78 -145zM379 599q-3 -20 -17 -31t-33 -11q-21 0 -33.5 13.5t-8.5 36.5q4 19 18 30t32 11q22 0 34 -13t8 -36z" />
    <glyph glyph-name="Gcommaaccent" unicode="&#x122;" horiz-adv-x="709" 
d="M60 364q14 88 57.5 156.5t104 109t127.5 61t135 20.5q114 0 200 -47l-8 -57q-70 48 -187 48q-61 0 -118.5 -16.5t-110.5 -50.5t-91 -94t-50 -138q-13 -79 6 -141t60.5 -98t93.5 -54t111 -18q89 0 162 34l46 290h60l-52 -334q-106 -46 -223 -46q-69 0 -131.5 22.5t-112 66
t-72 118t-7.5 168.5zM345 -234h-50l51 180h57z" />
    <glyph glyph-name="gcommaaccent" unicode="&#x123;" horiz-adv-x="619" 
d="M347 548h-57l54 159h50zM494 -2q-18 -117 -98 -173t-187 -56q-115 0 -190 48l9 54q72 -50 176 -50q91 0 155 44t78 137l15 91q-36 -46 -91 -75t-122 -29q-105 0 -162.5 72.5t-39.5 183.5q17 109 95 177.5t180 68.5q134 0 189 -116l16 105h53zM92 241q-14 -89 30.5 -144.5
t124.5 -55.5q69 0 127.5 37.5t89.5 92.5l22 136q-13 57 -58 94.5t-112 37.5q-83 0 -146 -53t-78 -145z" />
    <glyph glyph-name="Hbar" unicode="&#x126;" horiz-adv-x="772" 
d="M113 0h-59l81 510h-76l8 50h76l22 140h59l-22 -140h454l22 140h59l-22 -140h76l-8 -50h-76l-81 -510h-59l51 323h-454zM195 510l-21 -130h453l21 130h-453z" />
    <glyph glyph-name="hbar" unicode="&#x127;" horiz-adv-x="583" 
d="M151 397q90 94 198 94q85 0 130 -54t32 -143l-47 -294h-57l46 291q12 72 -21 110t-96 38q-56 0 -108.5 -33t-87.5 -79l-51 -327h-57l91 573h-59l6 44h59l14 83h57l-14 -83h196l-7 -44h-195z" />
    <glyph glyph-name="Imacron" unicode="&#x12a;" horiz-adv-x="255" 
d="M163 700h59l-111 -700h-59zM78 847h280l-8 -52h-280z" />
    <glyph glyph-name="imacron" unicode="&#x12b;" horiz-adv-x="221" 
d="M267 582h-220l8 53h220zM93 0h-57l76 480h57z" />
    <glyph glyph-name="Iogonek" unicode="&#x12e;" horiz-adv-x="255" 
d="M111 0q-81 -81 -90 -136q-3 -22 8.5 -36t35.5 -13q35 0 73 22l-8 -49q-34 -19 -80 -19q-44 0 -66.5 25.5t-16.5 63.5q9 63 86 148l110 694h59z" />
    <glyph glyph-name="iogonek" unicode="&#x12f;" horiz-adv-x="221" 
d="M125 629q5 35 42 35q17 0 27.5 -11.5t7.5 -30.5q-6 -34 -42 -34q-17 0 -27.5 11t-7.5 30zM169 480l-76 -480q-79 -81 -88 -136q-4 -21 8 -35t36 -14q33 0 67 19l-8 -49q-33 -16 -74 -16q-45 0 -66.5 26t-15.5 64q11 66 85 146l75 475h57z" />
    <glyph glyph-name="Idotaccent" unicode="&#x130;" horiz-adv-x="255" 
d="M163 700h59l-111 -700h-59zM252 819q-3 -20 -17 -31t-33 -11q-21 0 -33.5 13.5t-8.5 36.5q4 19 18 30t32 11q22 0 34 -13t8 -36z" />
    <glyph glyph-name="dotlessi" unicode="&#x131;" horiz-adv-x="221" 
d="M93 0h-57l76 480h57z" />
    <glyph glyph-name="IJ" unicode="&#x132;" horiz-adv-x="771" 
d="M163 700h59l-111 -700h-59zM470 700h275l-79 -503q-16 -106 -83.5 -156.5t-168.5 -50.5q-111 0 -175 44l9 58q62 -45 158 -45q177 0 201 156l70 440h-217z" />
    <glyph glyph-name="ij" unicode="&#x133;" horiz-adv-x="442" 
d="M93 0h-57l76 480h57zM202 622q-6 -34 -42 -34q-17 0 -27.5 11t-7.5 30q5 35 42 35q17 0 27.5 -11.5t7.5 -30.5zM297 -102q-10 -69 -51 -99t-95 -30q-41 0 -74 14l8 50q25 -12 56 -12q87 0 102 89l90 570h57zM423 622q-6 -34 -42 -34q-17 0 -27.5 11t-7.5 30q5 35 42 35
q17 0 27.5 -11.5t7.5 -30.5z" />
    <glyph glyph-name="Kcommaaccent" unicode="&#x136;" horiz-adv-x="658" 
d="M629 700h68l-297 -343l209 -357h-64l-195 330h-187l-52 -330h-59l111 700h59l-49 -314h183zM282 -224h-50l51 180h57z" />
    <glyph glyph-name="kcommaaccent" unicode="&#x137;" horiz-adv-x="508" 
d="M444 480h68l-227 -234l172 -246h-64l-158 226h-110l-35 -226h-57l111 700h57l-67 -422h114zM205 -224h-50l51 180h57z" />
    <glyph glyph-name="Lacute" unicode="&#x139;" horiz-adv-x="572" 
d="M163 700h59l-101 -643h404l-9 -57h-464zM236 773h-63l112 142h72z" />
    <glyph glyph-name="lacute" unicode="&#x13a;" horiz-adv-x="221" 
d="M152 730h57l-116 -730h-57zM216 776h-63l112 142h72z" />
    <glyph glyph-name="Lcommaaccent" unicode="&#x13b;" horiz-adv-x="572" 
d="M163 700h59l-101 -643h404l-9 -57h-464zM263 -224h-50l51 180h57z" />
    <glyph glyph-name="lcommaaccent" unicode="&#x13c;" horiz-adv-x="221" 
d="M152 730h57l-116 -730h-57zM26 -224h-50l51 180h57z" />
    <glyph glyph-name="Lcaron" unicode="&#x13d;" horiz-adv-x="573" 
d="M442 700h57l-53 -172h-49zM163 700h59l-101 -643h404l-9 -57h-464z" />
    <glyph glyph-name="lcaron" unicode="&#x13e;" horiz-adv-x="221" 
d="M288 730h57l-53 -172h-49zM152 730h57l-116 -730h-57z" />
    <glyph glyph-name="Ldot" unicode="&#x13f;" horiz-adv-x="576" 
d="M406 340q-6 -36 -42 -36q-18 0 -29 11.5t-8 31.5q6 35 43 35q18 0 28.5 -11t7.5 -31zM163 700h59l-101 -643h404l-9 -57h-464z" />
    <glyph glyph-name="ldot" unicode="&#x140;" horiz-adv-x="286" 
d="M152 730h57l-116 -730h-57zM301 346q-6 -35 -42 -35q-18 0 -29 11.5t-8 31.5q3 17 15 26t28 9q18 0 28.5 -11.5t7.5 -31.5z" />
    <glyph glyph-name="Lslash" unicode="&#x141;" horiz-adv-x="577" 
d="M522 0h-464l44 279l-92 -37l8 50l92 37l59 371h59l-55 -348l239 95l-8 -50l-239 -95l-38 -245h404z" />
    <glyph glyph-name="lslash" unicode="&#x142;" horiz-adv-x="262" 
d="M172 730h57l-52 -320l93 37l-8 -50l-92 -38l-57 -359h-57l53 337l-91 -37l8 50l92 38z" />
    <glyph glyph-name="Nacute" unicode="&#x143;" horiz-adv-x="768" 
d="M111 0h-59l111 700h50l368 -604q1 11 4 30.5t4 30.5l87 543h59l-111 -700h-50l-368 605q-1 -12 -4 -31.5t-4 -29.5zM479 773h-63l112 142h72z" />
    <glyph glyph-name="nacute" unicode="&#x144;" horiz-adv-x="584" 
d="M145 391q92 100 206 100q84 0 129 -54.5t32 -142.5l-47 -294h-57l46 291q12 72 -21 110t-96 38q-56 0 -108.5 -33t-87.5 -78l-51 -328h-57l76 480h51zM354 553h-63l112 142h72z" />
    <glyph glyph-name="Ncommaaccent" unicode="&#x145;" horiz-adv-x="768" 
d="M111 0h-59l111 700h50l368 -604q1 11 4 30.5t4 30.5l87 543h59l-111 -700h-50l-368 605q-1 -12 -4 -31.5t-4 -29.5zM319 -224h-50l51 180h57z" />
    <glyph glyph-name="ncommaaccent" unicode="&#x146;" horiz-adv-x="584" 
d="M145 391q92 100 206 100q84 0 129 -54.5t32 -142.5l-47 -294h-57l46 291q12 72 -21 110t-96 38q-56 0 -108.5 -33t-87.5 -78l-51 -328h-57l76 480h51zM223 -224h-50l51 180h57z" />
    <glyph glyph-name="Ncaron" unicode="&#x147;" horiz-adv-x="768" 
d="M111 0h-59l111 700h50l368 -604q1 11 4 30.5t4 30.5l87 543h59l-111 -700h-50l-368 605q-1 -12 -4 -31.5t-4 -29.5zM634 901l-151 -137h-51l-108 137h63l75 -94l103 94h69z" />
    <glyph glyph-name="ncaron" unicode="&#x148;" horiz-adv-x="584" 
d="M145 391q92 100 206 100q84 0 129 -54.5t32 -142.5l-47 -294h-57l46 291q12 72 -21 110t-96 38q-56 0 -108.5 -33t-87.5 -78l-51 -328h-57l76 480h51zM509 681l-151 -137h-51l-108 137h63l75 -94l103 94h69z" />
    <glyph glyph-name="Eng" unicode="&#x14a;" horiz-adv-x="769" 
d="M609 -97q-11 -69 -51 -101.5t-99 -32.5q-38 0 -74 12l9 54q27 -10 54 -10q88 0 103 89l16 98l-361 593q-1 -12 -4 -31.5t-4 -29.5l-87 -544h-59l111 700h50l368 -604q1 11 4 30.5t4 30.5l87 543h59z" />
    <glyph glyph-name="eng" unicode="&#x14b;" horiz-adv-x="584" 
d="M449 -102q-20 -129 -147 -129q-42 0 -74 13l8 51q26 -12 60 -12q83 0 98 89l60 381q12 72 -21 110t-96 38q-56 0 -108.5 -33t-87.5 -78l-51 -328h-57l76 480h51l-15 -89q92 100 206 100q84 0 129.5 -54.5t31.5 -142.5z" />
    <glyph glyph-name="Omacron" unicode="&#x14c;" horiz-adv-x="822" 
d="M784 346q-11 -68 -43 -130.5t-83 -114t-127 -82t-165 -30.5q-111 0 -188 54.5t-106 136.5t-15 174q11 68 44.5 131t85 114t127 81.5t161.5 30.5q84 0 150 -31.5t103 -83.5t52 -117t4 -133zM117 350q-5 -44 -2 -87t22.5 -82.5t49 -69.5t77 -48t106.5 -18q145 0 240.5 90.5
t114.5 214.5q5 44 2 87t-22.5 82.5t-49 69.5t-77 48t-106.5 18q-145 0 -240.5 -90.5t-114.5 -214.5zM362 847h280l-8 -52h-280z" />
    <glyph glyph-name="omacron" unicode="&#x14d;" horiz-adv-x="593" 
d="M540 235q-18 -115 -102.5 -180.5t-187.5 -65.5q-47 0 -89.5 17.5t-73.5 49t-45 81t-5 108.5q18 115 102.5 180.5t187.5 65.5q101 0 166.5 -69.5t46.5 -186.5zM92 238q-14 -89 33.5 -142t128.5 -53q85 0 150.5 53.5t80.5 145.5q14 89 -33.5 142t-128.5 53
q-85 0 -151 -53.5t-80 -145.5zM209 624h280l-8 -52h-280z" />
    <glyph glyph-name="Ohungarumlaut" unicode="&#x150;" horiz-adv-x="822" 
d="M784 346q-11 -68 -43 -130.5t-83 -114t-127 -82t-165 -30.5q-111 0 -188 54.5t-106 136.5t-15 174q11 68 44.5 131t85 114t127 81.5t161.5 30.5q84 0 150 -31.5t103 -83.5t52 -117t4 -133zM117 350q-5 -44 -2 -87t22.5 -82.5t49 -69.5t77 -48t106.5 -18q145 0 240.5 90.5
t114.5 214.5q5 44 2 87t-22.5 82.5t-49 69.5t-77 48t-106.5 18q-145 0 -240.5 -90.5t-114.5 -214.5zM596 779h-62l95 145h65zM443 779h-62l95 145h65z" />
    <glyph glyph-name="ohungarumlaut" unicode="&#x151;" horiz-adv-x="593" 
d="M540 235q-18 -115 -102.5 -180.5t-187.5 -65.5q-47 0 -89.5 17.5t-73.5 49t-45 81t-5 108.5q18 115 102.5 180.5t187.5 65.5q101 0 166.5 -69.5t46.5 -186.5zM92 238q-14 -89 33.5 -142t128.5 -53q85 0 150.5 53.5t80.5 145.5q14 89 -33.5 142t-128.5 53
q-85 0 -151 -53.5t-80 -145.5zM443 556h-62l95 145h65zM290 556h-62l95 145h65z" />
    <glyph glyph-name="OE" unicode="&#x152;" horiz-adv-x="1022" 
d="M485 -1q-49 -10 -108 -10q-87 0 -155 32.5t-106.5 86t-53.5 122t-3 140.5q23 137 134.5 239t272.5 102q71 0 117 -12l446 1l-9 -57h-375l-42 -262h346l-9 -57h-346l-42 -267h381l-9 -57zM118 363q-14 -84 9.5 -155t89 -117t163.5 -46q58 0 111 14l92 581q-41 15 -120 15
q-137 0 -231 -87t-114 -205z" />
    <glyph glyph-name="oe" unicode="&#x153;" horiz-adv-x="985" 
d="M492 134q-37 -71 -101.5 -108t-142.5 -37q-99 0 -164 70t-47 187q18 114 102 179.5t185 65.5q72 0 126.5 -38.5t72.5 -107.5q34 71 95 108.5t131 37.5q52 0 91 -17t61.5 -45t33.5 -64.5t8.5 -76t-16.5 -78.5h-395q-5 -57 22 -97t68.5 -56t91.5 -16q87 0 167 40l-10 -57
q-70 -35 -168 -35q-76 0 -135 37t-76 108zM92 238q-14 -89 33.5 -142t126.5 -53q86 0 150 53.5t79 145.5q14 90 -32.5 142.5t-127.5 52.5q-83 0 -149 -53.5t-80 -145.5zM750 439q-74 0 -133.5 -48t-76.5 -131h345q10 27 5.5 58.5t-16.5 58.5t-44.5 44.5t-79.5 17.5z" />
    <glyph glyph-name="Racute" unicode="&#x154;" horiz-adv-x="691" 
d="M111 0h-59l111 700h267q48 0 90 -11.5t76.5 -35t50.5 -66t7 -99.5q-15 -92 -79.5 -140.5t-153.5 -59.5l203 -288h-70l-200 283h-198zM212 643l-47 -303h211q52 0 95.5 13.5t78.5 49.5t44 92q7 42 -5 72t-38 46t-57 23t-68 7h-214zM429 773h-63l112 142h72z" />
    <glyph glyph-name="racute" unicode="&#x155;" horiz-adv-x="356" 
d="M143 371q79 127 230 119l-9 -58q-74 8 -136 -33t-92 -107l-46 -292h-57l76 480h51zM274 553h-63l112 142h72z" />
    <glyph glyph-name="Rcommaaccent" unicode="&#x156;" horiz-adv-x="691" 
d="M111 0h-59l111 700h267q48 0 90 -11.5t76.5 -35t50.5 -66t7 -99.5q-15 -92 -79.5 -140.5t-153.5 -59.5l203 -288h-70l-200 283h-198zM212 643l-47 -303h211q52 0 95.5 13.5t78.5 49.5t44 92q7 42 -5 72t-38 46t-57 23t-68 7h-214zM300 -224h-50l51 180h57z" />
    <glyph glyph-name="rcommaaccent" unicode="&#x157;" horiz-adv-x="356" 
d="M143 371q79 127 230 119l-9 -58q-74 8 -136 -33t-92 -107l-46 -292h-57l76 480h51zM26 -224h-50l51 180h57z" />
    <glyph glyph-name="Rcaron" unicode="&#x158;" horiz-adv-x="691" 
d="M111 0h-59l111 700h267q48 0 90 -11.5t76.5 -35t50.5 -66t7 -99.5q-15 -92 -79.5 -140.5t-153.5 -59.5l203 -288h-70l-200 283h-198zM212 643l-47 -303h211q52 0 95.5 13.5t78.5 49.5t44 92q7 42 -5 72t-38 46t-57 23t-68 7h-214zM584 901l-151 -137h-51l-108 137h63
l75 -94l103 94h69z" />
    <glyph glyph-name="rcaron" unicode="&#x159;" horiz-adv-x="355" 
d="M142 371q79 127 230 119l-9 -58q-74 8 -136 -33t-92 -107l-46 -292h-57l76 480h51zM428 681l-151 -137h-51l-108 137h63l75 -94l103 94h69z" />
    <glyph glyph-name="Sacute" unicode="&#x15a;" horiz-adv-x="575" 
d="M94 541q9 57 50 97t94.5 56.5t113.5 16.5q118 0 199 -53l-9 -57q-76 54 -189 54q-80 0 -134.5 -28.5t-65.5 -90.5q-6 -39 12.5 -67.5t53 -46.5t77.5 -34t85 -34t76 -41t51.5 -61.5t9.5 -88.5q-14 -91 -89 -133t-177 -41q-141 0 -237 60l9 57q94 -61 227 -61
q189 0 207 121q7 41 -11.5 71.5t-52.5 49.5t-77 35.5t-85 34t-76 40t-51.5 59t-10.5 85.5zM366 773h-63l112 142h72z" />
    <glyph glyph-name="sacute" unicode="&#x15b;" horiz-adv-x="462" 
d="M57 365q9 63 67 94.5t132 31.5q95 0 161 -42l-8 -52q-64 43 -155 43q-54 0 -94.5 -20t-46.5 -60q-5 -34 25.5 -55.5t76 -34t90.5 -27.5t73 -47t20 -81q-10 -65 -68.5 -95.5t-138.5 -30.5q-110 0 -178 49l9 56q69 -53 171 -53q60 0 101.5 19.5t47.5 60.5q5 33 -24.5 54.5
t-75 34t-90.5 28t-73.5 47t-21.5 80.5zM279 553h-63l112 142h72z" />
    <glyph glyph-name="Scedilla" unicode="&#x15e;" horiz-adv-x="575" 
d="M355 -148q-6 -40 -40.5 -61.5t-89.5 -21.5t-104 21l8 46q40 -21 91 -21q80 0 87 42q2 18 -14.5 28t-43 10t-57.5 -6l38 100q-129 6 -215 60l9 57q94 -61 227 -61q189 0 207 121q7 41 -11.5 71.5t-52.5 49.5t-77 35.5t-85 34t-76 40t-51.5 59t-10.5 85.5q9 57 50 97
t94.5 56.5t113.5 16.5q118 0 199 -53l-9 -57q-76 54 -189 54q-80 0 -134.5 -28.5t-65.5 -90.5q-6 -39 12.5 -67.5t53 -46.5t77.5 -34t85 -34t76 -41t51.5 -61.5t9.5 -88.5q-13 -84 -79.5 -126.5t-159.5 -47.5l-26 -62q46 5 76.5 -15t25.5 -60z" />
    <glyph glyph-name="scedilla" unicode="&#x15f;" horiz-adv-x="462" 
d="M292 -148q-6 -40 -40.5 -61.5t-89.5 -21.5t-104 21l8 46q40 -21 91 -21q80 0 87 42q2 18 -14.5 28t-43 10t-57.5 -6l38 100q-95 6 -154 49l9 56q69 -53 171 -53q60 0 101.5 19.5t47.5 60.5q5 33 -24.5 54.5t-75 34t-90.5 28t-73.5 47t-21.5 80.5q9 63 67 94.5t132 31.5
q95 0 161 -42l-8 -52q-64 43 -155 43q-54 0 -94.5 -20t-46.5 -60q-5 -34 25.5 -55.5t76 -34t90.5 -27.5t73 -47t20 -81q-9 -60 -59.5 -91t-122.5 -35l-26 -62q46 5 76.5 -15t25.5 -60z" />
    <glyph glyph-name="Scaron" unicode="&#x160;" horiz-adv-x="575" 
d="M94 541q9 57 50 97t94.5 56.5t113.5 16.5q118 0 199 -53l-9 -57q-76 54 -189 54q-80 0 -134.5 -28.5t-65.5 -90.5q-6 -39 12.5 -67.5t53 -46.5t77.5 -34t85 -34t76 -41t51.5 -61.5t9.5 -88.5q-14 -91 -89 -133t-177 -41q-141 0 -237 60l9 57q94 -61 227 -61
q189 0 207 121q7 41 -11.5 71.5t-52.5 49.5t-77 35.5t-85 34t-76 40t-51.5 59t-10.5 85.5zM521 901l-151 -137h-51l-108 137h63l75 -94l103 94h69z" />
    <glyph glyph-name="scaron" unicode="&#x161;" horiz-adv-x="462" 
d="M57 365q9 63 67 94.5t132 31.5q95 0 161 -42l-8 -52q-64 43 -155 43q-54 0 -94.5 -20t-46.5 -60q-5 -34 25.5 -55.5t76 -34t90.5 -27.5t73 -47t20 -81q-10 -65 -68.5 -95.5t-138.5 -30.5q-110 0 -178 49l9 56q69 -53 171 -53q60 0 101.5 19.5t47.5 60.5q5 33 -24.5 54.5
t-75 34t-90.5 28t-73.5 47t-21.5 80.5zM434 681l-151 -137h-51l-108 137h63l75 -94l103 94h69z" />
    <glyph glyph-name="Tcommaaccent" unicode="&#x162;" horiz-adv-x="596" 
d="M77 700h571l-9 -57h-256l-102 -643h-59l102 643h-256zM217 -224h-50l51 180h57z" />
    <glyph glyph-name="tcommaaccent" unicode="&#x163;" horiz-adv-x="389" 
d="M157 631l59 17l-27 -168h202l-8 -53h-202l-45 -281q-9 -56 14 -80.5t77 -24.5q57 0 111 27l-9 -55q-49 -24 -119 -24q-68 0 -105.5 39.5t-25.5 112.5l46 286h-90l8 53h90zM183 -224h-50l51 180h57z" />
    <glyph glyph-name="Tcaron" unicode="&#x164;" horiz-adv-x="596" 
d="M77 700h571l-9 -57h-256l-102 -643h-59l102 643h-256zM549 901l-151 -137h-51l-108 137h63l75 -94l103 94h69z" />
    <glyph glyph-name="tcaron" unicode="&#x165;" horiz-adv-x="389" 
d="M330 718h56l-52 -166h-49zM157 631l59 17l-27 -168h202l-8 -53h-202l-45 -281q-9 -56 14 -80.5t77 -24.5q57 0 111 27l-9 -55q-49 -24 -119 -24q-68 0 -105.5 39.5t-25.5 112.5l46 286h-90l8 53h90z" />
    <glyph glyph-name="Tbar" unicode="&#x166;" horiz-adv-x="607" 
d="M286 0h-59l52 327h-128l8 50h128l42 266h-256l9 57h571l-9 -57h-256l-42 -266h128l-8 -50h-128z" />
    <glyph glyph-name="tbar" unicode="&#x167;" horiz-adv-x="389" 
d="M391 480l-8 -53h-202l-19 -119h162l-8 -50h-162l-18 -112q-9 -56 14 -80.5t77 -24.5q57 0 111 27l-9 -55q-49 -24 -119 -24q-68 0 -105.5 39.5t-25.5 112.5l19 117h-50l8 50h50l19 119h-90l8 53h90l24 151l59 17l-27 -168h202z" />
    <glyph glyph-name="Umacron" unicode="&#x16a;" horiz-adv-x="753" 
d="M669 700h59l-71 -452q-22 -137 -108 -198t-213 -61q-61 0 -110 14t-86 44t-52 82t-4 123l71 448h59l-71 -450q-32 -205 192 -205q230 0 264 209zM321 847h280l-8 -52h-280z" />
    <glyph glyph-name="umacron" unicode="&#x16b;" horiz-adv-x="583" 
d="M477 480h57l-76 -480h-51l15 89q-33 -41 -87 -70.5t-113 -29.5q-87 0 -133.5 54.5t-32.5 144.5l46 292h57l-46 -291q-12 -72 20.5 -110t96.5 -38q60 0 110.5 32t84.5 80zM199 627h280l-8 -52h-280z" />
    <glyph glyph-name="Uring" unicode="&#x16e;" horiz-adv-x="753" 
d="M669 700h59l-71 -452q-22 -137 -108 -198t-213 -61q-61 0 -110 14t-86 44t-52 82t-4 123l71 448h59l-71 -450q-32 -205 192 -205q230 0 264 209zM562 845q-7 -43 -40 -69t-74 -26q-42 0 -69.5 28.5t-20.5 73.5q7 42 40.5 68t74.5 26q42 0 69 -28.5t20 -72.5zM401 848
q-4 -25 10 -41.5t37 -16.5q26 0 47 15.5t25 42.5q4 25 -10 41.5t-37 16.5q-26 0 -47 -15.5t-25 -42.5z" />
    <glyph glyph-name="uring" unicode="&#x16f;" horiz-adv-x="583" 
d="M477 480h57l-76 -480h-51l15 89q-33 -41 -87 -70.5t-113 -29.5q-87 0 -133.5 54.5t-32.5 144.5l46 292h57l-46 -291q-12 -72 20.5 -110t96.5 -38q60 0 110.5 32t84.5 80zM440 625q-7 -43 -40 -69t-74 -26q-42 0 -69.5 28.5t-20.5 73.5q7 42 40.5 68t74.5 26
q42 0 69 -28.5t20 -72.5zM279 628q-4 -25 10 -41.5t37 -16.5q26 0 47 15.5t25 42.5q4 25 -10 41.5t-37 16.5q-26 0 -47 -15.5t-25 -42.5z" />
    <glyph glyph-name="Uhungarumlaut" unicode="&#x170;" horiz-adv-x="753" 
d="M669 700h59l-71 -452q-22 -137 -108 -198t-213 -61q-61 0 -110 14t-86 44t-52 82t-4 123l71 448h59l-71 -450q-32 -205 192 -205q230 0 264 209zM555 779h-62l95 145h65zM402 779h-62l95 145h65z" />
    <glyph glyph-name="uhungarumlaut" unicode="&#x171;" horiz-adv-x="583" 
d="M477 480h57l-76 -480h-51l15 89q-33 -41 -87 -70.5t-113 -29.5q-87 0 -133.5 54.5t-32.5 144.5l46 292h57l-46 -291q-12 -72 20.5 -110t96.5 -38q60 0 110.5 32t84.5 80zM433 559h-62l95 145h65zM280 559h-62l95 145h65z" />
    <glyph glyph-name="Uogonek" unicode="&#x172;" horiz-adv-x="753" 
d="M599 254l70 446h59l-71 -452q-20 -133 -112 -201q-143 -105 -154 -186q-4 -21 8 -34t36 -12q36 0 72 21l-8 -48q-37 -19 -81 -19q-46 0 -68.5 24.5t-16.5 62.5q11 67 96 144q-39 -11 -93 -11q-61 0 -110 14t-86 44t-52 82t-4 123l71 448h59l-71 -450q-32 -205 192 -205
q230 0 264 209z" />
    <glyph glyph-name="uogonek" unicode="&#x173;" horiz-adv-x="583" 
d="M534 480l-76 -480q-50 -31 -84.5 -69t-38.5 -70q-4 -21 7 -33.5t33 -12.5q27 0 54 11l-8 -48q-25 -9 -60 -9q-44 0 -65.5 24.5t-15.5 63.5q11 73 130 162l12 70q-33 -41 -87 -70.5t-113 -29.5q-87 0 -133.5 54.5t-32.5 144.5l46 292h57l-46 -291q-12 -72 20.5 -110
t96.5 -38q60 0 110.5 32t84.5 80l52 327h57z" />
    <glyph glyph-name="Wcircumflex" unicode="&#x174;" horiz-adv-x="997" 
d="M979 700h63l-329 -700h-67l-97 590l-285 -590h-70l-111 700h60l98 -624l299 621h49l101 -613zM567 911h51l108 -137h-62l-76 94l-105 -94h-67z" />
    <glyph glyph-name="wcircumflex" unicode="&#x175;" horiz-adv-x="795" 
d="M742 480h61l-248 -480h-59l-79 399l-209 -399h-61l-96 480h57l81 -408l212 405h51l81 -404zM432 691h51l108 -137h-62l-76 94l-105 -94h-67z" />
    <glyph glyph-name="Ycircumflex" unicode="&#x176;" horiz-adv-x="643" 
d="M305 0h-60l44 273l-207 427h62l181 -370l299 370h68l-343 -427zM385 911h51l108 -137h-62l-76 94l-105 -94h-67z" />
    <glyph glyph-name="ycircumflex" unicode="&#x177;" horiz-adv-x="535" 
d="M238 58l247 422h62l-332 -560q-90 -151 -193 -151q-30 0 -52 7l7 48q17 -5 40 -5q43 0 78.5 30t73.5 94l34 57l-160 480h57zM289 691h51l108 -137h-62l-76 94l-105 -94h-67z" />
    <glyph glyph-name="Ydieresis" unicode="&#x178;" horiz-adv-x="643" 
d="M305 0h-60l44 273l-207 427h62l181 -370l299 370h68l-343 -427zM539 833q-2 -16 -15 -27t-29 -11q-19 0 -30 13.5t-8 31.5q3 15 16 26.5t29 11.5q18 0 29 -14t8 -31zM338 833q-2 -16 -15 -27t-29 -11q-19 0 -30 13.5t-8 31.5q3 15 16 26.5t29 11.5q18 0 29 -14t8 -31z
" />
    <glyph glyph-name="Zacute" unicode="&#x179;" horiz-adv-x="578" 
d="M501 0h-517l8 53l524 590h-416l9 57h491l-8 -53l-525 -590h444zM392 773h-63l112 142h72z" />
    <glyph glyph-name="zacute" unicode="&#x17a;" horiz-adv-x="457" 
d="M77 480h364l-9 -50l-366 -380h319l-8 -50h-389l8 50l367 380h-294zM289 553h-63l112 142h72z" />
    <glyph glyph-name="Zdotaccent" unicode="&#x17b;" horiz-adv-x="578" 
d="M501 0h-517l8 53l524 590h-416l9 57h491l-8 -53l-525 -590h444zM423 819q-3 -20 -17 -31t-33 -11q-21 0 -33.5 13.5t-8.5 36.5q4 19 18 30t32 11q22 0 34 -13t8 -36z" />
    <glyph glyph-name="zdotaccent" unicode="&#x17c;" horiz-adv-x="457" 
d="M77 480h364l-9 -50l-366 -380h319l-8 -50h-389l8 50l367 380h-294zM320 599q-3 -20 -17 -31t-33 -11q-21 0 -33.5 13.5t-8.5 36.5q4 19 18 30t32 11q22 0 34 -13t8 -36z" />
    <glyph glyph-name="Zcaron" unicode="&#x17d;" horiz-adv-x="578" 
d="M501 0h-517l8 53l524 590h-416l9 57h491l-8 -53l-525 -590h444zM547 901l-151 -137h-51l-108 137h63l75 -94l103 94h69z" />
    <glyph glyph-name="zcaron" unicode="&#x17e;" horiz-adv-x="457" 
d="M77 480h364l-9 -50l-366 -380h319l-8 -50h-389l8 50l367 380h-294zM444 681l-151 -137h-51l-108 137h63l75 -94l103 94h69z" />
    <glyph glyph-name="Scommaaccent" unicode="&#x218;" horiz-adv-x="575" 
d="M94 541q9 57 50 97t94.5 56.5t113.5 16.5q118 0 199 -53l-9 -57q-76 54 -189 54q-80 0 -134.5 -28.5t-65.5 -90.5q-6 -39 12.5 -67.5t53 -46.5t77.5 -34t85 -34t76 -41t51.5 -61.5t9.5 -88.5q-14 -91 -89 -133t-177 -41q-141 0 -237 60l9 57q94 -61 227 -61
q189 0 207 121q7 41 -11.5 71.5t-52.5 49.5t-77 35.5t-85 34t-76 40t-51.5 59t-10.5 85.5zM239 -224h-50l51 180h57z" />
    <glyph glyph-name="scommaaccent" unicode="&#x219;" horiz-adv-x="462" 
d="M57 365q9 63 67 94.5t132 31.5q95 0 161 -42l-8 -52q-64 43 -155 43q-54 0 -94.5 -20t-46.5 -60q-5 -34 25.5 -55.5t76 -34t90.5 -27.5t73 -47t20 -81q-10 -65 -68.5 -95.5t-138.5 -30.5q-110 0 -178 49l9 56q69 -53 171 -53q60 0 101.5 19.5t47.5 60.5q5 33 -24.5 54.5
t-75 34t-90.5 28t-73.5 47t-21.5 80.5zM176 -224h-50l51 180h57z" />
    <glyph glyph-name="uni021A" unicode="&#x21a;" horiz-adv-x="596" 
d="M77 700h571l-9 -57h-256l-102 -643h-59l102 643h-256zM218 -224h-50l51 180h57z" />
    <glyph glyph-name="uni021B" unicode="&#x21b;" horiz-adv-x="389" 
d="M157 631l59 17l-27 -168h202l-8 -53h-202l-45 -281q-9 -56 14 -80.5t77 -24.5q57 0 111 27l-9 -55q-49 -24 -119 -24q-68 0 -105.5 39.5t-25.5 112.5l46 286h-90l8 53h90zM183 -224h-50l51 180h57z" />
    <glyph glyph-name="circumflex" unicode="&#x2c6;" horiz-adv-x="299" 
d="M246 911h51l108 -137h-62l-76 94l-105 -94h-67z" />
    <glyph glyph-name="caron" unicode="&#x2c7;" horiz-adv-x="299" 
d="M427 901l-151 -137h-51l-108 137h63l75 -94l103 94h69z" />
    <glyph glyph-name="breve" unicode="&#x2d8;" horiz-adv-x="329" 
d="M407 819q-62 -41 -138 -41q-81 0 -129 41l9 57q53 -44 125 -44q74 0 141 44z" />
    <glyph glyph-name="dotaccent" unicode="&#x2d9;" horiz-adv-x="101" 
d="M206 819q-3 -20 -17 -31t-33 -11q-21 0 -33.5 13.5t-8.5 36.5q4 19 18 30t32 11q22 0 34 -13t8 -36z" />
    <glyph glyph-name="ring" unicode="&#x2da;" horiz-adv-x="213" 
d="M322 845q-7 -43 -40 -69t-74 -26q-42 0 -69.5 28.5t-20.5 73.5q7 42 40.5 68t74.5 26q42 0 69 -28.5t20 -72.5zM161 848q-4 -25 10 -41.5t37 -16.5q26 0 47 15.5t25 42.5q4 25 -10 41.5t-37 16.5q-26 0 -47 -15.5t-25 -42.5z" />
    <glyph glyph-name="ogonek" unicode="&#x2db;" horiz-adv-x="210" 
d="M85 3l67 -3q-117 -74 -126 -137q-4 -21 7.5 -34t35.5 -13q37 0 72 19l-8 -50q-33 -16 -79 -16t-67.5 24t-15.5 63q11 75 114 147z" />
    <glyph glyph-name="tilde" unicode="&#x2dc;" horiz-adv-x="333" 
d="M438 866q-1 -44 -24.5 -68t-58.5 -24q-32 0 -82 24t-69 24t-30 -11.5t-11 -31.5h-49q1 44 24.5 68.5t57.5 24.5q32 0 82.5 -24t69.5 -24q41 0 41 42h49z" />
    <glyph glyph-name="hungarumlaut" unicode="&#x2dd;" horiz-adv-x="343" 
d="M344 779h-62l95 145h65zM191 779h-62l95 145h65z" />
    <glyph glyph-name="uni0326" unicode="&#x326;" horiz-adv-x="120" 
d="M15 -224h-50l51 180h57z" />
    <glyph glyph-name="uni0401" unicode="&#x401;" horiz-adv-x="619" 
d="M555 833q-2 -16 -15 -27t-29 -11q-19 0 -30 13.5t-8 31.5q3 15 16 26.5t29 11.5q18 0 29 -14t8 -31zM354 833q-2 -16 -15 -27t-29 -11q-19 0 -30 13.5t-8 31.5q3 15 16 26.5t29 11.5q18 0 29 -14t8 -31zM163 700h465l-9 -57h-406l-41 -262h375l-8 -57h-376l-42 -267h411
l-9 -57h-471z" />
    <glyph glyph-name="uni0410" unicode="&#x410;" horiz-adv-x="714" 
d="M656 0h-62l-53 188h-396l-112 -188h-67l422 700h68zM402 616l-224 -372h349l-106 373q-4 16 -5 24q-4 -9 -14 -25z" />
    <glyph glyph-name="uni0411" unicode="&#x411;" horiz-adv-x="663" 
d="M176 408h192q54 0 97.5 -9t82 -30t55.5 -64t7 -105q-31 -200 -306 -200h-252l111 700h474l-10 -57h-414zM120 57h193q45 0 80 5.5t70 20t57.5 46t30.5 78.5q7 46 -5.5 76.5t-43 44.5t-61.5 18.5t-76 4.5h-198z" />
    <glyph glyph-name="uni0412" unicode="&#x412;" horiz-adv-x="686" 
d="M163 700h271q103 0 163 -47t46 -134q-11 -64 -52 -102t-98 -50q59 -13 98.5 -56t27.5 -124q-30 -187 -292 -187h-275zM560 200q5 35 -4 61t-25.5 40t-42 22t-46.5 10.5t-45 2.5h-233l-44 -279h202q43 0 75 4.5t69.5 17.5t62 44t31.5 77zM583 520q10 66 -32.5 94.5
t-128.5 28.5h-210l-39 -251h236q67 0 115 31.5t59 96.5z" />
    <glyph glyph-name="uni0413" unicode="&#x413;" horiz-adv-x="573" 
d="M111 0h-59l111 700h456l-9 -57h-397z" />
    <glyph glyph-name="uni0414" unicode="&#x414;" horiz-adv-x="761" 
d="M4 -170h-57l36 227h82q82 119 138.5 290.5t83.5 352.5h419l-102 -643h87l-36 -227h-56l26 170h-594zM338 643q-74 -387 -208 -586h416l92 586h-300z" />
    <glyph glyph-name="uni0415" unicode="&#x415;" horiz-adv-x="619" 
d="M163 700h465l-9 -57h-406l-41 -262h375l-8 -57h-376l-42 -267h411l-9 -57h-471z" />
    <glyph glyph-name="uni0416" unicode="&#x416;" horiz-adv-x="930" 
d="M897 700h67l-264 -341l176 -359h-62l-162 330h-149l-52 -330h-60l52 330h-142l-269 -330h-70l294 359l-156 341h63l141 -314h149l49 314h60l-50 -314h143z" />
    <glyph glyph-name="uni0417" unicode="&#x417;" horiz-adv-x="605" 
d="M539 185q-8 -53 -38 -92.5t-73 -61t-90.5 -32t-98.5 -10.5q-137 0 -240 44l9 58q96 -46 230 -46q57 0 105.5 13t88.5 48.5t49 90.5q6 40 -8 68.5t-43.5 43t-63 21t-74.5 6.5h-139l9 56h130q86 0 144.5 35.5t68.5 98.5q9 64 -40.5 96.5t-132.5 32.5q-122 0 -232 -50l9 58
q105 48 231 48q107 0 172.5 -49t51.5 -137q-9 -63 -54 -104.5t-111 -55.5q67 -11 110 -55t30 -125z" />
    <glyph glyph-name="uni0418" unicode="&#x418;" horiz-adv-x="768" 
d="M735 700l-111 -700h-59l87 547q3 27 10 57l-552 -604h-58l111 700h59l-87 -548q-5 -34 -10 -56l552 604h58z" />
    <glyph glyph-name="uni0419" unicode="&#x419;" horiz-adv-x="768" 
d="M735 700l-111 -700h-59l87 547q3 27 10 57l-552 -604h-58l111 700h59l-87 -548q-5 -34 -10 -56l552 604h58zM610 819q-62 -41 -138 -41q-81 0 -129 41l9 57q53 -44 125 -44q74 0 141 44z" />
    <glyph glyph-name="uni041A" unicode="&#x41a;" horiz-adv-x="658" 
d="M629 700h68l-297 -343l209 -357h-64l-195 330h-187l-52 -330h-59l111 700h59l-49 -314h183z" />
    <glyph glyph-name="uni041B" unicode="&#x41b;" horiz-adv-x="742" 
d="M296 700h413l-111 -700h-59l101 643h-297q-16 -71 -27 -116.5t-27 -108.5t-28.5 -103t-30 -89.5t-33.5 -80.5t-36.5 -63.5t-41.5 -50.5t-46.5 -29.5t-53.5 -11.5q-37 0 -63 11l9 58q27 -10 48 -10q24 0 46 13t42 40.5t38 60t35.5 82t32 96t31 112t29 119t29.5 128.5z" />
    <glyph glyph-name="uni041C" unicode="&#x41c;" horiz-adv-x="903" 
d="M810 700h60l-111 -700h-59l94 593l-339 -415h-39l-210 415l-95 -593h-59l111 700h52l227 -450z" />
    <glyph glyph-name="uni041D" unicode="&#x41d;" horiz-adv-x="768" 
d="M676 700h59l-111 -700h-59l51 323h-454l-51 -323h-59l111 700h59l-50 -320h453z" />
    <glyph glyph-name="uni041E" unicode="&#x41e;" horiz-adv-x="822" 
d="M784 346q-11 -68 -43 -130.5t-83 -114t-127 -82t-165 -30.5q-111 0 -188 54.5t-106 136.5t-15 174q11 68 44.5 131t85 114t127 81.5t161.5 30.5q84 0 150 -31.5t103 -83.5t52 -117t4 -133zM117 350q-5 -44 -2 -87t22.5 -82.5t49 -69.5t77 -48t106.5 -18q145 0 240.5 90.5
t114.5 214.5q5 44 2 87t-22.5 82.5t-49 69.5t-77 48t-106.5 18q-145 0 -240.5 -90.5t-114.5 -214.5z" />
    <glyph glyph-name="uni041F" unicode="&#x41f;" horiz-adv-x="753" 
d="M111 0h-59l111 700h557l-111 -700h-59l102 643h-439z" />
    <glyph glyph-name="uni0420" unicode="&#x420;" horiz-adv-x="658" 
d="M163 700h234q58 0 105.5 -11.5t86 -36t56 -70t7.5 -108.5q-35 -219 -328 -219h-172l-41 -255h-59zM592 481q8 47 -5.5 80t-44 50.5t-66.5 24.5t-82 7h-182l-52 -331h172q233 0 260 169z" />
    <glyph glyph-name="uni0421" unicode="&#x421;" horiz-adv-x="652" 
d="M60 364q18 109 86 190.5t154.5 119t176.5 37.5q107 0 185 -48l-9 -57q-67 49 -170 49q-80 0 -155.5 -31.5t-134.5 -101.5t-75 -166q-12 -77 6.5 -138.5t59 -98t91.5 -55.5t108 -19q108 0 194 52l-10 -64q-85 -44 -199 -44q-66 0 -126 24t-107 69t-68.5 118.5t-6.5 163.5z
" />
    <glyph glyph-name="uni0422" unicode="&#x422;" horiz-adv-x="596" 
d="M77 700h571l-9 -57h-256l-102 -643h-59l102 643h-256z" />
    <glyph glyph-name="uni0423" unicode="&#x423;" horiz-adv-x="624" 
d="M342 158q-62 -96 -119.5 -132.5t-119.5 -36.5q-47 0 -87 14l9 56q36 -14 71 -14q48 0 88.5 23.5t86.5 86.5l17 24l-217 521h63l191 -467l297 467h67z" />
    <glyph glyph-name="uni0424" unicode="&#x424;" horiz-adv-x="857" 
d="M406 -36h-59l14 92q-156 3 -248.5 84.5t-71.5 217.5q21 135 131.5 209t282.5 77l15 92h59l-15 -92q98 -2 175.5 -37.5t119 -105t27.5 -159.5q-21 -136 -131.5 -209.5t-283.5 -76.5zM101 354q-17 -110 54.5 -175t214.5 -69l76 480q-149 -5 -238.5 -65t-106.5 -171z
M505 590l-76 -480q149 5 239 65.5t108 170.5q17 109 -56.5 174t-214.5 70z" />
    <glyph glyph-name="uni0425" unicode="&#x425;" horiz-adv-x="628" 
d="M33 0h-75l333 363l-203 337h66l177 -294l270 294h75l-316 -344l214 -356h-65l-189 312z" />
    <glyph glyph-name="uni0426" unicode="&#x426;" horiz-adv-x="777" 
d="M670 -170h-56l27 170h-589l111 700h59l-101 -643h440l101 643h60l-102 -643h86z" />
    <glyph glyph-name="uni0427" unicode="&#x427;" horiz-adv-x="677" 
d="M534 0h-60l45 282q-116 -38 -219 -36q-122 2 -182 63t-42 176l34 215h59l-35 -222q-14 -90 34 -132t149 -43q95 -1 211 35l57 362h60z" />
    <glyph glyph-name="uni0428" unicode="&#x428;" horiz-adv-x="1063" 
d="M919 0h-867l111 700h59l-101 -643h344l102 643h59l-101 -643h344l102 643h59z" />
    <glyph glyph-name="uni0429" unicode="&#x429;" horiz-adv-x="1085" 
d="M979 -170h-56l27 170h-898l111 700h59l-101 -643h344l102 643h59l-101 -643h344l102 643h59l-101 -643h86z" />
    <glyph glyph-name="uni042A" unicode="&#x42a;" horiz-adv-x="752" 
d="M377 0h-232l102 643h-182l9 57h242l-41 -256h173q60 0 108 -11t86.5 -35.5t55.5 -70t7 -108.5q-35 -219 -328 -219zM266 387l-52 -330h172q234 0 260 169q8 47 -5 79.5t-43.5 50t-67.5 24.5t-86 7h-178z" />
    <glyph glyph-name="uni042B" unicode="&#x42b;" horiz-adv-x="860" 
d="M283 0h-231l111 700h59l-40 -256h173q60 0 108 -11t86.5 -35.5t55 -70t6.5 -108.5q-33 -219 -328 -219zM172 387l-52 -330h172q234 0 260 169q8 47 -5 79.5t-43.5 50t-67.5 24.5t-86 7h-178zM716 0h-59l111 700h59z" />
    <glyph glyph-name="uni042C" unicode="&#x42c;" horiz-adv-x="658" 
d="M283 0h-231l111 700h59l-40 -256h173q60 0 108 -11t86.5 -35.5t55 -70t6.5 -108.5q-33 -219 -328 -219zM172 387l-52 -330h172q234 0 260 169q8 47 -5 79.5t-43.5 50t-67.5 24.5t-86 7h-178z" />
    <glyph glyph-name="uni042D" unicode="&#x42d;" horiz-adv-x="654" 
d="M105 666q89 45 200 45q65 0 125 -23.5t107 -68t68.5 -117.5t7.5 -162q-28 -173 -144 -262t-267 -89q-115 0 -197 48l9 56q77 -48 183 -48q130 0 227.5 70t125.5 209l-384 -2l9 56l383 2q6 68 -15 122t-60 86.5t-87.5 49.5t-101.5 17q-108 0 -199 -49z" />
    <glyph glyph-name="uni042E" unicode="&#x42e;" horiz-adv-x="1085" 
d="M1047 346q-11 -68 -43 -130.5t-83 -114t-127 -82t-165 -30.5q-104 0 -179 49t-107 123.5t-26 160.5h-155l-51 -322h-59l111 700h59l-51 -322h154q31 137 141.5 235t271.5 98q84 0 150 -31.5t103 -83.5t52 -117t4 -133zM380 350q-5 -44 -2 -87t22.5 -82.5t49 -69.5t77 -48
t106.5 -18q145 0 240.5 90.5t114.5 214.5q5 44 2 87t-22.5 82.5t-49 69.5t-77 48t-106.5 18q-145 0 -240.5 -90.5t-114.5 -214.5z" />
    <glyph glyph-name="uni042F" unicode="&#x42f;" horiz-adv-x="685" 
d="M55 0h-71l261 272q-83 19 -124 73.5t-27 139.5q17 110 99.5 162.5t207.5 52.5h251l-111 -700h-60l42 263h-187q-19 0 -28 1zM154 478q-13 -82 38 -120t147 -38h193l51 323h-191q-95 0 -159.5 -40t-78.5 -125z" />
    <glyph glyph-name="uni0430" unicode="&#x430;" horiz-adv-x="618" 
d="M458 99q-87 -110 -219 -110q-104 0 -162 72.5t-40 183.5q17 109 95.5 177.5t179.5 68.5q68 0 116.5 -31.5t73.5 -80.5l16 101h51l-76 -480h-51zM92 241q-14 -90 31 -145t124 -55q69 0 127.5 38.5t89.5 95.5l21 132q-12 56 -58 94t-111 38q-82 0 -145.5 -53.5
t-78.5 -144.5z" />
    <glyph glyph-name="uni0431" unicode="&#x431;" horiz-adv-x="591" 
d="M534 220q-16 -108 -88 -169.5t-179 -61.5q-114 0 -175 77.5t-40 211.5q17 112 71 192.5t129 122.5q63 34 128 52t110 30.5t75 36.5l-9 -62q-31 -23 -120.5 -44t-154.5 -57q-110 -61 -160 -197q35 49 93.5 78.5t118.5 29.5q93 0 155.5 -68.5t45.5 -171.5zM103 250
q-13 -94 32.5 -150.5t133.5 -56.5q86 0 141.5 50.5t67.5 132.5q13 76 -33 128.5t-123 52.5q-76 0 -137.5 -44t-81.5 -113z" />
    <glyph glyph-name="uni0432" unicode="&#x432;" horiz-adv-x="546" 
d="M291 0h-258l76 480h246q70 0 107 -35t27 -96q-13 -81 -90 -106q36 -9 57.5 -39t13.5 -78q-9 -60 -55 -93t-124 -33zM124 218l-27 -168h191q113 0 127 87q7 45 -17.5 63t-69.5 18h-204zM158 430l-26 -162h192q44 0 72.5 21t35.5 62q6 41 -18 60t-70 19h-186z" />
    <glyph glyph-name="uni0433" unicode="&#x433;" horiz-adv-x="441" 
d="M90 0h-57l76 480h345l-8 -53h-289z" />
    <glyph glyph-name="uni0434" unicode="&#x434;" 
d="M15 -133h-55l29 184h65q60 89 97 189.5t58 239.5h341l-68 -429h70l-30 -184h-55l21 133h-452zM254 427q-38 -215 -140 -376h312l59 376h-231z" />
    <glyph glyph-name="uni0435" unicode="&#x435;" horiz-adv-x="545" 
d="M36 242q18 117 97.5 183t175.5 66q64 0 109.5 -25.5t64 -66t22 -90t-16.5 -97.5h-399q-8 -85 47.5 -128t137.5 -43q91 0 168 40l-9 -57q-70 -35 -168 -35q-49 0 -93 15.5t-79 45.5t-51 80t-6 112zM446 262q4 22 5.5 45.5t-7.5 47t-24 42.5t-44 30.5t-67 11.5
q-75 0 -135.5 -47.5t-77.5 -129.5h350z" />
    <glyph glyph-name="uni0436" unicode="&#x436;" horiz-adv-x="734" 
d="M29 0h-67l243 246l-139 234h59l128 -212h83l33 212h57l-34 -212h83l193 212h64l-216 -238l164 -242h-63l-148 216h-85l-34 -216h-57l34 216h-82z" />
    <glyph glyph-name="uni0437" unicode="&#x437;" horiz-adv-x="479" 
d="M405 124q-22 -135 -233 -135q-100 -1 -175 36l9 54q66 -38 162 -38q166 0 182 96q7 43 -23.5 62t-75.5 19h-120l9 52h113q50 0 82.5 21t38.5 60q6 43 -33.5 65.5t-101.5 22.5q-91 0 -175 -37l9 55q86 36 175 35q91 -1 141.5 -39t40.5 -102q-6 -43 -34.5 -70.5
t-74.5 -35.5q41 -11 66 -43t18 -78z" />
    <glyph glyph-name="uni0438" unicode="&#x438;" horiz-adv-x="589" 
d="M83 0h-50l76 480h57l-61 -386l385 386h50l-76 -480h-56l60 385z" />
    <glyph glyph-name="uni0439" unicode="&#x439;" horiz-adv-x="589" 
d="M479 599q-62 -41 -138 -41q-81 0 -129 41l8 53q53 -44 125 -44q74 0 142 44zM83 0h-50l76 480h57l-61 -386l385 386h50l-76 -480h-56l60 385z" />
    <glyph glyph-name="uni043A" unicode="&#x43a;" horiz-adv-x="511" 
d="M90 0h-57l76 480h57l-32 -202h114l196 202h68l-226 -233l172 -247h-64l-158 226h-111z" />
    <glyph glyph-name="uni043B" unicode="&#x43b;" horiz-adv-x="591" 
d="M250 427q-23 -110 -42.5 -181.5t-46 -133.5t-60.5 -90.5t-77 -28.5q-34 0 -58 10l8 47q13 -8 41 -8q63 0 104.5 105.5t84.5 332.5h338l-76 -480h-57l68 427h-227z" />
    <glyph glyph-name="uni043C" unicode="&#x43c;" horiz-adv-x="675" 
d="M90 0h-57l76 480h57l154 -284l238 284h68l-76 -480h-57l63 397l-217 -258h-47l-139 257z" />
    <glyph glyph-name="uni043D" unicode="&#x43d;" horiz-adv-x="583" 
d="M90 0h-57l76 480h57l-34 -214h312l34 214h56l-76 -480h-56l33 214h-312z" />
    <glyph glyph-name="uni043E" unicode="&#x43e;" horiz-adv-x="593" 
d="M540 235q-18 -115 -102.5 -180.5t-187.5 -65.5q-47 0 -89.5 17.5t-73.5 49t-45 81t-5 108.5q18 115 102.5 180.5t187.5 65.5q101 0 166.5 -69.5t46.5 -186.5zM92 238q-14 -89 33.5 -142t128.5 -53q85 0 150.5 53.5t80.5 145.5q14 89 -33.5 142t-128.5 53
q-85 0 -151 -53.5t-80 -145.5z" />
    <glyph glyph-name="uni043F" unicode="&#x43f;" horiz-adv-x="583" 
d="M90 0h-57l76 480h425l-76 -480h-56l67 427h-312z" />
    <glyph glyph-name="uni0440" unicode="&#x440;" horiz-adv-x="619" 
d="M144 378q86 113 220 113q102 0 160.5 -72.5t41.5 -183.5q-17 -109 -95 -177.5t-181 -68.5q-69 0 -115.5 31.5t-68.5 82.5l-51 -323h-57l111 700h51zM510 239q15 89 -30.5 144.5t-124.5 55.5q-68 0 -126.5 -39t-90.5 -97l-21 -130q13 -57 58.5 -94.5t111.5 -37.5
q83 0 145.5 53t77.5 145z" />
    <glyph glyph-name="uni0441" unicode="&#x441;" horiz-adv-x="498" 
d="M37 246q13 83 62 140.5t109 81t125 23.5q84 0 143 -42l-9 -53q-50 43 -130 43q-55 0 -104 -19t-89 -65.5t-51 -114.5q-16 -97 35 -148t139 -51q79 0 155 42l-9 -59q-71 -35 -158 -35q-106 0 -171.5 67t-46.5 190z" />
    <glyph glyph-name="uni0442" unicode="&#x442;" horiz-adv-x="460" 
d="M212 0h-56l67 427h-186l8 53h429l-8 -53h-186z" />
    <glyph glyph-name="uni0443" unicode="&#x443;" horiz-adv-x="535" 
d="M238 58l247 422h62l-332 -560q-90 -151 -193 -151q-30 0 -52 7l7 48q17 -5 40 -5q43 0 78.5 30t73.5 94l34 57l-160 480h57z" />
    <glyph glyph-name="uni0444" unicode="&#x444;" horiz-adv-x="712" 
d="M303 -220h-56l33 209q-118 2 -189.5 72.5t-54.5 183.5q18 113 108 178.5t216 67.5l33 209h56l-33 -209q118 -2 190 -72.5t54 -183.5t-108 -178.5t-216 -67.5zM92 241q-14 -91 40 -145.5t157 -56.5l64 402q-103 -2 -174.5 -54.5t-86.5 -145.5zM408 441l-64 -402
q103 2 174.5 54.5t86.5 145.5q14 91 -40 145.5t-157 56.5z" />
    <glyph glyph-name="uni0445" unicode="&#x445;" horiz-adv-x="486" 
d="M35 0h-67l236 247l-148 233h64l121 -194l185 194h67l-225 -235l158 -245h-64l-130 206z" />
    <glyph glyph-name="uni0446" unicode="&#x446;" horiz-adv-x="598" 
d="M498 -133h-56l21 133h-430l76 480h57l-68 -427h302l68 427h56l-67 -427h70z" />
    <glyph glyph-name="uni0447" unicode="&#x447;" horiz-adv-x="519" 
d="M394 0h-56l27 173q-71 -26 -154 -26q-86 0 -132 44t-33 129l26 160h56l-25 -160q-10 -65 23 -93t103 -28q69 0 145 26l40 255h56z" />
    <glyph glyph-name="uni0448" unicode="&#x448;" horiz-adv-x="815" 
d="M690 0h-657l76 480h57l-68 -427h244l67 427h57l-68 -427h244l67 427h57z" />
    <glyph glyph-name="uni0449" unicode="&#x449;" horiz-adv-x="839" 
d="M738 -133h-55l21 133h-671l76 480h57l-68 -427h244l67 427h57l-68 -427h244l67 427h57l-68 -427h70z" />
    <glyph glyph-name="uni044A" unicode="&#x44a;" horiz-adv-x="583" 
d="M324 0h-221l68 430h-134l8 50h190l-27 -175h168q79 0 121.5 -44.5t31.5 -111.5t-65 -108t-140 -41zM200 254l-32 -203h155q63 0 102.5 28t47.5 77q7 46 -22.5 72t-86.5 26h-164z" />
    <glyph glyph-name="uni044B" unicode="&#x44b;" horiz-adv-x="713" 
d="M254 0h-221l76 480h57l-28 -175h169q79 0 121 -44t31 -112q-10 -66 -64.5 -107.5t-140.5 -41.5zM130 254l-32 -203h155q63 0 102.5 28t47.5 77q7 46 -22.5 72t-86.5 26h-164zM588 0h-57l76 480h57z" />
    <glyph glyph-name="uni044C" unicode="&#x44c;" horiz-adv-x="513" 
d="M254 0h-221l76 480h57l-28 -175h169q79 0 121 -44t31 -112q-10 -66 -64.5 -107.5t-140.5 -41.5zM130 254l-32 -203h155q63 0 102.5 28t47.5 77q7 46 -22.5 72t-86.5 26h-164z" />
    <glyph glyph-name="uni044D" unicode="&#x44d;" horiz-adv-x="504" 
d="M450 230q-20 -122 -100 -181.5t-184 -59.5q-91 0 -163 43l9 53q65 -44 146 -44q89 0 151.5 42t80.5 133l-267 -2l9 52l266 2q7 86 -48 128.5t-133 42.5q-84 0 -157 -44l9 54q72 42 156 42q103 0 173.5 -67.5t51.5 -193.5z" />
    <glyph glyph-name="uni044E" unicode="&#x44e;" horiz-adv-x="814" 
d="M761 235q-18 -115 -102 -180.5t-187 -65.5q-94 0 -158.5 61t-58.5 164h-132l-33 -214h-57l76 480h57l-34 -213h131q24 103 105.5 163.5t179.5 60.5q101 0 166.5 -69.5t46.5 -186.5zM313 238q-14 -89 33.5 -142t128.5 -53q85 0 150.5 53.5t80.5 145.5q14 89 -33.5 142
t-128.5 53q-85 0 -151 -53.5t-80 -145.5z" />
    <glyph glyph-name="uni044F" unicode="&#x44f;" horiz-adv-x="539" 
d="M52 0h-65l172 186q-55 14 -81.5 52.5t-17.5 94.5q10 64 64 105.5t139 41.5h227l-76 -480h-56l28 178h-168zM116 325q-7 -44 23.5 -70t89.5 -26h165l32 200h-162q-62 0 -101.5 -28t-46.5 -76z" />
    <glyph glyph-name="uni0451" unicode="&#x451;" horiz-adv-x="545" 
d="M468 613q-2 -16 -15 -27t-29 -11q-19 0 -30 13.5t-8 31.5q3 15 16 26.5t29 11.5q18 0 29 -14t8 -31zM267 613q-2 -16 -15 -27t-29 -11q-19 0 -30 13.5t-8 31.5q3 15 16 26.5t29 11.5q18 0 29 -14t8 -31zM36 242q18 117 97.5 183t175.5 66q64 0 109.5 -25.5t64 -66t22 -90
t-16.5 -97.5h-399q-8 -85 47.5 -128t137.5 -43q91 0 168 40l-9 -57q-70 -35 -168 -35q-49 0 -93 15.5t-79 45.5t-51 80t-6 112zM446 262q4 22 5.5 45.5t-7.5 47t-24 42.5t-44 30.5t-67 11.5q-75 0 -135.5 -47.5t-77.5 -129.5h350z" />
    <glyph glyph-name="Wgrave" unicode="&#x1e80;" horiz-adv-x="997" 
d="M979 700h63l-329 -700h-67l-97 590l-285 -590h-70l-111 700h60l98 -624l299 621h49l101 -613zM622 773h-61l-76 142h69z" />
    <glyph glyph-name="wgrave" unicode="&#x1e81;" horiz-adv-x="795" 
d="M742 480h61l-248 -480h-59l-79 399l-209 -399h-61l-96 480h57l81 -408l212 405h51l81 -404zM487 553h-61l-76 142h69z" />
    <glyph glyph-name="Wacute" unicode="&#x1e82;" horiz-adv-x="997" 
d="M979 700h63l-329 -700h-67l-97 590l-285 -590h-70l-111 700h60l98 -624l299 621h49l101 -613zM591 773h-63l112 142h72z" />
    <glyph glyph-name="wacute" unicode="&#x1e83;" horiz-adv-x="795" 
d="M742 480h61l-248 -480h-59l-79 399l-209 -399h-61l-96 480h57l81 -408l212 405h51l81 -404zM456 553h-63l112 142h72z" />
    <glyph glyph-name="Wdieresis" unicode="&#x1e84;" horiz-adv-x="997" 
d="M979 700h63l-329 -700h-67l-97 590l-285 -590h-70l-111 700h60l98 -624l299 621h49l101 -613zM721 833q-2 -16 -15 -27t-29 -11q-19 0 -30 13.5t-8 31.5q3 15 16 26.5t29 11.5q18 0 29 -14t8 -31zM520 833q-2 -16 -15 -27t-29 -11q-19 0 -30 13.5t-8 31.5q3 15 16 26.5
t29 11.5q18 0 29 -14t8 -31z" />
    <glyph glyph-name="wdieresis" unicode="&#x1e85;" horiz-adv-x="795" 
d="M742 480h61l-248 -480h-59l-79 399l-209 -399h-61l-96 480h57l81 -408l212 405h51l81 -404zM586 613q-2 -16 -15 -27t-29 -11q-19 0 -30 13.5t-8 31.5q3 15 16 26.5t29 11.5q18 0 29 -14t8 -31zM385 613q-2 -16 -15 -27t-29 -11q-19 0 -30 13.5t-8 31.5q3 15 16 26.5
t29 11.5q18 0 29 -14t8 -31z" />
    <glyph glyph-name="Ygrave" unicode="&#x1ef2;" horiz-adv-x="643" 
d="M305 0h-60l44 273l-207 427h62l181 -370l299 370h68l-343 -427zM440 773h-61l-76 142h69z" />
    <glyph glyph-name="ygrave" unicode="&#x1ef3;" horiz-adv-x="535" 
d="M238 58l247 422h62l-332 -560q-90 -151 -193 -151q-30 0 -52 7l7 48q17 -5 40 -5q43 0 78.5 30t73.5 94l34 57l-160 480h57zM344 553h-61l-76 142h69z" />
    <glyph glyph-name="endash" unicode="&#x2013;" horiz-adv-x="572" 
d="M493 219h-437l8 54h438z" />
    <glyph glyph-name="emdash" unicode="&#x2014;" horiz-adv-x="757" 
d="M679 219h-623l8 54h623z" />
    <glyph glyph-name="quoteleft" unicode="&#x2018;" horiz-adv-x="208" 
d="M140 477h-61l101 223h48z" />
    <glyph glyph-name="quoteright" unicode="&#x2019;" horiz-adv-x="205" 
d="M129 477h-47l88 223h61z" />
    <glyph glyph-name="quotesinglbase" unicode="&#x201a;" horiz-adv-x="218" 
d="M11 -147h-47l89 224h60z" />
    <glyph glyph-name="quotedblleft" unicode="&#x201c;" horiz-adv-x="341" 
d="M273 477h-61l101 223h48zM140 477h-61l101 223h48z" />
    <glyph glyph-name="quotedblright" unicode="&#x201d;" horiz-adv-x="339" 
d="M263 477h-47l88 223h61zM129 477h-47l88 223h61z" />
    <glyph glyph-name="quotedblbase" unicode="&#x201e;" horiz-adv-x="351" 
d="M144 -147h-47l89 224h60zM11 -147h-47l89 224h60z" />
    <glyph glyph-name="dagger" unicode="&#x2020;" horiz-adv-x="501" 
d="M199 -220h-59l102 643h-187l9 57h187l35 220h59l-35 -220h187l-9 -57h-187z" />
    <glyph glyph-name="daggerdbl" unicode="&#x2021;" horiz-adv-x="525" 
d="M211 -220h-60l50 313h-186l9 56h186l43 274h-185l9 57h185l35 220h60l-35 -220h186l-9 -57h-186l-43 -274h186l-9 -56h-186z" />
    <glyph glyph-name="bullet" unicode="&#x2022;" horiz-adv-x="315" 
d="M102 354q4 28 24.5 43.5t46.5 15.5q28 0 44.5 -18t12.5 -49q-4 -28 -24.5 -43.5t-46.5 -15.5q-28 0 -44.5 18t-12.5 49z" />
    <glyph glyph-name="ellipsis" unicode="&#x2026;" horiz-adv-x="533" 
d="M434 28q-6 -36 -43 -36q-17 0 -28 12t-7 31q2 16 14.5 25.5t27.5 9.5q19 0 29.5 -11.5t6.5 -30.5zM104 28q-6 -36 -42 -36q-18 0 -29 12t-7 31q2 16 14.5 25.5t27.5 9.5q19 0 29.5 -11.5t6.5 -30.5zM269 28q-6 -36 -42 -36q-18 0 -29 12t-7 31q2 16 14.5 25.5t27.5 9.5
q19 0 29.5 -11.5t6.5 -30.5z" />
    <glyph glyph-name="perthousand" unicode="&#x2030;" horiz-adv-x="1267" 
d="M213 -60h-59l539 820h59zM390 555q-10 -69 -61 -107.5t-115 -38.5t-105.5 42.5t-30.5 113.5q11 69 62 107.5t116 38.5q64 0 105 -42.5t29 -113.5zM130 561q-7 -44 17 -73t69 -29q47 0 81 27.5t41 72.5q7 44 -17 73t-67 29q-48 0 -82.5 -27.5t-41.5 -72.5zM828 135
q-11 -69 -62 -107.5t-115 -38.5t-105.5 42.5t-30.5 113.5q11 69 62 107.5t116 38.5q63 0 104.5 -42.5t30.5 -113.5zM567 141q-7 -44 17 -73t69 -29q47 0 81 27.5t41 72.5q7 44 -17 73t-67 29q-48 0 -82.5 -27.5t-41.5 -72.5zM1208 135q-11 -69 -62 -107.5t-115 -38.5
t-105.5 42.5t-30.5 113.5q11 69 62 107.5t116 38.5q63 0 104.5 -42.5t30.5 -113.5zM947 141q-7 -44 17 -73t69 -29q47 0 81 27.5t41 72.5q7 44 -17 73t-67 29q-48 0 -82.5 -27.5t-41.5 -72.5z" />
    <glyph glyph-name="guilsinglleft" unicode="&#x2039;" horiz-adv-x="290" 
d="M193 63h-60l-94 171l2 14l147 169h62l-154 -177z" />
    <glyph glyph-name="guilsinglright" unicode="&#x203a;" horiz-adv-x="291" 
d="M86 63h-62l154 177l-96 177h59l95 -171l-3 -14z" />
    <glyph glyph-name="fraction" unicode="&#x2044;" horiz-adv-x="167" 
d="M-178 -12h-29l572 723h29z" />
    <glyph glyph-name="Euro" unicode="&#x20ac;" horiz-adv-x="725" 
d="M707 586q-74 49 -176 49q-103 0 -191.5 -50t-130.5 -151h366l-8 -50h-374q-3 -11 -7 -35t-4 -53h371l-8 -50h-359q15 -93 85.5 -147t165.5 -54q120 0 202 50l-9 -62q-85 -44 -201 -44q-118 0 -203.5 69.5t-100.5 187.5h-90l8 50h79q0 31 4 56q6 30 6 32h-75l8 50h81
q45 125 154 191t231 66q102 0 186 -49z" />
    <glyph glyph-name="trademark" unicode="&#x2122;" horiz-adv-x="660" 
d="M361 447h-35l41 253h39l75 -144l122 144h42l-40 -253h-35l32 201l-115 -133h-21l-72 133zM189 447h-36l35 220h-88l5 33h212l-5 -33h-88z" />
    <glyph glyph-name="oneeighth" unicode="&#x215b;" horiz-adv-x="923" 
d="M574 313q7 41 49 71.5t113 30.5q69 0 106 -34.5t31 -82.5q-9 -61 -72 -101q65 -35 54 -97q-7 -45 -51 -76t-125 -31t-120 35.5t-30 88.5q11 65 86 107q-49 33 -41 89zM712 185q-38 10 -55 17q-71 -32 -78 -85q-6 -38 20 -58t82 -20q53 0 86.5 18t38.5 48q6 41 -44 63
q-10 4 -50 17zM822 295q6 31 -17 52.5t-71 21.5q-47 0 -76.5 -17t-34.5 -44q-4 -7 -0.5 -14.5t2.5 -12t5.5 -10.5t7.5 -8.5t9.5 -7.5t11.5 -6.5t12.5 -5.5t13 -5t13.5 -4.5t13 -4.5q9 -2 26.5 -6.5t22.5 -5.5q56 33 62 78zM178 -12h-29l572 723h29zM217 680h37l-57 -361h73
l-8 -47h-215l7 47h93l49 309l-92 -34l8 48z" />
    <glyph glyph-name="threeeighths" unicode="&#x215c;" horiz-adv-x="965" 
d="M616 313q7 41 49 71.5t113 30.5q69 0 106 -34.5t31 -82.5q-9 -61 -72 -101q65 -35 54 -97q-7 -45 -51 -76t-125 -31t-120 35.5t-30 88.5q11 65 86 107q-49 33 -41 89zM754 185q-38 10 -55 17q-71 -32 -78 -85q-6 -38 20 -58t82 -20q53 0 86.5 18t38.5 48q6 41 -44 63
q-10 4 -50 17zM864 295q6 31 -17 52.5t-71 21.5q-47 0 -76.5 -17t-34.5 -44q-4 -7 -0.5 -14.5t2.5 -12t5.5 -10.5t7.5 -8.5t9.5 -7.5t11.5 -6.5t12.5 -5.5t13 -5t13.5 -4.5t13 -4.5q9 -2 26.5 -6.5t22.5 -5.5q56 33 62 78zM230 -12h-29l572 723h29zM369 577q-5 -31 -26 -55
t-55 -34q33 -8 53.5 -34.5t13.5 -70.5q-9 -55 -55.5 -84.5t-112.5 -29.5q-78 0 -136 28l8 48q53 -29 126 -29q112 0 123 77q6 38 -17.5 54t-69.5 16h-64l7 47h57q43 0 69.5 19.5t31.5 50.5q4 29 -19.5 46.5t-64.5 17.5q-65 0 -130 -31l8 51q60 27 130 27q58 0 94 -33t29 -81
z" />
    <glyph glyph-name="fiveeighths" unicode="&#x215d;" horiz-adv-x="956" 
d="M607 313q7 41 49 71.5t113 30.5q69 0 106 -34.5t31 -82.5q-9 -61 -72 -101q65 -35 54 -97q-7 -45 -51 -76t-125 -31t-120 35.5t-30 88.5q11 65 86 107q-49 33 -41 89zM745 185q-38 10 -55 17q-71 -32 -78 -85q-6 -38 20 -58t82 -20q53 0 86.5 18t38.5 48q6 41 -44 63
q-10 4 -50 17zM855 295q6 31 -17 52.5t-71 21.5q-47 0 -76.5 -17t-34.5 -44q-4 -7 -0.5 -14.5t2.5 -12t5.5 -10.5t7.5 -8.5t9.5 -7.5t11.5 -6.5t12.5 -5.5t13 -5t13.5 -4.5t13 -4.5q9 -2 26.5 -6.5t22.5 -5.5q56 33 62 78zM221 -12h-29l572 723h29zM134 680h245l-8 -47h-198
l-27 -116q34 9 70 9q61 0 104 -33.5t33 -101.5q-9 -59 -58.5 -92.5t-117.5 -33.5q-77 0 -128 28l7 46q48 -27 117 -27q53 0 88 22.5t42 64.5q8 45 -22 63.5t-83 18.5q-49 0 -111 -20z" />
    <glyph glyph-name="seveneighths" unicode="&#x215e;" horiz-adv-x="863" 
d="M123 -12h-29l572 723h29zM512 313q7 41 49 71.5t113 30.5q69 0 106 -34.5t31 -82.5q-9 -61 -72 -101q65 -35 54 -97q-7 -45 -51 -76t-125 -31t-120 35.5t-30 88.5q11 65 86 107q-49 33 -41 89zM650 185q-38 10 -55 17q-71 -32 -78 -85q-6 -38 20 -58t82 -20q53 0 86.5 18
t38.5 48q6 41 -44 63q-10 4 -50 17zM760 295q6 31 -17 52.5t-71 21.5q-47 0 -76.5 -17t-34.5 -44q-4 -7 -0.5 -14.5t2.5 -12t5.5 -10.5t7.5 -8.5t9.5 -7.5t11.5 -6.5t12.5 -5.5t13 -5t13.5 -4.5t13 -4.5q9 -2 26.5 -6.5t22.5 -5.5q56 33 62 78zM154 272h-55l219 361h-228
l8 47h282l-7 -45z" />
    <glyph glyph-name="partialdiff" unicode="&#x2202;" horiz-adv-x="594" 
d="M536 265q-21 -131 -100 -203.5t-190 -72.5q-106 0 -167 65.5t-44 171.5q15 95 91 157.5t170 62.5q76 0 130.5 -38t64.5 -102q0 3 1 8t1.5 9.5t0.5 9.5q3 83 -24.5 146.5t-77 99.5t-109 53t-126.5 15l8 53q65 0 123.5 -15t111.5 -47t87 -83t49.5 -123t-0.5 -167zM90 219
q-13 -81 30.5 -128.5t127.5 -47.5q80 0 135.5 44t79.5 120q12 86 -34.5 136t-126.5 50t-140 -48.5t-72 -125.5z" />
    <glyph glyph-name="emptyset" unicode="&#x2205;" horiz-adv-x="817" 
d="M780 343q-24 -145 -143 -249.5t-273 -104.5q-129 0 -215 78l-67 -67h-39l87 86q-99 111 -73 271q23 145 142 249.5t274 104.5q130 0 213 -78l68 67h39l-88 -86q48 -52 67.5 -123t7.5 -148zM88 350q-22 -146 65 -242l511 504q-76 68 -190 68q-144 0 -254 -98t-132 -232z
M172 89q77 -69 191 -69q144 0 254 98t132 232q22 145 -65 243z" />
    <glyph glyph-name="product" unicode="&#x220f;" horiz-adv-x="742" 
d="M114 -220h-59l137 863h-99l10 57h666l-9 -57h-98l-137 -863h-59l136 863h-351z" />
    <glyph glyph-name="summation" unicode="&#x2211;" horiz-adv-x="564" 
d="M467 0h-473l5 34l327 318l-226 315l5 33h471l-10 -57h-378l205 -286l-3 -19l-289 -281h375z" />
    <glyph glyph-name="minus" unicode="&#x2212;" horiz-adv-x="519" 
d="M450 320h-375l8 54h375z" />
    <glyph glyph-name="radical" unicode="&#x221a;" horiz-adv-x="730" 
d="M311 0h-53l-113 423h-98l9 57h129l109 -411l446 711h64z" />
    <glyph glyph-name="infinity" unicode="&#x221e;" horiz-adv-x="833" 
d="M433 403q53 63 101.5 97t110.5 34q69 0 113 -49.5t31 -130.5q-12 -79 -67 -125.5t-126 -46.5q-107 0 -176 131q-53 -63 -101.5 -97t-110.5 -34q-70 0 -113.5 49.5t-30.5 130.5q12 79 67.5 125.5t125.5 46.5q105 0 176 -131zM395 360q-28 58 -57.5 89t-74.5 31
q-54 0 -94.5 -31.5t-49.5 -90.5q-9 -58 19.5 -90t79.5 -32q50 0 89.5 31.5t87.5 92.5zM734 362q9 57 -19.5 87.5t-79.5 30.5q-49 0 -89 -31.5t-89 -92.5q28 -57 58 -88.5t75 -31.5q54 0 94 32.5t50 93.5z" />
    <glyph glyph-name="integral" unicode="&#x222b;" horiz-adv-x="412" 
d="M235 652q12 73 59.5 106t105.5 33q42 0 76 -15l-8 -52q-26 13 -65 13q-97 0 -113 -93l-116 -736q-12 -74 -58.5 -106.5t-106.5 -32.5q-42 0 -76 15l8 52q24 -13 58 -13q106 0 120 93z" />
    <glyph glyph-name="approxequal" unicode="&#x2248;" horiz-adv-x="584" 
d="M543 480q-3 -48 -33.5 -76t-76.5 -28q-37 0 -117.5 30.5t-113.5 30.5q-26 0 -42.5 -13.5t-17.5 -37.5h-53q4 49 34.5 76.5t74.5 27.5q40 0 119 -30t114 -30q25 0 41.5 13t17.5 37h53zM520 332q-3 -48 -33.5 -76t-76.5 -28q-37 0 -117.5 30.5t-113.5 30.5
q-26 0 -42.5 -13.5t-17.5 -37.5h-53q4 49 34.5 76.5t74.5 27.5q40 0 119 -30t114 -30q25 0 41.5 13t17.5 37h53z" />
    <glyph glyph-name="notequal" unicode="&#x2260;" horiz-adv-x="552" 
d="M141 131h-52l79 101h-107l8 54h139l99 128h-217l8 54h250l78 101h52l-78 -101h107l-9 -54h-139l-99 -128h218l-8 -54h-250z" />
    <glyph glyph-name="lessequal" unicode="&#x2264;" horiz-adv-x="531" 
d="M435 237l-9 -56l-343 157l9 57l392 156l-8 -56l-331 -129zM397 0h-368l9 54h367z" />
    <glyph glyph-name="greaterequal" unicode="&#x2265;" horiz-adv-x="527" 
d="M465 337l-392 -156l9 56l330 129l-289 129l8 56l344 -157zM412 0h-368l9 54h367z" />
    <glyph glyph-name="lozenge" unicode="&#x25ca;" horiz-adv-x="555" 
d="M264 0h-64l-153 350l263 350h63l154 -350zM110 345l128 -290l226 299l-128 291z" />
    <glyph glyph-name="i.loclTRK" horiz-adv-x="221" 
d="M93 0h-57l76 480h57zM201 599q-3 -20 -17 -31t-33 -11q-21 0 -33.5 13.5t-8.5 36.5q4 19 18 30t32 11q22 0 34 -13t8 -36z" />
    <glyph glyph-name="a.ss01" horiz-adv-x="542" 
d="M425 85q-7 -40 34 -40q18 0 41 7l-8 -47q-24 -9 -51 -9q-33 0 -54 17t-20 54q-81 -78 -198 -78q-70 0 -116 40t-40 110q5 55 43.5 90t84.5 47t99 12q85 0 157 -22l6 37q11 66 -25 101t-120 35q-75 0 -165 -34l9 56q78 30 164 30q109 0 158 -50.5t33 -148.5zM180 38
q54 0 108 25t88 69l14 89q-67 19 -144 19q-67 0 -118.5 -24.5t-56.5 -80.5q-4 -45 27 -71t82 -26z" />
    <glyph glyph-name="aacute.ss01" horiz-adv-x="541" 
d="M424 85q-8 -40 34 -40q18 0 41 7l-8 -47q-24 -9 -51 -9q-33 0 -54 17t-20 54q-81 -78 -198 -78q-70 0 -116 40t-40 110q5 55 43.5 90t84.5 47t99 12q85 0 157 -22l6 37q11 66 -25 101t-120 35q-75 0 -165 -34l9 56q78 30 164 30q109 0 158 -50.5t33 -148.5zM179 38
q54 0 108 25t88 69l14 89q-67 19 -144 19q-67 0 -118.5 -24.5t-56.5 -80.5q-4 -45 27 -71t82 -26zM310 553h-63l112 142h72z" />
    <glyph glyph-name="abreve.ss01" horiz-adv-x="541" 
d="M424 85q-8 -40 34 -40q18 0 41 7l-8 -47q-24 -9 -51 -9q-33 0 -54 17t-20 54q-81 -78 -198 -78q-70 0 -116 40t-40 110q5 55 43.5 90t84.5 47t99 12q85 0 157 -22l6 37q11 66 -25 101t-120 35q-75 0 -165 -34l9 56q78 30 164 30q109 0 158 -50.5t33 -148.5zM179 38
q54 0 108 25t88 69l14 89q-67 19 -144 19q-67 0 -118.5 -24.5t-56.5 -80.5q-4 -45 27 -71t82 -26zM433 599q-62 -41 -138 -41q-81 0 -129 41l9 57q53 -44 125 -44q74 0 141 44z" />
    <glyph glyph-name="acircumflex.ss01" horiz-adv-x="541" 
d="M424 85q-8 -40 34 -40q18 0 41 7l-8 -47q-24 -9 -51 -9q-33 0 -54 17t-20 54q-81 -78 -198 -78q-70 0 -116 40t-40 110q5 55 43.5 90t84.5 47t99 12q85 0 157 -22l6 37q11 66 -25 101t-120 35q-75 0 -165 -34l9 56q78 30 164 30q109 0 158 -50.5t33 -148.5zM179 38
q54 0 108 25t88 69l14 89q-67 19 -144 19q-67 0 -118.5 -24.5t-56.5 -80.5q-4 -45 27 -71t82 -26zM286 691h51l108 -137h-62l-76 94l-105 -94h-67z" />
    <glyph glyph-name="adieresis.ss01" horiz-adv-x="541" 
d="M424 85q-8 -40 34 -40q18 0 41 7l-8 -47q-24 -9 -51 -9q-33 0 -54 17t-20 54q-81 -78 -198 -78q-70 0 -116 40t-40 110q5 55 43.5 90t84.5 47t99 12q85 0 157 -22l6 37q11 66 -25 101t-120 35q-75 0 -165 -34l9 56q78 30 164 30q109 0 158 -50.5t33 -148.5zM179 38
q54 0 108 25t88 69l14 89q-67 19 -144 19q-67 0 -118.5 -24.5t-56.5 -80.5q-4 -45 27 -71t82 -26zM440 613q-2 -16 -15 -27t-29 -11q-19 0 -30 13.5t-8 31.5q3 15 16 26.5t29 11.5q18 0 29 -14t8 -31zM239 613q-2 -16 -15 -27t-29 -11q-19 0 -30 13.5t-8 31.5q3 15 16 26.5
t29 11.5q18 0 29 -14t8 -31z" />
    <glyph glyph-name="agrave.ss01" horiz-adv-x="541" 
d="M424 85q-8 -40 34 -40q18 0 41 7l-8 -47q-24 -9 -51 -9q-33 0 -54 17t-20 54q-81 -78 -198 -78q-70 0 -116 40t-40 110q5 55 43.5 90t84.5 47t99 12q85 0 157 -22l6 37q11 66 -25 101t-120 35q-75 0 -165 -34l9 56q78 30 164 30q109 0 158 -50.5t33 -148.5zM179 38
q54 0 108 25t88 69l14 89q-67 19 -144 19q-67 0 -118.5 -24.5t-56.5 -80.5q-4 -45 27 -71t82 -26zM341 553h-61l-76 142h69z" />
    <glyph glyph-name="amacron.ss01" horiz-adv-x="541" 
d="M424 85q-8 -40 34 -40q18 0 41 7l-8 -47q-24 -9 -51 -9q-33 0 -54 17t-20 54q-81 -78 -198 -78q-70 0 -116 40t-40 110q5 55 43.5 90t84.5 47t99 12q85 0 157 -22l6 37q11 66 -25 101t-120 35q-75 0 -165 -34l9 56q78 30 164 30q109 0 158 -50.5t33 -148.5zM179 38
q54 0 108 25t88 69l14 89q-67 19 -144 19q-67 0 -118.5 -24.5t-56.5 -80.5q-4 -45 27 -71t82 -26zM167 627h280l-8 -52h-280z" />
    <glyph glyph-name="aogonek.ss01" horiz-adv-x="541" 
d="M499 52l-8 -47q-52 -34 -87 -71.5t-39 -70.5q-4 -20 7 -32.5t33 -12.5q26 0 54 10l-8 -47q-28 -10 -60 -10q-43 0 -65 25t-16 63q9 64 105 140q-50 13 -49 68q-81 -78 -198 -78q-70 0 -116 40t-40 110q5 55 43.5 90t84.5 47t99 12q85 0 157 -22l6 37q11 66 -25 101
t-120 35q-75 0 -165 -34l9 56q78 30 164 30q109 0 158 -50.5t33 -148.5l-32 -207q-8 -40 34 -40q18 0 41 7zM179 38q54 0 108 25t88 69l14 89q-67 19 -144 19q-67 0 -118.5 -24.5t-56.5 -80.5q-4 -45 27 -71t82 -26z" />
    <glyph glyph-name="aring.ss01" horiz-adv-x="541" 
d="M424 85q-8 -40 34 -40q18 0 41 7l-8 -47q-24 -9 -51 -9q-33 0 -54 17t-20 54q-81 -78 -198 -78q-70 0 -116 40t-40 110q5 55 43.5 90t84.5 47t99 12q85 0 157 -22l6 37q11 66 -25 101t-120 35q-75 0 -165 -34l9 56q78 30 164 30q109 0 158 -50.5t33 -148.5zM179 38
q54 0 108 25t88 69l14 89q-67 19 -144 19q-67 0 -118.5 -24.5t-56.5 -80.5q-4 -45 27 -71t82 -26zM408 625q-7 -43 -40 -69t-74 -26q-42 0 -69.5 28.5t-20.5 73.5q7 42 40.5 68t74.5 26q42 0 69 -28.5t20 -72.5zM247 628q-4 -25 10 -41.5t37 -16.5q26 0 47 15.5t25 42.5
q4 25 -10 41.5t-37 16.5q-26 0 -47 -15.5t-25 -42.5z" />
    <glyph glyph-name="atilde.ss01" horiz-adv-x="541" 
d="M424 85q-8 -40 34 -40q18 0 41 7l-8 -47q-24 -9 -51 -9q-33 0 -54 17t-20 54q-81 -78 -198 -78q-70 0 -116 40t-40 110q5 55 43.5 90t84.5 47t99 12q85 0 157 -22l6 37q11 66 -25 101t-120 35q-75 0 -165 -34l9 56q78 30 164 30q109 0 158 -50.5t33 -148.5zM179 38
q54 0 108 25t88 69l14 89q-67 19 -144 19q-67 0 -118.5 -24.5t-56.5 -80.5q-4 -45 27 -71t82 -26zM458 646q-1 -44 -24.5 -68t-58.5 -24q-32 0 -82 24t-69 24t-30 -11.5t-11 -31.5h-49q1 44 24.5 68.5t57.5 24.5q32 0 82.5 -24t69.5 -24q41 0 41 42h49z" />
    <glyph glyph-name="ae.ss01" horiz-adv-x="895" 
d="M417 90q-107 -101 -246 -101q-71 0 -119 41t-40 111q5 42 27.5 72t57 45.5t71.5 22.5t78 7q78 0 150 -22l6 37q11 64 -24 100t-111 36q-79 0 -175 -34l9 56q88 30 174 30q75 0 119.5 -32t52.5 -90q37 58 95.5 90t125.5 32q60 0 103 -25.5t61 -66t21 -90.5t-17 -99h-392
q-8 -86 45.5 -127.5t138.5 -41.5q92 0 162 40l-9 -58q-68 -34 -166 -34q-65 0 -118 25.5t-80 75.5zM69 137q-5 -44 29 -71.5t83 -27.5q111 0 216 93q-13 41 -7 90q-71 19 -139 19q-170 0 -182 -103zM662 439q-77 0 -135.5 -47.5t-75.5 -131.5h343q10 28 5.5 60t-17 58
t-44 43.5t-76.5 17.5z" />
    <glyph glyph-name="y.ss01" horiz-adv-x="583" 
d="M457 -5q-20 -118 -95 -172t-174 -54q-111 0 -173 38l9 54q60 -40 159 -40q84 0 144 42t74 136l13 83q-85 -93 -192 -93q-89 0 -134.5 54t-31.5 143l46 294h57l-47 -291q-23 -148 118 -148q57 0 107.5 32t87.5 78l52 329h57z" />
    <glyph glyph-name="yacute.ss01" horiz-adv-x="583" 
d="M457 -5q-20 -118 -95 -172t-174 -54q-111 0 -173 38l9 54q60 -40 159 -40q84 0 144 42t74 136l13 83q-85 -93 -192 -93q-89 0 -134.5 54t-31.5 143l46 294h57l-47 -291q-23 -148 118 -148q57 0 107.5 32t87.5 78l52 329h57zM345 553h-63l112 142h72z" />
    <glyph glyph-name="ycircumflex.ss01" horiz-adv-x="583" 
d="M457 -5q-20 -118 -95 -172t-174 -54q-111 0 -173 38l9 54q60 -40 159 -40q84 0 144 42t74 136l13 83q-85 -93 -192 -93q-89 0 -134.5 54t-31.5 143l46 294h57l-47 -291q-23 -148 118 -148q57 0 107.5 32t87.5 78l52 329h57zM321 691h51l108 -137h-62l-76 94l-105 -94h-67
z" />
    <glyph glyph-name="ydieresis.ss01" horiz-adv-x="583" 
d="M457 -5q-20 -118 -95 -172t-174 -54q-111 0 -173 38l9 54q60 -40 159 -40q84 0 144 42t74 136l13 83q-85 -93 -192 -93q-89 0 -134.5 54t-31.5 143l46 294h57l-47 -291q-23 -148 118 -148q57 0 107.5 32t87.5 78l52 329h57zM475 613q-2 -16 -15 -27t-29 -11
q-19 0 -30 13.5t-8 31.5q3 15 16 26.5t29 11.5q18 0 29 -14t8 -31zM274 613q-2 -16 -15 -27t-29 -11q-19 0 -30 13.5t-8 31.5q3 15 16 26.5t29 11.5q18 0 29 -14t8 -31z" />
    <glyph glyph-name="ygrave.ss01" horiz-adv-x="583" 
d="M457 -5q-20 -118 -95 -172t-174 -54q-111 0 -173 38l9 54q60 -40 159 -40q84 0 144 42t74 136l13 83q-85 -93 -192 -93q-89 0 -134.5 54t-31.5 143l46 294h57l-47 -291q-23 -148 118 -148q57 0 107.5 32t87.5 78l52 329h57zM376 553h-61l-76 142h69z" />
    <glyph glyph-name="f_b" horiz-adv-x="961" 
d="M492 385q37 47 93 76.5t121 29.5q102 0 160.5 -72.5t41.5 -183.5q-17 -110 -93.5 -178t-182.5 -68q-131 0 -189 113l-17 -102h-51l100 629q-55 30 -122 30q-59 0 -97.5 -28.5t-47.5 -84.5l-11 -66h168l-8 -53h-169l-67 -427h-57l68 427h-87l8 53h87l12 70q12 78 67 119.5
t133 41.5q69 0 131 -30l1 6l59 15zM629 41q87 0 148 53t76 145q14 89 -32 144.5t-123 55.5q-69 0 -127 -38.5t-90 -96.5l-22 -131q14 -57 59 -94.5t111 -37.5z" />
    <glyph glyph-name="f_f_b" horiz-adv-x="1271" 
d="M802 385q37 47 93 76.5t121 29.5q102 0 160.5 -72.5t41.5 -183.5q-17 -110 -93.5 -178t-182.5 -68q-131 0 -189 113l-17 -102h-51l101 635q-57 30 -122 30q-59 0 -98 -29.5t-48 -89.5l-11 -66h168l-8 -53h-169l-67 -427h-57l68 427h-254l-67 -427h-57l68 427h-87l8 53h87
l9 57q12 77 69 119t135 42t151 -48q56 68 156 68q74 0 134 -31l1 6l59 15zM450 480l12 70q4 31 17 56q-54 39 -124 39q-59 0 -99.5 -28.5t-49.5 -83.5l-9 -53h253zM939 41q87 0 148 53t76 145q14 89 -32 144.5t-123 55.5q-69 0 -127 -38.5t-90 -96.5l-22 -131
q14 -57 59 -94.5t111 -37.5z" />
    <glyph glyph-name="f_f_h" horiz-adv-x="1236" 
d="M804 397q90 94 198 94q85 0 130 -54t32 -143l-47 -294h-57l46 291q12 72 -21 110t-96 38q-56 0 -108.5 -33t-87.5 -79l-51 -327h-57l101 635q-57 30 -122 30q-59 0 -98 -29.5t-48 -89.5l-11 -66h168l-8 -53h-169l-67 -427h-57l68 427h-254l-67 -427h-57l68 427h-87l8 53
h87l9 57q12 77 69 119t135 42t151 -48q56 68 156 68q74 0 134 -31l1 6l59 15zM450 480l12 70q4 31 17 56q-54 39 -124 39q-59 0 -99.5 -28.5t-49.5 -83.5l-9 -53h253z" />
    <glyph glyph-name="f_f_j" horiz-adv-x="860" 
d="M716 -102q-21 -129 -147 -129q-42 0 -73 14l8 50q24 -12 56 -12q86 0 101 89l82 517h-245l-67 -427h-57l68 427h-254l-67 -427h-57l68 427h-87l8 53h87l9 57q12 78 68 119.5t136 41.5q79 0 152 -48q56 68 158 68q76 0 146 -40l-9 -55q-62 42 -136 42q-58 0 -97.5 -29.5
t-48.5 -89.5l-11 -66h301zM206 533l-9 -53h253l12 70q4 29 17 56q-56 39 -124 39q-61 0 -100.5 -28.5t-48.5 -83.5z" />
    <glyph glyph-name="f_f_k" horiz-adv-x="1161" 
d="M1097 480h68l-227 -234l172 -246h-64l-158 226h-110l-35 -226h-57l101 635q-57 30 -123 30q-59 0 -98 -29.5t-48 -89.5l-11 -66h168l-8 -53h-169l-67 -427h-57l68 427h-254l-67 -427h-57l68 427h-87l8 53h87l9 57q12 77 69 119t135 42t151 -48q56 68 156 68q73 0 135 -31
l1 6l59 15l-68 -430h114zM450 480l12 70q4 31 17 56q-54 39 -124 39q-59 0 -99.5 -28.5t-49.5 -83.5l-9 -53h253z" />
    <glyph glyph-name="f_h" horiz-adv-x="926" 
d="M494 397q90 94 198 94q85 0 130 -54t32 -143l-47 -294h-57l46 291q12 72 -21 110t-96 38q-56 0 -108.5 -33t-87.5 -79l-51 -327h-57l100 629q-55 30 -122 30q-59 0 -97.5 -28.5t-47.5 -84.5l-11 -66h168l-8 -53h-169l-67 -427h-57l68 427h-87l8 53h87l12 70
q12 78 67 119.5t133 41.5q69 0 131 -30l1 6l59 15z" />
    <glyph glyph-name="f_i" horiz-adv-x="550" 
d="M121 0h-57l68 427h-87l8 53h87l12 70q12 78 66.5 119.5t131.5 41.5q83 0 149 -40l-9 -54q-65 42 -137 42q-58 0 -97 -28.5t-48 -84.5l-11 -66h301l-76 -480h-57l68 427h-245z" />
    <glyph glyph-name="f_j" horiz-adv-x="550" 
d="M406 -102q-21 -129 -147 -129q-42 0 -73 14l8 50q24 -12 56 -12q86 0 101 89l82 517h-245l-67 -427h-57l68 427h-87l8 53h87l12 70q12 78 66.5 119.5t131.5 41.5q83 0 149 -40l-9 -54q-65 42 -137 42q-58 0 -97 -28.5t-48 -84.5l-11 -66h301z" />
    <glyph glyph-name="f_k" horiz-adv-x="850" 
d="M787 480h67l-226 -234l172 -246h-64l-158 226h-111l-35 -226h-57l100 629q-55 30 -122 30q-59 0 -97.5 -28.5t-47.5 -84.5l-11 -66h168l-8 -53h-169l-67 -427h-57l68 427h-87l8 53h87l12 70q12 78 67 119.5t133 41.5q69 0 131 -30l1 6l59 15l-67 -424h115z" />
    <glyph glyph-name="f_l" horiz-adv-x="560" 
d="M483 681l1 6l59 15l-111 -702h-57l100 629q-55 30 -122 30q-59 0 -97.5 -28.5t-47.5 -84.5l-11 -66h168l-8 -53h-169l-67 -427h-57l68 427h-87l8 53h87l12 70q12 78 67 119.5t133 41.5q69 0 131 -30z" />
    <glyph glyph-name="uni0414.loclBGR" horiz-adv-x="790" 
d="M11 -170h-57l36 227h74l362 643h67l160 -643h74l-36 -227h-57l27 170h-623zM453 634l-322 -577h463z" />
    <glyph glyph-name="uni041B.loclBGR" horiz-adv-x="681" 
d="M-33 0l408 700h61l186 -700h-62l-162 629l-365 -629h-66z" />
    <glyph glyph-name="uni0424.loclBGR" horiz-adv-x="896" 
d="M414 -103h-58l16 96q-163 6 -250.5 108.5t-63.5 253.5q24 150 140 248t287 104l15 96h58l-15 -96q163 -6 250.5 -108.5t63.5 -253.5q-24 -150 -140 -248t-287 -104zM117 351q-20 -125 49 -210t215 -91l95 600q-147 -6 -243 -89.5t-116 -209.5zM534 650l-95 -600
q148 6 244 89.5t115 209.5q20 124 -49 209.5t-215 91.5z" />
    <glyph glyph-name="uni0432.loclBGR" horiz-adv-x="579" 
d="M368 711q82 0 127.5 -49.5t34.5 -119.5q-16 -103 -135 -149q68 -14 103 -69t23 -131q-15 -90 -82.5 -147t-169.5 -57q-109 0 -168.5 69.5t-38.5 200.5l20 127q53 325 286 325zM309 405q147 31 164 139q7 47 -21.5 81t-85.5 34q-184 0 -227 -273l-2 -15zM270 41
q77 0 130.5 41t64.5 112q12 78 -34 127t-130 32l-172 -35l-9 -59q-17 -111 23.5 -164.5t126.5 -53.5z" />
    <glyph glyph-name="uni0433.loclBGR" horiz-adv-x="473" 
d="M384 38q-80 -49 -193 -49q-88 0 -138 34t-41 104q7 51 45.5 80.5t88.5 40.5t100 20.5t87.5 30.5t43.5 60q6 41 -27.5 60.5t-87.5 19.5q-95 0 -181 -48l9 55q87 45 184 45q75 0 123 -34.5t37 -101.5q-8 -53 -47 -83.5t-89 -42t-100 -20t-87 -29t-42 -57.5q-6 -44 29.5 -63
t104.5 -19q46 0 98.5 15t91.5 40z" />
    <glyph glyph-name="uni0434.loclBGR" horiz-adv-x="619" 
d="M494 -2q-18 -117 -98 -173t-187 -56q-115 0 -190 48l9 54q72 -50 176 -50q91 0 155 44t78 137l15 91q-36 -46 -91 -75t-122 -29q-105 0 -162.5 72.5t-39.5 183.5q17 109 95 177.5t180 68.5q134 0 189 -116l16 105h53zM92 241q-14 -89 30.5 -144.5t124.5 -55.5
q69 0 127.5 37.5t89.5 92.5l22 136q-13 57 -58 94.5t-112 37.5q-83 0 -146 -53t-78 -145z" />
    <glyph glyph-name="uni0436.loclBGR" horiz-adv-x="734" 
d="M29 0h-67l243 246l-139 234h59l128 -212h83l68 432h57l-69 -432h83l193 212h64l-216 -238l164 -242h-63l-148 216h-85l-34 -216h-57l34 216h-82z" />
    <glyph glyph-name="uni0438.loclBGR" horiz-adv-x="583" 
d="M477 480h57l-76 -480h-51l15 89q-33 -41 -87 -70.5t-113 -29.5q-87 0 -133.5 54.5t-32.5 144.5l46 292h57l-46 -291q-12 -72 20.5 -110t96.5 -38q60 0 110.5 32t84.5 80z" />
    <glyph glyph-name="uni0439.loclBGR" horiz-adv-x="583" 
d="M465 599q-62 -41 -138 -41q-81 0 -129 41l8 53q53 -44 125 -44q74 0 142 44zM477 480h57l-76 -480h-51l15 89q-33 -41 -87 -70.5t-113 -29.5q-87 0 -133.5 54.5t-32.5 144.5l46 292h57l-46 -291q-12 -72 20.5 -110t96.5 -38q60 0 110.5 32t84.5 80z" />
    <glyph glyph-name="uni043A.loclBGR" horiz-adv-x="511" 
d="M444 480h68l-227 -234l172 -246h-64l-158 226h-110l-35 -226h-57l111 700h57l-67 -422h114z" />
    <glyph glyph-name="uni043B.loclBGR" horiz-adv-x="531" 
d="M326 480l142 -480h-61l-119 416l-250 -416h-66l294 480h60z" />
    <glyph glyph-name="uni043F.loclBGR" horiz-adv-x="584" 
d="M145 391q92 100 206 100q84 0 129 -54.5t32 -142.5l-47 -294h-57l46 291q12 72 -21 110t-96 38q-56 0 -108.5 -33t-87.5 -78l-51 -328h-57l76 480h51z" />
    <glyph glyph-name="uni0442.loclBGR" horiz-adv-x="893" 
d="M477 399q94 92 195 92q82 0 122.5 -53.5t27.5 -136.5l-48 -301h-56l48 306q10 60 -18 96.5t-85 36.5q-92 0 -175 -95q0 -20 -3 -43l-48 -301h-57l49 306q9 60 -18.5 96.5t-84.5 36.5q-95 0 -183 -103l-53 -336h-57l76 480h51l-14 -82q33 36 83 64.5t105 28.5
q54 0 91 -24.5t52 -67.5z" />
    <glyph glyph-name="uni0446.loclBGR" horiz-adv-x="612" 
d="M473 92q-4 -27 7 -37t35 -10h28l-28 -178h-53l20 130q-33 2 -51.5 23t-14.5 62q-35 -39 -86.5 -66t-107.5 -27q-87 0 -133.5 54.5t-32.5 144.5l46 292h57l-46 -291q-12 -72 20.5 -110t96.5 -38q60 0 110.5 32t84.5 80l52 327h57z" />
    <glyph glyph-name="uni0448.loclBGR" horiz-adv-x="893" 
d="M734 139l53 341h57l-76 -480h-51l12 80q-30 -35 -79.5 -63t-106.5 -28q-54 0 -91.5 25.5t-51.5 69.5q-91 -95 -194 -95q-81 0 -122.5 54t-28.5 136l48 301h56l-48 -306q-9 -60 18.5 -96.5t84.5 -36.5q92 0 176 96q0 21 3 42l47 301h57l-49 -306q-9 -60 18.5 -96.5
t84.5 -36.5q99 0 183 98z" />
    <glyph glyph-name="uni0449.loclBGR" horiz-adv-x="923" 
d="M783 91q-8 -46 42 -46h29l-28 -178h-53l20 129q-71 7 -68 79q-31 -34 -79 -60t-102 -26t-91.5 25t-52.5 69q-90 -94 -194 -94q-81 0 -122.5 54t-28.5 136l48 301h56l-48 -306q-9 -60 18.5 -96.5t84.5 -36.5q94 0 176 96q0 19 3 42l48 301h56l-48 -306q-9 -60 18.5 -96.5
t84.5 -36.5q55 0 102.5 29.5t79.5 68.5l54 341h57z" />
    <glyph glyph-name="uni044E.loclBGR" horiz-adv-x="814" 
d="M761 235q-18 -115 -102 -180.5t-187 -65.5q-94 0 -158 61t-59 164h-132l-33 -214h-57l111 700h57l-69 -433h131q24 103 105.5 163.5t179.5 60.5q101 0 166.5 -69.5t46.5 -186.5zM313 238q-14 -89 33.5 -142t128.5 -53q85 0 150.5 53.5t80.5 145.5q14 89 -33.5 142
t-128.5 53q-85 0 -151 -53.5t-80 -145.5z" />
    <glyph glyph-name="uni0430.ss01" horiz-adv-x="547" 
d="M424 85q-8 -40 34 -40q18 0 41 7l-8 -47q-24 -9 -51 -9q-33 0 -54 17t-20 54q-81 -78 -198 -78q-70 0 -116 40t-40 110q5 55 43.5 90t84.5 47t99 12q85 0 157 -22l6 37q11 66 -25 101t-120 35q-75 0 -165 -34l9 56q78 30 164 30q109 0 158 -50.5t33 -148.5zM179 38
q54 0 108 25t88 69l14 89q-67 19 -144 19q-67 0 -118.5 -24.5t-56.5 -80.5q-4 -45 27 -71t82 -26z" />
    <glyph glyph-name="uni0437.ss01" horiz-adv-x="455" 
d="M376 -34q-16 -98 -88 -147.5t-178 -49.5q-109 0 -170 46l8 54q63 -48 156 -48q84 0 143.5 38t71.5 113q13 78 -33.5 128.5t-129.5 32.5l-66 -14l8 53l75 16q138 33 154 138q8 51 -25.5 82t-89.5 31q-87 0 -168 -50l9 61q83 42 164 42q80 0 129.5 -48t38.5 -122
q-16 -105 -135 -150q66 -15 102 -74t24 -132z" />
    <glyph glyph-name="uni0443.ss01" horiz-adv-x="583" 
d="M457 -5q-20 -118 -95 -172t-174 -54q-111 0 -173 38l9 54q60 -40 159 -40q84 0 144 42t74 136l13 83q-85 -93 -192 -93q-89 0 -134.5 54t-31.5 143l46 294h57l-47 -291q-23 -148 118 -148q57 0 107.5 32t87.5 78l52 329h57z" />
    <glyph glyph-name="zero.osf" horiz-adv-x="656" 
d="M602 253q-17 -106 -101.5 -185t-213.5 -79q-68 0 -120 24.5t-80 64.5t-39 89t-3 100q17 106 102.5 185t211.5 79q89 0 149.5 -42t82.5 -104t11 -132zM104 261q-14 -88 33.5 -152t150.5 -64q104 0 172 62.5t82 151.5q14 87 -34 151.5t-149 64.5q-104 0 -172.5 -62.5
t-82.5 -151.5z" />
    <glyph glyph-name="one.osf" horiz-adv-x="421" 
d="M258 520h43l-73 -463h134l-10 -57h-341l9 57h149l63 399l-157 -56l9 57z" />
    <glyph glyph-name="two.osf" horiz-adv-x="526" 
d="M429 0h-428l7 39q3 20 9 37t17 32t19.5 26t26.5 23t27.5 19t33.5 18t33 15t36.5 15t34.5 14q4 2 32 13t35 14.5t29.5 14t31 18t22 20t19.5 26t9 29.5q8 47 -27 75t-100 28q-99 0 -207 -60l9 61q99 54 205 54q89 0 139.5 -45.5t38.5 -120.5q-3 -19 -12 -36.5t-17 -30
t-26.5 -27t-27 -21.5t-34.5 -20t-32.5 -16t-36.5 -15.5t-33 -13.5q-112 -47 -142 -67q-40 -28 -46 -61h365z" />
    <glyph glyph-name="three.osf" horiz-adv-x="541" 
d="M475 345q-9 -53 -45.5 -94.5t-92.5 -56.5q57 -14 91.5 -58t22.5 -117q-14 -90 -90 -140t-172 -50q-123 0 -208 45l9 57q82 -46 197 -46q79 0 138.5 37t70.5 107q11 69 -32 101.5t-116 32.5h-86l9 57l77 -1q70 -1 115.5 36.5t54.5 92.5q9 56 -29 92t-111 36
q-99 0 -197 -50l10 60q96 45 197 45q94 0 147 -53t40 -133z" />
    <glyph glyph-name="four.osf" horiz-adv-x="592" 
d="M414 520h65l-73 -466h126l-8 -55h-127l-25 -159h-59l26 159h-363l8 53zM347 54l61 383l-352 -383h291z" />
    <glyph glyph-name="five.osf" horiz-adv-x="533" 
d="M127 520h369l-9 -57h-314l-50 -233q61 19 125 19q41 0 80 -12.5t71 -37t47.5 -67.5t6.5 -97q-15 -94 -93 -150t-184 -56q-107 0 -191 46l9 56q79 -47 177 -47q88 0 149.5 42.5t73.5 115.5q12 80 -37.5 116.5t-129.5 36.5q-84 0 -176 -33z" />
    <glyph glyph-name="six.osf" horiz-adv-x="586" 
d="M544 598q-63 37 -139 37q-43 0 -85 -16.5t-81.5 -50t-70.5 -93t-46 -137.5q102 80 217 80q87 0 146 -57t43 -157t-88.5 -157.5t-163.5 -57.5q-129 0 -184.5 90.5t-30.5 248.5q14 92 49.5 163.5t83.5 114t101.5 64t110.5 21.5q83 0 146 -38zM272 44q72 0 128 42t69 122
t-30.5 117.5t-114.5 37.5q-111 0 -211 -92q-8 -111 34 -169t125 -58z" />
    <glyph glyph-name="seven.osf" horiz-adv-x="481" 
d="M54 520h447l-7 -53l-389 -627h-65l386 623h-380z" />
    <glyph glyph-name="eight.osf" horiz-adv-x="614" 
d="M114 524q11 68 78 117.5t173 49.5q102 0 159 -55.5t47 -129.5q-14 -106 -132 -178q121 -55 103 -163q-11 -74 -83 -125t-193 -51q-120 0 -181.5 57t-47.5 142q8 53 47.5 103t106.5 85q-92 53 -77 148zM316 322q-38 13 -77 28q-60 -27 -98 -71t-46 -92
q-11 -66 35.5 -104.5t138.5 -38.5q86 0 146 36t68 90q9 57 -23.5 83.5t-121.5 60.5q-15 5 -22 8zM512 504q9 53 -32 92.5t-118 39.5q-76 0 -129 -34.5t-61 -83.5q-5 -30 3.5 -52.5t33 -39.5t47 -27.5t63.5 -25.5q57 -18 71 -22q51 29 83 68.5t39 84.5z" />
    <glyph glyph-name="nine.osf" horiz-adv-x="574" 
d="M42 319q16 100 88.5 156t163.5 56q129 0 184.5 -90.5t30.5 -248.5q-29 -180 -126 -271.5t-218 -91.5q-79 0 -147 38l8 56q64 -38 140 -38q93 0 173 73t108 222q-97 -78 -216 -78q-88 0 -146.5 58t-42.5 159zM297 476q-72 0 -127.5 -41t-68.5 -121q-13 -79 31 -118
t115 -39q113 0 210 92q8 110 -35 168.5t-125 58.5z" />
    <glyph glyph-name="zero.sinf" horiz-adv-x="433" 
d="M367 99q-15 -92 -70.5 -149t-139.5 -57q-90 0 -127.5 60t-22.5 156q15 92 70.5 149t140.5 57q89 0 126.5 -60t22.5 -156zM57 105q-12 -78 12.5 -121.5t88.5 -43.5q133 0 160 163q12 78 -12.5 121.5t-88.5 43.5q-135 0 -160 -163z" />
    <glyph glyph-name="one.sinf" horiz-adv-x="263" 
d="M140 308h37l-57 -361h73l-8 -47h-215l7 47h93l49 309l-92 -34l8 48z" />
    <glyph glyph-name="two.sinf" horiz-adv-x="351" 
d="M43 278q64 37 134 37q58 0 95 -30.5t28 -82.5q-13 -77 -136 -140q-33 -17 -46.5 -25t-35.5 -23t-32.5 -31t-14.5 -36h229l-8 -47h-287l4 26q5 35 19.5 62.5t41 48.5t45.5 32.5t55 29.5q54 27 82.5 51.5t34.5 57.5q5 29 -17 45t-59 16q-69 0 -140 -44z" />
    <glyph glyph-name="three.sinf" horiz-adv-x="358" 
d="M293 201q-5 -31 -26 -55t-55 -34q33 -8 53.5 -34.5t13.5 -70.5q-9 -55 -55.5 -84.5t-112.5 -29.5q-78 0 -136 28l8 48q53 -29 126 -29q112 0 123 77q6 38 -17.5 54t-69.5 16h-64l7 47h57q43 0 69.5 19.5t31.5 50.5q4 29 -19.5 46.5t-64.5 17.5q-65 0 -130 -31l8 51
q60 27 130 27q58 0 94 -33t29 -81z" />
    <glyph glyph-name="four.sinf" horiz-adv-x="395" 
d="M246 308h54l-43 -271h77l-7 -46h-77l-15 -91h-48l14 91h-228l7 45zM208 37l32 202l-198 -202h166z" />
    <glyph glyph-name="five.sinf" horiz-adv-x="355" 
d="M63 308h245l-8 -47h-198l-27 -116q34 9 70 9q61 0 104 -33.5t33 -101.5q-9 -59 -58.5 -92.5t-117.5 -33.5q-77 0 -128 28l7 46q48 -27 117 -27q53 0 88 22.5t42 64.5q8 45 -22 63.5t-83 18.5q-49 0 -111 -20z" />
    <glyph glyph-name="six.sinf" horiz-adv-x="382" 
d="M60 116q63 38 130 38q57 0 94.5 -35t27.5 -96q-9 -62 -55.5 -96t-108.5 -34q-83 0 -120 56t-22 152q17 106 76.5 160t139.5 54q54 0 97 -24l-7 -46q-36 23 -90 23q-56 0 -100 -36.5t-62 -115.5zM146 -61q103 0 116 85q8 44 -17 64t-68 20q-69 0 -125 -44
q-10 -125 94 -125z" />
    <glyph glyph-name="seven.sinf" horiz-adv-x="316" 
d="M75 -100h-55l219 361h-228l8 47h282l-7 -45z" />
    <glyph glyph-name="eight.sinf" horiz-adv-x="398" 
d="M36 213q7 41 49 71.5t113 30.5q69 0 106 -34.5t31 -82.5q-9 -61 -72 -101q65 -35 54 -97q-7 -45 -51 -76t-125 -31t-120 35.5t-30 88.5q11 65 86 107q-49 33 -41 89zM174 85q-38 10 -55 17q-71 -32 -78 -85q-6 -38 20 -58t82 -20q53 0 86.5 18t38.5 48q6 41 -44 63
q-10 4 -50 17zM284 195q6 31 -17 52.5t-71 21.5q-47 0 -76.5 -17t-34.5 -44q-4 -7 -0.5 -14.5t2.5 -12t5.5 -10.5t7.5 -8.5t9.5 -7.5t11.5 -6.5t12.5 -5.5t13 -5t13.5 -4.5t13 -4.5q9 -2 26.5 -6.5t22.5 -5.5q56 33 62 78z" />
    <glyph glyph-name="nine.sinf" horiz-adv-x="382" 
d="M11 185q9 62 55.5 96t108.5 34q85 0 121 -55.5t21 -152.5q-17 -106 -76.5 -160t-140.5 -54q-54 0 -96 24l7 46q39 -23 90 -23q57 0 100.5 36.5t61.5 114.5q-64 -37 -130 -37q-57 0 -94.5 35t-27.5 96zM177 269q-46 0 -78 -21t-39 -64q-7 -44 18 -64t69 -20q69 0 124 45
q10 124 -94 124z" />
    <glyph glyph-name="zero.sups" horiz-adv-x="432" 
d="M442 575q-15 -92 -70.5 -149t-139.5 -57q-90 0 -127.5 60t-22.5 156q15 92 70.5 149t140.5 57q89 0 126.5 -60t22.5 -156zM132 581q-12 -78 12.5 -121.5t88.5 -43.5q133 0 160 163q12 78 -12.5 121.5t-88.5 43.5q-135 0 -160 -163z" />
    <glyph glyph-name="one.sups" horiz-adv-x="262" 
d="M214 780h37l-57 -361h73l-8 -47h-215l7 47h93l49 309l-92 -34l8 48z" />
    <glyph glyph-name="two.sups" horiz-adv-x="352" 
d="M119 754q64 37 134 37q58 0 95 -30.5t28 -82.5q-13 -77 -136 -140q-33 -17 -46.5 -25t-35.5 -23t-32.5 -31t-14.5 -36h229l-8 -47h-287l4 26q5 35 19.5 62.5t41 48.5t45.5 32.5t55 29.5q54 27 82.5 51.5t34.5 57.5q5 29 -17 45t-59 16q-69 0 -140 -44z" />
    <glyph glyph-name="three.sups" horiz-adv-x="359" 
d="M369 677q-5 -31 -26 -55t-55 -34q33 -8 53.5 -34.5t13.5 -70.5q-9 -55 -55.5 -84.5t-112.5 -29.5q-78 0 -136 28l8 48q53 -29 126 -29q112 0 123 77q6 38 -17.5 54t-69.5 16h-64l7 47h57q43 0 69.5 19.5t31.5 50.5q4 29 -19.5 46.5t-64.5 17.5q-65 0 -130 -31l8 51
q60 27 130 27q58 0 94 -33t29 -81z" />
    <glyph glyph-name="four.sups" horiz-adv-x="395" 
d="M320 780h54l-43 -271h77l-7 -46h-77l-15 -91h-48l14 91h-228l7 45zM282 509l32 202l-198 -202h166z" />
    <glyph glyph-name="five.sups" horiz-adv-x="356" 
d="M138 780h245l-8 -47h-198l-27 -116q35 9 70 9q61 0 104 -33.5t33 -101.5q-9 -59 -58.5 -92.5t-117.5 -33.5q-77 0 -128 28l7 46q48 -27 117 -27q53 0 88 22.5t42 64.5q8 45 -22 63.5t-83 18.5q-49 0 -111 -20z" />
    <glyph glyph-name="six.sups" horiz-adv-x="381" 
d="M135 592q63 38 130 38q57 0 94.5 -35t27.5 -96q-9 -62 -55.5 -96t-108.5 -34q-83 0 -120 56t-22 152q17 106 76.5 160t139.5 54q54 0 97 -24l-7 -46q-36 23 -90 23q-56 0 -100 -36.5t-62 -115.5zM221 415q103 0 116 85q8 44 -17 64t-68 20q-69 0 -125 -44
q-10 -125 94 -125z" />
    <glyph glyph-name="seven.sups" horiz-adv-x="316" 
d="M150 372h-55l219 361h-228l8 47h282l-7 -45z" />
    <glyph glyph-name="eight.sups" horiz-adv-x="398" 
d="M112 689q7 41 49 71.5t113 30.5q69 0 106 -34.5t31 -82.5q-9 -61 -72 -101q65 -35 54 -97q-7 -45 -51 -76t-125 -31t-120 35.5t-30 88.5q11 65 86 107q-49 33 -41 89zM250 561q-38 10 -55 17q-71 -32 -78 -85q-6 -38 20 -58t82 -20q53 0 86.5 18t38.5 48q6 41 -44 63
q-10 4 -50 17zM360 671q6 31 -17 52.5t-71 21.5q-47 0 -76.5 -17t-34.5 -44q-4 -7 -0.5 -14.5t2.5 -12t5.5 -10.5t7.5 -8.5t9.5 -7.5t11.5 -6.5t12.5 -5.5t13 -5t13.5 -4.5t13 -4.5q9 -2 26.5 -6.5t22.5 -5.5q56 33 62 78z" />
    <glyph glyph-name="nine.sups" horiz-adv-x="381" 
d="M86 661q9 62 55.5 96t108.5 34q85 0 121 -55.5t21 -152.5q-17 -106 -76.5 -160t-140.5 -54q-54 0 -96 24l7 46q39 -23 90 -23q57 0 100.5 36.5t61.5 114.5q-64 -37 -130 -37q-57 0 -94.5 35t-27.5 96zM252 745q-46 0 -78 -21t-39 -64q-7 -44 18 -64t69 -20q68 0 124 45
q10 124 -94 124z" />
    <glyph glyph-name="zero.tf" 
d="M46 345q25 156 110.5 251t215.5 95q128 0 186.5 -99.5t33.5 -256.5q-25 -155 -111 -250.5t-215 -95.5q-128 0 -186.5 99.5t-33.5 256.5zM534 339q21 136 -21.5 216t-143.5 80q-104 0 -173 -78t-91 -216q-21 -136 21 -216t143 -80q105 0 174 78t91 216z" />
    <glyph glyph-name="one.tf" 
d="M384 680h43l-99 -623h214l-10 -57h-503l9 57h231l89 559l-212 -74l9 57z" />
    <glyph glyph-name="two.tf" 
d="M141 628q112 63 231 63q104 0 163 -51t46 -134q-5 -33 -21.5 -61.5t-34.5 -48.5t-54 -44t-59 -37t-70 -38q-7 -4 -40 -21t-42 -22t-36.5 -21.5t-38 -25t-30 -25.5t-28.5 -31.5t-18.5 -33.5t-13.5 -40h422l-10 -57h-488l5 32q4 24 11.5 46.5t14.5 40t22.5 36.5t24 30.5
t30.5 28t31 23.5t36.5 23.5t35.5 20.5t40 21.5t39 20.5q109 58 142 83q62 49 72 107q9 56 -33 89.5t-126 33.5q-110 0 -226 -71z" />
    <glyph glyph-name="three.tf" 
d="M567 505q-9 -53 -45.5 -94.5t-93.5 -56.5q57 -14 92 -58t23 -117q-14 -91 -92.5 -140.5t-188.5 -49.5q-144 0 -234 45l8 55q88 -46 225 -45q92 1 153 37.5t73 107.5q11 70 -35 102t-133 32h-113l10 55h104q84 0 132.5 37t56.5 93q9 57 -32.5 92.5t-128.5 35.5
q-111 0 -224 -49l10 59q97 45 224 45q105 0 163 -53t46 -133z" />
    <glyph glyph-name="four.tf" 
d="M467 680h66l-74 -466h126l-8 -55h-127l-25 -159h-59l25 159h-389l8 52zM399 214l61 385l-376 -385h315z" />
    <glyph glyph-name="five.tf" 
d="M174 680h414l-8 -57h-360l-52 -233q66 19 146 19q110 0 179.5 -54t52.5 -162q-15 -95 -96 -149.5t-197 -54.5q-136 0 -220 46l8 54q81 -45 208 -45q98 0 162 41t76 115q13 81 -42 118t-153 37q-101 0 -195 -33z" />
    <glyph glyph-name="six.tf" 
d="M567 599q-61 36 -144 36q-53 0 -98.5 -16.5t-85 -51t-68.5 -93.5t-44 -139q114 83 238 83q92 0 153 -56.5t45 -157.5t-91.5 -158t-176.5 -57q-136 0 -195 90.5t-34 248.5q29 183 125 273t234 90q84 0 151 -38zM294 44q81 0 139 42t71 122q13 81 -32 118t-123 37
q-127 0 -231 -93q-8 -111 37 -168.5t139 -57.5z" />
    <glyph glyph-name="seven.tf" 
d="M116 680h516l-8 -53l-398 -627h-65l395 623h-449z" />
    <glyph glyph-name="eight.tf" 
d="M561 160q-12 -73 -84 -122t-199 -49q-133 0 -199 58.5t-52 144.5q8 54 47.5 102.5t106.5 81.5q-92 55 -77 148q11 69 78.5 118t186.5 49q111 0 171 -58.5t50 -133.5q-13 -101 -131 -171q119 -53 102 -168zM86 194q-11 -68 40 -109t158 -41q91 0 149.5 35t67.5 89
q5 34 -5.5 58.5t-37.5 41t-53.5 26.5t-69.5 23q-7 2 -11 3q-52 15 -94 30q-62 -26 -99 -67t-45 -89zM324 374q26 -6 85 -24q106 59 121 149q9 56 -33.5 96.5t-130.5 40.5t-141.5 -33t-61.5 -83q-5 -33 5.5 -57t38 -40.5t49 -25t58.5 -20.5q7 -2 10 -3z" />
    <glyph glyph-name="nine.tf" 
d="M76 476q16 101 91.5 158t176.5 57q136 0 195 -90.5t34 -248.5q-29 -183 -125 -273t-234 -90q-84 0 -151 38l9 55q59 -37 144 -37q53 0 98.5 16.5t85 51t68.5 93.5t44 139q-114 -83 -238 -83q-92 0 -153 56.5t-45 157.5zM345 636q-81 0 -139 -43.5t-71 -124.5
q-9 -54 11.5 -89t57 -48.5t86.5 -13.5q127 0 231 93q8 111 -37 168.5t-139 57.5z" />
    <glyph glyph-name="zero.tosf" 
d="M585 256q-11 -68 -49 -127.5t-107.5 -99.5t-157.5 -40q-87 0 -147 41.5t-83 103t-12 130.5q17 107 102 187t213 80t193 -83.5t48 -191.5zM88 259q-14 -87 34 -150.5t149 -63.5q105 0 173 63t82 153q14 87 -34.5 150.5t-148.5 63.5q-104 0 -172.5 -63t-82.5 -153z" />
    <glyph glyph-name="one.tosf" 
d="M357 520h43l-73 -463h214l-10 -57h-503l9 57h231l63 399l-211 -74l9 57z" />
    <glyph glyph-name="two.tosf" 
d="M506 0h-481l7 39q6 38 27.5 69t43.5 49t64 36.5t63.5 25t68.5 20.5q95 27 141 55.5t54 77.5q7 48 -33 76t-114 28q-118 0 -235 -69l10 61q110 63 232 63q99 0 154.5 -45.5t43.5 -121.5q-11 -67 -69.5 -106t-165.5 -69q-205 -58 -217 -132h415z" />
    <glyph glyph-name="three.tosf" 
d="M536 345q-9 -53 -45.5 -94.5t-93.5 -56.5q57 -14 92 -58t24 -117q-15 -91 -92.5 -140.5t-187.5 -49.5q-139 0 -229 45l8 55q86 -45 220 -45q92 0 152.5 36.5t72.5 108.5q11 70 -35.5 102t-133.5 32h-106l10 55h97q84 0 132.5 37t57.5 93q9 57 -32.5 92.5t-127.5 35.5
q-106 0 -219 -49l10 59q98 45 219 45q103 0 161 -53t46 -133z" />
    <glyph glyph-name="four.tosf" 
d="M440 513h65l-74 -465h132l-9 -56h-131l-26 -159h-59l25 159h-389l8 52zM372 48l62 384l-376 -384h314z" />
    <glyph glyph-name="five.tosf" 
d="M152 520h408l-9 -57h-353l-52 -233q66 19 137 19q112 0 181.5 -54t52.5 -162q-15 -95 -96 -149.5t-198 -54.5q-128 0 -212 46l8 54q81 -45 200 -45q98 0 163 41t76 115q13 81 -42 118t-154 37q-93 0 -187 -33z" />
    <glyph glyph-name="six.tosf" 
d="M567 599q-61 36 -144 36q-53 0 -98.5 -16.5t-85 -51t-68.5 -93.5t-44 -139q114 83 238 83q92 0 153 -56.5t45 -157.5t-91.5 -158t-176.5 -57q-136 0 -195 90.5t-34 248.5q29 183 125 273t234 90q84 0 151 -38zM294 44q81 0 139 42t71 122q13 81 -32 118t-123 37
q-127 0 -231 -93q-8 -111 37 -168.5t139 -57.5z" />
    <glyph glyph-name="seven.tosf" 
d="M93 520h511l-8 -53l-406 -627h-66l404 623h-444z" />
    <glyph glyph-name="eight.tosf" 
d="M561 160q-12 -73 -85 -122t-198 -49q-135 0 -200 59t-51 146q8 54 47 101.5t107 80.5q-92 55 -77 148q11 70 77 118.5t185 48.5q112 0 173 -58.5t51 -133.5q-13 -101 -131 -171q119 -53 102 -168zM86 194q-11 -68 40 -109t158 -41q91 0 149.5 35t67.5 89q5 34 -5.5 58.5
t-37.5 41t-53.5 26.5t-69.5 23q-7 2 -11 3q-52 15 -94 30q-62 -26 -99 -67t-45 -89zM324 374q26 -6 85 -24q106 59 121 149q9 56 -34.5 96.5t-131.5 40.5q-89 0 -141 -33t-60 -83q-5 -33 5.5 -57t38 -40.5t49 -25t58.5 -20.5q7 -2 10 -3z" />
    <glyph glyph-name="nine.tosf" 
d="M50 316q16 101 91.5 158t176.5 57q136 0 195 -90.5t34 -248.5q-29 -183 -125 -273t-234 -90q-84 0 -151 38l9 55q59 -37 144 -37q53 0 98.5 16.5t85 51t68.5 93.5t44 139q-114 -83 -238 -83q-92 0 -153 56.5t-45 157.5zM319 476q-81 0 -139 -41.5t-71 -122.5
q-13 -80 32 -117.5t123 -37.5q127 0 231 93q8 111 -37 168.5t-139 57.5z" />
    <glyph glyph-name="zero.dnom" horiz-adv-x="433" 
d="M383 199q-15 -92 -70.5 -149t-139.5 -57q-90 0 -127.5 60t-22.5 156q15 92 70.5 149t140.5 57q89 0 126.5 -60t22.5 -156zM73 205q-12 -78 12.5 -121.5t88.5 -43.5q133 0 160 163q12 78 -12.5 121.5t-88.5 43.5q-135 0 -160 -163z" />
    <glyph glyph-name="one.dnom" horiz-adv-x="262" 
d="M155 408h37l-57 -361h73l-8 -47h-215l7 47h93l49 309l-92 -34l8 48z" />
    <glyph glyph-name="two.dnom" horiz-adv-x="351" 
d="M59 378q64 37 134 37q58 0 95 -30.5t28 -82.5q-13 -77 -136 -140q-33 -17 -46.5 -25t-35.5 -23t-32.5 -31t-14.5 -36h229l-8 -47h-287l4 26q5 35 19.5 62.5t41 48.5t45.5 32.5t55 29.5q54 27 82.5 51.5t34.5 57.5q5 29 -17 45t-59 16q-69 0 -140 -44z" />
    <glyph glyph-name="three.dnom" horiz-adv-x="358" 
d="M309 301q-5 -31 -26 -55t-55 -34q33 -8 53.5 -34.5t13.5 -70.5q-9 -55 -55.5 -84.5t-112.5 -29.5q-78 0 -136 28l8 48q53 -29 126 -29q112 0 123 77q6 38 -17.5 54t-69.5 16h-64l7 47h57q43 0 69.5 19.5t31.5 50.5q4 29 -19.5 46.5t-64.5 17.5q-65 0 -130 -31l8 51
q60 27 130 27q58 0 94 -33t29 -81z" />
    <glyph glyph-name="four.dnom" horiz-adv-x="394" 
d="M261 408h54l-43 -271h77l-7 -46h-77l-15 -91h-48l14 91h-228l7 45zM223 137l32 202l-198 -202h166z" />
    <glyph glyph-name="five.dnom" horiz-adv-x="355" 
d="M79 408h245l-8 -47h-198l-27 -116q35 9 70 9q61 0 104 -33.5t33 -101.5q-9 -59 -58.5 -92.5t-117.5 -33.5q-77 0 -128 28l7 46q48 -27 117 -27q53 0 88 22.5t42 64.5q8 45 -22 63.5t-83 18.5q-49 0 -111 -20z" />
    <glyph glyph-name="six.dnom" horiz-adv-x="382" 
d="M76 216q63 38 130 38q57 0 94.5 -35t27.5 -96q-9 -62 -55.5 -96t-108.5 -34q-83 0 -120 56t-22 152q17 106 76.5 160t139.5 54q54 0 97 -24l-7 -46q-36 23 -90 23q-56 0 -100 -36.5t-62 -115.5zM162 39q103 0 116 85q8 44 -17 64t-68 20q-69 0 -125 -44q-10 -125 94 -125
z" />
    <glyph glyph-name="seven.dnom" horiz-adv-x="316" 
d="M91 0h-55l219 361h-228l8 47h282l-7 -45z" />
    <glyph glyph-name="eight.dnom" horiz-adv-x="398" 
d="M52 313q7 41 49 71.5t113 30.5q69 0 106 -34.5t31 -82.5q-9 -61 -72 -101q65 -35 54 -97q-7 -45 -51 -76t-125 -31t-120 35.5t-30 88.5q11 65 86 107q-49 33 -41 89zM190 185q-38 10 -55 17q-71 -32 -78 -85q-6 -38 20 -58t82 -20q53 0 86.5 18t38.5 48q6 41 -44 63
q-10 4 -50 17zM300 295q6 31 -17 52.5t-71 21.5q-47 0 -76.5 -17t-34.5 -44q-4 -7 -0.5 -14.5t2.5 -12t5.5 -10.5t7.5 -8.5t9.5 -7.5t11.5 -6.5t12.5 -5.5t13 -5t13.5 -4.5t13 -4.5q9 -2 26.5 -6.5t22.5 -5.5q56 33 62 78z" />
    <glyph glyph-name="nine.dnom" horiz-adv-x="382" 
d="M27 285q9 62 55.5 96t108.5 34q85 0 121 -55.5t21 -152.5q-17 -106 -76.5 -160t-140.5 -54q-54 0 -96 24l7 46q39 -23 90 -23q57 0 100.5 36.5t61.5 114.5q-64 -37 -130 -37q-57 0 -94.5 35t-27.5 96zM193 369q-46 0 -78 -21t-39 -64q-7 -44 18 -64t69 -20q69 0 124 45
q10 124 -94 124z" />
    <glyph glyph-name="zero.numr" horiz-adv-x="433" 
d="M427 475q-15 -92 -70.5 -149t-139.5 -57q-90 0 -127.5 60t-22.5 156q15 92 70.5 149t140.5 57q89 0 126.5 -60t22.5 -156zM117 481q-12 -78 12.5 -121.5t88.5 -43.5q133 0 160 163q12 78 -12.5 121.5t-88.5 43.5q-135 0 -160 -163z" />
    <glyph glyph-name="one.numr" horiz-adv-x="263" 
d="M199 680h37l-57 -361h73l-8 -47h-215l7 47h93l49 309l-92 -34l8 48z" />
    <glyph glyph-name="two.numr" horiz-adv-x="353" 
d="M104 654q64 37 134 37q58 0 95 -30.5t28 -82.5q-13 -77 -136 -140q-33 -17 -46.5 -25t-35.5 -23t-32.5 -31t-14.5 -36h229l-8 -47h-287l4 26q5 35 19.5 62.5t41 48.5t45.5 32.5t55 29.5q54 27 82.5 51.5t34.5 57.5q5 29 -17 45t-59 16q-69 0 -140 -44z" />
    <glyph glyph-name="three.numr" horiz-adv-x="358" 
d="M353 577q-5 -31 -26 -55t-55 -34q33 -8 53.5 -34.5t13.5 -70.5q-9 -55 -55.5 -84.5t-112.5 -29.5q-78 0 -136 28l8 48q53 -29 126 -29q112 0 123 77q6 38 -17.5 54t-69.5 16h-64l7 47h57q43 0 69.5 19.5t31.5 50.5q4 29 -19.5 46.5t-64.5 17.5q-65 0 -130 -31l8 51
q60 27 130 27q58 0 94 -33t29 -81z" />
    <glyph glyph-name="four.numr" horiz-adv-x="395" 
d="M305 680h54l-43 -271h77l-7 -46h-77l-15 -91h-48l14 91h-228l7 45zM267 409l32 202l-198 -202h166z" />
    <glyph glyph-name="five.numr" horiz-adv-x="355" 
d="M122 680h245l-8 -47h-198l-27 -116q34 9 70 9q61 0 104 -33.5t33 -101.5q-9 -59 -58.5 -92.5t-117.5 -33.5q-77 0 -128 28l7 46q48 -27 117 -27q53 0 88 22.5t42 64.5q8 45 -22 63.5t-83 18.5q-49 0 -111 -20z" />
    <glyph glyph-name="six.numr" horiz-adv-x="382" 
d="M120 492q63 38 130 38q57 0 94.5 -35t27.5 -96q-9 -62 -55.5 -96t-108.5 -34q-83 0 -120 56t-22 152q17 106 76.5 160t139.5 54q54 0 97 -24l-7 -46q-36 23 -90 23q-56 0 -100 -36.5t-62 -115.5zM206 315q103 0 116 85q8 44 -17 64t-68 20q-69 0 -125 -44
q-10 -125 94 -125z" />
    <glyph glyph-name="seven.numr" horiz-adv-x="316" 
d="M134 272h-55l219 361h-228l8 47h282l-7 -45z" />
    <glyph glyph-name="eight.numr" horiz-adv-x="398" 
d="M96 589q7 41 49 71.5t113 30.5q69 0 106 -34.5t31 -82.5q-9 -61 -72 -101q65 -35 54 -97q-7 -45 -51 -76t-125 -31t-120 35.5t-30 88.5q11 65 86 107q-49 33 -41 89zM234 461q-38 10 -55 17q-71 -32 -78 -85q-6 -38 20 -58t82 -20q53 0 86.5 18t38.5 48q6 41 -44 63
q-10 4 -50 17zM344 571q6 31 -17 52.5t-71 21.5q-47 0 -76.5 -17t-34.5 -44q-4 -7 -0.5 -14.5t2.5 -12t5.5 -10.5t7.5 -8.5t9.5 -7.5t11.5 -6.5t12.5 -5.5t13 -5t13.5 -4.5t13 -4.5q9 -2 26.5 -6.5t22.5 -5.5q56 33 62 78z" />
    <glyph glyph-name="nine.numr" horiz-adv-x="382" 
d="M71 561q9 62 55.5 96t108.5 34q85 0 121 -55.5t21 -152.5q-17 -106 -76.5 -160t-140.5 -54q-54 0 -96 24l7 46q39 -23 90 -23q57 0 100.5 36.5t61.5 114.5q-64 -37 -130 -37q-57 0 -94.5 35t-27.5 96zM237 645q-46 0 -78 -21t-39 -64q-7 -44 18 -64t69 -20q69 0 124 45
q10 124 -94 124z" />
    <glyph glyph-name="emdash.case" horiz-adv-x="768" 
d="M699 323h-623l8 54h623z" />
    <glyph glyph-name="endash.case" horiz-adv-x="582" 
d="M513 323h-437l8 54h438z" />
    <glyph glyph-name="hyphen.case" horiz-adv-x="496" 
d="M84 377h352l-9 -54h-351z" />
    <glyph glyph-name="guillemotleft.case" horiz-adv-x="479" 
d="M391 173h-60l-94 171l2 14l147 169h62l-154 -177zM219 173h-60l-94 171l2 14l147 169h62l-154 -177z" />
    <glyph glyph-name="guillemotright.case" horiz-adv-x="478" 
d="M282 173h-62l154 177l-96 177h59l95 -171l-3 -14zM110 173h-62l154 177l-96 177h59l95 -171l-3 -14z" />
    <glyph glyph-name="guilsinglleft.case" horiz-adv-x="307" 
d="M219 173h-60l-94 171l2 14l147 169h62l-154 -177z" />
    <glyph glyph-name="guilsinglright.case" horiz-adv-x="306" 
d="M110 173h-62l154 177l-96 177h59l95 -171l-3 -14z" />
    <glyph glyph-name="cent.tf" 
d="M537 449l-9 -53q-48 41 -125 43l-62 -398q75 5 142 42l-9 -59q-64 -32 -142 -35l-17 -109h-50l18 111q-94 11 -148.5 76.5t-36.5 178.5q12 76 54.5 131t95 80.5t113.5 31.5l18 111h50l-17 -109q73 -5 125 -42zM353 435q-74 -12 -129.5 -60.5t-69.5 -134.5t25 -136
t112 -60z" />
    <glyph glyph-name="currency.tf" 
d="M184 195l-76 -65l-34 40l73 63q-33 49 -23 121q12 69 59 116l-51 60l45 40l54 -64q53 33 117 33t111 -34l75 65l34 -40l-73 -63q33 -51 22 -121q-10 -67 -58 -116l52 -60l-46 -40l-54 64q-53 -33 -117 -33q-63 0 -110 34zM181 346q-10 -60 23 -96t93 -36q62 0 108.5 38.5
t56.5 101.5q10 60 -23 96t-93 36q-62 0 -108.5 -38t-56.5 -102z" />
    <glyph glyph-name="dollar.tf" 
d="M275 -130h-50l18 120q-123 10 -204 59l9 58q94 -62 228 -62q82 0 140 28.5t68 92.5q6 38 -13.5 66t-55 45.5t-79 32.5t-86.5 32.5t-77.5 39.5t-52.5 59.5t-10 86.5q13 75 83.5 117.5t160.5 45.5l18 119h50l-18 -120q97 -8 164 -50l-8 -56q-77 51 -198 51q-71 0 -127 -28
t-65 -84q-6 -39 12.5 -67.5t54 -46.5t79 -33.5t86.5 -32.5t78 -38.5t53 -57.5t11 -84q-14 -87 -84.5 -129t-166.5 -45z" />
    <glyph glyph-name="Euro.tf" 
d="M635 617q-50 18 -126 18q-105 0 -192.5 -50.5t-128.5 -150.5h328l-8 -50h-336q-3 -11 -7 -33q-5 -32 -5 -55h334l-8 -50h-322q15 -94 85 -147.5t167 -53.5q73 0 138 20l-8 -57q-60 -19 -138 -19q-116 0 -202.5 69t-101.5 188h-91l8 50h80q0 26 5 63q1 9 5 25h-76l8 50h82
q45 126 153.5 191.5t234.5 65.5q74 0 131 -21z" />
    <glyph glyph-name="sterling.tf" 
d="M527 0h-523l9 57h34q34 0 58 24.5t31 66.5l25 161h-83l9 55h83l16 99q12 81 53.5 134t92.5 73.5t112 20.5q81 0 142 -39l-9 -55q-57 39 -136 39q-73 0 -127.5 -42.5t-69.5 -135.5l-15 -94h237l-9 -55h-236l-27 -165q-10 -69 -55 -89l398 2z" />
    <glyph glyph-name="yen.tf" 
d="M597 680h66l-293 -363h150l-8 -50h-177l-12 -74h178l-8 -50h-178l-23 -143h-59l23 143h-177l8 50h177l12 74h-177l8 50h150l-178 363h64l170 -355z" />
    </font>
</defs>
</svg>
