<?xml version="1.0" standalone="no"?>
<!DOCTYPE svg PUBLIC "-//W3C//DTD SVG 1.1//EN" "http://www.w3.org/Graphics/SVG/1.1/DTD/svg11.dtd" >
<svg xmlns="http://www.w3.org/2000/svg" xmlns:xlink="http://www.w3.org/1999/xlink" version="1.1">
<metadata>
Created by FontForge 20170731 at Fri Mar 13 16:23:31 2015
 By Aleksey,,,
Copyright (c) 2015 by Fontfabric LLC. All rights reserved.
</metadata>
<defs>
<font id="MullerThinItalic" horiz-adv-x="614" >
  <font-face 
    font-family="Muller Thin Italic"
    font-weight="250"
    font-style="italic"
    font-stretch="normal"
    units-per-em="1000"
    panose-1="0 0 0 0 0 0 0 0 0 0"
    ascent="780"
    descent="-220"
    x-height="480"
    cap-height="700"
    bbox="-206 -231 1211.18 922"
    underline-thickness="50"
    underline-position="-225"
    slope="-9"
    unicode-range="U+0020-25CA"
  />
<missing-glyph horiz-adv-x="271" 
 />
    <glyph glyph-name="f_f" unicode="ff" horiz-adv-x="660" 
d="M744 675q-36 23 -104 23q-59 0 -101 -30.5t-53 -95.5l-15 -92h213l-3 -23h-213l-73 -457h-24l73 457h-286l-73 -457h-24l73 457h-82l3 23h82l10 58q11 75 65 114.5t128 39.5q81 0 147 -49q45 77 149 77q69 0 111 -23zM161 480h286l15 93q4 27 14 52q-61 45 -134 45
q-70 0 -115.5 -35t-55.5 -98z" />
    <glyph glyph-name="f_f_i" unicode="ffi" horiz-adv-x="837" 
d="M85 0h-24l73 457h-82l3 23h82l10 58q11 75 64.5 114.5t128.5 39.5q82 0 152 -53q53 73 154 73q82 0 150 -45l-4 -24q-64 47 -144 47q-65 0 -109.5 -35.5t-54.5 -99.5l-13 -75h308l-76 -480h-24l72 457h-283l-73 -457h-24l73 457h-286zM171 537l-10 -57h286l13 76
q4 33 21 65q-65 49 -139 49q-70 0 -115.5 -35t-55.5 -98z" />
    <glyph glyph-name="f_f_l" unicode="ffl" horiz-adv-x="847" 
d="M796 672l4 26l25 8l-112 -706h-24l103 649q-62 41 -145 41q-64 0 -108.5 -35.5t-54.5 -99.5l-13 -75h195l-3 -23h-195l-73 -457h-24l73 457h-286l-73 -457h-24l73 457h-82l3 23h82l10 58q11 75 65 114.5t128 39.5q82 0 152 -53q54 73 153 73q85 0 151 -40zM447 480l13 76
q4 33 21 64q-65 50 -139 50q-70 0 -115.5 -35t-55.5 -98l-10 -57h286z" />
    <glyph glyph-name=".notdef" horiz-adv-x="271" 
 />
    <glyph glyph-name=".null" horiz-adv-x="0" 
 />
    <glyph glyph-name="nonmarkingreturn" horiz-adv-x="333" 
 />
    <glyph glyph-name="space" unicode=" " horiz-adv-x="271" 
 />
    <glyph glyph-name="exclam" unicode="!" horiz-adv-x="195" 
d="M90 169h-22l83 531h25zM77 14q-5 -20 -25 -20q-10 0 -15.5 7t-3.5 17q1 9 8 14.5t15 5.5q11 0 16.5 -7t4.5 -17z" />
    <glyph glyph-name="quotedbl" unicode="&#x22;" horiz-adv-x="249" 
d="M219 568h-18l21 132h25zM129 568h-18l21 132h25z" />
    <glyph glyph-name="numbersign" unicode="#" horiz-adv-x="647" 
d="M67 0h-24l75 190h-93l4 22h97l102 257h-108l3 22h113l75 190h25l-75 -190h259l75 190h25l-75 -190h91l-3 -22h-96l-102 -257h107l-3 -22h-113l-75 -190h-25l75 190h-258zM253 469l-101 -257h258l101 257h-258z" />
    <glyph glyph-name="dollar" unicode="$" horiz-adv-x="564" 
d="M232 -130h-22l18 120q-129 7 -212 58l3 25q98 -59 226 -59q57 0 104.5 13t83.5 46.5t44 84.5q7 44 -12.5 76t-56 51.5t-81 35.5l-89 32t-80.5 37t-54.5 56t-10.5 83q13 77 86 118.5t161 42.5l18 120h22l-18 -120q101 -5 173 -48l-4 -24q-82 48 -190 48q-50 0 -96 -13.5
t-82.5 -46.5t-44.5 -80q-7 -43 12 -74t55 -50t80.5 -34.5t89.5 -32.5t81 -38t54.5 -57t11.5 -84q-13 -84 -85 -125t-167 -41z" />
    <glyph glyph-name="percent" unicode="%" horiz-adv-x="873" 
d="M189 -60h-26l539 820h26zM375 563q-10 -67 -58 -103t-109 -36q-59 0 -98.5 39.5t-28.5 107.5q11 67 59 103t109 36q60 0 98.5 -39.5t27.5 -107.5zM103 569q-9 -56 22.5 -89.5t82.5 -33.5q53 0 94.5 31t50.5 88q9 55 -22.5 89t-81.5 34q-55 0 -96 -31t-50 -88zM811 129
q-11 -67 -59 -103t-108 -36t-99.5 39.5t-28.5 107.5q11 67 59 103t109 36q59 0 98.5 -39.5t28.5 -107.5zM540 135q-9 -56 22 -89.5t82 -33.5q53 0 94.5 31t50.5 88q9 55 -22.5 89t-81.5 34q-55 0 -95.5 -31t-49.5 -88z" />
    <glyph glyph-name="ampersand" unicode="&#x26;" horiz-adv-x="676" 
d="M513 111l107 -111h-30l-92 96q-109 -106 -265 -106q-104 0 -157 49.5t-41 124.5q10 66 62.5 114.5t135.5 93.5q-86 98 -73 177q11 66 71.5 113.5t149.5 47.5q74 0 117.5 -38.5t33.5 -99.5q-3 -19 -12.5 -37t-27.5 -35t-33.5 -29.5t-44.5 -29t-45.5 -25.5t-51.5 -26.5
t-48 -24.5l22 -23l206 -214q75 81 91 185h24q-16 -113 -99 -202zM381 687q-82 0 -135 -41.5t-62 -101.5q-11 -71 69 -161h1q13 6 47 23t49.5 25t44 24t43.5 27.5t32.5 27t26 32t11.5 33.5q7 50 -28.5 81t-98.5 31zM59 161q-9 -64 37.5 -106t138.5 -42q145 0 247 99l-211 219
l-22 23q-80 -42 -130 -87.5t-60 -105.5z" />
    <glyph glyph-name="quotesingle" unicode="'" horiz-adv-x="159" 
d="M129 568h-18l21 132h25z" />
    <glyph glyph-name="parenleft" unicode="(" horiz-adv-x="247" 
d="M280 808h26q-84 -96 -142.5 -218t-77.5 -242q-19 -119 1.5 -240t73.5 -216h-25q-53 97 -74 219t-2 241q18 118 77 239t143 217z" />
    <glyph glyph-name="parenright" unicode=")" horiz-adv-x="248" 
d="M105 808h25q53 -98 74 -219.5t2 -240.5q-18 -117 -77.5 -238.5t-142.5 -217.5h-27q84 95 143 217t78 243q19 118 -1.5 239.5t-73.5 216.5z" />
    <glyph glyph-name="asterisk" unicode="*" horiz-adv-x="423" 
d="M250 535l-105 -117l-17 13l106 115l-129 44l11 22l127 -48l20 136h23l-24 -136l143 48l4 -22l-143 -44l69 -115l-21 -13z" />
    <glyph glyph-name="plus" unicode="+" horiz-adv-x="536" 
d="M291 362h201l-3 -24h-201l-32 -201h-23l32 201h-201l3 24h201l32 201h24z" />
    <glyph glyph-name="comma" unicode="," horiz-adv-x="167" 
d="M-11 -142h-21l84 214h25z" />
    <glyph glyph-name="hyphen" unicode="-" horiz-adv-x="487" 
d="M66 254h344l-4 -23h-343z" />
    <glyph glyph-name="period" unicode="." horiz-adv-x="167" 
d="M68 15q-4 -21 -24 -21q-10 0 -16 7t-4 17q1 9 8 14.5t16 5.5q23 0 20 -23z" />
    <glyph glyph-name="slash" unicode="/" horiz-adv-x="406" 
d="M9 -57h-20l426 814h21z" />
    <glyph glyph-name="zero" unicode="0" horiz-adv-x="704" 
d="M68 346q26 158 114 251t231 93q144 0 204 -97.5t35 -258.5q-26 -158 -114.5 -251t-231.5 -93q-144 0 -203.5 97.5t-34.5 258.5zM627 337q24 150 -29.5 239.5t-184.5 89.5q-133 0 -214.5 -86t-105.5 -237q-24 -150 29.5 -239.5t184.5 -89.5q133 0 214.5 86t105.5 237z" />
    <glyph glyph-name="one" unicode="1" horiz-adv-x="398" 
d="M283 680h17l-104 -656h142l-4 -24h-324l4 24h157l99 628l-166 -59l4 24z" />
    <glyph glyph-name="two" unicode="2" horiz-adv-x="557" 
d="M128 630q101 60 212 60q94 0 149 -45.5t43 -121.5q-7 -41 -27 -75t-57 -63.5t-67 -48t-83 -46.5q-112 -60 -147 -85q-97 -71 -117 -181h428l-5 -24h-453l3 17q5 35 17.5 65.5t26 53.5t37.5 46.5t41.5 38t50 33.5t50.5 28.5l54 28.5q51 26 79.5 43t64 44t54.5 58.5
t25 70.5q10 64 -36.5 102t-132.5 38q-105 0 -214 -63z" />
    <glyph glyph-name="three" unicode="3" horiz-adv-x="587" 
d="M536 509q-9 -56 -50.5 -99.5t-110.5 -56.5q69 -12 109 -57t28 -119q-14 -89 -86 -138t-178 -49q-141 0 -223 44l3 24q87 -45 219 -45q98 0 163 44t78 124q13 78 -40 118.5t-143 40.5h-98l4 23h95q90 0 143 43.5t63 104.5q10 65 -35.5 110.5t-132.5 45.5q-108 0 -215 -45
l4 25q98 43 214 43q95 0 148 -52.5t41 -128.5z" />
    <glyph glyph-name="four" unicode="4" horiz-adv-x="637" 
d="M493 680h28l-78 -486h146l-3 -24h-146l-27 -170h-25l27 170h-403l3 21zM418 194l73 451l-442 -451h369z" />
    <glyph glyph-name="five" unicode="5" horiz-adv-x="578" 
d="M166 680h386l-4 -24h-362l-65 -293q81 26 168 26q106 0 170.5 -50t49.5 -151q-14 -88 -89.5 -143t-182.5 -55q-129 0 -211 46l3 23q89 -46 206 -46q100 0 168 49t81 130q14 88 -43.5 131t-157.5 43q-96 0 -192 -33z" />
    <glyph glyph-name="six" unicode="6" horiz-adv-x="604" 
d="M554 630q-57 36 -135 36q-275 0 -330 -350l-3 -20q124 114 265 114q92 0 150 -54.5t42 -155.5q-16 -97 -89.5 -153.5t-170.5 -56.5q-131 0 -186.5 88t-31.5 242q30 190 122.5 280t231.5 90q80 0 139 -36zM518 203q14 91 -36 137t-135 46q-68 0 -138.5 -32t-125.5 -88
q-8 -120 42.5 -186.5t156.5 -66.5q90 0 156 50.5t80 139.5z" />
    <glyph glyph-name="seven" unicode="7" horiz-adv-x="511" 
d="M95 680h454l-3 -20l-422 -660h-28l420 656h-425z" />
    <glyph glyph-name="eight" unicode="8" horiz-adv-x="641" 
d="M564 159q-11 -70 -85 -119.5t-193 -49.5q-129 0 -193 58t-51 144q20 119 169 189q-104 50 -89 148q11 66 79 113.5t181 47.5q110 0 166.5 -56t45.5 -128q-16 -104 -147 -182q134 -53 117 -165zM68 190q-12 -75 45 -126t175 -51q106 0 173.5 44t77.5 106q6 40 -5.5 68.5
t-47.5 48.5t-61.5 29.5t-82.5 25.5q-7 2 -10 3q-68 20 -98 32q-70 -30 -113.5 -76.5t-52.5 -103.5zM332 361q10 -3 29.5 -8.5t35 -10t28.5 -8.5q129 74 145 173q10 63 -39.5 111.5t-148.5 48.5q-102 0 -164 -41t-71 -100q-6 -37 6 -65t45 -47t55 -27.5t66 -21.5q9 -3 13 -4z
" />
    <glyph glyph-name="nine" unicode="9" horiz-adv-x="603" 
d="M76 480q16 97 89.5 153.5t170.5 56.5q129 0 185.5 -88.5t32.5 -241.5q-30 -190 -122.5 -280t-231.5 -90q-80 0 -139 36l4 24q57 -36 135 -36q275 0 330 350l3 20q-123 -114 -265 -114q-93 0 -150.5 54.5t-41.5 155.5zM101 477q-14 -90 36 -136.5t135 -46.5q68 0 138.5 32
t125.5 88q8 120 -42.5 186.5t-156.5 66.5q-90 0 -156 -50.5t-80 -139.5z" />
    <glyph glyph-name="colon" unicode=":" horiz-adv-x="189" 
d="M136 404q-1 -9 -8.5 -14.5t-15.5 -5.5q-10 0 -16 6.5t-5 17.5q1 9 8 14.5t16 5.5q24 0 21 -24zM73 15q-1 -9 -8.5 -15t-15.5 -6q-10 0 -16 7t-4 17q1 9 8 14.5t16 5.5q23 0 20 -23z" />
    <glyph glyph-name="semicolon" unicode=";" horiz-adv-x="263" 
d="M23 -142h-21l84 214h25zM170 447q-1 -9 -8.5 -14.5t-15.5 -5.5q-10 0 -16 7t-5 17q1 9 8.5 14.5t16.5 5.5q23 0 20 -24z" />
    <glyph glyph-name="less" unicode="&#x3c;" horiz-adv-x="483" 
d="M389 201l-4 -25l-330 162l4 25l381 161l-3 -25l-355 -149z" />
    <glyph glyph-name="equal" unicode="=" horiz-adv-x="544" 
d="M486 429h-389l4 23h389zM458 248h-389l3 23h389z" />
    <glyph glyph-name="greater" unicode="&#x3e;" horiz-adv-x="483" 
d="M443 337l-382 -161l4 25l355 149l-308 149l4 25l331 -162z" />
    <glyph glyph-name="question" unicode="?" horiz-adv-x="490" 
d="M229 187h-24q7 46 46 95.5t82 86t82.5 86t46.5 95.5q10 64 -35.5 100t-133.5 36q-100 0 -200 -57l4 26q96 55 200 55q96 0 149 -43.5t40 -118.5q-6 -40 -33 -80t-62 -73.5t-69.5 -66t-61 -69.5t-31.5 -72zM212 15q-4 -21 -24 -21q-10 0 -16 7t-4 17q1 9 8 14.5t16 5.5
q23 0 20 -23z" />
    <glyph glyph-name="at" unicode="@" horiz-adv-x="1059" 
d="M45 248q14 91 60 173.5t116 147t169.5 103t212.5 38.5q86 0 158.5 -27t119.5 -71t78 -101t40.5 -118t0.5 -120q-21 -129 -80 -196t-137 -67q-62 0 -93 34t-24 98q-32 -49 -83 -79t-109 -30q-84 0 -131 57t-33 150q15 91 78.5 147t146.5 56q59 0 101 -31t58 -80l16 102h23
l-46 -287q-8 -55 16.5 -85t79.5 -30q69 0 121.5 63t70.5 182q9 55 0 112t-38 110.5t-73.5 95t-112 66.5t-149.5 25q-108 0 -202.5 -36.5t-161.5 -98t-110.5 -140.5t-57.5 -167q-17 -104 9 -190t83.5 -142t139 -87t175.5 -31q127 0 231 36l-5 -25q-102 -35 -226 -35
q-100 0 -186 32.5t-147 91.5t-88.5 151t-10.5 203zM687 296q-9 54 -49.5 89t-100.5 35q-76 0 -133.5 -50t-69.5 -133q-13 -82 27.5 -131.5t113.5 -49.5q62 0 114.5 35.5t79.5 89.5z" />
    <glyph glyph-name="A" unicode="A" horiz-adv-x="707" 
d="M644 0h-26l-65 215h-420l-134 -215h-28l433 700h30zM406 659l-260 -420h401l-127 421q-4 7 -5 17q-2 -5 -9 -18z" />
    <glyph glyph-name="B" unicode="B" horiz-adv-x="675" 
d="M170 700h251q105 0 163 -44.5t44 -132.5q-11 -69 -57 -107t-113 -48q31 -5 56.5 -16t49.5 -31t35 -54.5t4 -80.5q-32 -186 -300 -186h-244zM578 192q8 50 -8.5 85t-49.5 50.5t-63.5 21.5t-63.5 6h-253l-52 -331h215q48 0 86 5.5t81 21t71 51.5t37 90zM604 525
q12 78 -38.5 114.5t-148.5 36.5h-226l-47 -297h262q74 0 130 36t68 110z" />
    <glyph glyph-name="C" unicode="C" horiz-adv-x="649" 
d="M63 355q18 114 86 197t153.5 120.5t175.5 37.5q109 0 184 -48l-4 -25q-70 49 -178 49q-63 0 -125.5 -20.5t-118 -60.5t-96 -105.5t-53.5 -148.5q-13 -81 6 -147t62 -106.5t98.5 -62t118.5 -21.5q105 0 200 50l-4 -26q-89 -48 -200 -48q-67 0 -126.5 23.5t-105.5 67
t-66.5 115t-6.5 159.5z" />
    <glyph glyph-name="D" unicode="D" horiz-adv-x="730" 
d="M170 700h195q183 0 264 -96.5t56 -255.5q-24 -157 -133 -252.5t-294 -95.5h-199zM661 352q23 147 -51 235.5t-245 88.5h-174l-103 -652h174q171 0 273.5 89t125.5 239z" />
    <glyph glyph-name="E" unicode="E" horiz-adv-x="626" 
d="M170 700h455l-4 -24h-430l-49 -312h400l-4 -24h-400l-50 -316h436l-4 -24h-461z" />
    <glyph glyph-name="F" unicode="F" horiz-adv-x="596" 
d="M170 700h456l-4 -24h-431l-50 -319h402l-4 -24h-403l-52 -333h-25z" />
    <glyph glyph-name="G" unicode="G" horiz-adv-x="710" 
d="M64 362q12 73 43 132.5t73.5 99t95 66.5t105.5 38.5t107 11.5q111 0 195 -46l-3 -24q-77 46 -191 46q-65 0 -128 -18.5t-120 -55.5t-98 -102.5t-55 -151.5t6 -153.5t64.5 -108t102.5 -61.5t124 -21q109 0 196 42l49 309h25l-52 -328q-102 -47 -219 -47q-71 0 -133.5 22.5
t-110.5 66.5t-69.5 117t-6.5 166z" />
    <glyph glyph-name="H" unicode="H" horiz-adv-x="767" 
d="M702 700h25l-111 -700h-25l54 340h-507l-54 -340h-25l111 700h25l-53 -336h507z" />
    <glyph glyph-name="I" unicode="I" horiz-adv-x="235" 
d="M170 700h25l-111 -700h-25z" />
    <glyph glyph-name="J" unicode="J" horiz-adv-x="524" 
d="M235 700h256l-81 -515q-15 -98 -78.5 -146.5t-163.5 -48.5q-110 0 -174 43l4 25q64 -44 167 -44q192 0 220 173l78 489h-232z" />
    <glyph glyph-name="K" unicode="K" horiz-adv-x="652" 
d="M656 700h29l-308 -342l225 -358h-28l-218 347h-217l-55 -347h-25l111 700h25l-52 -329h216z" />
    <glyph glyph-name="L" unicode="L" horiz-adv-x="569" 
d="M170 700h25l-107 -676h428l-4 -24h-453z" />
    <glyph glyph-name="M" unicode="M" horiz-adv-x="900" 
d="M837 700h23l-111 -700h-25l103 651l-381 -454h-18l-240 456l-104 -653h-25l111 700h20l250 -474z" />
    <glyph glyph-name="N" unicode="N" horiz-adv-x="767" 
d="M84 0h-25l111 700h20l408 -658q1 10 3.5 26t3.5 23l97 609h25l-111 -700h-20l-408 659q-2 -16 -8 -49z" />
    <glyph glyph-name="O" unicode="O" horiz-adv-x="825" 
d="M783 348q-11 -67 -44.5 -130t-85 -114.5t-126.5 -82.5t-161 -31t-151.5 32t-101 84t-49 115.5t-3.5 130.5q11 66 44.5 129.5t85.5 114.5t127 82.5t160 31.5q86 0 151.5 -32t101 -84t49 -115.5t3.5 -130.5zM86 349q-10 -62 2 -120.5t44.5 -107t93 -78t141.5 -29.5
q157 0 263.5 102t127.5 235q10 62 -2 120.5t-44.5 107t-93 78t-141.5 29.5q-80 0 -151 -29.5t-119.5 -78t-79.5 -108t-41 -121.5z" />
    <glyph glyph-name="P" unicode="P" horiz-adv-x="654" 
d="M170 700h215q61 0 109.5 -10.5t87 -34.5t55.5 -68t7 -106q-35 -215 -325 -215h-193l-42 -266h-25zM620 485q9 54 -6 92.5t-50 59.5t-78 30t-99 9h-196l-61 -386h193q266 0 297 195z" />
    <glyph glyph-name="Q" unicode="Q" horiz-adv-x="825" 
d="M723 -42l-18 -15l-102 120q-106 -73 -237 -73q-86 0 -151.5 32t-101 84t-49 115.5t-3.5 130.5q11 66 44.5 129.5t85.5 114.5t127 82.5t160 31.5q86 0 151.5 -32t101 -84t49 -115.5t3.5 -130.5q-12 -76 -54 -148t-107 -123zM86 349q-10 -62 2 -120.5t44.5 -107t93 -78
t141.5 -29.5q124 0 221 68l-136 160l18 16l137 -162q61 47 100 115t51 140q10 62 -2 120.5t-44.5 107t-93 78t-141.5 29.5q-80 0 -151 -29.5t-119.5 -78t-79.5 -108t-41 -121.5z" />
    <glyph glyph-name="R" unicode="R" horiz-adv-x="682" 
d="M84 0h-25l111 700h259q46 0 86.5 -11t74.5 -34t49.5 -64.5t6.5 -95.5q-15 -97 -87.5 -146t-166.5 -54l220 -295h-29l-220 294h-233zM191 676l-56 -358h238q41 0 80 9.5t75 29.5t61 56.5t33 85.5q8 48 -5.5 83.5t-43.5 55t-66 29t-77 9.5h-239z" />
    <glyph glyph-name="S" unicode="S" horiz-adv-x="566" 
d="M99 547q9 56 50 94t92 53.5t108 15.5q112 0 192 -49l-4 -24q-77 51 -187 49q-85 0 -149.5 -34.5t-76.5 -107.5q-6 -39 8 -69t42 -48.5t65 -35t76 -29t76 -31t64.5 -39.5t41.5 -56t7 -80q-9 -58 -48.5 -97t-92 -54.5t-115.5 -14.5q-135 0 -230 58l3 24q99 -58 226 -58
q59 0 106 13t82.5 46.5t43.5 84.5q7 47 -12 81.5t-54.5 55t-80 37.5l-89 34t-80 38.5t-54 57.5t-10.5 85z" />
    <glyph glyph-name="T" unicode="T" horiz-adv-x="588" 
d="M77 700h563l-4 -24h-269l-107 -676h-25l107 676h-269z" />
    <glyph glyph-name="U" unicode="U" horiz-adv-x="749" 
d="M693 700h25l-73 -460q-39 -250 -315 -250q-127 0 -194.5 60t-46.5 191l72 459h25l-73 -459q-36 -227 216 -227q256 0 292 228z" />
    <glyph glyph-name="V" unicode="V" horiz-adv-x="677" 
d="M305 0h-25l-195 700h26l185 -671l398 671h28z" />
    <glyph glyph-name="W" unicode="W" horiz-adv-x="983" 
d="M996 700h26l-334 -700h-27l-109 649l-319 -649h-28l-113 700h25l107 -666l323 658h22l110 -655z" />
    <glyph glyph-name="X" unicode="X" horiz-adv-x="604" 
d="M-4 0h-32l335 361l-208 339h28l197 -321l299 321h31l-318 -343l219 -357h-27l-209 339z" />
    <glyph glyph-name="Y" unicode="Y" horiz-adv-x="624" 
d="M278 0h-25l45 284l-209 416h26l198 -391l322 391h30l-342 -416z" />
    <glyph glyph-name="Z" unicode="Z" horiz-adv-x="566" 
d="M492 0h-515l3 22l579 654h-456l5 24h488l-3 -22l-580 -654h483z" />
    <glyph glyph-name="bracketleft" unicode="[" horiz-adv-x="235" 
d="M153 -110h-138l145 920h138l-3 -24h-113l-139 -872h113z" />
    <glyph glyph-name="backslash" unicode="\" horiz-adv-x="399" 
d="M304 -57h-20l-168 814h20z" />
    <glyph glyph-name="bracketright" unicode="]" horiz-adv-x="235" 
d="M94 -110h-138l3 24h114l138 872h-113l3 24h138z" />
    <glyph glyph-name="asciicircum" unicode="^" horiz-adv-x="483" 
d="M105 404h-28l221 296h22l127 -296h-26l-115 270z" />
    <glyph glyph-name="underscore" unicode="_" horiz-adv-x="427" 
d="M361 -127h-427l4 24h427z" />
    <glyph glyph-name="grave" unicode="`" horiz-adv-x="165" 
d="M242 778h-26l-70 133h28z" />
    <glyph glyph-name="a" unicode="a" horiz-adv-x="613" 
d="M481 124q-39 -60 -102.5 -97t-136.5 -37q-104 0 -161 71t-39 185q18 111 96 177.5t180 66.5q71 0 125 -39t74 -98l20 127h23l-76 -480h-23zM65 243q-17 -104 34 -167.5t144 -63.5q76 0 142 43.5t100 108.5l24 150q-12 65 -64.5 109.5t-125.5 44.5q-94 0 -166 -60.5
t-88 -164.5z" />
    <glyph glyph-name="b" unicode="b" horiz-adv-x="613" 
d="M149 700h24l-54 -344q38 59 102 96.5t135 37.5q99 0 158.5 -71.5t41.5 -184.5q-18 -112 -94.5 -178t-181.5 -66q-74 0 -126 38.5t-72 101.5l-22 -130h-22zM532 237q17 102 -36.5 166.5t-141.5 64.5q-76 0 -142 -44.5t-101 -111.5l-23 -145q13 -67 64 -111t126 -44
q98 0 168 60t86 165z" />
    <glyph glyph-name="c" unicode="c" horiz-adv-x="493" 
d="M41 242q10 63 40.5 112.5t73.5 78t89 43t93 14.5q85 0 137 -40l-4 -23q-49 41 -132 41q-94 0 -174 -58t-99 -171q-18 -108 39.5 -167.5t152.5 -59.5q86 0 158 40l-3 -25q-70 -37 -158 -37q-104 0 -167.5 65t-45.5 187z" />
    <glyph glyph-name="d" unicode="d" horiz-adv-x="613" 
d="M571 700h24l-111 -700h-22l20 126q-39 -61 -103 -98.5t-137 -37.5q-102 0 -160 71t-40 185q18 112 95 178t180 66q74 0 127 -38.5t72 -100.5zM509 313q-12 67 -63.5 111t-126.5 44q-96 0 -167 -60t-87 -165q-17 -103 35 -167t143 -64q77 0 143 44.5t100 111.5z" />
    <glyph glyph-name="e" unicode="e" horiz-adv-x="542" 
d="M41 241q18 115 95 182t173 67q50 0 88 -16.5t59.5 -44t32.5 -62.5t9.5 -71t-12.5 -71h-423q-14 -105 48 -159t156 -54q89 0 164 39l-5 -25q-66 -36 -161 -36q-106 0 -175 64t-49 187zM468 247q12 35 7 74t-20.5 71.5t-53.5 54t-91 21.5q-87 0 -156 -59t-88 -162h402z" />
    <glyph glyph-name="f" unicode="f" horiz-adv-x="350" 
d="M151 565q23 145 175 145q62 0 110 -23l-4 -23q-42 24 -104 24q-134 0 -154 -124l-13 -84h213l-3 -23h-213l-73 -457h-24l73 457h-82l3 23h82z" />
    <glyph glyph-name="g" unicode="g" horiz-adv-x="613" 
d="M483 -1q-19 -118 -98.5 -173.5t-185.5 -55.5q-104 0 -176 46l4 24q73 -48 170 -48q99 0 172 50.5t90 158.5l20 122q-38 -59 -102 -96t-136 -37q-104 0 -161 70.5t-39 185.5q18 112 95 178t181 66q74 0 126 -38.5t73 -102.5l20 131h23zM64 243q-17 -104 33.5 -167.5
t144.5 -63.5q77 0 143 43.5t100 110.5l23 147q-12 67 -63.5 111t-126.5 44q-95 0 -166.5 -60t-87.5 -165z" />
    <glyph glyph-name="h" unicode="h" horiz-adv-x="574" 
d="M149 700h24l-52 -327q40 47 97 82t124 35q80 0 125 -53t31 -142l-47 -295h-24l47 294q13 82 -26 128t-110 46q-67 0 -126.5 -39t-96.5 -91l-53 -338h-24z" />
    <glyph glyph-name="i" unicode="i" horiz-adv-x="200" 
d="M66 0h-24l76 480h24zM171 614q-3 -18 -22 -18q-21 0 -18 21q3 18 22 18q21 0 18 -21z" />
    <glyph glyph-name="j" unicode="j" horiz-adv-x="199" 
d="M47 -117q-18 -113 -133 -113q-39 0 -69 12l4 22q27 -12 62 -12q97 0 113 95l93 593h24zM171 614q-3 -18 -22 -18q-21 0 -18 21q3 18 22 18q21 0 18 -21z" />
    <glyph glyph-name="k" unicode="k" horiz-adv-x="489" 
d="M459 480h29l-237 -233l188 -247h-28l-181 239h-130l-38 -239h-24l111 700h24l-70 -438h133z" />
    <glyph glyph-name="l" unicode="l" horiz-adv-x="199" 
d="M157 730h24l-116 -730h-24z" />
    <glyph glyph-name="m" unicode="m" horiz-adv-x="894" 
d="M469 380q38 45 92 77.5t115 32.5q76 0 116 -50.5t27 -127.5l-49 -312h-24l50 312q11 68 -22.5 112t-99.5 44q-111 0 -201 -114q0 -20 -3 -42l-49 -312h-24l50 312q11 68 -22.5 112t-99.5 44q-62 0 -116.5 -37t-91.5 -86l-55 -345h-24l76 480h22l-16 -104q36 45 91 79.5
t116 34.5q57 0 95 -29.5t47 -80.5z" />
    <glyph glyph-name="n" unicode="n" horiz-adv-x="574" 
d="M119 371q39 48 97 83.5t127 35.5q80 0 124.5 -53t30.5 -142l-47 -295h-24l47 294q13 82 -26 128t-110 46q-67 0 -126.5 -39t-96.5 -91l-53 -338h-24l76 480h22z" />
    <glyph glyph-name="o" unicode="o" horiz-adv-x="592" 
d="M535 234q-18 -114 -100.5 -179t-184.5 -65q-99 0 -163 70.5t-46 185.5q18 114 101 179t185 65q99 0 163 -70.5t45 -185.5zM65 242q-17 -103 39.5 -166t145.5 -63q95 0 170 60t91 165q17 103 -39.5 166t-145.5 63q-95 0 -170 -60t-91 -165z" />
    <glyph glyph-name="p" unicode="p" horiz-adv-x="613" 
d="M116 353q40 61 104 99t136 38q101 0 159.5 -71t40.5 -185q-18 -112 -95 -178t-181 -66q-74 0 -126 38.5t-72 100.5l-55 -349h-24l111 700h22zM532 237q17 103 -35.5 167t-143.5 64q-74 0 -141 -44.5t-101 -111.5l-23 -145q13 -67 64 -111t126 -44q96 0 166.5 60t87.5 165
z" />
    <glyph glyph-name="q" unicode="q" horiz-adv-x="613" 
d="M42 246q18 111 96 177.5t180 66.5q71 0 125 -39t74 -99l20 128h23l-111 -700h-24l54 342q-38 -58 -101 -95t-136 -37q-104 0 -161 71t-39 185zM509 314q-12 65 -64.5 109.5t-125.5 44.5q-94 0 -166 -60.5t-88 -164.5q-17 -104 34 -167.5t144 -63.5q76 0 142 43.5
t100 108.5z" />
    <glyph glyph-name="r" unicode="r" horiz-adv-x="338" 
d="M113 333q35 68 98.5 113t145.5 44l-4 -24q-83 2 -149.5 -52t-96.5 -128l-45 -286h-24l76 480h22z" />
    <glyph glyph-name="s" unicode="s" horiz-adv-x="455" 
d="M61 371q10 60 65 89.5t126 29.5q95 0 157 -42l-3 -22q-60 42 -154 42q-63 0 -111 -25t-56 -75q-7 -43 24.5 -69t80 -38.5t96.5 -26.5t78.5 -44t22.5 -79q-9 -61 -64.5 -91t-131.5 -30q-49 0 -98.5 13.5t-78.5 35.5l4 23q31 -22 78.5 -36t93.5 -14q68 0 116.5 25.5
t56.5 75.5q7 43 -24 68.5t-79.5 38t-96.5 26.5t-78.5 44.5t-23.5 80.5z" />
    <glyph glyph-name="t" unicode="t" horiz-adv-x="356" 
d="M154 637l25 9l-26 -166h215l-4 -23h-214l-52 -324q-10 -59 16.5 -90t84.5 -31q60 0 108 25l-3 -23q-42 -24 -109 -24q-65 0 -98.5 37t-22.5 105l52 325h-90l3 23h90z" />
    <glyph glyph-name="u" unicode="u" horiz-adv-x="575" 
d="M497 480h24l-76 -480h-22l17 109q-36 -47 -95 -83t-126 -36q-81 0 -126.5 53t-31.5 143l47 294h24l-47 -294q-12 -82 26 -128t109 -46q69 0 128 39t95 92z" />
    <glyph glyph-name="v" unicode="v" horiz-adv-x="520" 
d="M502 480h27l-302 -480h-26l-149 480h25l140 -453z" />
    <glyph glyph-name="w" unicode="w" horiz-adv-x="796" 
d="M774 480h26l-261 -480h-23l-92 440l-235 -440h-24l-108 480h24l101 -446l234 438h23l92 -439z" />
    <glyph glyph-name="x" unicode="x" horiz-adv-x="482" 
d="M1 0h-30l249 247l-161 233h28l149 -216l220 216h30l-237 -234l170 -246h-27l-159 229z" />
    <glyph glyph-name="y" unicode="y" horiz-adv-x="530" 
d="M235 25l275 455h27l-344 -568q-48 -78 -88.5 -110t-88.5 -32q-25 0 -49 6l3 21q20 -5 44 -5q44 0 81 31t78 100l47 77l-173 480h25z" />
    <glyph glyph-name="z" unicode="z" horiz-adv-x="439" 
d="M72 480h357l-4 -19l-407 -439h349l-4 -22h-381l3 19l408 439h-324z" />
    <glyph glyph-name="braceleft" unicode="{" horiz-adv-x="257" 
d="M159 -88l-3 -22q-55 -9 -75 15t-11 77l41 258q8 48 -15.5 73.5t-60.5 25.5l3 22q37 0 68.5 26t39.5 75l41 258q17 109 114 90l-3 -22q-41 8 -60.5 -11t-27.5 -66l-40 -254q-7 -44 -31.5 -71.5t-58.5 -36.5q29 -8 46 -35t10 -72l-40 -255q-7 -45 6 -63.5t57 -11.5z" />
    <glyph glyph-name="bar" unicode="|" horiz-adv-x="181" 
d="M41 -100h-25l144 910h25z" />
    <glyph glyph-name="braceright" unicode="}" horiz-adv-x="257" 
d="M89 -20q-18 -109 -114 -90l3 23q40 -8 60 10.5t27 62.5l41 259q7 45 32.5 72t60.5 34q-31 8 -48.5 35.5t-10.5 72.5l41 255q7 45 -6 63.5t-58 11.5l3 21q54 9 74.5 -15t11.5 -77l-41 -258q-7 -49 16.5 -74t59.5 -25l-3 -22q-37 0 -68.5 -26t-39.5 -75z" />
    <glyph glyph-name="asciitilde" unicode="~" horiz-adv-x="573" 
d="M511 366q-4 -37 -29.5 -60t-64.5 -23q-37 0 -124 35t-122 35q-30 0 -49 -17t-23 -43h-23q5 37 30 60t64 23t125 -35t121 -35q30 0 49.5 16.5t22.5 43.5h23z" />
    <glyph glyph-name="exclamdown" unicode="&#xa1;" horiz-adv-x="180" 
d="M21 -216h-25l86 532h22zM138 467q-4 -21 -24 -21q-10 0 -15.5 7t-3.5 17q1 9 8 14.5t15 5.5q11 0 16.5 -6.5t3.5 -16.5z" />
    <glyph glyph-name="cent" unicode="&#xa2;" horiz-adv-x="512" 
d="M478 450l-4 -23q-49 41 -131 41l-72 -456q81 3 148 40l-3 -25q-68 -35 -149 -37l-17 -110h-22l17 110q-99 4 -158.5 69.5t-41.5 182.5q9 60 38 108t69 77t83.5 44.5t89.5 18.5l17 110h22l-17 -110q80 -2 131 -40zM321 467q-90 -7 -162.5 -64.5t-89.5 -163.5
q-17 -105 36 -164t144 -63z" />
    <glyph glyph-name="sterling" unicode="&#xa3;" horiz-adv-x="606" 
d="M515 0h-521l4 24h31q81 0 98 98l32 205h-81l4 24h81l18 114q18 117 88.5 171t162.5 54q78 0 135 -39l-4 -24q-55 39 -131 39q-83 0 -146.5 -48t-80.5 -154l-17 -113h256l-4 -24h-256l-33 -206q-11 -78 -62 -97h430z" />
    <glyph glyph-name="currency" unicode="&#xa4;" horiz-adv-x="572" 
d="M150 206l-76 -65l-14 17l75 65q-44 52 -31 129q12 76 71 127l-54 63l20 17l54 -65q57 42 129 42q69 0 119 -42l75 65l14 -17l-75 -65q44 -51 31 -129q-10 -74 -70 -127l53 -63l-19 -17l-54 65q-59 -42 -130 -42q-70 0 -118 42zM128 348q-11 -71 31 -116t110 -45
q71 0 127.5 45.5t68.5 119.5q11 71 -30.5 116t-110.5 45q-71 0 -127.5 -45.5t-68.5 -119.5z" />
    <glyph glyph-name="yen" unicode="&#xa5;" horiz-adv-x="627" 
d="M621 680h27l-310 -376h178l-4 -22h-189l-16 -98h190l-4 -22h-190l-26 -162h-24l25 162h-189l4 22h189l16 98h-190l4 22h177l-191 376h27l188 -374z" />
    <glyph glyph-name="brokenbar" unicode="&#xa6;" horiz-adv-x="199" 
d="M140 467h-25l54 343h24zM50 -100h-25l55 343h24z" />
    <glyph glyph-name="section" unicode="&#xa7;" horiz-adv-x="484" 
d="M386 82q-9 -54 -63.5 -85t-126.5 -31q-97 0 -163 44l3 24q67 -46 159 -46q65 0 112.5 26.5t54.5 71.5q4 27 -4.5 47t-32 34t-43.5 21.5t-57 17.5q-91 26 -121 49q-42 34 -34 91q7 46 43.5 79t82.5 52q-42 18 -63 44.5t-14 70.5q9 55 61.5 86.5t119.5 31.5q81 0 150 -39
l-3 -23q-63 40 -146 40q-61 0 -106 -26.5t-52 -72.5q-3 -23 4.5 -41t18.5 -28.5t37 -21t41.5 -15t49.5 -13.5q35 -10 58.5 -19t47 -25t33 -39.5t4.5 -54.5q-14 -82 -134 -129q97 -37 83 -121zM233 227q7 -2 22 -6t22 -7q123 37 136 119q4 26 -4 45.5t-28.5 32.5t-40.5 20.5
t-53 16.5q-9 3 -31 9t-34 10q-43 -13 -82 -44.5t-46 -77.5q-3 -19 0 -34t14.5 -26.5t20.5 -19t32 -15.5t33.5 -11.5t38.5 -11.5z" />
    <glyph glyph-name="dieresis" unicode="&#xa8;" horiz-adv-x="276" 
d="M373 834q-4 -22 -25 -22q-10 0 -16 7.5t-4 17.5q1 8 8.5 14.5t15.5 6.5q11 0 17 -7t4 -17zM173 834q-4 -22 -25 -22q-10 0 -16 7.5t-4 17.5q1 8 8.5 14.5t15.5 6.5q11 0 17 -7t4 -17z" />
    <glyph glyph-name="copyright" unicode="&#xa9;" horiz-adv-x="855" 
d="M808 344q-13 -86 -57 -155.5t-105 -111.5t-128.5 -64.5t-134.5 -22.5t-129 24t-109.5 68t-70 115.5t-8.5 158.5q13 86 57 155.5t104.5 111.5t128.5 64.5t135 22.5t128.5 -24t109.5 -68t70.5 -115.5t8.5 -158.5zM555 183q-66 -33 -135 -33q-79 0 -130.5 52t-36.5 146
q16 100 86.5 151t151.5 51q70 0 116 -35l-2 -19q-46 34 -111 34q-76 0 -140 -46t-79 -139q-13 -84 31.5 -129.5t116.5 -45.5q70 0 135 34zM80 354q-13 -82 8 -150.5t66 -111t103.5 -65.5t122.5 -23q89 0 174.5 36t153.5 116t86 190q13 82 -8.5 150t-66 111t-103.5 66
t-123 23q-89 0 -174.5 -36t-153.5 -116t-85 -190z" />
    <glyph glyph-name="guillemotleft" unicode="&#xab;" horiz-adv-x="415" 
d="M311 69h-25l-93 167l1 9l144 166h28l-149 -172zM162 69h-25l-93 167l1 9l144 166h28l-149 -172z" />
    <glyph glyph-name="logicalnot" unicode="&#xac;" horiz-adv-x="580" 
d="M501 302h-24l25 155h-401l3 23h425z" />
    <glyph glyph-name="registered" unicode="&#xae;" horiz-adv-x="855" 
d="M808 344q-13 -86 -57 -155.5t-105 -111.5t-128.5 -64.5t-134.5 -22.5t-129 24t-109.5 68t-70 115.5t-8.5 158.5q13 86 57 155.5t104.5 111.5t128.5 64.5t135 22.5t128.5 -24t109.5 -68t70.5 -115.5t8.5 -158.5zM80 354q-13 -82 8 -150.5t66 -111t103.5 -65.5t122.5 -23
q89 0 174.5 36t153.5 116t86 190q13 82 -8.5 150t-66 111t-103.5 66t-123 23q-89 0 -174.5 -36t-153.5 -116t-85 -190zM297 149h-20l62 395h150q22 0 44 -5.5t44 -17.5t33 -38t5 -62q-15 -89 -110 -107l90 -165h-22l-88 162q-13 -2 -34 -2h-129zM356 524l-31 -195h129
q126 0 141 95q5 31 -4 52t-28.5 31t-37.5 13.5t-39 3.5h-130z" />
    <glyph glyph-name="macron" unicode="&#xaf;" horiz-adv-x="296" 
d="M133 834h252l-3 -23h-252z" />
    <glyph glyph-name="degree" unicode="&#xb0;" horiz-adv-x="389" 
d="M382 574q-10 -63 -58 -100.5t-106 -37.5q-59 0 -96.5 40t-27.5 105q11 62 59 99.5t105 37.5q59 0 96.5 -40t27.5 -104zM114 578q-9 -54 22.5 -88.5t81.5 -34.5q52 0 93.5 32.5t50.5 88.5q9 54 -22 88.5t-80 34.5q-52 0 -94.5 -33t-51.5 -88z" />
    <glyph glyph-name="plusminus" unicode="&#xb1;" horiz-adv-x="584" 
d="M354 569l-33 -201h201l-3 -23h-201l-32 -201h-23l32 201h-201l3 23h201l32 201h24zM464 0h-425l4 23h425z" />
    <glyph glyph-name="acute" unicode="&#xb4;" horiz-adv-x="165" 
d="M158 778h-27l108 133h30z" />
    <glyph glyph-name="paragraph" unicode="&#xb6;" horiz-adv-x="590" 
d="M194 -220h-24l82 516q-100 0 -149 54t-34 150q15 94 80.5 147t165.5 53h253l-146 -920h-25l142 896h-203z" />
    <glyph glyph-name="periodcentered" unicode="&#xb7;" horiz-adv-x="187" 
d="M108 237q-1 -9 -8.5 -14.5t-15.5 -5.5q-10 0 -16 6.5t-5 17.5q1 9 8 14.5t16 5.5q24 0 21 -24z" />
    <glyph glyph-name="cedilla" unicode="&#xb8;" horiz-adv-x="210" 
d="M68 0h22l-38 -95q46 11 82.5 -5.5t30.5 -56.5q-5 -33 -35.5 -53t-83.5 -20q-57 0 -101 22l4 21q41 -22 95 -22q47 0 72 15t27 40q5 32 -34 43.5t-86 -4.5z" />
    <glyph glyph-name="guillemotright" unicode="&#xbb;" horiz-adv-x="415" 
d="M210 69h-28l149 172l-94 170h26l92 -167l-1 -9zM61 69h-28l149 172l-94 170h26l92 -167l-1 -9z" />
    <glyph glyph-name="onequarter" unicode="&#xbc;" horiz-adv-x="937" 
d="M809 408h23l-45 -288h86l-2 -20h-87l-16 -100h-22l16 100h-239l3 19zM765 120l40 256l-251 -256h211zM177 -11h-18l570 721h18zM226 680h16l-61 -387h79l-4 -21h-203l4 21h102l58 363l-99 -35l3 21z" />
    <glyph glyph-name="onehalf" unicode="&#xbd;" horiz-adv-x="885" 
d="M172 -11h-18l570 721h18zM597 379q60 35 128 35q56 0 90 -28t26 -75q-7 -46 -42 -76t-98 -63q-38 -20 -53 -29t-41 -28.5t-38.5 -42t-17.5 -51.5h250l-4 -21h-275l2 13q5 35 20 62.5t42 49.5t46 33.5t56 30.5q33 17 49.5 27t37 26t31 33t13.5 39q7 36 -20.5 57.5
t-74.5 21.5q-65 0 -131 -38zM221 680h16l-61 -387h79l-4 -21h-203l4 21h102l58 363l-99 -35l3 21z" />
    <glyph glyph-name="threequarters" unicode="&#xbe;" horiz-adv-x="985" 
d="M250 -11h-18l570 721h18zM856 408h23l-45 -288h86l-2 -20h-87l-16 -100h-22l16 100h-239l3 19zM812 120l40 256l-251 -256h211zM371 580q-6 -32 -30.5 -58t-64.5 -35q40 -6 63.5 -32.5t16.5 -72.5q-8 -53 -52.5 -82.5t-111.5 -29.5q-76 0 -131 26l4 22q52 -27 126 -27
q61 0 99 24.5t45 71.5q7 45 -22.5 67t-82.5 22h-60l3 21h57q52 0 83 25t36 61q6 37 -21 61.5t-76 24.5q-66 0 -129 -27l4 23q59 25 128 25q57 0 90 -32t26 -78z" />
    <glyph glyph-name="questiondown" unicode="&#xbf;" horiz-adv-x="479" 
d="M371 -170q-96 -56 -200 -56q-96 0 -149 43.5t-41 118.5q6 40 33 80t62 73.5t70 66.5t61.5 69.5t31.5 71.5h24q-6 -38 -32.5 -76.5t-61 -72t-69 -66.5t-61.5 -71.5t-33 -76.5q-10 -64 35 -100t133 -36q99 0 201 57zM301 466q-1 -8 -8.5 -14t-15.5 -6q-11 0 -16.5 7
t-3.5 17q3 20 24 20q23 0 20 -24z" />
    <glyph glyph-name="Agrave" unicode="&#xc0;" horiz-adv-x="707" 
d="M644 0h-26l-65 215h-420l-134 -215h-28l433 700h30zM406 659l-260 -420h401l-127 421q-4 7 -5 17q-2 -5 -9 -18zM459 778h-26l-70 133h28z" />
    <glyph glyph-name="Aacute" unicode="&#xc1;" horiz-adv-x="707" 
d="M644 0h-26l-65 215h-420l-134 -215h-28l433 700h30zM406 659l-260 -420h401l-127 421q-4 7 -5 17q-2 -5 -9 -18zM427 778h-27l108 133h30z" />
    <glyph glyph-name="Acircumflex" unicode="&#xc2;" horiz-adv-x="707" 
d="M644 0h-26l-65 215h-420l-134 -215h-28l433 700h30zM406 659l-260 -420h401l-127 421q-4 7 -5 17q-2 -5 -9 -18zM439 903h21l107 -125h-27l-91 106l-125 -106h-30z" />
    <glyph glyph-name="Atilde" unicode="&#xc3;" horiz-adv-x="707" 
d="M644 0h-26l-65 215h-420l-134 -215h-28l433 700h30zM406 659l-260 -420h401l-127 421q-4 7 -5 17q-2 -5 -9 -18zM584 861q-1 -32 -19 -52t-48 -20q-29 0 -83 28t-76 28t-35 -14t-13 -37h-22q0 32 19.5 52.5t47.5 20.5t82.5 -28t77.5 -28q45 0 47 50h22z" />
    <glyph glyph-name="Adieresis" unicode="&#xc4;" horiz-adv-x="707" 
d="M644 0h-26l-65 215h-420l-134 -215h-28l433 700h30zM406 659l-260 -420h401l-127 421q-4 7 -5 17q-2 -5 -9 -18zM561 834q-4 -22 -25 -22q-10 0 -16 7.5t-4 17.5q1 8 8.5 14.5t15.5 6.5q11 0 17 -7t4 -17zM361 834q-4 -22 -25 -22q-10 0 -16 7.5t-4 17.5q1 8 8.5 14.5
t15.5 6.5q11 0 17 -7t4 -17z" />
    <glyph glyph-name="Aring" unicode="&#xc5;" horiz-adv-x="707" 
d="M644 0h-26l-65 215h-420l-134 -215h-28l433 700h30zM406 659l-260 -420h401l-127 421q-4 7 -5 17q-2 -5 -9 -18zM525 838q-6 -36 -33.5 -58t-61.5 -22q-35 0 -57.5 23.5t-15.5 60.5q5 35 33 57.5t62 22.5q35 0 57.5 -23.5t15.5 -60.5zM376 839q-4 -27 12 -44.5t41 -17.5
q28 0 50 17t27 46q4 27 -12 45t-41 18q-27 0 -49.5 -17.5t-27.5 -46.5z" />
    <glyph glyph-name="AE" unicode="&#xc6;" horiz-adv-x="995" 
d="M996 700l-4 -24h-400l-49 -312h370l-4 -24h-370l-50 -316h406l-4 -24h-430l34 216h-329l-188 -216h-31l613 700h436zM187 239h312l69 436z" />
    <glyph glyph-name="Ccedilla" unicode="&#xc7;" horiz-adv-x="649" 
d="M658 637q-68 49 -177 49q-63 0 -125.5 -20.5t-118.5 -60.5t-96 -106t-53 -148q-13 -81 6 -147t61.5 -106.5t98.5 -62t118 -21.5q106 0 201 50l-5 -26q-88 -48 -195 -48l-34 -85q46 11 82.5 -5.5t30.5 -56.5q-4 -33 -34.5 -53t-83.5 -20q-59 0 -101 22l3 21q42 -22 96 -22
q92 0 99 55q5 33 -34.5 43.5t-86.5 -4.5l42 105q-64 3 -121 28t-100 68.5t-62 113.5t-6 155q14 86 56.5 156t101.5 112t125 64.5t133 22.5q108 0 183 -48z" />
    <glyph glyph-name="Egrave" unicode="&#xc8;" horiz-adv-x="626" 
d="M170 700h455l-4 -24h-430l-49 -312h400l-4 -24h-400l-50 -316h436l-4 -24h-461zM439 778h-26l-70 133h28z" />
    <glyph glyph-name="Eacute" unicode="&#xc9;" horiz-adv-x="626" 
d="M170 700h455l-4 -24h-430l-49 -312h400l-4 -24h-400l-50 -316h436l-4 -24h-461zM407 778h-27l108 133h30z" />
    <glyph glyph-name="Ecircumflex" unicode="&#xca;" horiz-adv-x="626" 
d="M170 700h455l-4 -24h-430l-49 -312h400l-4 -24h-400l-50 -316h436l-4 -24h-461zM419 903h21l107 -125h-27l-91 106l-125 -106h-30z" />
    <glyph glyph-name="Edieresis" unicode="&#xcb;" horiz-adv-x="626" 
d="M170 700h455l-4 -24h-430l-49 -312h400l-4 -24h-400l-50 -316h436l-4 -24h-461zM541 834q-4 -22 -25 -22q-10 0 -16 7.5t-4 17.5q1 8 8.5 14.5t15.5 6.5q11 0 17 -7t4 -17zM341 834q-4 -22 -25 -22q-10 0 -16 7.5t-4 17.5q1 8 8.5 14.5t15.5 6.5q11 0 17 -7t4 -17z" />
    <glyph glyph-name="Igrave" unicode="&#xcc;" horiz-adv-x="235" 
d="M170 700h25l-111 -700h-25zM222 778h-26l-70 133h28z" />
    <glyph glyph-name="Iacute" unicode="&#xcd;" horiz-adv-x="235" 
d="M170 700h25l-111 -700h-25zM190 778h-27l108 133h30z" />
    <glyph glyph-name="Icircumflex" unicode="&#xce;" horiz-adv-x="235" 
d="M170 700h25l-111 -700h-25zM202 903h21l107 -125h-27l-91 106l-125 -106h-30z" />
    <glyph glyph-name="Idieresis" unicode="&#xcf;" horiz-adv-x="235" 
d="M170 700h25l-111 -700h-25zM324 834q-4 -22 -25 -22q-10 0 -16 7.5t-4 17.5q1 8 8.5 14.5t15.5 6.5q11 0 17 -7t4 -17zM124 834q-4 -22 -25 -22q-10 0 -16 7.5t-4 17.5q1 8 8.5 14.5t15.5 6.5q11 0 17 -7t4 -17z" />
    <glyph glyph-name="Eth" unicode="&#xd0;" horiz-adv-x="731" 
d="M171 700h195q183 0 264 -96.5t56 -255.5q-24 -157 -133 -252.5t-294 -95.5h-199l53 338h-63l3 23h64zM262 24q171 0 273.5 89t125.5 239q23 147 -51 235.5t-245 88.5h-174l-50 -315h259l-3 -23h-259l-50 -314h174z" />
    <glyph glyph-name="Ntilde" unicode="&#xd1;" horiz-adv-x="767" 
d="M84 0h-25l111 700h20l408 -658q1 10 3.5 26t3.5 23l97 609h25l-111 -700h-20l-408 659q-2 -16 -8 -49zM615 861q-1 -32 -19 -52t-48 -20q-29 0 -82.5 28t-76.5 28q-22 0 -35 -14t-13 -37h-22q0 32 19.5 52.5t47.5 20.5t82.5 -28t77.5 -28q45 0 47 50h22z" />
    <glyph glyph-name="Ograve" unicode="&#xd2;" horiz-adv-x="825" 
d="M783 348q-11 -67 -44.5 -130t-85 -114.5t-126.5 -82.5t-161 -31t-151.5 32t-101 84t-49 115.5t-3.5 130.5q11 66 44.5 129.5t85.5 114.5t127 82.5t160 31.5q86 0 151.5 -32t101 -84t49 -115.5t3.5 -130.5zM86 349q-10 -62 2 -120.5t44.5 -107t93 -78t141.5 -29.5
q157 0 263.5 102t127.5 235q10 62 -2 120.5t-44.5 107t-93 78t-141.5 29.5q-80 0 -151 -29.5t-119.5 -78t-79.5 -108t-41 -121.5zM518 778h-26l-70 133h28z" />
    <glyph glyph-name="Oacute" unicode="&#xd3;" horiz-adv-x="825" 
d="M783 348q-11 -67 -44.5 -130t-85 -114.5t-126.5 -82.5t-161 -31t-151.5 32t-101 84t-49 115.5t-3.5 130.5q11 66 44.5 129.5t85.5 114.5t127 82.5t160 31.5q86 0 151.5 -32t101 -84t49 -115.5t3.5 -130.5zM86 349q-10 -62 2 -120.5t44.5 -107t93 -78t141.5 -29.5
q157 0 263.5 102t127.5 235q10 62 -2 120.5t-44.5 107t-93 78t-141.5 29.5q-80 0 -151 -29.5t-119.5 -78t-79.5 -108t-41 -121.5zM486 778h-27l108 133h30z" />
    <glyph glyph-name="Ocircumflex" unicode="&#xd4;" horiz-adv-x="825" 
d="M783 348q-11 -67 -44.5 -130t-85 -114.5t-126.5 -82.5t-161 -31t-151.5 32t-101 84t-49 115.5t-3.5 130.5q11 66 44.5 129.5t85.5 114.5t127 82.5t160 31.5q86 0 151.5 -32t101 -84t49 -115.5t3.5 -130.5zM86 349q-10 -62 2 -120.5t44.5 -107t93 -78t141.5 -29.5
q157 0 263.5 102t127.5 235q10 62 -2 120.5t-44.5 107t-93 78t-141.5 29.5q-80 0 -151 -29.5t-119.5 -78t-79.5 -108t-41 -121.5zM498 903h21l107 -125h-27l-91 106l-125 -106h-30z" />
    <glyph glyph-name="Otilde" unicode="&#xd5;" horiz-adv-x="825" 
d="M783 348q-11 -67 -44.5 -130t-85 -114.5t-126.5 -82.5t-161 -31t-151.5 32t-101 84t-49 115.5t-3.5 130.5q11 66 44.5 129.5t85.5 114.5t127 82.5t160 31.5q86 0 151.5 -32t101 -84t49 -115.5t3.5 -130.5zM86 349q-10 -62 2 -120.5t44.5 -107t93 -78t141.5 -29.5
q157 0 263.5 102t127.5 235q10 62 -2 120.5t-44.5 107t-93 78t-141.5 29.5q-80 0 -151 -29.5t-119.5 -78t-79.5 -108t-41 -121.5zM643 861q-1 -32 -19 -52t-48 -20q-28 0 -82 28t-77 28q-22 0 -35 -14t-13 -37h-22q0 32 19.5 52.5t47.5 20.5t82.5 -28t77.5 -28q45 0 47 50
h22z" />
    <glyph glyph-name="Odieresis" unicode="&#xd6;" horiz-adv-x="825" 
d="M783 348q-11 -67 -44.5 -130t-85 -114.5t-126.5 -82.5t-161 -31t-151.5 32t-101 84t-49 115.5t-3.5 130.5q11 66 44.5 129.5t85.5 114.5t127 82.5t160 31.5q86 0 151.5 -32t101 -84t49 -115.5t3.5 -130.5zM86 349q-10 -62 2 -120.5t44.5 -107t93 -78t141.5 -29.5
q157 0 263.5 102t127.5 235q10 62 -2 120.5t-44.5 107t-93 78t-141.5 29.5q-80 0 -151 -29.5t-119.5 -78t-79.5 -108t-41 -121.5zM620 834q-4 -22 -25 -22q-10 0 -16 7.5t-4 17.5q1 8 8.5 14.5t15.5 6.5q11 0 17 -7t4 -17zM420 834q-4 -22 -25 -22q-10 0 -16 7.5t-4 17.5
q1 8 8.5 14.5t15.5 6.5q11 0 17 -7t4 -17z" />
    <glyph glyph-name="multiply" unicode="&#xd7;" horiz-adv-x="444" 
d="M229 335l-156 -136l-14 17l156 134l-114 135l18 15l113 -134l157 135l13 -16l-156 -135l113 -135l-17 -16z" />
    <glyph glyph-name="Oslash" unicode="&#xd8;" horiz-adv-x="825" 
d="M83 -48h-26l97 110q-58 52 -81.5 129.5t-10.5 160.5q10 66 44 129.5t85.5 114.5t126.5 82.5t160 31.5q118 0 198 -59l86 97h26l-97 -110q58 -52 81.5 -129.5t10.5 -160.5q-10 -67 -43.5 -130t-85 -114t-126.5 -82.5t-161 -31.5q-118 0 -198 59zM87 349q-12 -77 9.5 -149
t75.5 -119l488 551q-71 54 -182 54q-157 0 -263.5 -102t-127.5 -235zM186 68q71 -54 182 -54q157 0 263.5 102t126.5 235q12 77 -9 149t-75 119z" />
    <glyph glyph-name="Ugrave" unicode="&#xd9;" horiz-adv-x="749" 
d="M693 700h25l-73 -460q-39 -250 -315 -250q-127 0 -194.5 60t-46.5 191l72 459h25l-73 -459q-36 -227 216 -227q256 0 292 228zM477 778h-26l-70 133h28z" />
    <glyph glyph-name="Uacute" unicode="&#xda;" horiz-adv-x="749" 
d="M693 700h25l-73 -460q-39 -250 -315 -250q-127 0 -194.5 60t-46.5 191l72 459h25l-73 -459q-36 -227 216 -227q256 0 292 228zM445 778h-27l108 133h30z" />
    <glyph glyph-name="Ucircumflex" unicode="&#xdb;" horiz-adv-x="749" 
d="M693 700h25l-73 -460q-39 -250 -315 -250q-127 0 -194.5 60t-46.5 191l72 459h25l-73 -459q-36 -227 216 -227q256 0 292 228zM457 903h21l107 -125h-27l-91 106l-125 -106h-30z" />
    <glyph glyph-name="Udieresis" unicode="&#xdc;" horiz-adv-x="749" 
d="M693 700h25l-73 -460q-39 -250 -315 -250q-127 0 -194.5 60t-46.5 191l72 459h25l-73 -459q-36 -227 216 -227q256 0 292 228zM579 834q-4 -22 -25 -22q-10 0 -16 7.5t-4 17.5q1 8 8.5 14.5t15.5 6.5q11 0 17 -7t4 -17zM379 834q-4 -22 -25 -22q-10 0 -16 7.5t-4 17.5
q1 8 8.5 14.5t15.5 6.5q11 0 17 -7t4 -17z" />
    <glyph glyph-name="Yacute" unicode="&#xdd;" horiz-adv-x="624" 
d="M278 0h-25l45 284l-209 416h26l198 -391l322 391h30l-342 -416zM383 778h-27l108 133h30z" />
    <glyph glyph-name="Thorn" unicode="&#xde;" horiz-adv-x="650" 
d="M174 567h189q62 0 110.5 -10.5t87.5 -34.5t55.5 -68t6.5 -106q-35 -215 -325 -215h-193l-21 -133h-25l111 700h25zM109 157h193q266 0 297 195q9 54 -6 92.5t-49.5 59.5t-78.5 30t-100 9h-195z" />
    <glyph glyph-name="germandbls" unicode="&#xdf;" horiz-adv-x="588" 
d="M527 148q-13 -77 -78 -117.5t-148 -40.5q-77 0 -128 32l3 22q51 -32 122 -32q78 0 136 35.5t69 105.5q5 32 -6.5 62.5t-31 53t-39.5 43.5t-33 43t-10 42q4 22 19.5 43t33 35.5t34 39t20.5 53.5q7 46 -31 83t-105 37q-83 0 -141 -49t-71 -133l-80 -506h-24l80 505
q15 96 79.5 150.5t156.5 54.5q79 1 124 -44t36 -100q-6 -37 -30.5 -66.5t-48.5 -53.5t-28 -49q-3 -18 10.5 -39t33.5 -42t39.5 -44.5t31 -56t5.5 -67.5z" />
    <glyph glyph-name="agrave" unicode="&#xe0;" horiz-adv-x="613" 
d="M481 124q-39 -60 -102.5 -97t-136.5 -37q-104 0 -161 71t-39 185q18 111 96 177.5t180 66.5q71 0 125 -39t74 -98l20 127h23l-76 -480h-23zM65 243q-17 -104 34 -167.5t144 -63.5q76 0 142 43.5t100 108.5l24 150q-12 65 -64.5 109.5t-125.5 44.5q-94 0 -166 -60.5
t-88 -164.5zM374 558h-26l-70 133h28z" />
    <glyph glyph-name="aacute" unicode="&#xe1;" horiz-adv-x="613" 
d="M481 124q-39 -60 -102.5 -97t-136.5 -37q-104 0 -161 71t-39 185q18 111 96 177.5t180 66.5q71 0 125 -39t74 -98l20 127h23l-76 -480h-23zM65 243q-17 -104 34 -167.5t144 -63.5q76 0 142 43.5t100 108.5l24 150q-12 65 -64.5 109.5t-125.5 44.5q-94 0 -166 -60.5
t-88 -164.5zM342 558h-27l108 133h30z" />
    <glyph glyph-name="acircumflex" unicode="&#xe2;" horiz-adv-x="613" 
d="M481 124q-39 -60 -102.5 -97t-136.5 -37q-104 0 -161 71t-39 185q18 111 96 177.5t180 66.5q71 0 125 -39t74 -98l20 127h23l-76 -480h-23zM65 243q-17 -104 34 -167.5t144 -63.5q76 0 142 43.5t100 108.5l24 150q-12 65 -64.5 109.5t-125.5 44.5q-94 0 -166 -60.5
t-88 -164.5zM354 683h21l107 -125h-27l-91 106l-125 -106h-30z" />
    <glyph glyph-name="atilde" unicode="&#xe3;" horiz-adv-x="613" 
d="M481 124q-39 -60 -102.5 -97t-136.5 -37q-104 0 -161 71t-39 185q18 111 96 177.5t180 66.5q71 0 125 -39t74 -98l20 127h23l-76 -480h-23zM65 243q-17 -104 34 -167.5t144 -63.5q76 0 142 43.5t100 108.5l24 150q-12 65 -64.5 109.5t-125.5 44.5q-94 0 -166 -60.5
t-88 -164.5zM499 641q-1 -32 -19 -52t-48 -20q-28 0 -82 28t-77 28q-22 0 -35 -14t-13 -37h-22q0 32 19.5 52.5t47.5 20.5t82.5 -28t77.5 -28q45 0 47 50h22z" />
    <glyph glyph-name="adieresis" unicode="&#xe4;" horiz-adv-x="613" 
d="M481 124q-39 -60 -102.5 -97t-136.5 -37q-104 0 -161 71t-39 185q18 111 96 177.5t180 66.5q71 0 125 -39t74 -98l20 127h23l-76 -480h-23zM65 243q-17 -104 34 -167.5t144 -63.5q76 0 142 43.5t100 108.5l24 150q-12 65 -64.5 109.5t-125.5 44.5q-94 0 -166 -60.5
t-88 -164.5zM476 614q-4 -22 -25 -22q-10 0 -16 7.5t-4 17.5q1 8 8.5 14.5t15.5 6.5q11 0 17 -7t4 -17zM276 614q-4 -22 -25 -22q-10 0 -16 7.5t-4 17.5q1 8 8.5 14.5t15.5 6.5q11 0 17 -7t4 -17z" />
    <glyph glyph-name="aring" unicode="&#xe5;" horiz-adv-x="613" 
d="M481 124q-39 -60 -102.5 -97t-136.5 -37q-104 0 -161 71t-39 185q18 111 96 177.5t180 66.5q71 0 125 -39t74 -98l20 127h23l-76 -480h-23zM65 243q-17 -104 34 -167.5t144 -63.5q76 0 142 43.5t100 108.5l24 150q-12 65 -64.5 109.5t-125.5 44.5q-94 0 -166 -60.5
t-88 -164.5zM440 618q-6 -36 -33.5 -58t-61.5 -22q-35 0 -57.5 23.5t-15.5 60.5q5 35 33.5 57.5t61.5 22.5q35 0 57.5 -23.5t15.5 -60.5zM291 619q-4 -27 12 -44.5t41 -17.5q28 0 50 17t27 46q4 27 -12 45t-41 18q-27 0 -49.5 -17.5t-27.5 -46.5z" />
    <glyph glyph-name="ae" unicode="&#xe6;" horiz-adv-x="1001" 
d="M481 122q-40 -59 -102.5 -95.5t-136.5 -36.5q-103 0 -160.5 71t-39.5 185q18 111 96 177.5t180 66.5q71 0 125 -39t74 -98l20 127h23l-23 -144q35 73 99.5 113.5t137.5 40.5q51 0 89 -16.5t58.5 -44t30 -62.5t7 -71t-13.5 -71h-422q-14 -105 47.5 -159t156.5 -54
q89 0 162 39l-4 -25q-66 -36 -161 -36q-80 0 -142 39.5t-75 117.5l-23 -147h-23zM66 243q-17 -104 34 -167.5t144 -63.5q76 0 142 43.5t100 108.5l24 150q-12 65 -65.5 109.5t-124.5 44.5q-95 0 -166.5 -60.5t-87.5 -164.5zM772 468q-91 0 -162 -63t-85 -158h402q12 35 8 74
t-18.5 71.5t-52 54t-92.5 21.5z" />
    <glyph glyph-name="ccedilla" unicode="&#xe7;" horiz-adv-x="493" 
d="M469 427q-49 41 -131 41q-60 0 -115.5 -22.5t-100.5 -76t-57 -130.5q-18 -108 39 -167.5t152 -59.5q87 0 159 40l-4 -25q-67 -37 -152 -37l-34 -85q46 11 82.5 -5.5t30.5 -56.5q-5 -33 -35.5 -53t-83.5 -20q-57 0 -101 22l4 21q41 -22 95 -22q47 0 72 15t27 40
q5 32 -34 43.5t-86 -4.5l42 105q-98 5 -156.5 70t-40.5 182q10 63 40.5 112.5t73.5 78t89 43t93 14.5q83 0 137 -40z" />
    <glyph glyph-name="egrave" unicode="&#xe8;" horiz-adv-x="542" 
d="M41 241q18 115 95 182t173 67q50 0 88 -16.5t59.5 -44t32.5 -62.5t9.5 -71t-12.5 -71h-423q-14 -105 48 -159t156 -54q89 0 164 39l-5 -25q-66 -36 -161 -36q-106 0 -175 64t-49 187zM468 247q12 35 7 74t-20.5 71.5t-53.5 54t-91 21.5q-87 0 -156 -59t-88 -162h402z
M354 558h-26l-70 133h28z" />
    <glyph glyph-name="eacute" unicode="&#xe9;" horiz-adv-x="542" 
d="M41 241q18 115 95 182t173 67q50 0 88 -16.5t59.5 -44t32.5 -62.5t9.5 -71t-12.5 -71h-423q-14 -105 48 -159t156 -54q89 0 164 39l-5 -25q-66 -36 -161 -36q-106 0 -175 64t-49 187zM468 247q12 35 7 74t-20.5 71.5t-53.5 54t-91 21.5q-87 0 -156 -59t-88 -162h402z
M322 558h-27l108 133h30z" />
    <glyph glyph-name="ecircumflex" unicode="&#xea;" horiz-adv-x="542" 
d="M41 241q18 115 95 182t173 67q50 0 88 -16.5t59.5 -44t32.5 -62.5t9.5 -71t-12.5 -71h-423q-14 -105 48 -159t156 -54q89 0 164 39l-5 -25q-66 -36 -161 -36q-106 0 -175 64t-49 187zM468 247q12 35 7 74t-20.5 71.5t-53.5 54t-91 21.5q-87 0 -156 -59t-88 -162h402z
M334 683h21l107 -125h-27l-91 106l-125 -106h-30z" />
    <glyph glyph-name="edieresis" unicode="&#xeb;" horiz-adv-x="542" 
d="M41 241q18 115 95 182t173 67q50 0 88 -16.5t59.5 -44t32.5 -62.5t9.5 -71t-12.5 -71h-423q-14 -105 48 -159t156 -54q89 0 164 39l-5 -25q-66 -36 -161 -36q-106 0 -175 64t-49 187zM468 247q12 35 7 74t-20.5 71.5t-53.5 54t-91 21.5q-87 0 -156 -59t-88 -162h402z
M456 614q-4 -22 -25 -22q-10 0 -16 7.5t-4 17.5q1 8 8.5 14.5t15.5 6.5q11 0 17 -7t4 -17zM256 614q-4 -22 -25 -22q-10 0 -16 7.5t-4 17.5q1 8 8.5 14.5t15.5 6.5q11 0 17 -7t4 -17z" />
    <glyph glyph-name="igrave" unicode="&#xec;" horiz-adv-x="200" 
d="M160 558h-24l-49 133h28zM66 0h-24l76 480h24z" />
    <glyph glyph-name="iacute" unicode="&#xed;" horiz-adv-x="200" 
d="M66 0h-24l76 480h24zM139 558h-27l108 133h30z" />
    <glyph glyph-name="icircumflex" unicode="&#xee;" horiz-adv-x="200" 
d="M66 0h-24l76 480h24zM48 558h-30l133 125h21l95 -125h-27l-79 106z" />
    <glyph glyph-name="idieresis" unicode="&#xef;" horiz-adv-x="200" 
d="M66 0h-24l76 480h24zM100 614q-4 -21 -24 -21q-10 0 -15.5 7t-3.5 17q1 8 8 14t15 6q10 0 16 -6.5t4 -16.5zM244 614q-4 -21 -24 -21q-10 0 -15.5 7t-3.5 17q1 8 8 14t15 6q10 0 16 -6.5t4 -16.5z" />
    <glyph glyph-name="eth" unicode="&#xf0;" horiz-adv-x="595" 
d="M532 264q-20 -125 -98.5 -199.5t-189.5 -74.5q-104 0 -163.5 65t-42.5 171q15 97 93 160t173 63q84 0 143.5 -49t60.5 -140q2 8 4 26q21 149 -32 236t-149 125l-139 -120l-13 15l130 111q-64 24 -148 24l4 23q86 0 164 -29l98 85l13 -15l-92 -79q47 -20 83.5 -50
t66.5 -79t37.5 -114t-3.5 -155zM62 222q-15 -94 37 -151.5t145 -57.5q87 0 152.5 50.5t95.5 137.5q15 108 -41 166.5t-144 58.5q-90 0 -160.5 -57t-84.5 -147z" />
    <glyph glyph-name="ntilde" unicode="&#xf1;" horiz-adv-x="574" 
d="M119 371q39 48 97 83.5t127 35.5q80 0 124.5 -53t30.5 -142l-47 -295h-24l47 294q13 82 -26 128t-110 46q-67 0 -126.5 -39t-96.5 -91l-53 -338h-24l76 480h22zM478 641q-1 -32 -19 -52t-48 -20q-29 0 -83 28t-76 28t-35 -14t-13 -37h-22q0 32 19.5 52.5t47.5 20.5
t82.5 -28t77.5 -28q45 0 47 50h22z" />
    <glyph glyph-name="ograve" unicode="&#xf2;" horiz-adv-x="592" 
d="M535 234q-18 -114 -100.5 -179t-184.5 -65q-99 0 -163 70.5t-46 185.5q18 114 101 179t185 65q99 0 163 -70.5t45 -185.5zM65 242q-17 -103 39.5 -166t145.5 -63q95 0 170 60t91 165q17 103 -39.5 166t-145.5 63q-95 0 -170 -60t-91 -165zM367 550h-26l-70 133h28z" />
    <glyph glyph-name="oacute" unicode="&#xf3;" horiz-adv-x="592" 
d="M535 234q-18 -114 -100.5 -179t-184.5 -65q-99 0 -163 70.5t-46 185.5q18 114 101 179t185 65q99 0 163 -70.5t45 -185.5zM65 242q-17 -103 39.5 -166t145.5 -63q95 0 170 60t91 165q17 103 -39.5 166t-145.5 63q-95 0 -170 -60t-91 -165zM335 550h-27l108 133h30z" />
    <glyph glyph-name="ocircumflex" unicode="&#xf4;" horiz-adv-x="592" 
d="M535 234q-18 -114 -100.5 -179t-184.5 -65q-99 0 -163 70.5t-46 185.5q18 114 101 179t185 65q99 0 163 -70.5t45 -185.5zM65 242q-17 -103 39.5 -166t145.5 -63q95 0 170 60t91 165q17 103 -39.5 166t-145.5 63q-95 0 -170 -60t-91 -165zM347 675h21l107 -125h-27
l-91 106l-125 -106h-30z" />
    <glyph glyph-name="otilde" unicode="&#xf5;" horiz-adv-x="592" 
d="M535 234q-18 -114 -100.5 -179t-184.5 -65q-99 0 -163 70.5t-46 185.5q18 114 101 179t185 65q99 0 163 -70.5t45 -185.5zM65 242q-17 -103 39.5 -166t145.5 -63q95 0 170 60t91 165q17 103 -39.5 166t-145.5 63q-95 0 -170 -60t-91 -165zM492 633q-1 -32 -19 -52
t-48 -20q-29 0 -83 28t-76 28t-35 -14t-13 -37h-22q0 32 19.5 52.5t47.5 20.5t82.5 -28t77.5 -28q45 0 47 50h22z" />
    <glyph glyph-name="odieresis" unicode="&#xf6;" horiz-adv-x="592" 
d="M535 234q-18 -114 -100.5 -179t-184.5 -65q-99 0 -163 70.5t-46 185.5q18 114 101 179t185 65q99 0 163 -70.5t45 -185.5zM65 242q-17 -103 39.5 -166t145.5 -63q95 0 170 60t91 165q17 103 -39.5 166t-145.5 63q-95 0 -170 -60t-91 -165zM469 606q-4 -22 -25 -22
q-10 0 -16 7.5t-4 17.5q1 8 8.5 14.5t15.5 6.5q11 0 17 -7t4 -17zM269 606q-4 -22 -25 -22q-10 0 -16 7.5t-4 17.5q1 8 8.5 14.5t15.5 6.5q11 0 17 -7t4 -17z" />
    <glyph glyph-name="divide" unicode="&#xf7;" horiz-adv-x="644" 
d="M570 338h-480l3 24h480zM317 123q-2 -20 -23 -20q-11 0 -16.5 7t-4.5 17q1 9 8 14.5t16 5.5q23 0 20 -24zM389 570q-1 -9 -8 -14.5t-16 -5.5q-11 0 -16.5 7t-3.5 17q1 9 8 14.5t16 5.5q23 0 20 -24z" />
    <glyph glyph-name="oslash" unicode="&#xf8;" horiz-adv-x="593" 
d="M539 543l-77 -97q95 -75 74 -212q-18 -114 -100.5 -179t-184.5 -65q-68 0 -124 36l-66 -84h-23l75 95q-92 74 -71 209q18 114 101 179t185 65q68 0 120 -34l68 87h23zM326 467q-95 0 -169.5 -60t-91.5 -165q-19 -121 62 -187l304 383q-46 29 -105 29zM251 13
q95 0 169.5 60t91.5 165q20 126 -65 189l-305 -383q48 -31 109 -31z" />
    <glyph glyph-name="ugrave" unicode="&#xf9;" horiz-adv-x="575" 
d="M497 480h24l-76 -480h-22l17 109q-36 -47 -95 -83t-126 -36q-81 0 -126.5 53t-31.5 143l47 294h24l-47 -294q-12 -82 26 -128t109 -46q69 0 128 39t95 92zM352 558h-26l-70 133h28z" />
    <glyph glyph-name="uacute" unicode="&#xfa;" horiz-adv-x="575" 
d="M497 480h24l-76 -480h-22l17 109q-36 -47 -95 -83t-126 -36q-81 0 -126.5 53t-31.5 143l47 294h24l-47 -294q-12 -82 26 -128t109 -46q69 0 128 39t95 92zM320 558h-27l108 133h30z" />
    <glyph glyph-name="ucircumflex" unicode="&#xfb;" horiz-adv-x="575" 
d="M497 480h24l-76 -480h-22l17 109q-36 -47 -95 -83t-126 -36q-81 0 -126.5 53t-31.5 143l47 294h24l-47 -294q-12 -82 26 -128t109 -46q69 0 128 39t95 92zM332 683h21l107 -125h-27l-91 106l-125 -106h-30z" />
    <glyph glyph-name="udieresis" unicode="&#xfc;" horiz-adv-x="575" 
d="M497 480h24l-76 -480h-22l17 109q-36 -47 -95 -83t-126 -36q-81 0 -126.5 53t-31.5 143l47 294h24l-47 -294q-12 -82 26 -128t109 -46q69 0 128 39t95 92zM454 614q-4 -22 -25 -22q-10 0 -16 7.5t-4 17.5q1 8 8.5 14.5t15.5 6.5q11 0 17 -7t4 -17zM254 614
q-4 -22 -25 -22q-10 0 -16 7.5t-4 17.5q1 8 8.5 14.5t15.5 6.5q11 0 17 -7t4 -17z" />
    <glyph glyph-name="yacute" unicode="&#xfd;" horiz-adv-x="530" 
d="M235 25l275 455h27l-344 -568q-48 -78 -88.5 -110t-88.5 -32q-25 0 -49 6l3 21q20 -5 44 -5q44 0 81 31t78 100l47 77l-173 480h25zM292 558h-27l108 133h30z" />
    <glyph glyph-name="thorn" unicode="&#xfe;" horiz-adv-x="613" 
d="M27 -220h-24l146 920h24l-55 -345q40 60 103 97.5t135 37.5q101 0 159.5 -71t40.5 -185q-18 -112 -95 -178t-181 -66q-74 0 -126 38.5t-72 100.5zM88 167q13 -67 64 -111t126 -44q96 0 166.5 60t87.5 165q17 103 -35.5 167t-143.5 64q-74 0 -141 -44.5t-101 -111.5z" />
    <glyph glyph-name="ydieresis" unicode="&#xff;" horiz-adv-x="530" 
d="M235 25l275 455h27l-344 -568q-48 -78 -88.5 -110t-88.5 -32q-25 0 -49 6l3 21q20 -5 44 -5q44 0 81 31t78 100l47 77l-173 480h25zM426 614q-4 -22 -25 -22q-10 0 -16 7.5t-4 17.5q1 8 8.5 14.5t15.5 6.5q11 0 17 -7t4 -17zM226 614q-4 -22 -25 -22q-10 0 -16 7.5
t-4 17.5q1 8 8.5 14.5t15.5 6.5q11 0 17 -7t4 -17z" />
    <glyph glyph-name="Amacron" unicode="&#x100;" horiz-adv-x="707" 
d="M644 0h-26l-65 215h-420l-134 -215h-28l433 700h30zM406 659l-260 -420h401l-127 421q-4 7 -5 17q-2 -5 -9 -18zM315 834h252l-3 -23h-252z" />
    <glyph glyph-name="amacron" unicode="&#x101;" horiz-adv-x="613" 
d="M481 124q-39 -60 -102.5 -97t-136.5 -37q-104 0 -161 71t-39 185q18 111 96 177.5t180 66.5q71 0 125 -39t74 -98l20 127h23l-76 -480h-23zM65 243q-17 -104 34 -167.5t144 -63.5q76 0 142 43.5t100 108.5l24 150q-12 65 -64.5 109.5t-125.5 44.5q-94 0 -166 -60.5
t-88 -164.5zM230 614h252l-3 -23h-252z" />
    <glyph glyph-name="Abreve" unicode="&#x102;" horiz-adv-x="707" 
d="M644 0h-26l-65 215h-420l-134 -215h-28l433 700h30zM406 659l-260 -420h401l-127 421q-4 7 -5 17q-2 -5 -9 -18zM559 824q-56 -41 -127 -41q-79 0 -121 41l4 26q45 -44 117 -44t131 44z" />
    <glyph glyph-name="abreve" unicode="&#x103;" horiz-adv-x="613" 
d="M481 124q-39 -60 -102.5 -97t-136.5 -37q-104 0 -161 71t-39 185q18 111 96 177.5t180 66.5q71 0 125 -39t74 -98l20 127h23l-76 -480h-23zM65 243q-17 -104 34 -167.5t144 -63.5q76 0 142 43.5t100 108.5l24 150q-12 65 -64.5 109.5t-125.5 44.5q-94 0 -166 -60.5
t-88 -164.5zM474 604q-56 -41 -127 -41q-79 0 -121 41l4 26q45 -44 117 -44t131 44z" />
    <glyph glyph-name="Aogonek" unicode="&#x104;" horiz-adv-x="707" 
d="M644 0q-134 -84 -145 -151q-4 -27 11 -42.5t46 -15.5q28 0 56 11l-3 -22q-26 -10 -57 -10q-42 0 -62 21.5t-14 57.5q10 69 140 157l-63 209h-420l-134 -215h-28l433 700h30zM406 659l-260 -420h401l-127 421q-4 7 -5 17z" />
    <glyph glyph-name="aogonek" unicode="&#x105;" horiz-adv-x="613" 
d="M560 480l-76 -480q-126 -84 -137 -151q-4 -27 9.5 -42.5t39.5 -15.5t55 9l-3 -22q-29 -8 -56 -8q-36 0 -55 21.5t-13 57.5q11 71 139 160l18 115q-39 -60 -102.5 -97t-136.5 -37q-104 0 -161 71t-39 185q18 111 96 177.5t180 66.5q71 0 125 -39t74 -98l20 127h23zM65 243
q-17 -104 34 -167.5t144 -63.5q76 0 142 43.5t100 108.5l24 150q-12 65 -64.5 109.5t-125.5 44.5q-94 0 -166 -60.5t-88 -164.5z" />
    <glyph glyph-name="Cacute" unicode="&#x106;" horiz-adv-x="649" 
d="M63 355q18 114 86 197t153.5 120.5t175.5 37.5q109 0 184 -48l-4 -25q-70 49 -178 49q-63 0 -125.5 -20.5t-118 -60.5t-96 -105.5t-53.5 -148.5q-13 -81 6 -147t62 -106.5t98.5 -62t118.5 -21.5q105 0 200 50l-4 -26q-89 -48 -200 -48q-67 0 -126.5 23.5t-105.5 67
t-66.5 115t-6.5 159.5zM486 778h-27l108 133h30z" />
    <glyph glyph-name="cacute" unicode="&#x107;" horiz-adv-x="493" 
d="M41 242q10 63 40.5 112.5t73.5 78t89 43t93 14.5q85 0 137 -40l-4 -23q-49 41 -132 41q-94 0 -174 -58t-99 -171q-18 -108 39.5 -167.5t152.5 -59.5q86 0 158 40l-3 -25q-70 -37 -158 -37q-104 0 -167.5 65t-45.5 187zM335 558h-27l108 133h30z" />
    <glyph glyph-name="Cdotaccent" unicode="&#x10a;" horiz-adv-x="649" 
d="M63 355q18 114 86 197t153.5 120.5t175.5 37.5q109 0 184 -48l-4 -25q-70 49 -178 49q-63 0 -125.5 -20.5t-118 -60.5t-96 -105.5t-53.5 -148.5q-13 -81 6 -147t62 -106.5t98.5 -62t118.5 -21.5q105 0 200 50l-4 -26q-89 -48 -200 -48q-67 0 -126.5 23.5t-105.5 67
t-66.5 115t-6.5 159.5zM522 816q-5 -26 -31 -26q-12 0 -19.5 8t-5.5 21q2 11 10.5 18.5t19.5 7.5q13 0 20.5 -8t5.5 -21z" />
    <glyph glyph-name="cdotaccent" unicode="&#x10b;" horiz-adv-x="493" 
d="M41 242q10 63 40.5 112.5t73.5 78t89 43t93 14.5q85 0 137 -40l-4 -23q-49 41 -132 41q-94 0 -174 -58t-99 -171q-18 -108 39.5 -167.5t152.5 -59.5q86 0 158 40l-3 -25q-70 -37 -158 -37q-104 0 -167.5 65t-45.5 187zM371 596q-5 -26 -31 -26q-12 0 -19.5 8t-5.5 21
q2 11 10.5 18.5t19.5 7.5q13 0 20.5 -8t5.5 -21z" />
    <glyph glyph-name="Ccaron" unicode="&#x10c;" horiz-adv-x="649" 
d="M63 355q18 114 86 197t153.5 120.5t175.5 37.5q109 0 184 -48l-4 -25q-70 49 -178 49q-63 0 -125.5 -20.5t-118 -60.5t-96 -105.5t-53.5 -148.5q-13 -81 6 -147t62 -106.5t98.5 -62t118.5 -21.5q105 0 200 50l-4 -26q-89 -48 -200 -48q-67 0 -126.5 23.5t-105.5 67
t-66.5 115t-6.5 159.5zM645 893l-147 -125h-20l-107 125h27l92 -106l124 106h31z" />
    <glyph glyph-name="ccaron" unicode="&#x10d;" horiz-adv-x="493" 
d="M41 242q10 63 40.5 112.5t73.5 78t89 43t93 14.5q85 0 137 -40l-4 -23q-49 41 -132 41q-94 0 -174 -58t-99 -171q-18 -108 39.5 -167.5t152.5 -59.5q86 0 158 40l-3 -25q-70 -37 -158 -37q-104 0 -167.5 65t-45.5 187zM494 673l-147 -125h-20l-107 125h27l92 -106
l124 106h31z" />
    <glyph glyph-name="Dcaron" unicode="&#x10e;" horiz-adv-x="730" 
d="M170 700h195q183 0 264 -96.5t56 -255.5q-24 -157 -133 -252.5t-294 -95.5h-199zM661 352q23 147 -51 235.5t-245 88.5h-174l-103 -652h174q171 0 273.5 89t125.5 239zM559 893l-147 -125h-20l-107 125h27l92 -106l124 106h31z" />
    <glyph glyph-name="dcaron" unicode="&#x10f;" horiz-adv-x="613" 
d="M680 700h23l-46 -156h-20zM571 700h24l-111 -700h-22l20 126q-39 -61 -103 -98.5t-137 -37.5q-102 0 -160 71t-40 185q18 112 95 178t180 66q74 0 127 -38.5t72 -100.5zM509 313q-12 67 -63.5 111t-126.5 44q-96 0 -167 -60t-87 -165q-17 -103 35 -167t143 -64
q77 0 143 44.5t100 111.5z" />
    <glyph glyph-name="Dcroat" unicode="&#x110;" horiz-adv-x="731" 
d="M171 700h195q183 0 264 -96.5t56 -255.5q-24 -157 -133 -252.5t-294 -95.5h-199l53 338h-63l3 23h64zM262 24q171 0 273.5 89t125.5 239q23 147 -51 235.5t-245 88.5h-174l-50 -315h259l-3 -23h-259l-50 -314h174z" />
    <glyph glyph-name="dcroat" unicode="&#x111;" horiz-adv-x="613" 
d="M580 611h93l-3 -20h-92l-94 -591h-22l20 126q-39 -61 -103 -98.5t-137 -37.5q-102 0 -160 71t-40 185q18 112 95 178t180 66q74 0 127 -38.5t72 -100.5l38 240h-187l2 20h188l14 89h24zM243 12q77 0 143 44.5t100 111.5l23 145q-12 67 -63.5 111t-126.5 44
q-96 0 -167 -60t-87 -165q-17 -103 35 -167t143 -64z" />
    <glyph glyph-name="Emacron" unicode="&#x112;" horiz-adv-x="626" 
d="M170 700h455l-4 -24h-430l-49 -312h400l-4 -24h-400l-50 -316h436l-4 -24h-461zM295 834h252l-3 -23h-252z" />
    <glyph glyph-name="emacron" unicode="&#x113;" horiz-adv-x="542" 
d="M41 241q18 115 95 182t173 67q50 0 88 -16.5t59.5 -44t32.5 -62.5t9.5 -71t-12.5 -71h-423q-14 -105 48 -159t156 -54q89 0 164 39l-5 -25q-66 -36 -161 -36q-106 0 -175 64t-49 187zM468 247q12 35 7 74t-20.5 71.5t-53.5 54t-91 21.5q-87 0 -156 -59t-88 -162h402z
M210 614h252l-3 -23h-252z" />
    <glyph glyph-name="Edotaccent" unicode="&#x116;" horiz-adv-x="626" 
d="M170 700h455l-4 -24h-430l-49 -312h400l-4 -24h-400l-50 -316h436l-4 -24h-461zM443 816q-5 -26 -31 -26q-12 0 -19.5 8t-5.5 21q2 11 10.5 18.5t19.5 7.5q13 0 20.5 -8t5.5 -21z" />
    <glyph glyph-name="edotaccent" unicode="&#x117;" horiz-adv-x="542" 
d="M41 241q18 115 95 182t173 67q50 0 88 -16.5t59.5 -44t32.5 -62.5t9.5 -71t-12.5 -71h-423q-14 -105 48 -159t156 -54q89 0 164 39l-5 -25q-66 -36 -161 -36q-106 0 -175 64t-49 187zM468 247q12 35 7 74t-20.5 71.5t-53.5 54t-91 21.5q-87 0 -156 -59t-88 -162h402z
M358 596q-5 -26 -31 -26q-12 0 -19.5 8t-5.5 21q2 11 10.5 18.5t19.5 7.5q13 0 20.5 -8t5.5 -21z" />
    <glyph glyph-name="Eogonek" unicode="&#x118;" horiz-adv-x="626" 
d="M486 -197l-3 -22q-28 -11 -59 -11q-39 0 -58.5 21.5t-13.5 57.5q10 71 133 151h-426l111 700h455l-4 -24h-430l-49 -312h400l-4 -24h-400l-50 -316h436l-4 -24q-135 -85 -145 -150q-5 -27 9.5 -43t42.5 -16q31 0 59 12z" />
    <glyph glyph-name="eogonek" unicode="&#x119;" horiz-adv-x="542" 
d="M377 -211q-35 -19 -78 -19q-42 -1 -62 21t-14 58q9 68 141 155q-44 -14 -99 -14q-106 0 -175 64t-49 187q18 115 95 182t173 67q50 0 88 -16.5t59.5 -44t32.5 -62.5t9.5 -71t-12.5 -71h-423q-14 -105 48 -159t156 -54q89 0 164 39l-5 -25q-87 -57 -130.5 -98.5
t-49.5 -78.5q-4 -27 10.5 -43t45.5 -15q38 0 78 20zM310 468q-87 0 -156 -59t-88 -162h402q12 35 7 74t-20.5 71.5t-53.5 54t-91 21.5z" />
    <glyph glyph-name="Ecaron" unicode="&#x11a;" horiz-adv-x="626" 
d="M170 700h455l-4 -24h-430l-49 -312h400l-4 -24h-400l-50 -316h436l-4 -24h-461zM566 893l-147 -125h-20l-107 125h27l92 -106l124 106h31z" />
    <glyph glyph-name="ecaron" unicode="&#x11b;" horiz-adv-x="542" 
d="M41 241q18 115 95 182t173 67q50 0 88 -16.5t59.5 -44t32.5 -62.5t9.5 -71t-12.5 -71h-423q-14 -105 48 -159t156 -54q89 0 164 39l-5 -25q-66 -36 -161 -36q-106 0 -175 64t-49 187zM468 247q12 35 7 74t-20.5 71.5t-53.5 54t-91 21.5q-87 0 -156 -59t-88 -162h402z
M481 673l-147 -125h-20l-107 125h27l92 -106l124 106h31z" />
    <glyph glyph-name="Gbreve" unicode="&#x11e;" horiz-adv-x="710" 
d="M64 362q12 73 43 132.5t73.5 99t95 66.5t105.5 38.5t107 11.5q111 0 195 -46l-3 -24q-77 46 -191 46q-65 0 -128 -18.5t-120 -55.5t-98 -102.5t-55 -151.5t6 -153.5t64.5 -108t102.5 -61.5t124 -21q109 0 196 42l49 309h25l-52 -328q-102 -47 -219 -47q-71 0 -133.5 22.5
t-110.5 66.5t-69.5 117t-6.5 166zM620 824q-56 -41 -127 -41q-79 0 -121 41l4 26q45 -44 117 -44t131 44z" />
    <glyph glyph-name="gbreve" unicode="&#x11f;" horiz-adv-x="613" 
d="M483 -1q-19 -118 -98.5 -173.5t-185.5 -55.5q-104 0 -176 46l4 24q73 -48 170 -48q99 0 172 50.5t90 158.5l20 122q-38 -59 -102 -96t-136 -37q-104 0 -161 70.5t-39 185.5q18 112 95 178t181 66q74 0 126 -38.5t73 -102.5l20 131h23zM64 243q-17 -104 33.5 -167.5
t144.5 -63.5q77 0 143 43.5t100 110.5l23 147q-12 67 -63.5 111t-126.5 44q-95 0 -166.5 -60t-87.5 -165zM466 604q-56 -41 -127 -41q-79 0 -121 41l4 26q45 -44 117 -44t131 44z" />
    <glyph glyph-name="Gdotaccent" unicode="&#x120;" horiz-adv-x="710" 
d="M64 362q12 73 43 132.5t73.5 99t95 66.5t105.5 38.5t107 11.5q111 0 195 -46l-3 -24q-77 46 -191 46q-65 0 -128 -18.5t-120 -55.5t-98 -102.5t-55 -151.5t6 -153.5t64.5 -108t102.5 -61.5t124 -21q109 0 196 42l49 309h25l-52 -328q-102 -47 -219 -47q-71 0 -133.5 22.5
t-110.5 66.5t-69.5 117t-6.5 166zM524 816q-5 -26 -31 -26q-12 0 -19.5 8t-5.5 21q2 11 10.5 18.5t19.5 7.5q13 0 20.5 -8t5.5 -21z" />
    <glyph glyph-name="gdotaccent" unicode="&#x121;" horiz-adv-x="613" 
d="M483 -1q-19 -118 -98.5 -173.5t-185.5 -55.5q-104 0 -176 46l4 24q73 -48 170 -48q99 0 172 50.5t90 158.5l20 122q-38 -59 -102 -96t-136 -37q-104 0 -161 70.5t-39 185.5q18 112 95 178t181 66q74 0 126 -38.5t73 -102.5l20 131h23zM64 243q-17 -104 33.5 -167.5
t144.5 -63.5q77 0 143 43.5t100 110.5l23 147q-12 67 -63.5 111t-126.5 44q-95 0 -166.5 -60t-87.5 -165zM370 596q-5 -26 -31 -26q-12 0 -19.5 8t-5.5 21q2 11 10.5 18.5t19.5 7.5q13 0 20.5 -8t5.5 -21z" />
    <glyph glyph-name="Gcommaaccent" unicode="&#x122;" horiz-adv-x="710" 
d="M64 362q12 73 43 132.5t73.5 99t95 66.5t105.5 38.5t107 11.5q111 0 195 -46l-3 -24q-77 46 -191 46q-65 0 -128 -18.5t-120 -55.5t-98 -102.5t-55 -151.5t6 -153.5t64.5 -108t102.5 -61.5t124 -21q109 0 196 42l49 309h25l-52 -328q-102 -47 -219 -47q-71 0 -133.5 22.5
t-110.5 66.5t-69.5 117t-6.5 166zM340 -224h-22l47 166h24z" />
    <glyph glyph-name="gcommaaccent" unicode="&#x123;" horiz-adv-x="613" 
d="M330 550h-26l48 152h21zM483 -1q-19 -118 -98.5 -173.5t-185.5 -55.5q-104 0 -176 46l4 24q73 -48 170 -48q99 0 172 50.5t90 158.5l20 122q-38 -59 -102 -96t-136 -37q-104 0 -161 70.5t-39 185.5q18 112 95 178t181 66q74 0 126 -38.5t73 -102.5l20 131h23zM64 243
q-17 -104 33.5 -167.5t144.5 -63.5q77 0 143 43.5t100 110.5l23 147q-12 67 -63.5 111t-126.5 44q-95 0 -166.5 -60t-87.5 -165z" />
    <glyph glyph-name="Hbar" unicode="&#x126;" horiz-adv-x="767" 
d="M85 0h-25l82 520h-78l3 22h79l25 158h25l-25 -158h507l25 158h25l-25 -158h79l-4 -22h-79l-82 -520h-25l54 340h-507zM167 520l-24 -156h507l24 156h-507z" />
    <glyph glyph-name="hbar" unicode="&#x127;" horiz-adv-x="574" 
d="M121 373q40 47 97 82t124 35q80 0 125 -53t31 -142l-47 -295h-24l47 294q13 82 -26 128t-110 46q-67 0 -126.5 -39t-96.5 -91l-53 -338h-24l94 591h-59l2 20h59l15 89h24l-15 -89h221l-3 -20h-220z" />
    <glyph glyph-name="Imacron" unicode="&#x12a;" horiz-adv-x="235" 
d="M170 700h25l-111 -700h-25zM78 834h252l-3 -23h-252z" />
    <glyph glyph-name="imacron" unicode="&#x12b;" horiz-adv-x="200" 
d="M258 593h-220l3 23h220zM66 0h-24l76 480h24z" />
    <glyph glyph-name="Iogonek" unicode="&#x12e;" horiz-adv-x="235" 
d="M84 0q-84 -88 -93 -151q-4 -27 11 -43t46 -16q40 1 78 20l-3 -21q-35 -19 -78 -19q-41 0 -61.5 21.5t-14.5 57.5q8 60 91 157l110 694h25z" />
    <glyph glyph-name="iogonek" unicode="&#x12f;" horiz-adv-x="199" 
d="M132 617q3 18 22 18q21 0 18 -21q-3 -18 -22 -18q-21 0 -18 21zM142 480l-76 -480q-82 -89 -92 -150q-4 -27 11 -43t46 -16q38 0 77 19l-3 -22q-36 -18 -77 -18t-61.5 22t-14.5 58q8 55 91 155l75 475h24z" />
    <glyph glyph-name="Idotaccent" unicode="&#x130;" horiz-adv-x="235" 
d="M170 700h25l-111 -700h-25zM226 816q-5 -26 -31 -26q-12 0 -19.5 8t-5.5 21q2 11 10.5 18.5t19.5 7.5q13 0 20.5 -8t5.5 -21z" />
    <glyph glyph-name="dotlessi" unicode="&#x131;" horiz-adv-x="200" 
d="M66 0h-24l76 480h24z" />
    <glyph glyph-name="IJ" unicode="&#x132;" horiz-adv-x="759" 
d="M170 700h25l-111 -700h-25zM470 700h256l-81 -515q-15 -98 -78.5 -146.5t-163.5 -48.5q-109 0 -174 43l4 25q64 -44 167 -44q192 0 220 173l78 489h-232z" />
    <glyph glyph-name="ij" unicode="&#x133;" horiz-adv-x="399" 
d="M66 0h-24l76 480h24zM171 614q-3 -18 -22 -18q-21 0 -18 21q3 18 22 18q21 0 18 -21zM247 -117q-18 -113 -133 -113q-39 0 -69 12l4 22q27 -12 62 -12q97 0 113 95l93 593h24zM371 614q-3 -18 -22 -18q-21 0 -18 21q3 18 22 18q21 0 18 -21z" />
    <glyph glyph-name="Kcommaaccent" unicode="&#x136;" horiz-adv-x="652" 
d="M656 700h29l-308 -342l225 -358h-28l-218 347h-217l-55 -347h-25l111 700h25l-52 -329h216zM269 -214h-22l47 166h24z" />
    <glyph glyph-name="kcommaaccent" unicode="&#x137;" horiz-adv-x="489" 
d="M459 480h29l-237 -233l188 -247h-28l-181 239h-130l-38 -239h-24l111 700h24l-70 -438h133zM184 -214h-22l47 166h24z" />
    <glyph glyph-name="Lacute" unicode="&#x139;" horiz-adv-x="569" 
d="M170 700h25l-107 -676h428l-4 -24h-453zM208 778h-27l108 133h30z" />
    <glyph glyph-name="lacute" unicode="&#x13a;" horiz-adv-x="199" 
d="M157 730h24l-116 -730h-24zM185 786h-27l108 133h30z" />
    <glyph glyph-name="Lcommaaccent" unicode="&#x13b;" horiz-adv-x="569" 
d="M170 700h25l-107 -676h428l-4 -24h-453zM251 -214h-22l47 166h24z" />
    <glyph glyph-name="lcommaaccent" unicode="&#x13c;" horiz-adv-x="199" 
d="M157 730h24l-116 -730h-24zM2 -214h-22l47 166h24z" />
    <glyph glyph-name="Lcaron" unicode="&#x13d;" horiz-adv-x="569" 
d="M449 700h23l-46 -156h-20zM170 700h25l-107 -676h428l-4 -24h-453z" />
    <glyph glyph-name="lcaron" unicode="&#x13e;" horiz-adv-x="200" 
d="M266 730h23l-46 -156h-20zM158 730h24l-116 -730h-24z" />
    <glyph glyph-name="Ldot" unicode="&#x13f;" horiz-adv-x="576" 
d="M383 332q-1 -9 -8 -14.5t-16 -5.5q-10 0 -16 6.5t-5 17.5q1 9 8.5 14.5t15.5 5.5q24 0 21 -24zM170 700h25l-107 -676h428l-4 -24h-453z" />
    <glyph glyph-name="ldot" unicode="&#x140;" horiz-adv-x="243" 
d="M157 730h24l-116 -730h-24zM252 348q-1 -9 -8.5 -14.5t-15.5 -5.5q-10 0 -16 6.5t-5 17.5q1 9 8 14.5t16 5.5q24 0 21 -24z" />
    <glyph glyph-name="Lslash" unicode="&#x141;" horiz-adv-x="572" 
d="M515 0h-453l47 291l-103 -42l4 22l102 42l61 387h25l-60 -377l259 107l-3 -22l-259 -107l-44 -277h428z" />
    <glyph glyph-name="lslash" unicode="&#x142;" horiz-adv-x="221" 
d="M168 730h24l-55 -341l96 39l-4 -22l-95 -39l-58 -367h-24l57 357l-95 -39l3 22l96 39z" />
    <glyph glyph-name="Nacute" unicode="&#x143;" horiz-adv-x="767" 
d="M84 0h-25l111 700h20l408 -658q1 10 3.5 26t3.5 23l97 609h25l-111 -700h-20l-408 659q-2 -16 -8 -49zM458 778h-27l108 133h30z" />
    <glyph glyph-name="nacute" unicode="&#x144;" horiz-adv-x="574" 
d="M119 371q39 48 97 83.5t127 35.5q80 0 124.5 -53t30.5 -142l-47 -295h-24l47 294q13 82 -26 128t-110 46q-67 0 -126.5 -39t-96.5 -91l-53 -338h-24l76 480h22zM321 558h-27l108 133h30z" />
    <glyph glyph-name="Ncommaaccent" unicode="&#x145;" horiz-adv-x="767" 
d="M84 0h-25l111 700h20l408 -658q1 10 3.5 26t3.5 23l97 609h25l-111 -700h-20l-408 659q-2 -16 -8 -49zM306 -214h-22l47 166h24z" />
    <glyph glyph-name="ncommaaccent" unicode="&#x146;" horiz-adv-x="574" 
d="M119 371q39 48 97 83.5t127 35.5q80 0 124.5 -53t30.5 -142l-47 -295h-24l47 294q13 82 -26 128t-110 46q-67 0 -126.5 -39t-96.5 -91l-53 -338h-24l76 480h22zM206 -214h-22l47 166h24z" />
    <glyph glyph-name="Ncaron" unicode="&#x147;" horiz-adv-x="767" 
d="M84 0h-25l111 700h20l408 -658q1 10 3.5 26t3.5 23l97 609h25l-111 -700h-20l-408 659q-2 -16 -8 -49zM617 893l-147 -125h-20l-107 125h27l92 -106l124 106h31z" />
    <glyph glyph-name="ncaron" unicode="&#x148;" horiz-adv-x="574" 
d="M119 371q39 48 97 83.5t127 35.5q80 0 124.5 -53t30.5 -142l-47 -295h-24l47 294q13 82 -26 128t-110 46q-67 0 -126.5 -39t-96.5 -91l-53 -338h-24l76 480h22zM480 673l-147 -125h-20l-107 125h27l92 -106l124 106h31z" />
    <glyph glyph-name="Eng" unicode="&#x14a;" horiz-adv-x="767" 
d="M598 -115q-19 -115 -134 -115q-38 0 -69 11l4 23q26 -10 61 -10q99 0 113 94l19 118l-404 653q-2 -16 -8 -49l-96 -610h-25l111 700h20l408 -658q1 10 3.5 26t3.5 23l97 609h25z" />
    <glyph glyph-name="eng" unicode="&#x14b;" horiz-adv-x="575" 
d="M433 -117q-18 -113 -133 -113q-39 0 -69 11l4 23q27 -12 63 -12q96 0 111 95l65 407q13 82 -26 128t-110 46q-67 0 -126.5 -39t-96.5 -91l-53 -338h-24l76 480h22l-17 -109q39 48 97 83.5t127 35.5q80 0 124.5 -53t30.5 -142z" />
    <glyph glyph-name="Omacron" unicode="&#x14c;" horiz-adv-x="825" 
d="M783 348q-11 -67 -44.5 -130t-85 -114.5t-126.5 -82.5t-161 -31t-151.5 32t-101 84t-49 115.5t-3.5 130.5q11 66 44.5 129.5t85.5 114.5t127 82.5t160 31.5q86 0 151.5 -32t101 -84t49 -115.5t3.5 -130.5zM86 349q-10 -62 2 -120.5t44.5 -107t93 -78t141.5 -29.5
q157 0 263.5 102t127.5 235q10 62 -2 120.5t-44.5 107t-93 78t-141.5 29.5q-80 0 -151 -29.5t-119.5 -78t-79.5 -108t-41 -121.5zM374 834h252l-3 -23h-252z" />
    <glyph glyph-name="omacron" unicode="&#x14d;" horiz-adv-x="592" 
d="M535 234q-18 -114 -100.5 -179t-184.5 -65q-99 0 -163 70.5t-46 185.5q18 114 101 179t185 65q99 0 163 -70.5t45 -185.5zM65 242q-17 -103 39.5 -166t145.5 -63q95 0 170 60t91 165q17 103 -39.5 166t-145.5 63q-95 0 -170 -60t-91 -165zM223 606h252l-3 -23h-252z" />
    <glyph glyph-name="Ohungarumlaut" unicode="&#x150;" horiz-adv-x="825" 
d="M783 348q-11 -67 -44.5 -130t-85 -114.5t-126.5 -82.5t-161 -31t-151.5 32t-101 84t-49 115.5t-3.5 130.5q11 66 44.5 129.5t85.5 114.5t127 82.5t160 31.5q86 0 151.5 -32t101 -84t49 -115.5t3.5 -130.5zM86 349q-10 -62 2 -120.5t44.5 -107t93 -78t141.5 -29.5
q157 0 263.5 102t127.5 235q10 62 -2 120.5t-44.5 107t-93 78t-141.5 29.5q-80 0 -151 -29.5t-119.5 -78t-79.5 -108t-41 -121.5zM578 778h-27l98 142h28zM426 778h-27l98 142h28z" />
    <glyph glyph-name="ohungarumlaut" unicode="&#x151;" horiz-adv-x="592" 
d="M535 234q-18 -114 -100.5 -179t-184.5 -65q-99 0 -163 70.5t-46 185.5q18 114 101 179t185 65q99 0 163 -70.5t45 -185.5zM65 242q-17 -103 39.5 -166t145.5 -63q95 0 170 60t91 165q17 103 -39.5 166t-145.5 63q-95 0 -170 -60t-91 -165zM427 550h-27l98 142h28z
M275 550h-27l98 142h28z" />
    <glyph glyph-name="OE" unicode="&#x152;" horiz-adv-x="1022" 
d="M488 0q-46 -10 -119 -10q-87 0 -153 32t-102 85t-49.5 117.5t-2.5 132.5q10 66 44 128t85.5 112.5t126 81.5t157.5 31q75 0 121 -10h427l-4 -24h-400l-49 -312h371l-5 -24h-370l-50 -316h407l-5 -24h-430zM87 353q-10 -64 2 -123.5t45 -108t94 -78t142 -29.5q76 0 121 11
l103 651q-41 10 -120 10t-149 -29t-118 -77t-79 -106.5t-41 -120.5z" />
    <glyph glyph-name="oe" unicode="&#x153;" horiz-adv-x="992" 
d="M503 168q-34 -86 -102 -132t-156 -46q-96 0 -159 71t-45 186q18 113 100 178t180 65q80 0 137 -48.5t66 -133.5q30 86 95.5 134t142.5 48q50 0 87.5 -16.5t58.5 -44t31.5 -63t8.5 -72.5t-13 -73h-411q-14 -102 47 -155.5t149 -53.5q85 0 160 39l-5 -25q-67 -36 -158 -36
q-82 0 -144.5 45t-69.5 133zM65 243q-16 -103 39 -166.5t141 -63.5q99 0 169 59.5t87 166.5q17 103 -37 165.5t-144 62.5q-91 0 -165 -60t-90 -164zM763 468q-84 0 -150.5 -59.5t-85.5 -165.5h390q12 37 7.5 77t-19 73t-52 54t-90.5 21z" />
    <glyph glyph-name="Racute" unicode="&#x154;" horiz-adv-x="682" 
d="M84 0h-25l111 700h259q46 0 86.5 -11t74.5 -34t49.5 -64.5t6.5 -95.5q-15 -97 -87.5 -146t-166.5 -54l220 -295h-29l-220 294h-233zM191 676l-56 -358h238q41 0 80 9.5t75 29.5t61 56.5t33 85.5q8 48 -5.5 83.5t-43.5 55t-66 29t-77 9.5h-239zM408 778h-27l108 133h30z
" />
    <glyph glyph-name="racute" unicode="&#x155;" horiz-adv-x="338" 
d="M113 333q35 68 98.5 113t145.5 44l-4 -24q-83 2 -149.5 -52t-96.5 -128l-45 -286h-24l76 480h22zM241 558h-27l108 133h30z" />
    <glyph glyph-name="Rcommaaccent" unicode="&#x156;" horiz-adv-x="682" 
d="M84 0h-25l111 700h259q46 0 86.5 -11t74.5 -34t49.5 -64.5t6.5 -95.5q-15 -97 -87.5 -146t-166.5 -54l220 -295h-29l-220 294h-233zM191 676l-56 -358h238q41 0 80 9.5t75 29.5t61 56.5t33 85.5q8 48 -5.5 83.5t-43.5 55t-66 29t-77 9.5h-239zM285 -214h-22l47 166h24z
" />
    <glyph glyph-name="rcommaaccent" unicode="&#x157;" horiz-adv-x="338" 
d="M113 333q35 68 98.5 113t145.5 44l-4 -24q-83 2 -149.5 -52t-96.5 -128l-45 -286h-24l76 480h22zM6 -214h-22l47 166h24z" />
    <glyph glyph-name="Rcaron" unicode="&#x158;" horiz-adv-x="682" 
d="M84 0h-25l111 700h259q46 0 86.5 -11t74.5 -34t49.5 -64.5t6.5 -95.5q-15 -97 -87.5 -146t-166.5 -54l220 -295h-29l-220 294h-233zM191 676l-56 -358h238q41 0 80 9.5t75 29.5t61 56.5t33 85.5q8 48 -5.5 83.5t-43.5 55t-66 29t-77 9.5h-239zM567 893l-147 -125h-20
l-107 125h27l92 -106l124 106h31z" />
    <glyph glyph-name="rcaron" unicode="&#x159;" horiz-adv-x="338" 
d="M113 333q35 68 98.5 113t145.5 44l-4 -24q-83 2 -149.5 -52t-96.5 -128l-45 -286h-24l76 480h22zM400 673l-147 -125h-20l-107 125h27l92 -106l124 106h31z" />
    <glyph glyph-name="Sacute" unicode="&#x15a;" horiz-adv-x="566" 
d="M99 547q9 56 50 94t92 53.5t108 15.5q112 0 192 -49l-4 -24q-77 51 -187 49q-85 0 -149.5 -34.5t-76.5 -107.5q-6 -39 8 -69t42 -48.5t65 -35t76 -29t76 -31t64.5 -39.5t41.5 -56t7 -80q-9 -58 -48.5 -97t-92 -54.5t-115.5 -14.5q-135 0 -230 58l3 24q99 -58 226 -58
q59 0 106 13t82.5 46.5t43.5 84.5q7 47 -12 81.5t-54.5 55t-80 37.5l-89 34t-80 38.5t-54 57.5t-10.5 85zM339 778h-27l108 133h30z" />
    <glyph glyph-name="sacute" unicode="&#x15b;" horiz-adv-x="455" 
d="M61 371q10 60 65 89.5t126 29.5q95 0 157 -42l-3 -22q-60 42 -154 42q-63 0 -111 -25t-56 -75q-7 -43 24.5 -69t80 -38.5t96.5 -26.5t78.5 -44t22.5 -79q-9 -61 -64.5 -91t-131.5 -30q-49 0 -98.5 13.5t-78.5 35.5l4 23q31 -22 78.5 -36t93.5 -14q68 0 116.5 25.5
t56.5 75.5q7 43 -24 68.5t-79.5 38t-96.5 26.5t-78.5 44.5t-23.5 80.5zM258 558h-27l108 133h30z" />
    <glyph glyph-name="Scedilla" unicode="&#x15e;" horiz-adv-x="566" 
d="M340 -157q-4 -33 -34.5 -53t-83.5 -20q-59 0 -101 22l3 21q42 -22 96 -22q92 0 99 55q5 33 -34.5 43.5t-86.5 -4.5l42 105q-130 2 -222 58l3 24q99 -58 226 -58q59 0 106 13t82.5 46.5t43.5 84.5q7 47 -12 81.5t-54.5 55t-80 37.5l-89 34t-80 38.5t-54 57.5t-10.5 85
q9 56 50 94t92 53.5t108 15.5q112 0 192 -49l-4 -24q-77 51 -187 49q-85 0 -149.5 -34.5t-76.5 -107.5q-6 -39 8 -69t42 -48.5t65 -35t76 -29t76 -31t64.5 -39.5t41.5 -56t7 -80q-13 -82 -80.5 -123t-161.5 -43l-35 -85q46 11 82.5 -5.5t30.5 -56.5z" />
    <glyph glyph-name="scedilla" unicode="&#x15f;" horiz-adv-x="455" 
d="M280 -157q-5 -33 -35.5 -53t-83.5 -20q-57 0 -101 22l4 21q41 -22 95 -22q92 0 99 55q5 32 -34 43.5t-86 -4.5l41 105q-47 2 -92 15t-73 34l4 23q31 -22 78.5 -36t93.5 -14q68 0 116.5 25.5t56.5 75.5q7 43 -24 68.5t-79.5 38t-96.5 26.5t-78.5 44.5t-23.5 80.5
q10 60 65 89.5t126 29.5q95 0 157 -42l-3 -22q-60 42 -154 42q-63 0 -111 -25t-56 -75q-7 -43 24.5 -69t80 -38.5t96.5 -26.5t78.5 -44t22.5 -79q-9 -59 -61.5 -89t-124.5 -32l-35 -85q46 11 82.5 -5.5t31.5 -56.5z" />
    <glyph glyph-name="Scaron" unicode="&#x160;" horiz-adv-x="566" 
d="M99 547q9 56 50 94t92 53.5t108 15.5q112 0 192 -49l-4 -24q-77 51 -187 49q-85 0 -149.5 -34.5t-76.5 -107.5q-6 -39 8 -69t42 -48.5t65 -35t76 -29t76 -31t64.5 -39.5t41.5 -56t7 -80q-9 -58 -48.5 -97t-92 -54.5t-115.5 -14.5q-135 0 -230 58l3 24q99 -58 226 -58
q59 0 106 13t82.5 46.5t43.5 84.5q7 47 -12 81.5t-54.5 55t-80 37.5l-89 34t-80 38.5t-54 57.5t-10.5 85zM498 893l-147 -125h-20l-107 125h27l92 -106l124 106h31z" />
    <glyph glyph-name="scaron" unicode="&#x161;" horiz-adv-x="455" 
d="M61 371q10 60 65 89.5t126 29.5q95 0 157 -42l-3 -22q-60 42 -154 42q-63 0 -111 -25t-56 -75q-7 -43 24.5 -69t80 -38.5t96.5 -26.5t78.5 -44t22.5 -79q-9 -61 -64.5 -91t-131.5 -30q-49 0 -98.5 13.5t-78.5 35.5l4 23q31 -22 78.5 -36t93.5 -14q68 0 116.5 25.5
t56.5 75.5q7 43 -24 68.5t-79.5 38t-96.5 26.5t-78.5 44.5t-23.5 80.5zM417 673l-147 -125h-20l-107 125h27l92 -106l124 106h31z" />
    <glyph glyph-name="Tcommaaccent" unicode="&#x162;" horiz-adv-x="588" 
d="M77 700h563l-4 -24h-269l-107 -676h-25l107 676h-269zM204 -214h-22l47 166h24z" />
    <glyph glyph-name="tcommaaccent" unicode="&#x163;" horiz-adv-x="356" 
d="M154 637l25 9l-26 -166h215l-4 -23h-214l-52 -324q-10 -59 16.5 -90t84.5 -31q60 0 108 25l-3 -23q-42 -24 -109 -24q-65 0 -98.5 37t-22.5 105l52 325h-90l3 23h90zM154 -214h-22l47 166h24z" />
    <glyph glyph-name="Tcaron" unicode="&#x164;" horiz-adv-x="588" 
d="M77 700h563l-4 -24h-269l-107 -676h-25l107 676h-269zM528 893l-147 -125h-20l-107 125h27l92 -106l124 106h31z" />
    <glyph glyph-name="tcaron" unicode="&#x165;" horiz-adv-x="356" 
d="M307 715h23l-46 -154h-20zM154 637l25 9l-26 -166h215l-4 -23h-214l-52 -324q-10 -59 16.5 -90t84.5 -31q60 0 108 25l-3 -23q-42 -24 -109 -24q-65 0 -98.5 37t-22.5 105l52 325h-90l3 23h90z" />
    <glyph glyph-name="Tbar" unicode="&#x166;" horiz-adv-x="601" 
d="M266 0h-25l55 347h-140l4 22h140l48 307h-269l4 24h563l-4 -24h-269l-48 -307h140l-4 -22h-140z" />
    <glyph glyph-name="tbar" unicode="&#x167;" horiz-adv-x="356" 
d="M369 480l-4 -23h-214l-24 -149h167l-3 -22h-168l-24 -153q-10 -59 16.5 -90t84.5 -31q60 0 108 25l-3 -23q-42 -24 -109 -24q-65 0 -98.5 37t-22.5 105l24 154h-57l4 22h57l24 149h-90l3 23h90l25 157l25 9l-26 -166h215z" />
    <glyph glyph-name="Umacron" unicode="&#x16a;" horiz-adv-x="749" 
d="M693 700h25l-73 -460q-39 -250 -315 -250q-127 0 -194.5 60t-46.5 191l72 459h25l-73 -459q-36 -227 216 -227q256 0 292 228zM333 834h252l-3 -23h-252z" />
    <glyph glyph-name="umacron" unicode="&#x16b;" horiz-adv-x="575" 
d="M497 480h24l-76 -480h-22l17 109q-36 -47 -95 -83t-126 -36q-81 0 -126.5 53t-31.5 143l47 294h24l-47 -294q-12 -82 26 -128t109 -46q69 0 128 39t95 92zM208 614h252l-3 -23h-252z" />
    <glyph glyph-name="Uring" unicode="&#x16e;" horiz-adv-x="749" 
d="M693 700h25l-73 -460q-39 -250 -315 -250q-127 0 -194.5 60t-46.5 191l72 459h25l-73 -459q-36 -227 216 -227q256 0 292 228zM543 838q-6 -36 -33.5 -58t-61.5 -22q-35 0 -57.5 23.5t-15.5 60.5q5 35 33.5 57.5t61.5 22.5q35 0 57.5 -23.5t15.5 -60.5zM394 839
q-4 -27 12 -44.5t41 -17.5q28 0 50 17t27 46q4 27 -12 45t-41 18q-27 0 -49.5 -17.5t-27.5 -46.5z" />
    <glyph glyph-name="uring" unicode="&#x16f;" horiz-adv-x="575" 
d="M497 480h24l-76 -480h-22l17 109q-36 -47 -95 -83t-126 -36q-81 0 -126.5 53t-31.5 143l47 294h24l-47 -294q-12 -82 26 -128t109 -46q69 0 128 39t95 92zM418 618q-6 -36 -33.5 -58t-61.5 -22q-35 0 -57.5 23.5t-15.5 60.5q5 35 33.5 57.5t61.5 22.5q35 0 57.5 -23.5
t15.5 -60.5zM269 619q-4 -27 12 -44.5t41 -17.5q28 0 50 17t27 46q4 27 -12 45t-41 18q-27 0 -49.5 -17.5t-27.5 -46.5z" />
    <glyph glyph-name="Uhungarumlaut" unicode="&#x170;" horiz-adv-x="749" 
d="M693 700h25l-73 -460q-39 -250 -315 -250q-127 0 -194.5 60t-46.5 191l72 459h25l-73 -459q-36 -227 216 -227q256 0 292 228zM537 778h-27l98 142h28zM385 778h-27l98 142h28z" />
    <glyph glyph-name="uhungarumlaut" unicode="&#x171;" horiz-adv-x="575" 
d="M497 480h24l-76 -480h-22l17 109q-36 -47 -95 -83t-126 -36q-81 0 -126.5 53t-31.5 143l47 294h24l-47 -294q-12 -82 26 -128t109 -46q69 0 128 39t95 92zM412 558h-27l98 142h28zM260 558h-27l98 142h28z" />
    <glyph glyph-name="Uogonek" unicode="&#x172;" horiz-adv-x="749" 
d="M621 242l72 458h25l-73 -460q-19 -129 -107 -193q-148 -107 -161 -194q-4 -28 11 -45t47 -16q41 1 75 20l-3 -25q-34 -17 -76 -17q-43 0 -64 23t-15 60q12 74 111 158q-49 -21 -133 -21q-127 0 -194.5 60t-46.5 191l72 459h25l-73 -459q-36 -227 216 -227q256 0 292 228z
" />
    <glyph glyph-name="uogonek" unicode="&#x173;" horiz-adv-x="575" 
d="M521 480l-76 -480q-127 -84 -138 -151q-4 -27 9.5 -42.5t39.5 -15.5t53 9l-3 -22q-27 -8 -54 -8q-36 0 -55 21.5t-13 57.5q11 71 140 160l16 100q-36 -47 -95 -83t-126 -36q-81 0 -126.5 53t-31.5 143l47 294h24l-47 -294q-12 -82 26 -128t109 -46q69 0 128 39t95 92
l54 337h24z" />
    <glyph glyph-name="Wcircumflex" unicode="&#x174;" horiz-adv-x="983" 
d="M996 700h26l-334 -700h-27l-109 649l-319 -649h-28l-113 700h25l107 -666l323 658h22l110 -655zM579 903h21l107 -125h-27l-91 106l-125 -106h-30z" />
    <glyph glyph-name="wcircumflex" unicode="&#x175;" horiz-adv-x="796" 
d="M774 480h26l-261 -480h-23l-92 440l-235 -440h-24l-108 480h24l101 -446l234 438h23l92 -439zM448 683h21l107 -125h-27l-91 106l-125 -106h-30z" />
    <glyph glyph-name="Ycircumflex" unicode="&#x176;" horiz-adv-x="624" 
d="M278 0h-25l45 284l-209 416h26l198 -391l322 391h30l-342 -416zM395 903h21l107 -125h-27l-91 106l-125 -106h-30z" />
    <glyph glyph-name="ycircumflex" unicode="&#x177;" horiz-adv-x="530" 
d="M235 25l275 455h27l-344 -568q-48 -78 -88.5 -110t-88.5 -32q-25 0 -49 6l3 21q20 -5 44 -5q44 0 81 31t78 100l47 77l-173 480h25zM304 683h21l107 -125h-27l-91 106l-125 -106h-30z" />
    <glyph glyph-name="Ydieresis" unicode="&#x178;" horiz-adv-x="624" 
d="M278 0h-25l45 284l-209 416h26l198 -391l322 391h30l-342 -416zM517 834q-4 -22 -25 -22q-10 0 -16 7.5t-4 17.5q1 8 8.5 14.5t15.5 6.5q11 0 17 -7t4 -17zM317 834q-4 -22 -25 -22q-10 0 -16 7.5t-4 17.5q1 8 8.5 14.5t15.5 6.5q11 0 17 -7t4 -17z" />
    <glyph glyph-name="Zacute" unicode="&#x179;" horiz-adv-x="566" 
d="M492 0h-515l3 22l579 654h-456l5 24h488l-3 -22l-580 -654h483zM368 778h-27l108 133h30z" />
    <glyph glyph-name="zacute" unicode="&#x17a;" horiz-adv-x="439" 
d="M72 480h357l-4 -19l-407 -439h349l-4 -22h-381l3 19l408 439h-324zM261 558h-27l108 133h30z" />
    <glyph glyph-name="Zdotaccent" unicode="&#x17b;" horiz-adv-x="566" 
d="M492 0h-515l3 22l579 654h-456l5 24h488l-3 -22l-580 -654h483zM404 816q-5 -26 -31 -26q-12 0 -19.5 8t-5.5 21q2 11 10.5 18.5t19.5 7.5q13 0 20.5 -8t5.5 -21z" />
    <glyph glyph-name="zdotaccent" unicode="&#x17c;" horiz-adv-x="439" 
d="M72 480h357l-4 -19l-407 -439h349l-4 -22h-381l3 19l408 439h-324zM297 596q-5 -26 -31 -26q-12 0 -19.5 8t-5.5 21q2 11 10.5 18.5t19.5 7.5q13 0 20.5 -8t5.5 -21z" />
    <glyph glyph-name="Zcaron" unicode="&#x17d;" horiz-adv-x="566" 
d="M492 0h-515l3 22l579 654h-456l5 24h488l-3 -22l-580 -654h483zM527 893l-147 -125h-20l-107 125h27l92 -106l124 106h31z" />
    <glyph glyph-name="zcaron" unicode="&#x17e;" horiz-adv-x="439" 
d="M72 480h357l-4 -19l-407 -439h349l-4 -22h-381l3 19l408 439h-324zM420 673l-147 -125h-20l-107 125h27l92 -106l124 106h31z" />
    <glyph glyph-name="Scommaaccent" unicode="&#x218;" horiz-adv-x="566" 
d="M99 547q9 56 50 94t92 53.5t108 15.5q112 0 192 -49l-4 -24q-77 51 -187 49q-85 0 -149.5 -34.5t-76.5 -107.5q-6 -39 8 -69t42 -48.5t65 -35t76 -29t76 -31t64.5 -39.5t41.5 -56t7 -80q-9 -58 -48.5 -97t-92 -54.5t-115.5 -14.5q-135 0 -230 58l3 24q99 -58 226 -58
q59 0 106 13t82.5 46.5t43.5 84.5q7 47 -12 81.5t-54.5 55t-80 37.5l-89 34t-80 38.5t-54 57.5t-10.5 85zM228 -214h-22l47 166h24z" />
    <glyph glyph-name="scommaaccent" unicode="&#x219;" horiz-adv-x="455" 
d="M61 371q10 60 65 89.5t126 29.5q95 0 157 -42l-3 -22q-60 42 -154 42q-63 0 -111 -25t-56 -75q-7 -43 24.5 -69t80 -38.5t96.5 -26.5t78.5 -44t22.5 -79q-9 -61 -64.5 -91t-131.5 -30q-49 0 -98.5 13.5t-78.5 35.5l4 23q31 -22 78.5 -36t93.5 -14q68 0 116.5 25.5
t56.5 75.5q7 43 -24 68.5t-79.5 38t-96.5 26.5t-78.5 44.5t-23.5 80.5zM168 -214h-22l47 166h24z" />
    <glyph glyph-name="uni021A" unicode="&#x21a;" horiz-adv-x="588" 
d="M77 700h563l-4 -24h-269l-107 -676h-25l107 676h-269zM206 -214h-22l47 166h24z" />
    <glyph glyph-name="uni021B" unicode="&#x21b;" horiz-adv-x="356" 
d="M154 637l25 9l-26 -166h215l-4 -23h-214l-52 -324q-10 -59 16.5 -90t84.5 -31q60 0 108 25l-3 -23q-42 -24 -109 -24q-65 0 -98.5 37t-22.5 105l52 325h-90l3 23h90zM154 -214h-22l47 166h24z" />
    <glyph glyph-name="circumflex" unicode="&#x2c6;" horiz-adv-x="258" 
d="M239 903h21l107 -125h-27l-91 106l-125 -106h-30z" />
    <glyph glyph-name="caron" unicode="&#x2c7;" horiz-adv-x="258" 
d="M387 893l-147 -125h-20l-107 125h27l92 -106l124 106h31z" />
    <glyph glyph-name="breve" unicode="&#x2d8;" horiz-adv-x="316" 
d="M392 824q-56 -41 -127 -41q-79 0 -121 41l4 26q45 -44 117 -44t131 44z" />
    <glyph glyph-name="dotaccent" unicode="&#x2d9;" horiz-adv-x="86" 
d="M180 816q-5 -26 -31 -26q-12 0 -19.5 8t-5.5 21q2 11 10.5 18.5t19.5 7.5q13 0 20.5 -8t5.5 -21z" />
    <glyph glyph-name="ring" unicode="&#x2da;" horiz-adv-x="200" 
d="M296 838q-6 -36 -33.5 -58t-61.5 -22q-35 0 -57.5 23.5t-15.5 60.5q5 35 33 57.5t62 22.5q35 0 57.5 -23.5t15.5 -60.5zM147 839q-4 -27 12 -44.5t41 -17.5q28 0 50 17t27 46q4 27 -12 45t-41 18q-27 0 -49.5 -17.5t-27.5 -46.5z" />
    <glyph glyph-name="ogonek" unicode="&#x2db;" horiz-adv-x="203" 
d="M118 7l24 -7q-135 -85 -145 -150q-5 -27 10 -43.5t46 -16.5q38 0 78 20l-3 -22q-38 -19 -78 -19q-42 0 -62 22t-14 58q10 74 144 158z" />
    <glyph glyph-name="tilde" unicode="&#x2dc;" horiz-adv-x="308" 
d="M412 861q-1 -32 -19 -52t-48 -20q-29 0 -82.5 28t-76.5 28q-22 0 -35 -14t-13 -37h-22q0 32 19.5 52.5t47.5 20.5t82.5 -28t77.5 -28q45 0 47 50h22z" />
    <glyph glyph-name="hungarumlaut" unicode="&#x2dd;" horiz-adv-x="299" 
d="M303 778h-27l98 142h28zM151 778h-27l98 142h28z" />
    <glyph glyph-name="uni0326" unicode="&#x326;" horiz-adv-x="85" 
d="M-12 -214h-22l47 166h24z" />
    <glyph glyph-name="uni0401" unicode="&#x401;" horiz-adv-x="625" 
d="M541 834q-4 -22 -25 -22q-10 0 -16 7.5t-4 17.5q1 8 8.5 14.5t15.5 6.5q11 0 17 -7t4 -17zM341 834q-4 -22 -25 -22q-10 0 -16 7.5t-4 17.5q1 8 8.5 14.5t15.5 6.5q11 0 17 -7t4 -17zM170 700h455l-4 -24h-430l-49 -312h400l-4 -24h-400l-50 -316h436l-4 -24h-461z" />
    <glyph glyph-name="uni0410" unicode="&#x410;" horiz-adv-x="706" 
d="M644 0h-26l-65 215h-420l-134 -215h-28l433 700h30zM406 659l-260 -420h401l-127 421q-4 7 -5 17q-2 -5 -9 -18z" />
    <glyph glyph-name="uni0411" unicode="&#x411;" horiz-adv-x="657" 
d="M147 395h195q49 0 87 -4t75.5 -17t60 -34.5t33 -58t2.5 -85.5q-10 -60 -39 -101t-74.5 -60.5t-93 -27t-110.5 -7.5h-224l111 700h458l-4 -24h-433zM88 24h199q58 0 101 6.5t84.5 24t67.5 53.5t35 91q7 44 -2.5 75.5t-29 50t-53.5 29t-67.5 14t-78.5 3.5h-201z" />
    <glyph glyph-name="uni0412" unicode="&#x412;" horiz-adv-x="675" 
d="M170 700h251q105 0 163 -44.5t44 -132.5q-11 -69 -57 -107t-113 -48q31 -5 56.5 -16t49.5 -31t35 -54.5t4 -80.5q-32 -186 -300 -186h-244zM578 192q8 50 -8.5 85t-49.5 50.5t-63.5 21.5t-63.5 6h-253l-52 -331h215q48 0 86 5.5t81 21t71 51.5t37 90zM604 525
q12 78 -38.5 114.5t-148.5 36.5h-226l-47 -297h262q74 0 130 36t68 110z" />
    <glyph glyph-name="uni0413" unicode="&#x413;" horiz-adv-x="580" 
d="M84 0h-25l111 700h450l-4 -24h-425z" />
    <glyph glyph-name="uni0414" unicode="&#x414;" horiz-adv-x="748" 
d="M-29 -177h-24l31 201h72q87 122 148.5 304t90.5 372h406l-107 -676h86l-32 -201h-24l28 177h-648zM311 676q-32 -185 -91.5 -360t-141.5 -292h485l103 652h-355z" />
    <glyph glyph-name="uni0415" unicode="&#x415;" horiz-adv-x="625" 
d="M170 700h455l-4 -24h-430l-49 -312h400l-4 -24h-400l-50 -316h436l-4 -24h-461z" />
    <glyph glyph-name="uni0416" unicode="&#x416;" horiz-adv-x="923" 
d="M922 700h27l-268 -341l187 -359h-26l-181 347h-177l-55 -347h-24l54 347h-173l-291 -347h-30l302 359l-162 341h26l156 -329h177l52 329h24l-52 -329h175z" />
    <glyph glyph-name="uni0417" unicode="&#x417;" horiz-adv-x="602" 
d="M533 186q-8 -52 -38 -91.5t-73 -61.5t-89.5 -32.5t-95.5 -10.5q-142 0 -234 43l4 24q94 -43 229 -43q45 0 88 9.5t82.5 29t66.5 55.5t35 83q7 45 -9.5 78.5t-51 50.5t-74 25t-85.5 8h-130l5 24h127q99 0 165.5 41.5t77.5 112.5q11 75 -45.5 115t-149.5 40
q-120 0 -227 -45l4 24q101 45 226 45q102 0 166.5 -47.5t50.5 -133.5q-10 -67 -64.5 -110t-135.5 -53q84 -10 135.5 -53t39.5 -127z" />
    <glyph glyph-name="uni0418" unicode="&#x418;" horiz-adv-x="767" 
d="M727 700l-111 -700h-25l97 609q1 8 8 48l-615 -657h-22l111 700h25l-98 -613q-4 -27 -7 -43l614 656h23z" />
    <glyph glyph-name="uni0419" unicode="&#x419;" horiz-adv-x="767" 
d="M727 700l-111 -700h-25l97 609q1 8 8 48l-615 -657h-22l111 700h25l-98 -613q-4 -27 -7 -43l614 656h23zM594 824q-56 -41 -127 -41q-79 0 -121 41l4 26q45 -44 117 -44t131 44z" />
    <glyph glyph-name="uni041A" unicode="&#x41a;" horiz-adv-x="652" 
d="M656 700h29l-308 -342l225 -358h-28l-218 347h-217l-55 -347h-25l111 700h25l-52 -329h216z" />
    <glyph glyph-name="uni041B" unicode="&#x41b;" horiz-adv-x="732" 
d="M303 700h389l-111 -700h-25l107 676h-340q-21 -92 -36 -152.5t-36.5 -140t-40 -130.5t-43.5 -105.5t-49.5 -85.5t-55.5 -51.5t-65 -20.5q-29 0 -50 9l3 24q23 -8 44 -8q27 0 51.5 14t46.5 43t41.5 63.5t39 87.5t35 101t33.5 117.5t31 124.5t31 134z" />
    <glyph glyph-name="uni041C" unicode="&#x41c;" horiz-adv-x="900" 
d="M837 700h23l-111 -700h-25l103 651l-381 -454h-18l-240 456l-104 -653h-25l111 700h20l250 -474z" />
    <glyph glyph-name="uni041D" unicode="&#x41d;" horiz-adv-x="767" 
d="M702 700h25l-111 -700h-25l54 340h-507l-54 -340h-25l111 700h25l-53 -336h507z" />
    <glyph glyph-name="uni041E" unicode="&#x41e;" horiz-adv-x="825" 
d="M783 348q-11 -67 -44.5 -130t-85 -114.5t-126.5 -82.5t-161 -31t-151.5 32t-101 84t-49 115.5t-3.5 130.5q11 66 44.5 129.5t85.5 114.5t127 82.5t160 31.5q86 0 151.5 -32t101 -84t49 -115.5t3.5 -130.5zM86 349q-10 -62 2 -120.5t44.5 -107t93 -78t141.5 -29.5
q157 0 263.5 102t127.5 235q10 62 -2 120.5t-44.5 107t-93 78t-141.5 29.5q-80 0 -151 -29.5t-119.5 -78t-79.5 -108t-41 -121.5z" />
    <glyph glyph-name="uni041F" unicode="&#x41f;" horiz-adv-x="748" 
d="M84 0h-25l111 700h538l-111 -700h-25l107 676h-488z" />
    <glyph glyph-name="uni0420" unicode="&#x420;" horiz-adv-x="651" 
d="M170 700h215q61 0 109.5 -10.5t87 -34.5t55.5 -68t7 -106q-35 -215 -325 -215h-193l-42 -266h-25zM620 485q9 54 -6 92.5t-50 59.5t-78 30t-99 9h-196l-61 -386h193q266 0 297 195z" />
    <glyph glyph-name="uni0421" unicode="&#x421;" horiz-adv-x="654" 
d="M63 355q18 114 86 197t153.5 120.5t175.5 37.5q109 0 184 -48l-4 -25q-70 49 -178 49q-63 0 -125.5 -20.5t-118 -60.5t-96 -105.5t-53.5 -148.5q-13 -81 6 -147t62 -106.5t98.5 -62t118.5 -21.5q105 0 200 50l-4 -26q-89 -48 -200 -48q-67 0 -126.5 23.5t-105.5 67
t-66.5 115t-6.5 159.5z" />
    <glyph glyph-name="uni0422" unicode="&#x422;" horiz-adv-x="588" 
d="M77 700h563l-4 -24h-269l-107 -676h-25l107 676h-269z" />
    <glyph glyph-name="uni0423" unicode="&#x423;" horiz-adv-x="617" 
d="M324 159q-64 -97 -118 -133t-114 -36q-41 0 -73 11l4 24q32 -11 66 -11q52 0 98 28.5t99 101.5l15 22l-228 534h27l216 -511l335 511h28z" />
    <glyph glyph-name="uni0424" unicode="&#x424;" horiz-adv-x="843" 
d="M383 -35h-25l15 94q-167 2 -259.5 81.5t-70.5 216.5q21 136 134.5 209t287.5 75l15 94h25l-15 -94q166 -2 258.5 -81t70.5 -216q-21 -136 -134 -209.5t-288 -75.5zM68 354q-19 -126 64 -198t245 -74l85 536q-166 -2 -270 -70t-124 -194zM486 618l-84 -536q165 2 269 70.5
t124 194.5q20 125 -63.5 197t-245.5 74z" />
    <glyph glyph-name="uni0425" unicode="&#x425;" horiz-adv-x="604" 
d="M-4 0h-32l335 361l-208 339h28l197 -321l299 321h31l-318 -343l219 -357h-27l-209 339z" />
    <glyph glyph-name="uni0426" unicode="&#x426;" horiz-adv-x="762" 
d="M655 -177h-23l28 177h-601l111 700h25l-107 -676h489l107 676h25l-107 -676h85z" />
    <glyph glyph-name="uni0427" unicode="&#x427;" horiz-adv-x="669" 
d="M518 0h-25l47 295q-120 -41 -236 -39q-124 2 -184 61.5t-42 173.5l34 209h24l-33 -211q-17 -105 37.5 -156t168.5 -53q109 -1 235 40l60 380h25z" />
    <glyph glyph-name="uni0428" unicode="&#x428;" horiz-adv-x="1065" 
d="M914 0h-855l111 700h25l-107 -676h390l107 676h25l-107 -676h391l106 676h25z" />
    <glyph glyph-name="uni0429" unicode="&#x429;" horiz-adv-x="1078" 
d="M972 -177h-24l28 177h-917l111 700h25l-107 -676h390l107 676h25l-107 -676h391l106 676h25l-107 -676h86z" />
    <glyph glyph-name="uni042A" unicode="&#x42a;" horiz-adv-x="744" 
d="M368 0h-218l107 676h-188l4 24h213l-43 -266h194q60 0 107.5 -10.5t86 -34.5t55.5 -68t7 -106q-33 -215 -325 -215zM240 410l-61 -386h193q267 0 296 195q17 104 -48 147.5t-185 43.5h-195z" />
    <glyph glyph-name="uni042B" unicode="&#x42b;" horiz-adv-x="831" 
d="M277 0h-218l111 700h25l-42 -266h193q60 0 107.5 -10.5t86 -34.5t55.5 -68t7 -106q-33 -215 -325 -215zM149 410l-61 -386h193q267 0 296 195q17 104 -48 147.5t-185 43.5h-195zM680 0h-25l111 700h25z" />
    <glyph glyph-name="uni042C" unicode="&#x42c;" horiz-adv-x="653" 
d="M277 0h-218l111 700h25l-42 -266h193q60 0 107.5 -10.5t86 -34.5t55.5 -68t7 -106q-33 -215 -325 -215zM149 410l-61 -386h193q267 0 296 195q17 104 -48 147.5t-185 43.5h-195z" />
    <glyph glyph-name="uni042D" unicode="&#x42d;" horiz-adv-x="657" 
d="M108 663q91 47 202 47q63 0 121.5 -23.5t104.5 -67.5t68 -116t8 -160t-54.5 -157.5t-98 -111t-123.5 -63t-136 -21.5q-112 0 -191 49l4 24q82 -49 184 -49q142 0 252 82.5t137 242.5l-409 -1l3 24l409 1q10 78 -11.5 141t-64 102t-96 59.5t-111.5 20.5q-112 0 -202 -49z
" />
    <glyph glyph-name="uni042E" unicode="&#x42e;" horiz-adv-x="1075" 
d="M1032 348q-10 -67 -43.5 -130t-85 -114t-126.5 -82.5t-161 -31.5q-84 0 -148.5 30.5t-100 80.5t-51 111t-7.5 126h-171l-54 -338h-25l111 700h25l-54 -338h172q26 139 139 243.5t276 104.5q86 0 151.5 -32t101 -84t49 -115.5t2.5 -130.5zM336 349q-10 -62 2 -120.5
t44.5 -107t93 -78t141.5 -29.5q157 0 263.5 102t127.5 235q10 62 -2 120.5t-44.5 107t-93 78t-141.5 29.5q-80 0 -151 -29.5t-119.5 -78t-79.5 -108t-41 -121.5z" />
    <glyph glyph-name="uni042F" unicode="&#x42f;" horiz-adv-x="677" 
d="M22 0h-30l266 280q-89 15 -133 68.5t-29 140.5q16 106 98 158.5t200 52.5h243l-111 -700h-24l43 274h-214q-31 0 -46 2zM121 485q-15 -95 44 -141t165 -46h219l60 378h-219q-105 0 -179 -47.5t-90 -143.5z" />
    <glyph glyph-name="uni0430" unicode="&#x430;" horiz-adv-x="613" 
d="M481 124q-39 -60 -102.5 -97t-136.5 -37q-104 0 -161 71t-39 185q18 111 96 177.5t180 66.5q71 0 125 -39t74 -98l20 127h23l-76 -480h-23zM65 243q-17 -104 34 -167.5t144 -63.5q76 0 142 43.5t100 108.5l24 150q-12 65 -64.5 109.5t-125.5 44.5q-94 0 -166 -60.5
t-88 -164.5z" />
    <glyph glyph-name="uni0431" unicode="&#x431;" horiz-adv-x="590" 
d="M530 219q-16 -106 -86 -167.5t-178 -61.5q-114 0 -174 81t-39 213q16 100 71.5 182t128.5 123q63 35 126.5 53t106.5 30t72 38l-4 -27q-28 -24 -70 -35.5t-101 -28t-116 -48.5q-132 -73 -184 -244q40 61 106.5 97t138.5 36q99 0 159 -69t43 -172zM76 279
q-18 -120 35 -193t155 -73q99 0 162.5 56t78.5 153q15 91 -38 153t-144 62q-77 0 -146.5 -42.5t-102.5 -115.5z" />
    <glyph glyph-name="uni0432" unicode="&#x432;" horiz-adv-x="541" 
d="M290 0h-252l76 480h238q67 0 102.5 -33.5t26.5 -91.5q-15 -90 -103 -111q45 -8 69 -38t15 -83q-9 -60 -55 -91.5t-117 -31.5zM99 233l-33 -211h224q60 0 100.5 26t49.5 80q8 55 -22.5 80t-86.5 25h-232zM135 458l-32 -203h218q58 0 93 27t43 75q7 47 -22 74t-87 27h-213z
" />
    <glyph glyph-name="uni0433" unicode="&#x433;" horiz-adv-x="439" 
d="M62 0h-24l76 480h337l-3 -23h-313z" />
    <glyph glyph-name="uni0434" unicode="&#x434;" horiz-adv-x="603" 
d="M-20 -138h-23l25 160h62q65 103 104 207t62 251h323l-72 -458h68l-26 -160h-23l22 138h-500zM230 457q-22 -137 -60 -236.5t-100 -198.5h367l69 435h-276z" />
    <glyph glyph-name="uni0435" unicode="&#x435;" horiz-adv-x="540" 
d="M41 241q18 115 95 182t173 67q50 0 88 -16.5t59.5 -44t32.5 -62.5t9.5 -71t-12.5 -71h-423q-14 -105 48 -159t156 -54q89 0 164 39l-5 -25q-66 -36 -161 -36q-106 0 -175 64t-49 187zM468 247q12 35 7 74t-20.5 71.5t-53.5 54t-91 21.5q-87 0 -156 -59t-88 -162h402z" />
    <glyph glyph-name="uni0436" unicode="&#x436;" horiz-adv-x="706" 
d="M-7 0h-29l258 248l-152 232h25l146 -221h96l35 221h24l-35 -221h95l216 221h27l-226 -233l178 -247h-26l-171 236h-96l-38 -236h-24l38 236h-94z" />
    <glyph glyph-name="uni0437" unicode="&#x437;" horiz-adv-x="471" 
d="M394 124q-11 -69 -72.5 -101.5t-150.5 -32.5q-99 -1 -172 34l4 23q70 -35 166 -35q80 0 135.5 28t65.5 89q8 49 -26 76.5t-80 27.5h-124l4 22h115q58 0 94 27t43 74q8 52 -37 82t-115 30q-88 0 -174 -34l4 24q85 33 172 33q81 -1 132 -37t42 -99q-7 -44 -36.5 -73.5
t-77.5 -37.5q41 -9 68 -41t20 -79z" />
    <glyph glyph-name="uni0438" unicode="&#x438;" horiz-adv-x="584" 
d="M61 0h-23l76 480h24l-70 -442l439 442h23l-76 -480h-24l70 442z" />
    <glyph glyph-name="uni0439" unicode="&#x439;" horiz-adv-x="584" 
d="M468 604q-56 -41 -127 -41q-79 0 -121 41l4 25q45 -44 116 -44q73 0 132 44zM61 0h-23l76 480h24l-70 -442l439 442h23l-76 -480h-24l70 442z" />
    <glyph glyph-name="uni043A" unicode="&#x43a;" horiz-adv-x="494" 
d="M62 0h-24l76 480h24l-35 -218h133l224 218h28l-236 -232l188 -248h-27l-181 239h-132z" />
    <glyph glyph-name="uni043B" unicode="&#x43b;" horiz-adv-x="584" 
d="M233 457q-46 -233 -99 -348t-129 -115q-24 0 -43 8l3 21q14 -7 37 -7q68 0 118 115.5t94 348.5h316l-76 -480h-24l73 457h-270z" />
    <glyph glyph-name="uni043C" unicode="&#x43c;" horiz-adv-x="663" 
d="M62 0h-24l76 480h24l174 -308l269 308h28l-76 -480h-24l71 444l-262 -299h-17l-168 299z" />
    <glyph glyph-name="uni043D" unicode="&#x43d;" horiz-adv-x="576" 
d="M62 0h-24l76 480h24l-36 -229h360l36 229h24l-76 -480h-24l36 229h-360z" />
    <glyph glyph-name="uni043E" unicode="&#x43e;" horiz-adv-x="592" 
d="M535 234q-18 -114 -100.5 -179t-184.5 -65q-99 0 -163 70.5t-46 185.5q18 114 101 179t185 65q99 0 163 -70.5t45 -185.5zM65 242q-17 -103 39.5 -166t145.5 -63q95 0 170 60t91 165q17 103 -39.5 166t-145.5 63q-95 0 -170 -60t-91 -165z" />
    <glyph glyph-name="uni043F" unicode="&#x43f;" horiz-adv-x="576" 
d="M62 0h-24l76 480h408l-76 -480h-24l72 457h-359z" />
    <glyph glyph-name="uni0440" unicode="&#x440;" horiz-adv-x="613" 
d="M116 353q40 61 104 99t136 38q101 0 159.5 -71t40.5 -185q-18 -112 -95 -178t-181 -66q-74 0 -126 38.5t-72 100.5l-55 -349h-24l111 700h22zM532 237q17 103 -35.5 167t-143.5 64q-74 0 -141 -44.5t-101 -111.5l-23 -145q13 -67 64 -111t126 -44q96 0 166.5 60t87.5 165
z" />
    <glyph glyph-name="uni0441" unicode="&#x441;" horiz-adv-x="497" 
d="M41 242q10 63 40.5 112.5t73.5 78t89 43t93 14.5q85 0 137 -40l-4 -23q-49 41 -132 41q-94 0 -174 -58t-99 -171q-18 -108 39.5 -167.5t152.5 -59.5q86 0 158 40l-3 -25q-70 -37 -158 -37q-104 0 -167.5 65t-45.5 187z" />
    <glyph glyph-name="uni0442" unicode="&#x442;" horiz-adv-x="449" 
d="M190 0h-24l72 457h-199l3 23h423l-3 -23h-200z" />
    <glyph glyph-name="uni0443" unicode="&#x443;" horiz-adv-x="530" 
d="M235 25l275 455h27l-344 -568q-48 -78 -88.5 -110t-88.5 -32q-25 0 -49 6l3 21q20 -5 44 -5q44 0 81 31t78 100l47 77l-173 480h25z" />
    <glyph glyph-name="uni0444" unicode="&#x444;" horiz-adv-x="696" 
d="M279 -220h-24l33 210q-123 2 -194.5 70.5t-53.5 185.5q18 115 109 178.5t219 65.5l33 210h24l-33 -210q123 -2 195 -70.5t53 -185.5q-18 -115 -109 -178.5t-219 -65.5zM63 243q-17 -106 47 -167.5t181 -63.5l72 456q-118 -2 -200.5 -60t-99.5 -165zM387 468l-72 -456
q118 2 201 60t100 165q17 106 -47.5 167.5t-181.5 63.5z" />
    <glyph glyph-name="uni0445" unicode="&#x445;" horiz-adv-x="482" 
d="M1 0h-30l249 247l-161 233h28l149 -216l220 216h30l-237 -234l170 -246h-27l-159 229z" />
    <glyph glyph-name="uni0446" unicode="&#x446;" horiz-adv-x="589" 
d="M490 -138h-24l22 138h-450l76 480h24l-72 -457h357l72 457h24l-72 -457h68z" />
    <glyph glyph-name="uni0447" unicode="&#x447;" horiz-adv-x="513" 
d="M383 0h-24l29 185q-81 -32 -171 -32q-88 0 -135 43.5t-33 128.5l24 155h24l-24 -155q-12 -76 28.5 -112.5t120.5 -36.5q87 0 170 32l43 272h24z" />
    <glyph glyph-name="uni0448" unicode="&#x448;" horiz-adv-x="806" 
d="M676 0h-638l76 480h24l-72 -457h283l72 457h24l-72 -457h283l72 457h24z" />
    <glyph glyph-name="uni0449" unicode="&#x449;" horiz-adv-x="822" 
d="M723 -138h-24l22 138h-683l76 480h24l-72 -457h283l72 457h24l-72 -457h283l72 457h24l-72 -457h68z" />
    <glyph glyph-name="uni044A" unicode="&#x44a;" horiz-adv-x="570" 
d="M312 0h-209l73 458h-138l3 22h162l-29 -184h186q78 0 121 -42.5t32 -107.5q-10 -64 -64.5 -105t-136.5 -41zM171 274l-40 -252h182q73 0 120.5 35.5t55.5 92.5q9 55 -27.5 89.5t-106.5 34.5h-184z" />
    <glyph glyph-name="uni044B" unicode="&#x44b;" horiz-adv-x="677" 
d="M246 0h-208l76 480h24l-29 -184h185q78 0 121.5 -42t32.5 -108q-10 -64 -64.5 -105t-137.5 -41zM106 274l-40 -252h182q73 0 120.5 35.5t55.5 92.5q9 55 -27.5 89.5t-106.5 34.5h-184zM547 0h-24l76 480h24z" />
    <glyph glyph-name="uni044C" unicode="&#x44c;" horiz-adv-x="505" 
d="M246 0h-208l76 480h24l-29 -184h185q78 0 121.5 -42t32.5 -108q-10 -64 -64.5 -105t-137.5 -41zM106 274l-40 -252h182q73 0 120.5 35.5t55.5 92.5q9 55 -27.5 89.5t-106.5 34.5h-184z" />
    <glyph glyph-name="uni044D" unicode="&#x44d;" horiz-adv-x="503" 
d="M446 233q-20 -123 -99.5 -183t-181.5 -60q-91 0 -160 43l4 23q68 -44 152 -44q96 0 169 53.5t91 163.5h-291l4 22l290 1q6 54 -9 97t-45 68t-67.5 38t-78.5 13q-85 0 -157 -44l4 23q71 43 155 43q101 0 170 -66.5t50 -190.5z" />
    <glyph glyph-name="uni044E" unicode="&#x44e;" horiz-adv-x="799" 
d="M742 234q-18 -114 -100.5 -179t-184.5 -65q-95 0 -159 65.5t-53 173.5h-147l-36 -228h-24l76 480h24l-36 -229h147q19 107 100 172.5t184 65.5q99 0 163 -70.5t46 -185.5zM272 242q-17 -103 39.5 -166t145.5 -63q95 0 170 60t91 165q17 103 -39.5 166t-145.5 63
q-95 0 -170 -60t-91 -165z" />
    <glyph glyph-name="uni044F" unicode="&#x44f;" horiz-adv-x="537" 
d="M21 0h-29l180 197q-59 11 -88 48.5t-20 92.5q10 63 64 102.5t135 39.5h220l-76 -480h-24l30 192h-188q-19 0 -28 1zM88 334q-9 -54 27.5 -87t108.5 -33h193l39 244h-192q-72 0 -120 -34t-56 -90z" />
    <glyph glyph-name="uni0451" unicode="&#x451;" horiz-adv-x="540" 
d="M456 614q-4 -22 -25 -22q-10 0 -16 7.5t-4 17.5q1 8 8.5 14.5t15.5 6.5q11 0 17 -7t4 -17zM256 614q-4 -22 -25 -22q-10 0 -16 7.5t-4 17.5q1 8 8.5 14.5t15.5 6.5q11 0 17 -7t4 -17zM41 241q18 115 95 182t173 67q50 0 88 -16.5t59.5 -44t32.5 -62.5t9.5 -71t-12.5 -71
h-423q-14 -105 48 -159t156 -54q89 0 164 39l-5 -25q-66 -36 -161 -36q-106 0 -175 64t-49 187zM468 247q12 35 7 74t-20.5 71.5t-53.5 54t-91 21.5q-87 0 -156 -59t-88 -162h402z" />
    <glyph glyph-name="Wgrave" unicode="&#x1e80;" horiz-adv-x="983" 
d="M996 700h26l-334 -700h-27l-109 649l-319 -649h-28l-113 700h25l107 -666l323 658h22l110 -655zM599 778h-26l-70 133h28z" />
    <glyph glyph-name="wgrave" unicode="&#x1e81;" horiz-adv-x="796" 
d="M774 480h26l-261 -480h-23l-92 440l-235 -440h-24l-108 480h24l101 -446l234 438h23l92 -439zM468 558h-26l-70 133h28z" />
    <glyph glyph-name="Wacute" unicode="&#x1e82;" horiz-adv-x="983" 
d="M996 700h26l-334 -700h-27l-109 649l-319 -649h-28l-113 700h25l107 -666l323 658h22l110 -655zM567 778h-27l108 133h30z" />
    <glyph glyph-name="wacute" unicode="&#x1e83;" horiz-adv-x="796" 
d="M774 480h26l-261 -480h-23l-92 440l-235 -440h-24l-108 480h24l101 -446l234 438h23l92 -439zM436 558h-27l108 133h30z" />
    <glyph glyph-name="Wdieresis" unicode="&#x1e84;" horiz-adv-x="983" 
d="M996 700h26l-334 -700h-27l-109 649l-319 -649h-28l-113 700h25l107 -666l323 658h22l110 -655zM701 834q-4 -22 -25 -22q-10 0 -16 7.5t-4 17.5q1 8 8.5 14.5t15.5 6.5q11 0 17 -7t4 -17zM501 834q-4 -22 -25 -22q-10 0 -16 7.5t-4 17.5q1 8 8.5 14.5t15.5 6.5
q11 0 17 -7t4 -17z" />
    <glyph glyph-name="wdieresis" unicode="&#x1e85;" horiz-adv-x="796" 
d="M774 480h26l-261 -480h-23l-92 440l-235 -440h-24l-108 480h24l101 -446l234 438h23l92 -439zM570 614q-4 -22 -25 -22q-10 0 -16 7.5t-4 17.5q1 8 8.5 14.5t15.5 6.5q11 0 17 -7t4 -17zM370 614q-4 -22 -25 -22q-10 0 -16 7.5t-4 17.5q1 8 8.5 14.5t15.5 6.5q11 0 17 -7
t4 -17z" />
    <glyph glyph-name="Ygrave" unicode="&#x1ef2;" horiz-adv-x="624" 
d="M278 0h-25l45 284l-209 416h26l198 -391l322 391h30l-342 -416zM415 778h-26l-70 133h28z" />
    <glyph glyph-name="ygrave" unicode="&#x1ef3;" horiz-adv-x="530" 
d="M235 25l275 455h27l-344 -568q-48 -78 -88.5 -110t-88.5 -32q-25 0 -49 6l3 21q20 -5 44 -5q44 0 81 31t78 100l47 77l-173 480h25zM324 558h-26l-70 133h28z" />
    <glyph glyph-name="endash" unicode="&#x2013;" horiz-adv-x="569" 
d="M488 231h-425l3 23h425z" />
    <glyph glyph-name="emdash" unicode="&#x2014;" horiz-adv-x="751" 
d="M670 231h-607l3 23h607z" />
    <glyph glyph-name="quoteleft" unicode="&#x2018;" horiz-adv-x="184" 
d="M115 486h-25l88 214h21z" />
    <glyph glyph-name="quoteright" unicode="&#x2019;" horiz-adv-x="183" 
d="M111 486h-21l84 214h25z" />
    <glyph glyph-name="quotesinglbase" unicode="&#x201a;" horiz-adv-x="167" 
d="M-11 -142h-21l84 214h25z" />
    <glyph glyph-name="quotedblleft" unicode="&#x201c;" horiz-adv-x="308" 
d="M239 486h-25l88 214h21zM115 486h-25l88 214h21z" />
    <glyph glyph-name="quotedblright" unicode="&#x201d;" horiz-adv-x="307" 
d="M235 486h-21l84 214h25zM111 486h-21l84 214h25z" />
    <glyph glyph-name="quotedblbase" unicode="&#x201e;" horiz-adv-x="291" 
d="M113 -142h-21l84 214h25zM-11 -142h-21l84 214h25z" />
    <glyph glyph-name="dagger" unicode="&#x2020;" horiz-adv-x="483" 
d="M173 -220h-25l108 676h-193l3 24h193l35 220h25l-35 -220h192l-3 -24h-193z" />
    <glyph glyph-name="daggerdbl" unicode="&#x2021;" horiz-adv-x="512" 
d="M187 -220h-25l54 339h-192l3 24h193l50 313h-192l3 24h192l35 220h25l-35 -220h192l-3 -24h-192l-50 -313h192l-3 -24h-193z" />
    <glyph glyph-name="bullet" unicode="&#x2022;" horiz-adv-x="283" 
d="M110 352q2 17 15 27.5t29 10.5q18 0 28.5 -11.5t7.5 -30.5q-3 -17 -16 -27.5t-29 -10.5q-18 0 -28 11.5t-7 30.5z" />
    <glyph glyph-name="ellipsis" unicode="&#x2026;" horiz-adv-x="433" 
d="M334 15q-4 -21 -24 -21q-10 0 -16 7t-4 17q1 9 8 14.5t16 5.5q23 0 20 -23zM68 15q-4 -21 -24 -21q-10 0 -16 7t-4 17q1 9 8 14.5t16 5.5q23 0 20 -23zM201 15q-1 -9 -8.5 -15t-15.5 -6q-10 0 -16 7t-4 17q1 9 8 14.5t16 5.5q23 0 20 -23z" />
    <glyph glyph-name="perthousand" unicode="&#x2030;" horiz-adv-x="1239" 
d="M189 -60h-26l539 820h26zM375 563q-10 -67 -58 -103t-109 -36q-59 0 -98.5 39.5t-28.5 107.5q11 67 59 103t109 36q60 0 98.5 -39.5t27.5 -107.5zM103 569q-9 -56 22.5 -89.5t82.5 -33.5q53 0 94.5 31t50.5 88q9 55 -22.5 89t-81.5 34q-55 0 -96 -31t-50 -88zM811 129
q-11 -67 -59 -103t-108 -36t-99.5 39.5t-28.5 107.5q11 67 59 103t109 36q59 0 98.5 -39.5t28.5 -107.5zM540 135q-9 -56 22 -89.5t82 -33.5q53 0 94.5 31t50.5 88q9 55 -22.5 89t-81.5 34q-55 0 -95.5 -31t-49.5 -88zM1178 129q-11 -67 -59 -103t-108 -36t-99.5 39.5
t-28.5 107.5q11 67 59 103t109 36q59 0 98.5 -39.5t28.5 -107.5zM906 135q-9 -56 22 -89.5t82 -33.5q53 0 94.5 31t50.5 88q9 55 -22.5 89t-81.5 34q-55 0 -95.5 -31t-49.5 -88z" />
    <glyph glyph-name="guilsinglleft" unicode="&#x2039;" horiz-adv-x="266" 
d="M162 69h-25l-93 167l1 9l144 166h28l-149 -172z" />
    <glyph glyph-name="guilsinglright" unicode="&#x203a;" horiz-adv-x="266" 
d="M61 69h-28l149 172l-94 170h26l92 -167l-1 -9z" />
    <glyph glyph-name="fraction" unicode="&#x2044;" horiz-adv-x="162" 
d="M-188 -11h-18l570 721h18z" />
    <glyph glyph-name="Euro" unicode="&#x20ac;" horiz-adv-x="736" 
d="M712 617q-76 49 -183 49q-69 0 -137 -24.5t-128 -81t-89 -136.5h403l-4 -22h-406q-5 -17 -11 -49q-6 -42 -5 -75h403l-4 -22h-397q11 -113 89.5 -177.5t188.5 -64.5q121 0 202 49l-4 -25q-79 -48 -200 -48q-120 0 -205 71t-97 195h-87l4 22h82q-1 34 5 77q6 32 10 47h-78
l4 22h81q43 128 153 197t226 69q111 0 188 -49z" />
    <glyph glyph-name="trademark" unicode="&#x2122;" horiz-adv-x="650" 
d="M342 449h-18l40 251h20l87 -159l139 159h20l-40 -251h-17l36 225l-135 -152h-11l-85 152zM177 449h-18l37 234h-93l3 17h204l-3 -17h-93z" />
    <glyph glyph-name="oneeighth" unicode="&#x215b;" horiz-adv-x="917" 
d="M577 317q7 40 48 68.5t111 28.5q67 0 101 -33t28 -77q-11 -71 -85 -109q77 -35 67 -98q-8 -43 -51.5 -73t-122.5 -30q-78 0 -114.5 34.5t-28.5 85.5q13 74 98 114q-59 29 -51 89zM707 199q-47 14 -58 19q-85 -35 -96 -105q-7 -44 23 -71t98 -27t106.5 24.5t44.5 60.5
q3 18 -3 32.5t-14.5 23.5t-29 18t-32.5 13t-39 12zM843 304q6 36 -21.5 62.5t-86.5 26.5q-60 0 -95 -22.5t-41 -56.5q-4 -28 14 -48t32.5 -26.5t51.5 -17.5q5 -2 8 -3q9 -2 27.5 -7.5t27.5 -7.5q73 35 83 100zM171 -11h-18l570 721h18zM222 680h16l-61 -387h79l-4 -21h-203
l4 21h102l58 363l-99 -35l3 21z" />
    <glyph glyph-name="threeeighths" unicode="&#x215c;" horiz-adv-x="970" 
d="M629 317q7 40 48 68.5t111 28.5q67 0 101 -33t28 -77q-11 -71 -85 -109q77 -35 67 -98q-8 -43 -51.5 -73t-122.5 -30q-78 0 -114.5 34.5t-28.5 85.5q13 74 98 114q-59 29 -51 89zM759 199q-47 14 -58 19q-85 -35 -96 -105q-7 -44 23 -71t98 -27t106.5 24.5t44.5 60.5
q3 18 -3 32.5t-14.5 23.5t-29 18t-32.5 13t-39 12zM895 304q6 36 -21.5 62.5t-86.5 26.5q-60 0 -95 -22.5t-41 -56.5q-4 -28 14 -48t32.5 -26.5t51.5 -17.5q5 -2 8 -3q9 -2 27.5 -7.5t27.5 -7.5q73 35 83 100zM233 -11h-18l570 721h18zM367 580q-6 -32 -30.5 -58t-64.5 -35
q40 -6 63.5 -32.5t16.5 -72.5q-8 -53 -52.5 -82.5t-111.5 -29.5q-76 0 -131 26l4 22q52 -27 126 -27q61 0 99 24.5t45 71.5q7 45 -22.5 67t-82.5 22h-60l3 21h57q52 0 83 25t36 61q6 37 -21 61.5t-76 24.5q-66 0 -129 -27l4 23q59 25 128 25q57 0 90 -32t26 -78z" />
    <glyph glyph-name="fiveeighths" unicode="&#x215d;" horiz-adv-x="961" 
d="M620 317q7 40 48 68.5t111 28.5q67 0 101 -33t28 -77q-11 -71 -85 -109q77 -35 67 -98q-8 -43 -51.5 -73t-122.5 -30q-78 0 -114.5 34.5t-28.5 85.5q13 74 98 114q-59 29 -51 89zM750 199q-47 14 -58 19q-85 -35 -96 -105q-7 -44 23 -71t98 -27q67 0 106 24.5t45 60.5
q3 18 -3 32.5t-14.5 23.5t-29 18t-32.5 13t-39 12zM886 304q6 36 -21.5 62.5t-86.5 26.5q-60 0 -95 -22.5t-41 -56.5q-4 -28 14 -48t32.5 -26.5t51.5 -17.5q5 -2 8 -3q9 -2 27.5 -7.5t27.5 -7.5q73 35 83 100zM224 -11h-18l570 721h18zM140 680h234l-3 -21h-214l-36 -163
q48 14 95 14q62 0 101.5 -31t30.5 -93q-9 -54 -54.5 -87t-111.5 -33q-76 0 -127 27l4 21q51 -27 122 -27q59 0 98.5 27.5t46.5 75.5q8 51 -26 75t-91 24q-58 0 -115 -19z" />
    <glyph glyph-name="seveneighths" unicode="&#x215e;" horiz-adv-x="855" 
d="M114 -11h-18l570 721h18zM511 317q7 40 48 68.5t111 28.5q67 0 101 -33t28 -77q-11 -71 -85 -109q77 -35 67 -98q-8 -43 -51.5 -73t-122.5 -30q-78 0 -114.5 34.5t-28.5 85.5q13 74 98 114q-59 29 -51 89zM641 199q-47 14 -58 19q-85 -35 -96 -105q-7 -44 23 -71t98 -27
t106.5 24.5t44.5 60.5q3 18 -3 32.5t-14.5 23.5t-29 18t-32.5 13t-39 12zM777 304q6 36 -21.5 62.5t-86.5 26.5q-60 0 -95 -22.5t-41 -56.5q-4 -28 14 -48t32.5 -26.5t51.5 -17.5q5 -2 8 -3q9 -2 27.5 -7.5t27.5 -7.5q73 35 83 100zM133 272h-25l232 387h-244l4 21h269
l-4 -19z" />
    <glyph glyph-name="partialdiff" unicode="&#x2202;" horiz-adv-x="594" 
d="M532 264q-20 -125 -98.5 -199.5t-189.5 -74.5q-106 0 -164.5 64.5t-41.5 171.5q15 97 93 160t173 63q84 0 143.5 -49t60.5 -140q4 16 4 26q24 188 -77.5 290.5t-273.5 100.5l4 23q88 0 161.5 -28t126 -80.5t74.5 -137t5 -190.5zM61 222q-15 -95 36 -152t147 -57
q87 0 152.5 50.5t95.5 138.5q15 107 -41.5 165.5t-144.5 58.5q-89 0 -160 -57t-85 -147z" />
    <glyph glyph-name="emptyset" unicode="&#x2205;" horiz-adv-x="823" 
d="M781 347q-11 -67 -45.5 -131t-87.5 -114.5t-127 -81t-156 -30.5q-137 0 -219 79l-70 -69h-21l81 80q-49 51 -68 123.5t-7 149.5q11 67 45.5 131t87.5 114.5t127 81t156 30.5q137 0 219 -79l70 69h21l-80 -80q49 -52 68 -124.5t6 -148.5zM78 349q-12 -72 6 -140.5
t64 -117.5l537 529q-81 74 -207 74q-157 0 -268 -104.5t-132 -240.5zM158 81q80 -75 207 -75q157 0 268 104.5t132 240.5q11 73 -6.5 141t-63.5 117z" />
    <glyph glyph-name="product" unicode="&#x220f;" horiz-adv-x="724" 
d="M85 -220h-25l142 896h-103l4 24h648l-4 -24h-103l-142 -896h-25l142 896h-392z" />
    <glyph glyph-name="summation" unicode="&#x2211;" horiz-adv-x="562" 
d="M462 0h-467l2 16l345 335l-238 333l2 16h462l-4 -24h-424l229 -322l-1 -10l-328 -320h426z" />
    <glyph glyph-name="minus" unicode="&#x2212;" horiz-adv-x="518" 
d="M447 337h-364l3 24h365z" />
    <glyph glyph-name="radical" unicode="&#x221a;" horiz-adv-x="718" 
d="M295 0h-24l-120 456h-94l3 24h108l119 -451l471 751h28z" />
    <glyph glyph-name="infinity" unicode="&#x221e;" horiz-adv-x="823" 
d="M424 378q29 36 47 56t46 44.5t57.5 35.5t63.5 11q67 0 108 -46t29 -123q-12 -75 -64.5 -120t-119.5 -45q-103 0 -173 147q-55 -72 -102.5 -109.5t-112.5 -37.5q-67 0 -106.5 46t-27.5 123q12 75 64.5 120t119.5 45q59 0 99 -40t72 -107zM408 359q-31 67 -65.5 105
t-86.5 38q-60 0 -106.5 -39t-57.5 -106q-10 -65 24 -104t92 -39t102 36.5t98 108.5zM751 360q10 65 -23.5 103.5t-91.5 38.5t-102.5 -36.5t-98.5 -108.5q30 -66 65.5 -104.5t87.5 -38.5q60 0 106.5 39.5t56.5 106.5z" />
    <glyph glyph-name="integral" unicode="&#x222b;" horiz-adv-x="396" 
d="M246 667q10 64 53 93.5t93 29.5q42 0 66 -13l-3 -23q-28 13 -61 13q-45 0 -80 -25t-45 -82l-122 -767q-10 -64 -51.5 -93.5t-94.5 -29.5q-38 0 -66 13l3 23q28 -13 60 -13q111 0 126 107z" />
    <glyph glyph-name="approxequal" unicode="&#x2248;" horiz-adv-x="577" 
d="M529 467q-4 -37 -29.5 -60t-64.5 -23q-38 0 -124.5 35t-121.5 35q-30 0 -49 -17t-23 -43h-23q5 37 30 60t64 23t125 -35t121 -35q30 0 49 16.5t23 43.5h23zM507 324q-5 -37 -30 -60t-64 -23q-38 0 -124.5 35t-121.5 35q-30 0 -49 -16.5t-23 -43.5h-23q5 38 30 60.5
t64 22.5t125 -35t121 -35q30 0 49 16.5t23 43.5h23z" />
    <glyph glyph-name="notequal" unicode="&#x2260;" horiz-adv-x="544" 
d="M129 146h-24l81 102h-117l3 23h132l126 158h-233l4 23h247l81 102h24l-81 -102h118l-4 -23h-132l-126 -158h233l-3 -23h-248z" />
    <glyph glyph-name="lessequal" unicode="&#x2264;" horiz-adv-x="524" 
d="M427 205l-4 -24l-330 162l4 25l381 161l-3 -26l-355 -148zM394 0h-356l4 23h356z" />
    <glyph glyph-name="greaterequal" unicode="&#x2265;" horiz-adv-x="517" 
d="M453 342l-382 -161l4 25l355 149l-308 149l4 25l331 -162zM398 0h-356l4 23h356z" />
    <glyph glyph-name="lozenge" unicode="&#x25ca;" horiz-adv-x="541" 
d="M238 0h-27l-161 350l271 350h28l161 -350zM77 348l150 -325l256 329l-150 324z" />
    <glyph glyph-name="i.loclTRK" horiz-adv-x="200" 
d="M66 0h-24l76 480h24zM175 596q-5 -26 -31 -26q-12 0 -19.5 8t-5.5 21q2 11 10.5 18.5t19.5 7.5q13 0 20.5 -8t5.5 -21z" />
    <glyph glyph-name="a.ss01" horiz-adv-x="534" 
d="M407 69q-8 -48 42 -48q22 0 40 7l-4 -22q-21 -7 -41 -7q-31 0 -49 17t-12 53l5 33q-38 -52 -100 -82t-123 -30q-72 0 -116 37.5t-37 105.5q8 76 73.5 110.5t151.5 34.5q87 0 174 -30l9 54q12 78 -27.5 122t-130.5 44q-76 0 -164 -30l3 24q84 28 163 28q101 0 147 -51
t32 -141zM167 11q63 0 126.5 33t100.5 93l14 90q-84 29 -168 29q-50 0 -92 -10.5t-75 -40t-37 -75.5q-5 -56 32 -87.5t99 -31.5z" />
    <glyph glyph-name="aacute.ss01" horiz-adv-x="535" 
d="M408 69q-8 -48 42 -48q22 0 40 7l-4 -22q-21 -7 -41 -7q-31 0 -49 17t-12 53l5 33q-38 -52 -100 -82t-123 -30q-72 0 -116 37.5t-37 105.5q8 76 73.5 110.5t151.5 34.5q87 0 174 -30l9 54q12 78 -27.5 122t-130.5 44q-76 0 -164 -30l3 24q84 28 163 28q101 0 147 -51
t32 -141zM168 11q63 0 126.5 33t100.5 93l14 90q-84 29 -168 29q-50 0 -92 -10.5t-75 -40t-37 -75.5q-5 -56 32 -87.5t99 -31.5zM280 558h-27l108 133h30z" />
    <glyph glyph-name="abreve.ss01" horiz-adv-x="535" 
d="M408 69q-8 -48 42 -48q22 0 40 7l-4 -22q-21 -7 -41 -7q-31 0 -49 17t-12 53l5 33q-38 -52 -100 -82t-123 -30q-72 0 -116 37.5t-37 105.5q8 76 73.5 110.5t151.5 34.5q87 0 174 -30l9 54q12 78 -27.5 122t-130.5 44q-76 0 -164 -30l3 24q84 28 163 28q101 0 147 -51
t32 -141zM168 11q63 0 126.5 33t100.5 93l14 90q-84 29 -168 29q-50 0 -92 -10.5t-75 -40t-37 -75.5q-5 -56 32 -87.5t99 -31.5zM412 604q-56 -41 -127 -41q-79 0 -121 41l4 26q45 -44 117 -44t131 44z" />
    <glyph glyph-name="acircumflex.ss01" horiz-adv-x="535" 
d="M408 69q-8 -48 42 -48q22 0 40 7l-4 -22q-21 -7 -41 -7q-31 0 -49 17t-12 53l5 33q-38 -52 -100 -82t-123 -30q-72 0 -116 37.5t-37 105.5q8 76 73.5 110.5t151.5 34.5q87 0 174 -30l9 54q12 78 -27.5 122t-130.5 44q-76 0 -164 -30l3 24q84 28 163 28q101 0 147 -51
t32 -141zM168 11q63 0 126.5 33t100.5 93l14 90q-84 29 -168 29q-50 0 -92 -10.5t-75 -40t-37 -75.5q-5 -56 32 -87.5t99 -31.5zM292 683h21l107 -125h-27l-91 106l-125 -106h-30z" />
    <glyph glyph-name="adieresis.ss01" horiz-adv-x="535" 
d="M408 69q-8 -48 42 -48q22 0 40 7l-4 -22q-21 -7 -41 -7q-31 0 -49 17t-12 53l5 33q-38 -52 -100 -82t-123 -30q-72 0 -116 37.5t-37 105.5q8 76 73.5 110.5t151.5 34.5q87 0 174 -30l9 54q12 78 -27.5 122t-130.5 44q-76 0 -164 -30l3 24q84 28 163 28q101 0 147 -51
t32 -141zM168 11q63 0 126.5 33t100.5 93l14 90q-84 29 -168 29q-50 0 -92 -10.5t-75 -40t-37 -75.5q-5 -56 32 -87.5t99 -31.5zM414 614q-4 -22 -25 -22q-10 0 -16 7.5t-4 17.5q1 8 8.5 14.5t15.5 6.5q11 0 17 -7t4 -17zM214 614q-4 -22 -25 -22q-10 0 -16 7.5t-4 17.5
q1 8 8.5 14.5t15.5 6.5q11 0 17 -7t4 -17z" />
    <glyph glyph-name="agrave.ss01" horiz-adv-x="535" 
d="M408 69q-8 -48 42 -48q22 0 40 7l-4 -22q-21 -7 -41 -7q-31 0 -49 17t-12 53l5 33q-38 -52 -100 -82t-123 -30q-72 0 -116 37.5t-37 105.5q8 76 73.5 110.5t151.5 34.5q87 0 174 -30l9 54q12 78 -27.5 122t-130.5 44q-76 0 -164 -30l3 24q84 28 163 28q101 0 147 -51
t32 -141zM168 11q63 0 126.5 33t100.5 93l14 90q-84 29 -168 29q-50 0 -92 -10.5t-75 -40t-37 -75.5q-5 -56 32 -87.5t99 -31.5zM312 558h-26l-70 133h28z" />
    <glyph glyph-name="amacron.ss01" horiz-adv-x="535" 
d="M408 69q-8 -48 42 -48q22 0 40 7l-4 -22q-21 -7 -41 -7q-31 0 -49 17t-12 53l5 33q-38 -52 -100 -82t-123 -30q-72 0 -116 37.5t-37 105.5q8 76 73.5 110.5t151.5 34.5q87 0 174 -30l9 54q12 78 -27.5 122t-130.5 44q-76 0 -164 -30l3 24q84 28 163 28q101 0 147 -51
t32 -141zM168 11q63 0 126.5 33t100.5 93l14 90q-84 29 -168 29q-50 0 -92 -10.5t-75 -40t-37 -75.5q-5 -56 32 -87.5t99 -31.5zM168 614h252l-3 -23h-252z" />
    <glyph glyph-name="aogonek.ss01" horiz-adv-x="535" 
d="M490 28l-4 -22q-134 -88 -145 -156q-4 -27 9.5 -43t39.5 -16q23 0 53 10l-3 -22q-31 -9 -54 -9q-36 0 -55 22t-13 58q11 68 126 149q-30 0 -48 17t-12 53l5 33q-38 -52 -100 -82t-123 -30q-72 0 -116 37.5t-37 105.5q8 76 73.5 110.5t151.5 34.5q87 0 174 -30l9 54
q12 78 -27.5 122t-130.5 44q-76 0 -164 -30l3 24q84 28 163 28q101 0 147 -51t32 -141l-36 -229q-8 -48 42 -48q22 0 40 7zM168 11q63 0 126.5 33t100.5 93l14 90q-84 29 -168 29q-50 0 -92 -10.5t-75 -40t-37 -75.5q-5 -56 32 -87.5t99 -31.5z" />
    <glyph glyph-name="aring.ss01" horiz-adv-x="535" 
d="M408 69q-8 -48 42 -48q22 0 40 7l-4 -22q-21 -7 -41 -7q-31 0 -49 17t-12 53l5 33q-38 -52 -100 -82t-123 -30q-72 0 -116 37.5t-37 105.5q8 76 73.5 110.5t151.5 34.5q87 0 174 -30l9 54q12 78 -27.5 122t-130.5 44q-76 0 -164 -30l3 24q84 28 163 28q101 0 147 -51
t32 -141zM168 11q63 0 126.5 33t100.5 93l14 90q-84 29 -168 29q-50 0 -92 -10.5t-75 -40t-37 -75.5q-5 -56 32 -87.5t99 -31.5zM378 618q-6 -36 -33.5 -58t-61.5 -22q-35 0 -57.5 23.5t-15.5 60.5q5 35 33.5 57.5t61.5 22.5q35 0 57.5 -23.5t15.5 -60.5zM229 619
q-4 -27 12 -44.5t41 -17.5q28 0 50 17t27 46q4 27 -12 45t-41 18q-27 0 -49.5 -17.5t-27.5 -46.5z" />
    <glyph glyph-name="atilde.ss01" horiz-adv-x="535" 
d="M408 69q-8 -48 42 -48q22 0 40 7l-4 -22q-21 -7 -41 -7q-31 0 -49 17t-12 53l5 33q-38 -52 -100 -82t-123 -30q-72 0 -116 37.5t-37 105.5q8 76 73.5 110.5t151.5 34.5q87 0 174 -30l9 54q12 78 -27.5 122t-130.5 44q-76 0 -164 -30l3 24q84 28 163 28q101 0 147 -51
t32 -141zM168 11q63 0 126.5 33t100.5 93l14 90q-84 29 -168 29q-50 0 -92 -10.5t-75 -40t-37 -75.5q-5 -56 32 -87.5t99 -31.5zM437 641q-1 -32 -19 -52t-48 -20q-28 0 -82 28t-77 28q-22 0 -35 -14t-13 -37h-22q0 32 19.5 52.5t47.5 20.5t82.5 -28t77.5 -28q45 0 47 50h22
z" />
    <glyph glyph-name="ae.ss01" horiz-adv-x="899" 
d="M423 114q-109 -124 -255 -124q-68 0 -116 40.5t-38 107.5q6 39 27.5 67.5t54.5 44t68.5 22t76.5 6.5q88 0 173 -31l9 55q12 75 -27 120.5t-122 45.5q-86 0 -174 -30l4 24q82 28 172 28q82 0 127 -43t42 -116q31 76 93 117.5t140 41.5q56 0 96.5 -24.5t58 -63.5
t21.5 -86.5t-13 -94.5h-407q-6 -54 8 -96t43.5 -65.5t66 -35.5t78.5 -12q90 0 156 38l-5 -26q-65 -34 -154 -34q-69 0 -124.5 30.5t-79.5 93.5zM38 135q-8 -55 33.5 -89.5t98.5 -34.5q137 0 245 123q-10 39 -4 93q-84 29 -167 29q-189 0 -206 -121zM675 468
q-90 0 -154.5 -58.5t-83.5 -166.5h386q23 86 -15 155.5t-133 69.5z" />
    <glyph glyph-name="y.ss01" horiz-adv-x="575" 
d="M444 -9q-18 -114 -92 -167.5t-173 -53.5q-102 0 -158 36l4 24q57 -38 152 -38q92 0 159.5 48.5t83.5 152.5l18 116q-37 -48 -93.5 -83.5t-125.5 -35.5q-82 0 -127 53t-31 142l47 295h24l-47 -294q-12 -83 25.5 -128.5t110.5 -45.5q68 0 127.5 39t95.5 92l53 337h24z" />
    <glyph glyph-name="yacute.ss01" horiz-adv-x="575" 
d="M444 -9q-18 -114 -92 -167.5t-173 -53.5q-102 0 -158 36l4 24q57 -38 152 -38q92 0 159.5 48.5t83.5 152.5l18 116q-37 -48 -93.5 -83.5t-125.5 -35.5q-82 0 -127 53t-31 142l47 295h24l-47 -294q-12 -83 25.5 -128.5t110.5 -45.5q68 0 127.5 39t95.5 92l53 337h24z
M322 558h-27l108 133h30z" />
    <glyph glyph-name="ycircumflex.ss01" horiz-adv-x="575" 
d="M444 -9q-18 -114 -92 -167.5t-173 -53.5q-102 0 -158 36l4 24q57 -38 152 -38q92 0 159.5 48.5t83.5 152.5l18 116q-37 -48 -93.5 -83.5t-125.5 -35.5q-82 0 -127 53t-31 142l47 295h24l-47 -294q-12 -83 25.5 -128.5t110.5 -45.5q68 0 127.5 39t95.5 92l53 337h24z
M334 683h21l107 -125h-27l-91 106l-125 -106h-30z" />
    <glyph glyph-name="ydieresis.ss01" horiz-adv-x="575" 
d="M444 -9q-18 -114 -92 -167.5t-173 -53.5q-102 0 -158 36l4 24q57 -38 152 -38q92 0 159.5 48.5t83.5 152.5l18 116q-37 -48 -93.5 -83.5t-125.5 -35.5q-82 0 -127 53t-31 142l47 295h24l-47 -294q-12 -83 25.5 -128.5t110.5 -45.5q68 0 127.5 39t95.5 92l53 337h24z
M456 614q-4 -22 -25 -22q-10 0 -16 7.5t-4 17.5q1 8 8.5 14.5t15.5 6.5q11 0 17 -7t4 -17zM256 614q-4 -22 -25 -22q-10 0 -16 7.5t-4 17.5q1 8 8.5 14.5t15.5 6.5q11 0 17 -7t4 -17z" />
    <glyph glyph-name="ygrave.ss01" horiz-adv-x="575" 
d="M444 -9q-18 -114 -92 -167.5t-173 -53.5q-102 0 -158 36l4 24q57 -38 152 -38q92 0 159.5 48.5t83.5 152.5l18 116q-37 -48 -93.5 -83.5t-125.5 -35.5q-82 0 -127 53t-31 142l47 295h24l-47 -294q-12 -83 25.5 -128.5t110.5 -45.5q68 0 127.5 39t95.5 92l53 337h24z
M354 558h-26l-70 133h28z" />
    <glyph glyph-name="f_b" horiz-adv-x="954" 
d="M460 356q38 59 102 96.5t135 37.5q99 0 158.5 -71.5t41.5 -184.5q-18 -112 -94.5 -178t-181.5 -66q-74 0 -126 38.5t-72 101.5l-22 -130h-22l102 648q-63 40 -144 40q-66 0 -109.5 -35t-53.5 -98l-13 -75h195l-3 -23h-195l-73 -457h-24l73 457h-82l3 23h82l13 76
q11 75 63 114.5t123 39.5q82 0 149 -39l4 25l26 8zM619 12q98 0 168 60t86 165q17 102 -36.5 166.5t-141.5 64.5q-76 0 -142 -44.5t-101 -111.5l-23 -145q13 -67 64 -111t126 -44z" />
    <glyph glyph-name="f_f_b" horiz-adv-x="1264" 
d="M770 356q38 59 102 96.5t135 37.5q99 0 158.5 -71.5t41.5 -184.5q-18 -112 -94.5 -178t-181.5 -66q-74 0 -126 38.5t-72 101.5l-22 -130h-22l103 649q-62 41 -145 41q-64 0 -108.5 -35.5t-54.5 -99.5l-13 -75h195l-3 -23h-195l-73 -457h-24l73 457h-286l-73 -457h-24
l73 457h-82l3 23h82l10 58q11 75 65 114.5t128 39.5q82 0 152 -53q54 73 153 73q85 0 151 -40l4 26l25 8zM447 480l13 76q4 33 21 64q-65 50 -139 50q-70 0 -115.5 -35t-55.5 -98l-10 -57h286zM929 12q98 0 168 60t86 165q17 102 -36.5 166.5t-141.5 64.5q-76 0 -142 -44.5
t-101 -111.5l-23 -145q13 -67 64 -111t126 -44z" />
    <glyph glyph-name="f_f_h" horiz-adv-x="1225" 
d="M772 373q40 47 97 82t124 35q80 0 125 -53t31 -142l-47 -295h-24l47 294q13 82 -26 128t-110 46q-67 0 -126.5 -39t-96.5 -91l-53 -338h-24l103 649q-62 41 -145 41q-64 0 -108.5 -35.5t-54.5 -99.5l-13 -75h195l-3 -23h-195l-73 -457h-24l73 457h-286l-73 -457h-24
l73 457h-82l3 23h82l10 58q11 75 65 114.5t128 39.5q82 0 152 -53q54 73 153 73q85 0 151 -40l4 26l25 8zM447 480l13 76q4 33 21 64q-65 50 -139 50q-70 0 -115.5 -35t-55.5 -98l-10 -57h286z" />
    <glyph glyph-name="f_f_j" horiz-adv-x="836" 
d="M684 -117q-17 -113 -132 -113q-40 0 -69 12l3 22q28 -12 62 -12q97 0 113 95l90 570h-283l-73 -457h-24l73 457h-286l-73 -457h-24l73 457h-82l3 23h82l10 58q11 75 64.5 114.5t128.5 39.5q82 0 152 -53q53 73 154 73q82 0 150 -45l-4 -24q-64 47 -144 47
q-65 0 -109.5 -35.5t-54.5 -99.5l-13 -75h308zM171 537l-10 -57h286l13 76q4 33 21 65q-65 49 -139 49q-70 0 -115.5 -35t-55.5 -98z" />
    <glyph glyph-name="f_f_k" horiz-adv-x="1140" 
d="M1110 480h29l-237 -233l188 -247h-28l-181 239h-130l-38 -239h-24l103 649q-62 41 -145 41q-64 0 -108.5 -35.5t-54.5 -99.5l-13 -75h195l-3 -23h-195l-73 -457h-24l73 457h-286l-73 -457h-24l73 457h-82l3 23h82l10 58q11 75 65 114.5t128 39.5q82 0 152 -53
q54 73 153 73q85 0 151 -40l4 26l25 8l-70 -444h132zM447 480l13 76q4 33 21 64q-65 50 -139 50q-70 0 -115.5 -35t-55.5 -98l-10 -57h286z" />
    <glyph glyph-name="f_h" horiz-adv-x="915" 
d="M462 373q40 47 97 82t124 35q80 0 125 -53t31 -142l-47 -295h-24l47 294q13 82 -26 128t-110 46q-67 0 -126.5 -39t-96.5 -91l-53 -338h-24l102 648q-63 40 -144 40q-66 0 -109.5 -35t-53.5 -98l-13 -75h195l-3 -23h-195l-73 -457h-24l73 457h-82l3 23h82l13 76
q11 75 63 114.5t123 39.5q82 0 149 -39l4 25l26 8z" />
    <glyph glyph-name="f_i" horiz-adv-x="527" 
d="M85 0h-24l73 457h-82l3 23h82l13 76q11 75 63 114.5t122 39.5q83 0 151 -45l-4 -24q-65 47 -144 47q-65 0 -109.5 -35t-54.5 -98l-13 -75h308l-76 -480h-24l72 457h-283z" />
    <glyph glyph-name="f_j" horiz-adv-x="526" 
d="M374 -117q-17 -113 -132 -113q-40 0 -69 12l3 22q29 -12 62 -12q97 0 113 95l90 570h-283l-73 -457h-24l73 457h-82l3 23h82l13 76q11 75 63 114.5t122 39.5q83 0 151 -45l-4 -24q-65 47 -144 47q-65 0 -109.5 -35t-54.5 -98l-13 -75h308z" />
    <glyph glyph-name="f_k" horiz-adv-x="830" 
d="M800 480h29l-237 -233l188 -247h-27l-182 239h-130l-38 -239h-24l102 648q-63 40 -144 40q-66 0 -109.5 -35t-53.5 -98l-13 -75h195l-3 -23h-195l-73 -457h-24l73 457h-82l3 23h82l13 76q11 75 63 114.5t123 39.5q82 0 149 -39l4 25l26 8l-70 -442h132z" />
    <glyph glyph-name="f_l" horiz-adv-x="537" 
d="M485 671l4 25l26 8l-112 -704h-24l102 648q-63 40 -144 40q-66 0 -109.5 -35t-53.5 -98l-13 -75h195l-3 -23h-195l-73 -457h-24l73 457h-82l3 23h82l13 76q11 75 63 114.5t123 39.5q82 0 149 -39z" />
    <glyph glyph-name="uni0414.loclBGR" horiz-adv-x="794" 
d="M-21 -177h-24l32 201h72l389 676h30l176 -676h72l-32 -201h-24l28 177h-691zM461 674l-373 -650h541z" />
    <glyph glyph-name="uni041B.loclBGR" horiz-adv-x="672" 
d="M-28 0l417 700h25l195 -700h-26l-184 670l-399 -670h-28z" />
    <glyph glyph-name="uni0424.loclBGR" horiz-adv-x="884" 
d="M391 -108h-25l16 99q-166 3 -255 107t-64 258q23 153 142 251.5t291 101.5l16 99h24l-16 -99q167 -3 256 -106.5t65 -258.5q-24 -153 -143.5 -251.5t-290.5 -101.5zM88 353q-22 -144 59 -239.5t240 -98.5l106 670q-161 -3 -271.5 -95.5t-133.5 -236.5zM517 685l-106 -670
q161 3 271.5 95.5t133.5 236.5q23 143 -58 239t-241 99z" />
    <glyph glyph-name="uni0432.loclBGR" horiz-adv-x="574" 
d="M373 710q76 0 119 -46t32 -116q-17 -115 -156 -160q74 -7 115.5 -62.5t28.5 -135.5q-14 -89 -80.5 -144.5t-164.5 -55.5q-107 0 -164 70.5t-36 205.5l16 105q26 166 99.5 252.5t190.5 86.5zM104 353l204 37q90 19 136 58t56 102q10 60 -26.5 99t-102.5 39
q-98 0 -167.5 -74.5t-96.5 -242.5zM269 12q85 0 145.5 48.5t73.5 131.5q14 87 -40 139.5t-147 35.5l-200 -37l-10 -64q-20 -127 30.5 -190.5t147.5 -63.5z" />
    <glyph glyph-name="uni0433.loclBGR" horiz-adv-x="461" 
d="M374 41q-34 -22 -88 -36.5t-102 -14.5q-83 0 -131 32t-39 97q7 51 47 80t92.5 39.5t104.5 20.5t92 35t47 71q8 51 -31 77t-102 26q-91 0 -179 -47l4 25q88 44 180 44q72 0 117.5 -31.5t35.5 -94.5q-8 -52 -48.5 -81.5t-93 -40.5t-105 -20.5t-91.5 -34.5t-46 -70
q-7 -53 34.5 -79t115.5 -26q47 0 99.5 15t90.5 40z" />
    <glyph glyph-name="uni0434.loclBGR" horiz-adv-x="613" 
d="M483 -1q-19 -118 -98.5 -173.5t-185.5 -55.5q-104 0 -176 46l4 24q73 -48 170 -48q99 0 172 50.5t90 158.5l20 122q-38 -59 -102 -96t-136 -37q-104 0 -161 70.5t-39 185.5q18 112 95 178t181 66q74 0 126 -38.5t73 -102.5l20 131h23zM64 243q-17 -104 33.5 -167.5
t144.5 -63.5q77 0 143 43.5t100 110.5l23 147q-12 67 -63.5 111t-126.5 44q-95 0 -166.5 -60t-87.5 -165z" />
    <glyph glyph-name="uni0436.loclBGR" horiz-adv-x="706" 
d="M-7 0h-29l258 248l-152 232h25l146 -221h96l70 441h24l-70 -441h95l216 221h27l-226 -233l178 -247h-26l-171 236h-96l-38 -236h-24l38 236h-94z" />
    <glyph glyph-name="uni0438.loclBGR" horiz-adv-x="575" 
d="M497 480h24l-76 -480h-22l17 109q-36 -47 -95 -83t-126 -36q-81 0 -126.5 53t-31.5 143l47 294h24l-47 -294q-12 -82 26 -128t109 -46q69 0 128 39t95 92z" />
    <glyph glyph-name="uni0439.loclBGR" horiz-adv-x="575" 
d="M453 604q-56 -41 -127 -41q-79 0 -121 41l4 25q45 -44 116 -44q73 0 132 44zM497 480h24l-76 -480h-22l17 109q-36 -47 -95 -83t-126 -36q-81 0 -126.5 53t-31.5 143l47 294h24l-47 -294q-12 -82 26 -128t109 -46q69 0 128 39t95 92z" />
    <glyph glyph-name="uni043A.loclBGR" horiz-adv-x="493" 
d="M459 480h29l-237 -233l188 -247h-28l-181 239h-130l-38 -239h-24l111 700h24l-70 -438h133z" />
    <glyph glyph-name="uni043B.loclBGR" horiz-adv-x="521" 
d="M304 480l150 -480h-26l-140 453l-284 -453h-28l302 480h26z" />
    <glyph glyph-name="uni043F.loclBGR" horiz-adv-x="574" 
d="M119 371q39 48 97 83.5t127 35.5q80 0 124.5 -53t30.5 -142l-47 -295h-24l47 294q13 82 -26 128t-110 46q-67 0 -126.5 -39t-96.5 -91l-53 -338h-24l76 480h22z" />
    <glyph glyph-name="uni0442.loclBGR" horiz-adv-x="894" 
d="M469 380q38 45 92 77.5t115 32.5q76 0 116 -50.5t27 -127.5l-49 -312h-24l50 312q11 68 -22.5 112t-99.5 44q-111 0 -201 -114q0 -20 -3 -42l-49 -312h-24l50 312q11 68 -22.5 112t-99.5 44q-62 0 -116.5 -37t-91.5 -86l-55 -345h-24l76 480h22l-16 -104q36 45 91 79.5
t116 34.5q57 0 95 -29.5t47 -80.5z" />
    <glyph glyph-name="uni0446.loclBGR" horiz-adv-x="599" 
d="M457 76q-5 -30 11 -42.5t48 -12.5h16l-25 -159h-23l22 137q-82 2 -73 79l4 27q-37 -46 -94.5 -80.5t-123.5 -34.5q-81 0 -126.5 53t-31.5 143l47 294h24l-47 -294q-12 -82 26 -128t109 -46q69 0 128 39t95 92l54 337h24z" />
    <glyph glyph-name="uni0448.loclBGR" horiz-adv-x="894" 
d="M761 133l55 347h24l-76 -480h-23l17 102q-35 -44 -90 -78t-117 -34q-56 0 -94 30t-48 80q-95 -110 -207 -110q-75 0 -115.5 50t-28.5 128l50 312h24l-50 -312q-10 -68 23 -112t99 -44q59 0 111.5 33.5t89.5 80.5q-1 17 2 42l50 312h24l-50 -312q-10 -68 23 -112t99 -44
q63 0 118 36.5t90 84.5z" />
    <glyph glyph-name="uni0449.loclBGR" horiz-adv-x="918" 
d="M776 76q-4 -30 11 -42.5t45 -12.5h19l-25 -159h-23l22 137q-35 1 -56.5 20.5t-15.5 56.5l3 25q-33 -43 -88 -77t-117 -34q-57 0 -94.5 29.5t-48.5 79.5q-38 -45 -92 -77t-114 -32q-75 0 -115.5 50t-28.5 128l50 312h24l-50 -312q-10 -68 23 -112t99 -44q59 0 111.5 33.5
t89.5 79.5q-1 18 2 43l50 312h24l-50 -312q-10 -68 23 -112t99 -44q63 0 118 36.5t90 84.5l55 347h24z" />
    <glyph glyph-name="uni044E.loclBGR" horiz-adv-x="799" 
d="M742 234q-18 -114 -100.5 -179t-184.5 -65q-95 0 -159 65.5t-53 173.5h-147l-36 -228h-24l111 699h24l-71 -448h147q19 107 100 172.5t184 65.5q99 0 163 -70.5t46 -185.5zM272 242q-17 -103 39.5 -166t145.5 -63q95 0 170 60t91 165q17 103 -39.5 166t-145.5 63
q-95 0 -170 -60t-91 -165z" />
    <glyph glyph-name="uni0430.ss01" horiz-adv-x="541" 
d="M407 69q-8 -48 42 -48q22 0 40 7l-4 -22q-21 -7 -41 -7q-31 0 -49 17t-12 53l5 33q-38 -52 -100 -82t-123 -30q-72 0 -116 37.5t-37 105.5q8 76 73.5 110.5t151.5 34.5q87 0 174 -30l9 54q12 78 -27.5 122t-130.5 44q-76 0 -164 -30l3 24q84 28 163 28q101 0 147 -51
t32 -141zM167 11q63 0 126.5 33t100.5 93l14 90q-84 29 -168 29q-50 0 -92 -10.5t-75 -40t-37 -75.5q-5 -56 32 -87.5t99 -31.5z" />
    <glyph glyph-name="uni0437.ss01" horiz-adv-x="445" 
d="M362 -38q-16 -91 -84 -141.5t-172 -50.5q-113 0 -171 44l4 23q60 -45 167 -45q90 0 154.5 45t77.5 127q14 86 -41 144t-145 38l-60 -12l3 23l66 14q172 38 189 161q8 58 -29 97t-105 39q-87 0 -166 -47l4 27q80 43 165 43q77 0 121 -46t34 -114q-16 -118 -157 -163
q73 -8 115.5 -68.5t29.5 -137.5z" />
    <glyph glyph-name="uni0443.ss01" horiz-adv-x="575" 
d="M444 -9q-18 -114 -92 -167.5t-173 -53.5q-102 0 -158 36l4 24q57 -38 152 -38q92 0 159.5 48.5t83.5 152.5l18 116q-37 -48 -93.5 -83.5t-125.5 -35.5q-82 0 -127 53t-31 142l47 295h24l-47 -294q-12 -83 25.5 -128.5t110.5 -45.5q68 0 127.5 39t95.5 92l53 337h24z" />
    <glyph glyph-name="zero.osf" horiz-adv-x="661" 
d="M602 254q-17 -108 -101 -186t-212 -78q-91 0 -150.5 41.5t-80 103t-9.5 131.5q18 108 102.5 186t211.5 78q87 0 147 -41t81.5 -103t10.5 -132zM74 263q-7 -47 2 -91t33.5 -79.5t71 -57t108.5 -21.5q119 0 196.5 71.5t92.5 171.5q16 99 -41 174t-174 75q-118 0 -195.5 -71
t-93.5 -172z" />
    <glyph glyph-name="one.osf" horiz-adv-x="403" 
d="M260 520h16l-77 -496h142l-4 -24h-324l4 24h157l73 468l-165 -59l4 24z" />
    <glyph glyph-name="two.osf" horiz-adv-x="517" 
d="M419 0h-413l3 19q6 39 25.5 69t50 51.5t63 37.5t75.5 34q5 1 7 2l6 3t7 3q7 3 42.5 17.5t46.5 20t37.5 20t37.5 27t22.5 32t15.5 41.5q10 57 -29 93.5t-116 36.5q-103 0 -205 -57l3 26q97 54 204 54q85 0 132 -43.5t36 -112.5q-4 -26 -17.5 -48t-25.5 -35.5t-41 -30.5
t-40.5 -22.5t-49.5 -21.5t-45 -19q-113 -48 -147 -73q-58 -41 -68 -100h388z" />
    <glyph glyph-name="three.osf" horiz-adv-x="539" 
d="M469 349q-9 -56 -50 -99.5t-110 -56.5q69 -12 108.5 -57t27.5 -119q-14 -88 -86.5 -137.5t-170.5 -49.5q-120 0 -200 44l3 24q90 -45 195 -45q91 0 157 44.5t79 123.5q13 78 -39.5 118.5t-140.5 40.5h-72l4 24h70q87 -1 139 42.5t62 104.5q11 65 -32.5 110.5t-127.5 45.5
q-94 0 -192 -45l4 25q91 43 190 43q94 0 144 -52.5t38 -128.5z" />
    <glyph glyph-name="four.osf" horiz-adv-x="592" 
d="M438 520h27l-76 -486h138l-3 -24h-139l-27 -170h-24l27 170h-381l3 22zM364 34l71 450l-421 -450h350z" />
    <glyph glyph-name="five.osf" horiz-adv-x="529" 
d="M132 520h355l-3 -24h-333l-64 -293q75 26 154 26q43 0 81.5 -12t69.5 -35t45.5 -63t6.5 -91q-13 -88 -86.5 -143t-177.5 -55q-111 0 -189 46l4 23q81 -46 183 -46q95 0 162 49t80 130q13 86 -42.5 130t-141.5 44q-89 0 -180 -33z" />
    <glyph glyph-name="six.osf" horiz-adv-x="576" 
d="M534 630q-57 36 -133 36q-107 0 -195.5 -86.5t-116.5 -263.5l-3 -18q52 53 117.5 82.5t127.5 29.5q87 0 142 -54.5t40 -155.5q-16 -96 -86 -153t-155 -57q-124 0 -177.5 88.5t-29.5 241.5q15 95 50 168.5t81.5 116t98 64t106.5 21.5q79 0 137 -36zM488 203
q14 90 -34.5 136.5t-126.5 46.5q-62 0 -128.5 -32t-115.5 -87q-9 -120 39.5 -187t147.5 -67q77 0 140.5 51t77.5 139z" />
    <glyph glyph-name="seven.osf" horiz-adv-x="464" 
d="M58 520h428l-3 -20l-416 -660h-27l413 656h-399z" />
    <glyph glyph-name="eight.osf" horiz-adv-x="611" 
d="M120 529q10 65 77.5 113t168.5 48t154.5 -53t43.5 -122q-17 -111 -149 -190q64 -25 96 -63t22 -101q-10 -70 -83.5 -120.5t-188.5 -50.5q-117 0 -175 55t-45 138q9 59 53 110.5t115 86.5q-104 50 -89 149zM314 339q-19 7 -83 30q-69 -30 -112.5 -79.5t-53.5 -108.5
q-12 -74 39.5 -121t156.5 -47q103 0 170.5 44.5t77.5 106.5q4 25 0.5 45t-15.5 35.5t-24.5 26.5t-36.5 22t-40.5 17.5t-47.5 17.5q-6 2 -10 3.5t-10 3.5t-11 4zM540 516q9 59 -38.5 105t-135.5 46q-90 0 -151 -42t-71 -99q-4 -24 -0.5 -44t17.5 -36t24.5 -26t35.5 -22
t35 -16t39 -14q13 -5 19 -7q10 -3 25.5 -8.5t28 -9.5t24.5 -8q130 74 148 181z" />
    <glyph glyph-name="nine.osf" horiz-adv-x="563" 
d="M47 320q16 97 86 153.5t155 56.5q124 0 177.5 -88.5t29.5 -241.5q-15 -95 -50 -168.5t-81.5 -116t-98.5 -64t-106 -21.5q-75 0 -137 36l3 24q62 -36 134 -36q107 0 195.5 86.5t116.5 263.5q2 12 2 17q-48 -52 -114 -81.5t-130 -29.5q-88 0 -143 55t-39 155zM72 318
q-14 -90 34.5 -137t126.5 -47q65 0 131.5 32t112.5 87q8 120 -40.5 187t-147.5 67q-77 0 -140 -50.5t-77 -138.5z" />
    <glyph glyph-name="zero.sinf" horiz-adv-x="430" 
d="M360 100q-15 -94 -68.5 -150t-138.5 -56q-86 0 -123 59t-21 155q15 94 68.5 150t139.5 56t122.5 -59t20.5 -155zM30 106q-13 -88 17.5 -139.5t105.5 -51.5q78 0 124.5 49t60.5 138q14 87 -16.5 139t-105.5 52q-78 0 -124.5 -49t-61.5 -138z" />
    <glyph glyph-name="one.sinf" horiz-adv-x="246" 
d="M140 308h16l-61 -387h79l-4 -21h-203l4 21h102l58 363l-99 -35l3 21z" />
    <glyph glyph-name="two.sinf" horiz-adv-x="340" 
d="M44 279q60 35 128 35q56 0 90 -28t26 -75q-7 -46 -42 -76t-98 -63q-38 -20 -53 -29t-41 -28.5t-38.5 -42t-17.5 -51.5h250l-4 -21h-275l2 13q5 35 20 62.5t42 49.5t46 33.5t56 30.5q33 17 49.5 27t37 26t31 33t13.5 39q7 36 -20.5 57.5t-74.5 21.5q-65 0 -131 -38z" />
    <glyph glyph-name="three.sinf" horiz-adv-x="355" 
d="M287 204q-6 -32 -30.5 -58t-64.5 -35q40 -6 63.5 -32.5t16.5 -72.5q-8 -53 -52.5 -82.5t-111.5 -29.5q-76 0 -131 26l4 22q52 -27 126 -27q61 0 99 24.5t45 71.5q7 45 -22.5 67t-82.5 22h-60l3 21h57q52 0 83 25t36 61q6 37 -21 61.5t-76 24.5q-66 0 -129 -27l4 23
q59 25 128 25q57 0 90 -32t26 -78z" />
    <glyph glyph-name="four.sinf" horiz-adv-x="389" 
d="M260 308h23l-45 -288h86l-2 -20h-87l-16 -100h-22l16 100h-239l3 19zM216 20l40 256l-251 -256h211z" />
    <glyph glyph-name="five.sinf" horiz-adv-x="351" 
d="M66 308h234l-3 -21h-214l-36 -163q48 14 95 14q62 0 101.5 -31t30.5 -93q-9 -54 -54.5 -87t-111.5 -33q-76 0 -127 27l4 21q51 -27 122 -27q59 0 98.5 27.5t46.5 75.5q8 51 -26 75t-91 24q-58 0 -115 -19z" />
    <glyph glyph-name="six.sinf" horiz-adv-x="373" 
d="M305 271q-34 22 -83 22q-159 0 -192 -203q76 58 153 58q55 0 90.5 -33.5t25.5 -93.5q-9 -60 -53 -93.5t-104 -33.5q-80 0 -114.5 53.5t-19.5 146.5q19 113 75.5 166.5t138.5 53.5q48 0 86 -22zM277 22q9 52 -20 78.5t-79 26.5q-80 0 -151 -63q-6 -72 23 -110.5t91 -38.5
q53 0 90.5 27.5t45.5 79.5z" />
    <glyph glyph-name="seven.sinf" horiz-adv-x="300" 
d="M51 -100h-25l232 387h-244l4 21h269l-4 -19z" />
    <glyph glyph-name="eight.sinf" horiz-adv-x="395" 
d="M41 217q7 40 48 68.5t111 28.5q67 0 101 -33t28 -77q-11 -71 -85 -109q77 -35 67 -98q-8 -43 -51.5 -73t-122.5 -30q-78 0 -114.5 34.5t-28.5 85.5q13 74 98 114q-59 29 -51 89zM171 99q-47 14 -58 19q-85 -35 -96 -105q-7 -44 23 -71t98 -27t106.5 24.5t44.5 60.5
q3 18 -3 32.5t-14.5 23.5t-29 18t-32.5 13t-39 12zM307 204q6 36 -21.5 62.5t-86.5 26.5q-60 0 -95 -22.5t-41 -56.5q-9 -54 63 -81q9 -3 43 -14q9 -2 27.5 -7.5t27.5 -7.5q73 35 83 100z" />
    <glyph glyph-name="nine.sinf" horiz-adv-x="372" 
d="M14 187q9 59 53.5 93t104.5 34q78 0 112.5 -53.5t20.5 -146.5q-19 -113 -75 -166.5t-139 -53.5q-50 0 -85 22l2 21q35 -22 83 -22q159 0 192 203q-78 -58 -153 -58q-55 0 -90.5 33.5t-25.5 93.5zM36 186q-8 -52 21 -78.5t78 -26.5q80 0 151 64q6 71 -23 109.5t-91 38.5
q-53 0 -91 -28t-45 -79z" />
    <glyph glyph-name="zero.sups" horiz-adv-x="431" 
d="M436 576q-15 -94 -68.5 -150t-138.5 -56q-86 0 -123 59t-21 155q15 94 68.5 150t139.5 56t122.5 -59t20.5 -155zM106 582q-13 -88 17.5 -139.5t105.5 -51.5q78 0 124.5 49t60.5 138q14 87 -16.5 139t-105.5 52q-78 0 -124.5 -49t-61.5 -138z" />
    <glyph glyph-name="one.sups" horiz-adv-x="247" 
d="M215 780h16l-61 -387h79l-4 -21h-203l4 21h102l58 363l-99 -35l3 21z" />
    <glyph glyph-name="two.sups" horiz-adv-x="341" 
d="M120 755q60 35 128 35q56 0 90 -28t26 -75q-7 -46 -42 -76t-98 -63q-38 -20 -53 -29t-41 -28.5t-38.5 -42t-17.5 -51.5h250l-4 -21h-275l2 13q5 35 20 62.5t42 49.5t46 33.5t56 30.5q33 17 49.5 27t37 26t31 33t13.5 39q7 36 -20.5 57.5t-74.5 21.5q-65 0 -131 -38z" />
    <glyph glyph-name="three.sups" horiz-adv-x="355" 
d="M362 680q-6 -32 -30.5 -58t-64.5 -35q40 -6 63.5 -32.5t16.5 -72.5q-8 -53 -52.5 -82.5t-111.5 -29.5q-76 0 -131 26l4 22q52 -27 126 -27q61 0 99 24.5t45 71.5q7 45 -22.5 67t-82.5 22h-60l3 21h57q52 0 83 25t36 61q6 37 -21 61.5t-76 24.5q-66 0 -129 -27l4 23
q59 25 128 25q57 0 90 -32t26 -78z" />
    <glyph glyph-name="four.sups" horiz-adv-x="388" 
d="M334 780h23l-45 -288h86l-2 -20h-87l-16 -100h-22l16 100h-239l3 19zM290 492l40 256l-251 -256h211z" />
    <glyph glyph-name="five.sups" horiz-adv-x="350" 
d="M140 780h234l-3 -21h-214l-36 -163q48 14 95 14q62 0 101.5 -31t30.5 -93q-9 -54 -54.5 -87t-111.5 -33q-76 0 -127 27l4 21q51 -27 122 -27q59 0 98.5 27.5t46.5 75.5q8 51 -26 75t-91 24q-58 0 -115 -19z" />
    <glyph glyph-name="six.sups" horiz-adv-x="372" 
d="M380 747q-34 22 -83 22q-159 0 -192 -203q76 58 153 58q55 0 90.5 -33.5t25.5 -93.5q-9 -60 -53 -93.5t-104 -33.5q-80 0 -114.5 53.5t-19.5 146.5q19 113 75.5 166.5t138.5 53.5q48 0 86 -22zM352 498q9 52 -20 78.5t-79 26.5q-80 0 -151 -63q-6 -72 23 -110.5t91 -38.5
q53 0 90.5 27.5t45.5 79.5z" />
    <glyph glyph-name="seven.sups" horiz-adv-x="300" 
d="M126 372h-25l232 387h-244l4 21h269l-4 -19z" />
    <glyph glyph-name="eight.sups" horiz-adv-x="395" 
d="M116 693q7 40 48 68.5t111 28.5q67 0 101 -33t28 -77q-11 -71 -85 -109q77 -35 67 -98q-8 -43 -51.5 -73t-122.5 -30q-78 0 -114.5 34.5t-28.5 85.5q13 74 98 114q-59 29 -51 89zM246 575q-47 14 -58 19q-85 -35 -96 -105q-7 -44 23 -71t98 -27q67 0 106 24.5t45 60.5
q3 18 -3 32.5t-14.5 23.5t-29 18t-32.5 13t-39 12zM382 680q6 36 -21.5 62.5t-86.5 26.5q-60 0 -95 -22.5t-41 -56.5q-4 -28 14 -48t32.5 -26.5t51.5 -17.5q5 -2 8 -3q9 -2 27.5 -7.5t27.5 -7.5q73 35 83 100z" />
    <glyph glyph-name="nine.sups" horiz-adv-x="373" 
d="M90 663q9 59 53.5 93t104.5 34q78 0 112.5 -53.5t20.5 -146.5q-19 -113 -75 -166.5t-139 -53.5q-50 0 -85 22l2 21q35 -22 83 -22q159 0 192 203q-78 -58 -153 -58q-55 0 -90.5 33.5t-25.5 93.5zM112 662q-8 -52 21 -78.5t78 -26.5q80 0 151 64q6 71 -23 109.5t-91 38.5
q-53 0 -91 -28t-45 -79z" />
    <glyph glyph-name="zero.tf" 
d="M44 346q25 157 110.5 250.5t214.5 93.5t185.5 -98.5t31.5 -257.5q-25 -156 -111 -250t-215 -94t-185 98.5t-31 257.5zM561 337q24 149 -26 239t-167 90q-119 0 -197 -87t-102 -236t26 -239t167 -90q119 0 197 87t102 236z" />
    <glyph glyph-name="one.tf" 
d="M392 680h17l-104 -656h222l-4 -24h-487l4 24h240l100 628l-225 -79l4 24z" />
    <glyph glyph-name="two.tf" 
d="M147 630q104 60 222 60q101 0 157.5 -46t43.5 -123q-6 -39 -26 -71.5t-57 -60.5t-65.5 -45.5t-80.5 -45.5q-10 -5 -15 -8q-7 -4 -34.5 -18t-36.5 -19t-33.5 -19t-34.5 -21.5t-30 -22t-29.5 -25.5t-24 -28t-22 -33.5t-15.5 -37t-12 -42.5h447l-5 -24h-473l3 17q7 45 27 84
t41 64t61 53.5t63.5 41.5t73.5 39q14 7 21 11q49 26 65.5 35t55.5 33.5t55.5 42t34 45.5t22.5 59q10 64 -38.5 103t-140.5 39q-113 0 -222 -63z" />
    <glyph glyph-name="three.tf" 
d="M556 509q-9 -56 -50.5 -99.5t-110.5 -56.5q69 -12 109 -57t28 -119q-14 -89 -88 -138t-186 -49q-143 0 -225 44l3 24q87 -45 221 -45q104 0 171 44t80 124q13 78 -40 118.5t-145 40.5h-108l4 23h105q92 0 145 43t63 105q10 66 -37.5 111t-140.5 45q-110 0 -217 -45l4 25
q98 43 216 43q102 0 156.5 -52t42.5 -129z" />
    <glyph glyph-name="four.tf" 
d="M484 680h28l-78 -486h140l-3 -24h-140l-27 -170h-25l27 170h-403l3 21zM409 194l73 452l-443 -452h370z" />
    <glyph glyph-name="five.tf" 
d="M178 680h398l-4 -24h-374l-65 -293q81 26 174 26q71 0 124 -19.5t83 -66.5t19 -115q-14 -89 -90.5 -143.5t-187.5 -54.5q-135 0 -217 46l3 23q89 -46 212 -46q104 0 173 49t82 130q14 88 -44.5 131t-162.5 43q-102 0 -198 -33z" />
    <glyph glyph-name="six.tf" 
d="M559 630q-57 36 -135 36q-275 0 -330 -350l-3 -20q123 114 265 114q92 0 150 -54.5t42 -155.5q-16 -97 -89.5 -153.5t-170.5 -56.5q-131 0 -186.5 88t-31.5 242q30 190 122.5 280t231.5 90q80 0 139 -36zM523 203q14 91 -36 137t-135 46q-68 0 -138 -32t-126 -88
q-8 -120 42.5 -186.5t156.5 -66.5q90 0 156 50.5t80 139.5z" />
    <glyph glyph-name="seven.tf" 
d="M126 680h494l-3 -20l-422 -660h-28l420 656h-465z" />
    <glyph glyph-name="eight.tf" 
d="M550 159q-11 -70 -85 -119.5t-193 -49.5q-133 0 -195.5 57.5t-48.5 143.5q20 126 169 190q-105 51 -90 148q11 67 78 114t183 47q110 0 167 -55t46 -125q-17 -113 -149 -185q65 -26 96.5 -64.5t21.5 -101.5zM53 190q-12 -77 43 -127t177 -50q107 0 174 44t77 106
q6 40 -5.5 68.5t-47.5 48.5t-61.5 29.5t-82.5 25.5q-7 2 -10 3q-68 20 -98 32q-70 -26 -113 -73t-53 -107zM317 361q43 -12 92 -26q129 66 147 176q9 60 -40.5 108t-147.5 48q-105 0 -166 -40.5t-70 -100.5q-6 -37 6 -65t45 -47t55 -27.5t66 -21.5q9 -3 13 -4z" />
    <glyph glyph-name="nine.tf" 
d="M82 480q16 97 89.5 153.5t170.5 56.5q129 0 185.5 -88.5t32.5 -241.5q-30 -190 -122.5 -280t-231.5 -90q-80 0 -139 36l4 24q57 -36 135 -36q275 0 330 350l3 20q-123 -114 -265 -114q-93 0 -150.5 54.5t-41.5 155.5zM107 476q-14 -91 35.5 -136.5t135.5 -45.5
q68 0 138.5 32t125.5 88q8 120 -42.5 186.5t-156.5 66.5q-90 0 -156 -51t-80 -140z" />
    <glyph glyph-name="zero.tosf" 
d="M578 257q-17 -108 -101.5 -187.5t-214.5 -79.5q-128 0 -190.5 81.5t-45.5 190.5q18 108 104 188t212 80q127 0 190.5 -82t45.5 -191zM51 259q-15 -99 40.5 -172t170.5 -73q121 0 198.5 73t92.5 174q16 98 -40.5 171.5t-170.5 73.5q-117 0 -196 -73.5t-95 -173.5z" />
    <glyph glyph-name="one.tosf" 
d="M365 520h17l-78 -496h222l-4 -24h-487l4 24h240l74 468l-224 -79l3 24z" />
    <glyph glyph-name="two.tosf" 
d="M498 0h-470l3 19q7 44 32.5 78.5t66 58t78.5 38.5t88 29q106 30 158.5 62.5t61.5 88.5q10 59 -37.5 96t-134.5 37q-120 0 -228 -63l4 26q103 60 226 60q98 0 152 -43.5t42 -116.5q-10 -64 -67 -100t-168 -68q-102 -30 -168.5 -71t-77.5 -107h443z" />
    <glyph glyph-name="three.tosf" 
d="M528 349q-9 -56 -50.5 -99.5t-110.5 -56.5q69 -12 109 -57t28 -119q-14 -89 -87 -138t-183 -49q-145 0 -227 44l3 24q87 -45 223 -45q102 0 168 44t79 124q13 78 -40 118.5t-145 40.5h-106l4 23h103q92 0 145 43t63 105q10 66 -36.5 111t-137.5 45q-112 0 -219 -45l4 25
q98 43 218 43q100 0 153.5 -52.5t41.5 -128.5z" />
    <glyph glyph-name="four.tosf" 
d="M460 518h28l-78 -486h138l-3 -24h-138l-27 -170h-25l27 170h-403l3 21zM385 32l73 451l-442 -451h369z" />
    <glyph glyph-name="five.tosf" 
d="M154 520h396l-4 -24h-372l-65 -293q81 26 168 26q113 0 179.5 -50t50.5 -151q-14 -89 -91 -143.5t-191 -54.5q-129 0 -211 46l3 23q89 -46 206 -46q107 0 176.5 48.5t82.5 130.5q14 88 -45 131t-166 43q-96 0 -192 -33z" />
    <glyph glyph-name="six.tosf" 
d="M559 630q-57 36 -135 36q-275 0 -330 -350l-3 -20q123 114 265 114q92 0 150 -54.5t42 -155.5q-16 -97 -89.5 -153.5t-170.5 -56.5q-131 0 -186.5 88t-31.5 242q30 190 122.5 280t231.5 90q80 0 139 -36zM523 203q14 91 -36 137t-135 46q-68 0 -138 -32t-126 -88
q-8 -120 42.5 -186.5t156.5 -66.5q90 0 156 50.5t80 139.5z" />
    <glyph glyph-name="seven.tosf" 
d="M98 520h497l-3 -20l-442 -660h-28l439 656h-466z" />
    <glyph glyph-name="eight.tosf" 
d="M550 159q-11 -70 -85 -119.5t-193 -49.5q-135 0 -196.5 57.5t-47.5 144.5q20 125 169 189q-105 51 -90 148q11 67 77.5 114t182.5 47q110 0 167.5 -55t46.5 -125q-17 -113 -149 -185q65 -26 96.5 -64.5t21.5 -101.5zM53 190q-12 -77 43 -127t177 -50q107 0 174 44t77 106
q6 40 -5.5 68.5t-47.5 48.5t-61.5 29.5t-82.5 25.5q-7 2 -10 3q-68 20 -98 32q-70 -26 -113 -73t-53 -107zM317 361q43 -12 92 -26q129 66 147 176q9 60 -41 108t-148 48q-105 0 -165.5 -41t-69.5 -100q-6 -37 6 -65t45 -47t55 -27.5t66 -21.5q9 -3 13 -4z" />
    <glyph glyph-name="nine.tosf" 
d="M56 320q16 97 89.5 153.5t170.5 56.5q129 0 185.5 -88.5t32.5 -241.5q-30 -190 -122.5 -280t-231.5 -90q-80 0 -139 36l4 24q57 -36 135 -36q275 0 330 350l3 20q-123 -114 -265 -114q-93 0 -150.5 54.5t-41.5 155.5zM81 317q-14 -90 36 -136.5t135 -46.5q68 0 138.5 32
t125.5 88q8 120 -42.5 186.5t-156.5 66.5q-90 0 -156 -50.5t-80 -139.5z" />
    <glyph glyph-name="zero.dnom" horiz-adv-x="431" 
d="M376 200q-15 -94 -68.5 -150t-138.5 -56q-86 0 -123 59t-21 155q15 94 68.5 150t139.5 56t122.5 -59t20.5 -155zM46 206q-13 -88 17.5 -139.5t105.5 -51.5q78 0 124.5 49t60.5 138q14 87 -16.5 139t-105.5 52q-78 0 -124.5 -49t-61.5 -138z" />
    <glyph glyph-name="one.dnom" horiz-adv-x="247" 
d="M156 408h16l-61 -387h79l-4 -21h-203l4 21h102l58 363l-99 -35l3 21z" />
    <glyph glyph-name="two.dnom" horiz-adv-x="340" 
d="M60 379q60 35 128 35q56 0 90 -28t26 -75q-7 -46 -42 -76t-98 -63q-38 -20 -53 -29t-41 -28.5t-38.5 -42t-17.5 -51.5h250l-4 -21h-275l2 13q5 35 20 62.5t42 49.5t46 33.5t56 30.5q33 17 49.5 27t37 26t31 33t13.5 39q7 36 -20.5 57.5t-74.5 21.5q-65 0 -131 -38z" />
    <glyph glyph-name="three.dnom" horiz-adv-x="355" 
d="M303 304q-6 -32 -30.5 -58t-64.5 -35q40 -6 63.5 -32.5t16.5 -72.5q-8 -53 -52.5 -82.5t-111.5 -29.5q-76 0 -131 26l4 22q52 -27 126 -27q61 0 99 24.5t45 71.5q7 45 -22.5 67t-82.5 22h-60l3 21h57q52 0 83 25t36 61q6 37 -21 61.5t-76 24.5q-66 0 -129 -27l4 23
q59 25 128 25q57 0 90 -32t26 -78z" />
    <glyph glyph-name="four.dnom" horiz-adv-x="388" 
d="M275 408h23l-45 -288h86l-2 -20h-87l-16 -100h-22l16 100h-239l3 19zM231 120l40 256l-251 -256h211z" />
    <glyph glyph-name="five.dnom" horiz-adv-x="350" 
d="M81 408h234l-3 -21h-214l-36 -163q48 14 95 14q62 0 101.5 -31t30.5 -93q-9 -54 -54.5 -87t-111.5 -33q-76 0 -127 27l4 21q51 -27 122 -27q59 0 98.5 27.5t46.5 75.5q8 51 -26 75t-91 24q-58 0 -115 -19z" />
    <glyph glyph-name="six.dnom" horiz-adv-x="373" 
d="M321 371q-34 22 -83 22q-159 0 -192 -203q76 58 153 58q55 0 90.5 -33.5t25.5 -93.5q-9 -60 -53 -93.5t-104 -33.5q-80 0 -114.5 53.5t-19.5 146.5q19 113 75.5 166.5t138.5 53.5q48 0 86 -22zM293 122q9 52 -20 78.5t-79 26.5q-80 0 -151 -63q-6 -72 23 -110.5t91 -38.5
q53 0 90.5 27.5t45.5 79.5z" />
    <glyph glyph-name="seven.dnom" horiz-adv-x="300" 
d="M67 0h-25l232 387h-244l4 21h269l-4 -19z" />
    <glyph glyph-name="eight.dnom" horiz-adv-x="395" 
d="M57 317q7 40 48 68.5t111 28.5q67 0 101 -33t28 -77q-11 -71 -85 -109q77 -35 67 -98q-8 -43 -51.5 -73t-122.5 -30q-78 0 -114.5 34.5t-28.5 85.5q13 74 98 114q-59 29 -51 89zM187 199q-47 14 -58 19q-85 -35 -96 -105q-7 -44 23 -71t98 -27t106.5 24.5t44.5 60.5
q3 18 -3 32.5t-14.5 23.5t-29 18t-32.5 13t-39 12zM323 304q6 36 -21.5 62.5t-86.5 26.5q-60 0 -95 -22.5t-41 -56.5q-4 -28 14 -48t32.5 -26.5t51.5 -17.5q5 -2 8 -3q9 -2 27.5 -7.5t27.5 -7.5q73 35 83 100z" />
    <glyph glyph-name="nine.dnom" horiz-adv-x="373" 
d="M30 287q9 59 53.5 93t104.5 34q78 0 112.5 -53.5t20.5 -146.5q-19 -113 -75 -166.5t-139 -53.5q-50 0 -85 22l2 21q35 -22 83 -22q159 0 192 203q-78 -58 -153 -58q-55 0 -90.5 33.5t-25.5 93.5zM52 286q-8 -52 21 -78.5t78 -26.5q80 0 151 64q6 71 -23 109.5t-91 38.5
q-53 0 -91 -28t-45 -79z" />
    <glyph glyph-name="zero.numr" horiz-adv-x="431" 
d="M420 476q-15 -94 -68.5 -150t-138.5 -56q-86 0 -123 59t-21 155q15 94 68.5 150t139.5 56t122.5 -59t20.5 -155zM90 482q-13 -88 17.5 -139.5t105.5 -51.5q78 0 124.5 49t60.5 138q14 87 -16.5 139t-105.5 52q-78 0 -124.5 -49t-61.5 -138z" />
    <glyph glyph-name="one.numr" horiz-adv-x="246" 
d="M199 680h16l-61 -387h79l-4 -21h-203l4 21h102l58 363l-99 -35l3 21z" />
    <glyph glyph-name="two.numr" horiz-adv-x="341" 
d="M104 655q60 35 128 35q56 0 90 -28t26 -75q-7 -46 -42 -76t-98 -63q-38 -20 -53 -29t-41 -28.5t-38.5 -42t-17.5 -51.5h250l-4 -21h-275l2 13q5 35 20 62.5t42 49.5t46 33.5t56 30.5q33 17 49.5 27t37 26t31 33t13.5 39q7 36 -20.5 57.5t-74.5 21.5q-65 0 -131 -38z" />
    <glyph glyph-name="three.numr" horiz-adv-x="354" 
d="M346 580q-6 -32 -30.5 -58t-64.5 -35q40 -6 63.5 -32.5t16.5 -72.5q-8 -53 -52.5 -82.5t-111.5 -29.5q-76 0 -131 26l4 22q52 -27 126 -27q61 0 99 24.5t45 71.5q7 45 -22.5 67t-82.5 22h-60l3 21h57q52 0 83 25t36 61q6 37 -21 61.5t-76 24.5q-66 0 -129 -27l4 23
q59 25 128 25q57 0 90 -32t26 -78z" />
    <glyph glyph-name="four.numr" horiz-adv-x="388" 
d="M318 680h23l-45 -288h86l-2 -20h-87l-16 -100h-22l16 100h-239l3 19zM274 392l40 256l-251 -256h211z" />
    <glyph glyph-name="five.numr" horiz-adv-x="350" 
d="M124 680h234l-3 -21h-214l-36 -163q48 14 95 14q62 0 101.5 -31t30.5 -93q-9 -54 -54.5 -87t-111.5 -33q-76 0 -127 27l4 21q51 -27 122 -27q59 0 98.5 27.5t46.5 75.5q8 51 -26 75t-91 24q-58 0 -115 -19z" />
    <glyph glyph-name="six.numr" horiz-adv-x="373" 
d="M365 647q-34 22 -83 22q-159 0 -192 -203q76 58 153 58q55 0 90.5 -33.5t25.5 -93.5q-9 -60 -53 -93.5t-104 -33.5q-80 0 -114.5 53.5t-19.5 146.5q19 113 75.5 166.5t138.5 53.5q48 0 86 -22zM337 398q9 52 -20 78.5t-79 26.5q-80 0 -151 -63q-6 -72 23 -110.5t91 -38.5
q53 0 90.5 27.5t45.5 79.5z" />
    <glyph glyph-name="seven.numr" horiz-adv-x="300" 
d="M110 272h-25l232 387h-244l4 21h269l-4 -19z" />
    <glyph glyph-name="eight.numr" horiz-adv-x="395" 
d="M100 593q7 40 48 68.5t111 28.5q67 0 101 -33t28 -77q-11 -71 -85 -109q77 -35 67 -98q-8 -43 -51.5 -73t-122.5 -30q-78 0 -114.5 34.5t-28.5 85.5q13 74 98 114q-59 29 -51 89zM230 475q-47 14 -58 19q-85 -35 -96 -105q-7 -44 23 -71t98 -27q67 0 106 24.5t45 60.5
q3 18 -3 32.5t-14.5 23.5t-29 18t-32.5 13t-39 12zM366 580q6 36 -21.5 62.5t-86.5 26.5q-60 0 -95 -22.5t-41 -56.5q-9 -54 63 -81q9 -3 43 -14q9 -2 27.5 -7.5t27.5 -7.5q73 35 83 100z" />
    <glyph glyph-name="nine.numr" horiz-adv-x="373" 
d="M74 563q9 59 53.5 93t104.5 34q78 0 112.5 -53.5t20.5 -146.5q-19 -113 -75 -166.5t-139 -53.5q-50 0 -85 22l2 21q35 -22 83 -22q159 0 192 203q-78 -58 -153 -58q-55 0 -90.5 33.5t-25.5 93.5zM96 562q-8 -52 21 -78.5t78 -26.5q80 0 151 64q6 71 -23 109.5t-91 38.5
q-53 0 -91 -28t-45 -79z" />
    <glyph glyph-name="emdash.case" horiz-adv-x="761" 
d="M690 338h-607l3 24h607z" />
    <glyph glyph-name="endash.case" horiz-adv-x="579" 
d="M508 338h-425l3 24h425z" />
    <glyph glyph-name="hyphen.case" horiz-adv-x="497" 
d="M86 362h344l-4 -24h-343z" />
    <glyph glyph-name="guillemotleft.case" horiz-adv-x="433" 
d="M337 179h-25l-93 167l1 9l144 166h28l-149 -172zM188 179h-25l-93 167l1 9l144 166h28l-149 -172z" />
    <glyph glyph-name="guillemotright.case" horiz-adv-x="434" 
d="M237 179h-28l149 172l-94 170h26l92 -167l-1 -9zM88 179h-28l149 172l-94 170h26l92 -167l-1 -9z" />
    <glyph glyph-name="guilsinglleft.case" horiz-adv-x="284" 
d="M188 179h-25l-93 167l1 9l144 166h28l-149 -172z" />
    <glyph glyph-name="guilsinglright.case" horiz-adv-x="285" 
d="M88 179h-28l149 172l-94 170h26l92 -167l-1 -9z" />
    <glyph glyph-name="cent.tf" 
d="M529 450l-4 -23q-49 41 -132 41l-72 -456q85 3 149 40l-3 -25q-65 -35 -150 -37l-17 -110h-22l17 110q-99 5 -158 70t-41 182q18 116 99.5 179t179.5 68l17 111h22l-17 -110q81 -2 132 -40zM371 467q-57 -4 -107.5 -28t-91 -76t-52.5 -124q-17 -104 36 -163t143 -64z" />
    <glyph glyph-name="currency.tf" 
d="M171 206l-76 -65l-14 17l75 65q-44 52 -31 129q12 76 71 127l-54 63l20 17l54 -65q57 42 129 42q69 0 119 -42l75 65l14 -17l-75 -65q44 -51 31 -129q-10 -74 -70 -127l53 -63l-19 -17l-54 65q-59 -42 -130 -42q-70 0 -118 42zM149 348q-11 -71 31 -116t110 -45
q71 0 127.5 45.5t68.5 119.5q11 71 -30.5 116t-110.5 45q-71 0 -127.5 -45.5t-68.5 -119.5z" />
    <glyph glyph-name="dollar.tf" 
d="M258 -130h-22l18 120q-130 7 -213 58l3 25q98 -59 226 -59q57 0 104.5 13t83.5 46.5t44 84.5q7 44 -12.5 76t-56 51.5t-81 35.5l-89 32t-80.5 37t-54.5 56t-10.5 83q13 77 86.5 118.5t160.5 42.5l18 120h22l-18 -120q99 -5 173 -48l-4 -24q-82 48 -190 48
q-50 0 -96 -13.5t-82.5 -46.5t-44.5 -80q-7 -43 12 -74t55 -50t80.5 -34.5t89.5 -32.5t81 -38t54.5 -57t11.5 -84q-13 -84 -84.5 -125t-166.5 -41z" />
    <glyph glyph-name="Euro.tf" 
d="M635 646q-54 20 -128 20q-75 0 -145 -25t-130.5 -81t-90.5 -136h369l-4 -22h-372q-8 -25 -13 -56q-5 -30 -5 -68h370l-4 -22h-365q10 -113 91 -177.5t195 -64.5q78 0 138 22l-4 -25q-60 -21 -136 -21q-123 0 -211 71t-98 195h-88l4 22h83q-1 32 5 72q3 18 11 52h-79l4 22
h82q31 87 96 149t141 89.5t156 27.5q72 0 132 -21z" />
    <glyph glyph-name="sterling.tf" 
d="M519 0h-521l4 24h31q81 0 98 98l32 205h-81l4 24h81l18 114q18 117 88.5 171t162.5 54q78 0 135 -39l-4 -24q-55 39 -131 39q-83 0 -146.5 -48t-80.5 -154l-17 -113h256l-4 -24h-256l-33 -206q-11 -78 -62 -97h430z" />
    <glyph glyph-name="yen.tf" 
d="M614 680h27l-310 -376h178l-4 -22h-189l-16 -98h190l-4 -22h-190l-26 -162h-24l25 162h-189l4 22h189l16 98h-190l4 22h177l-191 376h27l188 -374z" />
    </font>
</defs>
</svg>
