<svg width="28" height="28" viewBox="0 0 28 28" fill="none" xmlns="http://www.w3.org/2000/svg">
<path d="M24.7789 16.6632L21.9133 10.2976L18.807 11.6921L19.0148 12.157C18.3531 12.3703 17.6258 12.4195 16.8875 12.2992C16.4062 12.2226 15.9195 12.2226 15.4437 12.2992C15.0664 12.3593 14.689 12.4742 14.3336 12.6328C14.1695 12.7039 14.0109 12.7914 13.8523 12.8898L12.4687 13.5679C12.2554 13.5296 12.0422 13.5023 11.8289 13.4914C11.0742 13.4585 10.3633 13.2617 9.75076 12.9171L10.0461 12.5125L7.27341 10.5164L3.19373 16.182L5.95544 18.1726L6.25076 17.7679C6.77576 18.2382 7.18591 18.8507 7.45388 19.5562C7.47576 19.6164 7.49763 19.671 7.52498 19.7312L7.17498 20.2125C6.82498 20.6992 6.93435 21.3828 7.42107 21.7328C7.57419 21.8421 7.75466 21.9132 7.93513 21.9296C7.93513 21.9843 7.9406 22.039 7.94607 22.0937C7.99529 22.3781 8.14841 22.6296 8.38357 22.8046C8.56951 22.9414 8.79373 23.0125 9.01794 23.0125C9.05076 23.0125 9.0781 23.0125 9.11091 23.007C9.17107 23.2476 9.31326 23.4718 9.53201 23.6304C9.72341 23.7671 9.94763 23.8382 10.1664 23.8382C10.2812 23.8382 10.3961 23.8218 10.5054 23.7835C10.582 23.9531 10.7023 24.1007 10.8554 24.2101C11.0414 24.3468 11.2656 24.4179 11.4898 24.4179C11.55 24.4179 11.6101 24.4125 11.6648 24.4015C11.9547 24.3523 12.2062 24.1992 12.3758 23.964L12.5945 23.6578L13.639 24.2593C13.825 24.3687 14.0328 24.4179 14.2297 24.4179C14.5523 24.4179 14.864 24.2867 15.0828 24.0351C15.2031 23.8929 15.2906 23.7289 15.3343 23.5484C15.5476 23.6195 15.7719 23.6359 16.0015 23.5976C16.3734 23.5375 16.6961 23.3351 16.9148 23.0289C17.057 22.8265 17.15 22.5914 17.1719 22.3507C17.1828 22.2414 17.1828 22.132 17.1664 22.0281C17.5492 22.0062 17.9156 21.8367 18.1672 21.5304C18.3804 21.2734 18.4898 20.9617 18.4898 20.6335C18.5664 20.639 18.6484 20.6335 18.7304 20.6171C19.0312 20.5679 19.2937 20.4039 19.4687 20.1578C19.6164 19.95 19.7093 19.7093 19.7367 19.4523C19.7367 19.4414 19.7367 19.425 19.7422 19.414C19.8187 19.3156 19.8898 19.2117 19.9554 19.1078C20.3547 18.4734 20.8742 17.9648 21.4703 17.6093L21.6726 18.0523L24.7789 16.6632ZM23.7672 16.275L22.0609 17.0406L19.8242 12.0695L21.5304 11.3039L23.7672 16.275ZM7.44841 11.5882L8.96873 12.682L5.90623 16.9257L5.78044 17.1007L4.26013 16.007L7.44841 11.5882ZM7.79841 20.6609L8.27419 19.9992L8.30154 19.9609C8.35076 19.8898 8.42732 19.846 8.50935 19.8296C8.52576 19.8296 8.54216 19.8242 8.5531 19.8242C8.55857 19.8242 8.55857 19.8242 8.56404 19.8242C8.58044 19.8242 8.59138 19.8242 8.60779 19.8296C8.61326 19.8296 8.61326 19.8296 8.61873 19.8296C8.62966 19.8296 8.6406 19.8351 8.65701 19.8406C8.65701 19.8406 8.66248 19.8406 8.66794 19.8406C8.67888 19.846 8.69529 19.8515 8.70622 19.857C8.71169 19.857 8.71169 19.8625 8.71716 19.8625C8.7281 19.8679 8.74451 19.8789 8.75544 19.8843C8.78826 19.9117 8.82107 19.939 8.84294 19.9773C8.87029 20.0265 8.88669 20.0812 8.89216 20.1359C8.89216 20.1523 8.89216 20.1632 8.89216 20.1796C8.89216 20.196 8.88669 20.2125 8.88122 20.2234C8.87576 20.2507 8.86482 20.2726 8.85388 20.2945C8.84841 20.3054 8.83748 20.3164 8.83201 20.3328L8.32888 21.0328C8.27966 21.1039 8.2031 21.1476 8.12107 21.164C8.03357 21.1804 7.95154 21.1585 7.88044 21.1093C7.72732 21.0054 7.69451 20.8031 7.79841 20.6609ZM8.83748 22.1867C8.76638 22.1375 8.72263 22.0609 8.70622 21.9789C8.68982 21.8914 8.71169 21.8093 8.76091 21.7382L9.88748 20.1742C9.93669 20.1031 10.0133 20.0593 10.0953 20.0429C10.1117 20.0429 10.1281 20.0375 10.1445 20.0375C10.15 20.0375 10.15 20.0375 10.1554 20.0375C10.1718 20.0375 10.1828 20.0375 10.1992 20.0429C10.2047 20.0429 10.2047 20.0429 10.2047 20.0429C10.2156 20.0429 10.232 20.0484 10.2429 20.0539H10.2484C10.2648 20.0593 10.2758 20.0648 10.2867 20.0703C10.2922 20.0703 10.2922 20.0757 10.2976 20.0757C10.3086 20.0812 10.325 20.0921 10.3359 20.0976C10.4289 20.1632 10.4781 20.2781 10.4672 20.3929C10.4672 20.4093 10.4617 20.4203 10.4617 20.4367C10.4617 20.4421 10.4562 20.4476 10.4562 20.4531C10.4562 20.4585 10.4508 20.4695 10.4508 20.475C10.4508 20.4804 10.4453 20.4859 10.4453 20.4914C10.4398 20.4968 10.4398 20.5078 10.4343 20.5132C10.4289 20.5187 10.4234 20.5242 10.4234 20.5351C10.4179 20.5406 10.4179 20.546 10.4125 20.5515L9.28591 22.1156C9.23669 22.1867 9.16013 22.2304 9.0781 22.2468C8.9906 22.2578 8.9031 22.2359 8.83748 22.1867ZM9.98044 23.0125C9.83826 22.9085 9.80544 22.7062 9.90935 22.564L11.0359 21C11.0468 20.9835 11.0578 20.9726 11.0742 20.9562C11.0797 20.9507 11.0797 20.9507 11.0851 20.9453C11.0961 20.9343 11.1125 20.9234 11.1289 20.9125C11.1344 20.9125 11.1343 20.907 11.1398 20.907C11.1562 20.9015 11.1672 20.8906 11.1836 20.8851C11.189 20.8851 11.189 20.8851 11.189 20.8796C11.2054 20.8742 11.2219 20.8687 11.2437 20.8632C11.2492 20.8632 11.2547 20.8632 11.2601 20.8578C11.2656 20.8578 11.2656 20.8578 11.2711 20.8578C11.282 20.8578 11.2929 20.8578 11.2984 20.8578H11.3039C11.3203 20.8578 11.3367 20.8578 11.3531 20.8632C11.3695 20.8632 11.3859 20.8687 11.3968 20.8742C11.3968 20.8742 11.3969 20.8742 11.4023 20.8742C11.4187 20.8796 11.4297 20.8851 11.4461 20.8906C11.4461 20.8906 11.4515 20.8906 11.4515 20.896C11.4625 20.9015 11.4789 20.9125 11.4898 20.9179C11.55 20.9617 11.5883 21.0218 11.6101 21.0875C11.6211 21.1257 11.6265 21.1695 11.6211 21.2132C11.6156 21.2679 11.5937 21.3226 11.5609 21.3718L10.4343 22.9359C10.325 23.0835 10.1281 23.1164 9.98044 23.0125ZM11.5445 23.6414C11.457 23.6578 11.375 23.6359 11.3039 23.5867C11.2328 23.5375 11.189 23.4609 11.1726 23.3789C11.1562 23.2914 11.1781 23.2093 11.2273 23.1382L11.7304 22.4382C11.7414 22.4273 11.7469 22.4164 11.7578 22.4054C11.7633 22.4 11.7687 22.3945 11.7742 22.389C11.7851 22.3781 11.7961 22.3726 11.807 22.3617C11.8125 22.3562 11.8179 22.3507 11.8234 22.3507C11.8343 22.3453 11.8508 22.3398 11.8617 22.3343C11.8672 22.3289 11.8726 22.3289 11.8781 22.3234C11.9 22.3179 11.9164 22.3125 11.9383 22.307C11.9547 22.307 11.9711 22.3015 11.982 22.3015C11.9875 22.3015 11.9875 22.3015 11.9929 22.3015C12.0093 22.3015 12.0203 22.3015 12.0367 22.307C12.0422 22.307 12.0422 22.307 12.0476 22.307C12.0586 22.307 12.0695 22.3125 12.0859 22.3179H12.0914C12.1023 22.3234 12.1187 22.3289 12.1297 22.3343C12.1351 22.3343 12.1351 22.3398 12.1406 22.3398C12.1515 22.3453 12.1679 22.3562 12.1789 22.3617C12.2718 22.4273 12.3211 22.5421 12.3101 22.657C12.3047 22.7117 12.2828 22.7664 12.25 22.8156L11.7578 23.5156C11.7031 23.5812 11.632 23.6304 11.5445 23.6414ZM18.9765 19.3812C18.9656 19.5015 18.9219 19.6164 18.8508 19.7148C18.7906 19.7968 18.7086 19.846 18.6101 19.8625C18.5117 19.8789 18.4133 19.857 18.3367 19.7968L17.9101 19.4906L17.0734 18.889C16.9039 18.7632 16.6633 18.807 16.5375 18.9765C16.4117 19.146 16.4554 19.3867 16.625 19.5125L17.4617 20.114C17.6093 20.2179 17.6968 20.3765 17.7242 20.5515C17.7461 20.7265 17.6968 20.9015 17.582 21.0437C17.3742 21.3007 16.9695 21.339 16.6851 21.1367L16.6031 21.0765L16.5976 21.071L15.564 20.3273C15.3945 20.2015 15.1539 20.2453 15.0281 20.4148C14.9023 20.5843 14.9461 20.825 15.1156 20.9507L16.1492 21.6945C16.3297 21.8257 16.4281 22.05 16.4062 22.2796C16.3953 22.3945 16.357 22.4984 16.2914 22.5859C16.1929 22.7226 16.0453 22.8156 15.8758 22.8429C15.7062 22.8703 15.5367 22.832 15.4 22.7281L14.8968 22.3671C14.8968 22.3671 14.8914 22.3671 14.8914 22.3617L13.9125 21.6562C13.7429 21.5304 13.5023 21.5742 13.3765 21.7437C13.2508 21.9132 13.2945 22.1539 13.464 22.2796L14.4429 22.9851C14.525 23.0453 14.5797 23.1382 14.5906 23.2421C14.6015 23.346 14.5687 23.45 14.5031 23.532C14.3883 23.6632 14.1804 23.6906 14.0164 23.5921L13.0156 23.0125C13.0211 23.0015 13.0265 22.9851 13.0265 22.9742C13.032 22.9632 13.032 22.9523 13.0375 22.9468C13.0429 22.9359 13.0429 22.9195 13.0484 22.9085C13.0484 22.8976 13.0539 22.8921 13.0539 22.8812C13.0593 22.8648 13.0594 22.8484 13.0648 22.8375C13.0648 22.8265 13.0703 22.821 13.0703 22.8101C13.0758 22.7882 13.0758 22.7609 13.0812 22.739C13.1195 22.3507 12.95 21.9734 12.6328 21.7437C12.6054 21.7218 12.5781 21.7054 12.5508 21.689C12.5398 21.6835 12.5344 21.6781 12.5234 21.6726C12.5015 21.6617 12.4851 21.6507 12.4633 21.6398C12.4523 21.6343 12.4414 21.6289 12.4304 21.6234C12.414 21.6179 12.3922 21.607 12.3703 21.6015C12.3593 21.596 12.3484 21.5906 12.332 21.5906C12.3265 21.5906 12.3156 21.5851 12.3101 21.5851V21.5796C12.3156 21.5687 12.3211 21.5523 12.3265 21.5359C12.332 21.525 12.332 21.5195 12.3375 21.5085C12.3429 21.4921 12.3484 21.4812 12.3484 21.4648C12.3484 21.4539 12.3539 21.4484 12.3539 21.4375C12.3594 21.421 12.3594 21.4046 12.3648 21.3882C12.3648 21.3828 12.3703 21.3718 12.3703 21.3664C12.3758 21.3445 12.3758 21.3171 12.3812 21.2953C12.4195 20.9343 12.2718 20.5789 11.9929 20.3492C11.9765 20.3328 11.9547 20.3164 11.9383 20.3054C11.9109 20.2835 11.8781 20.2671 11.8508 20.2507C11.8398 20.2453 11.8343 20.2398 11.8234 20.2343C11.8015 20.2234 11.7797 20.2125 11.7578 20.2015C11.7469 20.196 11.7359 20.1906 11.7304 20.1906C11.7086 20.1796 11.6867 20.1742 11.6593 20.1632C11.6484 20.1578 11.6429 20.1578 11.632 20.1523C11.6047 20.1468 11.5828 20.1359 11.5554 20.1304C11.55 20.1304 11.539 20.125 11.5336 20.125C11.5062 20.1195 11.4789 20.114 11.4515 20.1085C11.4461 20.1085 11.4406 20.1085 11.4351 20.1085C11.4078 20.1031 11.375 20.1031 11.3476 20.1031C11.3422 20.1031 11.3367 20.1031 11.3367 20.1031C11.3039 20.1031 11.2711 20.1031 11.2437 20.1031H11.2383C11.2328 20.1031 11.2273 20.1031 11.2218 20.1031C11.2218 20.0976 11.2164 20.0921 11.2164 20.0867C11.2109 20.0648 11.2054 20.0429 11.2 20.021C11.2 20.0101 11.1945 20.0046 11.189 19.9937C11.1836 19.9718 11.1726 19.95 11.1617 19.9281C11.1617 19.9226 11.1562 19.9171 11.1562 19.9171C11.1453 19.8898 11.1343 19.8679 11.1179 19.8406C11.1125 19.8351 11.1125 19.8296 11.107 19.8187C11.0961 19.8023 11.0851 19.7804 11.0742 19.764C11.0687 19.7585 11.0633 19.7476 11.0578 19.7421C11.0414 19.7203 11.0304 19.6984 11.014 19.682L11.0086 19.6765C10.9922 19.6546 10.9703 19.6328 10.9539 19.6109C10.9484 19.6054 10.9429 19.6 10.9375 19.5945C10.9211 19.5781 10.9047 19.5617 10.8883 19.5507C10.8828 19.5453 10.8773 19.5398 10.8664 19.5343C10.8445 19.5179 10.8226 19.496 10.7953 19.4796C10.5601 19.3101 10.2703 19.239 9.98591 19.2882C9.9531 19.2937 9.92029 19.2992 9.89294 19.3101C9.88747 19.3101 9.87654 19.3156 9.87107 19.3156C9.84373 19.321 9.81638 19.332 9.78904 19.3429C9.78357 19.3429 9.78357 19.3429 9.7781 19.3484C9.75076 19.3593 9.71794 19.3703 9.6906 19.3867C9.68513 19.3921 9.67419 19.3921 9.66873 19.3976C9.64685 19.4085 9.61951 19.425 9.59763 19.4359C9.59216 19.4359 9.58669 19.4414 9.58669 19.4414C9.55935 19.4578 9.53201 19.4742 9.51013 19.496C9.50466 19.5015 9.49919 19.507 9.49373 19.5125C9.48279 19.5179 9.47732 19.5289 9.46638 19.5343C9.44998 19.5125 9.43357 19.4906 9.41716 19.4687C9.41169 19.4632 9.40622 19.4578 9.40076 19.4523C9.38982 19.4359 9.37341 19.4195 9.36247 19.4085C9.35701 19.4031 9.35154 19.3976 9.3406 19.3867C9.32419 19.3703 9.31326 19.3593 9.29685 19.3484C9.29138 19.3429 9.28591 19.3375 9.27498 19.332C9.2531 19.3156 9.23122 19.2992 9.20935 19.2828C8.97419 19.1132 8.68435 19.0421 8.39998 19.0914C8.36716 19.0968 8.33435 19.1023 8.30701 19.1132C8.30154 19.1132 8.2906 19.1187 8.28513 19.1187C8.25232 19.1296 8.22498 19.1351 8.19216 19.146H8.18669C8.16482 19.1515 8.14841 19.1625 8.12654 19.1679C7.80388 18.375 7.31716 17.6859 6.70466 17.1554L9.30232 13.5515C9.81638 13.8578 10.3906 14.071 11.0031 14.1804L10.675 17.4125C10.6258 17.8992 10.9812 18.3312 11.4625 18.3804C11.9164 18.4242 12.3539 18.2929 12.7039 18.0085C13.0539 17.7242 13.2726 17.314 13.3219 16.8656L13.4093 16.0179C13.8523 16.0015 14.2844 15.8703 14.6672 15.646L18.7195 18.7742C18.7468 18.796 18.7633 18.8125 18.7742 18.8234L18.7797 18.8289C18.7851 18.8343 18.7961 18.8453 18.8015 18.8507L18.8125 18.8617C18.8179 18.8671 18.8179 18.8726 18.8234 18.8726L18.8343 18.8835C18.8398 18.889 18.8453 18.8945 18.8508 18.9L18.8836 18.9492C18.9 18.971 18.9109 18.9929 18.9164 19.0093L18.9219 19.0203C18.9273 19.0312 18.9273 19.0367 18.9328 19.0476C18.9383 19.0585 18.9437 19.0695 18.9437 19.0804C18.9492 19.0914 18.9492 19.1023 18.9547 19.1132L18.9656 19.146C18.9711 19.1734 18.9765 19.2007 18.982 19.2226V19.2335C18.982 19.2445 18.982 19.2554 18.9875 19.2664V19.2718V19.2992C18.982 19.321 18.982 19.3539 18.9765 19.3812ZM19.4742 18.457L19.4687 18.446C19.4633 18.4406 19.4633 18.4406 19.4578 18.4351C19.4468 18.4187 19.4359 18.4078 19.425 18.3968C19.425 18.3968 19.425 18.3968 19.4195 18.3914C19.414 18.3859 19.4086 18.3804 19.4031 18.3695C19.3976 18.364 19.3976 18.364 19.3922 18.3585C19.3867 18.3476 19.3758 18.3421 19.3703 18.3312L19.3648 18.3257C19.3539 18.3148 19.3484 18.3093 19.3375 18.2984C19.3265 18.2875 19.3211 18.2765 19.3101 18.271C19.2719 18.2328 19.2336 18.2 19.1789 18.1562L14.6726 14.6781L14.4375 14.8531C14.0492 15.1429 13.5734 15.2796 13.0867 15.2304L12.7039 15.1921L12.5453 16.7726C12.5179 17.0187 12.3976 17.2429 12.2062 17.4015C12.0148 17.5601 11.7687 17.6312 11.5226 17.6039C11.457 17.5984 11.4133 17.5382 11.4187 17.4781L11.6922 14.7929L13.65 13.8304L14.1914 13.5625L14.2242 13.546C14.3664 13.4585 14.5031 13.3875 14.6398 13.3273C14.9351 13.196 15.2469 13.0976 15.5586 13.0484C15.9523 12.9828 16.357 12.9828 16.7562 13.0484C17.6422 13.196 18.5226 13.125 19.3211 12.857L21.1422 16.9093C20.5023 17.2812 19.9281 17.8062 19.4742 18.457Z" fill="#0FB5CD"/>
<path d="M22.482 16.5265C22.5039 16.5265 22.5203 16.532 22.5422 16.532C22.6734 16.532 22.7992 16.4882 22.8976 16.4062C23.0125 16.3078 23.089 16.1765 23.1054 16.0234C23.1383 15.7117 22.9086 15.4328 22.5968 15.4C22.2851 15.3672 22.0062 15.5968 21.9734 15.9086C21.9461 16.2203 22.1757 16.4992 22.482 16.5265ZM22.3562 15.9468C22.3672 15.8539 22.4437 15.7828 22.5367 15.7828C22.5422 15.7828 22.5476 15.7828 22.5531 15.7828C22.6023 15.7882 22.6461 15.8101 22.6789 15.8484C22.7117 15.8867 22.7226 15.9359 22.7172 15.9851C22.7117 16.0343 22.6898 16.0781 22.6515 16.1109C22.6133 16.1437 22.564 16.1546 22.5148 16.1492C22.4218 16.1382 22.3507 16.0453 22.3562 15.9468Z" fill="#0FB5CD"/>
<path d="M6.032 15.925C6.06482 15.6133 5.83513 15.3344 5.52341 15.3016C5.21169 15.2688 4.93279 15.4985 4.89998 15.8102C4.88357 15.9633 4.92732 16.1109 5.02576 16.2258C5.12419 16.3406 5.25544 16.4172 5.40857 16.4336C5.43044 16.4336 5.44685 16.4391 5.46872 16.4391C5.75857 16.4336 6.00466 16.2203 6.032 15.925ZM5.32654 15.9852C5.29373 15.9469 5.28279 15.8977 5.28826 15.8485C5.29919 15.7555 5.37576 15.6844 5.46872 15.6844C5.47419 15.6844 5.47966 15.6844 5.48513 15.6844C5.58357 15.6953 5.66013 15.7828 5.64919 15.8867C5.63826 15.9852 5.55076 16.0617 5.44685 16.0508C5.4031 16.0453 5.35935 16.0234 5.32654 15.9852Z" fill="#0FB5CD"/>
<path d="M13.3821 9.86559C15.1157 9.86559 16.5266 8.45466 16.5266 6.72107C16.5266 4.98747 15.1157 3.57654 13.3821 3.57654C11.6485 3.57654 10.2375 4.98747 10.2375 6.72107C10.2375 8.45466 11.6485 9.86559 13.3821 9.86559ZM13.3821 4.34763C14.6946 4.34763 15.761 5.41404 15.761 6.72653C15.761 8.03903 14.6946 9.10544 13.3821 9.10544C12.0696 9.10544 11.0032 8.03903 11.0032 6.72653C11.0032 5.41404 12.0696 4.34763 13.3821 4.34763Z" fill="#0FB5CD"/>
<path d="M12.7969 7.57422C12.8516 7.63438 12.9227 7.68359 13.0047 7.72187C13.0867 7.76016 13.1852 7.7875 13.2945 7.79844V7.94062C13.2945 7.98438 13.3 8.01719 13.3164 8.03906C13.3328 8.06094 13.3547 8.07188 13.3875 8.07188C13.4258 8.07188 13.4477 8.06094 13.4586 8.03359C13.4695 8.00625 13.475 7.96797 13.475 7.91328V7.80391C13.6117 7.79297 13.7266 7.75469 13.825 7.69453C13.9234 7.63438 14 7.55781 14.0492 7.46484C14.0984 7.37188 14.1258 7.26797 14.1258 7.15859C14.1258 7.07109 14.1094 6.99453 14.0766 6.91797C14.0437 6.84688 14 6.78125 13.9398 6.73203C13.8852 6.68281 13.8195 6.64453 13.7539 6.61719C13.6828 6.58984 13.5898 6.5625 13.4695 6.52969V5.93906C13.5898 5.97734 13.6664 6.05938 13.6937 6.17422C13.7211 6.27266 13.7812 6.32734 13.8742 6.32734C13.9234 6.32734 13.9672 6.31094 14 6.27266C14.0328 6.23437 14.0547 6.19609 14.0547 6.14688C14.0547 6.10313 14.0437 6.05938 14.0219 6.00469C14 5.95547 13.9672 5.90078 13.9234 5.85703C13.8687 5.79141 13.8031 5.74766 13.732 5.71484C13.6609 5.68203 13.5734 5.66016 13.4695 5.65469V5.50156C13.4695 5.425 13.4367 5.38672 13.3766 5.38672C13.3164 5.38672 13.2891 5.425 13.2891 5.50703V5.66016C13.0922 5.67656 12.9445 5.73672 12.8352 5.84063C12.7258 5.94453 12.6875 6.07031 12.6875 6.23438C12.6875 6.36016 12.7148 6.46406 12.7695 6.54062C12.8242 6.62266 12.8898 6.68281 12.9773 6.72656C13.0648 6.77031 13.1688 6.80859 13.2945 6.84687V7.50859C13.2289 7.49219 13.1797 7.46484 13.1414 7.43203C13.1031 7.39922 13.0758 7.36094 13.0539 7.31719C13.032 7.27344 13.0102 7.21875 12.9883 7.13672C12.9773 7.09844 12.9555 7.07109 12.9281 7.05469C12.9008 7.03281 12.8625 7.02734 12.8187 7.02734C12.7641 7.02734 12.7203 7.04375 12.6875 7.08203C12.6547 7.12031 12.6328 7.15859 12.6328 7.20781C12.6328 7.26797 12.6437 7.33359 12.6711 7.39922C12.6984 7.45391 12.7422 7.51406 12.7969 7.57422ZM13.475 6.89609C13.5734 6.92891 13.65 6.96719 13.6992 7.01094C13.7484 7.05469 13.7758 7.12031 13.7758 7.20234C13.7758 7.27891 13.7484 7.34453 13.6992 7.40469C13.6445 7.46484 13.5734 7.50313 13.475 7.51953V6.89609ZM13.1031 6.37109C13.0594 6.33281 13.043 6.27813 13.043 6.20156C13.043 6.125 13.0648 6.06484 13.1086 6.02656C13.1523 5.98828 13.218 5.95547 13.2945 5.93359V6.48047C13.2125 6.44219 13.1469 6.40938 13.1031 6.37109Z" fill="#0FB5CD"/>
</svg>
