<svg width="28" height="23" viewBox="0 0 28 23" fill="none" xmlns="http://www.w3.org/2000/svg">
<g clip-path="url(#clip0)">
<path d="M11.0215 6.46308C11.0215 4.86196 12.4371 3.47145 14.0675 3.47284C15.6672 3.47424 16.9699 4.81454 16.9699 6.45889C16.9699 8.13672 15.6589 9.44634 13.9824 9.44634C12.3785 9.44495 11.0215 8.07814 11.0215 6.46308Z" fill="#0FB5CD"/>
<path d="M6.33128 19.3124C5.0607 19.311 3.76642 18.3501 3.49446 17.1478C3.17367 15.7308 3.60185 14.424 5.00771 13.6499C5.22807 13.5286 5.50143 13.4616 5.75526 13.4491C6.24341 13.4254 6.73434 13.4491 7.22388 13.4728C7.36335 13.4798 7.51259 13.5258 7.63671 13.5941C8.59487 14.1213 9.20854 14.887 9.28525 16.0181C9.35917 17.1004 9.02723 18.0167 8.1667 18.7043C7.63253 19.1297 7.0091 19.311 6.33128 19.3124Z" fill="#0FB5CD"/>
<path d="M21.2204 19.3166C19.8563 19.357 18.516 17.8717 18.5384 16.3626C18.5635 14.6583 19.9679 13.3473 21.6569 13.3961C23.2789 13.4435 24.5635 14.8285 24.4909 16.4784C24.4282 17.9442 23.2873 19.4561 21.2204 19.3166Z" fill="#0FB5CD"/>
<path d="M21.6261 10.424C21.8242 10.4421 22.1017 10.4575 22.3765 10.4937C22.6666 10.5328 22.8563 10.7002 22.9051 10.9944C22.9832 11.4533 22.9902 11.9136 22.8911 12.371C22.8409 12.6011 22.7015 12.7587 22.4727 12.8271C21.88 13.0056 21.2886 12.9875 20.7001 12.7992C20.4797 12.7281 20.35 12.5691 20.2844 12.3543C20.1422 11.8884 20.1394 11.4226 20.2928 10.9596C20.3974 10.643 20.6122 10.4617 20.9609 10.4561C21.1561 10.4533 21.35 10.438 21.6261 10.424Z" fill="#0FB5CD"/>
<path d="M10.5621 6.38357C10.5468 6.62067 10.5384 6.85358 10.5133 7.0865C10.477 7.43099 10.3124 7.61927 9.97493 7.70435C9.57465 7.80477 9.17019 7.80198 8.76573 7.72806C8.39613 7.65972 8.18274 7.43099 8.11161 7.06279C8.02653 6.62625 8.02793 6.18692 8.10045 5.75177C8.18553 5.24549 8.40589 5.04884 8.93588 5.01816C9.25666 5.00003 9.58163 5.01258 9.90101 5.04326C10.2832 5.08092 10.4645 5.27339 10.5091 5.65414C10.5398 5.89682 10.5468 6.14229 10.5621 6.38357Z" fill="#0FB5CD"/>
<path d="M12.6472 11.1311C12.6653 10.9707 12.6737 10.8089 12.7044 10.6513C12.795 10.1757 13 9.99443 13.5691 9.8982C13.9777 9.82846 14.3878 9.83683 14.7964 9.9247C15.1144 9.99304 15.3013 10.1771 15.3668 10.4993C15.4491 10.9024 15.4603 11.3054 15.392 11.7099C15.3194 12.1367 15.1995 12.2859 14.7713 12.3236C14.2971 12.3654 13.8173 12.3529 13.3403 12.3417C13.0684 12.3361 12.8787 12.1674 12.7992 11.9135C12.7197 11.6625 12.6793 11.3989 12.6221 11.1409C12.6304 11.1381 12.6388 11.1353 12.6472 11.1311Z" fill="#0FB5CD"/>
<path d="M18.0931 16.2594C18.0736 16.5397 18.0652 16.7503 18.0415 16.9609C17.9997 17.3389 17.8379 17.5216 17.4711 17.6039C17.075 17.6932 16.6747 17.6959 16.2758 17.6304C15.9244 17.5732 15.7096 17.364 15.644 17.0111C15.5576 16.5523 15.5492 16.0906 15.6315 15.6332C15.7179 15.1576 15.916 14.9582 16.3972 14.9205C16.7444 14.894 17.0987 14.9135 17.446 14.947C17.7542 14.9763 17.955 15.1715 18.0053 15.4812C18.0513 15.7601 18.0694 16.0432 18.0931 16.2594Z" fill="#0FB5CD"/>
<path d="M2.90088 16.205C2.88553 16.4923 2.88275 16.6932 2.86182 16.8926C2.8158 17.325 2.6833 17.4756 2.25931 17.5746C1.83114 17.675 1.39878 17.6667 0.966427 17.5858C0.785116 17.5523 0.648436 17.4547 0.592648 17.2887C0.514544 17.053 0.435046 16.8103 0.415521 16.5662C0.390416 16.2469 0.395995 15.9191 0.436441 15.6025C0.490834 15.1715 0.712592 14.9637 1.21608 14.9275C1.63449 14.8968 2.05987 14.9331 2.47828 14.9735C2.73909 14.9986 2.78372 15.0628 2.81719 15.3291C2.85764 15.6471 2.87856 15.9693 2.90088 16.205Z" fill="#0FB5CD"/>
<path d="M21.6131 22.2733C21.3858 22.2566 21.157 22.2524 20.9325 22.2203C20.4806 22.1576 20.2826 21.9735 20.2254 21.5146C20.1877 21.219 20.178 20.9135 20.2086 20.6178C20.2616 20.0948 20.5085 19.848 21.0538 19.8033C21.4555 19.7713 21.8655 19.788 22.2658 19.8298C22.6745 19.8717 22.8976 20.113 22.9199 20.5272C22.9408 20.9191 22.9339 21.3152 22.8906 21.7043C22.853 22.0362 22.6814 22.1646 22.3481 22.2176C22.277 22.2287 22.2058 22.2454 22.1333 22.2468C21.9604 22.251 21.7888 22.2482 21.6159 22.2482C21.6131 22.258 21.6131 22.265 21.6131 22.2733Z" fill="#0FB5CD"/>
<path d="M7.77944 21.0265C7.76689 21.1994 7.75294 21.371 7.74039 21.5425C7.71947 21.8271 7.57163 22.0195 7.31082 22.1241C6.97331 22.2608 6.61905 22.2859 6.26201 22.2678C6.07373 22.258 5.88823 22.2218 5.70134 22.1911C5.33174 22.1297 5.12533 21.9024 5.05002 21.5453C4.96773 21.1478 4.96354 20.7504 5.0807 20.3584C5.20064 19.9582 5.40287 19.795 5.81989 19.7922C6.2634 19.788 6.70971 19.7894 7.15043 19.8285C7.52003 19.8619 7.69437 20.0711 7.73481 20.4449C7.75713 20.6374 7.7641 20.8326 7.77944 21.0265Z" fill="#0FB5CD"/>
<path d="M15.442 1.72382C15.428 1.92884 15.4183 2.13526 15.3973 2.33888C15.3597 2.69035 15.2021 2.87166 14.8576 2.95255C14.3583 3.06971 13.8534 3.07529 13.3499 2.97766C12.9204 2.89398 12.7781 2.74893 12.7474 2.30402C12.7223 1.94418 12.7293 1.57877 12.7642 1.22033C12.806 0.779609 12.9678 0.602482 13.4071 0.575983C13.8994 0.546694 14.396 0.564825 14.8883 0.599693C15.2146 0.622008 15.3597 0.808898 15.4001 1.13944C15.4099 1.21615 15.4238 1.29425 15.4266 1.37096C15.4308 1.48812 15.428 1.60527 15.428 1.72243C15.4322 1.72382 15.4364 1.72382 15.442 1.72382Z" fill="#0FB5CD"/>
<path d="M27.4327 16.3501C27.4104 16.6806 27.3992 16.9302 27.3755 17.1785C27.3546 17.3975 27.2332 17.5286 27.0115 17.5746C26.5443 17.6694 26.0756 17.7015 25.6014 17.636C25.2904 17.5927 25.1035 17.4282 25.0505 17.1171C24.9655 16.615 24.9571 16.1088 25.0296 15.6053C25.0994 15.1325 25.2542 14.9693 25.7284 14.9247C26.0798 14.8912 26.4383 14.9149 26.7925 14.9428C27.091 14.9665 27.2849 15.1604 27.3337 15.4519C27.3881 15.7754 27.4062 16.1032 27.4327 16.3501Z" fill="#0FB5CD"/>
<path d="M17.56 6.40722C17.56 6.15617 17.5363 5.90373 17.5656 5.65687C17.62 5.19662 17.7552 5.05296 18.2085 5.02228C18.5837 4.99718 18.9658 5.01252 19.341 5.0446C19.6492 5.0697 19.8236 5.23009 19.8375 5.53692C19.8626 6.12409 19.8543 6.71405 19.8417 7.30261C19.8375 7.50345 19.7078 7.63734 19.5028 7.68476C18.984 7.8047 18.4651 7.8047 17.9477 7.69034C17.7273 7.64152 17.5948 7.50484 17.5795 7.27472C17.56 6.98602 17.546 6.69731 17.5293 6.40861C17.5391 6.40861 17.5488 6.40722 17.56 6.40722Z" fill="#0FB5CD"/>
<path d="M12.2581 16.1618C12.2149 16.491 12.173 16.8494 12.1186 17.205C12.088 17.4059 11.9583 17.5258 11.763 17.5816C11.2902 17.7169 10.8188 17.7113 10.3488 17.5691C10.1577 17.5105 10.0392 17.3822 9.99034 17.1869C9.83413 16.5565 9.8146 15.9219 9.93176 15.2845C9.96384 15.1088 10.0643 15.0042 10.2498 14.9707C10.7867 14.8731 11.3223 14.8717 11.8592 14.9735C12.028 15.0056 12.1312 15.099 12.1535 15.2678C12.1912 15.5523 12.2205 15.8396 12.2581 16.1618Z" fill="#0FB5CD"/>
<path d="M6.46286 12.8062C6.18392 12.7866 5.96217 12.7769 5.74041 12.7546C5.33595 12.7127 5.14348 12.5593 5.10024 12.1604C5.06119 11.809 5.05701 11.4477 5.09327 11.0963C5.13511 10.6709 5.33316 10.4868 5.77667 10.47C6.28016 10.4505 6.78783 10.47 7.29132 10.5007C7.59954 10.5203 7.65254 10.597 7.70554 10.901C7.79201 11.3878 7.78783 11.8759 7.70136 12.3613C7.65533 12.6193 7.59815 12.6848 7.33874 12.7197C7.03051 12.7601 6.71949 12.7825 6.46286 12.8062Z" fill="#0FB5CD"/>
<path d="M6.46267 9.8689C6.78485 9.88703 7.10842 9.89679 7.4292 9.92747C7.78763 9.96095 8.00521 10.1939 8.14886 10.5021C8.17118 10.5495 8.14189 10.622 8.13631 10.6834C8.07773 10.6653 8.01637 10.6527 7.96197 10.6262C7.92989 10.6095 7.902 10.5732 7.88526 10.5397C7.72906 10.2329 7.44872 10.159 7.14189 10.159C6.60772 10.159 6.07355 10.1688 5.54077 10.1841C5.34273 10.1897 5.17676 10.2734 5.07215 10.4561C5.03868 10.5132 4.99823 10.5732 4.94663 10.6109C4.89503 10.6485 4.8239 10.6611 4.76113 10.6862C4.75556 10.6206 4.72487 10.5425 4.74998 10.4909C4.89642 10.1925 5.1112 9.96234 5.46267 9.92887C5.79461 9.8954 6.12794 9.88703 6.46267 9.8689Z" fill="#0FB5CD"/>
<path d="M12.8176 16.1492C12.7743 16.5467 12.7409 16.9456 12.6851 17.3403C12.6544 17.5565 12.5358 17.735 12.3462 17.8549C12.2862 17.8926 12.2137 17.933 12.1481 17.9316C12.0867 17.9302 12.0268 17.8745 11.9668 17.8424C12.0128 17.7908 12.0561 17.6945 12.1049 17.6931C12.3448 17.6834 12.441 17.5244 12.448 17.3333C12.4745 16.6499 12.4828 15.9665 12.4842 15.2831C12.4842 15.0948 12.3754 14.9484 12.1969 14.8647C12.1718 14.8535 12.1425 14.841 12.1258 14.8215C12.0895 14.7782 12.0616 14.7294 12.0296 14.6834C12.0909 14.675 12.1565 14.6471 12.2109 14.6611C12.533 14.7489 12.7241 14.9958 12.7534 15.364C12.7729 15.6248 12.7827 15.8856 12.7966 16.1478C12.8036 16.1464 12.8106 16.1478 12.8176 16.1492Z" fill="#0FB5CD"/>
<path d="M19.6436 8.02372C19.737 7.94283 19.7914 7.88286 19.8569 7.83962C20.0215 7.73223 20.1401 7.58439 20.1415 7.39192C20.1484 6.75454 20.1415 6.11577 20.1317 5.47839C20.1289 5.30684 20.0299 5.17713 19.8807 5.08787C19.829 5.0558 19.7733 5.02093 19.7398 4.97351C19.6993 4.91493 19.6812 4.84241 19.6533 4.77546C19.7258 4.75872 19.7984 4.72386 19.8695 4.73083C20.0717 4.74896 20.2028 4.88704 20.2461 5.06416C20.3311 5.40726 20.4204 5.75594 20.4357 6.10601C20.4553 6.57044 20.4274 7.03906 20.3772 7.50071C20.3409 7.81591 19.9992 8.05161 19.6436 8.02372Z" fill="#0FB5CD"/>
<path d="M28.0003 16.1966C27.9599 16.583 27.9376 16.993 27.8692 17.3975C27.8162 17.7155 27.5652 17.887 27.2848 18.0083C27.2514 18.0223 27.204 18.0014 27.1621 17.9972C27.1705 17.9567 27.1663 17.9023 27.1914 17.8758C27.25 17.8103 27.3155 17.742 27.3922 17.7043C27.6 17.6025 27.6795 17.4268 27.6823 17.2162C27.6893 16.6443 27.6907 16.0725 27.6809 15.5007C27.6768 15.2761 27.5931 15.0781 27.3769 14.9609C27.3239 14.933 27.2695 14.8926 27.2374 14.8438C27.2026 14.7908 27.1928 14.721 27.1719 14.6597C27.2346 14.6555 27.3072 14.6262 27.356 14.6499C27.621 14.7768 27.8469 14.9567 27.9013 15.2594C27.9543 15.5579 27.9668 15.8647 28.0003 16.1966Z" fill="#0FB5CD"/>
<path d="M15.7897 0.776881C15.692 0.716908 15.5944 0.683436 15.5358 0.61649C15.2945 0.338945 14.9752 0.260841 14.6335 0.259447C14.2053 0.256657 13.7757 0.26642 13.3489 0.287341C13.1342 0.297104 12.9389 0.377996 12.7827 0.539782C12.706 0.619279 12.6195 0.691804 12.5302 0.757355C12.501 0.77967 12.4494 0.772696 12.4089 0.77967C12.4047 0.733645 12.388 0.682041 12.4019 0.641595C12.4201 0.591385 12.4605 0.54815 12.4954 0.506309C12.7646 0.185528 13.1146 0.0125849 13.5302 0.00700605C14.0086 3.25507e-05 14.4884 -0.00415155 14.964 0.0362948C15.3657 0.0697676 15.5986 0.372417 15.7966 0.693198C15.8022 0.700172 15.7938 0.721093 15.7897 0.776881Z" fill="#0FB5CD"/>
<path d="M23.2963 10.7168C23.1889 10.6373 23.0954 10.5927 23.0368 10.5202C22.8165 10.251 22.5208 10.1562 22.193 10.1548C21.7593 10.152 21.3255 10.1645 20.8918 10.1799C20.6491 10.1883 20.4399 10.2831 20.2725 10.4658C20.2056 10.5383 20.1233 10.5997 20.0424 10.6583C20.0159 10.6764 19.9587 10.6834 19.9378 10.668C19.9155 10.6499 19.9113 10.5983 19.9155 10.5634C19.9183 10.5327 19.9378 10.4993 19.9601 10.4756C20.2126 10.1827 20.4943 9.90513 20.903 9.90792C21.4971 9.91071 22.0926 9.94418 22.6826 10.0028C22.988 10.0307 23.2851 10.3961 23.2963 10.7168Z" fill="#0FB5CD"/>
<path d="M15.6898 12.1074C15.6982 12.4449 15.5057 12.7002 15.1835 12.7908C14.6954 12.9261 14.1947 12.9289 13.694 12.9052C13.4624 12.894 13.2281 12.8661 13.0008 12.8187C12.7302 12.7615 12.528 12.5998 12.429 12.3348C12.4094 12.2818 12.4359 12.212 12.4401 12.1507C12.4959 12.173 12.5531 12.1953 12.6075 12.2204C12.6214 12.2274 12.6354 12.2413 12.6424 12.2553C12.846 12.6109 13.1877 12.6653 13.5489 12.6625C13.9548 12.6597 14.3606 12.65 14.7665 12.636C15.0203 12.6262 15.2393 12.5272 15.422 12.3459C15.4987 12.2678 15.5852 12.1995 15.6898 12.1074Z" fill="#0FB5CD"/>
<path d="M23.2132 22.0014C23.2313 22.3319 23.0319 22.6248 22.6958 22.6806C22.2592 22.7545 21.8143 22.7852 21.3708 22.7992C21.096 22.8075 20.8157 22.7629 20.5423 22.7155C20.2676 22.6681 20.0681 22.4993 19.9594 22.2413C19.9357 22.1869 19.9649 22.1088 19.9691 22.0418C20.0263 22.0656 20.0821 22.0879 20.1393 22.113C20.149 22.1172 20.1574 22.1269 20.163 22.1367C20.3471 22.4519 20.6386 22.5523 20.9831 22.5467C21.4391 22.5398 21.8952 22.5425 22.3513 22.523C22.5912 22.5119 22.7962 22.3933 22.9691 22.2232C23.0375 22.1534 23.1142 22.0893 23.2132 22.0014Z" fill="#0FB5CD"/>
<path d="M0.81289 14.4686C0.76826 14.5551 0.750129 14.6109 0.715261 14.6527C0.630185 14.7545 0.540924 14.855 0.444689 14.947C0.264773 15.1186 0.136461 15.3236 0.128092 15.5704C0.112751 15.9916 0.112751 16.4156 0.125303 16.8368C0.135066 17.1395 0.317772 17.3598 0.525582 17.5621C0.62879 17.6625 0.716656 17.7797 0.811496 17.8884C0.797549 17.908 0.783602 17.9275 0.769655 17.9484C0.694341 17.9303 0.613448 17.9261 0.546503 17.8926C0.215959 17.7211 0.00675357 17.4533 0.00396417 17.0739C-0.00161463 16.4463 -0.00300933 15.8173 0.0332529 15.1911C0.0541734 14.8354 0.324745 14.6318 0.631579 14.4923C0.670631 14.4742 0.722235 14.4798 0.81289 14.4686Z" fill="#0FB5CD"/>
<path d="M4.74902 21.947C4.82573 22.0056 4.91778 22.0516 4.97636 22.1242C5.23996 22.4547 5.59421 22.5621 5.99728 22.5579C6.34177 22.5537 6.68766 22.5454 7.03215 22.5342C7.2818 22.5258 7.4938 22.4282 7.66953 22.2483C7.76995 22.1465 7.88013 22.0558 7.98891 21.9582C8.14094 22.1799 7.92057 22.5607 7.64861 22.5872C7.31109 22.6207 6.97357 22.6778 6.63605 22.6806C6.18138 22.6834 5.72392 22.6639 5.27064 22.6165C4.98333 22.583 4.75321 22.2818 4.74902 21.947Z" fill="#0FB5CD"/>
<path d="M15.9444 17.9219C15.6265 17.9567 15.4577 17.8884 15.3684 17.6569C15.2834 17.4309 15.2192 17.1882 15.1997 16.9498C15.1495 16.35 15.1327 15.7475 15.2471 15.152C15.3127 14.8103 15.4591 14.6541 15.7185 14.6234C15.7757 14.6164 15.8343 14.629 15.9486 14.6346C15.8538 14.7447 15.8008 14.8298 15.7269 14.887C15.4103 15.1352 15.2876 15.4644 15.2987 15.8549C15.3085 16.2385 15.3127 16.622 15.328 17.0055C15.3364 17.2217 15.4424 17.3947 15.5958 17.5453C15.7074 17.6555 15.8092 17.7754 15.9444 17.9219Z" fill="#0FB5CD"/>
<path d="M8.43765 8.02092C8.11548 8.0781 7.91603 7.99302 7.8212 7.72524C7.73751 7.48675 7.67057 7.23152 7.66359 6.98047C7.64686 6.45327 7.66638 5.92329 7.68451 5.39609C7.69428 5.08089 7.90627 4.89958 8.1629 4.7629C8.19916 4.74337 8.24518 4.74477 8.28702 4.73779C8.29818 4.74895 8.30934 4.7615 8.3205 4.77266C8.25495 4.86192 8.20334 4.96652 8.12245 5.03765C7.84909 5.27894 7.74588 5.5788 7.77099 5.93445C7.80306 6.3668 7.82677 6.80056 7.86304 7.23152C7.88535 7.49093 8.02064 7.68898 8.23403 7.83682C8.29958 7.88145 8.35397 7.94282 8.43765 8.02092Z" fill="#0FB5CD"/>
</g>
<defs>
<clipPath id="clip0">
<rect width="28" height="22.7992" fill="white"/>
</clipPath>
</defs>
</svg>
