<svg width="28" height="16" viewBox="0 0 28 16" fill="none" xmlns="http://www.w3.org/2000/svg">
<g clip-path="url(#clip0)">
<path d="M24.4985 3.67545C24.4741 6.31338 24.451 8.93774 24.428 11.5865C17.4934 11.6096 10.5751 11.6326 3.64328 11.6557C3.63921 11.5662 3.63379 11.5024 3.63379 11.4387C3.63379 8.91875 3.63379 6.39882 3.63379 3.87889C3.63379 3.66731 3.63379 3.66595 3.84672 3.66595C10.6606 3.66595 17.4744 3.66595 24.2883 3.66595C24.3507 3.66595 24.4144 3.67138 24.4985 3.67545Z" fill="#0FB5CD"/>
<path d="M21.7773 13.3131C21.8045 13.0879 21.8207 12.8614 21.8628 12.6404C21.9143 12.3759 22.0934 12.2091 22.3497 12.1521C22.8461 12.0409 23.3479 12.0382 23.847 12.1385C24.1806 12.205 24.4031 12.4125 24.4343 12.7475C24.4682 13.1313 24.4695 13.5233 24.4397 13.9071C24.4153 14.2177 24.1874 14.4103 23.8863 14.4333C23.4143 14.4686 22.9356 14.4916 22.4636 14.4591C22.0066 14.4265 21.8357 14.1933 21.8085 13.7064C21.8018 13.5775 21.8072 13.4473 21.8072 13.3171C21.7977 13.3144 21.7868 13.3144 21.7773 13.3131Z" fill="#0FB5CD"/>
<path d="M6.19992 13.4256C6.18636 13.6195 6.17958 13.8135 6.15923 14.0074C6.13211 14.261 5.97343 14.4251 5.74286 14.4984C5.19493 14.6747 4.63751 14.6869 4.07873 14.5486C3.79391 14.478 3.62574 14.2827 3.56064 14.002C3.47248 13.6182 3.47519 13.2289 3.53622 12.841C3.58776 12.5142 3.78171 12.3216 4.10992 12.266C4.61038 12.1792 5.11356 12.1751 5.61266 12.2565C5.99241 12.3189 6.15381 12.5332 6.17958 12.9536C6.18907 13.1096 6.18093 13.2669 6.18093 13.4242C6.18636 13.4242 6.19314 13.4242 6.19992 13.4256Z" fill="#0FB5CD"/>
<path d="M8.65448 12.1955C8.8769 12.2104 9.09797 12.2253 9.31904 12.2375C9.55096 12.2511 9.711 12.3705 9.82221 12.5685C10.0921 13.0445 10.0338 13.8935 9.70558 14.3316C9.57809 14.5025 9.40042 14.5662 9.20376 14.5947C8.76569 14.6571 8.33033 14.6503 7.89904 14.5418C7.49488 14.4401 7.32941 14.2841 7.31314 13.8773C7.29686 13.4582 7.3267 13.035 7.36468 12.6173C7.38909 12.3569 7.45148 12.3216 7.71595 12.2728C7.77427 12.262 7.83258 12.2484 7.89226 12.2443C8.14724 12.2253 8.40086 12.2118 8.65448 12.1955Z" fill="#0FB5CD"/>
<path d="M19.3902 2.86168C19.1271 2.83456 18.8626 2.81964 18.6022 2.77488C18.2984 2.72334 18.1167 2.5294 18.0556 2.22695C17.9797 1.85127 17.9743 1.47423 18.0448 1.09854C18.1248 0.668608 18.4286 0.478731 18.8287 0.45025C19.199 0.424481 19.576 0.420412 19.9436 0.463812C20.444 0.522131 20.623 0.70387 20.6691 1.20026C20.7017 1.55831 20.6827 1.9245 20.6407 2.28256C20.6027 2.61349 20.425 2.74911 20.0873 2.79929C20.0181 2.81014 19.9476 2.82506 19.8785 2.82777C19.7157 2.83184 19.5543 2.82913 19.3916 2.82913C19.3916 2.83998 19.3902 2.85083 19.3902 2.86168Z" fill="#0FB5CD"/>
<path d="M23.1701 2.85088C22.9381 2.83732 22.7035 2.83732 22.4743 2.80612C22.0213 2.74238 21.8775 2.61353 21.826 2.16054C21.7894 1.84046 21.788 1.50954 21.8246 1.18946C21.8803 0.701205 22.0511 0.523535 22.5462 0.465216C22.9191 0.421816 23.3043 0.415034 23.6759 0.458435C24.2307 0.522179 24.4409 0.754099 24.4748 1.33865C24.4938 1.66144 24.4477 1.99779 24.3771 2.31516C24.2971 2.67321 24.091 2.81019 23.7221 2.82918C23.539 2.83867 23.3545 2.83053 23.1701 2.83053C23.1701 2.83732 23.1701 2.8441 23.1701 2.85088Z" fill="#0FB5CD"/>
<path d="M15.7489 2.85625C15.4424 2.83591 15.2051 2.8237 14.9677 2.80471C14.7372 2.78708 14.5866 2.65146 14.5012 2.45073C14.2923 1.96383 14.2991 1.46066 14.4415 0.958842C14.4985 0.759472 14.668 0.642834 14.8552 0.572308C15.3936 0.372938 15.9442 0.363444 16.4962 0.496358C16.8435 0.579089 16.9886 0.85441 17.0021 1.17313C17.0211 1.58679 17.0035 2.00316 16.9723 2.41547C16.952 2.67994 16.895 2.73012 16.6305 2.76809C16.3172 2.81556 15.9985 2.83319 15.7489 2.85625Z" fill="#0FB5CD"/>
<path d="M4.84549 0.545227C5.09504 0.562858 5.33917 0.573709 5.58058 0.600834C5.84099 0.630671 6.01866 0.773079 6.09325 1.03077C6.22481 1.48783 6.22481 1.9476 6.11631 2.40873C6.06612 2.62302 5.93321 2.76136 5.7257 2.82646C5.17099 3.00006 4.60814 3.01905 4.0453 2.88478C3.71301 2.80611 3.53805 2.59589 3.52585 2.24598C3.51229 1.87029 3.52042 1.49054 3.55162 1.11486C3.57739 0.802917 3.79303 0.640165 4.09276 0.60219C4.34367 0.570996 4.59729 0.562858 4.84549 0.545227Z" fill="#0FB5CD"/>
<path d="M7.16211 1.48235C7.1716 1.37113 7.17838 1.22466 7.19873 1.08089C7.23806 0.805573 7.38047 0.623834 7.65443 0.610272C8.19287 0.584503 8.73537 0.579078 9.27245 0.614341C9.62779 0.637397 9.78105 0.844905 9.82716 1.20703C9.88006 1.6139 9.86107 2.014 9.76884 2.41545C9.72409 2.61211 9.61152 2.73282 9.42842 2.79114C8.87642 2.9661 8.31493 3.01085 7.74801 2.88879C7.3886 2.81148 7.25569 2.6311 7.20822 2.19845C7.18381 1.97196 7.17838 1.74411 7.16211 1.48235Z" fill="#0FB5CD"/>
<path d="M19.3457 14.5079C19.1599 14.4917 18.9063 14.4767 18.654 14.4469C18.376 14.4143 18.2159 14.2448 18.1766 13.9722C18.1142 13.5409 18.1034 13.1096 18.1942 12.681C18.2485 12.4274 18.4072 12.2647 18.6567 12.2131C19.2087 12.0992 19.7662 12.1141 20.3209 12.1901C20.5636 12.224 20.6938 12.3976 20.7494 12.6254C20.8539 13.0581 20.8593 13.4948 20.7725 13.9302C20.6952 14.314 20.5338 14.436 20.0971 14.4713C19.8679 14.4876 19.64 14.493 19.3457 14.5079Z" fill="#0FB5CD"/>
<path d="M12.0733 2.85767C11.7668 2.83597 11.5159 2.83462 11.2731 2.79257C11.1564 2.77223 11.0262 2.69764 10.9476 2.60677C10.5543 2.15378 10.5678 1.08233 11.1307 0.641545C11.3558 0.465231 11.6108 0.421831 11.8766 0.423187C12.1723 0.4259 12.472 0.432681 12.7636 0.481506C13.1407 0.545251 13.3265 0.766321 13.3536 1.24237C13.378 1.64925 13.3278 2.06019 13.3034 2.46843C13.2926 2.65152 13.1786 2.74917 12.9983 2.76681C12.6728 2.80207 12.3445 2.83191 12.0733 2.85767Z" fill="#0FB5CD"/>
<path d="M10.9277 13.408C10.963 13.1246 10.9969 12.8397 11.0335 12.5563C11.0539 12.403 11.1407 12.3176 11.2939 12.2891C11.869 12.1833 12.4467 12.167 13.0232 12.2606C13.3799 12.3189 13.5372 12.5088 13.5589 12.8899C13.5765 13.2019 13.5765 13.5179 13.5602 13.8298C13.5426 14.1689 13.3405 14.3927 13.0299 14.5012C12.5146 14.6829 11.987 14.6883 11.4662 14.5242C11.1217 14.4157 10.9915 14.2272 10.9698 13.8651C10.9603 13.7145 10.9521 13.5626 10.944 13.4121C10.9386 13.4107 10.9332 13.4094 10.9277 13.408Z" fill="#0FB5CD"/>
<path d="M17.1826 13.4324C17.1717 13.5992 17.1582 13.7661 17.15 13.9342C17.1351 14.2489 16.9506 14.432 16.6713 14.5188C16.1803 14.672 15.6785 14.6747 15.1794 14.5608C14.9149 14.5011 14.7413 14.3262 14.6816 14.0576C14.5691 13.5477 14.5935 13.0364 14.6952 12.5278C14.7291 12.3596 14.8484 12.2877 14.9949 12.2796C15.4588 12.2538 15.9226 12.2335 16.3878 12.2281C16.5478 12.2267 16.7079 12.2742 16.8679 12.2999C16.9886 12.3203 17.0632 12.3922 17.0808 12.5129C17.1242 12.8167 17.1622 13.1218 17.2016 13.427C17.1961 13.4297 17.1893 13.4311 17.1826 13.4324Z" fill="#0FB5CD"/>
<path d="M25.1689 7.52046C25.1934 7.27226 25.2218 6.95083 25.2557 6.62804C25.2747 6.45172 25.3697 6.35136 25.5528 6.31881C26.0749 6.22387 26.5944 6.22252 27.1165 6.32152C27.282 6.35272 27.3661 6.44223 27.3959 6.60769C27.5003 7.17054 27.4949 7.7361 27.4407 8.30302C27.4163 8.55393 27.263 8.71532 27.0352 8.80484C26.5618 8.98929 26.0844 8.99065 25.6124 8.80077C25.3805 8.70719 25.2313 8.54037 25.2164 8.2759C25.2029 8.0494 25.1879 7.82426 25.1689 7.52046Z" fill="#0FB5CD"/>
<path d="M0.499023 7.58418C0.531574 7.25597 0.562768 6.92911 0.59803 6.60089C0.615662 6.44086 0.707888 6.3527 0.86657 6.32151C1.39958 6.21843 1.93123 6.21979 2.46424 6.32286C2.61615 6.3527 2.70159 6.44086 2.72872 6.5914C2.83315 7.1773 2.83315 7.76592 2.76398 8.35454C2.7355 8.59731 2.56325 8.73158 2.35168 8.81295C1.88648 8.99062 1.41992 8.9852 0.956083 8.80617C0.668556 8.69496 0.54378 8.46982 0.535642 8.1728C0.530217 7.9775 0.534286 7.7822 0.534286 7.58825C0.52208 7.5869 0.51123 7.58554 0.499023 7.58418Z" fill="#0FB5CD"/>
<path d="M17.8934 14.2692C17.9517 14.3167 18.0033 14.3452 18.0372 14.3886C18.2474 14.6585 18.5336 14.7683 18.8618 14.7683C19.3433 14.7683 19.8247 14.7575 20.3062 14.7453C20.5029 14.7398 20.6575 14.653 20.7578 14.4754C20.7863 14.4238 20.8243 14.3723 20.8718 14.3397C20.9247 14.3031 20.9925 14.2882 21.0535 14.2651C21.0657 14.3397 21.1091 14.4265 21.086 14.4889C21.002 14.7168 20.827 14.87 20.5937 14.9216C20.3306 14.9785 20.0607 15.0152 19.7922 15.0274C19.3324 15.0477 18.8699 15.0572 18.4224 14.927C18.2894 14.889 18.1579 14.828 18.044 14.752C17.8866 14.6462 17.8351 14.4862 17.8934 14.2692Z" fill="#0FB5CD"/>
<path d="M0.784432 5.9079C0.720688 5.99063 0.689494 6.06116 0.6366 6.09371C0.305672 6.28765 0.236503 6.60095 0.237859 6.94408C0.240572 7.42013 0.248709 7.89617 0.263628 8.37222C0.270409 8.58109 0.350429 8.76011 0.54573 8.87133C0.610831 8.90795 0.66915 8.9622 0.716619 9.01916C0.746457 9.05442 0.747813 9.11274 0.762732 9.16021C0.709838 9.17242 0.644737 9.20903 0.60405 9.1914C0.342291 9.07748 0.132071 8.90388 0.0466265 8.61771C0.0208575 8.52005 0.000513614 8.41562 0.000513614 8.3139C0.000513614 7.7402 -0.00491143 7.16651 0.0195013 6.59417C0.0317076 6.30664 0.450792 5.93774 0.784432 5.9079Z" fill="#0FB5CD"/>
<path d="M27.2474 5.90788C27.2773 5.90923 27.3139 5.9011 27.3383 5.91466C27.6801 6.09911 28.0029 6.30933 28.0015 6.7569C28.0002 7.33059 27.9988 7.90429 27.9703 8.47799C27.9527 8.82655 27.7154 9.03948 27.4143 9.17918C27.3668 9.20088 27.2963 9.17511 27.238 9.1724C27.2542 9.11543 27.2664 9.05576 27.2908 9.00151C27.3031 8.97438 27.3329 8.94997 27.3614 8.93641C27.6747 8.78179 27.7479 8.49834 27.7493 8.18911C27.7506 7.68051 27.7398 7.17191 27.7276 6.66331C27.7221 6.46259 27.6326 6.30391 27.4658 6.1832C27.3749 6.1181 27.3017 6.02587 27.2217 5.9445C27.2285 5.93093 27.238 5.91873 27.2474 5.90788Z" fill="#0FB5CD"/>
<path d="M3.25234 0.786635C3.2008 0.541152 3.25912 0.364838 3.44086 0.276681C3.63752 0.181743 3.85045 0.101724 4.06338 0.0678173C4.66556 -0.0244084 5.27045 -0.0244084 5.86857 0.112574C5.99741 0.142412 6.1249 0.199375 6.24018 0.264475C6.31206 0.305163 6.3853 0.374332 6.41378 0.44757C6.44769 0.534371 6.43548 0.640159 6.44362 0.73781C6.36767 0.698479 6.27544 0.674066 6.21848 0.615747C6.00555 0.397389 5.74921 0.2916 5.44812 0.290244C4.98971 0.288888 4.52994 0.287531 4.07152 0.297025C3.81519 0.30245 3.60768 0.423158 3.44086 0.619815C3.39339 0.676778 3.32829 0.720179 3.25234 0.786635Z" fill="#0FB5CD"/>
<path d="M21.5525 14.2651C21.6149 14.318 21.6664 14.3492 21.7003 14.3926C21.9105 14.6625 22.1981 14.7683 22.5263 14.7683C23.0023 14.7696 23.477 14.7588 23.9531 14.7466C24.1551 14.7412 24.3165 14.6571 24.4183 14.4726C24.4522 14.4129 24.4983 14.3519 24.5525 14.3126C24.5973 14.28 24.6651 14.2773 24.7221 14.261C24.7275 14.3167 24.7546 14.3804 24.7356 14.4238C24.6068 14.7073 24.4128 14.9446 24.0914 14.9839C23.4187 15.0667 22.7419 15.0857 22.076 14.9215C21.9241 14.8836 21.7776 14.7968 21.6515 14.7018C21.5226 14.6042 21.4982 14.4536 21.5525 14.2651Z" fill="#0FB5CD"/>
<path d="M10.0973 0.793391C10.0105 0.710659 9.94404 0.659121 9.88979 0.596733C9.72432 0.402788 9.51275 0.303781 9.26455 0.298356C8.78308 0.288862 8.30296 0.292931 7.82149 0.292931C7.52311 0.292931 7.27492 0.402788 7.0864 0.640133C7.05114 0.68489 7.00095 0.720153 6.92772 0.78661C6.91009 0.70659 6.88703 0.656408 6.8911 0.607583C6.90602 0.414994 7.0213 0.275299 7.19354 0.221049C7.45395 0.139673 7.72384 0.0677914 7.99374 0.0393099C8.5064 -0.0162968 9.02178 -0.0095155 9.52631 0.113904C9.66601 0.147811 9.80299 0.207486 9.92641 0.282081C10.0946 0.3838 10.1543 0.546551 10.0973 0.793391Z" fill="#0FB5CD"/>
<path d="M12.1046 0C12.4016 0.0149189 12.6986 0.025769 12.9956 0.0474691C13.3767 0.0759506 13.6141 0.303802 13.7646 0.63473C13.785 0.67813 13.7605 0.741875 13.7578 0.796125C13.7104 0.781206 13.6588 0.774425 13.6181 0.748656C13.5693 0.717462 13.5205 0.675418 13.4893 0.626592C13.275 0.29024 12.9441 0.203439 12.5779 0.206152C12.1724 0.208864 11.7668 0.217002 11.3613 0.230564C11.1403 0.238702 10.9558 0.326859 10.8161 0.505885C10.7496 0.589973 10.6737 0.668636 10.591 0.739162C10.553 0.771712 10.492 0.775781 10.4404 0.793412C10.4377 0.736449 10.416 0.669993 10.4364 0.625236C10.5598 0.368903 10.732 0.151901 11.0223 0.0840882C11.1999 0.0420441 11.3857 0.0298377 11.5688 0.0189876C11.7465 0.00813756 11.9255 0.0162751 12.1046 0.0162751C12.1046 0.0108501 12.1046 0.00542504 12.1046 0Z" fill="#0FB5CD"/>
<path d="M17.3794 0.828716C17.3007 0.760903 17.2003 0.706653 17.1461 0.622564C16.9264 0.287568 16.5968 0.204836 16.2306 0.206192C15.8305 0.207549 15.4304 0.217042 15.0303 0.229249C14.8025 0.23603 14.6139 0.3269 14.4702 0.509995C14.3997 0.598152 14.3183 0.679527 14.2328 0.752765C14.2003 0.781247 14.1406 0.779891 14.0931 0.792097C14.0904 0.741915 14.0701 0.683596 14.0891 0.642908C14.2369 0.310624 14.4715 0.063785 14.8526 0.0515786C15.4575 0.032591 16.0624 0.0339473 16.6673 0.0515786C17.0267 0.0624287 17.2559 0.294349 17.4106 0.60222C17.4377 0.657827 17.4323 0.729709 17.4417 0.79481C17.42 0.80566 17.3997 0.817866 17.3794 0.828716Z" fill="#0FB5CD"/>
<path d="M12.3198 15.0531C11.9157 15.0301 11.6024 15.0206 11.2891 14.9935C10.9324 14.9623 10.7194 14.7317 10.573 14.4293C10.5513 14.3832 10.5703 14.3181 10.5689 14.2611C10.6218 14.276 10.6828 14.2801 10.7249 14.3099C10.7818 14.3492 10.832 14.4035 10.87 14.4618C11.0382 14.7127 11.2823 14.8294 11.5739 14.8307C12.0554 14.8334 12.5368 14.8239 13.0183 14.8117C13.238 14.8063 13.4062 14.6951 13.5418 14.5256C13.6056 14.4455 13.6761 14.3682 13.7534 14.3018C13.7873 14.2719 13.847 14.2706 13.8958 14.257C13.8999 14.3072 13.9243 14.3669 13.9053 14.4062C13.7819 14.6612 13.6218 14.9053 13.3275 14.9555C12.9681 15.0192 12.5979 15.0287 12.3198 15.0531Z" fill="#0FB5CD"/>
<path d="M15.9011 15.0491C15.577 15.0301 15.2515 15.0247 14.93 14.9908C14.5693 14.9528 14.3604 14.71 14.2221 14.3967C14.2058 14.3601 14.2261 14.3086 14.2289 14.2638C14.2763 14.2747 14.3333 14.272 14.3713 14.2977C14.4323 14.3411 14.4893 14.3954 14.5299 14.4578C14.7049 14.7222 14.9626 14.8307 15.2637 14.8335C15.7397 14.8362 16.2144 14.824 16.6905 14.8118C16.8966 14.8063 17.0594 14.7033 17.1896 14.5446C17.2615 14.4578 17.3388 14.3737 17.4229 14.2977C17.4527 14.2693 17.5069 14.2679 17.5503 14.2543C17.5571 14.3032 17.5856 14.3615 17.568 14.3995C17.4296 14.7114 17.2194 14.9528 16.8586 14.9921C16.5386 15.0247 16.2198 15.0315 15.9011 15.0491Z" fill="#0FB5CD"/>
<path d="M6.42718 14.2638C6.50313 14.4998 6.33088 14.8144 6.07862 14.8917C5.82771 14.969 5.56459 15.0206 5.30419 15.0436C4.8078 15.087 4.31141 15.064 3.82044 14.9623C3.54919 14.9053 3.35796 14.7615 3.26438 14.4998C3.24539 14.4469 3.24132 14.3886 3.23047 14.333C3.24403 14.3235 3.25759 14.3126 3.27116 14.3031C3.33761 14.3642 3.4217 14.4143 3.46917 14.4889C3.61972 14.7168 3.834 14.8294 4.09712 14.8307C4.62606 14.8348 5.15636 14.8253 5.6853 14.8171C5.90773 14.8131 6.07048 14.6964 6.19932 14.5215C6.26036 14.4347 6.33902 14.3614 6.42718 14.2638Z" fill="#0FB5CD"/>
<path d="M21.0493 0.82868C20.93 0.724247 20.7998 0.629309 20.6927 0.512671C20.4879 0.288888 20.2424 0.164112 19.9399 0.147837C19.4245 0.119355 18.9119 0.115286 18.4101 0.260406C18.1904 0.324151 17.9896 0.409595 17.9733 0.691697C17.9706 0.733741 17.8798 0.77036 17.8296 0.809692C17.7997 0.754085 17.7441 0.697122 17.7441 0.641516C17.7441 0.432651 17.9666 0.170893 18.208 0.11393C18.4168 0.0637485 18.6338 0.0257732 18.8481 0.0230607C19.3296 0.0176357 19.8111 0.0311983 20.2926 0.0488297C20.6832 0.0637485 20.9246 0.298382 21.0819 0.633378C21.105 0.682203 21.0955 0.745948 21.1009 0.802911C21.0846 0.811048 21.067 0.819186 21.0493 0.82868Z" fill="#0FB5CD"/>
<path d="M8.65839 15.0545C8.2488 15.0314 7.9233 15.0274 7.60187 14.9894C7.24246 14.9473 7.03359 14.7046 6.90068 14.3886C6.88576 14.3533 6.90746 14.3031 6.91153 14.2597C6.95086 14.2706 6.99833 14.2706 7.02681 14.2936C7.13396 14.3845 7.23974 14.4781 7.33739 14.5784C7.50964 14.7548 7.71037 14.885 7.95992 14.8904C8.38036 14.8999 8.80216 14.8958 9.2226 14.8836C9.44909 14.8768 9.63083 14.7561 9.78816 14.5974C9.89123 14.4944 9.99838 14.3953 10.1109 14.3018C10.1435 14.2746 10.195 14.2719 10.2384 14.2584C10.2425 14.3031 10.2628 14.356 10.2479 14.3926C10.134 14.6612 9.96718 14.9039 9.66881 14.9568C9.3094 15.0206 8.94049 15.0287 8.65839 15.0545Z" fill="#0FB5CD"/>
<path d="M24.7228 0.756753C24.6699 0.707928 24.6075 0.665883 24.5668 0.607564C24.4013 0.368862 24.1748 0.233236 23.8887 0.214249C23.4302 0.183055 22.9705 0.15593 22.5107 0.143723C22.2679 0.136942 22.0631 0.24273 21.8922 0.421757C21.7987 0.519407 21.6834 0.595358 21.5654 0.690296C21.5071 0.482788 21.5667 0.318681 21.7566 0.233236C21.9465 0.147792 22.154 0.0677726 22.3574 0.0596351C22.9352 0.0365786 23.5143 0.0392912 24.0935 0.05421C24.4162 0.0623476 24.6129 0.269855 24.7282 0.557383C24.7499 0.612989 24.7485 0.67809 24.758 0.737765C24.7472 0.74319 24.735 0.749972 24.7228 0.756753Z" fill="#0FB5CD"/>
</g>
<defs>
<clipPath id="clip0">
<rect width="28" height="15.064" fill="white"/>
</clipPath>
</defs>
</svg>
