<svg width="28" height="28" viewBox="0 0 28 28" fill="none" xmlns="http://www.w3.org/2000/svg">
<path d="M21 12.3016V4.886L16.1122 0H0V28H21V27.9484C24.9366 27.5109 27.9982 24.178 28 20.125C27.9982 16.0702 24.9366 12.7365 21 12.3016ZM15.7482 2.11138L18.8878 5.25H15.7482V2.11138ZM1.75 26.25V1.74825H14V6.99913H19.25V12.3016C17.717 12.4714 16.317 13.0804 15.1795 14H3.5V15.75H13.5774C13.2169 16.289 12.9272 16.8779 12.7076 17.5H3.5V19.25H12.3016C12.2692 19.5379 12.25 19.8284 12.25 20.125C12.25 22.6004 13.3945 24.8071 15.1804 26.25H1.75ZM20.125 26.1476C16.7991 26.1397 14.1085 23.4491 14.1006 20.125C14.1085 16.7991 16.7991 14.1085 20.125 14.1006C23.4491 14.1085 26.1397 16.7991 26.1476 20.125C26.1397 23.4491 23.4491 26.1397 20.125 26.1476ZM17.5 10.5H3.5V12.25H17.5V10.5Z" fill="#0FB5CD"/>
<path d="M16.625 21.875L18.375 23.625L20.125 21.875L21.875 23.625L23.625 21.875L21.875 20.125L23.625 18.375L21.875 16.625L20.125 18.375L18.375 16.625L16.625 18.375L18.375 20.125L16.625 21.875Z" fill="#0FB5CD"/>
</svg>
