<svg width="28" height="26" viewBox="0 0 28 26" fill="none" xmlns="http://www.w3.org/2000/svg">
<g clip-path="url(#clip0)">
<path d="M27.5677 12.1229C18.5862 12.1229 9.6218 12.1229 0.631836 12.1229C0.631836 10.0222 0.631836 7.91945 0.631836 5.76773C9.60052 5.73155 18.5756 5.6975 27.5677 5.66132C27.5677 7.83432 27.5677 9.97327 27.5677 12.1229Z" fill="#474e55"/>
<path d="M0.606858 25.5014C0.606858 25.3822 0.606858 25.2907 0.606858 25.1992C0.606858 23.2943 0.611115 21.3895 0.602602 19.4868C0.600473 19.2399 0.651553 19.1548 0.921848 19.1548C9.70537 19.1612 18.491 19.1612 27.2767 19.1548C27.5214 19.1548 27.5938 19.2186 27.5917 19.4655C27.581 21.3874 27.5832 23.3092 27.5895 25.229C27.5895 25.4461 27.5385 25.5184 27.3086 25.5184C18.4974 25.512 9.68622 25.5142 0.877153 25.512C0.800534 25.5142 0.726043 25.5078 0.606858 25.5014Z" fill="#474e55"/>
<path d="M25.3988 18.1289C25.1008 18.0928 24.739 18.0502 24.3772 18.0012C23.826 17.9267 23.528 17.6054 23.4259 17.0605C23.3046 16.4071 23.3024 15.7644 23.4684 15.1174C23.5706 14.7215 23.8132 14.4917 24.2048 14.3959C25.02 14.1958 25.833 14.2022 26.6524 14.3725C27.1164 14.4683 27.3781 14.7428 27.4803 15.194C27.6144 15.7814 27.6399 16.3731 27.525 16.9626C27.376 17.7246 27.1462 17.9289 26.3268 18.0438C26.0458 18.0864 25.7564 18.0991 25.3988 18.1289Z" fill="#474e55"/>
<path d="M27.6209 2.90516C27.5719 3.18184 27.5209 3.55217 27.4379 3.91398C27.3634 4.23535 27.1484 4.44393 26.8249 4.53332C25.9204 4.78233 25.0158 4.78233 24.1092 4.53757C23.7708 4.44606 23.5792 4.2162 23.4877 3.8927C23.2834 3.16482 23.2813 2.43693 23.4749 1.7048C23.5707 1.34299 23.7878 1.11526 24.1539 1.02161C25.018 0.800267 25.8821 0.810908 26.7504 1.00671C27.3272 1.13654 27.4506 1.59413 27.5358 2.07299C27.5826 2.31349 27.589 2.5625 27.6209 2.90516Z" fill="#474e55"/>
<path d="M13.9554 4.70356C13.6595 4.68015 13.3531 4.66738 13.0508 4.63119C12.3847 4.55457 12.0314 4.26513 11.9441 3.60535C11.8781 3.09668 11.8696 2.57099 11.9207 2.06233C11.9867 1.41745 12.3166 1.10459 12.9572 0.972635C13.6553 0.82791 14.3619 0.834295 15.0621 0.947095C15.6814 1.045 15.9624 1.30039 16.0305 1.92186C16.0922 2.49012 16.0986 3.07753 16.0347 3.64579C15.9624 4.29279 15.6154 4.55883 14.9323 4.63119C14.6109 4.66525 14.2874 4.68015 13.9554 4.70356Z" fill="#474e55"/>
<path d="M21.8898 2.81787C21.8217 3.19458 21.7685 3.56916 21.6855 3.93949C21.6174 4.24596 21.4046 4.44177 21.1066 4.52477C20.1872 4.78442 19.2656 4.78442 18.3462 4.52903C18.0653 4.45028 17.8716 4.26724 17.7801 3.99056C17.5204 3.20735 17.5332 2.42413 17.812 1.6473C17.9312 1.31528 18.1866 1.13012 18.5122 1.03435C19.3359 0.79172 20.1659 0.776822 20.9981 0.987524C21.3641 1.08117 21.6217 1.30464 21.7004 1.68135C21.777 2.05381 21.826 2.43052 21.8898 2.81787Z" fill="#474e55"/>
<path d="M8.38797 4.70995C8.01126 4.6759 7.51111 4.64397 7.01521 4.58012C6.58742 4.52479 6.51293 4.43966 6.43418 4.00335C6.30648 3.28824 6.29584 2.56675 6.38736 1.84738C6.44482 1.40256 6.75343 1.14929 7.15142 1.05352C8.05595 0.834305 8.969 0.85346 9.87353 1.08757C10.1459 1.15781 10.3098 1.34297 10.3801 1.60688C10.5823 2.35817 10.6035 3.11798 10.3971 3.86927C10.2715 4.32473 9.9842 4.62269 9.47766 4.6461C9.15629 4.66313 8.83491 4.68441 8.38797 4.70995Z" fill="#474e55"/>
<path d="M16.1137 16.2432C16.0903 16.4986 16.086 16.7987 16.0328 17.0882C15.9158 17.7479 15.7476 17.9501 15.0772 18.0055C14.3898 18.0629 13.6874 18.0608 13 18.0012C12.3168 17.9416 12.0188 17.6458 11.9337 16.9754C11.8699 16.4688 11.8635 15.9389 11.9295 15.4324C12.0252 14.7002 12.4488 14.3576 13.2767 14.3086C13.8428 14.2767 14.4153 14.2958 14.9793 14.3512C15.654 14.4193 15.9881 14.7896 16.0605 15.4621C16.0882 15.709 16.0946 15.9559 16.1137 16.2432Z" fill="#474e55"/>
<path d="M19.759 14.2703C20.0463 14.2895 20.3379 14.2895 20.621 14.3342C21.4595 14.4661 21.766 14.7769 21.8171 15.6175C21.8469 16.0815 21.8213 16.5519 21.7766 17.0158C21.7213 17.5926 21.4574 17.8778 20.8955 17.9864C20.1825 18.1247 19.4568 18.1332 18.7417 18.0247C17.9755 17.9076 17.7329 17.6777 17.6541 16.9137C17.603 16.4029 17.6158 15.8751 17.686 15.3685C17.7797 14.6917 18.2628 14.3533 19.0673 14.3065C19.295 14.2937 19.527 14.3044 19.7548 14.3044C19.759 14.2895 19.759 14.2788 19.759 14.2703Z" fill="#474e55"/>
<path d="M2.61795 4.71207C2.22634 4.67589 1.7347 4.64184 1.24732 4.58012C0.859964 4.53117 0.747164 4.41624 0.679058 4.03953C0.53859 3.2627 0.553488 2.48587 0.715239 1.71116C0.781217 1.39192 0.964251 1.20888 1.27073 1.11949C2.06033 0.887508 2.86057 0.85984 3.6672 0.99818C4.08648 1.07054 4.40359 1.30891 4.58237 1.69839C4.96121 2.5263 4.98037 3.35422 4.53129 4.16723C4.37167 4.45668 4.12053 4.61417 3.79064 4.63758C3.43309 4.661 3.07553 4.68228 2.61795 4.71207Z" fill="#474e55"/>
<path d="M6.31445 16.3347C6.34212 15.9899 6.35489 15.7111 6.38894 15.4344C6.46769 14.781 6.78481 14.4256 7.44033 14.3554C7.98517 14.2979 8.54279 14.2766 9.08977 14.3171C9.79849 14.3682 10.3284 14.9173 10.5008 15.6898C10.6349 16.2921 10.6094 16.8838 10.3348 17.4499C10.1709 17.7862 9.91555 18.0054 9.53245 18.0352C8.66836 18.1033 7.8064 18.1161 6.94656 17.9693C6.62093 17.9139 6.47408 17.7351 6.43789 17.4329C6.39107 17.0477 6.35063 16.6603 6.31445 16.3347Z" fill="#474e55"/>
<path d="M2.67744 14.3746C2.99881 14.3916 3.32232 14.3959 3.64369 14.4278C4.11617 14.4725 4.42265 14.7598 4.59504 15.1748C4.88875 15.8835 4.90365 16.6114 4.64187 17.335C4.49927 17.7309 4.2311 18.0012 3.78841 18.0353C2.91581 18.1034 2.0432 18.1225 1.17485 17.9629C0.902431 17.9118 0.764091 17.7714 0.713011 17.5032C0.570415 16.7625 0.559773 16.0176 0.670445 15.2748C0.744936 14.7747 1.00885 14.5385 1.509 14.4533C1.61754 14.4342 1.72609 14.4086 1.83676 14.4065C2.11769 14.4001 2.3965 14.4044 2.67744 14.4044C2.67531 14.3937 2.67531 14.3831 2.67744 14.3746Z" fill="#474e55"/>
<path d="M0 14.8364C0.227729 14.3448 0.472484 13.8425 1.08118 13.7425C2.21344 13.5573 3.34783 13.5658 4.46944 13.8425C4.65461 13.8872 4.85679 13.9702 4.98449 14.0979C5.11432 14.2298 5.17817 14.4363 5.23776 14.6193C5.25905 14.6811 5.19732 14.8279 5.14412 14.8449C5.07814 14.8641 4.97172 14.8066 4.90362 14.7534C4.83126 14.6981 4.76953 14.6215 4.72484 14.5406C4.56522 14.2533 4.30769 14.1 3.99696 14.0958C3.06476 14.0809 2.13043 14.083 1.19824 14.0979C0.893889 14.1021 0.664032 14.2703 0.485254 14.5299C0.380967 14.6811 0.219216 14.7917 0.0808756 14.9216C0.0532077 14.8939 0.027668 14.8662 0 14.8364Z" fill="#474e55"/>
<path d="M27.9235 1.40255C27.8022 1.25783 27.6681 1.12162 27.5595 0.96625C27.3488 0.670415 27.0679 0.480996 26.7103 0.474611C25.9314 0.459713 25.1503 0.463969 24.3713 0.480996C23.984 0.489509 23.6945 0.712981 23.437 0.991789C23.3136 1.12587 23.1476 1.21952 23.0007 1.33232C22.9709 1.30891 22.939 1.28762 22.9092 1.26421C22.9326 1.1578 22.939 1.04287 22.9815 0.944967C23.1582 0.53846 23.5051 0.332014 23.9095 0.212829C24.9843 -0.104289 26.0548 -0.0595942 27.1147 0.276678C27.3063 0.336271 27.4872 0.440558 27.6574 0.549101C27.949 0.738521 28.0661 1.01094 27.9235 1.40255Z" fill="#474e55"/>
<path d="M22.1899 1.35572C22.043 1.2259 21.8919 1.11948 21.7727 0.98327C21.4386 0.60656 21.0108 0.457578 20.5234 0.453322C19.9892 0.449065 19.4529 0.449065 18.9187 0.453322C18.427 0.457578 18.0099 0.623586 17.6843 1.00881C17.5672 1.14715 17.414 1.25569 17.265 1.38765C17.1543 1.08117 17.2182 0.808749 17.5076 0.632099C17.8056 0.449065 18.1376 0.287314 18.476 0.206438C19.4401 -0.0212908 20.4149 -0.0234191 21.3705 0.272415C21.6089 0.346906 21.8387 0.474605 22.0409 0.621458C22.2793 0.795979 22.3176 1.04073 22.1899 1.35572Z" fill="#474e55"/>
<path d="M23.0097 14.7726C22.8905 14.4363 23.0374 14.2341 23.2332 14.0618C23.5929 13.7404 24.0334 13.5893 24.4995 13.5127C25.3466 13.3764 26.1915 13.3786 27.0173 13.6404C27.262 13.717 27.4983 13.8511 27.7111 13.9979C27.9261 14.1469 28.0346 14.3746 27.9899 14.7258C27.8218 14.6087 27.6707 14.5428 27.5749 14.43C27.1897 13.9766 26.681 13.834 26.1191 13.834C25.5849 13.8319 25.0507 13.8532 24.5165 13.8638C24.0824 13.8723 23.7397 14.0618 23.4481 14.3767C23.314 14.5193 23.1565 14.6407 23.0097 14.7726Z" fill="#474e55"/>
<path d="M11.4477 1.32382C11.4136 1.04075 11.5179 0.781098 11.7648 0.649143C12.1096 0.46398 12.4778 0.287331 12.8588 0.204327C13.7803 0.00213769 14.7104 -0.00424722 15.6255 0.268176C15.8171 0.32564 16.0065 0.412901 16.1768 0.519316C16.462 0.695966 16.5875 0.957747 16.4875 1.36C16.3705 1.27486 16.2555 1.22166 16.1853 1.1344C15.7383 0.583165 15.1488 0.410773 14.4656 0.442697C14.0336 0.46398 13.6015 0.446954 13.1674 0.45121C12.6757 0.455467 12.2607 0.62786 11.9351 1.01095C11.818 1.14929 11.6626 1.25784 11.5243 1.37915C11.4988 1.36 11.4732 1.34297 11.4477 1.32382Z" fill="#474e55"/>
<path d="M10.9137 14.9173C10.7285 14.7599 10.5455 14.6471 10.4178 14.4896C9.95172 13.9107 9.35154 13.7574 8.64281 13.8489C8.16394 13.9107 7.67869 13.9213 7.19769 13.9703C6.81885 14.0086 6.50386 14.1703 6.26975 14.4874C6.15908 14.6385 6.00584 14.7599 5.84834 14.9173C5.76747 14.4832 6.21867 13.8489 6.65497 13.7468C6.90185 13.6893 7.15725 13.6595 7.41052 13.651C8.28525 13.6233 9.16212 13.5914 10.0241 13.7915C10.2518 13.8447 10.4795 13.9362 10.6796 14.0554C10.9797 14.2342 11.0563 14.5215 10.9137 14.9173Z" fill="#474e55"/>
<path d="M0.0195312 1.46003C0.157871 0.827927 0.645253 0.361828 1.38378 0.297979C2.34577 0.212847 3.31841 0.187307 4.27614 0.374598C4.66775 0.451217 4.99126 0.642765 5.17429 1.01735C5.21047 1.09184 5.25304 1.18335 5.23814 1.25785C5.22324 1.33872 5.14662 1.41108 5.09767 1.48557C5.02105 1.43237 4.88058 1.38554 4.87633 1.32808C4.84015 0.885391 4.506 0.757693 4.16973 0.666176C3.18432 0.393753 2.18615 0.391624 1.20713 0.683202C0.932575 0.764078 0.696333 0.993935 0.453706 1.16846C0.315366 1.26423 0.198309 1.39619 0.0706106 1.51324C0.0535842 1.49409 0.0365577 1.47706 0.0195312 1.46003Z" fill="#474e55"/>
<path d="M5.8418 1.49198C5.88862 0.761974 6.31428 0.321414 7.07621 0.28949C8.04885 0.249052 9.02574 0.28949 10.0005 0.319286C10.4836 0.334184 10.7475 0.672585 10.9348 1.07909C10.9625 1.13868 10.9817 1.21743 10.9646 1.2749C10.9433 1.35151 10.8816 1.41536 10.8369 1.4856C10.7667 1.43878 10.639 1.39834 10.6326 1.343C10.5517 0.706638 10.0452 0.600223 9.57059 0.557656C8.82356 0.489551 8.06801 0.489551 7.31671 0.491679C6.96129 0.491679 6.68035 0.700253 6.43134 0.945008C6.24192 1.13443 6.03973 1.30895 5.8418 1.49198Z" fill="#474e55"/>
<path d="M11.5179 14.7747C11.4243 14.3448 11.5435 14.0638 11.901 13.9425C12.3054 13.8063 12.7332 13.7084 13.1589 13.6722C14.0655 13.5935 14.9764 13.5913 15.8703 13.7957C16.4173 13.9212 16.6174 14.2405 16.4684 14.7513C16.3428 14.6491 16.2109 14.5725 16.1193 14.4618C15.7277 13.9893 15.2084 13.8318 14.6253 13.8318C14.0996 13.834 13.5739 13.851 13.0482 13.8595C12.5927 13.868 12.2394 14.0681 11.9415 14.4022C11.8138 14.5427 11.6584 14.6512 11.5179 14.7747Z" fill="#474e55"/>
<path d="M17.2286 14.813C17.1647 14.3086 17.3052 14.0277 17.7245 13.8978C18.1161 13.7765 18.5311 13.7042 18.9418 13.6701C19.8145 13.5999 20.6892 13.5892 21.549 13.7893C22.0407 13.9042 22.2535 14.1447 22.2641 14.5534C22.2641 14.5853 22.2492 14.6172 22.228 14.7087C22.0811 14.6087 21.93 14.547 21.8342 14.4342C21.449 13.9808 20.9425 13.834 20.3806 13.834C19.8379 13.834 19.2951 13.8553 18.7524 13.8659C18.3268 13.8744 17.9926 14.066 17.7096 14.3724C17.5755 14.515 17.4201 14.6385 17.2286 14.813Z" fill="#474e55"/>
</g>
<defs>
<clipPath id="clip0">
<rect width="28" height="25.5205" fill="white"/>
</clipPath>
</defs>
</svg>
