<svg width="45" height="37" viewBox="0 0 45 37" fill="none" xmlns="http://www.w3.org/2000/svg">
<path d="M37.4931 12.5413C35.4133 4.2561 27.0109 -0.774384 18.7257 1.30541C12.251 2.93077 7.54961 8.52676 7.06521 15.1847C2.46789 15.9429 -0.64442 20.2843 0.11373 24.8816C0.787689 28.9687 4.32912 31.9618 8.4713 31.9454H15.5018V29.1332H8.4713C5.36506 29.1332 2.84692 26.615 2.84692 23.5088C2.84692 20.4026 5.36506 17.8844 8.4713 17.8844C9.24791 17.8844 9.8774 17.2549 9.8774 16.4783C9.87037 9.48924 15.5305 3.81775 22.5196 3.81081C28.5697 3.80474 33.7778 8.08191 34.9481 14.0177C35.0637 14.6103 35.5446 15.0631 36.1433 15.1425C39.9874 15.6899 42.6597 19.2499 42.1124 23.0939C41.6209 26.5457 38.6737 29.1158 35.1871 29.1332H29.5627V31.9454H35.1871C40.6231 31.9289 45.0164 27.5089 44.9999 22.0729C44.9862 17.5479 41.8889 13.6152 37.4931 12.5413Z" fill="#0FB5CD"/>
<path d="M21.5336 18.2923L15.9092 23.9167L17.8918 25.8993L21.1258 22.6793V36.1638H23.938V22.6793L27.1579 25.8993L29.1405 23.9167L23.5162 18.2923C22.9677 17.7471 22.082 17.7471 21.5336 18.2923Z" fill="#0FB5CD"/>
</svg>
