<svg version="1.2" baseProfile="tiny-ps" xmlns="http://www.w3.org/2000/svg" viewBox="0 0 133 203" width="133" height="203">
	<title>Contract-svg</title>
	<style>
		tspan { white-space:pre }
		.shp0 { fill: #0fb5cd } 
		.txt1 { font-size: 200px;fill: #0fb5cd;font-weight: 800;font-style: italic;font-family: "Muli" } 
	</style>
	<g id="Page-1">
		<g id="Icons">
			<g id="contract">
				<g id="Contract">
					<path id="Shape" fill-rule="evenodd" class="shp0" d="M131.09 39.05C131.1 39.09 131.1 39.13 131.1 39.18L131.1 170.77C131.1 172.92 129.36 174.67 127.21 174.67L103.99 174.67L103.99 195.71C103.99 197.13 103.22 198.44 101.98 199.12C101.4 199.45 100.75 199.61 100.1 199.61C99.38 199.61 98.66 199.41 98.03 199.01L83.22 189.7L68.41 199.01C67.21 199.77 65.7 199.81 64.46 199.12C63.22 198.44 62.45 197.13 62.45 195.71L62.45 174.67L3.89 174.67C1.74 174.67 0 172.92 0 170.77L0 3.9C0 1.75 1.74 0 3.89 0L92.01 0C92.06 0 92.1 0 92.15 0.01C92.19 0.01 92.23 0.01 92.27 0.01C92.44 0.02 92.61 0.04 92.77 0.07C92.77 0.07 92.77 0.07 92.77 0.07C92.94 0.11 93.1 0.16 93.26 0.21C93.3 0.22 93.34 0.24 93.38 0.25C93.53 0.31 93.67 0.37 93.81 0.44C93.82 0.45 93.83 0.45 93.84 0.46C93.99 0.54 94.13 0.63 94.27 0.73C94.3 0.75 94.34 0.78 94.37 0.8C94.51 0.91 94.64 1.02 94.76 1.14L129.96 36.42C130.08 36.55 130.19 36.68 130.3 36.81C130.32 36.85 130.35 36.88 130.38 36.92C130.47 37.06 130.56 37.2 130.64 37.35C130.65 37.36 130.65 37.36 130.66 37.37C130.73 37.51 130.79 37.66 130.85 37.81C130.86 37.85 130.88 37.89 130.89 37.93C130.94 38.09 130.99 38.25 131.03 38.42C131.03 38.42 131.03 38.42 131.03 38.42C131.06 38.58 131.08 38.75 131.09 38.92C131.09 38.96 131.09 39 131.09 39.05ZM123.32 166.87L123.32 43.08L92.01 43.08C89.87 43.08 88.12 41.33 88.12 39.18L88.12 7.8L7.78 7.8L7.78 166.87L62.45 166.87L62.45 150.44C61.29 148.86 60.81 147 60.4 145.41C60.19 144.58 59.89 143.45 59.63 143.08C59.36 142.72 58.37 142.09 57.65 141.63C55.74 140.42 53.35 138.91 52.41 136.06C51.47 133.24 52.44 130.58 53.23 128.44C53.58 127.47 53.98 126.37 53.98 125.77C53.98 125.17 53.58 124.07 53.23 123.1C52.44 120.96 51.47 118.3 52.41 115.49C53.35 112.63 55.73 111.12 57.65 109.91C58.37 109.46 59.36 108.83 59.63 108.46C59.89 108.1 60.19 106.96 60.4 106.13C60.96 103.96 61.66 101.26 64.04 99.51C65.94 98.12 68.13 97.95 69.62 97.95C70.25 97.95 70.85 97.99 71.44 98.01C71.96 98.04 72.44 98.07 72.88 98.07C73.57 98.07 73.87 98 73.98 97.96C74.44 97.81 75.33 97.09 76.05 96.51C77.86 95.05 80.13 93.23 83.22 93.23C86.32 93.23 88.58 95.05 90.39 96.51C91.11 97.09 92 97.81 92.46 97.96C92.57 98 92.87 98.07 93.56 98.07C94 98.07 94.48 98.04 95 98.02C95.59 97.99 96.19 97.95 96.82 97.95C98.31 97.95 100.51 98.12 102.4 99.51C104.78 101.26 105.48 103.96 106.04 106.13C106.25 106.96 106.55 108.1 106.81 108.47C107.08 108.83 108.07 109.46 108.79 109.91C110.71 111.12 113.09 112.63 114.03 115.49C114.97 118.3 114 120.96 113.21 123.1C112.86 124.07 112.46 125.17 112.46 125.77C112.46 126.37 112.86 127.47 113.21 128.44C114 130.58 114.97 133.24 114.03 136.06C113.09 138.91 110.71 140.42 108.79 141.63C108.07 142.09 107.08 142.72 106.81 143.08C106.55 143.45 106.25 144.58 106.04 145.41C105.63 147 105.15 148.86 103.99 150.44L103.99 166.87L123.32 166.87ZM60.59 120.93C61.17 122.51 61.82 124.3 61.82 126.29C61.82 128.27 61.17 130.07 60.59 131.64C60.32 132.39 59.87 133.61 59.86 134.1C60.17 134.48 61.22 135.15 61.86 135.56C63.25 136.44 64.82 137.43 65.96 138.99C67.11 140.56 67.58 142.38 67.99 143.98C68.17 144.68 68.46 145.81 68.71 146.24C68.85 146.27 69.14 146.31 69.68 146.31C70.11 146.31 70.6 146.29 71.11 146.26C71.7 146.23 72.31 146.2 72.94 146.2C74.34 146.2 75.47 146.36 76.5 146.7C78.29 147.3 79.72 148.46 80.99 149.47C81.68 150.03 82.82 150.96 83.28 151.04C83.74 150.96 84.89 150.03 85.57 149.47C86.84 148.46 88.27 147.3 90.06 146.7C91.09 146.36 92.22 146.2 93.62 146.2C94.25 146.2 94.86 146.23 95.45 146.26C95.97 146.29 96.45 146.31 96.88 146.31C97.42 146.31 97.71 146.27 97.85 146.24C98.1 145.81 98.39 144.68 98.57 143.98C98.98 142.38 99.45 140.56 100.6 138.99C101.74 137.43 103.31 136.44 104.7 135.56C105.34 135.15 106.4 134.48 106.7 134.1C106.69 133.61 106.24 132.39 105.97 131.64C105.39 130.06 104.74 128.27 104.74 126.29C104.74 124.3 105.39 122.51 105.97 120.93C106.24 120.19 106.69 118.97 106.7 118.47C106.4 118.1 105.34 117.43 104.7 117.02C103.31 116.14 101.74 115.15 100.6 113.59C99.45 112.02 98.98 110.2 98.57 108.6C98.39 107.9 98.1 106.77 97.85 106.34C97.71 106.31 97.42 106.27 96.88 106.27C96.45 106.27 95.97 106.29 95.45 106.32C94.86 106.35 94.25 106.38 93.62 106.38C92.22 106.38 91.09 106.22 90.06 105.88C88.27 105.28 86.84 104.12 85.57 103.1C84.88 102.54 83.71 101.6 83.26 101.54C82.85 101.6 81.68 102.54 80.99 103.1C79.72 104.12 78.29 105.28 76.5 105.88C75.47 106.22 74.34 106.38 72.94 106.38C72.31 106.38 71.7 106.35 71.11 106.32C70.59 106.29 70.11 106.27 69.68 106.27C69.14 106.27 68.85 106.31 68.71 106.34C68.46 106.77 68.17 107.9 67.99 108.6C67.58 110.2 67.11 112.02 65.96 113.59C64.82 115.15 63.25 116.14 61.86 117.02C61.22 117.43 60.16 118.1 59.86 118.47C59.87 118.97 60.32 120.19 60.59 120.93ZM96.21 188.66L96.21 188.66L96.21 188.66L96.21 188.66ZM96.21 188.66L96.21 153.58C95.8 153.57 95.39 153.55 95 153.53C94.48 153.51 94 153.48 93.56 153.48C92.87 153.48 92.57 153.55 92.46 153.58C92 153.74 91.11 154.46 90.39 155.03C88.58 156.5 86.32 158.32 83.22 158.32C80.12 158.32 77.86 156.5 76.05 155.03C75.33 154.46 74.44 153.74 73.98 153.58C73.87 153.54 73.57 153.48 72.88 153.48C72.44 153.48 71.96 153.5 71.44 153.53C71.05 153.55 70.64 153.57 70.23 153.58L70.23 188.66L81.15 181.79C82.42 181 84.02 181 85.29 181.79L96.21 188.66ZM95.9 35.28L117.82 35.28L95.9 13.31L95.9 35.28ZM98.14 120.54L81.21 137.51C80.64 138.08 79.88 138.4 79.08 138.4C78.28 138.4 77.51 138.08 76.95 137.51L68.42 128.96C67.24 127.78 67.24 125.87 68.42 124.69C69.6 123.51 71.5 123.51 72.68 124.69L79.08 131.1L93.87 116.27C95.05 115.09 96.96 115.09 98.14 116.27C99.32 117.45 99.32 119.36 98.14 120.54Z" />
					<path id="Path" class="shp0" d="M22.9 43.08L73.01 43.08C75.15 43.08 76.9 41.33 76.9 39.18C76.9 37.02 75.15 35.28 73.01 35.28L22.9 35.28C20.75 35.28 19.01 37.02 19.01 39.18C19.01 41.33 20.75 43.08 22.9 43.08Z" />
					<path id="Path" class="shp0" d="M108.64 54.96L22.9 54.96C20.75 54.96 19.01 56.7 19.01 58.86C19.01 61.01 20.75 62.76 22.9 62.76L108.64 62.76C110.79 62.76 112.53 61.01 112.53 58.86C112.53 56.7 110.79 54.96 108.64 54.96Z" />
					<path id="Path" class="shp0" d="M93.08 74.64L22.9 74.64C20.75 74.64 19.01 76.38 19.01 78.54C19.01 80.69 20.75 82.43 22.9 82.43L93.08 82.43C95.23 82.43 96.97 80.69 96.97 78.54C96.97 76.38 95.23 74.64 93.08 74.64Z" />
					<path id="Path" class="shp0" d="M108.64 74.64C106.5 74.64 104.75 76.39 104.75 78.54C104.75 80.68 106.5 82.43 108.64 82.43C110.78 82.43 112.53 80.68 112.53 78.54C112.53 76.39 110.78 74.64 108.64 74.64Z" />
				</g>
				<text id="2" style="opacity: 0.322;transform: matrix(1,0,0,1,132.114,276)" >
					<tspan x="0" y="0" class="txt1">2
</tspan>
				</text>
			</g>
		</g>
	</g>
</svg>