<svg version="1.2" baseProfile="tiny-ps" xmlns="http://www.w3.org/2000/svg" viewBox="0 0 200 202" width="200" height="202">
	<title>deal-svg</title>
	<style>
		tspan { white-space:pre }
		.shp0 { fill: #0fb5cd } 
		.txt1 { font-size: 200px;fill: #0fb5cd;font-weight: 800;font-style: italic;font-family: "Muli" } 
	</style>
	<g id="Page-1">
		<g id="Icons">
			<g id="deal">
				<g id="Layer">
					<path id="Path" class="shp0" d="M95.24 51.96C93.72 51.96 91.84 51.74 90.56 50.31C90.12 49.81 89.73 49.34 89.35 48.95C86.29 45.74 81.03 50.2 84.22 54.37L84.99 55.36C85.49 55.98 86.39 56.71 87.69 57.53C88.95 58.34 90.35 58.92 91.91 59.26L91.91 64.77C91.91 66.67 93.46 68.23 95.35 68.23C97.26 68.23 98.87 66.67 98.87 64.77L98.87 59.23C101.37 58.65 103.51 57.43 105.26 55.59C107.02 53.75 107.9 51.31 107.9 48.27C107.9 46.19 107.5 44.46 106.7 43.07C105.89 41.69 104.91 40.72 103.74 40.17C102.56 39.62 101.28 39.14 99.87 38.73C98.46 38.32 97.18 38.03 96 37.85C94.83 37.68 93.85 37.33 93.05 36.8C92.24 36.27 91.84 35.58 91.84 34.72C91.84 30.61 97.86 31.11 100.51 33.35C104.42 36.64 108.8 30.61 104.27 27.21L103.74 26.74C103.39 26.47 102.76 26.12 101.86 25.68C100.97 25.25 99.96 24.93 98.87 24.69L98.87 21.36L98.87 19.91C98.87 18.01 97.32 16.45 95.42 16.45C93.52 16.45 91.97 18.01 91.97 19.91L91.97 24.64C89.42 25.14 87.32 26.4 85.86 28.26C84.39 30.16 83.64 32.25 83.64 34.59C83.64 36.95 84.19 38.88 85.28 40.4C86.37 41.93 87.7 43 89.27 43.63C90.83 44.25 92.39 44.75 93.95 45.12C95.52 45.5 96.85 45.91 97.94 46.39C99.03 46.86 99.58 47.52 99.58 48.38C99.58 50.76 98.13 51.96 95.24 51.96Z" />
					<path id="Shape" fill-rule="evenodd" class="shp0" d="M196.66 121.17C196.27 124.16 194.74 126.81 192.34 128.64L171.31 144.64C169.34 146.15 166.96 146.95 164.44 146.95C164.44 146.95 164.44 146.95 164.44 146.95C161.96 146.95 159.6 146.17 157.67 144.75C154.85 149.34 152.34 151.79 146.15 156.77C148.54 160.13 149.42 163.83 148.57 167.34C147.65 171.15 144.71 174.11 140.91 175.09C139.98 175.33 139.03 175.44 138.09 175.44C137.33 175.44 136.58 175.37 135.82 175.22C135.34 177.21 134.33 179.02 132.85 180.5C130.74 182.61 127.76 183.81 124.65 183.81C124.61 183.81 124.57 183.81 124.53 183.81C124.37 183.81 124.21 183.8 124.05 183.79C123.58 186 122.49 188.08 120.98 189.63C119.13 191.54 116.55 192.77 113.63 192.77C112.59 192.77 111.51 192.61 110.4 192.27C109.76 193.9 108.75 195.44 107.46 196.74C105.28 198.91 102.44 200 99.56 200C96.73 200 93.87 198.94 91.59 196.82L87.13 192.65C84.87 194.3 82.52 195.02 80.31 195.02C77.27 195.02 74.5 193.67 72.6 191.56C71.38 190.21 70.59 188.66 70.21 187.07C69.22 187.04 68.22 186.87 67.23 186.55C63.34 185.27 60.3 181.89 59.48 177.92C59.46 177.81 59.44 177.7 59.42 177.59C55.14 177.39 51.14 174.44 49.4 170.12C49.14 169.49 48.96 168.85 48.82 168.21C44.48 168.07 40.48 165.04 38.78 160.57C37.59 157.44 37.82 154.2 39.3 151.51L36.58 147.78C35.27 148.27 33.89 148.53 32.5 148.53C30.1 148.53 27.68 147.78 25.64 146.23L4.62 130.21C2.21 128.38 0.67 125.72 0.29 122.72C-0.1 119.73 0.72 116.78 2.58 114.4L8.03 107.41C9.37 105.7 11.85 105.39 13.56 106.73C15.28 108.07 15.58 110.54 14.25 112.26L8.79 119.25C8.23 119.96 7.99 120.83 8.11 121.72C8.22 122.61 8.68 123.4 9.39 123.94L30.41 139.96C31.9 141.09 34.13 140.8 35.28 139.32L67.4 98.2C67.95 97.5 68.19 96.62 68.07 95.73C67.96 94.84 67.5 94.05 66.79 93.51L45.77 77.51C44.28 76.37 42.04 76.66 40.88 78.14L33.23 87.94C31.89 89.65 29.42 89.96 27.7 88.62C25.99 87.28 25.68 84.8 27.02 83.09L34.67 73.29C38.5 68.39 45.62 67.48 50.55 71.24L71.57 87.24C73.97 89.07 75.5 91.72 75.89 94.71C75.98 95.43 76 96.14 75.96 96.84L96.29 99.95L96.65 99.72C104.69 94.5 112.96 93.89 120.97 94.49C120.98 94.05 121 93.6 121.06 93.16C121.45 90.16 122.98 87.5 125.39 85.67L146.4 69.66C148.4 68.15 150.77 67.35 153.28 67.35C156.83 67.35 160.11 68.94 162.27 71.72L194.38 112.83C196.24 115.22 197.05 118.17 196.66 121.17ZM137.82 159.23L110.09 134.58C110.09 134.57 110.08 134.57 110.08 134.56C110.07 134.56 110.07 134.55 110.06 134.55L104.06 129.09L93.67 134.24C93.62 134.27 93.57 134.29 93.51 134.31C91.5 135.2 89.4 135.62 87.34 135.62C82.35 135.62 77.65 133.13 75.29 128.78C72.35 123.34 73.16 114.95 84.27 107.75L86.35 106.4L72.63 104.3L42.63 142.71L44.85 145.74L54.91 136.8C57.48 134.51 60.41 133.31 63.37 133.31C67.89 133.31 72.04 136.2 73.7 140.51C74.3 142.09 74.52 143.71 74.37 145.28C77.88 146.18 80.85 148.79 82.19 152.33C82.56 153.31 82.78 154.31 82.86 155.3C85.61 155.59 88.07 156.92 89.82 158.87C92.91 162.33 93.45 166.91 91.53 170.69C92.89 171.44 94.1 172.51 95.07 173.89C98.04 178.13 97.42 183.52 93.55 186.99L93.07 187.42L96.97 191.06C98.43 192.42 100.58 192.47 101.88 191.17C102.77 190.28 103.38 189.01 103.36 188.09C103.36 187.69 103.23 187.58 103.15 187.5C103.14 187.5 103.14 187.49 103.13 187.48L99.57 184.13C97.99 182.64 97.91 180.15 99.4 178.56C100.89 176.98 103.39 176.9 104.97 178.39L109.63 182.78C111.31 184.35 113.66 185.86 115.33 184.15C116.41 183.03 116.76 181.22 116.19 180.14L115.76 179.69C115.6 179.53 115.46 179.35 115.33 179.17L105.02 168.85C103.48 167.31 103.49 164.81 105.02 163.28C106.57 161.74 109.06 161.74 110.6 163.28L121.47 174.16C121.77 174.46 122.04 174.77 122.28 175.09C122.87 175.62 123.7 175.92 124.61 175.93C124.63 175.93 124.64 175.93 124.65 175.93C125.68 175.93 126.64 175.57 127.27 174.93C127.92 174.29 128.27 173.42 128.27 172.49C128.26 171.6 127.93 170.79 127.34 170.18C127.32 170.15 127.29 170.13 127.27 170.1L112.42 155.43C110.87 153.9 110.85 151.4 112.38 149.86C113.91 148.31 116.41 148.29 117.96 149.82L132.83 164.52C132.99 164.67 133.13 164.83 133.28 164.99C135.2 166.96 137.3 167.88 138.96 167.46C139.96 167.2 140.67 166.48 140.91 165.48C141.35 163.68 140.19 161.34 137.82 159.23ZM73.23 158.72C73.24 158.72 73.24 158.72 73.24 158.72C73.25 158.71 73.25 158.71 73.26 158.7L74.08 157.98C74.99 157.18 75.24 156.22 74.82 155.11C74.4 154 73.23 152.8 71.67 152.8C70.68 152.8 69.58 153.3 68.5 154.25L68.26 154.47C65.07 157.35 58.4 163.38 57.64 164.05L57.6 164.09C57.6 164.09 57.6 164.09 57.6 164.09C57.4 164.3 57.22 164.48 57.06 164.62C56.82 164.86 56.07 165.59 56.7 167.17C57.28 168.6 58.68 169.73 59.87 169.73C60.45 169.73 61.02 169.47 61.61 168.94L73.23 158.72ZM73.42 177.4L78.26 173.03C78.28 173.01 78.3 172.99 78.32 172.97C78.37 172.92 78.43 172.88 78.49 172.83L83.78 168.06C85.76 166.27 84.14 164.34 83.94 164.12C82.58 162.6 80.54 162.79 78.47 164.61L69.86 172.18C69.83 172.21 69.8 172.24 69.77 172.27L68.45 173.42C67.4 174.35 66.99 175.3 67.2 176.34C67.45 177.52 68.49 178.67 69.69 179.06C70.63 179.37 71.45 179.17 72.28 178.43L73.2 177.59C73.25 177.54 73.31 177.49 73.36 177.44C73.38 177.43 73.4 177.41 73.42 177.4ZM83.06 185.82L84.63 184.42C84.64 184.4 84.65 184.39 84.67 184.38L88.28 181.13C89.48 180.06 89 178.97 88.61 178.41C88.31 177.98 87.16 176.65 85.03 177.79C85.01 177.8 85 177.81 84.98 177.81C84.62 178 84.24 178.27 83.84 178.61L78.56 183.37C77.25 184.63 78.05 185.83 78.46 186.29C78.89 186.77 80.48 188.14 83.06 185.82ZM62.97 148.63C63.06 148.55 63.14 148.47 63.23 148.4C63.24 148.39 63.25 148.38 63.26 148.37C63.26 148.37 63.27 148.36 63.27 148.36L65.58 146.28C66.51 145.44 66.77 144.45 66.34 143.34C65.94 142.3 64.84 141.19 63.37 141.19C62.37 141.19 61.25 141.71 60.14 142.69L46.86 154.49C46.86 154.49 46.85 154.49 46.85 154.5L46.84 154.51C45.88 155.36 45.65 156.46 46.14 157.77C46.69 159.22 48.01 160.35 49.14 160.35C49.69 160.35 50.28 160.07 50.88 159.53L62.97 148.63ZM152.23 138.47L124.33 102.74C114.7 101.63 107.66 101.96 100.94 106.32L88.56 114.36C83.03 117.94 80.6 122.03 82.22 125.03C83.4 127.21 86.8 128.63 90.26 127.14L102.97 120.84C104.43 120.11 106.18 120.36 107.38 121.45L115.35 128.71L140.58 151.14C147.72 145.43 149.29 143.76 152.23 138.47ZM188.17 117.68L156.06 76.56C155.4 75.71 154.38 75.23 153.28 75.23C152.74 75.23 151.94 75.35 151.17 75.93L130.17 91.93C129.45 92.48 128.99 93.27 128.88 94.16C128.76 95.05 129 95.92 129.55 96.62L161.66 137.74C162.32 138.59 163.34 139.08 164.44 139.08C164.98 139.08 165.78 138.95 166.53 138.38L187.56 122.37C188.27 121.83 188.73 121.04 188.85 120.15C188.96 119.26 188.72 118.38 188.17 117.68Z" />
					<path id="Shape" fill-rule="evenodd" class="shp0" d="M53.04 42.56C53.04 19.09 72.12 0 95.57 0C101.92 0 108.03 1.37 113.73 4.07C128.54 11.07 138.1 26.18 138.1 42.56C138.1 66.03 119.02 85.13 95.57 85.13C88.53 85.13 81.54 83.36 75.35 80.02C61.59 72.56 53.04 58.21 53.04 42.56ZM60.92 42.56C60.92 55.31 67.89 67.02 79.1 73.1C84.14 75.81 89.83 77.25 95.57 77.25C114.67 77.25 130.22 61.69 130.22 42.56C130.22 29.21 122.42 16.89 110.36 11.19C105.72 8.99 100.74 7.88 95.57 7.88C76.46 7.88 60.92 23.44 60.92 42.56Z" />
					<path id="Path" class="shp0" d="M18.17 100.75C18.9 101.33 19.77 101.61 20.63 101.61C21.79 101.61 22.93 101.1 23.71 100.13L23.76 100.07C25.11 98.37 24.84 95.89 23.13 94.53C21.43 93.18 18.95 93.45 17.6 95.16L17.55 95.21C16.19 96.91 16.47 99.39 18.17 100.75Z" />
				</g>
				<text id="3" style="opacity: 0.322;transform: matrix(1,0,0,1,197.114,276)" >
					<tspan x="0" y="0" class="txt1">3
</tspan>
				</text>
			</g>
		</g>
	</g>
</svg>