<svg width="28" height="28" viewBox="0 0 28 28" fill="none" xmlns="http://www.w3.org/2000/svg">
<g clip-path="url(#clip0)">
<path d="M11.9584 13.125H0.875C0.391998 13.125 0 12.733 0 12.25C0 11.767 0.391998 11.375 0.875 11.375H11.9584C12.4414 11.375 12.8334 11.767 12.8334 12.25C12.8334 12.733 12.4414 13.125 11.9584 13.125Z" fill="#CCCCCC"/>
<path d="M7.5834 17.5C7.35931 17.5 7.13544 17.4148 6.96497 17.2434C6.62317 16.9014 6.62317 16.3473 6.96497 16.0055L10.7217 12.2489L6.96497 8.49344C6.62317 8.15143 6.62317 7.59729 6.96497 7.25549C7.30676 6.9137 7.8609 6.9137 8.20291 7.25549L12.5779 11.6305C12.9197 11.9723 12.9197 12.5264 12.5779 12.8684L8.20291 17.2434C8.03137 17.4148 7.80728 17.5 7.5834 17.5Z" fill="#CCCCCC"/>
<path d="M18.6666 28C17.3797 28 16.3334 26.9535 16.3334 25.6666V4.66659C16.3334 3.66919 16.968 2.77902 17.9129 2.45111L24.9223 0.114288C26.4903 -0.366364 28 0.796814 28 2.3334V23.3334C28 24.3297 27.3653 25.2186 26.4215 25.5476L19.4098 27.8857C19.1543 27.965 18.9176 28 18.6666 28ZM25.6666 1.75C25.5907 1.75 25.5266 1.7594 25.4579 1.78033L18.4777 4.10776C18.2489 4.18722 18.0834 4.41815 18.0834 4.66659V25.6666C18.0834 26.0646 18.5149 26.3329 18.8755 26.2197L25.8556 23.8922C26.0831 23.8128 26.25 23.5818 26.25 23.3334V2.3334C26.25 2.01254 25.9887 1.75 25.6666 1.75Z" fill="#CCCCCC"/>
<path d="M10.2084 5.8334C9.72537 5.8334 9.33337 5.44141 9.33337 4.9584V3.2084C9.33337 1.43854 10.7717 0 12.5416 0H25.6666C26.1496 0 26.5416 0.391998 26.5416 0.875C26.5416 1.358 26.1496 1.75 25.6666 1.75H12.5416C11.7377 1.75 11.0834 2.40454 11.0834 3.2084V4.9584C11.0834 5.44141 10.6914 5.8334 10.2084 5.8334Z" fill="#CCCCCC"/>
<path d="M17.2084 24.5H12.5416C10.7717 24.5 9.33337 23.0615 9.33337 21.2916V19.5416C9.33337 19.0586 9.72537 18.6666 10.2084 18.6666C10.6914 18.6666 11.0834 19.0586 11.0834 19.5416V21.2916C11.0834 22.0955 11.7377 22.75 12.5416 22.75H17.2084C17.6914 22.75 18.0834 23.142 18.0834 23.625C18.0834 24.108 17.6914 24.5 17.2084 24.5Z" fill="#CCCCCC"/>
</g>
<defs>
<clipPath id="clip0">
<rect width="28" height="28" fill="white"/>
</clipPath>
</defs>
</svg>
