<svg width="28" height="28" viewBox="0 0 28 28" fill="none" xmlns="http://www.w3.org/2000/svg">
<path d="M26.25 24.5H1.75C1.51794 24.5 1.29538 24.4078 1.13128 24.2437C0.967187 24.0797 0.875 23.8571 0.875 23.625V4.37503C0.875 4.14297 0.967187 3.92041 1.13128 3.75631C1.29538 3.59222 1.51794 3.50003 1.75 3.50003H26.25C26.4821 3.50003 26.7046 3.59222 26.8687 3.75631C27.0328 3.92041 27.125 4.14297 27.125 4.37503V23.625C27.125 23.8571 27.0328 24.0797 26.8687 24.2437C26.7046 24.4078 26.4821 24.5 26.25 24.5ZM2.625 22.75H25.375V5.25003H2.625V22.75Z" fill="#0FB5CD"/>
<path d="M14 15.1988C13.3733 15.1964 12.768 14.9698 12.2938 14.56L1.18129 5.04002C1.00492 4.88917 0.895701 4.67445 0.877651 4.44307C0.868713 4.32851 0.882428 4.21331 0.918013 4.10404C0.953597 3.99478 1.01035 3.89359 1.08504 3.80627C1.15973 3.71894 1.25089 3.64717 1.35332 3.59507C1.45574 3.54298 1.56742 3.51156 1.68198 3.50262C1.91336 3.48457 2.14242 3.55917 2.31879 3.71002L13.4313 13.2388C13.5898 13.3743 13.7915 13.4488 14 13.4488C14.2086 13.4488 14.4103 13.3743 14.5688 13.2388L25.6813 3.71002C25.7686 3.63533 25.8698 3.57857 25.9791 3.54298C26.0883 3.5074 26.2035 3.49368 26.3181 3.50262C26.4327 3.51156 26.5443 3.54298 26.6468 3.59507C26.7492 3.64717 26.8404 3.71894 26.915 3.80627C26.9897 3.89359 27.0465 3.99478 27.0821 4.10404C27.1177 4.21331 27.1314 4.32851 27.1224 4.44307C27.1135 4.55764 27.0821 4.66932 27.03 4.77174C26.9779 4.87417 26.9061 4.96533 26.8188 5.04002L15.75 14.56C15.2644 14.9797 14.6419 15.207 14 15.1988Z" fill="#0FB5CD"/>
<path d="M9.13831 15.019L1.26086 20.2706L2.23159 21.7267L10.109 16.4751L9.13831 15.019Z" fill="#0FB5CD"/>
<path d="M18.8573 15.0224L17.8866 16.4785L25.764 21.7301L26.7348 20.274L18.8573 15.0224Z" fill="#0FB5CD"/>
</svg>
