<svg version="1.2" baseProfile="tiny-ps" xmlns="http://www.w3.org/2000/svg" viewBox="0 0 204 204" width="204" height="204">
	<title>Form-svg</title>
	<style>
		tspan { white-space:pre }
		.shp0 { fill: #0fb5cd } 
		.txt1 { font-size: 200px;fill: #0fb5cd;font-weight: 800;font-style: italic;font-family: "Muli" } 
	</style>
	<g id="Page-1">
		<g id="Icons">
			<g id="form">
				<g id="Form">
					<path id="Path" class="shp0" d="M27.34 23.44C25.19 23.44 23.44 25.19 23.44 27.34C23.44 29.5 25.19 31.25 27.34 31.25C29.5 31.25 31.25 29.5 31.25 27.34C31.25 25.19 29.5 23.44 27.34 23.44Z" />
					<path id="Path" class="shp0" d="M27.34 46.88C25.19 46.88 23.44 48.63 23.44 50.78C23.44 52.94 25.19 54.69 27.34 54.69C29.5 54.69 31.25 52.94 31.25 50.78C31.25 48.63 29.5 46.88 27.34 46.88Z" />
					<path id="Shape" fill-rule="evenodd" class="shp0" d="M153.13 46.2L153.13 188.28C153.13 194.74 147.87 200 141.41 200L11.72 200C5.26 200 0 194.74 0 188.28L0 11.72C0 5.26 5.26 0 11.72 0L106.92 0C110.05 0 113.05 1.27 115.21 3.43L149.69 37.92C151.87 40.1 153.13 43.1 153.13 46.2ZM145.31 46.88L110.16 46.88C108 46.88 106.25 45.13 106.25 42.97L106.25 7.81L11.72 7.81C9.56 7.81 7.81 9.56 7.81 11.72L7.81 188.28C7.81 190.44 9.56 192.19 11.72 192.19L141.41 192.19C143.56 192.19 145.31 190.44 145.31 188.28L145.31 46.88ZM114.06 39.06L139.79 39.06L114.06 13.34L114.06 39.06Z" />
					<path id="Shape" fill-rule="evenodd" class="shp0" d="M200 31.25L200 157.03C200 167.95 196.39 178.77 189.84 187.5L188.28 189.58L188.28 196.09C188.28 198.25 186.53 200 184.38 200C182.22 200 180.47 198.25 180.47 196.09L180.47 189.58L178.91 187.5C172.36 178.77 168.75 167.95 168.75 157.03L168.75 31.25C168.75 27.43 170.16 23.76 172.66 20.93L172.66 11.72C172.66 5.26 177.91 0 184.38 0C190.84 0 196.09 5.26 196.09 11.72L196.09 20.92C198.62 23.78 200 27.41 200 31.25ZM180.47 16.12C181.73 15.8 183.05 15.63 184.38 15.63C185.7 15.63 187.02 15.8 188.28 16.13L188.28 11.72C188.28 9.56 186.53 7.81 184.38 7.81C182.22 7.81 180.47 9.56 180.47 11.72L180.47 16.12ZM192.01 160.94L176.74 160.94C177.43 168.38 180.08 175.61 184.38 181.74C188.67 175.61 191.32 168.38 192.01 160.94ZM192.19 72.66L176.56 72.66L176.56 153.13L192.19 153.13L192.19 72.66ZM192.19 31.25C192.19 26.85 188.59 23.44 184.38 23.44C180.06 23.44 176.56 26.96 176.56 31.25L176.56 64.84L192.19 64.84L192.19 31.25Z" />
					<path id="Path" class="shp0" d="M84.38 23.44L42.97 23.44C40.81 23.44 39.06 25.19 39.06 27.34C39.06 29.5 40.81 31.25 42.97 31.25L84.38 31.25C86.53 31.25 88.28 29.5 88.28 27.34C88.28 25.19 86.53 23.44 84.38 23.44Z" />
					<path id="Path" class="shp0" d="M84.38 46.88L42.97 46.88C40.81 46.88 39.06 48.62 39.06 50.78C39.06 52.94 40.81 54.69 42.97 54.69L84.38 54.69C86.53 54.69 88.28 52.94 88.28 50.78C88.28 48.62 86.53 46.88 84.38 46.88Z" />
					<path id="Path" class="shp0" d="M125.78 72.66L27.34 72.66C25.19 72.66 23.44 74.41 23.44 76.56C23.44 78.72 25.19 80.47 27.34 80.47L125.78 80.47C127.94 80.47 129.69 78.72 129.69 76.56C129.69 74.41 127.94 72.66 125.78 72.66Z" />
					<path id="Path" class="shp0" d="M125.78 96.09L27.34 96.09C25.19 96.09 23.44 97.84 23.44 100C23.44 102.16 25.19 103.91 27.34 103.91L125.78 103.91C127.94 103.91 129.69 102.16 129.69 100C129.69 97.84 127.94 96.09 125.78 96.09Z" />
					<path id="Path-Copy" class="shp0" d="M125.42 121.54L26.98 121.54C24.83 121.54 23.08 123.29 23.08 125.44C23.08 127.6 24.83 129.35 26.98 129.35L125.42 129.35C127.58 129.35 129.33 127.6 129.33 125.44C129.33 123.29 127.58 121.54 125.42 121.54Z" />
					<path id="Path-Copy-2" class="shp0" d="M125.42 147.69L26.98 147.69C24.83 147.69 23.08 149.44 23.08 151.6C23.08 153.76 24.83 155.5 26.98 155.5L125.42 155.5C127.58 155.5 129.33 153.76 129.33 151.6C129.33 149.44 127.58 147.69 125.42 147.69Z" />
				</g>
				<text id="1" style="opacity: 0.322;transform: matrix(1,0,0,1,200.114,276)" >
					<tspan x="0" y="0" class="txt1">1
</tspan>
				</text>
			</g>
		</g>
	</g>
</svg>