<svg width="28" height="28" viewBox="0 0 28 28" fill="none" xmlns="http://www.w3.org/2000/svg">
<g clip-path="url(#clip0)">
<path d="M0.0096989 27.7882C0.0096989 27.3675 0.0096989 27.0007 0.0096989 26.634C0.0096989 20.2191 0.015235 13.8042 1.08017e-05 7.38926C-0.00137321 6.91315 0.130108 6.57822 0.47196 6.24329C2.44833 4.30429 4.39564 2.33622 6.37339 0.3986C6.57823 0.197918 6.91454 0.0179964 7.18996 0.0166124C11.8956 -0.00691588 16.6026 4.18644e-06 21.3097 0.00277221C21.4453 0.00277221 21.5809 0.0304525 21.8093 0.0539807C21.8093 0.773668 21.8079 1.48228 21.8093 2.18951C21.8121 3.41298 21.8425 4.63645 21.8065 5.85854C21.7899 6.40245 21.9851 6.6668 22.4709 6.90208C25.6181 8.4245 27.4533 10.9725 27.9183 14.4007C28.4636 18.4171 26.2478 22.3587 22.5788 24.1026C21.9837 24.3849 21.7567 24.6922 21.8038 25.3399C21.8633 26.1385 21.8176 26.944 21.8176 27.7896C14.5142 27.7882 7.30484 27.7882 0.0096989 27.7882ZM20.1277 6.04815C20.1277 4.67659 20.1277 3.36731 20.1277 2.05665C20.1277 1.58608 19.7748 1.65113 19.4855 1.65113C15.9798 1.64698 12.4741 1.65944 8.9698 1.63729C8.39129 1.63314 8.28195 1.86842 8.28887 2.37912C8.3124 4.10914 8.27641 5.83916 8.30963 7.56918C8.3207 8.12832 8.12971 8.27918 7.59548 8.26949C5.91252 8.24181 4.22817 8.29025 2.54521 8.24458C1.86566 8.22658 1.63592 8.38713 1.64007 9.1165C1.6719 14.4685 1.65668 19.8205 1.65806 25.1711C1.65806 26.1994 1.6636 26.2049 2.68915 26.2049C8.17815 26.2077 13.6671 26.2063 19.1561 26.2063C20.2191 26.2063 20.2883 26.1122 20.0239 25.0188C19.8523 25.0188 19.671 25.0022 19.4925 25.0216C17.2379 25.2555 15.1439 24.8029 13.2035 23.6085C12.9488 23.4521 12.5932 23.4009 12.2845 23.3995C9.79329 23.3857 7.30345 23.3912 4.81223 23.3995C3.45728 23.4037 3.44621 23.4023 3.55554 22.064C3.56246 21.9768 3.60952 21.8923 3.67042 21.7124C6.05507 21.7124 8.45357 21.7124 10.96 21.7124C10.6154 21.192 10.3192 20.8087 10.0964 20.3865C9.87495 19.9672 9.59123 19.8094 9.10959 19.8191C7.5415 19.8495 5.97341 19.8177 4.40533 19.8371C3.86003 19.844 3.5071 19.8191 3.51125 19.0856C3.51541 18.3659 3.75207 18.1749 4.43301 18.2053C5.58451 18.2551 6.73877 18.2233 7.89166 18.2233C9.10682 18.2247 9.06945 18.2289 8.89507 17.0165C8.80926 16.4186 8.55737 16.2815 7.99546 16.2982C6.70556 16.3383 5.41151 16.2843 4.1216 16.3217C3.43513 16.3411 3.54724 15.9037 3.53893 15.4982C3.52925 15.0705 3.47389 14.6526 4.13544 14.6747C5.10287 14.7065 6.07306 14.7024 7.04049 14.6802C9.15249 14.6332 8.6155 15.0124 9.07222 12.9807C9.07637 12.9641 9.05561 12.9419 9.00856 12.8437C8.80926 12.8284 8.56706 12.7924 8.32347 12.7911C6.96298 12.7855 5.60111 12.7578 4.24201 12.8007C3.53755 12.8229 3.53755 12.4312 3.5334 11.9274C3.52925 11.425 3.57907 11.0998 4.23233 11.115C5.89176 11.1552 7.55257 11.1358 9.21339 11.1192C9.44729 11.1164 9.77253 11.0763 9.89571 10.924C10.2749 10.4521 10.578 9.91785 10.9213 9.39054C9.94553 9.11512 9.86526 8.92551 10.149 7.6107C10.6569 7.6107 11.1828 7.58717 11.706 7.61623C12.4824 7.65914 13.1564 7.45569 13.8734 7.12214C14.9031 6.64466 16.0186 6.28481 17.1355 6.08413C18.0669 5.91528 19.0523 6.04815 20.1277 6.04815ZM10.405 15.5079C10.3981 19.8592 13.9606 23.4438 18.3091 23.4604C22.7186 23.477 26.2866 19.9533 26.3212 15.548C26.3544 11.2091 22.7892 7.62592 18.4199 7.60793C14.0062 7.58994 10.4106 11.133 10.405 15.5079ZM6.60314 2.85661C5.35061 4.06485 4.06901 5.29939 2.73759 6.58238C3.93061 6.58238 5.09733 6.5893 6.26267 6.56992C6.37755 6.56854 6.58653 6.40107 6.58792 6.30834C6.61144 5.10425 6.60314 3.89739 6.60314 2.85661Z" fill="#CCCCCC"/>
<path d="M10.095 5.6966C10.095 5.1167 10.095 4.64475 10.095 4.08561C11.4707 4.08561 12.8007 4.08422 14.1321 4.08561C15.3293 4.08699 16.5265 4.10637 17.7223 4.08976C18.2468 4.08284 18.28 4.4067 18.2371 4.7707C18.1956 5.12916 18.4641 5.69107 17.7596 5.69383C15.2297 5.70075 12.6997 5.6966 10.095 5.6966Z" fill="#CCCCCC"/>
<path d="M15.1259 12.4022C15.8456 13.2326 16.4338 13.908 17.0787 14.6526C17.5687 14.1806 17.9479 13.8235 18.3174 13.4582C19.1852 12.6001 20.0599 11.7489 20.9069 10.8714C21.2239 10.5434 21.4508 10.5545 21.7595 10.8701C22.6273 11.7586 23.5075 12.6361 24.403 13.4983C24.724 13.8083 24.7268 14.0284 24.4043 14.3467C22.1276 16.593 19.8578 18.8489 17.6019 21.1159C17.2753 21.4439 17.0608 21.4149 16.7535 21.1048C15.1979 19.5354 13.6215 17.9867 12.0714 16.4117C11.9385 16.2774 11.8306 15.8954 11.9095 15.8096C12.9281 14.6899 13.9827 13.6021 15.1259 12.4022ZM21.1907 12.7689C20.1955 13.8111 19.224 14.8532 18.2247 15.8705C17.1867 16.9279 17.1756 16.9168 16.1127 15.8373C15.0913 14.7993 15.0913 14.7993 14.1211 15.9162C14.0976 15.9439 14.1045 15.9992 14.117 15.9259C15.1743 17.0068 16.1833 18.0393 17.2379 19.1188C17.4068 18.961 17.5922 18.7977 17.7666 18.6247C19.0247 17.3735 20.2827 16.121 21.538 14.8657C22.5844 13.8235 22.583 13.8222 21.1907 12.7689Z" fill="#CCCCCC"/>
</g>
<defs>
<clipPath id="clip0">
<rect width="28" height="27.7882" fill="white"/>
</clipPath>
</defs>
</svg>
