<svg width="28" height="28" viewBox="0 0 28 28" fill="none" xmlns="http://www.w3.org/2000/svg">
<path d="M8.25781 3.28125H9.89844V4.92188H8.25781V3.28125Z" fill="#CCCCCC"/>
<path d="M11.5391 3.28125H13.1797V4.92188H11.5391V3.28125Z" fill="#CCCCCC"/>
<path d="M14.8203 3.28125H16.4609V4.92188H14.8203V3.28125Z" fill="#CCCCCC"/>
<path d="M18.1016 3.28125H19.7422V4.92188H18.1016V3.28125Z" fill="#CCCCCC"/>
<path d="M8.25781 6.5625H9.89844V8.20312H8.25781V6.5625Z" fill="#CCCCCC"/>
<path d="M11.5391 6.5625H13.1797V8.20312H11.5391V6.5625Z" fill="#CCCCCC"/>
<path d="M14.8203 6.5625H16.4609V8.20312H14.8203V6.5625Z" fill="#CCCCCC"/>
<path d="M18.1016 6.5625H19.7422V8.20312H18.1016V6.5625Z" fill="#CCCCCC"/>
<path d="M8.25781 9.84375H9.89844V11.4844H8.25781V9.84375Z" fill="#CCCCCC"/>
<path d="M11.5391 9.84375H13.1797V11.4844H11.5391V9.84375Z" fill="#CCCCCC"/>
<path d="M14.8203 9.84375H16.4609V11.4844H14.8203V9.84375Z" fill="#CCCCCC"/>
<path d="M18.1016 9.84375H19.7422V11.4844H18.1016V9.84375Z" fill="#CCCCCC"/>
<path d="M8.25781 13.125H9.89844V14.7656H8.25781V13.125Z" fill="#CCCCCC"/>
<path d="M11.5391 13.125H13.1797V14.7656H11.5391V13.125Z" fill="#CCCCCC"/>
<path d="M14.8203 13.125H16.4609V14.7656H14.8203V13.125Z" fill="#CCCCCC"/>
<path d="M18.1016 13.125H19.7422V14.7656H18.1016V13.125Z" fill="#CCCCCC"/>
<path d="M8.25781 16.4062H9.89844V18.0469H8.25781V16.4062Z" fill="#CCCCCC"/>
<path d="M11.5391 16.4062H13.1797V18.0469H11.5391V16.4062Z" fill="#CCCCCC"/>
<path d="M14.8203 16.4062H16.4609V18.0469H14.8203V16.4062Z" fill="#CCCCCC"/>
<path d="M18.1016 16.4062H19.7422V18.0469H18.1016V16.4062Z" fill="#CCCCCC"/>
<path d="M23.0234 6.5625V0H4.97656V6.5625H0V28H28V6.5625H23.0234ZM4.97656 26.3594H1.64062V8.20312H4.97656V26.3594ZM12.3594 26.3594V21.3281H15.6406V26.3594H12.3594ZM21.3828 26.3594H17.2812V19.6875H10.7188V26.3594H6.61719C6.61719 25.7108 6.61719 1.88913 6.61719 1.64062H21.3828V26.3594ZM26.3594 26.3594H23.0234V8.20312H26.3594V26.3594Z" fill="#CCCCCC"/>
</svg>
