<svg version="1.1" id="Layer_1" xmlns="http://www.w3.org/2000/svg" x="0" y="0" viewBox="0 0 144 36" xml:space="preserve"><style>.st0{fill:#0b0f2f}.st1{fill:#0fb5cd}.st2{fill:#0fb5ff}.st3{fill:#1582ca}.st4{fill:#f9622d}.st5{fill:#0b56a3}.st6{fill:#0e58ca}.st7{fill:#032083}.st8{fill:#fff}</style><path d="M36.2 7h5.3l5.7 15.3L52.9 7H58l-8.9 21.8h-4.2L36.2 7zM56.4 20.4c0-4.8 3.4-8.7 8.2-8.7 5.5 0 8.1 4.3 8.1 9 0 .4 0 .8-.1 1.2H61.1c.5 2.1 1.9 3.2 4.1 3.2 1.6 0 2.7-.5 4-1.7l2.7 2.4c-1.5 1.9-3.8 3.1-6.8 3.1-5 .1-8.7-3.4-8.7-8.5zM68.1 19c-.3-2.1-1.5-3.5-3.5-3.5-1.9 0-3.2 1.4-3.6 3.5h7.1zM75.2 12.1h4.7v2.4c1.1-1.4 2.5-2.7 4.9-2.7 3.6 0 5.6 2.4 5.6 6.2v10.7h-4.7v-9.2c0-2.2-1.1-3.4-2.8-3.4-1.8 0-2.9 1.1-2.9 3.4v9.2h-4.8V12.1zM93.4 22.8V12.1h4.7v9.2c0 2.2 1.1 3.4 2.8 3.4 1.8 0 2.9-1.1 2.9-3.4v-9.2h4.7v16.6h-4.7v-2.4c-1.1 1.4-2.5 2.7-4.9 2.7-3.4-.1-5.5-2.4-5.5-6.2zM111 20.4c0-4.8 3.4-8.7 8.2-8.7 5.5 0 8.1 4.3 8.1 9 0 .4 0 .8-.1 1.2h-11.5c.5 2.1 1.9 3.2 4.1 3.2 1.6 0 2.7-.5 4-1.7l2.7 2.4c-1.5 1.9-3.8 3.1-6.8 3.1-5 .1-8.7-3.4-8.7-8.5zm11.7-1.4c-.3-2.1-1.5-3.5-3.5-3.5-1.9 0-3.2 1.4-3.6 3.5h7.1zM128.5 26.4l2-3.1c1.8 1.3 3.7 2 5.2 2 1.4 0 2-.5 2-1.2V24c0-1-1.6-1.4-3.4-1.9-2.3-.7-4.9-1.8-4.9-5V17c0-3.4 2.7-5.3 6.1-5.3 2.1 0 4.4.7 6.2 1.9l-1.8 3.2c-1.6-1-3.3-1.5-4.5-1.5-1.1 0-1.7.5-1.7 1.1v.1c0 .9 1.6 1.4 3.4 2 2.3.8 5 1.9 5 4.9v.1c0 3.7-2.8 5.4-6.3 5.4-2.5 0-5.1-.7-7.3-2.5z"/><path class="st0" d="M141.8 10.2v.4h-.6v1.6h-.4v-1.6h-.6v-.4h1.6zm1.6 0h.6v2h-.4v-1.8l-.4 1.7h-.4l-.4-1.7v1.8h-.4v-2h.6l.4 1.6.4-1.6z"/><g><path class="st1" d="M10.1 29.3C5 27.7 1.2 23.3.2 18c-.1.8-.2 1.7-.2 2.6 0 8.1 6.5 14.6 14.6 14.6 3.5 0 6.7-1.2 9.3-3.3-1.4.5-2.9.7-4.5.7-3.5 0-6.8-1.2-9.3-3.3z"/><path class="st2" d="M34 18c0-6.5-4.3-12-10.1-13.9 3.3 2.7 5.4 6.8 5.4 11.3 0 .9-.1 1.8-.2 2.6.2.8.2 1.7.2 2.6 0 4.6-2.1 8.6-5.4 11.3C29.8 30 34 24.5 34 18z"/><path class="st3" d="M29.2 20.6c0-.9-.1-1.8-.2-2.6-1.2 6.8-7.2 12-14.4 12-1.6 0-3.1-.3-4.5-.7 2.5 2.1 5.7 3.3 9.3 3.3 1.6 0 3.1-.3 4.5-.7 3.3-2.7 5.3-6.7 5.3-11.3z"/><path class="st4" d="M10.1 6.7c2.5-2.1 5.7-3.3 9.3-3.3 1.6 0 3.1.3 4.5.7C21.4 2 18.2.8 14.6.8 6.5.8 0 7.3 0 15.4c0 .9.1 1.8.2 2.6 1-5.3 4.9-9.7 9.9-11.3z"/><path class="st5" d="M10.1 29.3C6.9 26.6 4.8 22.6 4.8 18c0-4.6 2.1-8.6 5.4-11.3C5.1 8.3 1.3 12.7.3 18c.9 5.3 4.8 9.7 9.8 11.3z"/><path class="st6" d="M10.1 6.7c1.4-.5 3-.7 4.5-.7 7.2 0 13.2 5.2 14.4 12 .2-.8.2-1.7.2-2.6 0-4.6-2.1-8.6-5.4-11.3-1.4-.5-2.9-.7-4.5-.7-3.4 0-6.7 1.2-9.2 3.3z"/><path class="st7" d="M14.6 6c-1.6 0-3.1.3-4.5.7C6.9 9.4 4.8 13.4 4.8 18c0 4.6 2.1 8.6 5.4 11.3 1.4.5 2.9.7 4.5.7 7.2 0 13.2-5.2 14.4-12-1.3-6.8-7.3-12-14.5-12z"/><g><path class="st8" d="M8.1 17.7c0-4.8 3.4-8.5 8.3-8.5 5.6 0 8.1 4.1 8.1 8.9v1.1H13.6c.5 1.8 1.8 2.6 3.5 2.6 1.4 0 2.4-.5 3.6-1.6l3.1 2.6c-1.5 2-3.9 3.3-7 3.3-5.1.1-8.7-3.4-8.7-8.4zm11-1.3c-.3-1.8-1.3-3-2.9-3-1.5 0-2.5 1.1-2.9 3h5.8z"/></g></g></svg>