<svg width="28" height="28" viewBox="0 0 28 28" fill="none" xmlns="http://www.w3.org/2000/svg">
<path d="M25.2656 3.60938H10.3906C10.0886 3.60938 9.84375 3.85419 9.84375 4.15625C9.84375 4.45831 10.0886 4.70312 10.3906 4.70312H25.2656C26.1703 4.70312 26.9062 5.43906 26.9062 6.34375V21.6562C26.9062 22.5609 26.1703 23.2969 25.2656 23.2969H2.73438C1.82968 23.2969 1.09375 22.5609 1.09375 21.6562V6.34375C1.09375 5.43906 1.82968 4.70312 2.73438 4.70312H6.01562C6.31769 4.70312 6.5625 4.45831 6.5625 4.15625C6.5625 3.85419 6.31769 3.60938 6.01562 3.60938H2.73438C1.22662 3.60938 0 4.836 0 6.34375V21.6562C0 23.164 1.22662 24.3906 2.73438 24.3906H25.2656C26.7734 24.3906 28 23.164 28 21.6562V6.34375C28 4.836 26.7734 3.60938 25.2656 3.60938Z" fill="#CCCCCC"/>
<path d="M8.20312 6.45312C5.30832 6.45312 2.95312 8.80832 2.95312 11.7031C2.95312 14.5979 5.30832 16.9531 8.20312 16.9531C11.0979 16.9531 13.4531 14.5979 13.4531 11.7031C13.4531 8.80832 11.0979 6.45312 8.20312 6.45312ZM5.82849 15.1113C6.22241 14.1643 7.15359 13.5287 8.20312 13.5287C9.25266 13.5287 10.1841 14.1643 10.578 15.1113C9.90421 15.5821 9.0856 15.8594 8.20312 15.8594C7.32065 15.8594 6.50204 15.5821 5.82849 15.1113ZM7.20807 11.4399V11.2344C7.20807 10.6856 7.65454 10.2394 8.20312 10.2394C8.75171 10.2394 9.19818 10.6856 9.19818 11.2344V11.4399C9.19818 11.9885 8.75171 12.435 8.20312 12.435C7.65454 12.435 7.20807 11.9885 7.20807 11.4399ZM11.4169 14.3354C11.0464 13.6612 10.4739 13.125 9.7897 12.7962C10.1024 12.4309 10.2919 11.9573 10.2919 11.4399V11.2344C10.2919 10.0826 9.35477 9.14563 8.20312 9.14563C7.05148 9.14563 6.11432 10.0826 6.11432 11.2344V11.4399C6.11432 11.9573 6.3038 12.4309 6.61655 12.7962C5.93231 13.1248 5.3598 13.6612 4.98938 14.3354C4.40085 13.618 4.04688 12.7012 4.04688 11.7031C4.04688 9.41138 5.91138 7.54688 8.20312 7.54688C10.4949 7.54688 12.3594 9.41138 12.3594 11.7031C12.3594 12.7012 12.0054 13.618 11.4169 14.3354Z" fill="#CCCCCC"/>
<path d="M16.625 14.5469H24.5C24.8021 14.5469 25.0469 14.3021 25.0469 14V9.625C25.0469 9.32294 24.8021 9.07812 24.5 9.07812H16.625C16.3229 9.07812 16.0781 9.32294 16.0781 9.625V14C16.0781 14.3021 16.3229 14.5469 16.625 14.5469ZM17.1719 10.1719H23.9531V13.4531H17.1719V10.1719Z" fill="#CCCCCC"/>
<path d="M16.625 16.7344H24.5C24.8021 16.7344 25.0469 16.4896 25.0469 16.1875C25.0469 15.8854 24.8021 15.6406 24.5 15.6406H16.625C16.3229 15.6406 16.0781 15.8854 16.0781 16.1875C16.0781 16.4896 16.3229 16.7344 16.625 16.7344Z" fill="#CCCCCC"/>
<path d="M16.2383 18.7617C16.34 18.8633 16.4812 18.9219 16.625 18.9219C16.7688 18.9219 16.91 18.8633 17.0117 18.7617C17.1133 18.66 17.1719 18.5188 17.1719 18.375C17.1719 18.2312 17.1133 18.09 17.0117 17.9883C16.91 17.8867 16.7688 17.8281 16.625 17.8281C16.4812 17.8281 16.34 17.8867 16.2383 17.9883C16.1367 18.09 16.0781 18.2312 16.0781 18.375C16.0781 18.5188 16.1367 18.66 16.2383 18.7617Z" fill="#CCCCCC"/>
<path d="M18.4258 17.9883C18.3242 18.09 18.2656 18.2312 18.2656 18.375C18.2656 18.5188 18.3242 18.66 18.4258 18.7617C18.5275 18.8633 18.6687 18.9219 18.8125 18.9219C18.9563 18.9219 19.0975 18.8633 19.1992 18.7617C19.3008 18.66 19.3594 18.5188 19.3594 18.375C19.3594 18.2312 19.3008 18.09 19.1992 17.9883C19.0975 17.8867 18.9563 17.8281 18.8125 17.8281C18.6687 17.8281 18.5275 17.8867 18.4258 17.9883Z" fill="#CCCCCC"/>
<path d="M24.5 17.8281H21C20.6979 17.8281 20.4531 18.0729 20.4531 18.375C20.4531 18.6771 20.6979 18.9219 21 18.9219H24.5C24.8021 18.9219 25.0469 18.6771 25.0469 18.375C25.0469 18.0729 24.8021 17.8281 24.5 17.8281Z" fill="#CCCCCC"/>
<path d="M12.1225 18.5982C12.1225 18.2964 11.8775 18.0514 11.5756 18.0514H4.83069C4.52884 18.0514 4.28381 18.2964 4.28381 18.5982C4.28381 18.9003 4.52884 19.1451 4.83069 19.1451H11.5756C11.8775 19.1451 12.1225 18.9003 12.1225 18.5982Z" fill="#CCCCCC"/>
<path d="M5.70569 20.2389C5.40384 20.2389 5.15881 20.4839 5.15881 20.7857C5.15881 21.0878 5.40384 21.3326 5.70569 21.3326H10.7006C11.0025 21.3326 11.2475 21.0878 11.2475 20.7857C11.2475 20.4839 11.0025 20.2389 10.7006 20.2389H5.70569Z" fill="#CCCCCC"/>
<path d="M8.20312 4.70312C8.34689 4.70312 8.4881 4.64459 8.58978 4.54291C8.69147 4.44122 8.75 4.30002 8.75 4.15625C8.75 4.01248 8.69147 3.87128 8.58978 3.76959C8.4881 3.66791 8.34689 3.60938 8.20312 3.60938C8.05936 3.60938 7.91815 3.66791 7.81647 3.76959C7.71478 3.87128 7.65625 4.01248 7.65625 4.15625C7.65625 4.30002 7.71478 4.44122 7.81647 4.54291C7.91815 4.64459 8.05936 4.70312 8.20312 4.70312Z" fill="#CCCCCC"/>
</svg>
