<svg width="28" height="29" viewBox="0 0 28 29" fill="none" xmlns="http://www.w3.org/2000/svg">
<g clip-path="url(#clip0)">
<path d="M5.89648 14.3512C5.9514 10.8504 8.09081 7.78656 11.3903 6.61732C11.8983 6.43655 12.4589 6.35189 12.9989 6.3313C13.9485 6.29698 14.9026 6.3107 15.8499 6.3702C16.7629 6.4274 17.5248 6.91249 18.273 7.393C19.7649 8.34944 20.9113 9.60563 21.6137 11.2485C21.8471 11.7954 21.973 12.3583 21.9821 12.9486C21.9936 13.7151 21.973 14.4817 21.9981 15.2482C22.0439 16.6325 21.5291 17.8246 20.7305 18.9024C19.2203 20.9411 17.2182 22.1012 14.6532 22.3208C10.7496 22.6549 7.052 20.0327 6.16649 16.2161C6.02233 15.6051 5.98343 14.9736 5.89648 14.3512Z" fill="#0FB5CD"/>
<path d="M24.8747 20.758C24.2043 20.6551 23.4538 20.4606 22.7902 20.035C22.2731 19.7055 22.2159 19.1884 22.3417 18.6507C22.5339 17.8201 22.8383 17.0261 23.3119 16.3122C23.6734 15.7653 23.8771 15.6646 24.4812 15.9026C25.1653 16.1703 25.822 16.5158 26.481 16.8453C26.7945 17.0009 26.8837 17.2709 26.8334 17.6256C26.7144 18.5042 26.4421 19.3302 26.0348 20.1128C25.7808 20.5887 25.4696 20.7672 24.8747 20.758Z" fill="#0FB5CD"/>
<path d="M27.1624 12.237C27.1807 12.7633 26.8764 13.0859 26.4416 13.2346C25.9108 13.4154 25.3502 13.5069 24.7987 13.6282C24.6569 13.6602 24.5081 13.6579 24.364 13.6785C23.9041 13.7426 23.57 13.555 23.3892 13.1408C22.9842 12.205 22.8607 11.2142 22.8584 10.2028C22.8584 9.91453 23.014 9.72919 23.2405 9.58275C23.7439 9.25554 24.3091 9.11368 24.8926 9.0519C25.19 9.01986 25.492 9.03588 25.7941 9.04503C26.1785 9.05647 26.4737 9.22808 26.5881 9.60334C26.7528 10.1525 26.897 10.7062 27.0251 11.2645C27.0983 11.5803 27.1189 11.9121 27.1624 12.237Z" fill="#0FB5CD"/>
<path d="M16.4059 3.00202C16.3876 3.31092 16.3784 3.62211 16.3464 3.92872C16.3006 4.37491 16.0283 4.65406 15.6233 4.80737C14.9392 5.06822 14.2276 5.05449 13.5137 4.99728C13.4313 4.99042 13.3512 4.9744 13.2688 4.96296C12.3627 4.82339 12.0126 4.45271 11.8868 3.53974C11.7998 2.90363 11.8319 2.28355 12.0721 1.68405C12.246 1.24702 12.5618 0.979306 13.0492 0.977018C13.7791 0.972442 14.5113 0.94956 15.2366 0.993035C15.994 1.03651 16.3281 1.43465 16.3738 2.23321C16.3876 2.48719 16.3761 2.74346 16.3761 2.99974C16.3853 2.99974 16.3967 3.00202 16.4059 3.00202Z" fill="#0FB5CD"/>
<path d="M14.1954 27.444C13.7378 27.4074 13.3717 27.3937 13.0124 27.3433C12.3923 27.2564 12.0674 26.952 11.937 26.3434C11.8043 25.7302 11.8066 25.1101 11.9187 24.4946C12.0285 23.8951 12.4084 23.545 12.9941 23.4329C13.7263 23.291 14.4677 23.2796 15.2022 23.3963C15.9893 23.5198 16.2662 23.7715 16.344 24.5586C16.4035 25.1696 16.3691 25.7965 16.3142 26.412C16.2707 26.8788 15.9687 27.2014 15.4928 27.2861C15.0329 27.3662 14.5684 27.4005 14.1954 27.444Z" fill="#0FB5CD"/>
<path d="M4.98535 4.9607C4.99908 4.65409 5.12035 4.41155 5.33086 4.22163C6.04247 3.58324 6.82731 3.05468 7.68078 2.62679C7.93019 2.50095 8.15443 2.52612 8.36723 2.70002C9.02621 3.24459 9.5296 3.90815 9.88884 4.68155C10.0719 5.07968 10.0124 5.45494 9.73325 5.77985C9.16121 6.44342 8.47706 6.97655 7.6968 7.37469C7.23688 7.60808 6.78841 7.54172 6.404 7.18706C5.8823 6.70426 5.46586 6.13909 5.1501 5.50528C5.06772 5.33595 5.04027 5.14375 4.98535 4.9607Z" fill="#0FB5CD"/>
<path d="M20.7764 20.8633C21.0098 20.9891 21.3072 21.0624 21.4651 21.25C21.8839 21.7511 22.2728 22.2842 22.6115 22.8402C22.8563 23.2429 22.8128 23.7006 22.4994 24.0713C21.8907 24.7943 21.1471 25.348 20.2753 25.7187C19.8657 25.8926 19.4744 25.8102 19.1564 25.5105C18.5958 24.9842 18.1862 24.3504 17.9025 23.6365C17.7469 23.2429 17.8316 22.8677 18.1084 22.5634C18.7377 21.8701 19.5019 21.3598 20.3622 20.9983C20.4766 20.9502 20.6094 20.9434 20.7329 20.9182C20.7489 20.9022 20.7627 20.8816 20.7764 20.8633Z" fill="#0FB5CD"/>
<path d="M9.75022 23.1537C9.64039 23.4054 9.59005 23.6433 9.45047 23.8058C9.02487 24.3046 8.5947 24.8057 8.10733 25.245C7.6108 25.6935 7.12572 25.6935 6.58114 25.3C5.83749 24.76 5.20139 24.1056 4.6774 23.3436C4.49664 23.0828 4.49893 22.8471 4.67969 22.5885C5.17622 21.8769 5.77113 21.266 6.47359 20.7557C6.72529 20.5727 6.96326 20.5612 7.23326 20.7237C8.04097 21.2065 8.75716 21.7968 9.37954 22.497C9.542 22.6778 9.62666 22.9272 9.75022 23.1537Z" fill="#0FB5CD"/>
<path d="M3.6947 12.5367C3.12496 12.5093 2.45453 12.3239 1.82987 11.9761C1.2258 11.6398 1.05876 11.3721 1.20292 10.7062C1.36309 9.96256 1.60792 9.23493 1.82987 8.50501C1.99004 7.98103 2.39046 7.78425 2.90529 7.80255C3.65809 7.83001 4.36055 8.02908 5.0081 8.42264C5.4703 8.70408 5.67623 9.10222 5.54352 9.62391C5.35818 10.363 5.16369 11.1066 4.91428 11.8251C4.70377 12.4406 4.49326 12.5413 3.6947 12.5367Z" fill="#0FB5CD"/>
<path d="M21.2547 7.81176C21.0145 7.71109 20.7582 7.64931 20.5522 7.51202C19.7606 6.98117 19.1176 6.30159 18.6073 5.49388C18.4586 5.2582 18.454 5.03396 18.6005 4.80286C19.0787 4.04091 19.6919 3.41167 20.4401 2.90828C20.6918 2.73895 20.9435 2.72522 21.2067 2.88997C22.0899 3.44141 22.8106 4.15531 23.369 5.03167C23.5131 5.2582 23.5223 5.49159 23.4101 5.73642C23.0715 6.48693 22.5612 7.10015 21.8794 7.56007C21.7055 7.67676 21.4835 7.72253 21.2547 7.81176Z" fill="#0FB5CD"/>
<path d="M5.07679 17.7217C5.06077 17.9573 5.03789 18.193 5.02645 18.431C5.01272 18.7651 4.83424 18.9779 4.53907 19.0923C3.90755 19.3371 3.26458 19.527 2.57356 19.5179C2.09762 19.511 1.72008 19.3234 1.5233 18.9023C1.33339 18.4951 1.20067 18.0534 1.08627 17.6164C0.992452 17.2572 0.944401 16.8819 0.905503 16.5112C0.839147 15.898 1.04508 15.4907 1.62627 15.2848C2.13652 15.104 2.68339 15.0285 3.21653 14.9187C3.35839 14.8889 3.50941 14.9187 3.65356 14.8981C4.14551 14.8295 4.44526 15.072 4.66492 15.4793C4.96467 16.0353 5.00128 16.6462 5.04933 17.2549C5.06077 17.4082 5.05162 17.5638 5.05162 17.7194C5.05848 17.7217 5.06763 17.7217 5.07679 17.7217Z" fill="#0FB5CD"/>
<path d="M24.0626 6.06586C24.0328 5.8851 23.9733 5.70205 23.9802 5.52357C23.9985 5.02705 23.8361 4.59688 23.4928 4.25823C22.9277 3.69992 22.3465 3.15763 21.7539 2.63136C21.4701 2.37967 21.1246 2.27212 20.7333 2.37738C20.6029 2.4117 20.4588 2.40712 20.3238 2.39568C20.2528 2.38882 20.1865 2.33161 20.1201 2.29729C20.1613 2.23094 20.1865 2.13941 20.246 2.10509C20.6212 1.89 21.0239 1.81907 21.4266 2.00441C21.6646 2.11424 21.9026 2.25153 22.0971 2.42543C22.7309 2.9906 23.3556 3.56492 23.9596 4.15984C24.4172 4.6106 24.4996 5.17806 24.3395 5.78442C24.312 5.88968 24.2411 5.98349 24.1907 6.08188C24.1472 6.07273 24.1038 6.06815 24.0626 6.06586Z" fill="#0FB5CD"/>
<path d="M2.9289 6.93081C2.86712 7.19853 2.68865 7.25115 2.51246 7.33581C2.2722 7.45251 1.99076 7.56234 1.83746 7.76141C1.07093 8.74989 0.672793 9.8848 0.670505 11.1364C0.670505 11.3812 0.82381 11.6261 0.917624 11.8686C0.956523 11.967 1.0183 12.0563 1.06864 12.1501C1.05491 12.1707 1.04118 12.1935 1.02517 12.2141C0.935929 12.1798 0.837539 12.1592 0.76203 12.1066C0.206012 11.7222 0.114486 11.1547 0.272368 10.5712C0.494318 9.75667 0.764319 8.94895 1.07779 8.16412C1.21051 7.83005 1.4622 7.512 1.73678 7.27175C1.96102 7.07497 2.2928 6.98802 2.58797 6.88276C2.67949 6.85302 2.80534 6.91251 2.9289 6.93081Z" fill="#0FB5CD"/>
<path d="M16.9297 1.35001C16.7879 1.24933 16.6163 1.17382 16.5064 1.04568C16.1861 0.668141 15.7742 0.491954 15.3006 0.487378C14.4334 0.480514 13.5639 0.501107 12.6967 0.5217C12.3832 0.528565 12.1498 0.686446 11.9782 0.956447C11.8546 1.14865 11.7242 1.36145 11.4222 1.35916C11.3444 0.999922 11.4794 0.720769 11.7562 0.574328C12.104 0.388988 12.4839 0.22653 12.8706 0.151021C13.8179 -0.0366065 14.7789 -0.045759 15.733 0.107547C16.2616 0.192208 16.9229 0.839752 16.9297 1.35001Z" fill="#0FB5CD"/>
<path d="M1.06601 14.7493C0.990497 14.9072 0.960751 15.0514 0.871513 15.1337C0.393291 15.5776 0.326935 16.1176 0.452783 16.7171C0.587784 17.367 0.693038 18.0259 0.846344 18.6712C0.983632 19.2478 1.28796 19.7077 1.8966 19.9045C1.97897 19.932 2.0316 20.0464 2.09796 20.1219C2.00186 20.1471 1.90118 20.2043 1.80736 20.1928C1.32914 20.1333 0.979056 19.8839 0.757106 19.4537C0.409308 18.7787 0.265155 18.0465 0.146172 17.3075C0.0775277 16.8659 0.0203242 16.4197 -0.000269107 15.9758C-0.0208624 15.509 0.411597 14.9187 0.844056 14.7631C0.889818 14.747 0.947022 14.7562 1.06601 14.7493Z" fill="#0FB5CD"/>
<path d="M3.71289 23.1766C3.77925 22.9386 3.8273 22.7373 3.89823 22.5428C3.91654 22.4924 4.01493 22.4352 4.06755 22.4421C4.11103 22.449 4.17052 22.5451 4.17281 22.6023C4.1751 22.7464 4.16365 22.8951 4.12704 23.0347C4.05382 23.307 4.12247 23.5496 4.2895 23.7509C4.93247 24.5266 5.65095 25.2222 6.47468 25.8079C6.84765 26.0734 7.28697 26.0413 7.70799 26.0985C7.82468 26.1146 7.93223 26.1992 8.04434 26.2541C7.93451 26.3228 7.83155 26.4212 7.71256 26.4532C7.23892 26.5745 6.78587 26.5081 6.38086 26.229C5.43357 25.5723 4.63272 24.7623 3.94857 23.8447C3.81357 23.6594 3.78611 23.394 3.71289 23.1766Z" fill="#0FB5CD"/>
<path d="M16.8227 26.9909C16.8364 27.5492 16.5161 28.0137 15.9715 28.1029C15.2553 28.2219 14.5231 28.2768 13.7978 28.2997C13.3562 28.3134 12.9077 28.2311 12.4661 28.1647C12.0771 28.1075 11.7773 27.8833 11.5623 27.5561C11.5188 27.4897 11.4707 27.4119 11.4616 27.3364C11.4524 27.2449 11.4845 27.1465 11.4982 27.0527C11.5851 27.087 11.6721 27.1213 11.759 27.1579C11.7751 27.1648 11.7888 27.1808 11.7979 27.1968C12.1755 27.8764 12.8322 27.9039 13.4912 27.9016C14.0655 27.9016 14.6421 27.881 15.2164 27.8627C15.6741 27.849 16.0699 27.6934 16.3994 27.3684C16.5207 27.2449 16.6557 27.1396 16.8227 26.9909Z" fill="#0FB5CD"/>
<path d="M23.3851 23.1949C23.5933 23.2452 23.7054 23.4191 23.6803 23.6068C23.6437 23.8676 23.5956 24.1765 23.4331 24.3618C23.0648 24.7851 22.662 25.1993 22.2044 25.5196C21.6186 25.9315 20.9757 26.2702 20.335 26.5951C19.9712 26.7804 19.5662 26.7392 19.1932 26.563C19.0925 26.515 19.0056 26.4349 18.9141 26.3685C18.9186 26.3365 18.9209 26.3045 18.9255 26.2724C19.0674 26.2496 19.2092 26.1969 19.3488 26.2061C21.0306 26.3113 22.1358 25.3572 23.0739 24.1445C23.2592 23.9065 23.2775 23.5381 23.3851 23.1949Z" fill="#0FB5CD"/>
<path d="M28.0002 12.253C28.0139 12.8182 27.8881 13.3261 27.4076 13.6831C27.3504 13.7266 27.2909 13.7815 27.2245 13.7998C27.1467 13.8204 27.0575 13.8089 26.9728 13.8112C26.9843 13.7357 26.9934 13.6579 27.0094 13.5847C27.014 13.5595 27.0346 13.5344 27.0552 13.5183C27.6318 13.0561 27.6341 12.4132 27.5952 11.7656C27.5494 10.9785 27.3984 10.212 27.0735 9.48664C26.9202 9.14342 26.712 8.86198 26.3505 8.70181C26.2063 8.63774 25.9592 8.53935 26.0713 8.34028C26.1926 8.1252 26.3985 8.29681 26.5449 8.38376C26.9156 8.60342 27.1948 8.90774 27.371 9.30817C27.7828 10.2463 27.959 11.2371 28.0002 12.253Z" fill="#0FB5CD"/>
<path d="M25.1484 21.449C25.3246 21.3232 25.4299 21.2271 25.5534 21.1607C26.0202 20.9045 26.3772 20.5338 26.5648 20.0464C26.8531 19.2913 27.114 18.5248 27.3473 17.7491C27.4595 17.3784 27.4 17.01 27.1094 16.7034C27.0316 16.6211 27.0018 16.4929 26.9309 16.3488C27.0293 16.3488 27.0705 16.3373 27.0956 16.3511C27.5304 16.5844 27.8713 17.3167 27.7546 17.8017C27.5052 18.8337 27.1437 19.8267 26.638 20.7603C26.3451 21.298 25.8669 21.5268 25.1484 21.449Z" fill="#0FB5CD"/>
<path d="M8.7615 2.2195C8.60362 2.19662 8.44345 2.18518 8.28785 2.14857C7.90116 2.05704 7.53963 2.1234 7.20327 2.31331C6.39785 2.77094 5.63818 3.29264 4.9792 3.94705C4.85793 4.06832 4.75038 4.21018 4.65886 4.35433C4.53759 4.54654 4.48725 4.75018 4.59708 4.97671C4.66344 5.114 4.69089 5.28561 4.50098 5.34052C4.31106 5.39544 4.28132 5.22383 4.25615 5.08883C4.17606 4.62434 4.23555 4.18501 4.58564 3.84408C5.45513 2.99975 6.42988 2.29272 7.49615 1.71382C7.71353 1.59483 7.93777 1.59255 8.14828 1.72068C8.37023 1.85339 8.58073 2.00212 8.79811 2.14399C8.78438 2.17145 8.77294 2.19662 8.7615 2.2195Z" fill="#0FB5CD"/>
</g>
<defs>
<clipPath id="clip0">
<rect width="28" height="28.2997" fill="white"/>
</clipPath>
</defs>
</svg>
