<svg width="28" height="28" viewBox="0 0 28 28" fill="none" xmlns="http://www.w3.org/2000/svg">
<path d="M20.3473 16.3109C19.0842 16.3109 18.0601 17.335 18.0601 18.5981C18.0601 19.8616 19.0842 20.8854 20.3473 20.8854C21.6104 20.8854 22.6346 19.8616 22.6346 18.5981C22.6341 17.335 21.6104 16.3109 20.3473 16.3109ZM20.3473 19.6079C19.7899 19.6079 19.3376 19.1555 19.3376 18.5977C19.3376 18.0407 19.7895 17.5879 20.3473 17.5879C20.9051 17.5879 21.3571 18.0403 21.3571 18.5977C21.3566 19.1555 20.9047 19.6079 20.3473 19.6079Z" fill="#0FB5CD"/>
<path d="M5.00495 16.3109C3.74189 16.3109 2.71814 17.335 2.71814 18.5981C2.71814 19.8616 3.74189 20.8854 5.00495 20.8854C6.26801 20.8854 7.2922 19.8616 7.2922 18.5981C7.2922 17.335 6.26845 16.3109 5.00495 16.3109ZM5.00495 19.6079C4.44758 19.6079 3.9952 19.1555 3.9952 18.5977C3.9952 18.0407 4.44758 17.5879 5.00495 17.5879C5.56233 17.5879 6.0147 18.0403 6.0147 18.5977C6.01514 19.1555 5.56276 19.6079 5.00495 19.6079Z" fill="#0FB5CD"/>
<path d="M26.5987 0.344727H16.6841C15.9263 0.344727 15.3103 0.925289 15.3103 1.64191V11.0027C15.3103 11.7193 15.9259 12.3003 16.6841 12.3003H26.5987C27.3569 12.3003 27.9724 11.7193 27.9724 11.0027V1.64191C27.9724 0.925289 27.3569 0.344727 26.5987 0.344727ZM26.5794 9.99729C26.5794 10.5573 26.0969 11.011 25.5019 11.011H17.7288C17.1338 11.011 16.6512 10.5573 16.6512 9.99729V2.68841C16.6512 2.12929 17.1338 1.6756 17.7288 1.6756H25.5019C26.0969 1.6756 26.5794 2.12929 26.5794 2.68841V9.99729Z" fill="#0FB5CD"/>
<path d="M19.4014 3.18628C19.8647 3.1071 20.5161 3.04803 21.434 3.04803C22.3624 3.04803 23.0239 3.22566 23.4679 3.58091C23.8923 3.91691 24.178 4.46903 24.178 5.12135C24.178 5.77191 23.9606 6.32491 23.5664 6.70028C23.0527 7.18328 22.2928 7.40072 21.4047 7.40072C21.2074 7.40072 21.0302 7.3911 20.8919 7.37185V9.74966H19.4018V3.18628H19.4014ZM20.8915 6.20678C21.0197 6.2361 21.1776 6.24616 21.3942 6.24616C22.1935 6.24616 22.6874 5.84147 22.6874 5.16072C22.6874 4.54866 22.2631 4.18335 21.5123 4.18335C21.2065 4.18335 20.9991 4.2131 20.8911 4.24285V6.20678H20.8915Z" fill="#0FB5CD"/>
<path d="M23.9658 13.6303H2.67621L7.09365 5.99895C7.09365 5.99895 7.25334 5.68613 7.9984 5.68613H12.5694C12.5694 5.68613 13.654 5.7592 13.6142 5.00757C13.5739 4.60813 13.3543 4.33557 12.8818 4.33557C12.4158 4.33557 6.80096 4.33557 6.80096 4.33557C6.80096 4.33557 6.5144 4.3487 6.20203 4.8877C5.9229 5.3672 2.01734 12.1331 1.14584 13.6499C0.51365 13.7628 0.0275879 14.3814 0.0275879 15.1339V22.06C0.0275879 22.8983 0.619963 23.5637 1.35146 23.5637H2.67578V26.8839C2.67578 27.2956 2.94221 27.6281 3.27471 27.6281H5.41015C5.73565 27.6281 6.00865 27.2956 6.00865 26.8839V23.5637H19.3419V26.9093C19.3419 27.3227 19.6083 27.6552 19.9343 27.6552H22.0435C22.3694 27.6552 22.6354 27.3227 22.6354 26.9093V23.5637H23.9658C24.6982 23.5637 25.2901 22.8983 25.2901 22.06V15.1339C25.2906 14.3018 24.6982 13.6303 23.9658 13.6303ZM23.9597 21.1478C23.9597 21.7533 23.4343 22.2394 22.7828 22.2394H2.64296C1.99065 22.2394 1.46521 21.7533 1.46521 21.1478V16.1319C1.46521 15.5329 1.99065 15.0403 2.64296 15.0403H22.7824C23.4338 15.0403 23.9593 15.5329 23.9593 16.1319V21.1478H23.9597Z" fill="#0FB5CD"/>
</svg>
