<?xml version="1.0" encoding="UTF-8"?>
<svg width="200px" height="200px" viewBox="0 0 200 200" version="1.1" xmlns="http://www.w3.org/2000/svg" xmlns:xlink="http://www.w3.org/1999/xlink">
    <!-- Generator: Sketch 59 (86127) - https://sketch.com -->
    <title>payment</title>
    <desc>Created with Sketch.</desc>
    <g id="Page-1" stroke="none" stroke-width="1" fill="none" fill-rule="evenodd">
        <g id="Icons" transform="translate(-1176.000000, -370.000000)" fill="#0FB5CD" fill-rule="nonzero">
            <g id="payment" transform="translate(1176.000000, 370.000000)">
                <path d="M123.432031,39.0660156 C121.278125,39.0660156 119.525781,37.3136719 119.525781,35.1597656 C119.525781,33.0058594 121.278125,31.2535156 123.432031,31.2535156 C124.815625,31.2535156 126.276953,31.959375 127.656641,33.2953125 C129.207031,34.7957031 131.679688,34.7550781 133.179688,33.2042969 C134.679688,31.6539063 134.639063,29.18125 133.088672,27.68125 C131.10625,25.7628906 129.122656,24.678125 127.3375,24.0855469 L127.3375,19.5355469 C127.3375,17.378125 125.588672,15.6296875 123.43125,15.6296875 C121.273828,15.6296875 119.525,17.3785156 119.525,19.5355469 L119.525,24.1132812 C114.978906,25.7257813 111.712891,30.0671875 111.712891,35.1597656 C111.712891,41.6210938 116.969531,46.8777344 123.430859,46.8777344 C125.584766,46.8777344 127.337109,48.6300781 127.337109,50.7839844 C127.337109,52.9378906 125.584766,54.6902344 123.430859,54.6902344 C121.762109,54.6902344 119.960547,53.640625 118.358594,51.7351563 C116.970313,50.0835938 114.507031,49.8703125 112.855469,51.2589844 C111.203906,52.6472656 110.991016,55.1113281 112.379297,56.7621094 C114.467578,59.2460938 116.922656,60.9765625 119.525,61.8492188 L119.525,66.4078125 C119.525,68.5652344 121.273828,70.3136719 123.43125,70.3136719 C125.588672,70.3136719 127.337109,68.5648437 127.337109,66.4078125 L127.337109,61.8300781 C131.883203,60.2175781 135.149219,55.8761719 135.149219,50.7835937 C135.15,44.3226562 129.893359,39.0660156 123.432031,39.0660156 Z" id="Path"></path>
                <path d="M123.432031,0.00546875 C99.7402344,0.00546875 80.465625,19.2804688 80.465625,42.971875 C80.465625,66.6632812 99.740625,85.9382813 123.432031,85.9382813 C147.123828,85.9382813 166.398438,66.6632813 166.398438,42.971875 C166.398438,19.2804688 147.123828,0.00546875 123.432031,0.00546875 Z M123.432031,78.1261719 C104.048047,78.1261719 88.2777344,62.3558594 88.2777344,42.971875 C88.2777344,23.5878906 104.048047,7.81757812 123.432031,7.81757812 C142.816016,7.81757812 158.586328,23.5878906 158.586328,42.971875 C158.586328,62.3558594 142.816016,78.1261719 123.432031,78.1261719 Z" id="Shape"></path>
                <path d="M185.223828,87.0039062 C179.242578,86.771875 173.651953,90.0839844 170.975,95.4367188 C166.101563,105.180859 161.485547,110.192969 152.601562,114.789063 C149.991016,109.694531 144.667187,106.25 138.684766,106.25 L99.5460937,106.25 C97.0507812,106.25 95.0347656,105.1875 92.24375,103.717188 C87.7792969,101.364844 82.2230469,98.4378906 72.2039063,98.4378906 C54.3054688,98.4378906 36.9167969,116.001172 29.696875,128.305078 L28.7652344,127.373438 C27.2402344,125.848828 24.7664062,125.848438 23.2410156,127.373438 L1.14414062,149.469922 C0.411328125,150.202734 -2.77705192e-07,151.197266 -2.77705192e-07,152.233984 C-2.77705192e-07,153.270703 0.41328125,154.264844 1.14726562,154.997266 L45.1019531,198.854297 C46.6242187,200.373438 49.090625,200.376953 50.6164063,198.857422 L72.7128906,176.858594 C74.2433594,175.334766 74.2464844,172.85625 72.7191406,171.328516 L69.1417969,167.751172 C71.8171875,163.967188 78.6351562,160.934766 83.4644531,160.934766 C83.4664063,160.934766 83.46875,160.934766 83.4707031,160.934766 L136.196875,160.950391 C136.204687,160.950391 136.2125,160.950391 136.220703,160.950391 C143.037891,160.950391 149.576953,159.060938 155.132031,155.486328 C169.380469,146.323828 189.420703,131.4125 198.907422,107.803125 C202.85625,97.9738281 195.601172,87.4101563 185.223828,87.0039062 Z M47.8648438,190.574609 L9.43398437,152.229297 L26.0035156,135.659766 C35.2394531,144.895703 44.9917969,154.65 64.4285156,174.084766 L47.8648438,190.574609 Z M191.659375,104.891406 C183.004688,126.428516 164.257031,140.33125 150.90625,148.916016 C146.614063,151.678516 141.536328,153.137891 136.220313,153.137891 C136.214062,153.137891 136.207813,153.137891 136.201562,153.137891 L83.475,153.122266 C83.4714844,153.122266 83.4679688,153.122266 83.4640625,153.122266 C76.6414063,153.122266 68.1910156,156.663672 63.5878906,162.196094 L35.4492187,134.057813 C38.5480469,127.6875 54.7453125,106.25 72.2039062,106.25 C80.2914062,106.25 84.5164063,108.476172 88.6027344,110.628516 C91.8066406,112.316406 95.1191406,114.062109 99.5464844,114.062109 L138.685156,114.062109 C142.560937,114.062109 145.884766,116.946875 146.421094,120.798438 C147.091016,125.375 143.497266,129.686328 138.685156,129.686328 L99.5460937,129.686328 C97.3886719,129.686328 95.6398437,131.435156 95.6398437,133.592188 C95.6398437,135.749609 97.3886719,137.498438 99.5460937,137.498438 L138.684766,137.498438 C147.030469,137.498438 153.86875,130.921094 154.288672,122.677734 C165.867969,117.067578 172.020313,110.810547 177.962109,98.9308594 C179.269922,96.3148438 181.999609,94.6984375 184.920312,94.8101563 C190.060547,95.0113281 193.538672,100.2125 191.659375,104.891406 Z" id="Shape"></path>
                <path d="M48.0996094,168.8 L42.5726563,163.276953 C41.046875,161.752344 38.5738281,161.753516 37.0484375,163.278906 C35.5234375,164.805078 35.5246094,167.277734 37.0503906,168.803125 L42.5773438,174.326172 C44.1027344,175.850781 46.5753906,175.850391 48.1015625,174.324219 C49.6265625,172.798047 49.6253906,170.325 48.0996094,168.8 Z" id="Path"></path>
            </g>
        </g>
    </g>
</svg>