<svg width="28" height="28" viewBox="0 0 28 28" fill="none" xmlns="http://www.w3.org/2000/svg">
<path d="M19.7169 16.4252C19.3183 16.4252 19.0649 16.5956 18.9219 16.7386L17.3244 18.3371C17.3117 18.3498 17.2434 18.3834 17.0856 18.3834C16.2054 18.3834 14.3365 17.4043 12.4666 15.5334C9.95311 13.0209 9.39888 10.9396 9.66285 10.6756L11.2614 9.07812C12.3152 8.02434 10.4506 5.84525 9.24533 4.64002C8.69846 4.09315 6.8212 2.31055 5.60335 2.31055C5.20477 2.31055 4.95131 2.48092 4.80828 2.62395L1.61117 5.82106C0.652033 6.7802 0.99383 8.64273 2.6292 11.3561C4.04055 13.6992 6.27222 16.4441 8.91405 19.0859C12.8147 22.9866 17.9838 26.9231 20.7381 26.9231H20.7392C21.488 26.9231 21.936 26.6328 22.1789 26.3888L25.376 23.1917C26.4298 22.139 24.5652 19.9599 23.36 18.7547C22.8131 18.2078 20.9358 16.4252 19.7169 16.4252ZM21.0368 25.2467C21.0137 25.2698 20.9253 25.3077 20.7381 25.3077C19.1301 25.3077 14.8392 22.7269 10.0562 17.9438C7.5048 15.3924 5.35831 12.7569 4.01216 10.5231C2.50825 8.02539 2.63656 7.07993 2.7533 6.96319L5.74323 3.97326C6.14182 4.13627 7.0347 4.71364 8.1032 5.78215C9.17277 6.85171 9.74909 7.74459 9.9121 8.14213L8.52072 9.5335C7.03049 11.0258 8.92983 14.2818 11.3245 16.6755C13.3732 18.7252 15.5807 19.9988 17.0856 19.9988C17.7966 19.9988 18.2288 19.7169 18.4665 19.4793L19.8579 18.0879C20.2554 18.2509 21.1483 18.8272 22.2178 19.8968C23.2863 20.9663 23.8637 21.8582 24.0267 22.2568L21.0368 25.2467Z" fill="#0FB5CD"/>
<path d="M24.195 3.80499C22.4366 2.04552 20.0955 1.07692 17.6041 1.07692C17.6031 1.07692 17.602 1.07692 17.602 1.07692C17.1561 1.07692 16.7943 1.4387 16.7943 1.88462C16.7943 2.33053 17.1561 2.69231 17.602 2.69231C17.6031 2.69231 17.6031 2.69231 17.6041 2.69231C19.6644 2.69231 21.5995 3.49264 23.0529 4.94712C24.5074 6.40159 25.3077 8.33669 25.3077 10.398C25.3077 10.8439 25.6695 11.2057 26.1154 11.2057C26.5613 11.2057 26.9231 10.8439 26.9231 10.398C26.9241 7.9055 25.9545 5.56445 24.195 3.80499Z" fill="#0FB5CD"/>
<path d="M16.5367 5.88627C16.5377 5.88627 16.5377 5.88627 16.5388 5.88627C18.0301 5.88627 19.4299 6.46575 20.4826 7.51743C21.5343 8.57016 22.1138 9.971 22.1138 11.4633C22.1138 11.9093 22.4755 12.271 22.9215 12.271C23.3674 12.271 23.7292 11.9093 23.7292 11.4633C23.7302 9.53981 22.9825 7.73302 21.6247 6.3753C20.267 5.01863 18.4613 4.27088 16.5388 4.27088C16.5377 4.27088 16.5367 4.27088 16.5367 4.27088C16.0908 4.27088 15.729 4.63266 15.729 5.07858C15.729 5.52449 16.0908 5.88627 16.5367 5.88627Z" fill="#0FB5CD"/>
<path d="M15.4713 9.08023C15.4723 9.08023 15.4723 9.08023 15.4734 9.08023C16.3946 9.08023 17.2612 9.43885 17.9112 10.0888C18.5622 10.7398 18.9197 11.6064 18.9197 12.5287C18.9197 12.9746 19.2815 13.3364 19.7274 13.3364C20.1733 13.3364 20.5351 12.9746 20.5351 12.5287C20.5362 11.1752 20.0093 9.90264 19.0533 8.94666C18.0984 7.99069 16.8269 7.46484 15.4734 7.46484C15.4723 7.46484 15.4713 7.46484 15.4713 7.46484C15.0254 7.46484 14.6636 7.82662 14.6636 8.27254C14.6636 8.71845 15.0254 9.08023 15.4713 9.08023Z" fill="#0FB5CD"/>
</svg>
