<svg width="22" height="28" viewBox="0 0 22 28" fill="none" xmlns="http://www.w3.org/2000/svg">
<path d="M21.1734 26.9062H20.3224V2.03142C20.3224 0.911312 19.4111 0 18.2909 0H3.70962C2.58951 0 1.6782 0.911312 1.6782 2.03142V26.9062H0.827148C0.525109 26.9062 0.280273 27.1511 0.280273 27.4531C0.280273 27.7552 0.525109 28 0.827148 28H21.1734C21.4755 28 21.7203 27.7552 21.7203 27.4531C21.7203 27.1511 21.4755 26.9062 21.1734 26.9062ZM5.1782 26.9062V3.5H16.8224V26.9062H5.1782ZM17.9161 26.9062V2.95312C17.9161 2.65109 17.6713 2.40625 17.3692 2.40625H4.63132C4.32928 2.40625 4.08445 2.65109 4.08445 2.95312V26.9062H2.77195V2.03142C2.77195 1.51441 3.19255 1.09375 3.70962 1.09375H18.291C18.808 1.09375 19.2287 1.51435 19.2287 2.03142V26.9062H17.9161Z" fill="#0FB5CD"/>
<path d="M14.9078 5.08594H7.0918C6.78976 5.08594 6.54492 5.33077 6.54492 5.63281V9.65524C6.54492 9.95728 6.78976 10.2021 7.0918 10.2021H14.9078C15.2099 10.2021 15.4547 9.95728 15.4547 9.65524V5.63281C15.4547 5.33077 15.2099 5.08594 14.9078 5.08594ZM14.361 9.10837H7.63867V6.17969H14.361V9.10837Z" fill="#0FB5CD"/>
<path d="M7.0918 18.1318H9.08341C9.38545 18.1318 9.63028 17.8869 9.63028 17.5849V12.7678C9.63028 12.4657 9.38545 12.2209 9.08341 12.2209H7.0918C6.78976 12.2209 6.54492 12.4657 6.54492 12.7678V17.5849C6.54492 17.8869 6.78976 18.1318 7.0918 18.1318ZM7.63867 13.3146H8.53653V17.038H7.63867V13.3146Z" fill="#0FB5CD"/>
<path d="M14.7499 24.5104H7.25C6.94796 24.5104 6.70312 24.7553 6.70312 25.0573C6.70312 25.3594 6.94796 25.6042 7.25 25.6042H14.7499C15.052 25.6042 15.2968 25.3594 15.2968 25.0573C15.2968 24.7553 15.052 24.5104 14.7499 24.5104Z" fill="#0FB5CD"/>
</svg>
