<svg width="28" height="28" viewBox="0 0 28 28" fill="none" xmlns="http://www.w3.org/2000/svg">
<g clip-path="url(#clip0)">
<path d="M24.1734 26.9062H23.3224V2.03142C23.3224 0.911312 22.4111 0 21.2909 0H6.70962C5.58951 0 4.6782 0.911312 4.6782 2.03142V26.9062H3.82715C3.52511 26.9062 3.28027 27.1511 3.28027 27.4531C3.28027 27.7552 3.52511 28 3.82715 28H24.1734C24.4755 28 24.7203 27.7552 24.7203 27.4531C24.7203 27.1511 24.4755 26.9062 24.1734 26.9062ZM8.1782 26.9062V3.5H19.8224V26.9062H8.1782ZM20.9161 26.9062V2.95312C20.9161 2.65109 20.6713 2.40625 20.3692 2.40625H7.63132C7.32928 2.40625 7.08445 2.65109 7.08445 2.95312V26.9062H5.77195V2.03142C5.77195 1.51441 6.19255 1.09375 6.70962 1.09375H21.291C21.808 1.09375 22.2287 1.51435 22.2287 2.03142V26.9062H20.9161Z" fill="#0FB5CD"/>
<path d="M17.9078 5.08594H10.0918C9.78976 5.08594 9.54492 5.33077 9.54492 5.63281V9.65524C9.54492 9.95728 9.78976 10.2021 10.0918 10.2021H17.9078C18.2099 10.2021 18.4547 9.95728 18.4547 9.65524V5.63281C18.4547 5.33077 18.2099 5.08594 17.9078 5.08594ZM17.361 9.10837H10.6387V6.17969H17.361V9.10837Z" fill="#0FB5CD"/>
<path d="M17.7499 24.5104H10.25C9.94796 24.5104 9.70312 24.7552 9.70312 25.0573C9.70312 25.3593 9.94796 25.6041 10.25 25.6041H17.7499C18.052 25.6041 18.2968 25.3593 18.2968 25.0573C18.2968 24.7552 18.052 24.5104 17.7499 24.5104Z" fill="#0FB5CD"/>
<g clip-path="url(#clip1)">
<path d="M14.6191 16.1252V13.0145C15.2846 13.1267 15.912 13.3998 16.4485 13.8098C16.5554 13.8832 16.6809 13.923 16.8108 13.9247C17.227 13.9247 17.5664 13.5898 17.5708 13.1736C17.5717 12.9951 17.5019 12.8236 17.3764 12.6963C16.6013 12.0327 15.6292 11.6412 14.6103 11.5828V10.54C14.6103 10.2422 14.369 10.0009 14.0712 10.0009C14.065 10.0001 14.0588 10.0001 14.0526 10.0001C13.7504 9.99563 13.5012 10.2369 13.4968 10.54V11.5475C11.5084 11.6889 10.1563 12.9173 10.1563 14.5522C10.1563 16.5582 11.8619 17.115 13.4968 17.5569V21.0918C12.6342 20.9761 11.8212 20.6182 11.1549 20.0579C11.0294 19.958 10.8738 19.9023 10.713 19.8988C10.3056 19.9271 9.99186 20.2682 9.99714 20.6765C9.99626 20.855 10.0661 21.0265 10.1916 21.1537C11.1045 21.9756 12.2781 22.4484 13.5056 22.4882V23.4603C13.5056 23.4664 13.5064 23.4726 13.5064 23.4788C13.5206 23.7811 13.7777 24.0144 14.08 23.9993C14.3778 23.9993 14.6191 23.7581 14.6191 23.4603V22.4705C17.0317 22.3114 18.0038 20.8444 18.0038 19.289C18.0038 17.2034 16.254 16.5671 14.6191 16.1252ZM13.5056 15.8424C12.5423 15.5596 11.7912 15.268 11.7912 14.4461C11.7912 13.6243 12.4717 13.0322 13.5056 12.9526V15.8424ZM14.6191 21.1095V17.8927C15.6178 18.1755 16.3954 18.5555 16.3866 19.4834C16.3866 20.1551 15.927 20.9504 14.6191 21.1095Z" fill="#0FB5CD"/>
</g>
</g>
<defs>
<clipPath id="clip0">
<rect width="28" height="28" fill="white"/>
</clipPath>
<clipPath id="clip1">
<rect width="14" height="14" fill="white" transform="translate(7 10)"/>
</clipPath>
</defs>
</svg>
