<svg width="28" height="28" viewBox="0 0 28 28" fill="none" xmlns="http://www.w3.org/2000/svg">
<path d="M27.8437 11.9146L27.8319 11.8884L27.8389 11.8831L27.7523 11.7177L23.1236 2.90562C22.9976 2.6755 22.5579 2 21.7113 2H6.20762C5.26394 2 4.79144 2.92969 4.78094 2.95156L0.235749 11.6062C0.235749 11.6062 0.234436 11.6101 0.233561 11.6101L0.201624 11.6718C0.125499 11.8228 -0.0438138 12.2323 0.124186 12.6365C1.27919 14.5112 3.33806 15.7699 5.701 15.7699C8.01187 15.7699 10.027 14.5633 11.1951 12.759C11.3736 12.3482 11.1251 11.835 11.1251 11.835L6.8245 3.64544L6.7825 3.56581C6.72475 3.43281 6.67312 3.17862 7.13425 3.17862H12.7727C12.9329 3.18387 13.3787 3.26306 13.3787 4.00944V23.4099C13.3682 23.6024 13.2956 23.9914 12.8957 24.2381L10.0729 25.9837C10.0729 25.9837 9.33269 26.451 10.0729 26.451H18.0827C18.6282 26.451 18.0827 26.0717 18.0827 26.0717L15.1751 24.2919C15.1737 24.2919 15.1737 24.2906 15.1724 24.2906C14.6947 23.9979 14.6054 23.6291 14.5923 23.4428V3.92631C14.5923 3.25169 15.0757 3.18212 15.2459 3.17819H20.7584C20.9037 3.18081 21.3434 3.2285 21.0656 3.75831L16.7487 11.9763C16.7487 11.9763 16.6144 12.3005 16.7658 12.6549C17.9226 14.5186 19.9731 15.7699 22.3286 15.7699C24.6889 15.7699 26.7469 14.5164 27.9015 12.6457C28.0166 12.3438 27.8866 12.0091 27.8437 11.9146ZM9.10869 13.6051C8.38112 14.1249 7.0975 14.8901 5.77581 14.9413C5.75 14.9439 5.72594 14.9504 5.701 14.9531C5.69706 14.9517 5.69575 14.9491 5.69312 14.9461C5.63537 14.9504 5.57894 14.9592 5.52119 14.9592C5.49144 14.9592 5.46344 14.9526 5.43325 14.9526C4.06606 14.9382 2.79119 14.0785 2.12837 13.5443H2.12881C2.12881 13.5443 1.60119 13.1269 2.12881 13.1269H2.80169L8.58719 13.1283H9.09731C9.09687 13.1287 9.62012 13.2573 9.10869 13.6051ZM9.72819 11.6561L9.72862 11.6574L9.78769 11.7703C9.87956 11.9593 10.0174 12.3202 9.72862 12.3202L1.5325 12.3189C1.26081 12.3189 1.31462 12.0695 1.40125 11.8687L1.53119 11.6219L1.5325 11.6206L5.43981 4.1805C5.43981 4.1805 5.63931 3.87206 5.80119 4.1805H5.80162L9.72819 11.6561ZM18.5377 12.3189C17.9842 12.3189 18.0849 11.9409 18.1746 11.7466L18.2323 11.6364C18.2323 11.6351 18.2345 11.6311 18.2345 11.6311L22.0543 4.35725C22.0591 4.34938 22.319 3.85587 22.5828 4.35856L26.3917 11.6101C26.4709 11.7663 26.7119 12.3202 26.1462 12.3202L18.539 12.3189C18.5381 12.3189 18.5381 12.3189 18.5377 12.3189ZM18.9747 13.6091C18.924 13.5658 18.8829 13.5277 18.8387 13.4883C18.5504 13.1589 19.0701 13.1278 19.0701 13.1278H19.7119L25.3942 13.1291H25.6103C25.6103 13.1291 26.1056 13.1501 25.8011 13.4717C25.784 13.4857 25.7682 13.5001 25.7499 13.5163C25.7214 13.5434 25.6882 13.5714 25.6492 13.6029C25.6291 13.62 25.6068 13.6384 25.5849 13.6554C25.5482 13.6839 25.5167 13.7093 25.4904 13.7316C24.8027 14.2749 23.6464 14.985 22.3282 14.9601C20.8665 15.0108 19.6301 14.1682 18.9747 13.6091Z" fill="#0FB5CD"/>
</svg>
