<svg version="1.1" id="Layer_1" xmlns="http://www.w3.org/2000/svg" x="0" y="0" viewBox="0 0 600 600" xml:space="preserve"><style>.st0{opacity:.1}.st1{fill:#0fb5cd}.st2{display:none}.st3{display:inline}</style><g class="st0"><path class="st1" d="M548.1 355.4L212.9 548.9c-16.4 9.4-37.3 3.8-46.7-12.5-9.4-16.2-3.9-37 12.2-46.5l51.8-30.7c16.1-9.5 21.6-30.3 12.2-46.5l-1.6-2.8c-9.4-16.2-30.1-21.9-46.4-12.7L142 426.7c-16.3 9.2-37 3.5-46.4-12.7l-5.9-10.2c-9.4-16.2-3.9-37 12.2-46.5l51.8-30.7c16.1-9.5 21.6-30.3 12.2-46.5l-1.6-2.8c-9.4-16.2-30.1-21.9-46.4-12.7l-52.4 29.5c-16.3 9.2-37 3.5-46.4-12.7-9.4-16.4-3.8-37.3 12.5-46.7l335-193.5c16.4-9.4 37.3-3.8 46.7 12.5 9.4 16.2 3.9 37-12.2 46.5l-51.8 30.7c-16.1 9.5-21.6 30.3-12.2 46.5l1.6 2.8c9.4 16.2 30.1 21.9 46.4 12.7l52.4-29.5c16.3-9.2 37-3.5 46.4 12.7l5.9 10.2c9.4 16.2 3.9 37-12.2 46.5l-51.8 30.7c-16.1 9.5-21.6 30.3-12.2 46.5l1.6 2.8c9.4 16.2 30.1 21.9 46.4 12.7L514 296c16.3-9.2 37-3.5 46.4 12.7 9.6 16.4 4 37.3-12.3 46.7z"/></g><g class="st0"><path class="st1" d="M102.9 118.7c-9.9 5.7-22.6 2.3-28.3-7.6s-2.3-22.6 7.6-28.3 22.6-2.3 28.3 7.6 2.2 22.6-7.6 28.3zM87.1 91.4c-5.2 3-6.9 9.6-4 14.8 3 5.2 9.6 6.9 14.8 4s6.9-9.6 4-14.8c-3-5.2-9.6-6.9-14.8-4z"/></g><g class="st0"><path class="st1" d="M585.2 253.4c-7.5 4.3-17.1 1.7-21.4-5.7-4.3-7.5-1.7-17.1 5.7-21.4 7.5-4.3 17.1-1.7 21.4 5.7 4.4 7.4 1.8 17.1-5.7 21.4zm-10.8-18.6c-2.8 1.6-3.7 5.2-2.1 7.9 1.6 2.8 5.2 3.7 7.9 2.1 2.8-1.6 3.7-5.2 2.1-7.9-1.5-2.8-5.1-3.7-7.9-2.1z"/></g><g class="st0"><path class="st1" d="M47.6 488.2l-7.8-.3.3-7.8c.1-2.7-2-5-4.7-5.1-2.7-.1-5 2-5.1 4.7l-.3 7.8-7.8-.3c-2.7-.1-5 2-5.1 4.7-.1 2.7 2 5 4.7 5.1l7.8.3-.3 7.8c-.1 2.7 2 5 4.7 5.1 1 0 1.9-.2 2.7-.7 1.4-.8 2.4-2.3 2.5-4.1l.3-7.8 7.8.3c1 0 1.9-.2 2.7-.7 1.4-.8 2.4-2.3 2.5-4.1 0-2.5-2.2-4.8-4.9-4.9z"/></g><g class="st0"><path class="st1" d="M464.2 464.5l-7.8-.3.3-7.8c.1-2.7-2-5-4.7-5.1-2.7-.1-5 2-5.1 4.7l-.3 7.8-7.8-.3c-2.7-.1-5 2-5.1 4.7-.1 2.7 2 5 4.7 5.1l7.8.3-.3 7.8c-.1 2.7 2 5 4.7 5.1 1 0 1.9-.2 2.7-.7 1.4-.8 2.4-2.3 2.5-4.1l.3-7.8 7.8.3c1 0 1.9-.2 2.7-.7 1.4-.8 2.4-2.3 2.5-4.1 0-2.4-2.1-4.8-4.9-4.9z"/></g><g class="st0"><path class="st1" d="M514.9 68.4l-7.8-.3.3-7.8c.1-2.7-2-5-4.7-5.1-2.7-.1-5 2-5.1 4.7l-.3 7.8-7.8-.3c-2.7-.1-5 2-5.1 4.7-.1 2.7 2 5 4.7 5.1l7.8.3-.3 7.8c-.1 2.7 2 5 4.7 5.1 1 0 1.9-.2 2.7-.7 1.4-.8 2.4-2.3 2.5-4.1l.3-7.8 7.8.3c1 0 1.9-.2 2.7-.7 1.4-.8 2.4-2.3 2.5-4.1-.1-2.5-2.2-4.8-4.9-4.9z"/></g><path class="st1" d="M302 415c-62.9 0-114-51.2-114-114 0-62.9 51.2-114 114-114s114 51.2 114 114c0 62.9-51.1 114-114 114zm0-211c-53.5 0-97 43.5-97 97s43.5 97 97 97 97-43.5 97-97-43.5-97-97-97z"/><circle class="st1" cx="302" cy="301" r="14.9"/><path class="st1" d="M320.7 173.3h-37.5c-4.7 0-8.5-3.8-8.5-8.5s3.8-8.5 8.5-8.5h37.5c4.7 0 8.5 3.8 8.5 8.5s-3.8 8.5-8.5 8.5zM391.8 210.1c-1.9 0-3.8-.6-5.4-2l-7.1-5.9c-3.6-3-4.1-8.4-1.1-12 3-3.6 8.4-4.1 12-1.1l7.1 5.9c3.6 3 4.1 8.4 1.1 12-1.7 2-4.2 3.1-6.6 3.1zM201.4 275.9h-43c-2.4 0-4.3-1.9-4.3-4.3s1.9-4.3 4.3-4.3h43c2.4 0 4.3 1.9 4.3 4.3s-2 4.3-4.3 4.3zM141.2 275.9h-1.7c-2.4 0-4.3-1.9-4.3-4.3s1.9-4.3 4.3-4.3h1.7c2.4 0 4.3 1.9 4.3 4.3s-2 4.3-4.3 4.3zM196.5 305.2H175c-2.4 0-4.3-1.9-4.3-4.3s1.9-4.3 4.3-4.3h21.5c2.4 0 4.3 1.9 4.3 4.3s-2 4.3-4.3 4.3zM157.8 305.2h-4.4c-2.4 0-4.3-1.9-4.3-4.3s1.9-4.3 4.3-4.3h4.4c2.4 0 4.3 1.9 4.3 4.3s-2 4.3-4.3 4.3zM199.4 331.5h-24.5c-2.4 0-4.3-1.9-4.3-4.3s1.9-4.3 4.3-4.3h24.5c2.4 0 4.3 1.9 4.3 4.3s-1.9 4.3-4.3 4.3zM370.9 305.2h-43.4c-2.4 0-4.3-1.9-4.3-4.3s1.9-4.3 4.3-4.3h43.4c2.4 0 4.3 1.9 4.3 4.3s-1.9 4.3-4.3 4.3zM283.9 287.2c-1.1 0-2.2-.4-3-1.2l-30.7-30.7c-1.7-1.7-1.7-4.4 0-6s4.4-1.7 6 0l30.7 30.7c1.7 1.7 1.7 4.4 0 6-.8.8-1.9 1.2-3 1.2z"/><g class="st2"><g class="st3"><path class="st1" d="M344.4 424.9H226.6c-12 0-21.8-9.8-21.8-21.8V226.8c0-12 9.8-21.8 21.8-21.8h117.8c12 0 21.8 9.8 21.8 21.8v176.3c0 12.1-9.8 21.8-21.8 21.8zM226.6 221.4c-3 0-5.4 2.4-5.4 5.4v176.3c0 3 2.4 5.4 5.4 5.4h117.8c3 0 5.4-2.4 5.4-5.4V226.8c0-3-2.4-5.4-5.4-5.4H226.6z"/></g><g class="st3"><path class="st1" d="M358.8 378.6h15.6c3 0 5.4-2.4 5.4-5.4V196.8c0-3-2.4-5.4-5.4-5.4H256.6c-3 0-5.4 2.4-5.4 5.4v16.8l-16.3.7v-17.5c0-12 9.8-21.8 21.8-21.8h117.8c12 0 21.8 9.8 21.8 21.8v176.3c0 12-9.8 21.8-21.8 21.8h-15.6v-16.3z"/></g><g class="st3"><path class="st1" d="M324.8 259.2h-78.5c-2.3 0-4.1-1.8-4.1-4.1s1.8-4.1 4.1-4.1h78.5c2.3 0 4.1 1.8 4.1 4.1-.1 2.3-1.9 4.1-4.1 4.1zM324.8 283.2h-10.7c-2.3 0-4.1-1.8-4.1-4.1s1.8-4.1 4.1-4.1h10.7c2.3 0 4.1 1.8 4.1 4.1-.1 2.2-1.9 4.1-4.1 4.1zM289.2 283.2h-43c-2.3 0-4.1-1.8-4.1-4.1s1.8-4.1 4.1-4.1h43c2.3 0 4.1 1.8 4.1 4.1 0 2.2-1.8 4.1-4.1 4.1zM324.8 307.1h-10.7c-2.3 0-4.1-1.8-4.1-4.1s1.8-4.1 4.1-4.1h10.7c2.3 0 4.1 1.8 4.1 4.1-.1 2.3-1.9 4.1-4.1 4.1zM289.2 307.1h-43c-2.3 0-4.1-1.8-4.1-4.1s1.8-4.1 4.1-4.1h43c2.3 0 4.1 1.8 4.1 4.1s-1.8 4.1-4.1 4.1zM324.8 331.1h-10.7c-2.3 0-4.1-1.8-4.1-4.1s1.8-4.1 4.1-4.1h10.7c2.3 0 4.1 1.8 4.1 4.1-.1 2.2-1.9 4.1-4.1 4.1zM289.2 331.1h-43c-2.3 0-4.1-1.8-4.1-4.1s1.8-4.1 4.1-4.1h43c2.3 0 4.1 1.8 4.1 4.1 0 2.2-1.8 4.1-4.1 4.1zM324.8 355h-10.7c-2.3 0-4.1-1.8-4.1-4.1s1.8-4.1 4.1-4.1h10.7c2.3 0 4.1 1.8 4.1 4.1-.1 2.3-1.9 4.1-4.1 4.1zM289.2 355h-43c-2.3 0-4.1-1.8-4.1-4.1s1.8-4.1 4.1-4.1h43c2.3 0 4.1 1.8 4.1 4.1s-1.8 4.1-4.1 4.1zM324.8 379h-10.7c-2.3 0-4.1-1.8-4.1-4.1s1.8-4.1 4.1-4.1h10.7c2.3 0 4.1 1.8 4.1 4.1-.1 2.2-1.9 4.1-4.1 4.1zM289.2 379h-43c-2.3 0-4.1-1.8-4.1-4.1s1.8-4.1 4.1-4.1h43c2.3 0 4.1 1.8 4.1 4.1 0 2.2-1.8 4.1-4.1 4.1z"/></g></g><g class="st2"><g class="st3"><path class="st1" d="M416 394.2H256.1v-14.8H416c7.6 0 13.7-6.2 13.7-13.7V243.4c0-7.6-6.2-13.7-13.7-13.7H235.8c-7.6 0-13.7 6.2-13.7 13.7v31.3h-14.8v-31.3c0-15.7 12.8-28.5 28.5-28.5H416c15.7 0 28.5 12.8 28.5 28.5v122.3c0 15.7-12.8 28.5-28.5 28.5z"/></g><g class="st3"><path class="st1" d="M233.8 418.3H187c-14.7 0-26.7-12-26.7-26.7v-95.8c0-14.7 12-26.7 26.7-26.7h46.9c14.7 0 26.7 12 26.7 26.7v95.8c-.1 14.7-12.1 26.7-26.8 26.7zM187 280.2c-8.6 0-15.6 7-15.6 15.6v95.8c0 8.6 7 15.6 15.6 15.6h46.9c8.6 0 15.6-7 15.6-15.6v-95.8c0-8.6-7-15.6-15.6-15.6H187z"/></g><g class="st3"><path class="st1" d="M358.1 416.4h-64.5c-2 0-3.7-1.7-3.7-3.7s1.7-3.7 3.7-3.7h64.5c2 0 3.7 1.7 3.7 3.7 0 2.1-1.6 3.7-3.7 3.7z"/><path class="st1" d="M358.1 417.9h-64.5c-2.9 0-5.2-2.3-5.2-5.2s2.3-5.2 5.2-5.2h64.5c2.9 0 5.2 2.3 5.2 5.2s-2.3 5.2-5.2 5.2zm-64.5-7.4c-1.2 0-2.2 1-2.2 2.2s1 2.2 2.2 2.2h64.5c1.2 0 2.2-1 2.2-2.2s-1-2.2-2.2-2.2h-64.5z"/></g><g class="st3"><path class="st1" d="M328 294.4c-1.5-.8-3.2-.8-5.3-.2-1.5.4-2.5 1.1-3.4 1.9s-1.3 1.7-1.7 2.5-.4 1.7-.4 2.5.2 1.7.2 2.3l14.4-4.7c-1-2-2.3-3.5-3.8-4.3z"/><path class="st1" d="M359.5 315.9l-12.9-40.2c-1.3-4-5.5-6.1-9.5-4.9l-40 12.9c-4 1.3-6.1 5.5-4.9 9.5l12.9 40c1.3 4 5.5 6.1 9.5 4.9l40-12.9c3.9-1.2 6.2-5.4 4.9-9.3zm-19.2 0c-2.1 2.5-4.9 4.2-8.5 5.5-2.5.8-4.9 1.1-7.2 1.1-2.3-.2-4.4-.8-6.4-1.7-1.9-1.1-3.6-2.5-5.1-4.2-1.5-1.9-2.5-4-3.4-6.6s-1.3-4.9-1.1-7.4c.2-2.3.6-4.4 1.7-6.6 1.1-1.9 2.3-3.8 4-5.3s3.8-2.8 6.4-3.4c2.8-.8 5.3-1.1 7.6-.6s4.4 1.3 6.4 2.8c1.9 1.3 3.4 3.2 4.9 5.3 1.3 2.1 2.3 4.4 3 7l-23.3 7.4c1.1 2.8 2.5 4.7 4.2 5.5 1.7.8 3.8.8 6.4 0 1.7-.6 3.2-1.5 4.2-2.8s1.5-2.5 1.5-3.6l7.8-2.5c-.2 4.2-1.2 7.6-3.1 10.1z"/></g><g class="st3"><path class="st1" d="M211.7 326.1c-.9-.5-2-.5-3.4-.1-.9.3-1.6.7-2.2 1.2-.5.5-.8 1.1-1.1 1.6-.3.5-.3 1.1-.3 1.6s.1 1.1.1 1.5l9.2-3c-.5-1.3-1.3-2.3-2.3-2.8z"/><path class="st1" d="M231.9 339.9l-8.3-25.7c-.8-2.6-3.5-3.9-6.1-3.1l-25.6 8.3c-2.6.8-3.9 3.5-3.1 6.1l8.3 25.6c.8 2.6 3.5 3.9 6.1 3.1l25.6-8.3c2.4-.8 3.9-3.5 3.1-6zm-12.3 0c-1.4 1.6-3.1 2.7-5.4 3.5-1.6.5-3.1.7-4.6.7-1.5-.1-2.8-.5-4.1-1.1-1.2-.7-2.3-1.6-3.2-2.7-.9-1.2-1.6-2.6-2.2-4.2-.5-1.6-.8-3.1-.7-4.7.1-1.5.4-2.8 1.1-4.2.7-1.2 1.5-2.4 2.6-3.4s2.4-1.8 4.1-2.2c1.8-.5 3.4-.7 4.9-.4 1.5.3 2.8.8 4.1 1.8 1.2.8 2.2 2 3.1 3.4.8 1.4 1.5 2.8 1.9 4.5l-14.9 4.7c.7 1.8 1.6 3 2.7 3.5s2.4.5 4.1 0c1.1-.4 2-.9 2.7-1.8.7-.8.9-1.6.9-2.3l5-1.6c-.2 2.7-.9 4.9-2.1 6.5z"/></g><g class="st3"><circle class="st1" cx="210.4" cy="386.8" r="5.1"/></g></g></svg>