<svg width="28" height="16" viewBox="0 0 28 16" fill="none" xmlns="http://www.w3.org/2000/svg">
<g clip-path="url(#clip0)">
<path d="M17.6114 7.27586C17.3712 7.25373 17.0629 7.23319 16.7579 7.19525C16.3817 7.14941 16.1462 6.92179 16.1272 6.55192C16.1035 6.06981 16.113 5.58454 16.1509 5.10402C16.1778 4.7784 16.4054 4.5745 16.7294 4.50969C17.3238 4.38956 17.9212 4.38798 18.5124 4.52233C18.9155 4.61401 19.1257 4.90011 19.1858 5.29686C19.2569 5.76474 19.2332 6.2263 19.0846 6.67837C18.9724 7.01821 18.7511 7.21738 18.3796 7.23002C18.1457 7.23793 17.9133 7.25689 17.6114 7.27586Z" fill="#0FB5CD"/>
<path d="M21.7059 11.0584C21.4926 11.0473 21.2776 11.0252 21.0642 11.0268C20.5726 11.0284 20.3576 10.6822 20.2723 10.3281C20.1458 9.80652 20.1806 9.29122 20.3513 8.78382C20.4446 8.50879 20.6311 8.34914 20.9204 8.2954C21.5115 8.18633 22.0995 8.19107 22.6812 8.33966C23.0938 8.44556 23.2566 8.6384 23.3024 9.06518C23.3593 9.59945 23.3483 10.1337 23.2313 10.6617C23.1949 10.8245 23.1096 10.9225 22.9452 10.9414C22.5342 10.9904 22.1217 11.0347 21.7091 11.0821C21.7091 11.0742 21.7075 11.0663 21.7059 11.0584Z" fill="#0FB5CD"/>
<path d="M2.01326 7.27112C1.98006 7.27112 1.94845 7.27112 1.91526 7.27112C1.75561 7.26796 1.59596 7.249 1.43631 7.22845C1.25928 7.20632 1.08224 7.18419 0.905207 7.16364C0.805624 7.15099 0.698139 7.13519 0.627009 7.06406C0.573266 7.01031 0.551136 6.93444 0.533749 6.86015C0.443651 6.48553 0.438909 6.09511 0.44207 5.70942C0.445231 5.43913 0.424683 5.09138 0.581169 4.85902C0.720268 4.65512 0.973175 4.56028 1.20395 4.50811C1.79512 4.37218 2.42265 4.40221 2.99643 4.59663C3.11024 4.63457 3.22563 4.68199 3.31415 4.76576C3.43428 4.88115 3.48644 5.0487 3.51964 5.21309C3.60815 5.64778 3.59867 6.10143 3.49118 6.53295C3.43586 6.75108 3.34576 6.9787 3.15766 7.10199C3.02805 7.18577 2.86998 7.21106 2.71666 7.22687C2.55859 7.24267 2.40052 7.25216 2.24245 7.26164C2.16816 7.2648 2.09071 7.26954 2.01326 7.27112Z" fill="#0FB5CD"/>
<path d="M20.3369 5.78371C20.3527 5.57664 20.3575 5.36799 20.3859 5.16408C20.4491 4.7294 20.6467 4.51127 21.0861 4.48124C21.6188 4.44646 22.1547 4.46227 22.6889 4.46543C23.0209 4.46859 23.2248 4.66775 23.3354 4.96018C23.5457 5.51657 23.5425 6.08245 23.3544 6.64359C23.2438 6.97553 22.9909 7.15731 22.6573 7.20789C22.1183 7.28692 21.5762 7.29799 21.0403 7.18734C20.6467 7.10673 20.4539 6.89492 20.3907 6.49975C20.3764 6.41281 20.359 6.32588 20.3559 6.23736C20.3496 6.08562 20.3543 5.93545 20.3543 5.78371C20.348 5.78371 20.3432 5.78371 20.3369 5.78371Z" fill="#0FB5CD"/>
<path d="M6.25971 7.27587C5.98626 7.25216 5.63851 7.23636 5.29708 7.18578C4.94143 7.13203 4.76123 6.95184 4.74227 6.59461C4.71698 6.12357 4.7233 5.64936 4.74227 5.17832C4.75333 4.8938 4.93353 4.69306 5.19908 4.60612C5.88193 4.38166 6.57743 4.36744 7.2666 4.5587C7.39463 4.59506 7.54006 4.71835 7.59854 4.83848C7.89571 5.45652 7.921 6.1046 7.69022 6.74793C7.5859 7.04035 7.36776 7.22371 7.03266 7.2332C6.8003 7.23952 6.56636 7.25849 6.25971 7.27587Z" fill="#0FB5CD"/>
<path d="M8.81663 13.559C8.81505 13.3772 8.82137 13.197 8.84825 13.0169C8.88934 12.7418 8.96047 12.4684 9.22761 12.334C9.343 12.2755 9.47103 12.2471 9.59906 12.2265C10.1286 12.1348 10.6755 12.1317 11.205 12.2313C11.3694 12.2613 11.5385 12.3056 11.665 12.4146C11.8436 12.5679 11.9005 12.8193 11.9306 13.0516C11.9701 13.3646 11.9796 13.6823 11.9385 13.9953C11.8958 14.313 11.7788 14.6513 11.5054 14.8172C11.3283 14.9263 11.1118 14.9453 10.9031 14.9563C10.5475 14.9737 10.1902 14.9721 9.833 14.95C9.55639 14.9326 9.25448 14.8915 9.06164 14.6908C8.87038 14.49 8.8435 14.1897 8.82928 13.9131C8.82295 13.7945 8.81821 13.6776 8.81663 13.559Z" fill="#0FB5CD"/>
<path d="M26.0147 11.0647C25.784 11.041 25.4757 11.0221 25.1707 10.9778C24.796 10.9241 24.57 10.7028 24.5068 10.3281C24.4262 9.84603 24.4167 9.36235 24.5194 8.88024C24.5842 8.57043 24.7755 8.37127 25.079 8.30646C25.6781 8.17842 26.2835 8.17526 26.8825 8.3112C27.3125 8.4092 27.5243 8.71901 27.5685 9.13947C27.6144 9.56784 27.6081 9.99462 27.4784 10.4135C27.3646 10.7834 27.1449 11.0126 26.7371 11.0236C26.5206 11.0284 26.3072 11.0473 26.0147 11.0647Z" fill="#0FB5CD"/>
<path d="M10.492 4.41486C10.7228 4.43857 10.9884 4.45437 11.2492 4.49547C11.6222 4.55554 11.8688 4.78315 11.8972 5.15777C11.932 5.613 11.9352 6.07614 11.902 6.53137C11.8751 6.90599 11.6206 7.12096 11.2476 7.18735C10.7149 7.28219 10.1791 7.29326 9.64637 7.21106C9.14687 7.13361 8.924 6.9218 8.86235 6.41124C8.81809 6.05243 8.81019 5.67781 8.85603 5.32058C8.92558 4.77683 9.2101 4.53657 9.76017 4.47334C9.99095 4.44647 10.2249 4.4354 10.492 4.41486Z" fill="#0FB5CD"/>
<path d="M1.97074 0.62439C2.31374 0.643358 2.5461 0.657584 2.77846 0.667068C3.14043 0.681294 3.35224 0.901007 3.45183 1.21398C3.64625 1.82254 3.61306 2.43268 3.36331 3.02543C3.29376 3.1914 3.16889 3.30363 2.99027 3.3463C2.37539 3.49173 1.75577 3.5186 1.1314 3.40321C0.75204 3.33366 0.524423 3.0934 0.497552 2.72668C0.462777 2.26355 0.467519 1.79567 0.49281 1.33095C0.511778 0.992686 0.720426 0.768231 1.06343 0.717649C1.39695 0.667068 1.73838 0.6481 1.97074 0.62439Z" fill="#0FB5CD"/>
<path d="M10.4866 0.62439C10.7284 0.6481 11.024 0.667068 11.3164 0.709746C11.6768 0.763489 11.8871 0.999009 11.9092 1.34676C11.9392 1.80989 11.9361 2.27777 11.9124 2.74249C11.8965 3.03333 11.699 3.22933 11.4239 3.30837C10.7964 3.49015 10.1562 3.52334 9.51606 3.38108C9.19044 3.30837 8.99444 3.07917 8.90908 2.7662C8.77631 2.27619 8.77947 1.77828 8.87905 1.28511C8.95176 0.923136 9.22838 0.727133 9.67729 0.681294C9.92703 0.657584 10.1784 0.644938 10.4866 0.62439Z" fill="#0FB5CD"/>
<path d="M26.0316 4.41797C26.2813 4.43536 26.558 4.44484 26.833 4.47329C27.274 4.52071 27.5 4.70723 27.5396 5.14666C27.5807 5.60189 27.5664 6.06345 27.5475 6.52184C27.5364 6.81585 27.3388 7.00869 27.0701 7.10037C26.3793 7.33747 25.6838 7.3264 24.9931 7.0893C24.7497 7.00553 24.628 6.80952 24.5568 6.57717C24.4003 6.06819 24.4035 5.55763 24.5631 5.05182C24.6722 4.70565 24.8872 4.47329 25.2824 4.45907C25.5242 4.45116 25.7629 4.43378 26.0316 4.41797Z" fill="#0FB5CD"/>
<path d="M27.6042 1.85105C27.5837 2.10238 27.5758 2.3537 27.541 2.60345C27.4841 3.00652 27.3371 3.15984 26.934 3.24362C26.346 3.36691 25.758 3.34794 25.1684 3.23888C24.7843 3.16775 24.5851 2.94013 24.5156 2.55919C24.4334 2.10554 24.4255 1.65821 24.5251 1.2093C24.5867 0.929519 24.7432 0.733516 25.0246 0.648159C25.6537 0.456898 26.2907 0.425285 26.9277 0.586513C27.3782 0.700322 27.5631 0.953229 27.5789 1.41637C27.5837 1.56179 27.5789 1.70563 27.5789 1.85105C27.5884 1.84947 27.5963 1.84947 27.6042 1.85105Z" fill="#0FB5CD"/>
<path d="M6.26148 0.627563C6.51913 0.644951 6.77836 0.654435 7.03443 0.681306C7.45805 0.727146 7.65405 0.905761 7.72044 1.33096C7.79789 1.83045 7.79631 2.33469 7.71886 2.83576C7.67776 3.10764 7.51495 3.27835 7.25098 3.34474C6.66139 3.49332 6.0639 3.51545 5.46798 3.41587C4.99062 3.33525 4.76933 3.0776 4.74088 2.56863C4.71875 2.17978 4.71875 1.78778 4.73613 1.39893C4.75668 0.943698 4.97482 0.733468 5.43163 0.682887C5.53753 0.670242 5.64502 0.652854 5.75092 0.649693C5.92164 0.64337 6.09235 0.648112 6.26148 0.648112C6.26148 0.640209 6.26148 0.633886 6.26148 0.627563Z" fill="#0FB5CD"/>
<path d="M17.5734 3.48862C17.3237 3.46016 17.0723 3.4412 16.8242 3.4001C16.4322 3.33371 16.2014 3.09661 16.135 2.70144C16.0418 2.14821 16.0607 1.59813 16.1698 1.04964C16.2046 0.874187 16.2962 0.769863 16.4733 0.73825C17.1609 0.611796 17.8532 0.600731 18.5424 0.701894C18.691 0.724024 18.8569 0.845735 18.9518 0.970608C19.3785 1.53649 19.309 2.67299 18.7637 3.15035C18.4949 3.38587 18.1899 3.44594 17.8595 3.46965C17.7647 3.47597 17.6698 3.47123 17.575 3.47123C17.575 3.47597 17.575 3.48229 17.5734 3.48862Z" fill="#0FB5CD"/>
<path d="M3.44445 9.74959C3.42548 10.012 3.40809 10.2127 3.39545 10.4151C3.37648 10.7296 3.20419 10.9367 2.92283 11.0378C2.35695 11.2417 1.77052 11.2718 1.19041 11.1343C0.656144 11.0078 0.281526 10.4988 0.300494 9.95034C0.309978 9.65001 0.347914 9.34652 0.407979 9.05094C0.493335 8.63206 0.697242 8.45976 1.11928 8.41392C1.71835 8.34754 2.31585 8.35386 2.91176 8.45028C3.24212 8.50244 3.30535 8.55619 3.35593 8.88813C3.39861 9.1932 3.41916 9.50143 3.44445 9.74959Z" fill="#0FB5CD"/>
<path d="M8.81534 9.67056C8.81218 9.48562 8.81692 9.30226 8.83905 9.1189C8.84695 9.04936 8.85801 8.97823 8.87224 8.91026C8.88489 8.84703 8.89595 8.76958 8.92598 8.71109C8.97973 8.60835 9.04611 8.52299 9.15044 8.46609C9.24528 8.41551 9.35118 8.39022 9.45709 8.36967C9.99768 8.26692 10.5541 8.2685 11.101 8.33805C11.3491 8.36967 11.621 8.42973 11.7696 8.63048C11.8787 8.7759 11.8992 8.96874 11.9103 9.15052C11.9324 9.4951 11.9324 9.84127 11.9119 10.1859C11.9024 10.3455 11.8866 10.5115 11.806 10.649C11.708 10.815 11.5278 10.9193 11.3412 10.9683C11.1547 11.0173 10.9587 11.0173 10.7659 11.0205C10.3265 11.0284 9.88545 11.0568 9.45077 10.9952C9.30851 10.9746 9.1615 10.943 9.05402 10.8466C8.95918 10.7628 8.9086 10.6411 8.87856 10.5194C8.83747 10.3518 8.83114 10.178 8.82482 10.0041C8.82008 9.89185 8.81692 9.78121 8.81534 9.67056Z" fill="#0FB5CD"/>
<path d="M19.087 9.70852C19.0475 10.0262 19.0127 10.3455 18.9684 10.6617C18.9463 10.8213 18.8483 10.913 18.6823 10.9446C18.0137 11.0758 17.3419 11.0837 16.6701 10.992C16.3034 10.9414 16.0979 10.7138 16.0379 10.3613C15.9889 10.0705 15.9478 9.77491 15.932 9.4809C15.9035 8.93399 16.3477 8.33966 16.8946 8.27643C17.353 8.22269 17.8272 8.22901 18.2856 8.28749C18.7993 8.3523 19.0159 8.66369 19.0475 9.23274C19.0554 9.38922 19.0491 9.54729 19.0491 9.70536C19.0617 9.70694 19.0743 9.70852 19.087 9.70852Z" fill="#0FB5CD"/>
<path d="M0.431641 13.6049C0.449028 13.3393 0.45377 13.0801 0.485383 12.824C0.529642 12.4557 0.673483 12.2882 1.03704 12.2281C1.63769 12.1285 2.24309 12.1348 2.84691 12.2281C3.17568 12.2803 3.36537 12.4905 3.37959 12.8019C3.40488 13.3488 3.39856 13.8973 3.37959 14.4458C3.37169 14.6781 3.22311 14.8394 2.98126 14.8899C2.29209 15.0306 1.60292 15.029 0.913745 14.8947C0.646612 14.8425 0.510674 14.6702 0.486964 14.4094C0.461673 14.1407 0.449028 13.8688 0.431641 13.6049Z" fill="#0FB5CD"/>
<path d="M26.0622 14.8631C25.7112 14.8315 25.3588 14.8109 25.0094 14.7667C24.698 14.7271 24.5115 14.5217 24.4973 14.2229C24.472 13.7408 24.472 13.254 24.4989 12.7719C24.5163 12.4494 24.7344 12.2408 25.0553 12.2281C25.6954 12.206 26.3388 12.1886 26.9774 12.2297C27.3852 12.2566 27.5512 12.4557 27.5654 12.8857C27.5812 13.3615 27.5496 13.842 27.499 14.3146C27.4611 14.6576 27.303 14.7682 26.9521 14.7999C26.8082 14.8125 26.6628 14.8283 26.519 14.8331C26.3672 14.8394 26.2155 14.8346 26.0653 14.8346C26.0622 14.8457 26.0622 14.8552 26.0622 14.8631Z" fill="#0FB5CD"/>
<path d="M7.68364 13.5163C7.68364 13.7392 7.67574 13.9605 7.65045 14.1818C7.62674 14.3873 7.5809 14.6054 7.43231 14.7493C7.29321 14.8836 7.09089 14.9263 6.89963 14.9516C6.42068 15.0164 5.93384 15.0085 5.45331 14.9547C5.24467 14.931 5.01547 14.8884 4.87953 14.7271C4.74201 14.5612 4.74359 14.3225 4.74201 14.1059C4.74043 13.7503 4.71356 13.393 4.73727 13.0374C4.74834 12.8777 4.74992 12.6628 4.81788 12.5142C4.87637 12.3877 5.01073 12.2961 5.14034 12.255C5.26838 12.2123 5.40589 12.206 5.54025 12.2012C5.98916 12.1854 6.43807 12.1886 6.88698 12.2075C7.06876 12.2154 7.2616 12.2297 7.40702 12.3387C7.51767 12.4209 7.5888 12.549 7.62515 12.6817C7.66151 12.8145 7.66941 12.9536 7.67415 13.0911C7.68048 13.2334 7.68364 13.3757 7.68364 13.5163Z" fill="#0FB5CD"/>
<path d="M19.0664 13.5701C19.0553 13.7709 19.0632 13.9764 19.0316 14.174C18.9557 14.6655 18.8056 14.8157 18.3171 14.9232C17.8161 15.0338 17.3118 15.0259 16.8155 14.9058C16.3745 14.7983 16.0884 14.596 16.0979 14.0538C16.1074 13.6018 16.1137 13.1481 16.1485 12.696C16.1738 12.3783 16.2575 12.2772 16.5389 12.2534C17.0463 12.2108 17.5568 12.195 18.0658 12.1902C18.2713 12.1886 18.4768 12.244 18.6823 12.2724C18.8498 12.2945 18.9447 12.3973 18.9652 12.5569C19.0111 12.8936 19.0458 13.2303 19.0854 13.5686C19.0806 13.567 19.0727 13.5686 19.0664 13.5701Z" fill="#0FB5CD"/>
<path d="M20.3301 13.4436C20.3585 13.1986 20.3917 12.9046 20.4281 12.6106C20.4518 12.413 20.5545 12.2945 20.7616 12.2581C21.4903 12.1317 22.2158 12.1254 22.9429 12.2676C23.1057 12.2992 23.1943 12.3846 23.2306 12.549C23.3618 13.1354 23.365 13.7266 23.2828 14.3177C23.2448 14.588 23.0536 14.754 22.8086 14.8378C22.1953 15.0464 21.5693 15.0575 20.945 14.8915C20.5956 14.7983 20.4439 14.5248 20.3933 14.1929C20.3601 13.9621 20.3538 13.7282 20.3301 13.4436Z" fill="#0FB5CD"/>
<path d="M6.2297 8.35547C6.51422 8.38866 6.91413 8.4345 7.31245 8.48192C7.48001 8.50247 7.56536 8.60838 7.59698 8.76644C7.72343 9.39871 7.72343 10.0294 7.59698 10.6617C7.56536 10.8197 7.47684 10.913 7.31245 10.9462C6.62486 11.0821 5.93411 11.0821 5.24336 10.9999C4.99045 10.9699 4.82448 10.8039 4.72806 10.5747C4.48622 10.0009 4.48622 9.424 4.72964 8.85022C4.84661 8.57518 5.05842 8.42818 5.35875 8.41079C5.60691 8.39499 5.85824 8.37918 6.2297 8.35547Z" fill="#0FB5CD"/>
<path d="M21.8606 0.622803C22.1973 0.644932 22.4565 0.662319 22.7142 0.678126C23.0113 0.697094 23.2089 0.861484 23.318 1.12546C23.5488 1.68817 23.5503 2.25722 23.3196 2.81994C23.2184 3.0681 23.0366 3.24039 22.7568 3.26885C22.0819 3.33365 21.4101 3.34156 20.7399 3.21194C20.5676 3.17875 20.4728 3.08075 20.4396 2.91636C20.31 2.28409 20.3131 1.65182 20.4412 1.01955C20.4823 0.817225 20.6277 0.742934 20.8079 0.723966C21.1825 0.682868 21.5603 0.651255 21.8606 0.622803Z" fill="#0FB5CD"/>
<path d="M8.06081 8.66372C7.84742 8.54833 7.73994 8.29542 7.53287 8.17055C7.36058 8.06464 7.14561 8.06464 6.94328 8.0678C6.40743 8.07413 5.87159 8.08045 5.33574 8.08677C5.14448 8.08835 4.93899 8.09626 4.79199 8.21797C4.70347 8.29068 4.64815 8.39658 4.57702 8.48668C4.50589 8.57678 4.40314 8.65898 4.28933 8.65107C4.27195 8.64949 4.26562 8.53885 4.26562 8.5262C4.26562 8.48036 4.27669 8.44559 4.29566 8.40607C4.33201 8.3302 4.37153 8.2559 4.42211 8.18794C4.52169 8.05358 4.65289 7.94135 4.80779 7.87654C5.0038 7.79435 5.22193 7.78802 5.43532 7.78328C5.80362 7.77538 6.17033 7.76748 6.53863 7.75799C6.74886 7.75325 6.95909 7.74851 7.16773 7.7817C7.3748 7.8149 7.58029 7.88603 7.7431 8.0188C7.9312 8.17371 8.05291 8.41555 8.06081 8.66372Z" fill="#0FB5CD"/>
<path d="M19.9053 0.897842C20.0886 0.453673 20.351 0.071151 20.8837 0.056925C21.595 0.0363763 22.3079 0.0426989 23.0176 0.0822157C23.3906 0.102764 23.6104 0.390446 23.7637 0.711323C23.7906 0.766646 23.7574 0.848841 23.7526 0.919971C23.6862 0.899422 23.6119 0.888358 23.555 0.852002C23.5045 0.820389 23.4618 0.765065 23.4317 0.709742C23.2974 0.461577 23.0761 0.344607 22.8105 0.343026C22.123 0.338284 21.4354 0.349349 20.7494 0.365156C20.5502 0.369898 20.4016 0.482125 20.2815 0.648096C20.1961 0.766646 20.0712 0.859906 19.9638 0.962649C19.9448 0.942101 19.9258 0.919971 19.9053 0.897842Z" fill="#0FB5CD"/>
<path d="M12.2396 12.4431C12.1384 12.3657 12.053 12.3167 11.9866 12.2471C11.7669 12.0179 11.503 11.8725 11.1868 11.8677C10.6383 11.8583 10.0914 11.863 9.54293 11.8757C9.24418 11.882 9.00392 12.029 8.79369 12.2345C8.72414 12.304 8.64037 12.3609 8.56134 12.4241C8.46175 12.2455 8.47914 12.0558 8.64511 11.9262C8.78421 11.8156 8.95176 11.716 9.12247 11.6765C9.96181 11.4757 10.8075 11.4789 11.65 11.6749C11.7812 11.7049 11.9124 11.7682 12.0277 11.8425C12.2269 11.9673 12.3123 12.1538 12.2396 12.4431Z" fill="#0FB5CD"/>
<path d="M12.2318 0.912054C12.1527 0.840923 12.0863 0.791923 12.0358 0.730276C11.8445 0.501079 11.6042 0.349335 11.3055 0.346173C10.6637 0.33827 10.0204 0.349335 9.37865 0.36198C9.16842 0.366722 9.01351 0.480531 8.90444 0.662308C8.86019 0.736599 8.80328 0.810891 8.73689 0.864633C8.68947 0.90257 8.61518 0.90415 8.55354 0.923118C8.54405 0.859892 8.50928 0.784019 8.52983 0.735019C8.67367 0.4094 8.88864 0.12646 9.25693 0.0853629C9.75643 0.03162 10.2638 0.00790999 10.7649 0.0300394C11.1364 0.0474268 11.5141 0.12646 11.8714 0.235527C12.2096 0.339851 12.3124 0.57379 12.2318 0.912054Z" fill="#0FB5CD"/>
<path d="M15.666 0.938915C15.6945 0.83301 15.7008 0.744492 15.7403 0.674943C15.9189 0.373035 16.145 0.134353 16.5243 0.0900946C17.2657 0.00315769 18.0054 -0.0426818 18.7467 0.0742879C19.1308 0.135934 19.3616 0.396745 19.507 0.73817C19.5276 0.78559 19.5023 0.853558 19.4976 0.912043C19.4343 0.900979 19.3616 0.905721 19.3126 0.872527C19.251 0.83301 19.2004 0.768202 19.1625 0.704975C19.0313 0.47894 18.8337 0.349325 18.5776 0.347744C17.879 0.343002 17.1803 0.347744 16.4816 0.358809C16.2841 0.36197 16.1465 0.475778 16.0485 0.649652C15.9758 0.782428 15.8952 0.924689 15.666 0.938915Z" fill="#0FB5CD"/>
<path d="M23.7712 4.83061C23.6685 4.74525 23.5799 4.69309 23.5215 4.6188C23.2338 4.24102 22.8513 4.09085 22.3834 4.10666C21.9487 4.12089 21.514 4.10982 21.0793 4.12089C20.7932 4.12721 20.5577 4.24418 20.3822 4.4797C20.2748 4.62354 20.1562 4.75948 20.0234 4.92387C20.0408 4.31215 20.2226 4.05292 20.7616 3.92488C21.5077 3.74627 22.2601 3.73204 23.003 3.94543C23.2037 4.00234 23.3966 4.11457 23.5689 4.2347C23.7491 4.35799 23.8328 4.54925 23.7712 4.83061Z" fill="#0FB5CD"/>
<path d="M27.9527 4.71521C27.8547 4.64566 27.7393 4.59192 27.6634 4.5034C27.4121 4.20782 27.0833 4.11298 26.7166 4.11614C26.1428 4.12088 25.5706 4.13353 24.9968 4.1525C24.8024 4.15882 24.6601 4.2663 24.5511 4.43227C24.461 4.56979 24.3724 4.7247 24.1559 4.72312C24.1037 4.46073 24.2223 4.28843 24.4135 4.15408C24.7012 3.95333 25.0363 3.86165 25.3762 3.85059C25.9658 3.83162 26.5601 3.81898 27.1465 3.87114C27.5496 3.90749 27.7851 4.24418 27.9874 4.57295C28.0017 4.59666 27.9953 4.63302 27.9985 4.66305C27.9843 4.68202 27.9685 4.69783 27.9527 4.71521Z" fill="#0FB5CD"/>
<path d="M3.8471 0.992723C3.67954 0.957949 3.57364 0.765107 3.44877 0.633911C3.16425 0.333584 2.69637 0.322519 2.28223 0.330422C1.94871 0.338326 1.61519 0.344648 1.28167 0.352552C0.952888 0.360455 0.564043 0.401553 0.404395 0.689235C0.364878 0.760365 0.34433 0.840979 0.29691 0.905787C0.249489 0.970594 0.159391 1.01643 0.088261 0.980078C-0.161485 0.855205 0.529268 0.215033 0.62727 0.177097C0.845402 0.0933218 1.08566 0.0838378 1.3196 0.0743538C1.64048 0.0632891 1.96136 0.0506437 2.28065 0.039579C2.56359 0.0285143 2.85285 0.0190303 3.12157 0.109129C3.51357 0.240324 3.82339 0.591233 3.90242 0.997465C3.88503 0.997465 3.86606 0.995885 3.8471 0.992723Z" fill="#0FB5CD"/>
<path d="M4.30371 0.899445C4.35113 0.60386 4.50762 0.36834 4.77949 0.232402C4.95653 0.143885 5.15727 0.0869804 5.35328 0.0616896C5.96816 -0.0141826 6.5862 -0.0331506 7.19792 0.0727543C7.57886 0.139142 7.8539 0.377824 8.07519 0.682893C8.11155 0.733475 8.11787 0.804605 8.14158 0.882058C7.95032 0.901026 7.85706 0.791959 7.78593 0.679732C7.64367 0.455277 7.4366 0.341468 7.18686 0.338307C6.5451 0.331984 5.90177 0.34463 5.26002 0.360436C5.04188 0.365178 4.87117 0.480567 4.72259 0.641796C4.61668 0.758765 4.48707 0.853606 4.36852 0.95793C4.34797 0.938962 4.32584 0.919994 4.30371 0.899445Z" fill="#0FB5CD"/>
<path d="M3.80942 8.65264C3.59761 8.56254 3.4917 8.31912 3.30044 8.19108C3.11392 8.06463 2.87208 8.06305 2.64762 8.06621C2.10861 8.07411 1.57119 8.08044 1.03218 8.08834C0.861466 8.08992 0.678108 8.09782 0.54217 8.20057C0.445749 8.27486 0.388845 8.38709 0.312973 8.48351C0.237101 8.57993 0.124873 8.66528 0.00474201 8.64632C0 8.64632 0 8.57993 0 8.57361C0.00158067 8.54831 0.00474201 8.52302 0.0110647 8.49773C0.0237101 8.45031 0.0458395 8.40922 0.0727109 8.3697C0.128034 8.28908 0.1881 8.21321 0.254488 8.14208C0.344586 8.04724 0.44733 7.96347 0.56588 7.90656C0.897821 7.74217 1.28983 7.79433 1.66129 7.79275C2.13232 7.79117 2.61917 7.69475 3.0665 7.84175C3.42689 7.95872 3.73038 8.23534 3.88371 8.57993C3.86 8.60364 3.83471 8.62893 3.80942 8.65264Z" fill="#0FB5CD"/>
<path d="M24.1601 8.56571C24.1143 8.23693 24.2549 8.0757 24.4446 7.94451C24.7212 7.75167 25.0405 7.67579 25.3677 7.63628C25.9731 7.56357 26.5801 7.54776 27.1586 7.77063C27.3815 7.85599 27.5822 8.0109 27.7719 8.16106C27.8826 8.248 27.9363 8.39184 27.8873 8.59732C27.7846 8.52145 27.6881 8.47561 27.6265 8.39974C27.3293 8.03303 26.9468 7.8797 26.4805 7.89551C26.0901 7.90815 25.6981 7.89393 25.3077 7.90973C25.0152 7.9208 24.7592 8.03303 24.5505 8.24958C24.4446 8.35864 24.3134 8.44242 24.1601 8.56571Z" fill="#0FB5CD"/>
<path d="M23.7209 12.4431C23.6339 12.3783 23.517 12.3324 23.4632 12.2471C23.2514 11.9151 22.9305 11.8456 22.578 11.8487C21.979 11.8551 21.3815 11.8661 20.7824 11.8851C20.5611 11.8914 20.3872 11.9973 20.2734 12.1965C20.2371 12.2613 20.1897 12.3308 20.1296 12.3688C20.0648 12.4083 19.9778 12.4146 19.9004 12.4352C19.9115 12.3593 19.8972 12.266 19.9367 12.2123C20.1343 11.9436 20.3825 11.7191 20.7129 11.6417C20.9863 11.5784 21.2724 11.5453 21.5538 11.5437C21.9806 11.5405 22.4105 11.5532 22.8341 11.6006C23.2277 11.6448 23.4964 11.9135 23.7177 12.2249C23.7493 12.2708 23.7572 12.334 23.7746 12.3893C23.7572 12.4067 23.7398 12.4241 23.7209 12.4431Z" fill="#0FB5CD"/>
<path d="M27.8532 12.4384C27.7884 12.3657 27.7331 12.3198 27.7014 12.2613C27.545 11.9879 27.2999 11.8598 26.998 11.8583C26.361 11.8551 25.7256 11.8646 25.0886 11.8788C24.8088 11.8851 24.5828 12.0163 24.4026 12.2281C24.3425 12.2977 24.2682 12.3562 24.1781 12.4399C24.1102 12.2202 24.1275 12.0337 24.2888 11.9247C24.4721 11.8014 24.6808 11.686 24.8942 11.6401C25.6418 11.4836 26.3974 11.4868 27.1466 11.637C27.3268 11.6733 27.507 11.7539 27.6667 11.8488C27.8753 11.9752 27.9227 12.1554 27.8532 12.4384Z" fill="#0FB5CD"/>
<path d="M19.4543 12.44C19.2283 12.3435 19.1145 12.0827 18.9027 11.9563C18.732 11.8535 18.5202 11.8535 18.321 11.8551C17.8563 11.8598 17.39 11.8662 16.9253 11.8709C16.7214 11.8725 16.5095 11.8772 16.3262 11.9673C16.0859 12.0859 15.9279 12.3404 15.6797 12.4431C15.6971 12.4352 15.7571 12.1918 15.7745 12.157C15.8125 12.078 15.8567 12.0053 15.9152 11.9405C16.0401 11.8014 16.2108 11.7065 16.3878 11.6528C16.6486 11.5737 16.9268 11.5737 17.2003 11.5753C17.5307 11.5769 17.8626 11.5785 18.193 11.5801C18.4127 11.5816 18.6371 11.5832 18.8394 11.667C19.0765 11.765 19.2567 11.9626 19.4164 12.1649C19.448 12.206 19.4812 12.2487 19.4938 12.2977C19.5065 12.3483 19.497 12.4083 19.4543 12.44Z" fill="#0FB5CD"/>
<path d="M15.6074 8.56891C15.6343 8.26068 16.0595 7.83073 16.4041 7.81335C17.1264 7.77857 17.852 7.77541 18.5743 7.78173C18.9569 7.7849 19.2414 7.99038 19.4342 8.316C19.4943 8.41716 19.6065 8.52781 19.4959 8.64636C19.4785 8.66533 19.3173 8.55626 19.2287 8.49778C19.1829 8.46774 19.1434 8.4219 19.1118 8.37448C18.9442 8.13422 18.7087 7.99987 18.4242 7.9967C17.8204 7.99038 17.215 8.00145 16.6111 8.01725C16.3914 8.02358 16.2223 8.14371 16.0816 8.31126C15.9884 8.4219 15.884 8.52465 15.7781 8.62107C15.7481 8.64952 15.6833 8.66058 15.6438 8.64952C15.6201 8.64478 15.6122 8.57997 15.6074 8.56891Z" fill="#0FB5CD"/>
<path d="M1.93686 11.6227C2.22296 11.6227 2.51064 11.6243 2.79516 11.6417C2.94533 11.6512 3.09865 11.6654 3.23775 11.7192C3.4543 11.8029 3.62343 11.9784 3.75463 12.1697C3.80047 12.2345 3.84157 12.304 3.85895 12.3815C3.87634 12.4589 3.86528 12.5459 3.81153 12.6059C3.72618 12.5822 3.62976 12.5474 3.6013 12.4637C3.58866 12.4273 3.5934 12.3878 3.59024 12.3498C3.57917 12.2313 3.4954 12.1286 3.39424 12.0653C3.29307 12.0021 3.17452 11.9736 3.05755 11.9499C2.3178 11.7966 1.54169 11.7792 0.808259 11.9642C0.624901 12.01 0.427317 12.0827 0.337219 12.2503C0.299283 12.3214 0.285057 12.402 0.248701 12.4747C0.213927 12.5474 0.144377 12.6138 0.0653436 12.6091C-0.00578658 12.6043 0.0131815 12.3609 0.0258268 12.323C0.0526982 12.2345 0.122248 12.1317 0.175991 12.0558C0.299283 11.882 0.493705 11.765 0.696031 11.7034C0.955261 11.6243 1.2303 11.6227 1.50217 11.6227C1.61282 11.6227 1.72347 11.6227 1.83253 11.6227C1.86889 11.6227 1.90366 11.6227 1.93686 11.6227Z" fill="#0FB5CD"/>
<path d="M19.4879 4.79264C19.412 4.73416 19.3203 4.68832 19.2619 4.61561C18.9584 4.2315 18.5585 4.08766 18.0811 4.10505C17.6591 4.11927 17.2354 4.10979 16.8134 4.12086C16.5194 4.12718 16.2791 4.24889 16.1021 4.49073C16.0152 4.60928 15.9156 4.71835 15.8081 4.84796C15.7101 4.51602 15.7796 4.27734 16.0816 4.1414C16.3866 4.00389 16.7201 3.90272 17.0505 3.85688C17.6401 3.77469 18.2376 3.79682 18.8082 3.99124C19.0153 4.06237 19.2065 4.19989 19.3852 4.33425C19.5148 4.43225 19.5495 4.59348 19.5369 4.75312C19.5211 4.76577 19.5037 4.77841 19.4879 4.79264Z" fill="#0FB5CD"/>
<path d="M8.49023 4.75469C8.51553 4.67091 8.52501 4.57923 8.56769 4.50652C8.74156 4.19355 8.99131 3.97542 9.36276 3.93432C10.1294 3.85213 10.8976 3.83158 11.6611 3.94064C12.023 3.99281 12.355 4.41959 12.3218 4.80369C12.208 4.72624 12.0878 4.68356 12.0325 4.5982C11.7733 4.20304 11.3971 4.09239 10.9561 4.10503C10.4771 4.11926 9.99978 4.12242 9.52083 4.14297C9.27425 4.15403 9.08773 4.29313 8.92176 4.46859C8.80953 4.58714 8.6815 4.68988 8.55978 4.80053C8.53607 4.78472 8.51236 4.7705 8.49023 4.75469Z" fill="#0FB5CD"/>
<path d="M4.29199 12.3814C4.4137 12.0795 4.59232 11.8187 4.91952 11.7144C5.13923 11.6449 5.37317 11.599 5.60237 11.58C6.14928 11.5326 6.69777 11.5073 7.23994 11.6369C7.63511 11.7302 7.91331 11.9657 8.08718 12.3309C8.10299 12.3656 8.1188 12.4004 8.12828 12.4352C8.1346 12.4573 8.12986 12.4842 8.12986 12.568C7.99076 12.4431 7.87063 12.3577 7.78053 12.2487C7.57347 11.9973 7.30791 11.8646 6.99178 11.8614C6.42432 11.8567 5.85686 11.8677 5.29098 11.8851C5.04755 11.8914 4.84681 12.0084 4.67293 12.1791C4.57335 12.2771 4.45638 12.3577 4.34732 12.4463C4.32835 12.4225 4.31096 12.402 4.29199 12.3814Z" fill="#0FB5CD"/>
<path d="M23.8191 8.61944C23.7685 8.62734 23.7052 8.65895 23.6768 8.6384C23.5788 8.57044 23.4824 8.49456 23.4049 8.40604C23.0967 8.04723 22.711 7.87968 22.2384 7.89549C21.8922 7.90813 21.5445 7.89707 21.1983 7.90971C20.9043 7.92078 20.6482 8.03301 20.438 8.24324C20.3226 8.35862 20.2041 8.47401 20.0776 8.57676C20.027 8.61785 19.9496 8.62576 19.8848 8.64789C19.8927 8.57676 19.8816 8.49614 19.9101 8.43608C20.0982 8.05355 20.3906 7.788 20.83 7.78326C21.5524 7.77378 22.2779 7.77536 22.9987 7.81329C23.3954 7.83384 23.6183 8.14049 23.7827 8.47559C23.7985 8.50405 23.8001 8.53724 23.8191 8.61944Z" fill="#0FB5CD"/>
<path d="M8.54142 8.65104C8.4529 8.3428 8.55091 8.08674 8.82436 7.97293C9.04091 7.88125 9.27959 7.8196 9.51353 7.79431C10.2043 7.71686 10.8966 7.71054 11.5858 7.80854C11.9667 7.86228 12.2813 8.24322 12.2449 8.62891C12.1406 8.5309 12.0426 8.46452 11.981 8.37284C11.8182 8.13574 11.5969 7.9998 11.3171 7.99506C10.6943 7.98399 10.0699 7.98399 9.44557 7.99664C9.17369 8.00138 8.95556 8.13416 8.79907 8.36651C8.73268 8.46294 8.641 8.54197 8.54142 8.65104Z" fill="#0FB5CD"/>
<path d="M0 4.84639C0.1881 4.37693 0.474201 4.00231 1.02902 3.99124C1.73874 3.97702 2.45004 3.99124 3.16134 4.01337C3.52806 4.02444 3.73196 4.27734 3.86 4.59348C3.89793 4.68832 3.94535 4.8211 3.80467 4.86693C3.64977 4.91594 3.61183 4.78316 3.60077 4.66619C3.57864 4.45438 3.42215 4.37219 3.25934 4.30105C2.89421 4.14299 2.50378 4.09241 2.11336 4.10821C1.73874 4.12402 1.36254 4.17144 0.99108 4.23467C0.739754 4.27735 0.526363 4.41328 0.358812 4.62035C0.271875 4.72942 0.151744 4.80845 0.0474201 4.90013C0.0316134 4.88116 0.0158067 4.86377 0 4.84639Z" fill="#0FB5CD"/>
<path d="M27.9796 0.945316C27.88 0.856799 27.7899 0.799895 27.7299 0.719281C27.5102 0.418953 27.2146 0.265628 26.851 0.229273C26.2156 0.164465 25.5817 0.117045 24.9542 0.287758C24.6855 0.360469 24.4357 0.460051 24.4152 0.806217C24.412 0.850476 24.3014 0.889993 24.2413 0.93109C24.2081 0.871025 24.1465 0.81254 24.1465 0.752475C24.1465 0.496406 24.4152 0.181853 24.7155 0.120207C25.0032 0.0617219 25.3004 0.0222052 25.5944 0.0158825C26.086 0.0048178 26.5776 0.0190438 27.0691 0.0395925C27.4801 0.0553992 27.9717 0.532762 27.9796 0.945316Z" fill="#0FB5CD"/>
<path d="M4.43066 4.79579C4.43382 4.79421 4.40853 4.70569 4.40694 4.69462C4.40062 4.65827 4.39746 4.62191 4.39746 4.58556C4.39746 4.51601 4.40062 4.43065 4.43066 4.36584C4.48282 4.24887 4.5903 4.18249 4.70411 4.13823C5.09296 3.98332 5.52448 3.98648 5.94178 3.9928C6.37172 3.99755 6.80166 4.00387 7.23002 4.00861C7.37228 4.01019 7.51929 4.01335 7.65206 4.06393C7.78642 4.1161 7.89707 4.2141 7.98716 4.32633C8.05039 4.40536 8.10571 4.4923 8.12626 4.59188C8.14681 4.68988 8.12942 4.80053 8.06146 4.87482C8.01087 4.8274 7.93026 4.81317 7.89707 4.75311C7.88126 4.72466 7.88126 4.69146 7.87494 4.65985C7.85439 4.5413 7.77219 4.43855 7.67261 4.37059C7.57303 4.30262 7.45606 4.26468 7.33751 4.23465C6.90757 4.12558 6.45866 4.11452 6.01449 4.10503C5.7268 4.09871 5.42806 4.09713 5.16567 4.2141C4.88115 4.3453 4.67566 4.59978 4.43066 4.79579Z" fill="#0FB5CD"/>
</g>
<defs>
<clipPath id="clip0">
<rect width="28" height="15.0053" fill="white"/>
</clipPath>
</defs>
</svg>
