<svg width="28" height="25" viewBox="0 0 28 25" fill="none" xmlns="http://www.w3.org/2000/svg">
<g clip-path="url(#clip0)">
<path d="M24.3289 3.55353C24.3289 10.498 24.3289 17.4208 24.3289 24.3557C23.4375 24.3557 22.5542 24.3557 21.6451 24.3557C21.6451 24.2717 21.6451 24.1918 21.6451 24.1132C21.6451 18.1537 21.6451 12.1928 21.6451 6.23323C21.6451 5.92705 21.6709 5.9677 21.3728 5.9677C16.4456 5.96634 11.5184 5.9677 6.59115 5.9677C6.51528 5.9677 6.43942 5.9677 6.34188 5.9677C6.34188 12.1007 6.34188 18.2241 6.34188 24.3584C5.43419 24.3584 4.54818 24.3584 3.64321 24.3584C3.63779 24.3029 3.62966 24.246 3.62966 24.1891C3.62966 17.3679 3.62966 10.5468 3.62695 3.72694C3.62695 3.58875 3.65811 3.54134 3.80578 3.54269C10.5904 3.54676 17.375 3.5454 24.1596 3.54676C24.2124 3.5454 24.2652 3.55082 24.3289 3.55353Z" fill="#0FB5CD"/>
<path d="M0.504883 15.7287C0.531978 15.4848 0.54688 15.2464 0.588877 15.0147C0.648486 14.6896 0.853054 14.4904 1.17819 14.4227C1.56836 14.3414 1.96395 14.3387 2.35412 14.4146C2.705 14.4823 2.88112 14.6814 2.91092 15.1299C2.94073 15.5796 2.92311 16.0348 2.88789 16.486C2.86215 16.8125 2.69687 16.9805 2.36767 17.0075C1.97208 17.0401 1.56972 17.0414 1.17413 17.0103C0.867956 16.9872 0.65797 16.7894 0.60107 16.4765C0.553654 16.2286 0.534687 15.9766 0.504883 15.7287Z" fill="#0FB5CD"/>
<path d="M0.513672 8.44145C0.531284 8.23688 0.538057 8.03096 0.566507 7.8291C0.63018 7.3712 0.848295 7.13683 1.30891 7.09212C1.62321 7.06096 1.947 7.06638 2.25995 7.1016C2.67179 7.14766 2.88449 7.3861 2.91429 7.85891C2.94139 8.29243 2.92377 8.73272 2.88991 9.16624C2.86417 9.4968 2.70701 9.6675 2.37645 9.69595C1.96461 9.73117 1.54599 9.73117 1.13415 9.69866C0.802234 9.67156 0.624761 9.45074 0.565152 9.10392C0.55296 9.03483 0.538057 8.96574 0.535348 8.89529C0.531284 8.74356 0.533993 8.59318 0.533993 8.44145C0.528574 8.44281 0.5218 8.44145 0.513672 8.44145Z" fill="#0FB5CD"/>
<path d="M0.514648 4.90559C0.529551 4.67393 0.53226 4.44091 0.562065 4.21196C0.620319 3.77438 0.762568 3.61181 1.19473 3.56981C1.53613 3.53594 1.88837 3.53459 2.22841 3.57523C2.68902 3.62942 2.8543 3.78521 2.90172 4.24177C2.94507 4.64684 2.93694 5.06139 2.90849 5.46917C2.88004 5.86611 2.62671 6.09236 2.23925 6.17635C1.85721 6.25899 1.47788 6.2617 1.10261 6.1479C0.693476 6.02462 0.547162 5.83225 0.533615 5.40956C0.528196 5.24157 0.53226 5.07494 0.53226 4.90695C0.526841 4.90695 0.520067 4.90559 0.514648 4.90559Z" fill="#0FB5CD"/>
<path d="M8.59378 0.545959C8.88234 0.564926 9.10859 0.578473 9.33483 0.596085C9.55972 0.612342 9.72771 0.727496 9.81306 0.932064C10.0352 1.45635 10.0379 1.99283 9.86589 2.53202C9.81577 2.68918 9.68707 2.77588 9.53804 2.8233C8.96363 3.0089 8.38108 3.0387 7.79854 2.87613C7.5154 2.79756 7.32031 2.60518 7.32031 2.29359C7.32031 1.85194 7.3298 1.40894 7.36231 0.969997C7.37992 0.726141 7.45714 0.665178 7.701 0.632664C8.01801 0.590666 8.33638 0.56899 8.59378 0.545959Z" fill="#0FB5CD"/>
<path d="M0.509766 12.1142C0.531442 11.8649 0.538215 11.659 0.56802 11.4571C0.628984 11.0466 0.830842 10.8123 1.23998 10.7594C1.56241 10.7174 1.89974 10.712 2.22217 10.7513C2.67601 10.8068 2.86026 10.9924 2.90768 11.4761C2.94832 11.9028 2.94019 12.3404 2.89955 12.7672C2.86026 13.1844 2.73156 13.2942 2.32107 13.3633C1.92548 13.4296 1.52583 13.4337 1.12889 13.3511C0.847099 13.2915 0.660143 13.1221 0.604598 12.8417C0.553118 12.5897 0.535506 12.3296 0.509766 12.1142Z" fill="#0FB5CD"/>
<path d="M5.00719 0.551392C5.2226 0.564939 5.43936 0.578487 5.65477 0.590679C5.90946 0.604227 6.08422 0.738347 6.1777 0.965946C6.39175 1.48346 6.39446 2.0091 6.18718 2.52933C6.08558 2.78538 5.86475 2.92492 5.60735 2.93982C5.18331 2.96285 4.7525 2.9764 4.33117 2.92898C3.89224 2.88021 3.7107 2.67971 3.6687 2.23941C3.63619 1.88718 3.64432 1.52546 3.68225 1.17322C3.72154 0.800666 3.91527 0.644869 4.29324 0.597453C4.38401 0.586615 4.47613 0.571713 4.5669 0.567649C4.71321 0.56223 4.85953 0.566294 5.00584 0.566294C5.00584 0.560875 5.00584 0.555456 5.00719 0.551392Z" fill="#0FB5CD"/>
<path d="M27.4825 12.0803C27.4514 12.3499 27.4392 12.5775 27.3958 12.7983C27.3159 13.2115 27.1736 13.347 26.7564 13.3754C26.4014 13.3998 26.0451 13.3917 25.6888 13.3795C25.3867 13.37 25.2269 13.1655 25.1347 12.9053C25.0087 12.5463 25.0101 12.1724 25.044 11.7999C25.0589 11.6292 25.0995 11.4598 25.1374 11.2918C25.2079 10.983 25.4043 10.815 25.7159 10.7608C26.121 10.689 26.5206 10.6944 26.9203 10.7946C27.1601 10.8556 27.3132 10.9992 27.3565 11.2404C27.4094 11.5303 27.4446 11.8256 27.4825 12.0803Z" fill="#0FB5CD"/>
<path d="M27.4673 8.60404C27.447 8.80048 27.4253 9.07008 27.3914 9.33697C27.367 9.53341 27.2519 9.65533 27.0581 9.71088C26.6111 9.83958 26.1532 9.87751 25.6926 9.83552C25.4365 9.81113 25.2523 9.65262 25.1629 9.41148C25.1073 9.2611 25.0572 9.09988 25.0531 8.94138C25.0436 8.57018 25.0369 8.19355 25.0775 7.82506C25.1181 7.45386 25.3376 7.26148 25.7373 7.22897C26.0909 7.20052 26.4512 7.19646 26.8048 7.21949C27.2234 7.24658 27.3806 7.42405 27.4212 7.84809C27.4415 8.07569 27.4497 8.30329 27.4673 8.60404Z" fill="#0FB5CD"/>
<path d="M23.1367 0.414551C23.3427 0.436227 23.596 0.451129 23.8466 0.491772C24.1596 0.541897 24.3465 0.750529 24.3614 1.05399C24.3818 1.46719 24.3777 1.88446 24.3371 2.2963C24.3018 2.64989 24.1569 2.79349 23.8006 2.80975C23.3007 2.83414 22.7981 2.82194 22.2982 2.78808C21.9825 2.7664 21.8348 2.6106 21.8172 2.29495C21.7942 1.88175 21.7928 1.46313 21.8294 1.05128C21.8606 0.696339 22.0787 0.513448 22.4431 0.467386C22.6558 0.440291 22.8726 0.433517 23.1367 0.414551Z" fill="#0FB5CD"/>
<path d="M19.4638 0.475525C19.7483 0.50262 20.0138 0.509394 20.2726 0.555455C20.6045 0.615064 20.7481 0.77628 20.7901 1.10955C20.8483 1.56339 20.8172 2.01452 20.7264 2.46295C20.679 2.69596 20.5205 2.81383 20.3037 2.81654C19.7862 2.82195 19.2673 2.82737 18.7525 2.78673C18.384 2.75828 18.1957 2.57133 18.1632 2.20554C18.1293 1.82757 18.1456 1.44146 18.1795 1.06213C18.2039 0.783053 18.3935 0.602872 18.6753 0.559519C18.9436 0.518877 19.2118 0.501265 19.4638 0.475525Z" fill="#0FB5CD"/>
<path d="M26.2386 3.5332C26.4323 3.54811 26.6274 3.54946 26.8197 3.57926C27.2031 3.63887 27.3698 3.80957 27.4185 4.19161C27.4809 4.68339 27.466 5.17245 27.363 5.65881C27.3169 5.87557 27.2004 6.01917 26.9864 6.08014C26.5488 6.20748 26.1017 6.23322 25.656 6.15329C25.3051 6.09098 25.1046 5.87151 25.0748 5.46914C25.0423 5.03427 25.0437 4.59397 25.0735 4.16045C25.1006 3.76351 25.3431 3.58333 25.801 3.55488C25.9459 3.5454 26.0936 3.55352 26.2386 3.55352C26.2386 3.54675 26.2386 3.53998 26.2386 3.5332Z" fill="#0FB5CD"/>
<path d="M2.95622 19.3852C2.94674 19.5626 2.92913 19.7415 2.93048 19.9189C2.93319 20.2739 2.75572 20.4933 2.43735 20.622C1.86836 20.8524 1.1395 20.7047 0.74527 20.2779C0.603021 20.1235 0.519026 19.9474 0.533929 19.736C0.561024 19.3703 0.577281 19.0031 0.632825 18.6414C0.693789 18.2512 0.861778 18.0954 1.25195 18.0494C1.69901 17.9965 2.14608 18.0047 2.58909 18.0981C2.74624 18.1306 2.84513 18.2079 2.86275 18.3704C2.90068 18.7078 2.93726 19.0451 2.97384 19.3824C2.96842 19.3824 2.96164 19.3838 2.95622 19.3852Z" fill="#0FB5CD"/>
<path d="M25.0791 15.7042C25.0994 15.4875 25.1157 15.2125 25.1536 14.9415C25.197 14.6286 25.3988 14.4362 25.7036 14.4132C26.0897 14.3847 26.4813 14.382 26.8674 14.4118C27.1993 14.4376 27.3591 14.6354 27.412 15.0377C27.477 15.5268 27.4729 16.0186 27.3957 16.5076C27.3524 16.7759 27.2006 16.9317 26.9378 16.9872C26.4921 17.082 26.0464 17.0847 25.6034 16.9818C25.2918 16.9086 25.159 16.7515 25.1279 16.4277C25.1062 16.2069 25.0981 15.986 25.0791 15.7042Z" fill="#0FB5CD"/>
<path d="M26.3016 24.2487C26.0848 24.2243 25.8112 24.1985 25.5389 24.162C25.3899 24.1416 25.2801 24.0726 25.249 23.9032C25.1392 23.3071 25.123 22.711 25.2273 22.1136C25.2733 21.8467 25.4481 21.676 25.7069 21.6557C26.0821 21.6259 26.4615 21.6286 26.8381 21.6421C27.1185 21.6516 27.3163 21.8277 27.4179 22.0756C27.655 22.6541 27.6591 23.2462 27.4315 23.83C27.3448 24.0509 27.1768 24.1891 26.9275 24.2053C26.7378 24.2175 26.5495 24.2311 26.3016 24.2487Z" fill="#0FB5CD"/>
<path d="M25.1494 19.3702C25.1643 19.1169 25.1738 18.8676 25.1955 18.6211C25.2266 18.2769 25.3635 18.0913 25.6927 18.0629C26.0937 18.029 26.5028 18.0277 26.9038 18.0629C27.2371 18.0913 27.3848 18.2377 27.4051 18.5777C27.4349 19.0817 27.4362 19.5924 27.3969 20.0964C27.3658 20.492 27.2113 20.6396 26.8212 20.6762C26.4473 20.7114 26.0652 20.7033 25.6927 20.6667C25.3621 20.6342 25.228 20.4635 25.1968 20.1275C25.1724 19.8728 25.1643 19.6195 25.1494 19.3702Z" fill="#0FB5CD"/>
<path d="M15.841 0.533752C16.173 0.57304 16.5049 0.610973 16.8368 0.651616C16.9804 0.669228 17.0576 0.761351 17.0847 0.894116C17.1917 1.41976 17.1931 1.9454 17.0752 2.46969C17.0264 2.68374 16.8801 2.80567 16.6742 2.81109C16.1621 2.82464 15.646 2.84631 15.1379 2.80296C14.6773 2.76367 14.5405 2.60381 14.4917 2.13913C14.4605 1.83567 14.4673 1.52272 14.5012 1.2179C14.5472 0.801993 14.741 0.639423 15.1582 0.596071C15.2544 0.586588 15.352 0.570331 15.4482 0.567621C15.5782 0.562202 15.7083 0.566266 15.8383 0.566266C15.8397 0.555428 15.8397 0.54459 15.841 0.533752Z" fill="#0FB5CD"/>
<path d="M12.2171 0.545959C12.465 0.56899 12.782 0.598795 13.0991 0.628599C13.2969 0.647566 13.4066 0.750527 13.4405 0.952385C13.5285 1.47396 13.5366 1.99283 13.4242 2.5117C13.393 2.65666 13.3145 2.73524 13.1682 2.76369C12.5951 2.87613 12.0193 2.87071 11.4422 2.81381C11.1902 2.78943 11.0331 2.62957 10.945 2.40332C10.7662 1.94135 10.7662 1.47396 10.9423 1.01199C11.0385 0.76001 11.216 0.602859 11.4991 0.589311C11.7159 0.579828 11.9313 0.563571 12.2171 0.545959Z" fill="#0FB5CD"/>
<path d="M1.83344 21.6544C2.07865 21.6828 2.31303 21.7113 2.54875 21.737C2.76009 21.76 2.87254 21.8887 2.88744 22.0879C2.91454 22.4699 2.93757 22.852 2.93757 23.2354C2.93757 23.444 2.8915 23.6526 2.85764 23.8612C2.82919 24.036 2.72893 24.1498 2.55417 24.204C2.11117 24.3422 1.6641 24.3761 1.21161 24.2636C0.947437 24.1986 0.7659 24.0441 0.738805 23.7569C0.684615 23.2028 0.642618 22.6487 0.725257 22.0919C0.755062 21.8914 0.855314 21.7749 1.0504 21.7478C1.31186 21.7126 1.57469 21.6855 1.83344 21.6544Z" fill="#0FB5CD"/>
<path d="M0.810269 21.2764C0.834654 21.2872 0.886135 21.2953 0.894263 21.3197C0.906456 21.3536 0.901037 21.4091 0.879361 21.4362C0.827881 21.4972 0.769626 21.5595 0.701889 21.6002C0.517643 21.7085 0.411972 21.8684 0.409263 22.0757C0.403844 22.6785 0.409263 23.2814 0.418746 23.8856C0.421455 24.0644 0.521707 24.1986 0.674794 24.2934C0.734403 24.33 0.794012 24.3733 0.836009 24.4275C0.871233 24.4722 0.878006 24.5386 0.898328 24.5942C0.838719 24.6009 0.766917 24.6321 0.719501 24.6091C0.45126 24.4831 0.23179 24.2988 0.1776 23.9886C0.141022 23.7772 0.116636 23.5591 0.119346 23.3451C0.126119 22.8763 0.136957 22.4062 0.1776 21.9402C0.20605 21.6272 0.439067 21.4457 0.701889 21.3075C0.731693 21.2913 0.765562 21.2886 0.810269 21.2764Z" fill="#0FB5CD"/>
<path d="M17.468 0.812821C17.3949 0.745083 17.3055 0.688184 17.2499 0.606899C17.1212 0.415879 16.9451 0.306144 16.7243 0.304789C16.1363 0.300725 15.5484 0.310208 14.9604 0.322401C14.7775 0.326465 14.6366 0.424007 14.5391 0.585223C14.4984 0.65296 14.4402 0.715279 14.3779 0.765405C14.2817 0.84398 14.2234 0.816885 14.2031 0.694958C14.1719 0.509356 14.2464 0.331884 14.4551 0.253308C14.7098 0.158476 14.9794 0.074481 15.249 0.0541598C15.7001 0.020291 16.1553 0.047386 16.6078 0.036548C17.044 0.0270647 17.3217 0.308853 17.506 0.766759C17.4938 0.781662 17.4816 0.796564 17.468 0.812821Z" fill="#0FB5CD"/>
<path d="M13.8053 0.80877C13.7349 0.741033 13.6509 0.681423 13.5953 0.602848C13.4693 0.419957 13.3 0.307512 13.0832 0.306157C12.4898 0.302093 11.8965 0.310222 11.3031 0.323769C11.1256 0.326479 10.9874 0.419957 10.8926 0.575753C10.8506 0.64349 10.7991 0.711228 10.7368 0.759999C10.6989 0.789804 10.6325 0.785739 10.5783 0.796577C10.5729 0.746452 10.5526 0.692262 10.5661 0.64891C10.6664 0.31835 10.9996 0.0609474 11.3911 0.0501094C11.9466 0.0352072 12.5034 0.0352072 13.0588 0.0487547C13.407 0.0568832 13.8067 0.447052 13.8053 0.80877Z" fill="#0FB5CD"/>
<path d="M7.05108 0.792537C6.99824 0.512104 7.06598 0.341405 7.3017 0.242508C7.50221 0.157159 7.72032 0.0934854 7.93573 0.0663904C8.48305 -0.00405665 9.03443 -0.0121852 9.58175 0.0731642C9.89335 0.121935 10.0803 0.335986 10.2158 0.600162C10.2429 0.652998 10.2185 0.731573 10.2185 0.799311C10.1535 0.774925 10.0857 0.755959 10.0248 0.723445C9.9936 0.707188 9.96921 0.67061 9.9516 0.638095C9.80935 0.356307 9.5533 0.293989 9.27151 0.292634C8.84477 0.289924 8.41802 0.28857 7.99127 0.293989C7.69323 0.298053 7.42905 0.384757 7.23397 0.629967C7.18791 0.685512 7.12423 0.727509 7.05108 0.792537Z" fill="#0FB5CD"/>
<path d="M27.2346 13.6247C27.2725 13.5813 27.305 13.5312 27.3511 13.496C27.6058 13.2982 27.7169 13.0286 27.7182 12.7184C27.7196 12.2212 27.7087 11.724 27.6952 11.2281C27.6898 11.0385 27.6031 10.8881 27.4324 10.7906C27.3728 10.7567 27.3118 10.712 27.2711 10.6564C27.2373 10.6117 27.2305 10.5453 27.2129 10.4884C27.2711 10.483 27.3402 10.4532 27.3863 10.4749C27.7182 10.6266 27.9431 10.8746 27.9621 11.2525C27.9932 11.8513 28.0271 12.4515 27.9106 13.0462C27.8645 13.2833 27.7561 13.4879 27.5394 13.6098C27.4581 13.6559 27.3565 13.664 27.2644 13.6884C27.2535 13.6667 27.2441 13.645 27.2346 13.6247Z" fill="#0FB5CD"/>
<path d="M6.51646 0.806088C6.44601 0.751898 6.35389 0.709901 6.31053 0.639454C6.14526 0.369858 5.89463 0.293992 5.60471 0.292638C5.1888 0.289928 4.77154 0.289928 4.35563 0.292638C4.04539 0.295347 3.77038 0.383406 3.56852 0.638099C3.52652 0.690935 3.46827 0.731577 3.41408 0.778993C3.32331 0.609649 3.36531 0.403727 3.55632 0.303476C3.76767 0.193741 4.00204 0.105682 4.23506 0.0677489C4.80947 -0.0243741 5.3893 -0.00676237 5.9583 0.115165C6.22248 0.172065 6.46904 0.276381 6.54491 0.5812C6.55981 0.640809 6.5571 0.704482 6.56252 0.766801C6.54762 0.780348 6.53271 0.793896 6.51646 0.806088Z" fill="#0FB5CD"/>
<path d="M27.2217 14.1368C27.4872 14.0664 27.6674 14.1314 27.7717 14.3793C27.8638 14.6001 27.9316 14.8399 27.9546 15.077C28.0074 15.6203 28.021 16.1662 27.9112 16.7054C27.8638 16.9425 27.7514 17.1444 27.536 17.2649C27.4561 17.3096 27.3531 17.3151 27.261 17.3381C27.2528 17.3191 27.2434 17.3015 27.2352 17.2825C27.2786 17.2324 27.3165 17.1742 27.368 17.1322C27.6064 16.9438 27.7162 16.6905 27.7189 16.3979C27.7229 15.9237 27.7135 15.4482 27.6999 14.974C27.6931 14.7437 27.5875 14.5514 27.4276 14.3847C27.3531 14.3129 27.2935 14.2262 27.2217 14.1368Z" fill="#0FB5CD"/>
<path d="M27.127 6.45134C27.1879 6.38089 27.238 6.2969 27.3112 6.24135C27.6241 6.00427 27.7393 5.68455 27.7285 5.30522C27.7163 4.88931 27.7136 4.4734 27.6973 4.0575C27.6865 3.78248 27.5523 3.57927 27.3031 3.45057C27.2231 3.40857 27.0958 3.37199 27.1513 3.25007C27.1635 3.22297 27.3288 3.23652 27.406 3.27174C27.7054 3.40451 27.8883 3.63481 27.9086 3.96944C27.9371 4.45444 27.9628 4.94079 27.9737 5.42579C27.9831 5.8566 27.7691 6.17768 27.425 6.41747C27.3518 6.46895 27.2557 6.48656 27.1689 6.51908C27.1554 6.49469 27.1419 6.47302 27.127 6.45134Z" fill="#0FB5CD"/>
<path d="M27.2339 6.84283C27.5184 6.89161 27.9207 7.28177 27.937 7.60014C27.9641 8.17591 27.9641 8.75574 27.9289 9.33016C27.9085 9.66207 27.6715 9.90593 27.41 10.1037C27.3653 10.1376 27.2854 10.124 27.2217 10.1322C27.2406 10.0753 27.2596 10.0184 27.2786 9.96147C27.2813 9.95199 27.2908 9.94251 27.2989 9.93709C27.6836 9.62956 27.7392 9.20146 27.7297 8.75168C27.7229 8.41706 27.7162 8.08108 27.7013 7.74645C27.6918 7.51344 27.5848 7.32513 27.4154 7.16527C27.3274 7.07992 27.2176 6.99592 27.2339 6.84283Z" fill="#0FB5CD"/>
<path d="M27.2285 17.7933C27.4141 17.716 27.5889 17.7513 27.6959 17.9206C27.7894 18.0683 27.8707 18.2363 27.9032 18.4056C28.0251 19.0532 28.0224 19.7048 27.91 20.3538C27.8693 20.5908 27.7555 20.7954 27.5401 20.9173C27.4588 20.9634 27.3572 20.9715 27.2651 20.9973C27.2556 20.9797 27.2461 20.962 27.2366 20.9444C27.2746 20.8984 27.3044 20.8428 27.3504 20.8062C27.5984 20.6125 27.7149 20.351 27.7176 20.0462C27.7216 19.5612 27.7135 19.0749 27.7027 18.5899C27.6973 18.3392 27.5862 18.1347 27.3924 17.9735C27.3315 17.922 27.2854 17.8569 27.2285 17.7933Z" fill="#0FB5CD"/>
<path d="M0.788629 3.19043C0.730375 3.28797 0.707344 3.36519 0.655863 3.40584C0.328013 3.6673 0.23589 4.0236 0.242664 4.41648C0.250792 4.82155 0.26434 5.22662 0.287371 5.63034C0.298209 5.83897 0.403879 6.00831 0.555611 6.15056C0.61793 6.21017 0.676184 6.2752 0.724955 6.347C0.752051 6.38629 0.753405 6.44183 0.765598 6.49061C0.715472 6.48654 0.653154 6.50144 0.616575 6.47706C0.306337 6.26707 0.0340322 6.00019 0.0231942 5.61408C0.00829193 5.03289 0.040806 4.44899 0.0855128 3.86781C0.109898 3.54537 0.42691 3.25275 0.788629 3.19043Z" fill="#0FB5CD"/>
<path d="M0.0908203 19.2984C0.11927 18.9543 0.130108 18.6075 0.180234 18.2661C0.22765 17.9491 0.462022 17.7662 0.737037 17.6388C0.780389 17.6185 0.845417 17.6429 0.900962 17.647C0.884705 17.6944 0.879286 17.7513 0.848126 17.7879C0.781744 17.8664 0.708587 17.941 0.628657 18.0033C0.453894 18.136 0.342804 18.3122 0.337385 18.5249C0.325192 19.0437 0.325192 19.5626 0.337385 20.0801C0.342804 20.286 0.44712 20.4594 0.616464 20.5909C0.697749 20.6532 0.77226 20.7263 0.838643 20.8035C0.872512 20.8428 0.88064 20.9052 0.899607 20.958C0.838643 20.9593 0.768196 20.9824 0.719425 20.958C0.44712 20.8252 0.222231 20.6396 0.174815 20.3199C0.138237 20.0747 0.128753 19.8254 0.112496 19.5775C0.105723 19.4854 0.111142 19.3933 0.111142 19.3011C0.105723 19.2984 0.0989488 19.2984 0.0908203 19.2984Z" fill="#0FB5CD"/>
<path d="M0.830486 9.97365C0.629983 10.0631 0.445737 10.04 0.344131 9.85985C0.218139 9.63361 0.105694 9.38433 0.0596329 9.131C-0.0406187 8.56742 -0.0202975 7.99842 0.149046 7.44839C0.204591 7.26821 0.311617 7.09751 0.421351 6.94172C0.508056 6.81979 0.64895 6.77237 0.842679 6.81437C0.78578 6.89295 0.753266 6.96204 0.699075 7.00675C0.386128 7.26008 0.230332 7.58522 0.243879 7.993C0.254717 8.37098 0.249298 8.74896 0.272329 9.12558C0.284522 9.32879 0.384773 9.50491 0.535151 9.64987C0.638112 9.75012 0.72888 9.86121 0.830486 9.97365Z" fill="#0FB5CD"/>
<path d="M27.9996 22.9481C27.982 23.2746 27.9739 23.5997 27.9427 23.9208C27.9075 24.269 27.6718 24.4735 27.3778 24.6158C27.3344 24.6375 27.2694 24.6131 27.2139 24.6104C27.2315 24.5589 27.2383 24.4979 27.2694 24.4559C27.3141 24.3963 27.371 24.3408 27.432 24.2988C27.6623 24.1443 27.7774 23.9208 27.7802 23.6539C27.7856 23.1527 27.7747 22.6501 27.7625 22.1474C27.7571 21.9415 27.6515 21.7803 27.4902 21.653C27.4103 21.5893 27.3304 21.5216 27.2653 21.443C27.2328 21.405 27.2328 21.34 27.2179 21.2885C27.2694 21.2872 27.329 21.2669 27.3697 21.2872C27.665 21.4281 27.9048 21.6299 27.9414 21.9767C27.9752 22.3019 27.982 22.6257 27.9996 22.9481Z" fill="#0FB5CD"/>
<path d="M23.1078 0C23.4573 0.0243855 23.8082 0.0379331 24.1564 0.0785756C24.4219 0.109735 24.6752 0.364428 24.7226 0.613703C24.7375 0.689569 24.7619 0.800659 24.6441 0.802013C24.5926 0.803368 24.4964 0.715309 24.4923 0.662474C24.4761 0.422683 24.3189 0.323786 24.1252 0.264177C23.6957 0.13412 23.2514 0.13412 22.8084 0.140894C22.7054 0.142249 22.6038 0.154442 22.5008 0.159861C22.2543 0.174763 22.0402 0.262822 21.8641 0.440294C21.7571 0.54732 21.646 0.650281 21.5295 0.747823C21.4943 0.777628 21.4374 0.783047 21.3899 0.799304C21.3899 0.745114 21.3737 0.682795 21.394 0.636733C21.5606 0.272305 21.837 0.0568996 22.2475 0.0460616C22.5334 0.0379331 22.8206 0.0447068 23.1064 0.0447068C23.1078 0.0298046 23.1078 0.0149023 23.1078 0Z" fill="#0FB5CD"/>
<path d="M21.1438 0.820991C21.0584 0.74377 20.9812 0.694999 20.9311 0.625907C20.7428 0.367149 20.4867 0.241158 20.1765 0.207289C19.6698 0.153099 19.1631 0.121939 18.6592 0.23032C18.5399 0.25606 18.4221 0.303476 18.311 0.354957C18.1864 0.413211 18.1118 0.514817 18.1024 0.659776C18.0956 0.758673 18.0441 0.842667 17.9398 0.80067C17.8951 0.783058 17.8544 0.665195 17.8693 0.608295C17.9344 0.365795 18.1051 0.19916 18.3449 0.143615C18.6172 0.0812968 18.8976 0.0365901 19.1753 0.0271068C19.5858 0.0135593 19.9977 0.0243973 20.4068 0.0501376C20.7374 0.0718136 21.1384 0.487722 21.1438 0.820991Z" fill="#0FB5CD"/>
<path d="M0.85384 10.4492C0.780683 10.5468 0.74275 10.6294 0.679077 10.6782C0.320068 10.9545 0.230654 11.3366 0.236073 11.7593C0.240138 12.0722 0.246911 12.3865 0.261814 12.6995C0.272652 12.9284 0.358001 13.1262 0.523281 13.2928C0.623532 13.3931 0.706172 13.511 0.803714 13.6302C0.591018 13.7088 0.397289 13.6424 0.30652 13.4459C0.234719 13.2915 0.184593 13.1208 0.165626 12.9528C0.0884055 12.3066 0.0762127 11.659 0.176464 11.0128C0.223881 10.7107 0.508378 10.4682 0.85384 10.4492Z" fill="#0FB5CD"/>
<path d="M0.843002 14.1219C0.777974 14.2086 0.741396 14.2831 0.681787 14.3319C0.382387 14.5785 0.234719 14.8901 0.246911 15.2802C0.259104 15.6636 0.250976 16.047 0.271297 16.4291C0.28349 16.6675 0.425739 16.8477 0.596437 17.0076C0.683141 17.0888 0.757653 17.185 0.845711 17.2839C0.645208 17.3611 0.440641 17.3015 0.351227 17.1159C0.261814 16.9303 0.192721 16.7244 0.166981 16.5198C0.0870507 15.8967 0.0762127 15.2694 0.179174 14.6476C0.22659 14.3563 0.544957 14.1016 0.843002 14.1219Z" fill="#0FB5CD"/>
</g>
<defs>
<clipPath id="clip0">
<rect width="28" height="24.6253" fill="white"/>
</clipPath>
</defs>
</svg>
