<svg width="28" height="28" viewBox="0 0 28 28" fill="none" xmlns="http://www.w3.org/2000/svg">
<g clip-path="url(#clip0)">
<path d="M27.3711 22.9415H26.0026C26.108 22.7361 26.168 22.5037 26.168 22.2574L26.1674 8.03979C26.1674 7.21057 25.4928 6.53594 24.6635 6.53594H20.294C20.1191 5.66871 19.7722 4.85392 19.2633 4.13292C19.1327 3.94786 18.8768 3.90372 18.6917 4.03432C18.5066 4.16491 18.4625 4.42085 18.5931 4.60591C19.2648 5.55758 19.6148 6.69913 19.6055 7.90707C19.5877 10.192 18.5418 11.3039 17.4345 12.481C16.8784 13.0721 16.3034 13.6833 15.8706 14.4462C15.3728 15.3238 15.0824 16.0806 14.849 16.6887C14.4948 17.612 14.355 17.9105 14.0547 17.9105C13.7792 17.9105 13.6193 17.5672 13.2647 16.6586C13.0262 16.0475 12.7293 15.2869 12.2363 14.4418C11.7867 13.6713 11.2103 13.0621 10.6528 12.4729C9.54773 11.3049 8.50396 10.2018 8.50396 7.91029C8.50396 6.42514 9.08135 5.03045 10.1298 3.98318C11.1735 2.94051 12.57 2.35175 14.062 2.32522C15.3141 2.30236 16.4904 2.68638 17.4664 3.43379C17.6462 3.57161 17.9037 3.53748 18.0414 3.35756C18.1791 3.17769 18.145 2.92028 17.9651 2.78257C16.8405 1.92125 15.4858 1.47943 14.0474 1.50502C12.342 1.53537 10.7448 2.20934 9.55002 3.40284C8.67677 4.27516 8.0885 5.35732 7.8312 6.5366H3.33594C2.50666 6.5366 1.83203 7.21122 1.83203 8.04045L1.83258 22.2581C1.83258 22.5041 1.89235 22.7363 1.99757 22.9416H0.628906C0.282133 22.9416 0 23.2237 0 23.5705V24.6642C0 25.6743 0.821844 26.4961 1.83203 26.4961H22.7454C22.9719 26.4961 23.1556 26.3125 23.1556 26.086C23.1556 25.8594 22.9719 25.6758 22.7454 25.6758H1.83203C1.27416 25.6758 0.820312 25.2219 0.820312 24.6641V23.7618H11.0742V24.0079C11.0742 24.5959 11.5526 25.0742 12.1406 25.0742H15.8594C16.4474 25.0742 16.9258 24.5958 16.9258 24.0079V23.7618H27.1797V24.6641C27.1797 25.2219 26.7258 25.6758 26.168 25.6758H24.4928C24.2663 25.6758 24.0827 25.8594 24.0827 26.086C24.0827 26.3125 24.2663 26.4961 24.4928 26.4961H26.168C27.1782 26.4961 28 25.6743 28 24.6641V23.5704C28 23.2237 27.7179 22.9415 27.3711 22.9415ZM2.65289 22.258L2.65234 8.04034C2.65234 7.66343 2.95898 7.3568 3.33594 7.3568H7.70755C7.69196 7.53984 7.68359 7.72436 7.68359 7.91024C7.68359 8.00091 7.68534 8.08956 7.68819 8.17706H3.88281C3.77404 8.17706 3.6697 8.22026 3.5928 8.29721C3.51586 8.37415 3.47266 8.47844 3.47266 8.58727L3.47304 17.473C3.47304 17.6995 3.65668 17.8832 3.8832 17.8832C4.10971 17.8832 4.29335 17.6995 4.29335 17.473L4.29297 8.99737H7.7607C8.04366 10.9077 9.0644 11.9877 10.0569 13.0366C10.6066 13.6176 11.1258 14.1664 11.5277 14.8552C11.9884 15.6449 12.2723 16.3724 12.5005 16.9569C12.8873 17.948 13.1929 18.7308 14.0547 18.7308C14.9442 18.7308 15.2402 17.9593 15.6149 16.9826C15.8384 16.4 16.1166 15.675 16.5841 14.851C16.9683 14.1738 17.485 13.6245 18.0319 13.0431C19.0245 11.988 20.0454 10.9017 20.3409 8.99682H23.7065L23.707 21.3004L4.29352 21.301L4.29346 19.2279C4.29346 19.0014 4.10982 18.8178 3.8833 18.8178C3.65679 18.8178 3.47315 19.0014 3.47315 19.2279L3.4732 21.7111C3.4732 21.9376 3.65684 22.1213 3.88336 22.1213L24.1172 22.1207C24.226 22.1207 24.3303 22.0775 24.4072 22.0006C24.4841 21.9236 24.5273 21.8193 24.5273 21.7105L24.5268 8.58661C24.5268 8.3601 24.3432 8.17651 24.1166 8.17651H20.4193C20.4227 8.09021 20.4251 8.00277 20.4258 7.91341C20.4272 7.72616 20.4204 7.54044 20.4068 7.35625H24.6635C25.0405 7.35625 25.3471 7.66289 25.3471 8.03979L25.3477 22.2574C25.3477 22.6343 25.041 22.9409 24.6641 22.9409L3.33648 22.9415C2.95952 22.9415 2.65289 22.6349 2.65289 22.258ZM16.1055 24.0079C16.1055 24.1436 15.9951 24.254 15.8594 24.254H12.1406C12.0049 24.254 11.8945 24.1436 11.8945 24.0079V23.7619H16.1055V24.0079Z" fill="#0FB5CD"/>
<path d="M11.293 7.87574C11.293 9.36833 12.5074 10.5827 14 10.5827C15.4926 10.5827 16.707 9.36833 16.707 7.87574C16.707 6.38316 15.4926 5.16882 14 5.16882C12.5074 5.16882 11.293 6.3831 11.293 7.87574ZM15.8867 7.87574C15.8867 8.91601 15.0403 9.76235 14 9.76235C12.9597 9.76235 12.1133 8.91601 12.1133 7.87574C12.1133 6.83548 12.9597 5.98913 14 5.98913C15.0403 5.98913 15.8867 6.83542 15.8867 7.87574Z" fill="#0FB5CD"/>
</g>
<defs>
<clipPath id="clip0">
<rect width="28" height="28" fill="white"/>
</clipPath>
</defs>
</svg>
