<svg width="28" height="14" viewBox="0 0 28 14" fill="none" xmlns="http://www.w3.org/2000/svg">
<g clip-path="url(#clip0)">
<path d="M14.0486 3.20564C16.7383 3.20564 19.4279 3.20443 22.1176 3.20806C22.2095 3.20806 22.3085 3.23464 22.3907 3.27572C22.9006 3.53067 23.4081 3.79287 23.8044 4.21699C24.8001 5.28392 25.0961 6.52243 24.6418 7.90715C24.3917 8.672 23.8201 9.21212 23.1894 9.68456C22.8559 9.93347 22.4874 10.1123 22.0669 10.1449C21.6633 10.1763 21.2585 10.2029 20.8537 10.2102C19.8835 10.2271 18.9132 10.2368 17.9429 10.2404C15.7172 10.2488 13.4916 10.2549 11.2659 10.2537C10.1361 10.2537 9.00633 10.2488 7.87778 10.221C7.20838 10.2053 6.53777 10.1703 5.8732 10.093C5.07814 10.0011 4.44741 9.57219 3.99308 8.933C3.17023 7.77786 2.98053 6.5176 3.56293 5.20055C3.90246 4.43328 4.50903 3.90283 5.23764 3.49684C5.62792 3.27935 6.02424 3.19356 6.47373 3.19597C8.99787 3.21531 11.5232 3.20564 14.0486 3.20564Z" fill="#0FB5CD"/>
<path d="M4.17839 3.14401C3.99352 3.1271 3.85215 3.06185 3.77723 2.90235C3.60566 2.53745 3.43891 2.17012 3.28425 1.79796C3.20933 1.61672 3.25404 1.44031 3.41716 1.31948C3.55128 1.21919 3.69024 1.11527 3.84369 1.05365C4.16872 0.923153 4.4998 0.805947 4.83571 0.709283C5.06408 0.642826 5.26828 0.732241 5.40844 0.925569C5.65252 1.26148 5.82168 1.63243 5.87968 2.04567C5.9123 2.27524 5.82047 2.47461 5.62473 2.59061C5.4024 2.72111 5.16557 2.83348 4.92391 2.92531C4.68104 3.01593 4.42609 3.07272 4.17839 3.14401Z" fill="#0FB5CD"/>
<path d="M18.468 1.46684C18.4402 1.71575 18.4137 1.96345 18.3823 2.21236C18.3653 2.34648 18.2928 2.42744 18.1539 2.45402C17.6271 2.55673 17.0978 2.55552 16.5698 2.49027C16.362 2.4649 16.2363 2.31749 16.1699 2.13141C16.0176 1.70125 16.0116 1.26264 16.1372 0.824023C16.1819 0.670569 16.2871 0.566655 16.4381 0.514698C16.9395 0.343119 17.4494 0.312911 17.9606 0.454283C18.294 0.546114 18.427 0.730984 18.439 1.07414C18.4439 1.20464 18.4403 1.33514 18.4403 1.46442C18.4487 1.46563 18.4584 1.46563 18.468 1.46684Z" fill="#0FB5CD"/>
<path d="M20.5369 10.6125C20.7266 10.6306 20.9719 10.6475 21.2148 10.6802C21.4685 10.714 21.6256 10.8662 21.6679 11.1176C21.7344 11.5103 21.738 11.9042 21.657 12.2957C21.6123 12.5083 21.483 12.6461 21.274 12.7053C20.7629 12.8503 20.2554 12.8358 19.7527 12.6714C19.5848 12.6171 19.4736 12.5011 19.4168 12.3367C19.2682 11.9078 19.2682 11.4752 19.4192 11.0475C19.5075 10.7961 19.6863 10.6548 19.963 10.6475C20.1346 10.6427 20.3073 10.627 20.5369 10.6125Z" fill="#0FB5CD"/>
<path d="M10.8752 12.802C10.6335 12.7839 10.445 12.7766 10.259 12.7549C9.92306 12.715 9.73698 12.564 9.69832 12.2317C9.66086 11.9091 9.65361 11.5768 9.68382 11.253C9.71644 10.9001 9.89768 10.7418 10.2517 10.6766C10.6347 10.6065 11.019 10.6065 11.4032 10.6681C11.7633 10.7261 11.9893 10.9352 12.017 11.2965C12.0424 11.6154 12.0315 11.9405 12.005 12.2595C11.9832 12.5181 11.8068 12.6775 11.5555 12.7223C11.3138 12.7658 11.0673 12.7803 10.8752 12.802Z" fill="#0FB5CD"/>
<path d="M26.5468 7.84677C26.3788 7.83469 26.2096 7.83348 26.0429 7.80932C25.6876 7.75615 25.5559 7.63169 25.504 7.27283C25.4399 6.83663 25.4399 6.39802 25.5221 5.96423C25.5716 5.70082 25.7275 5.53045 25.9946 5.48212C26.3486 5.41808 26.7038 5.41325 27.0567 5.49179C27.3334 5.55341 27.5074 5.72499 27.5666 6.00048C27.6632 6.44997 27.6584 6.90067 27.5388 7.34533C27.4518 7.66915 27.2742 7.8069 26.937 7.82865C26.8077 7.83711 26.6772 7.82986 26.5468 7.82986C26.5468 7.8359 26.5468 7.84073 26.5468 7.84677Z" fill="#0FB5CD"/>
<path d="M20.553 2.53865C20.3814 2.52778 20.2134 2.52053 20.0455 2.50482C19.5718 2.45891 19.3797 2.28974 19.3314 1.81246C19.3036 1.53697 19.3205 1.25423 19.3531 0.978735C19.387 0.687534 19.5742 0.499039 19.8606 0.433791C20.3041 0.333502 20.7511 0.340751 21.1946 0.433791C21.4761 0.492998 21.6513 0.686326 21.6719 0.965444C21.6972 1.30377 21.7021 1.64934 21.6694 1.98646C21.6356 2.33083 21.464 2.46495 21.1136 2.49999C20.9263 2.51811 20.7391 2.52657 20.553 2.53865Z" fill="#0FB5CD"/>
<path d="M0.458984 6.71695C0.478317 6.49341 0.485567 6.30975 0.509733 6.12851C0.565315 5.71285 0.763477 5.50502 1.18517 5.46636C1.46188 5.44098 1.74462 5.44702 2.02132 5.47602C2.35239 5.51106 2.52881 5.69593 2.58681 6.02459C2.66051 6.44146 2.64964 6.85953 2.59647 7.2776C2.55781 7.57967 2.37173 7.76213 2.08898 7.78871C1.73133 7.82254 1.36763 7.82013 1.00997 7.79475C0.757435 7.77663 0.585856 7.60867 0.538732 7.35251C0.496442 7.12898 0.481942 6.90303 0.458984 6.71695Z" fill="#0FB5CD"/>
<path d="M23.9216 10.105C24.1089 10.1292 24.2599 10.1969 24.3662 10.3419C24.6091 10.6729 24.771 11.0427 24.8363 11.4487C24.8725 11.671 24.7867 11.8631 24.6018 11.99C24.1826 12.2788 23.7125 12.4467 23.2111 12.5216C22.9863 12.5555 22.8039 12.46 22.6806 12.2691C22.4511 11.9127 22.3206 11.5139 22.2275 11.1055C22.2082 11.0221 22.2638 10.8941 22.3278 10.8252C22.5852 10.5424 22.9356 10.4059 23.286 10.2827C23.4914 10.2077 23.7089 10.163 23.9216 10.105Z" fill="#0FB5CD"/>
<path d="M7.58695 0.473694C7.79719 0.493027 8.05577 0.51236 8.31314 0.543775C8.53305 0.570358 8.66838 0.703271 8.72033 0.918349C8.80975 1.29413 8.81941 1.67233 8.74208 2.05053C8.67321 2.39006 8.54755 2.52297 8.20439 2.55802C7.8419 2.59547 7.47216 2.6281 7.11208 2.59426C6.60339 2.54714 6.43664 2.3526 6.40039 1.83787C6.38106 1.566 6.39194 1.28809 6.41973 1.01622C6.45235 0.681522 6.60822 0.544984 6.94534 0.514776C7.14229 0.49786 7.34045 0.489402 7.58695 0.473694Z" fill="#0FB5CD"/>
<path d="M14.0951 12.8008C13.9138 12.7827 13.6685 12.767 13.4257 12.7295C13.1562 12.6872 12.9846 12.512 12.9569 12.2486C12.9242 11.9393 12.9061 11.6215 12.9363 11.3134C12.9798 10.8844 13.1369 10.7201 13.5646 10.6705C13.9114 10.6307 14.2691 10.6295 14.6158 10.6669C15.0496 10.7128 15.2236 10.9098 15.2889 11.3508C15.3408 11.6988 15.3167 12.0432 15.1946 12.3767C15.1137 12.599 14.9687 12.7452 14.7222 12.7621C14.5349 12.7754 14.3476 12.7851 14.0951 12.8008Z" fill="#0FB5CD"/>
<path d="M7.61487 12.802C7.38167 12.7839 7.19801 12.7778 7.01676 12.7561C6.63977 12.7102 6.45732 12.5446 6.42228 12.1664C6.39569 11.8716 6.39932 11.5695 6.42832 11.2747C6.45973 10.9449 6.65548 10.7539 6.97689 10.6851C7.35388 10.6041 7.73449 10.6017 8.11269 10.6669C8.56943 10.7455 8.74947 10.9533 8.78088 11.4523C8.79659 11.7061 8.78209 11.9635 8.75551 12.216C8.7253 12.5048 8.56943 12.6715 8.28306 12.7247C8.04744 12.7682 7.80578 12.7803 7.61487 12.802Z" fill="#0FB5CD"/>
<path d="M25.8691 10.7624C25.8485 10.76 25.7942 10.76 25.7446 10.743C25.3411 10.6089 24.9798 10.3999 24.6668 10.1135C24.5013 9.96247 24.4614 9.77519 24.546 9.56011C24.7188 9.12029 24.9556 8.72034 25.2734 8.37114C25.4921 8.13069 25.6709 8.08719 25.9585 8.23339C26.2533 8.38322 26.5457 8.54634 26.8091 8.7445C27.0653 8.93662 27.197 9.21574 26.9602 9.59877C26.7681 9.90931 26.5796 10.2247 26.3705 10.5231C26.2388 10.7116 26.0902 10.766 25.8691 10.7624Z" fill="#0FB5CD"/>
<path d="M5.05795 12.541C4.92141 12.5144 4.77883 12.5036 4.64955 12.4564C4.36076 12.3513 4.06956 12.2438 3.79407 12.1097C3.42312 11.9296 3.32404 11.7206 3.41587 11.3218C3.47145 11.079 3.54878 10.8385 3.64666 10.6089C3.82186 10.1981 4.03452 10.0833 4.47072 10.1667C4.86946 10.2428 5.25249 10.3745 5.59927 10.5944C5.94001 10.8107 6.0258 11.0198 5.89289 11.4016C5.79139 11.6916 5.66935 11.9755 5.53402 12.251C5.42044 12.4878 5.3274 12.5265 5.05795 12.541Z" fill="#0FB5CD"/>
<path d="M14.055 2.54594C13.7723 2.52781 13.5705 2.51815 13.3687 2.50123C13.2237 2.48915 13.1029 2.42994 13.0086 2.31153C12.6896 1.91279 12.6764 0.954603 13.1826 0.584863C13.3119 0.490615 13.4823 0.409659 13.6382 0.399992C13.962 0.379451 14.2919 0.391534 14.6157 0.42295C14.9347 0.454366 15.1075 0.669444 15.1558 0.977561C15.2198 1.3908 15.2053 1.80283 15.1256 2.21365C15.099 2.35019 15.0253 2.44082 14.8803 2.45652C14.5794 2.48915 14.2786 2.52177 14.055 2.54594Z" fill="#0FB5CD"/>
<path d="M1.07129 3.99946C1.10029 3.8883 1.10633 3.76505 1.1607 3.66839C1.34195 3.34094 1.51957 3.00745 1.73706 2.70295C1.95698 2.39725 2.19622 2.34288 2.53696 2.51325C2.82454 2.65583 3.0952 2.83587 3.35861 3.02074C3.5761 3.17298 3.63168 3.40377 3.54348 3.65268C3.39002 4.08404 3.16165 4.47433 2.86079 4.81869C2.66987 5.03619 2.427 5.0966 2.15151 4.99994C1.82044 4.88273 1.52199 4.70753 1.27187 4.45862C1.1462 4.33537 1.0725 4.18675 1.07129 3.99946Z" fill="#0FB5CD"/>
<path d="M24.7026 1.73755C24.6821 2.04567 24.5878 2.41178 24.4042 2.75131C24.2314 3.0691 23.9752 3.19234 23.6284 3.08118C23.249 2.95914 22.8841 2.79481 22.5132 2.64861C22.2981 2.56403 22.2244 2.39366 22.2256 2.17737C22.2268 1.75809 22.3392 1.36781 22.5506 1.00773C22.7198 0.721365 22.8479 0.662158 23.1741 0.721365C23.6127 0.801113 24.032 0.942485 24.4223 1.16119C24.6736 1.30256 24.7111 1.37627 24.7026 1.73755Z" fill="#0FB5CD"/>
<path d="M25.5872 5.06516C25.4035 5.07362 25.2561 4.9975 25.1425 4.87304C24.8247 4.52384 24.5795 4.12752 24.4405 3.6732C24.374 3.4557 24.4296 3.25875 24.594 3.1053C24.9081 2.81047 25.2887 2.62077 25.6838 2.46489C25.8566 2.39723 26.0137 2.48544 26.1285 2.60627C26.5345 3.03401 26.8088 3.53666 26.9369 4.11423C26.9501 4.17706 26.9344 4.26889 26.8946 4.31602C26.555 4.73288 26.1031 4.95762 25.5872 5.06516Z" fill="#0FB5CD"/>
<path d="M18.4677 11.7048C18.4399 11.9284 18.4194 12.1543 18.3807 12.3755C18.3493 12.5531 18.2321 12.6606 18.0545 12.7041C17.5482 12.8274 17.0431 12.8237 16.5356 12.7089C16.3048 12.657 16.1599 12.5072 16.1478 12.28C16.1284 11.9115 16.126 11.5393 16.1514 11.1708C16.1731 10.8542 16.3955 10.6862 16.6939 10.6681C17.0915 10.6452 17.495 10.6331 17.8913 10.6669C18.2587 10.6983 18.4109 10.9049 18.4363 11.2976C18.4447 11.4318 18.4375 11.5683 18.4375 11.7024C18.4472 11.7036 18.458 11.7036 18.4677 11.7048Z" fill="#0FB5CD"/>
<path d="M2.59041 8.10773C2.67499 8.1476 2.8079 8.17539 2.89007 8.25514C3.26826 8.62488 3.52201 9.07679 3.68271 9.57944C3.74433 9.77156 3.68513 9.95522 3.53167 10.0918C3.23806 10.354 2.91061 10.5642 2.53845 10.6971C2.31854 10.7757 2.11434 10.7322 1.95363 10.563C1.63101 10.2247 1.38452 9.83439 1.23227 9.39215C1.14649 9.14445 1.19844 8.91608 1.39419 8.73121C1.66122 8.48109 1.96934 8.29501 2.30887 8.16452C2.385 8.13552 2.46958 8.13189 2.59041 8.10773Z" fill="#0FB5CD"/>
<path d="M10.7995 2.53983C10.5929 2.52654 10.3863 2.51929 10.1797 2.49995C9.8764 2.47095 9.70844 2.34529 9.68549 2.05167C9.65649 1.68918 9.6589 1.32065 9.68911 0.958158C9.71207 0.67904 9.84861 0.547335 10.1483 0.529211C10.5941 0.50142 11.0436 0.499003 11.4883 0.534044C11.8508 0.563043 11.9378 0.680248 12.0139 1.04153C12.0864 1.38106 12.0767 1.72181 11.9982 2.05892C11.9293 2.35254 11.7759 2.46854 11.4363 2.50116C11.3409 2.51083 11.2442 2.52291 11.1487 2.52654C11.0327 2.53137 10.9167 2.52774 10.802 2.52774C10.7995 2.53258 10.7995 2.5362 10.7995 2.53983Z" fill="#0FB5CD"/>
<path d="M6.18284 12.5966C6.22996 12.6268 6.28071 12.6461 6.31334 12.6823C6.55379 12.953 6.86312 13.0424 7.21111 13.034C7.59655 13.0255 7.982 13.0183 8.36745 13.0038C8.52091 12.9977 8.63569 12.9155 8.72028 12.7826C8.76619 12.7113 8.82902 12.6473 8.89548 12.5941C8.96194 12.5398 9.02477 12.57 9.02114 12.6533C9.01752 12.7355 9.0006 12.8285 8.9571 12.895C8.80848 13.1246 8.56924 13.1959 8.31187 13.2285C7.77297 13.2974 7.23406 13.3034 6.7012 13.1862C6.56829 13.1572 6.43538 13.0968 6.31938 13.0243C6.15988 12.9264 6.12847 12.8008 6.18284 12.5966Z" fill="#0FB5CD"/>
<path d="M23.0926 13.0159C22.8437 13.0183 22.666 12.9301 22.5235 12.7754C22.4908 12.7404 22.492 12.6751 22.4775 12.6244C22.5271 12.6232 22.5839 12.6038 22.6237 12.622C22.7989 12.7041 22.9705 12.7851 23.1735 12.7657C23.7535 12.7126 24.2815 12.5277 24.7455 12.1725C24.8664 12.0794 24.9497 11.961 24.9763 11.8015C24.9908 11.7169 25.0174 11.5925 25.131 11.6191C25.1757 11.6299 25.2143 11.7689 25.2131 11.8499C25.2107 12.0081 25.1418 12.1507 25.0174 12.2534C24.9328 12.3235 24.8434 12.3936 24.7467 12.4443C24.261 12.6945 23.7523 12.8805 23.2182 13.0002C23.1663 13.011 23.1131 13.0134 23.0926 13.0159Z" fill="#0FB5CD"/>
<path d="M9.43842 12.576C9.50367 12.6316 9.57133 12.6823 9.63054 12.7415C9.78158 12.8938 9.96162 13.0049 10.1755 13.0086C10.6564 13.017 11.1373 13.011 11.6182 13.0013C11.7765 12.9977 11.8985 12.9095 11.9855 12.7766C11.9964 12.7609 12.0061 12.7415 12.0206 12.7319C12.0919 12.6872 12.1656 12.6449 12.2381 12.6026C12.2296 12.6884 12.2417 12.7838 12.2066 12.8587C12.1245 13.0339 11.9686 13.1451 11.7849 13.1826C11.1542 13.3118 10.5211 13.3058 9.89395 13.1596C9.63658 13.1004 9.46259 12.9324 9.41305 12.6594C9.41063 12.6449 9.40942 12.6304 9.41063 12.6171C9.41305 12.6098 9.42151 12.6026 9.43842 12.576Z" fill="#0FB5CD"/>
<path d="M15.8519 12.5144C15.916 12.5664 15.9945 12.6087 16.0441 12.6727C16.2628 12.9554 16.5564 13.0461 16.8983 13.0376C17.2113 13.0291 17.5254 13.0316 17.8396 13.0291C18.0849 13.0279 18.2891 12.947 18.4389 12.7404C18.4909 12.6679 18.5682 12.6123 18.6395 12.5555C18.66 12.5386 18.7108 12.5349 18.7313 12.5494C18.7482 12.5615 18.7507 12.6123 18.741 12.6389C18.6479 12.895 18.5042 13.1101 18.2166 13.1657C17.7067 13.2648 17.1907 13.2442 16.6748 13.2285C16.328 13.2176 16.0864 13.04 15.8894 12.7802C15.8411 12.7174 15.8254 12.6304 15.7939 12.5543C15.8133 12.541 15.8326 12.5277 15.8519 12.5144Z" fill="#0FB5CD"/>
<path d="M9.00794 0.698386C8.94995 0.650054 8.90282 0.623471 8.87382 0.584805C8.70345 0.360061 8.47025 0.254938 8.19838 0.252522C7.75977 0.248897 7.32116 0.257355 6.88375 0.267021C6.66384 0.271855 6.48864 0.375769 6.34606 0.541306C6.30135 0.593263 6.24456 0.635554 6.18656 0.689927C6.12131 0.465183 6.16844 0.309312 6.37385 0.221106C6.57805 0.134108 6.80038 0.0640266 7.0215 0.0422772C7.53019 -0.00726323 8.0413 -0.0229712 8.54396 0.108734C8.62733 0.130483 8.70949 0.163107 8.78562 0.201773C8.98982 0.308104 9.0454 0.426517 9.00794 0.698386Z" fill="#0FB5CD"/>
<path d="M3.00926 11.6166C3.12888 11.7725 3.23038 11.967 3.38504 12.0987C3.85386 12.4927 4.4121 12.7017 5.01988 12.7573C5.17212 12.7706 5.33283 12.6969 5.48749 12.6534C5.56724 12.6304 5.64215 12.5869 5.74002 12.5434C5.60711 12.8709 5.19508 13.0823 4.85434 12.9736C4.36135 12.8153 3.87682 12.6256 3.39592 12.431C3.02497 12.28 2.96335 11.9598 3.00926 11.6166Z" fill="#0FB5CD"/>
<path d="M12.7268 12.5712C12.7703 12.6268 12.8102 12.686 12.8561 12.7392C12.9903 12.8963 13.1594 13.005 13.3672 13.0074C13.8675 13.0147 14.3689 13.011 14.8704 13.0026C15.0335 13.0002 15.1592 12.9096 15.2522 12.773C15.2897 12.7174 15.338 12.6679 15.3887 12.6244C15.4141 12.6026 15.4564 12.6002 15.4902 12.5894C15.5023 12.628 15.5313 12.6727 15.5217 12.7053C15.5023 12.773 15.4709 12.8419 15.4286 12.8975C15.2582 13.121 15.0154 13.1983 14.7471 13.2298C14.2408 13.289 13.737 13.2853 13.2355 13.1863C13.0446 13.1488 12.8767 13.0618 12.7703 12.8951C12.7172 12.8129 12.6954 12.7102 12.6592 12.6171C12.6821 12.6026 12.7039 12.5869 12.7268 12.5712Z" fill="#0FB5CD"/>
<path d="M12.2561 0.686312C12.2126 0.650063 12.1654 0.624689 12.1364 0.584815C11.9661 0.36007 11.7329 0.254948 11.4598 0.25374C10.9825 0.250115 10.5052 0.258573 10.0292 0.268239C9.84308 0.271864 9.7005 0.362487 9.59901 0.521983C9.56155 0.579981 9.5108 0.63073 9.46126 0.689937C9.38514 0.523191 9.4238 0.345571 9.58934 0.256156C9.75488 0.166742 9.94096 0.0882022 10.1258 0.0616195C10.6478 -0.0132952 11.1746 -0.0241699 11.6942 0.0845773C11.8549 0.11841 12.0132 0.192116 12.1534 0.280322C12.2959 0.369737 12.3213 0.51715 12.2561 0.686312Z" fill="#0FB5CD"/>
<path d="M0.763463 5.21989C0.705464 5.29722 0.67284 5.36368 0.619675 5.40597C0.335724 5.6283 0.212477 5.92071 0.222143 6.27595C0.230602 6.60823 0.226977 6.94051 0.246309 7.27159C0.258392 7.47579 0.365931 7.64254 0.513344 7.78512C0.594301 7.86366 0.666799 7.95186 0.747755 8.04128C0.555635 8.12103 0.391306 8.08599 0.292225 7.91199C0.194352 7.7392 0.109771 7.54829 0.0711055 7.35496C-0.0364334 6.81968 -0.0303919 6.28078 0.135146 5.75638C0.181061 5.60896 0.270476 5.47001 0.363515 5.34435C0.446888 5.23077 0.574968 5.18002 0.763463 5.21989Z" fill="#0FB5CD"/>
<path d="M25.7549 11.1151C25.8419 11.0777 25.9253 11.0136 26.0147 11.0052C26.3385 10.9762 26.5403 10.7841 26.6962 10.5279C26.8738 10.2355 27.0429 9.93825 27.2121 9.64101C27.3571 9.38364 27.3583 9.11781 27.2447 8.84836C27.2121 8.77224 27.1879 8.69249 27.1541 8.59583C27.4344 8.69128 27.5553 9.09727 27.4973 9.31839C27.3378 9.93583 27.0333 10.482 26.62 10.9617C26.4062 11.2106 26.0195 11.2855 25.7803 11.1659C25.7706 11.149 25.7621 11.1321 25.7549 11.1151Z" fill="#0FB5CD"/>
<path d="M27.0321 4.68335C27.0732 4.56977 27.1046 4.47794 27.1408 4.38611C27.2339 4.14928 27.2423 3.91004 27.1179 3.68771C26.91 3.31918 26.6938 2.95427 26.469 2.5954C26.3591 2.4202 26.1899 2.32112 25.9772 2.30058C25.912 2.29454 25.8467 2.26916 25.7875 2.23895C25.7597 2.22445 25.7271 2.17975 25.7307 2.15196C25.7344 2.12537 25.7803 2.08308 25.8069 2.08308C25.9241 2.08308 26.0461 2.07946 26.1585 2.10967C26.2419 2.13262 26.3228 2.19425 26.3881 2.25587C26.8895 2.72469 27.2544 3.27689 27.3837 3.96199C27.4369 4.25199 27.2919 4.55889 27.0321 4.68335Z" fill="#0FB5CD"/>
<path d="M2.9176 1.65418C2.84631 1.44756 2.88618 1.25302 3.02272 1.0899C3.12301 0.970277 3.24384 0.856697 3.37796 0.776949C3.91203 0.460373 4.48476 0.257379 5.11429 0.254962C5.30037 0.253754 5.46591 0.312961 5.5819 0.47004C5.61211 0.511122 5.63507 0.555829 5.66286 0.599328C5.6544 0.613828 5.64594 0.627119 5.63748 0.641619C5.56257 0.615036 5.47316 0.60537 5.41516 0.558246C5.18075 0.369751 4.93063 0.373376 4.66722 0.473665C4.29385 0.616244 3.91928 0.753991 3.54833 0.902612C3.326 0.992027 3.18342 1.15998 3.10851 1.39077C3.07709 1.48985 3.01909 1.58047 2.97318 1.67593C2.95384 1.66868 2.93572 1.66143 2.9176 1.65418Z" fill="#0FB5CD"/>
<path d="M2.20232 11.2542C2.09237 11.1998 1.96791 11.1623 1.87729 11.085C1.72384 10.9545 1.57763 10.8119 1.45559 10.6524C1.17164 10.2851 0.942064 9.88396 0.789818 9.44293C0.701612 9.18919 0.676237 8.93303 0.835733 8.69499C0.865941 8.65028 0.928773 8.62612 0.977105 8.59229C0.98798 8.65391 1.02785 8.73245 1.00369 8.77353C0.811567 9.10098 0.945689 9.38856 1.10277 9.67009C1.29247 10.0096 1.4858 10.3492 1.69484 10.6778C1.82533 10.882 2.02229 10.9968 2.27724 10.9992C2.33645 10.9992 2.39444 11.0524 2.45244 11.0814C2.39324 11.1297 2.33524 11.1793 2.27361 11.224C2.26032 11.2336 2.23616 11.2276 2.21682 11.2276C2.21199 11.2361 2.20716 11.2445 2.20232 11.2542Z" fill="#0FB5CD"/>
<path d="M0.905817 4.56743C0.653282 4.41397 0.546951 4.21823 0.610991 3.96932C0.672614 3.72886 0.758404 3.49083 0.865943 3.26729C1.05323 2.87459 1.2816 2.50485 1.60663 2.2064C1.74559 2.07832 1.89179 1.9587 2.0972 1.95991C2.2277 1.96112 2.26878 1.98649 2.36303 2.13874C2.26153 2.15082 2.16487 2.1472 2.08029 2.1774C1.94375 2.22574 1.77821 2.26198 1.68759 2.36107C1.32751 2.75497 1.04236 3.20809 0.888901 3.7192C0.828486 3.91978 0.884068 4.1554 0.888901 4.3741C0.890109 4.4321 0.898567 4.48768 0.905817 4.56743Z" fill="#0FB5CD"/>
<path d="M25.0069 1.63842C25.0008 1.59733 24.99 1.55746 24.9887 1.51638C24.9827 1.27472 24.8522 1.10918 24.6565 0.990767C24.1901 0.710441 23.6826 0.53282 23.1582 0.401115C23.0035 0.362449 22.8803 0.448239 22.7546 0.520737C22.6386 0.588402 22.5153 0.642776 22.3691 0.716482C22.4018 0.49053 22.5951 0.289951 22.8017 0.285118C23.0494 0.279077 23.3032 0.29116 23.5448 0.341908C24.062 0.451864 24.5453 0.654859 24.9706 0.978684C25.1446 1.1116 25.2232 1.28197 25.1591 1.49705C25.141 1.55625 25.0854 1.60338 25.0467 1.65654C25.0335 1.65171 25.0202 1.64446 25.0069 1.63842Z" fill="#0FB5CD"/>
<path d="M19.0865 12.4854C19.1844 12.5675 19.2641 12.6171 19.3197 12.6847C19.5263 12.9348 19.791 13.0412 20.1087 13.0339C20.4604 13.0255 20.8132 13.0255 21.1648 13.0085C21.3678 12.9989 21.5237 12.8817 21.6626 12.7403C21.7387 12.663 21.8233 12.5953 21.9115 12.5168C21.9973 12.7488 21.9127 12.9687 21.6964 13.04C21.4971 13.1052 21.2868 13.1511 21.0778 13.1705C20.6017 13.214 20.122 13.2164 19.6544 13.098C19.5046 13.0605 19.3584 12.9808 19.2291 12.895C19.1071 12.8164 19.0515 12.6871 19.0865 12.4854Z" fill="#0FB5CD"/>
<path d="M15.5451 0.735864C15.4751 0.693573 15.4291 0.673032 15.3917 0.640408C15.3035 0.565493 15.2153 0.48937 15.1367 0.404789C14.9495 0.203002 14.7138 0.124462 14.448 0.125671C14.1206 0.126879 13.7931 0.130504 13.4657 0.146212C13.2699 0.155878 13.1116 0.259792 12.9739 0.39633C12.882 0.488162 12.7866 0.577576 12.6863 0.659741C12.6549 0.685115 12.6029 0.683907 12.5594 0.694781C12.5606 0.654907 12.5498 0.608992 12.5643 0.573951C12.7032 0.241668 12.9485 0.035048 13.3122 0.0290065C13.8475 0.0205483 14.3828 0.0253816 14.9168 0.0519642C15.2032 0.0652555 15.5041 0.357665 15.5524 0.611408C15.556 0.639199 15.5488 0.668199 15.5451 0.735864Z" fill="#0FB5CD"/>
<path d="M15.7988 0.68873C15.8157 0.627106 15.8242 0.56065 15.8532 0.505068C16.0054 0.213867 16.2423 0.0338297 16.5746 0.0302048C17.1086 0.0253716 17.6439 0.0265799 18.1768 0.0543708C18.4945 0.0700788 18.6722 0.30449 18.8015 0.571524C18.8111 0.592066 18.8123 0.618648 18.8135 0.641606C18.8148 0.65973 18.8075 0.677855 18.8003 0.721354C18.7471 0.694771 18.6975 0.680272 18.6625 0.650064C18.567 0.569108 18.4728 0.485735 18.3858 0.396321C18.242 0.247699 18.0704 0.14741 17.8662 0.141369C17.4965 0.129286 17.1243 0.129286 16.7546 0.141369C16.5395 0.148618 16.3631 0.259782 16.2145 0.416862C16.1347 0.500235 16.0465 0.576358 15.9595 0.651272C15.9257 0.680272 15.8822 0.697188 15.8435 0.718937C15.829 0.708063 15.8133 0.698396 15.7988 0.68873Z" fill="#0FB5CD"/>
<path d="M20.5678 0C20.8566 0.0157079 21.1466 0.0217494 21.4341 0.051957C21.7507 0.0845812 21.9344 0.299659 22.0576 0.571527C22.0733 0.606568 22.0528 0.658525 22.048 0.702024C22.0093 0.688733 21.9634 0.683899 21.9344 0.658525C21.8353 0.575152 21.7362 0.488154 21.6456 0.395115C21.4945 0.238036 21.3097 0.13533 21.097 0.136538C20.6451 0.140163 20.1932 0.166746 19.7413 0.189704C19.6761 0.193328 19.6108 0.223536 19.5492 0.250119C19.409 0.310534 19.3027 0.396323 19.2942 0.567902C19.2906 0.646442 19.2556 0.738273 19.1553 0.700816C19.1154 0.686316 19.0816 0.586027 19.0876 0.529237C19.1118 0.289993 19.3716 0.079748 19.6857 0.0507487C19.9793 0.0241661 20.2742 0.0169162 20.5678 0Z" fill="#0FB5CD"/>
<path d="M27.3896 8.05819C27.4609 7.95911 27.5008 7.87453 27.566 7.81895C27.821 7.60145 27.8995 7.32354 27.8765 7.00213C27.8524 6.65656 27.8355 6.30977 27.8089 5.9642C27.7908 5.72616 27.6868 5.53283 27.4863 5.39267C27.4271 5.35159 27.3787 5.296 27.3135 5.23559C27.5406 5.16913 27.7219 5.23317 27.8089 5.43133C27.8814 5.59566 27.9321 5.77691 27.9527 5.95574C28.0131 6.4886 28.0203 7.02388 27.9442 7.55554C27.9068 7.81532 27.6615 8.05094 27.3896 8.05819Z" fill="#0FB5CD"/>
</g>
<defs>
<clipPath id="clip0">
<rect width="28" height="13.278" fill="white"/>
</clipPath>
</defs>
</svg>
